<?xml version="1.0" encoding="UTF-8" standalone="no"?>
<!-- Created with Inkscape (http://www.inkscape.org/) -->

<svg
   width="40.57357mm"
   height="40.569443mm"
   viewBox="0 0 40.573571 40.569443"
   version="1.1"
   id="svg35221"
   inkscape:version="1.2.1 (9c6d41e410, 2022-07-14)"
   sodipodi:docname="15.svg"
   xmlns:inkscape="http://www.inkscape.org/namespaces/inkscape"
   xmlns:sodipodi="http://sodipodi.sourceforge.net/DTD/sodipodi-0.dtd"
   xmlns="http://www.w3.org/2000/svg"
   xmlns:svg="http://www.w3.org/2000/svg">
  <sodipodi:namedview
     id="namedview35223"
     pagecolor="#ffffff"
     bordercolor="#000000"
     borderopacity="0.25"
     inkscape:showpageshadow="2"
     inkscape:pageopacity="0.0"
     inkscape:pagecheckerboard="0"
     inkscape:deskcolor="#d1d1d1"
     inkscape:document-units="mm"
     showgrid="false"
     inkscape:zoom="2.8284271"
     inkscape:cx="-117.20295"
     inkscape:cy="105.71246"
     inkscape:window-width="1920"
     inkscape:window-height="1009"
     inkscape:window-x="2552"
     inkscape:window-y="421"
     inkscape:window-maximized="1"
     inkscape:current-layer="g67190" />
  <defs
     id="defs35218" />
  <g
     inkscape:groupmode="layer"
     id="layer2"
     inkscape:label="Capa 2">
    <g
       id="g67190"
       transform="matrix(0.35277777,0,0,0.35277777,-636.01078,-165.86274)">
      <path
         fill-rule="nonzero"
         fill="#ff3c3c"
         fill-opacity="1"
         d="m 1802.875,527.66406 v -51.75 c 0,-3.17578 2.5859,-5.75 5.7539,-5.75 h 103.5039 c 3.168,0 5.7344,2.57422 5.7344,5.75 v 103.5 c 0,3.17188 -2.5664,5.7461 -5.7344,5.7461 h -103.5039 c -3.168,0 -5.7539,-2.57422 -5.7539,-5.7461"
         id="path6168"
         style="fill:#264653;fill-opacity:1" />
      <g
         fill="#ffffff"
         fill-opacity="1"
         id="g6172">
        <g
           id="use6170"
           transform="translate(1845.3765,527.68402)">
          <path
             d="m 3.90625,-29.78125 v 29.734375 h 6.296875 V -11.53125 h 5.390625 c 3.421875,0 7.671875,-0.203125 9.984375,-3.125 1.375,-1.578125 1.890625,-3.765625 1.890625,-5.828125 0,-2.78125 -0.8125,-5.6875 -3.46875,-7.5 -2.65625,-1.796875 -5.921875,-1.75 -8.96875,-1.796875 z m 6.15625,14.875 v -11.1875 h 4.890625 c 1.890625,0 3.984375,0.09375 5.390625,1.5 1.078125,1.109375 1.15625,2.78125 1.15625,4.25 0,1.75 -0.25,3.421875 -1.875,4.484375 -1.421875,0.90625 -3.171875,0.953125 -4.796875,0.953125 z m 0,0"
             id="path67841" />
        </g>
      </g>
      <g
         fill="#ffffff"
         fill-opacity="1"
         id="g6176">
        <g
           id="use6174"
           transform="translate(1820.4169,549.52405)">
          <path
             d="m 1.375,-11.96875 v 11.953125 h 1.203125 v -5.09375 H 6.125 C 7.984375,-5.25 10,-6.484375 10,-8.5625 c 0,-2.375 -2.578125,-3.40625 -4.5,-3.40625 z m 1.1875,5.984375 v -5.0625 h 2.328125 c 1.28125,0 2.78125,0.04687 3.578125,1.21875 0.265625,0.375 0.40625,0.828125 0.40625,1.28125 0,0.8125 -0.4375,1.59375 -1.15625,2.015625 C 6.875,-6.015625 5.890625,-5.984375 4.9375,-5.984375 Z m 0,0"
             id="path67801" />
        </g>
      </g>
      <g
         fill="#ffffff"
         fill-opacity="1"
         id="g6180">
        <g
           id="use6178"
           transform="translate(1831.3326,549.52405)">
          <path
             d="m 1.109375,-11.96875 v 11.953125 h 1.09375 V -4.34375 c 0,-1.15625 0.234375,-3.046875 1.953125,-3.046875 0.59375,0 1.25,0.125 1.625,0.625 0.3125,0.390625 0.328125,0.90625 0.328125,1.390625 v 5.359375 H 7.21875 V -5.4375 C 7.21875,-6.078125 7.1875,-6.71875 6.875,-7.265625 6.421875,-8.046875 5.546875,-8.25 4.71875,-8.25 c -1.0625,0 -2.296875,0.828125 -2.515625,1.765625 L 2.1875,-11.96875 Z m 0,0"
             id="path67817" />
        </g>
      </g>
      <g
         fill="#ffffff"
         fill-opacity="1"
         id="g6184">
        <g
           id="use6182"
           transform="translate(1839.6067,549.52405)">
          <path
             d="m 4.125,-8.296875 c -2.171875,0.21875 -3.5625,2.1875 -3.5625,4.234375 0,1.921875 1.359375,4.15625 3.828125,4.15625 2.1875,0 3.78125,-2.046875 3.78125,-4.140625 0,-2.0625 -1.421875,-4.25 -3.8125,-4.25 z M 1.671875,-3.90625 v -0.203125 c 0,-0.921875 0.15625,-1.9375 0.859375,-2.609375 0.5,-0.484375 1.171875,-0.71875 1.84375,-0.71875 1.8125,0 2.71875,1.53125 2.71875,3.265625 0,1.65625 -0.859375,3.359375 -2.71875,3.359375 -1,0 -1.8125,-0.53125 -2.296875,-1.390625 -0.265625,-0.53125 -0.34375,-1.125 -0.40625,-1.703125 z m 0,0"
             id="path67789" />
        </g>
      </g>
      <g
         fill="#ffffff"
         fill-opacity="1"
         id="g6188">
        <g
           id="use6186"
           transform="translate(1848.3611,549.52405)">
          <path
             d="M 0.53125,-1.71875 C 0.5,-1.421875 0.375,-1.125 0.375,-0.828125 c 0,0.453125 1.890625,0.8125 2.125,0.84375 0.328125,0.046875 0.671875,0.078125 1,0.078125 1.328125,0 2.796875,-0.5625 2.890625,-2.28125 v -0.125 C 6.390625,-3.40625 5.5625,-4.171875 4.625,-4.515625 3.65625,-4.875 1.46875,-4.71875 1.46875,-6.203125 c 0,-0.9375 0.96875,-1.234375 1.796875,-1.234375 h 0.34375 C 4.25,-7.421875 4.90625,-7.28125 5.5,-6.984375 c 0.125,0.0625 0.25,0.15625 0.40625,0.1875 l 0.15625,-0.9375 c -0.84375,-0.375 -1.703125,-0.5625 -2.640625,-0.5625 -1.328125,0 -2.953125,0.515625 -2.953125,2.234375 0,3.140625 4.90625,1.578125 4.90625,3.890625 0,0.953125 -0.921875,1.375 -1.859375,1.375 -1.125,0 -1.875,-0.3125 -2.984375,-0.921875 z m 0,0"
             id="path67773" />
        </g>
      </g>
      <g
         fill="#ffffff"
         fill-opacity="1"
         id="g6192">
        <g
           id="use6190"
           transform="translate(1854.964,549.52405)">
          <path
             d="m 2.1875,-7.015625 v -1.125 H 1.109375 v 11 h 1.09375 v -3.96875 c 0.484375,0.671875 1.15625,1.21875 2.078125,1.21875 2.09375,0 3.375,-2.265625 3.375,-4.234375 0,-1.71875 -0.9375,-3.96875 -2.875,-4.125 H 4.625 c -1.015625,0 -1.765625,0.484375 -2.4375,1.234375 z m 4.34375,3.1875 C 6.40625,-2.390625 5.421875,-0.75 3.765625,-0.75 c -0.734375,0 -1.5625,-0.65625 -1.5625,-1.375 V -6.203125 C 2.3125,-6.828125 3.3125,-7.375 3.953125,-7.375 c 1.6875,0 2.59375,1.921875 2.59375,3.265625 0,0.09375 0,0.1875 -0.015625,0.28125 z m 0,0"
             id="path67769" />
        </g>
      </g>
      <g
         fill="#ffffff"
         fill-opacity="1"
         id="g6196">
        <g
           id="use6194"
           transform="translate(1863.238,549.52405)">
          <path
             d="m 1.109375,-11.96875 v 11.953125 h 1.09375 V -4.34375 c 0,-1.15625 0.234375,-3.046875 1.953125,-3.046875 0.59375,0 1.25,0.125 1.625,0.625 0.3125,0.390625 0.328125,0.90625 0.328125,1.390625 v 5.359375 H 7.21875 V -5.4375 C 7.21875,-6.078125 7.1875,-6.71875 6.875,-7.265625 6.421875,-8.046875 5.546875,-8.25 4.71875,-8.25 c -1.0625,0 -2.296875,0.828125 -2.515625,1.765625 L 2.1875,-11.96875 Z m 0,0"
             id="path67821" />
        </g>
      </g>
      <g
         fill="#ffffff"
         fill-opacity="1"
         id="g6200">
        <g
           id="use6198"
           transform="translate(1871.5123,549.52405)">
          <path
             d="m 4.125,-8.296875 c -2.171875,0.21875 -3.5625,2.1875 -3.5625,4.234375 0,1.921875 1.359375,4.15625 3.828125,4.15625 2.1875,0 3.78125,-2.046875 3.78125,-4.140625 0,-2.0625 -1.421875,-4.25 -3.8125,-4.25 z M 1.671875,-3.90625 v -0.203125 c 0,-0.921875 0.15625,-1.9375 0.859375,-2.609375 0.5,-0.484375 1.171875,-0.71875 1.84375,-0.71875 1.8125,0 2.71875,1.53125 2.71875,3.265625 0,1.65625 -0.859375,3.359375 -2.71875,3.359375 -1,0 -1.8125,-0.53125 -2.296875,-1.390625 -0.265625,-0.53125 -0.34375,-1.125 -0.40625,-1.703125 z m 0,0"
             id="path67793" />
        </g>
      </g>
      <g
         fill="#ffffff"
         fill-opacity="1"
         id="g6204">
        <g
           id="use6202"
           transform="translate(1879.7866,549.52405)">
          <path
             d="M 2.15625,-5.96875 V -8.140625 H 1.109375 v 8.125 H 2.1875 V -3.9375 c 0,-1.203125 0.34375,-2.53125 2.09375,-3.15625 0.375,-0.125 0.75,-0.1875 1.125,-0.1875 V -8.25 c -1.09375,0 -2.125,0.53125 -2.765625,1.421875 -0.203125,0.25 -0.40625,0.546875 -0.484375,0.859375 z m 0,0"
             id="path67809" />
        </g>
      </g>
      <g
         fill="#ffffff"
         fill-opacity="1"
         id="g6208">
        <g
           id="use6206"
           transform="translate(1885.3096,549.52405)">
          <path
             d="M 1.109375,-8.140625 V -2.3125 c 0,0.5 0.015625,1 0.21875,1.46875 0.328125,0.671875 1.015625,0.9375 1.71875,0.9375 1.15625,0 2.53125,-0.53125 3.0625,-1.609375 l 0.015625,1.5 h 1.09375 v -8.125 H 6.109375 v 4.125 C 6.109375,-3.75 6.125,-3.5 6.125,-3.234375 c 0,0.484375 -0.046875,0.96875 -0.28125,1.390625 -0.421875,0.703125 -1.15625,1.125 -2,1.125 -0.859375,0 -1.65625,0 -1.65625,-1.625 0,-0.25 0.015625,-0.515625 0.015625,-0.765625 v -5.03125 z m 0,0"
             id="path67785" />
        </g>
      </g>
      <g
         fill="#ffffff"
         fill-opacity="1"
         id="g6212">
        <g
           id="use6210"
           transform="translate(1893.5839,549.52405)">
          <path
             d="M 0.53125,-1.71875 C 0.5,-1.421875 0.375,-1.125 0.375,-0.828125 c 0,0.453125 1.890625,0.8125 2.125,0.84375 0.328125,0.046875 0.671875,0.078125 1,0.078125 1.328125,0 2.796875,-0.5625 2.890625,-2.28125 v -0.125 C 6.390625,-3.40625 5.5625,-4.171875 4.625,-4.515625 3.65625,-4.875 1.46875,-4.71875 1.46875,-6.203125 c 0,-0.9375 0.96875,-1.234375 1.796875,-1.234375 h 0.34375 C 4.25,-7.421875 4.90625,-7.28125 5.5,-6.984375 c 0.125,0.0625 0.25,0.15625 0.40625,0.1875 l 0.15625,-0.9375 c -0.84375,-0.375 -1.703125,-0.5625 -2.640625,-0.5625 -1.328125,0 -2.953125,0.515625 -2.953125,2.234375 0,3.140625 4.90625,1.578125 4.90625,3.890625 0,0.953125 -0.921875,1.375 -1.859375,1.375 -1.125,0 -1.875,-0.3125 -2.984375,-0.921875 z m 0,0"
             id="path67777" />
        </g>
      </g>
      <g
         fill="#ffffff"
         fill-opacity="1"
         id="g6216">
        <g
           id="use6214"
           transform="translate(1836.1368,571.48413)">
          <path
             d="m 1.390625,-8.703125 c 0.75,-1.09375 1.46875,-1.953125 3.109375,-1.953125 0.96875,0 1.984375,0.53125 1.984375,1.640625 0,1.984375 -2.03125,2.390625 -3.609375,2.46875 V -5.6875 h 1.1875 c 0.8125,0 1.625,0.109375 2.203125,0.75 0.453125,0.453125 0.65625,1.09375 0.65625,1.734375 0,1.40625 -1.015625,2.5 -2.53125,2.5 -1.453125,0 -2.765625,-0.78125 -3.59375,-1.9375 -0.109375,0.234375 -0.15625,0.6875 -0.15625,0.828125 V -1.75 C 0.90625,-1.078125 2.15625,-0.28125 3.046875,-0.015625 3.5,0.109375 3.9375,0.171875 4.40625,0.171875 6.09375,0.171875 8.125,-1 8.125,-3.140625 8.125,-4.25 7.46875,-5.1875 6.484375,-5.734375 c -0.28125,-0.171875 -0.625,-0.34375 -0.96875,-0.375 C 6.59375,-6.625 7.625,-7.578125 7.625,-9 c 0,-1.65625 -1.75,-2.515625 -3.171875,-2.515625 -1.4375,0 -2.65625,0.71875 -3.484375,1.875 -0.03125,0.046875 -0.078125,0.09375 -0.078125,0.171875 0,0.15625 0.328125,0.53125 0.5,0.765625 z m 0,0"
             id="path67833" />
        </g>
      </g>
      <g
         fill="#ffffff"
         fill-opacity="1"
         id="g6220">
        <g
           id="use6218"
           transform="translate(1844.8909,571.48413)">
          <path
             d="m 4.125,-11.515625 c -3.21875,0.3125 -3.375,3.984375 -3.375,5.90625 0,2.328125 0.46875,5.796875 3.625,5.796875 h 0.21875 c 2.359375,-0.296875 3.390625,-2.265625 3.390625,-5.90625 0,-1.59375 -0.125,-3.515625 -1.203125,-4.734375 -0.59375,-0.671875 -1.5,-1.078125 -2.390625,-1.078125 -0.078125,0 -0.171875,0.01563 -0.265625,0.01563 z M 1.859375,-4.875 C 1.84375,-5.015625 1.84375,-5.171875 1.84375,-5.296875 V -5.625 c 0,-2.15625 0.0625,-5.03125 2.546875,-5.03125 2.484375,0 2.5,3.078125 2.5,4.734375 v 0.8125 c 0,1.453125 -0.09375,3.21875 -1.28125,4.046875 C 5.25,-0.8125 4.828125,-0.671875 4.390625,-0.671875 3.6875,-0.671875 2.984375,-1.03125 2.5625,-1.65625 2.078125,-2.375 1.96875,-3.34375 1.890625,-4.203125 1.875,-4.421875 1.890625,-4.65625 1.859375,-4.875 Z m 0,0"
             id="path67797" />
        </g>
      </g>
      <g
         fill="#ffffff"
         fill-opacity="1"
         id="g6224">
        <g
           id="use6222"
           transform="translate(1853.6453,571.48413)">
          <path
             d="m 1.703125,-1.359375 v 1.34375 h 1.34375 v -1.34375 z m 0,0"
             id="path67781" />
        </g>
      </g>
      <g
         fill="#ffffff"
         fill-opacity="1"
         id="g6228">
        <g
           id="use6226"
           transform="translate(1858.3252,571.48413)">
          <path
             d="M 6.796875,-5.671875 H 6.8125 c 0,1.859375 -0.40625,4.96875 -3.296875,4.96875 C 2.75,-0.703125 2.1875,-1 1.625,-1.390625 l -0.453125,0.78125 C 1.890625,-0.0625 2.703125,0.1875 3.59375,0.1875 c 2.9375,0 4.359375,-3.359375 4.359375,-5.796875 0,-2.015625 -0.234375,-4.8125 -2.421875,-5.703125 -0.359375,-0.140625 -0.765625,-0.203125 -1.15625,-0.203125 -2.1875,0 -3.578125,2 -3.578125,3.96875 0,1.796875 0.859375,3.90625 2.921875,3.90625 1.234375,0 2.703125,-0.875 3.078125,-2.03125 z M 6.75,-7.578125 c -0.015625,0.046875 -0.015625,0.109375 -0.015625,0.15625 0,0.125 0.015625,0.21875 0.015625,0.34375 v 0.09375 C 6.640625,-5.625 5.640625,-4.5 4.171875,-4.5 3.4375,-4.5 2.84375,-4.78125 2.40625,-5.390625 1.984375,-5.984375 1.921875,-6.71875 1.921875,-7.4375 c 0,-1.328125 0.265625,-3.21875 2.484375,-3.21875 1.640625,0 2.34375,1.703125 2.34375,2.953125 z m 0,0"
             id="path67837" />
        </g>
      </g>
      <g
         fill="#ffffff"
         fill-opacity="1"
         id="g6232">
        <g
           id="use6230"
           transform="translate(1867.0793,571.48413)">
          <path
             d="m 0.625,-11.3125 v 0.96875 h 6.75 C 6.5625,-9.546875 5.8125,-8.75 5.1875,-7.796875 3.640625,-5.46875 2.796875,-2.703125 2.796875,0.09375 H 3.9375 c 0,-3.78125 1.4375,-7.25 3.859375,-10.125 C 7.953125,-10.1875 8.125,-10.3125 8.125,-10.5625 v -0.75 z m 0,0"
             id="path67829" />
        </g>
      </g>
      <g
         fill="#ffffff"
         fill-opacity="1"
         id="g6236">
        <g
           id="use6234"
           transform="translate(1875.8335,571.48413)">
          <path
             d="M 0.359375,-3.140625 H 5.34375 v 3.125 h 1.078125 v -3.125 h 1.96875 v -0.90625 h -1.96875 v -7.375 h -1.125 c -0.328125,0 -0.421875,0.40625 -0.59375,0.640625 -1.015625,1.625 -2.078125,3.203125 -3.125,4.828125 L 0.75,-4.671875 C 0.5625,-4.390625 0.359375,-4.15625 0.359375,-3.875 Z m 1.125,-0.90625 c 1.234375,-1.84375 2.4375,-3.71875 3.53125,-5.640625 0.125,-0.25 0.3125,-0.515625 0.359375,-0.796875 l 0.015625,6.4375 z m 0,0"
             id="path67825" />
        </g>
      </g>
      <g
         fill="#ffffff"
         fill-opacity="1"
         id="g6240">
        <g
           id="use6238"
           transform="translate(1811.6216,491.39426)">
          <path
             d="m 1.671875,-10.390625 v 0.875 c 0.828125,0 1.5625,-0.15625 2.359375,-0.5 V -0.875 h -2.25 v 0.859375 h 5.625 V -0.875 H 5.140625 v -10.640625 h -0.125 c -0.234375,0 -0.359375,0.21875 -0.53125,0.34375 -0.8125,0.578125 -1.828125,0.78125 -2.8125,0.78125 z m 0,0"
             id="path67805" />
        </g>
      </g>
      <g
         fill="#ffffff"
         fill-opacity="1"
         id="g6244">
        <g
           id="use6242"
           transform="translate(1820.3757,491.39426)">
          <path
             d="m 1.453125,-11.3125 v 6.171875 h 0.78125 c 0.203125,0 0.25,-0.140625 0.328125,-0.265625 0.5,-0.65625 1.296875,-0.9375 2.0625,-0.9375 1.671875,0 2.15625,1.5 2.15625,2.734375 0,0.734375 -0.125,1.5625 -0.671875,2.109375 C 5.59375,-0.953125 4.875,-0.703125 4.125,-0.703125 c -1.203125,0 -2.28125,-0.625 -2.9375,-1.609375 H 1.171875 c -0.15625,0.25 -0.453125,0.625 -0.453125,0.796875 0,0.15625 0.28125,0.375 0.40625,0.5 0.78125,0.75 1.859375,1.203125 2.953125,1.203125 2.015625,0 3.890625,-1.515625 3.890625,-3.75 0,-1.671875 -1.140625,-3.640625 -3.359375,-3.640625 -0.796875,0 -1.515625,0.328125 -2.109375,0.8125 v -4.015625 h 4.890625 v -0.90625 z m 0,0"
             id="path67813" />
        </g>
      </g>
    </g>
  </g>
  <g
     inkscape:label="Capa 1"
     inkscape:groupmode="layer"
     id="layer1"
     transform="translate(-25.949774,-102.1557)">
    <g
       id="g35216"
       transform="matrix(0.35277777,0,0,0.35277777,-11.847197,-22.263639)" />
  </g>
</svg>
