<?xml version="1.0" encoding="UTF-8" standalone="no"?>
<!-- Created with Inkscape (http://www.inkscape.org/) -->

<svg
   width="40.57357mm"
   height="40.569443mm"
   viewBox="0 0 40.573571 40.569443"
   version="1.1"
   id="svg35221"
   inkscape:version="1.2.1 (9c6d41e410, 2022-07-14)"
   sodipodi:docname="20.svg"
   xmlns:inkscape="http://www.inkscape.org/namespaces/inkscape"
   xmlns:sodipodi="http://sodipodi.sourceforge.net/DTD/sodipodi-0.dtd"
   xmlns="http://www.w3.org/2000/svg"
   xmlns:svg="http://www.w3.org/2000/svg">
  <sodipodi:namedview
     id="namedview35223"
     pagecolor="#ffffff"
     bordercolor="#000000"
     borderopacity="0.25"
     inkscape:showpageshadow="2"
     inkscape:pageopacity="0.0"
     inkscape:pagecheckerboard="0"
     inkscape:deskcolor="#d1d1d1"
     inkscape:document-units="mm"
     showgrid="false"
     inkscape:zoom="2.8284271"
     inkscape:cx="-88.918679"
     inkscape:cy="105.71246"
     inkscape:window-width="1920"
     inkscape:window-height="1009"
     inkscape:window-x="2552"
     inkscape:window-y="421"
     inkscape:window-maximized="1"
     inkscape:current-layer="g72860" />
  <defs
     id="defs35218" />
  <g
     inkscape:groupmode="layer"
     id="layer2"
     inkscape:label="Capa 2">
    <g
       id="g72860"
       transform="matrix(0.35277777,0,0,0.35277777,-77.013041,-208.86304)">
      <path
         fill-rule="nonzero"
         fill="#46a046"
         fill-opacity="1"
         d="m 218.3125,649.55078 v -51.74609 c 0,-3.17578 2.57422,-5.75 5.75,-5.75 h 103.5 c 3.17187,0 5.74609,2.57422 5.74609,5.75 v 103.49609 c 0,3.17578 -2.57422,5.75 -5.74609,5.75 h -103.5 c -3.17578,0 -5.75,-2.57422 -5.75,-5.75"
         id="path2730"
         style="fill:#a1c181;fill-opacity:1" />
      <g
         fill="#ffffff"
         fill-opacity="1"
         id="g2734">
        <g
           id="use2732"
           transform="translate(249.53252,649.57373)">
          <path
             d="m 27.296875,-6.25 c -0.8125,0.421875 -1.5,1.015625 -2.3125,1.453125 -1.984375,1.0625 -4.078125,1.40625 -6.296875,1.40625 -2.53125,0 -5.109375,-0.515625 -6.953125,-2.34375 C 9.375,-8.09375 8.90625,-11.78125 8.90625,-14.90625 c 0,-3.171875 0.4375,-6.859375 2.828125,-9.171875 1.765625,-1.75 4.25,-2.359375 6.640625,-2.359375 2.53125,0 4.84375,0.6875 6.984375,2.1875 0.296875,0.21875 0.5625,0.46875 0.859375,0.640625 l 0.984375,-5.609375 c -2.828125,-0.9375 -5.609375,-1.5 -8.609375,-1.5 -4.453125,0 -9.125,0.765625 -12.421875,4.328125 -2.828125,3.078125 -3.5625,7.5 -3.5625,11.484375 0,4.5 0.984375,9.203125 4.421875,12.328125 3.03125,2.75 7.359375,3.484375 11.34375,3.484375 1.46875,0 2.96875,-0.046875 4.421875,-0.34375 1.328125,-0.34375 4.875,-1.59375 4.875,-2.28125 v -0.203125 c 0,-1.46875 -0.296875,-2.921875 -0.375,-4.328125 z m 0,0"
             id="path73485" />
        </g>
      </g>
      <g
         fill="#ffffff"
         fill-opacity="1"
         id="g2738">
        <g
           id="use2736"
           transform="translate(279.66183,649.57373)">
          <path
             d="m 3.90625,-14.90625 c 0.546875,-0.46875 1.015625,-1.03125 1.625,-1.453125 1.578125,-1.203125 3.546875,-1.8125 5.515625,-1.8125 2.40625,0 3,2.1875 3,4.421875 v 2.140625 c -0.671875,0.07813 -1.40625,0.04687 -2.09375,0.07813 -4.0625,0.34375 -10.625,1.125 -10.625,6 0,3.390625 2.828125,5.953125 6.125,5.953125 2.4375,0 5.484375,-1.234375 6.6875,-3.421875 l 0.04687,2.953125 h 5.6875 v -12.71875 c 0,-2.0625 -0.07813,-4.203125 -1.5,-5.828125 C 16.671875,-20.515625 13.96875,-21 11.4375,-21 8.828125,-21 6.421875,-20.5625 3.90625,-19.328125 3.6875,-19.234375 3.5625,-19.15625 3.5625,-18.9375 v 0.21875 c 0,1.28125 0.25,2.5625 0.34375,3.8125 z m 10.140625,5.015625 v 3.421875 c 0,2.3125 -2,3.8125 -4.109375,3.8125 -1.578125,0 -3.046875,-1.28125 -3.046875,-2.90625 0,-2.625 2.75,-3.78125 5.703125,-4.203125 0.46875,-0.046875 0.984375,-0.046875 1.453125,-0.125 z m 0,0"
             id="path73481" />
        </g>
      </g>
      <g
         fill="#ffffff"
         fill-opacity="1"
         id="g2742">
        <g
           id="use2740"
           transform="translate(248.21275,671.41382)">
          <path
             d="m 10.421875,-1.796875 c -0.34375,0.171875 -0.65625,0.421875 -1,0.59375 -0.703125,0.359375 -1.5,0.484375 -2.296875,0.484375 -0.953125,0 -1.84375,-0.21875 -2.734375,-0.9375 -1.28125,-1.015625 -1.90625,-2.734375 -1.90625,-4.328125 0,-2.59375 1.625,-5.28125 4.640625,-5.28125 0.65625,0 1.3125,0.140625 1.921875,0.359375 0.359375,0.15625 0.703125,0.375 1.046875,0.546875 l 0.203125,-1.21875 c -1.0625,-0.390625 -2.15625,-0.59375 -3.328125,-0.59375 -3.328125,0 -5.6875,3 -5.6875,6.1875 0,3.15625 2.25,6.171875 5.734375,6.171875 1.140625,0 2.328125,-0.203125 3.328125,-0.875 C 10.4375,-0.734375 10.5,-0.75 10.5,-0.890625 10.5,-0.984375 10.484375,-1.0625 10.46875,-1.125 Z m 0,0"
             id="path73469" />
        </g>
      </g>
      <g
         fill="#ffffff"
         fill-opacity="1"
         id="g2746">
        <g
           id="use2744"
           transform="translate(259.4899,671.41382)">
          <path
             d="M 1.359375,-6.609375 C 1.65625,-6.75 1.890625,-6.953125 2.1875,-7.09375 2.796875,-7.359375 3.4375,-7.5 4.109375,-7.5 c 1.109375,0 1.734375,0.921875 1.734375,2.15625 v 0.765625 c -1.890625,0 -5.015625,0.40625 -5.015625,2.578125 0,1.109375 0.734375,2.09375 1.90625,2.09375 1.125,0 2.609375,-0.453125 3.109375,-1.3125 l 0.015625,1.203125 H 6.9375 V -4.5625 c 0,-0.234375 0.015625,-0.5 0.015625,-0.765625 0,-1.265625 -0.6875,-2.78125 -2.578125,-2.96875 H 4.1875 c -0.90625,0 -1.75,0.15625 -2.5625,0.546875 -0.125,0.046875 -0.34375,0.125 -0.34375,0.296875 0,0.265625 0.0625,0.5625 0.078125,0.84375 z M 5.84375,-4.0625 v 1.4375 c 0,1.09375 -0.828125,1.84375 -2.171875,1.84375 -0.75,0 -1.796875,-0.359375 -1.796875,-1.265625 0,-1.65625 2.65625,-2.015625 3.96875,-2.015625 z m 0,0"
             id="path73429" />
        </g>
      </g>
      <g
         fill="#ffffff"
         fill-opacity="1"
         id="g2750">
        <g
           id="use2748"
           transform="translate(267.53564,671.41382)">
          <path
             d="M 1.109375,-11.96875 V -0.015625 H 2.1875 V -11.96875 Z m 0,0"
             id="path73473" />
        </g>
      </g>
      <g
         fill="#ffffff"
         fill-opacity="1"
         id="g2754">
        <g
           id="use2752"
           transform="translate(270.7814,671.41382)">
          <path
             d="m 7.296875,-1.953125 c -0.890625,0.65625 -1.609375,1.15625 -2.84375,1.15625 -1.921875,0 -2.671875,-1.78125 -2.671875,-3.28125 0,-1.609375 0.765625,-3.34375 2.671875,-3.34375 0.8125,0 1.484375,0.140625 2.3125,0.59375 0.125,0.0625 0.21875,0.140625 0.359375,0.1875 0.015625,-0.28125 0.140625,-0.578125 0.140625,-0.828125 0,-0.609375 -2.5,-0.828125 -2.75,-0.828125 -1.78125,0 -3.09375,1.171875 -3.609375,2.703125 C 0.71875,-5.0625 0.671875,-4.5 0.671875,-3.921875 0.6875,-1.90625 2.25,0.09375 4.40625,0.09375 c 0.96875,0 2,-0.296875 2.734375,-0.890625 0.125,-0.078125 0.25,-0.15625 0.25,-0.3125 0,-0.265625 -0.078125,-0.5625 -0.09375,-0.84375 z m 0,0"
             id="path73453" />
        </g>
      </g>
      <g
         fill="#ffffff"
         fill-opacity="1"
         id="g2758">
        <g
           id="use2756"
           transform="translate(278.58136,671.41382)">
          <path
             d="m 1.109375,-8.140625 v 8.125 H 2.1875 v -8.125 z m 0,-3.828125 V -10.875 H 2.1875 v -1.09375 z m 0,0"
             id="path73437" />
        </g>
      </g>
      <g
         fill="#ffffff"
         fill-opacity="1"
         id="g2762">
        <g
           id="use2760"
           transform="translate(281.82712,671.41382)">
          <path
             d="M 1.109375,-8.140625 V -2.3125 c 0,0.5 0.015625,1 0.21875,1.46875 0.328125,0.671875 1.015625,0.9375 1.71875,0.9375 1.15625,0 2.53125,-0.53125 3.0625,-1.609375 l 0.015625,1.5 h 1.09375 v -8.125 H 6.109375 v 4.125 C 6.109375,-3.75 6.125,-3.5 6.125,-3.234375 c 0,0.484375 -0.046875,0.96875 -0.28125,1.390625 -0.421875,0.703125 -1.15625,1.125 -2,1.125 -0.859375,0 -1.65625,0 -1.65625,-1.625 0,-0.25 0.015625,-0.515625 0.015625,-0.765625 v -5.03125 z m 0,0"
             id="path73425" />
        </g>
      </g>
      <g
         fill="#ffffff"
         fill-opacity="1"
         id="g2766">
        <g
           id="use2764"
           transform="translate(290.10138,671.41382)">
          <path
             d="m 2.171875,-6.421875 v -1.71875 h -1.0625 v 8.125 h 1.09375 V -4.34375 c 0,-1.171875 0.234375,-3.046875 1.953125,-3.046875 0.59375,0 1.265625,0.125 1.640625,0.625 C 6.109375,-6.375 6.125,-5.859375 6.125,-5.375 v 5.359375 H 7.234375 V -4.34375 c 0,-1.171875 0.234375,-3.046875 1.9375,-3.046875 0.609375,0 1.28125,0.125 1.65625,0.625 0.3125,0.390625 0.328125,0.90625 0.328125,1.390625 v 5.359375 h 1.109375 v -4.5625 c 0,-0.296875 0.01563,-0.625 0.01563,-0.9375 0,-0.765625 -0.109375,-1.578125 -0.65625,-2.125 C 11.15625,-8.109375 10.4375,-8.25 9.796875,-8.25 8.578125,-8.25 7.640625,-7.453125 7.1875,-6.40625 6.90625,-7.640625 6.109375,-8.25 4.75,-8.25 c -1.09375,0 -2.25,0.78125 -2.578125,1.828125 z m 0,0"
             id="path73465" />
        </g>
      </g>
      <g
         fill="#ffffff"
         fill-opacity="1"
         id="g2770">
        <g
           id="use2768"
           transform="translate(251.57281,693.3739)">
          <path
             d="M 0.359375,-3.140625 H 5.34375 v 3.125 h 1.078125 v -3.125 h 1.96875 v -0.90625 h -1.96875 v -7.375 h -1.125 c -0.328125,0 -0.421875,0.40625 -0.59375,0.640625 -1.015625,1.625 -2.078125,3.203125 -3.125,4.828125 L 0.75,-4.671875 C 0.5625,-4.390625 0.359375,-4.15625 0.359375,-3.875 Z m 1.125,-0.90625 c 1.234375,-1.84375 2.4375,-3.71875 3.53125,-5.640625 0.125,-0.25 0.3125,-0.515625 0.359375,-0.796875 l 0.015625,6.4375 z m 0,0"
             id="path73457" />
        </g>
      </g>
      <g
         fill="#ffffff"
         fill-opacity="1"
         id="g2774">
        <g
           id="use2772"
           transform="translate(260.32706,693.3739)">
          <path
             d="m 4.125,-11.515625 c -3.21875,0.3125 -3.375,3.984375 -3.375,5.90625 0,2.328125 0.46875,5.796875 3.625,5.796875 h 0.21875 c 2.359375,-0.296875 3.390625,-2.265625 3.390625,-5.90625 0,-1.59375 -0.125,-3.515625 -1.203125,-4.734375 -0.59375,-0.671875 -1.5,-1.078125 -2.390625,-1.078125 -0.078125,0 -0.171875,0.01563 -0.265625,0.01563 z M 1.859375,-4.875 C 1.84375,-5.015625 1.84375,-5.171875 1.84375,-5.296875 V -5.625 c 0,-2.15625 0.0625,-5.03125 2.546875,-5.03125 2.484375,0 2.5,3.078125 2.5,4.734375 v 0.8125 c 0,1.453125 -0.09375,3.21875 -1.28125,4.046875 C 5.25,-0.8125 4.828125,-0.671875 4.390625,-0.671875 3.6875,-0.671875 2.984375,-1.03125 2.5625,-1.65625 2.078125,-2.375 1.96875,-3.34375 1.890625,-4.203125 1.875,-4.421875 1.890625,-4.65625 1.859375,-4.875 Z m 0,0"
             id="path73441" />
        </g>
      </g>
      <g
         fill="#ffffff"
         fill-opacity="1"
         id="g2778">
        <g
           id="use2776"
           transform="translate(269.0813,693.3739)">
          <path
             d="m 1.703125,-1.359375 v 1.34375 h 1.34375 v -1.34375 z m 0,0"
             id="path73421" />
        </g>
      </g>
      <g
         fill="#ffffff"
         fill-opacity="1"
         id="g2782">
        <g
           id="use2780"
           transform="translate(273.76126,693.3739)">
          <path
             d="m 4.125,-11.515625 c -3.21875,0.3125 -3.375,3.984375 -3.375,5.90625 0,2.328125 0.46875,5.796875 3.625,5.796875 h 0.21875 c 2.359375,-0.296875 3.390625,-2.265625 3.390625,-5.90625 0,-1.59375 -0.125,-3.515625 -1.203125,-4.734375 -0.59375,-0.671875 -1.5,-1.078125 -2.390625,-1.078125 -0.078125,0 -0.171875,0.01563 -0.265625,0.01563 z M 1.859375,-4.875 C 1.84375,-5.015625 1.84375,-5.171875 1.84375,-5.296875 V -5.625 c 0,-2.15625 0.0625,-5.03125 2.546875,-5.03125 2.484375,0 2.5,3.078125 2.5,4.734375 v 0.8125 c 0,1.453125 -0.09375,3.21875 -1.28125,4.046875 C 5.25,-0.8125 4.828125,-0.671875 4.390625,-0.671875 3.6875,-0.671875 2.984375,-1.03125 2.5625,-1.65625 2.078125,-2.375 1.96875,-3.34375 1.890625,-4.203125 1.875,-4.421875 1.890625,-4.65625 1.859375,-4.875 Z m 0,0"
             id="path73445" />
        </g>
      </g>
      <g
         fill="#ffffff"
         fill-opacity="1"
         id="g2786">
        <g
           id="use2784"
           transform="translate(282.51553,693.3739)">
          <path
             d="m 0.625,-11.3125 v 0.96875 h 6.75 C 6.5625,-9.546875 5.8125,-8.75 5.1875,-7.796875 3.640625,-5.46875 2.796875,-2.703125 2.796875,0.09375 H 3.9375 c 0,-3.78125 1.4375,-7.25 3.859375,-10.125 C 7.953125,-10.1875 8.125,-10.3125 8.125,-10.5625 v -0.75 z m 0,0"
             id="path73461" />
        </g>
      </g>
      <g
         fill="#ffffff"
         fill-opacity="1"
         id="g2790">
        <g
           id="use2788"
           transform="translate(291.26974,693.3739)">
          <path
             d="m 3.21875,-6.125 v 0.015625 C 1.90625,-5.71875 0.625,-4.78125 0.625,-3.1875 c 0,2.078125 1.953125,3.375 3.828125,3.375 H 4.53125 C 6.3125,0.15625 8.125,-1.25 8.125,-3.171875 c 0,-1.5 -1.21875,-2.5625 -2.59375,-2.9375 0.921875,-0.34375 2.359375,-0.9375 2.359375,-2.5 0,-1.75 -1.796875,-2.90625 -3.515625,-2.90625 -1.609375,0 -3.515625,1.046875 -3.515625,2.890625 v 0.140625 C 0.96875,-7.28125 2.15625,-6.28125 3.21875,-6.125 Z M 1.75,-2.96875 c 0,-0.0625 -0.015625,-0.140625 -0.015625,-0.21875 0,-1.46875 1.109375,-2.5 2.640625,-2.5 1.421875,0 2.609375,0.90625 2.609375,2.484375 0,1.578125 -1.125,2.5 -2.59375,2.5 C 2.96875,-0.703125 1.921875,-1.5 1.75,-2.96875 Z m 0.140625,-5.453125 v -0.15625 c 0,-1.5625 1.296875,-2.078125 2.453125,-2.078125 1.109375,0 2.359375,0.40625 2.515625,1.875 V -8.625 c 0,1.53125 -1.296875,2.078125 -2.46875,2.078125 -1.1875,0 -2.328125,-0.546875 -2.5,-1.875 z m 0,0"
             id="path73477" />
        </g>
      </g>
      <g
         fill="#ffffff"
         fill-opacity="1"
         id="g2794">
        <g
           id="use2792"
           transform="translate(227.05766,613.28406)">
          <path
             d="m 1.25,-7.921875 c 0.3125,-1.25 0.921875,-2.6875 2.640625,-2.6875 1.46875,0 2.96875,0.890625 2.96875,2.578125 0,1.9375 -1.8125,3.265625 -3.125,4.359375 C 2.875,-2.9375 2.03125,-2.140625 1.21875,-1.359375 L 0.9375,-1.078125 C 0.828125,-0.984375 0.75,-0.9375 0.75,-0.75 v 0.734375 h 7.234375 v -0.96875 H 1.75 c 0.4375,-0.40625 0.90625,-0.8125 1.34375,-1.203125 0.609375,-0.53125 1.1875,-1.078125 1.8125,-1.578125 1.359375,-1.109375 3.078125,-2.328125 3.078125,-4.3125 0,-2 -1.671875,-3.375 -3.65625,-3.4375 h -0.125 c -1.46875,0 -2.796875,0.609375 -3.453125,2.40625 C 0.703125,-9.015625 0.640625,-8.875 0.640625,-8.75 v 0.03125 C 0.65625,-8.609375 0.75,-8.515625 0.8125,-8.453125 c 0.140625,0.171875 0.265625,0.375 0.4375,0.53125 z m 0,0"
             id="path73433" />
        </g>
      </g>
      <g
         fill="#ffffff"
         fill-opacity="1"
         id="g2798">
        <g
           id="use2796"
           transform="translate(235.81189,613.28406)">
          <path
             d="m 4.125,-11.515625 c -3.21875,0.3125 -3.375,3.984375 -3.375,5.90625 0,2.328125 0.46875,5.796875 3.625,5.796875 h 0.21875 c 2.359375,-0.296875 3.390625,-2.265625 3.390625,-5.90625 0,-1.59375 -0.125,-3.515625 -1.203125,-4.734375 -0.59375,-0.671875 -1.5,-1.078125 -2.390625,-1.078125 -0.078125,0 -0.171875,0.01563 -0.265625,0.01563 z M 1.859375,-4.875 C 1.84375,-5.015625 1.84375,-5.171875 1.84375,-5.296875 V -5.625 c 0,-2.15625 0.0625,-5.03125 2.546875,-5.03125 2.484375,0 2.5,3.078125 2.5,4.734375 v 0.8125 c 0,1.453125 -0.09375,3.21875 -1.28125,4.046875 C 5.25,-0.8125 4.828125,-0.671875 4.390625,-0.671875 3.6875,-0.671875 2.984375,-1.03125 2.5625,-1.65625 2.078125,-2.375 1.96875,-3.34375 1.890625,-4.203125 1.875,-4.421875 1.890625,-4.65625 1.859375,-4.875 Z m 0,0"
             id="path73449" />
        </g>
      </g>
    </g>
  </g>
  <g
     inkscape:label="Capa 1"
     inkscape:groupmode="layer"
     id="layer1"
     transform="translate(-25.949774,-102.1557)">
    <g
       id="g35216"
       transform="matrix(0.35277777,0,0,0.35277777,-11.847197,-22.263639)" />
  </g>
</svg>
