<?xml version="1.0" encoding="UTF-8" standalone="no"?>
<!-- Created with Inkscape (http://www.inkscape.org/) -->

<svg
   width="40.57357mm"
   height="40.569443mm"
   viewBox="0 0 40.573571 40.569443"
   version="1.1"
   id="svg35221"
   inkscape:version="1.2.1 (9c6d41e410, 2022-07-14)"
   sodipodi:docname="24.svg"
   xmlns:inkscape="http://www.inkscape.org/namespaces/inkscape"
   xmlns:sodipodi="http://sodipodi.sourceforge.net/DTD/sodipodi-0.dtd"
   xmlns="http://www.w3.org/2000/svg"
   xmlns:svg="http://www.w3.org/2000/svg">
  <sodipodi:namedview
     id="namedview35223"
     pagecolor="#ffffff"
     bordercolor="#000000"
     borderopacity="0.25"
     inkscape:showpageshadow="2"
     inkscape:pageopacity="0.0"
     inkscape:pagecheckerboard="0"
     inkscape:deskcolor="#d1d1d1"
     inkscape:document-units="mm"
     showgrid="false"
     inkscape:zoom="2.8284271"
     inkscape:cx="-100.23239"
     inkscape:cy="49.497475"
     inkscape:window-width="1920"
     inkscape:window-height="1009"
     inkscape:window-x="2552"
     inkscape:window-y="421"
     inkscape:window-maximized="1"
     inkscape:current-layer="g110440" />
  <defs
     id="defs35218" />
  <g
     inkscape:groupmode="layer"
     id="layer2"
     inkscape:label="Capa 2">
    <g
       id="g110440"
       transform="matrix(0.35277777,0,0,0.35277777,-249.01356,-208.86304)">
      <path
         fill-rule="nonzero"
         fill="#c8c850"
         fill-opacity="1"
         d="m 705.87109,649.55078 v -51.74609 c 0,-3.17578 2.57422,-5.75 5.75,-5.75 h 103.5 c 3.17578,0 5.75,2.57422 5.75,5.75 v 103.49609 c 0,3.17578 -2.57422,5.75 -5.75,5.75 h -103.5 c -3.17578,0 -5.75,-2.57422 -5.75,-5.75"
         id="path3794"
         style="fill:#e76f51;fill-opacity:1" />
      <g
         fill="#ffffff"
         fill-opacity="1"
         id="g3798">
        <g
           id="use3796"
           transform="translate(740.33057,649.57373)">
          <path
             d="m 27.296875,-6.25 c -0.8125,0.421875 -1.5,1.015625 -2.3125,1.453125 -1.984375,1.0625 -4.078125,1.40625 -6.296875,1.40625 -2.53125,0 -5.109375,-0.515625 -6.953125,-2.34375 C 9.375,-8.09375 8.90625,-11.78125 8.90625,-14.90625 c 0,-3.171875 0.4375,-6.859375 2.828125,-9.171875 1.765625,-1.75 4.25,-2.359375 6.640625,-2.359375 2.53125,0 4.84375,0.6875 6.984375,2.1875 0.296875,0.21875 0.5625,0.46875 0.859375,0.640625 l 0.984375,-5.609375 c -2.828125,-0.9375 -5.609375,-1.5 -8.609375,-1.5 -4.453125,0 -9.125,0.765625 -12.421875,4.328125 -2.828125,3.078125 -3.5625,7.5 -3.5625,11.484375 0,4.5 0.984375,9.203125 4.421875,12.328125 3.03125,2.75 7.359375,3.484375 11.34375,3.484375 1.46875,0 2.96875,-0.046875 4.421875,-0.34375 1.328125,-0.34375 4.875,-1.59375 4.875,-2.28125 v -0.203125 c 0,-1.46875 -0.296875,-2.921875 -0.375,-4.328125 z m 0,0"
             id="path112761" />
        </g>
      </g>
      <g
         fill="#ffffff"
         fill-opacity="1"
         id="g3802">
        <g
           id="use3800"
           transform="translate(770.4599,649.57373)">
          <path
             d="m 8.140625,-15.34375 v -5.171875 h -5.53125 v 20.46875 H 8.3125 V -10.0625 c 0,-0.734375 0,-1.46875 0.21875,-2.140625 0.9375,-2.796875 3.984375,-4.15625 6.71875,-4.15625 v -4.375 c -2.5625,0 -4.75,1.40625 -6.171875,3.515625 -0.34375,0.546875 -0.765625,1.1875 -0.9375,1.875 z m 0,0"
             id="path112757" />
        </g>
      </g>
      <g
         fill="#ffffff"
         fill-opacity="1"
         id="g3806">
        <g
           id="use3804"
           transform="translate(731.45081,671.41382)">
          <path
             d="m 10.421875,-1.796875 c -0.34375,0.171875 -0.65625,0.421875 -1,0.59375 -0.703125,0.359375 -1.5,0.484375 -2.296875,0.484375 -0.953125,0 -1.84375,-0.21875 -2.734375,-0.9375 -1.28125,-1.015625 -1.90625,-2.734375 -1.90625,-4.328125 0,-2.59375 1.625,-5.28125 4.640625,-5.28125 0.65625,0 1.3125,0.140625 1.921875,0.359375 0.359375,0.15625 0.703125,0.375 1.046875,0.546875 l 0.203125,-1.21875 c -1.0625,-0.390625 -2.15625,-0.59375 -3.328125,-0.59375 -3.328125,0 -5.6875,3 -5.6875,6.1875 0,3.15625 2.25,6.171875 5.734375,6.171875 1.140625,0 2.328125,-0.203125 3.328125,-0.875 C 10.4375,-0.734375 10.5,-0.75 10.5,-0.890625 10.5,-0.984375 10.484375,-1.0625 10.46875,-1.125 Z m 0,0"
             id="path112749" />
        </g>
      </g>
      <g
         fill="#ffffff"
         fill-opacity="1"
         id="g3810">
        <g
           id="use3808"
           transform="translate(742.72791,671.41382)">
          <path
             d="M 2.15625,-5.96875 V -8.140625 H 1.109375 v 8.125 H 2.1875 V -3.9375 c 0,-1.203125 0.34375,-2.53125 2.09375,-3.15625 0.375,-0.125 0.75,-0.1875 1.125,-0.1875 V -8.25 c -1.09375,0 -2.125,0.53125 -2.765625,1.421875 -0.203125,0.25 -0.40625,0.546875 -0.484375,0.859375 z m 0,0"
             id="path112721" />
        </g>
      </g>
      <g
         fill="#ffffff"
         fill-opacity="1"
         id="g3814">
        <g
           id="use3812"
           transform="translate(748.25079,671.41382)">
          <path
             d="m 4.125,-8.296875 c -2.171875,0.21875 -3.5625,2.1875 -3.5625,4.234375 0,1.921875 1.359375,4.15625 3.828125,4.15625 2.1875,0 3.78125,-2.046875 3.78125,-4.140625 0,-2.0625 -1.421875,-4.25 -3.8125,-4.25 z M 1.671875,-3.90625 v -0.203125 c 0,-0.921875 0.15625,-1.9375 0.859375,-2.609375 0.5,-0.484375 1.171875,-0.71875 1.84375,-0.71875 1.8125,0 2.71875,1.53125 2.71875,3.265625 0,1.65625 -0.859375,3.359375 -2.71875,3.359375 -1,0 -1.8125,-0.53125 -2.296875,-1.390625 -0.265625,-0.53125 -0.34375,-1.125 -0.40625,-1.703125 z m 0,0"
             id="path112713" />
        </g>
      </g>
      <g
         fill="#ffffff"
         fill-opacity="1"
         id="g3818">
        <g
           id="use3816"
           transform="translate(757.005,671.41382)">
          <path
             d="m 2.171875,-6.421875 v -1.71875 h -1.0625 v 8.125 h 1.09375 V -4.34375 c 0,-1.171875 0.234375,-3.046875 1.953125,-3.046875 0.59375,0 1.265625,0.125 1.640625,0.625 C 6.109375,-6.375 6.125,-5.859375 6.125,-5.375 v 5.359375 H 7.234375 V -4.34375 c 0,-1.171875 0.234375,-3.046875 1.9375,-3.046875 0.609375,0 1.28125,0.125 1.65625,0.625 0.3125,0.390625 0.328125,0.90625 0.328125,1.390625 v 5.359375 h 1.109375 v -4.5625 c 0,-0.296875 0.01563,-0.625 0.01563,-0.9375 0,-0.765625 -0.109375,-1.578125 -0.65625,-2.125 C 11.15625,-8.109375 10.4375,-8.25 9.796875,-8.25 8.578125,-8.25 7.640625,-7.453125 7.1875,-6.40625 6.90625,-7.640625 6.109375,-8.25 4.75,-8.25 c -1.09375,0 -2.25,0.78125 -2.578125,1.828125 z m 0,0"
             id="path112741" />
        </g>
      </g>
      <g
         fill="#ffffff"
         fill-opacity="1"
         id="g3822">
        <g
           id="use3820"
           transform="translate(770.32495,671.41382)">
          <path
             d="m 1.109375,-8.140625 v 8.125 H 2.1875 v -8.125 z m 0,-3.828125 V -10.875 H 2.1875 v -1.09375 z m 0,0"
             id="path112709" />
        </g>
      </g>
      <g
         fill="#ffffff"
         fill-opacity="1"
         id="g3826">
        <g
           id="use3824"
           transform="translate(773.57068,671.41382)">
          <path
             d="M 1.109375,-8.140625 V -2.3125 c 0,0.5 0.015625,1 0.21875,1.46875 0.328125,0.671875 1.015625,0.9375 1.71875,0.9375 1.15625,0 2.53125,-0.53125 3.0625,-1.609375 l 0.015625,1.5 h 1.09375 v -8.125 H 6.109375 v 4.125 C 6.109375,-3.75 6.125,-3.5 6.125,-3.234375 c 0,0.484375 -0.046875,0.96875 -0.28125,1.390625 -0.421875,0.703125 -1.15625,1.125 -2,1.125 -0.859375,0 -1.65625,0 -1.65625,-1.625 0,-0.25 0.015625,-0.515625 0.015625,-0.765625 v -5.03125 z m 0,0"
             id="path112701" />
        </g>
      </g>
      <g
         fill="#ffffff"
         fill-opacity="1"
         id="g3830">
        <g
           id="use3828"
           transform="translate(781.84503,671.41382)">
          <path
             d="m 2.171875,-6.421875 v -1.71875 h -1.0625 v 8.125 h 1.09375 V -4.34375 c 0,-1.171875 0.234375,-3.046875 1.953125,-3.046875 0.59375,0 1.265625,0.125 1.640625,0.625 C 6.109375,-6.375 6.125,-5.859375 6.125,-5.375 v 5.359375 H 7.234375 V -4.34375 c 0,-1.171875 0.234375,-3.046875 1.9375,-3.046875 0.609375,0 1.28125,0.125 1.65625,0.625 0.3125,0.390625 0.328125,0.90625 0.328125,1.390625 v 5.359375 h 1.109375 v -4.5625 c 0,-0.296875 0.01563,-0.625 0.01563,-0.9375 0,-0.765625 -0.109375,-1.578125 -0.65625,-2.125 C 11.15625,-8.109375 10.4375,-8.25 9.796875,-8.25 8.578125,-8.25 7.640625,-7.453125 7.1875,-6.40625 6.90625,-7.640625 6.109375,-8.25 4.75,-8.25 c -1.09375,0 -2.25,0.78125 -2.578125,1.828125 z m 0,0"
             id="path112745" />
        </g>
      </g>
      <g
         fill="#ffffff"
         fill-opacity="1"
         id="g3834">
        <g
           id="use3832"
           transform="translate(739.1308,693.3739)">
          <path
             d="m 1.453125,-11.3125 v 6.171875 h 0.78125 c 0.203125,0 0.25,-0.140625 0.328125,-0.265625 0.5,-0.65625 1.296875,-0.9375 2.0625,-0.9375 1.671875,0 2.15625,1.5 2.15625,2.734375 0,0.734375 -0.125,1.5625 -0.671875,2.109375 C 5.59375,-0.953125 4.875,-0.703125 4.125,-0.703125 c -1.203125,0 -2.28125,-0.625 -2.9375,-1.609375 H 1.171875 c -0.15625,0.25 -0.453125,0.625 -0.453125,0.796875 0,0.15625 0.28125,0.375 0.40625,0.5 0.78125,0.75 1.859375,1.203125 2.953125,1.203125 2.015625,0 3.890625,-1.515625 3.890625,-3.75 0,-1.671875 -1.140625,-3.640625 -3.359375,-3.640625 -0.796875,0 -1.515625,0.328125 -2.109375,0.8125 v -4.015625 h 4.890625 v -0.90625 z m 0,0"
             id="path112725" />
        </g>
      </g>
      <g
         fill="#ffffff"
         fill-opacity="1"
         id="g3838">
        <g
           id="use3836"
           transform="translate(747.88507,693.3739)">
          <path
             d="m 1.671875,-10.390625 v 0.875 c 0.828125,0 1.5625,-0.15625 2.359375,-0.5 V -0.875 h -2.25 v 0.859375 h 5.625 V -0.875 H 5.140625 v -10.640625 h -0.125 c -0.234375,0 -0.359375,0.21875 -0.53125,0.34375 -0.8125,0.578125 -1.828125,0.78125 -2.8125,0.78125 z m 0,0"
             id="path112717" />
        </g>
      </g>
      <g
         fill="#ffffff"
         fill-opacity="1"
         id="g3842">
        <g
           id="use3840"
           transform="translate(756.63928,693.3739)">
          <path
             d="m 1.703125,-1.359375 v 1.34375 h 1.34375 v -1.34375 z m 0,0"
             id="path112697" />
        </g>
      </g>
      <g
         fill="#ffffff"
         fill-opacity="1"
         id="g3846">
        <g
           id="use3844"
           transform="translate(761.31927,693.3739)">
          <path
             d="M 6.796875,-5.671875 H 6.8125 c 0,1.859375 -0.40625,4.96875 -3.296875,4.96875 C 2.75,-0.703125 2.1875,-1 1.625,-1.390625 l -0.453125,0.78125 C 1.890625,-0.0625 2.703125,0.1875 3.59375,0.1875 c 2.9375,0 4.359375,-3.359375 4.359375,-5.796875 0,-2.015625 -0.234375,-4.8125 -2.421875,-5.703125 -0.359375,-0.140625 -0.765625,-0.203125 -1.15625,-0.203125 -2.1875,0 -3.578125,2 -3.578125,3.96875 0,1.796875 0.859375,3.90625 2.921875,3.90625 1.234375,0 2.703125,-0.875 3.078125,-2.03125 z M 6.75,-7.578125 c -0.015625,0.046875 -0.015625,0.109375 -0.015625,0.15625 0,0.125 0.015625,0.21875 0.015625,0.34375 v 0.09375 C 6.640625,-5.625 5.640625,-4.5 4.171875,-4.5 3.4375,-4.5 2.84375,-4.78125 2.40625,-5.390625 1.984375,-5.984375 1.921875,-6.71875 1.921875,-7.4375 c 0,-1.328125 0.265625,-3.21875 2.484375,-3.21875 1.640625,0 2.34375,1.703125 2.34375,2.953125 z m 0,0"
             id="path112733" />
        </g>
      </g>
      <g
         fill="#ffffff"
         fill-opacity="1"
         id="g3850">
        <g
           id="use3848"
           transform="translate(770.07355,693.3739)">
          <path
             d="M 6.796875,-5.671875 H 6.8125 c 0,1.859375 -0.40625,4.96875 -3.296875,4.96875 C 2.75,-0.703125 2.1875,-1 1.625,-1.390625 l -0.453125,0.78125 C 1.890625,-0.0625 2.703125,0.1875 3.59375,0.1875 c 2.9375,0 4.359375,-3.359375 4.359375,-5.796875 0,-2.015625 -0.234375,-4.8125 -2.421875,-5.703125 -0.359375,-0.140625 -0.765625,-0.203125 -1.15625,-0.203125 -2.1875,0 -3.578125,2 -3.578125,3.96875 0,1.796875 0.859375,3.90625 2.921875,3.90625 1.234375,0 2.703125,-0.875 3.078125,-2.03125 z M 6.75,-7.578125 c -0.015625,0.046875 -0.015625,0.109375 -0.015625,0.15625 0,0.125 0.015625,0.21875 0.015625,0.34375 v 0.09375 C 6.640625,-5.625 5.640625,-4.5 4.171875,-4.5 3.4375,-4.5 2.84375,-4.78125 2.40625,-5.390625 1.984375,-5.984375 1.921875,-6.71875 1.921875,-7.4375 c 0,-1.328125 0.265625,-3.21875 2.484375,-3.21875 1.640625,0 2.34375,1.703125 2.34375,2.953125 z m 0,0"
             id="path112737" />
        </g>
      </g>
      <g
         fill="#ffffff"
         fill-opacity="1"
         id="g3854">
        <g
           id="use3852"
           transform="translate(778.82776,693.3739)">
          <path
             d="m 1.953125,-5.6875 h -0.03125 c 0,-1.984375 0.5625,-4.96875 3.546875,-4.96875 0.71875,0 1.265625,0.1875 1.90625,0.359375 V -11 c 0,-0.46875 -1.625,-0.515625 -1.9375,-0.515625 -2.578125,0 -4.234375,2.421875 -4.578125,4.75 -0.046875,0.390625 -0.0625,0.796875 -0.0625,1.1875 0,2.046875 0.328125,4.5625 2.390625,5.53125 C 3.5625,0.125 4,0.1875 4.421875,0.1875 c 2.09375,0 3.53125,-1.96875 3.53125,-3.96875 0,-1.359375 -0.5625,-3.15625 -1.890625,-3.75 -0.34375,-0.140625 -0.6875,-0.171875 -1.046875,-0.171875 -1.25,0.03125 -2.6875,0.890625 -3.0625,2.015625 z M 2,-4.03125 V -4.125 c 0,-1.34375 0.984375,-2.734375 2.515625,-2.734375 1.125,0 2.078125,0.734375 2.28125,2.234375 0.015625,0.28125 0.015625,0.59375 0.015625,0.890625 0,1.25 -0.359375,3.03125 -2.328125,3.03125 -1.578125,0 -2.3125,-1.3125 -2.484375,-2.890625 0,-0.078125 0.015625,-0.140625 0.015625,-0.21875 0,-0.0625 0,-0.140625 -0.015625,-0.21875 z m 0,0"
             id="path112753" />
        </g>
      </g>
      <g
         fill="#ffffff"
         fill-opacity="1"
         id="g3858">
        <g
           id="use3856"
           transform="translate(714.61566,613.28406)">
          <path
             d="m 1.25,-7.921875 c 0.3125,-1.25 0.921875,-2.6875 2.640625,-2.6875 1.46875,0 2.96875,0.890625 2.96875,2.578125 0,1.9375 -1.8125,3.265625 -3.125,4.359375 C 2.875,-2.9375 2.03125,-2.140625 1.21875,-1.359375 L 0.9375,-1.078125 C 0.828125,-0.984375 0.75,-0.9375 0.75,-0.75 v 0.734375 h 7.234375 v -0.96875 H 1.75 c 0.4375,-0.40625 0.90625,-0.8125 1.34375,-1.203125 0.609375,-0.53125 1.1875,-1.078125 1.8125,-1.578125 1.359375,-1.109375 3.078125,-2.328125 3.078125,-4.3125 0,-2 -1.671875,-3.375 -3.65625,-3.4375 h -0.125 c -1.46875,0 -2.796875,0.609375 -3.453125,2.40625 C 0.703125,-9.015625 0.640625,-8.875 0.640625,-8.75 v 0.03125 C 0.65625,-8.609375 0.75,-8.515625 0.8125,-8.453125 c 0.140625,0.171875 0.265625,0.375 0.4375,0.53125 z m 0,0"
             id="path112705" />
        </g>
      </g>
      <g
         fill="#ffffff"
         fill-opacity="1"
         id="g3862">
        <g
           id="use3860"
           transform="translate(723.36993,613.28406)">
          <path
             d="M 0.359375,-3.140625 H 5.34375 v 3.125 h 1.078125 v -3.125 h 1.96875 v -0.90625 h -1.96875 v -7.375 h -1.125 c -0.328125,0 -0.421875,0.40625 -0.59375,0.640625 -1.015625,1.625 -2.078125,3.203125 -3.125,4.828125 L 0.75,-4.671875 C 0.5625,-4.390625 0.359375,-4.15625 0.359375,-3.875 Z m 1.125,-0.90625 c 1.234375,-1.84375 2.4375,-3.71875 3.53125,-5.640625 0.125,-0.25 0.3125,-0.515625 0.359375,-0.796875 l 0.015625,6.4375 z m 0,0"
             id="path112729" />
        </g>
      </g>
    </g>
  </g>
  <g
     inkscape:label="Capa 1"
     inkscape:groupmode="layer"
     id="layer1"
     transform="translate(-25.949774,-102.1557)">
    <g
       id="g35216"
       transform="matrix(0.35277777,0,0,0.35277777,-11.847197,-22.263639)" />
  </g>
</svg>
