<?xml version="1.0" encoding="UTF-8" standalone="no"?>
<!-- Created with Inkscape (http://www.inkscape.org/) -->

<svg
   width="40.57357mm"
   height="40.569443mm"
   viewBox="0 0 40.573571 40.569443"
   version="1.1"
   id="svg35221"
   inkscape:version="1.2.1 (9c6d41e410, 2022-07-14)"
   sodipodi:docname="27_clicked.svg"
   xmlns:inkscape="http://www.inkscape.org/namespaces/inkscape"
   xmlns:sodipodi="http://sodipodi.sourceforge.net/DTD/sodipodi-0.dtd"
   xmlns="http://www.w3.org/2000/svg"
   xmlns:svg="http://www.w3.org/2000/svg">
  <sodipodi:namedview
     id="namedview35223"
     pagecolor="#ffffff"
     bordercolor="#000000"
     borderopacity="0.25"
     inkscape:showpageshadow="2"
     inkscape:pageopacity="0.0"
     inkscape:pagecheckerboard="0"
     inkscape:deskcolor="#d1d1d1"
     inkscape:document-units="mm"
     showgrid="false"
     inkscape:zoom="2.8284271"
     inkscape:cx="-91.393552"
     inkscape:cy="49.497475"
     inkscape:window-width="1920"
     inkscape:window-height="1009"
     inkscape:window-x="2552"
     inkscape:window-y="421"
     inkscape:window-maximized="1"
     inkscape:current-layer="g115528" />
  <defs
     id="defs35218" />
  <g
     inkscape:groupmode="layer"
     id="layer2"
     inkscape:label="Capa 2">
    <g
       id="g115528"
       transform="matrix(0.35277777,0,0,0.35277777,-378.0131,-208.86304)">
      <path
         fill-rule="nonzero"
         fill="#c8c850"
         fill-opacity="1"
         d="m 1071.5391,649.55078 v -51.74609 c 0,-3.17578 2.5742,-5.75 5.75,-5.75 h 103.5 c 3.1757,0 5.75,2.57422 5.75,5.75 v 103.49609 c 0,3.17578 -2.5743,5.75 -5.75,5.75 h -103.5 c -3.1758,0 -5.75,-2.57422 -5.75,-5.75"
         id="path4602"
         style="fill:#e76f51;fill-opacity:1" />
      <g
         fill="#ffffff"
         fill-opacity="1"
         id="g4606">
        <g
           id="use4604"
           transform="translate(1102.1578,649.57373)">
          <path
             d="m 27.296875,-6.25 c -0.8125,0.421875 -1.5,1.015625 -2.3125,1.453125 -1.984375,1.0625 -4.078125,1.40625 -6.296875,1.40625 -2.53125,0 -5.109375,-0.515625 -6.953125,-2.34375 C 9.375,-8.09375 8.90625,-11.78125 8.90625,-14.90625 c 0,-3.171875 0.4375,-6.859375 2.828125,-9.171875 1.765625,-1.75 4.25,-2.359375 6.640625,-2.359375 2.53125,0 4.84375,0.6875 6.984375,2.1875 0.296875,0.21875 0.5625,0.46875 0.859375,0.640625 l 0.984375,-5.609375 c -2.828125,-0.9375 -5.609375,-1.5 -8.609375,-1.5 -4.453125,0 -9.125,0.765625 -12.421875,4.328125 -2.828125,3.078125 -3.5625,7.5 -3.5625,11.484375 0,4.5 0.984375,9.203125 4.421875,12.328125 3.03125,2.75 7.359375,3.484375 11.34375,3.484375 1.46875,0 2.96875,-0.046875 4.421875,-0.34375 1.328125,-0.34375 4.875,-1.59375 4.875,-2.28125 v -0.203125 c 0,-1.46875 -0.296875,-2.921875 -0.375,-4.328125 z m 0,0"
             id="path116141" />
        </g>
      </g>
      <g
         fill="#ffffff"
         fill-opacity="1"
         id="g4610">
        <g
           id="use4608"
           transform="translate(1132.2872,649.57373)">
          <path
             d="m 10.875,-21 c -2.484375,0.34375 -4.796875,0.6875 -6.671875,2.484375 -2.3125,2.1875 -2.875,5.53125 -2.875,8.578125 0,2.609375 0.46875,5.5625 2.359375,7.53125 2.015625,2.15625 5.046875,2.875 7.96875,2.875 5.21875,0 10.53125,-2.09375 10.53125,-10.28125 0,-2.875 -0.46875,-6.078125 -2.484375,-8.3125 C 17.609375,-20.4375 14.4375,-21 11.4375,-21 Z M 7.15625,-8.828125 v -2.015625 c 0,-3.03125 0.171875,-7.0625 4.546875,-7.0625 3.984375,0 4.65625,3 4.65625,7.40625 0,3.171875 -0.03125,7.625 -4.578125,7.625 -1.375,0 -2.734375,-0.546875 -3.5625,-1.578125 -0.9375,-1.25 -0.890625,-2.875 -1.0625,-4.375 z m 0,0"
             id="path116137" />
        </g>
      </g>
      <g
         fill="#ffffff"
         fill-opacity="1"
         id="g4614">
        <g
           id="use4612"
           transform="translate(1106.1178,671.41382)">
          <path
             d="m 10.421875,-1.796875 c -0.34375,0.171875 -0.65625,0.421875 -1,0.59375 -0.703125,0.359375 -1.5,0.484375 -2.296875,0.484375 -0.953125,0 -1.84375,-0.21875 -2.734375,-0.9375 -1.28125,-1.015625 -1.90625,-2.734375 -1.90625,-4.328125 0,-2.59375 1.625,-5.28125 4.640625,-5.28125 0.65625,0 1.3125,0.140625 1.921875,0.359375 0.359375,0.15625 0.703125,0.375 1.046875,0.546875 l 0.203125,-1.21875 c -1.0625,-0.390625 -2.15625,-0.59375 -3.328125,-0.59375 -3.328125,0 -5.6875,3 -5.6875,6.1875 0,3.15625 2.25,6.171875 5.734375,6.171875 1.140625,0 2.328125,-0.203125 3.328125,-0.875 C 10.4375,-0.734375 10.5,-0.75 10.5,-0.890625 10.5,-0.984375 10.484375,-1.0625 10.46875,-1.125 Z m 0,0"
             id="path116125" />
        </g>
      </g>
      <g
         fill="#ffffff"
         fill-opacity="1"
         id="g4618">
        <g
           id="use4616"
           transform="translate(1117.395,671.41382)">
          <path
             d="m 4.125,-8.296875 c -2.171875,0.21875 -3.5625,2.1875 -3.5625,4.234375 0,1.921875 1.359375,4.15625 3.828125,4.15625 2.1875,0 3.78125,-2.046875 3.78125,-4.140625 0,-2.0625 -1.421875,-4.25 -3.8125,-4.25 z M 1.671875,-3.90625 v -0.203125 c 0,-0.921875 0.15625,-1.9375 0.859375,-2.609375 0.5,-0.484375 1.171875,-0.71875 1.84375,-0.71875 1.8125,0 2.71875,1.53125 2.71875,3.265625 0,1.65625 -0.859375,3.359375 -2.71875,3.359375 -1,0 -1.8125,-0.53125 -2.296875,-1.390625 -0.265625,-0.53125 -0.34375,-1.125 -0.40625,-1.703125 z m 0,0"
             id="path116093" />
        </g>
      </g>
      <g
         fill="#ffffff"
         fill-opacity="1"
         id="g4622">
        <g
           id="use4620"
           transform="translate(1126.1492,671.41382)">
          <path
             d="m 1.109375,-11.96875 v 11.953125 h 1.09375 l 0.015625,-1.09375 c 0.4375,0.875 1.46875,1.203125 2.046875,1.203125 2.140625,0 3.375,-2.265625 3.375,-4.21875 0,-1.5625 -0.609375,-3.234375 -2.078125,-3.921875 C 5.25,-8.171875 4.921875,-8.25 4.578125,-8.25 c -0.9375,0 -1.78125,0.5 -2.390625,1.234375 V -11.96875 Z M 6.53125,-3.75 c -0.078125,0.734375 -0.21875,1.484375 -0.734375,2.0625 -0.46875,0.578125 -1.25,0.90625 -2.015625,0.90625 -0.703125,0 -1.578125,-0.59375 -1.578125,-1.34375 V -6.203125 C 2.3125,-6.875 3.3125,-7.390625 4,-7.390625 c 0.5625,0 1.078125,0.234375 1.5625,0.59375 0.796875,0.671875 0.984375,1.765625 0.984375,2.734375 0,0.109375 0,0.203125 -0.015625,0.3125 z m 0,0"
             id="path116097" />
        </g>
      </g>
      <g
         fill="#ffffff"
         fill-opacity="1"
         id="g4626">
        <g
           id="use4624"
           transform="translate(1134.4235,671.41382)">
          <path
             d="M 1.359375,-6.609375 C 1.65625,-6.75 1.890625,-6.953125 2.1875,-7.09375 2.796875,-7.359375 3.4375,-7.5 4.109375,-7.5 c 1.109375,0 1.734375,0.921875 1.734375,2.15625 v 0.765625 c -1.890625,0 -5.015625,0.40625 -5.015625,2.578125 0,1.109375 0.734375,2.09375 1.90625,2.09375 1.125,0 2.609375,-0.453125 3.109375,-1.3125 l 0.015625,1.203125 H 6.9375 V -4.5625 c 0,-0.234375 0.015625,-0.5 0.015625,-0.765625 0,-1.265625 -0.6875,-2.78125 -2.578125,-2.96875 H 4.1875 c -0.90625,0 -1.75,0.15625 -2.5625,0.546875 -0.125,0.046875 -0.34375,0.125 -0.34375,0.296875 0,0.265625 0.0625,0.5625 0.078125,0.84375 z M 5.84375,-4.0625 v 1.4375 c 0,1.09375 -0.828125,1.84375 -2.171875,1.84375 -0.75,0 -1.796875,-0.359375 -1.796875,-1.265625 0,-1.65625 2.65625,-2.015625 3.96875,-2.015625 z m 0,0"
             id="path116085" />
        </g>
      </g>
      <g
         fill="#ffffff"
         fill-opacity="1"
         id="g4630">
        <g
           id="use4628"
           transform="translate(1142.4692,671.41382)">
          <path
             d="M 1.109375,-11.96875 V -0.015625 H 2.1875 V -11.96875 Z m 0,0"
             id="path116129" />
        </g>
      </g>
      <g
         fill="#ffffff"
         fill-opacity="1"
         id="g4634">
        <g
           id="use4632"
           transform="translate(1145.715,671.41382)">
          <path
             d="m 1.859375,-10.46875 v 2.328125 H 0.1875 v 0.859375 h 1.65625 v 5.015625 c 0,0.953125 0.140625,2.359375 1.421875,2.359375 0.828125,0 1.65625,-0.234375 2.359375,-0.609375 0.09375,-0.0625 0.234375,-0.109375 0.234375,-0.203125 0,-0.078125 -0.046875,-0.140625 -0.0625,-0.1875 C 5.75,-1.109375 5.703125,-1.3125 5.640625,-1.5 l -0.40625,0.3125 c -0.375,0.21875 -0.859375,0.390625 -1.328125,0.390625 -0.828125,0 -1.03125,-0.875 -1.03125,-1.59375 0,-0.25 0.015625,-0.484375 0.015625,-0.6875 V -7.28125 H 5.5625 V -8.140625 H 2.890625 v -2.328125 z m 0,0"
             id="path116121" />
        </g>
      </g>
      <g
         fill="#ffffff"
         fill-opacity="1"
         id="g4638">
        <g
           id="use4636"
           transform="translate(1104.7975,693.3739)">
          <path
             d="m 1.453125,-11.3125 v 6.171875 h 0.78125 c 0.203125,0 0.25,-0.140625 0.328125,-0.265625 0.5,-0.65625 1.296875,-0.9375 2.0625,-0.9375 1.671875,0 2.15625,1.5 2.15625,2.734375 0,0.734375 -0.125,1.5625 -0.671875,2.109375 C 5.59375,-0.953125 4.875,-0.703125 4.125,-0.703125 c -1.203125,0 -2.28125,-0.625 -2.9375,-1.609375 H 1.171875 c -0.15625,0.25 -0.453125,0.625 -0.453125,0.796875 0,0.15625 0.28125,0.375 0.40625,0.5 0.78125,0.75 1.859375,1.203125 2.953125,1.203125 2.015625,0 3.890625,-1.515625 3.890625,-3.75 0,-1.671875 -1.140625,-3.640625 -3.359375,-3.640625 -0.796875,0 -1.515625,0.328125 -2.109375,0.8125 v -4.015625 h 4.890625 v -0.90625 z m 0,0"
             id="path116101" />
        </g>
      </g>
      <g
         fill="#ffffff"
         fill-opacity="1"
         id="g4642">
        <g
           id="use4640"
           transform="translate(1113.5518,693.3739)">
          <path
             d="m 3.21875,-6.125 v 0.015625 C 1.90625,-5.71875 0.625,-4.78125 0.625,-3.1875 c 0,2.078125 1.953125,3.375 3.828125,3.375 H 4.53125 C 6.3125,0.15625 8.125,-1.25 8.125,-3.171875 c 0,-1.5 -1.21875,-2.5625 -2.59375,-2.9375 0.921875,-0.34375 2.359375,-0.9375 2.359375,-2.5 0,-1.75 -1.796875,-2.90625 -3.515625,-2.90625 -1.609375,0 -3.515625,1.046875 -3.515625,2.890625 v 0.140625 C 0.96875,-7.28125 2.15625,-6.28125 3.21875,-6.125 Z M 1.75,-2.96875 c 0,-0.0625 -0.015625,-0.140625 -0.015625,-0.21875 0,-1.46875 1.109375,-2.5 2.640625,-2.5 1.421875,0 2.609375,0.90625 2.609375,2.484375 0,1.578125 -1.125,2.5 -2.59375,2.5 C 2.96875,-0.703125 1.921875,-1.5 1.75,-2.96875 Z m 0.140625,-5.453125 v -0.15625 c 0,-1.5625 1.296875,-2.078125 2.453125,-2.078125 1.109375,0 2.359375,0.40625 2.515625,1.875 V -8.625 c 0,1.53125 -1.296875,2.078125 -2.46875,2.078125 -1.1875,0 -2.328125,-0.546875 -2.5,-1.875 z m 0,0"
             id="path116133" />
        </g>
      </g>
      <g
         fill="#ffffff"
         fill-opacity="1"
         id="g4646">
        <g
           id="use4644"
           transform="translate(1122.3059,693.3739)">
          <path
             d="m 1.703125,-1.359375 v 1.34375 h 1.34375 v -1.34375 z m 0,0"
             id="path116081" />
        </g>
      </g>
      <g
         fill="#ffffff"
         fill-opacity="1"
         id="g4650">
        <g
           id="use4648"
           transform="translate(1126.986,693.3739)">
          <path
             d="M 6.796875,-5.671875 H 6.8125 c 0,1.859375 -0.40625,4.96875 -3.296875,4.96875 C 2.75,-0.703125 2.1875,-1 1.625,-1.390625 l -0.453125,0.78125 C 1.890625,-0.0625 2.703125,0.1875 3.59375,0.1875 c 2.9375,0 4.359375,-3.359375 4.359375,-5.796875 0,-2.015625 -0.234375,-4.8125 -2.421875,-5.703125 -0.359375,-0.140625 -0.765625,-0.203125 -1.15625,-0.203125 -2.1875,0 -3.578125,2 -3.578125,3.96875 0,1.796875 0.859375,3.90625 2.921875,3.90625 1.234375,0 2.703125,-0.875 3.078125,-2.03125 z M 6.75,-7.578125 c -0.015625,0.046875 -0.015625,0.109375 -0.015625,0.15625 0,0.125 0.015625,0.21875 0.015625,0.34375 v 0.09375 C 6.640625,-5.625 5.640625,-4.5 4.171875,-4.5 3.4375,-4.5 2.84375,-4.78125 2.40625,-5.390625 1.984375,-5.984375 1.921875,-6.71875 1.921875,-7.4375 c 0,-1.328125 0.265625,-3.21875 2.484375,-3.21875 1.640625,0 2.34375,1.703125 2.34375,2.953125 z m 0,0"
             id="path116117" />
        </g>
      </g>
      <g
         fill="#ffffff"
         fill-opacity="1"
         id="g4654">
        <g
           id="use4652"
           transform="translate(1135.7402,693.3739)">
          <path
             d="m 1.390625,-8.703125 c 0.75,-1.09375 1.46875,-1.953125 3.109375,-1.953125 0.96875,0 1.984375,0.53125 1.984375,1.640625 0,1.984375 -2.03125,2.390625 -3.609375,2.46875 V -5.6875 h 1.1875 c 0.8125,0 1.625,0.109375 2.203125,0.75 0.453125,0.453125 0.65625,1.09375 0.65625,1.734375 0,1.40625 -1.015625,2.5 -2.53125,2.5 -1.453125,0 -2.765625,-0.78125 -3.59375,-1.9375 -0.109375,0.234375 -0.15625,0.6875 -0.15625,0.828125 V -1.75 C 0.90625,-1.078125 2.15625,-0.28125 3.046875,-0.015625 3.5,0.109375 3.9375,0.171875 4.40625,0.171875 6.09375,0.171875 8.125,-1 8.125,-3.140625 8.125,-4.25 7.46875,-5.1875 6.484375,-5.734375 c -0.28125,-0.171875 -0.625,-0.34375 -0.96875,-0.375 C 6.59375,-6.625 7.625,-7.578125 7.625,-9 c 0,-1.65625 -1.75,-2.515625 -3.171875,-2.515625 -1.4375,0 -2.65625,0.71875 -3.484375,1.875 -0.03125,0.046875 -0.078125,0.09375 -0.078125,0.171875 0,0.15625 0.328125,0.53125 0.5,0.765625 z m 0,0"
             id="path116109" />
        </g>
      </g>
      <g
         fill="#ffffff"
         fill-opacity="1"
         id="g4658">
        <g
           id="use4656"
           transform="translate(1144.4944,693.3739)">
          <path
             d="m 1.390625,-8.703125 c 0.75,-1.09375 1.46875,-1.953125 3.109375,-1.953125 0.96875,0 1.984375,0.53125 1.984375,1.640625 0,1.984375 -2.03125,2.390625 -3.609375,2.46875 V -5.6875 h 1.1875 c 0.8125,0 1.625,0.109375 2.203125,0.75 0.453125,0.453125 0.65625,1.09375 0.65625,1.734375 0,1.40625 -1.015625,2.5 -2.53125,2.5 -1.453125,0 -2.765625,-0.78125 -3.59375,-1.9375 -0.109375,0.234375 -0.15625,0.6875 -0.15625,0.828125 V -1.75 C 0.90625,-1.078125 2.15625,-0.28125 3.046875,-0.015625 3.5,0.109375 3.9375,0.171875 4.40625,0.171875 6.09375,0.171875 8.125,-1 8.125,-3.140625 8.125,-4.25 7.46875,-5.1875 6.484375,-5.734375 c -0.28125,-0.171875 -0.625,-0.34375 -0.96875,-0.375 C 6.59375,-6.625 7.625,-7.578125 7.625,-9 c 0,-1.65625 -1.75,-2.515625 -3.171875,-2.515625 -1.4375,0 -2.65625,0.71875 -3.484375,1.875 -0.03125,0.046875 -0.078125,0.09375 -0.078125,0.171875 0,0.15625 0.328125,0.53125 0.5,0.765625 z m 0,0"
             id="path116113" />
        </g>
      </g>
      <g
         fill="#ffffff"
         fill-opacity="1"
         id="g4662">
        <g
           id="use4660"
           transform="translate(1080.2823,613.28406)">
          <path
             d="m 1.25,-7.921875 c 0.3125,-1.25 0.921875,-2.6875 2.640625,-2.6875 1.46875,0 2.96875,0.890625 2.96875,2.578125 0,1.9375 -1.8125,3.265625 -3.125,4.359375 C 2.875,-2.9375 2.03125,-2.140625 1.21875,-1.359375 L 0.9375,-1.078125 C 0.828125,-0.984375 0.75,-0.9375 0.75,-0.75 v 0.734375 h 7.234375 v -0.96875 H 1.75 c 0.4375,-0.40625 0.90625,-0.8125 1.34375,-1.203125 0.609375,-0.53125 1.1875,-1.078125 1.8125,-1.578125 1.359375,-1.109375 3.078125,-2.328125 3.078125,-4.3125 0,-2 -1.671875,-3.375 -3.65625,-3.4375 h -0.125 c -1.46875,0 -2.796875,0.609375 -3.453125,2.40625 C 0.703125,-9.015625 0.640625,-8.875 0.640625,-8.75 v 0.03125 C 0.65625,-8.609375 0.75,-8.515625 0.8125,-8.453125 c 0.140625,0.171875 0.265625,0.375 0.4375,0.53125 z m 0,0"
             id="path116089" />
        </g>
      </g>
      <g
         fill="#ffffff"
         fill-opacity="1"
         id="g4666">
        <g
           id="use4664"
           transform="translate(1089.0366,613.28406)">
          <path
             d="m 0.625,-11.3125 v 0.96875 h 6.75 C 6.5625,-9.546875 5.8125,-8.75 5.1875,-7.796875 3.640625,-5.46875 2.796875,-2.703125 2.796875,0.09375 H 3.9375 c 0,-3.78125 1.4375,-7.25 3.859375,-10.125 C 7.953125,-10.1875 8.125,-10.3125 8.125,-10.5625 v -0.75 z m 0,0"
             id="path116105" />
        </g>
      </g>
    </g>
  </g>
  <g
     inkscape:label="Capa 1"
     inkscape:groupmode="layer"
     id="layer1"
     transform="translate(-25.949774,-102.1557)">
    <g
       id="g35216"
       transform="matrix(0.35277777,0,0,0.35277777,-11.847197,-22.263639)" />
    <rect
       style="fill:none;stroke:#008080;stroke-width:2.99976;stroke-dasharray:none"
       id="rect22454"
       width="37.605034"
       height="37.569675"
       x="27.449654"
       y="103.65559" />
  </g>
</svg>
