<?xml version="1.0" encoding="UTF-8" standalone="no"?>
<!-- Created with Inkscape (http://www.inkscape.org/) -->

<svg
   width="40.57357mm"
   height="40.569443mm"
   viewBox="0 0 40.573571 40.569443"
   version="1.1"
   id="svg35221"
   inkscape:version="1.2.1 (9c6d41e410, 2022-07-14)"
   sodipodi:docname="30_clicked.svg"
   xmlns:inkscape="http://www.inkscape.org/namespaces/inkscape"
   xmlns:sodipodi="http://sodipodi.sourceforge.net/DTD/sodipodi-0.dtd"
   xmlns="http://www.w3.org/2000/svg"
   xmlns:svg="http://www.w3.org/2000/svg">
  <sodipodi:namedview
     id="namedview35223"
     pagecolor="#ffffff"
     bordercolor="#000000"
     borderopacity="0.25"
     inkscape:showpageshadow="2"
     inkscape:pageopacity="0.0"
     inkscape:pagecheckerboard="0"
     inkscape:deskcolor="#d1d1d1"
     inkscape:document-units="mm"
     showgrid="false"
     inkscape:zoom="2.8284271"
     inkscape:cx="-91.393552"
     inkscape:cy="49.497475"
     inkscape:window-width="1920"
     inkscape:window-height="1009"
     inkscape:window-x="2552"
     inkscape:window-y="421"
     inkscape:window-maximized="1"
     inkscape:current-layer="g119542" />
  <defs
     id="defs35218" />
  <g
     inkscape:groupmode="layer"
     id="layer2"
     inkscape:label="Capa 2">
    <g
       id="g119542"
       transform="translate(48.069466,2.8854802)">
      <path
         fill-rule="nonzero"
         fill="#c8c850"
         fill-opacity="1"
         d="M -48.066704,17.398556 V -0.85631457 c 0,-1.12034463 0.90678,-2.02847213 2.027097,-2.02847213 h 36.5124989 c 1.1203516,0 2.0284721,0.9081275 2.0284721,2.02847213 V 35.654805 c 0,1.120345 -0.9081205,2.028472 -2.0284721,2.028472 H -46.039607 c -1.120317,0 -2.027097,-0.908127 -2.027097,-2.028472"
         id="path5224"
         style="stroke-width:0.352778;fill:#e76f51;fill-opacity:1" />
      <g
         fill="#ffffff"
         fill-opacity="1"
         id="g5228"
         transform="matrix(0.35277777,0,0,0.35277777,-555.08276,-211.74852)">
        <g
           id="use5226"
           transform="translate(1468.3073,649.57373)">
          <path
             d="m 3.25,-29.78125 v 4.203125 H 18.296875 L 2.65625,-2.90625 v 2.859375 h 23.734375 v -4.5 h -13.875 L 10.5,-4.375 26.09375,-27.078125 v -2.703125 z m 0,0"
             id="path119452" />
        </g>
      </g>
      <g
         fill="#ffffff"
         fill-opacity="1"
         id="g5232"
         transform="matrix(0.35277777,0,0,0.35277777,-555.08276,-211.74852)">
        <g
           id="use5230"
           transform="translate(1497.0977,649.57373)">
          <path
             d="m 8.1875,-15.984375 v -4.53125 H 2.578125 v 20.46875 h 5.8125 v -11 c 0,-2.796875 0.78125,-6.609375 4.25,-6.609375 1.890625,0 3,0.90625 3,3.609375 0,0.546875 -0.04687,1.109375 -0.04687,1.625 v 12.375 H 21.42188 V -13.625 c 0,-1.921875 -0.04687,-3.984375 -1.328125,-5.53125 -1.28125,-1.359375 -3.296875,-1.578125 -5.0625,-1.578125 -2.90625,0 -5.984375,2.015625 -6.84375,4.75 z m 0,0"
             id="path119448" />
        </g>
      </g>
      <g
         fill="#ffffff"
         fill-opacity="1"
         id="g5236"
         transform="matrix(0.35277777,0,0,0.35277777,-555.08276,-211.74852)">
        <g
           id="use5234"
           transform="translate(1479.5872,671.41382)">
          <path
             d="m 1.125,-11.96875 v 0.890625 H 8.28125 L 0.875,-0.625 0.859375,-0.015625 H 10 V -0.9375 H 2.484375 l 7.40625,-10.421875 0.015625,-0.609375 z m 0,0"
             id="path119400" />
        </g>
      </g>
      <g
         fill="#ffffff"
         fill-opacity="1"
         id="g5240"
         transform="matrix(0.35277777,0,0,0.35277777,-555.08276,-211.74852)">
        <g
           id="use5238"
           transform="translate(1490.3871,671.41382)">
          <path
             d="m 1.109375,-8.140625 v 8.125 H 2.1875 v -8.125 z m 0,-3.828125 V -10.875 H 2.1875 v -1.09375 z m 0,0"
             id="path119408" />
        </g>
      </g>
      <g
         fill="#ffffff"
         fill-opacity="1"
         id="g5244"
         transform="matrix(0.35277777,0,0,0.35277777,-555.08276,-211.74852)">
        <g
           id="use5242"
           transform="translate(1493.6329,671.41382)">
          <path
             d="m 2.171875,-6.421875 v -1.71875 h -1.0625 v 8.125 h 1.09375 V -4.34375 c 0,-1.15625 0.234375,-3.046875 1.953125,-3.046875 0.59375,0 1.25,0.125 1.625,0.625 0.3125,0.390625 0.328125,0.90625 0.328125,1.390625 v 5.359375 H 7.21875 V -5.40625 c 0,-1.640625 -0.578125,-2.84375 -2.453125,-2.84375 -1.15625,0 -2.21875,0.765625 -2.59375,1.828125 z m 0,0"
             id="path119420" />
        </g>
      </g>
      <g
         fill="#ffffff"
         fill-opacity="1"
         id="g5248"
         transform="matrix(0.35277777,0,0,0.35277777,-555.08276,-211.74852)">
        <g
           id="use5246"
           transform="translate(1501.9071,671.41382)">
          <path
             d="m 7.296875,-1.953125 c -0.890625,0.65625 -1.609375,1.15625 -2.84375,1.15625 -1.921875,0 -2.671875,-1.78125 -2.671875,-3.28125 0,-1.609375 0.765625,-3.34375 2.671875,-3.34375 0.8125,0 1.484375,0.140625 2.3125,0.59375 0.125,0.0625 0.21875,0.140625 0.359375,0.1875 0.015625,-0.28125 0.140625,-0.578125 0.140625,-0.828125 0,-0.609375 -2.5,-0.828125 -2.75,-0.828125 -1.78125,0 -3.09375,1.171875 -3.609375,2.703125 C 0.71875,-5.0625 0.671875,-4.5 0.671875,-3.921875 0.6875,-1.90625 2.25,0.09375 4.40625,0.09375 c 0.96875,0 2,-0.296875 2.734375,-0.890625 0.125,-0.078125 0.25,-0.15625 0.25,-0.3125 0,-0.265625 -0.078125,-0.5625 -0.09375,-0.84375 z m 0,0"
             id="path119424" />
        </g>
      </g>
      <g
         fill="#ffffff"
         fill-opacity="1"
         id="g5252"
         transform="matrix(0.35277777,0,0,0.35277777,-555.08276,-211.74852)">
        <g
           id="use5250"
           transform="translate(1470.4668,693.3739)">
          <path
             d="m 1.953125,-5.6875 h -0.03125 c 0,-1.984375 0.5625,-4.96875 3.546875,-4.96875 0.71875,0 1.265625,0.1875 1.90625,0.359375 V -11 c 0,-0.46875 -1.625,-0.515625 -1.9375,-0.515625 -2.578125,0 -4.234375,2.421875 -4.578125,4.75 -0.046875,0.390625 -0.0625,0.796875 -0.0625,1.1875 0,2.046875 0.328125,4.5625 2.390625,5.53125 C 3.5625,0.125 4,0.1875 4.421875,0.1875 c 2.09375,0 3.53125,-1.96875 3.53125,-3.96875 0,-1.359375 -0.5625,-3.15625 -1.890625,-3.75 -0.34375,-0.140625 -0.6875,-0.171875 -1.046875,-0.171875 -1.25,0.03125 -2.6875,0.890625 -3.0625,2.015625 z M 2,-4.03125 V -4.125 c 0,-1.34375 0.984375,-2.734375 2.515625,-2.734375 1.125,0 2.078125,0.734375 2.28125,2.234375 0.015625,0.28125 0.015625,0.59375 0.015625,0.890625 0,1.25 -0.359375,3.03125 -2.328125,3.03125 -1.578125,0 -2.3125,-1.3125 -2.484375,-2.890625 0,-0.078125 0.015625,-0.140625 0.015625,-0.21875 0,-0.0625 0,-0.140625 -0.015625,-0.21875 z m 0,0"
             id="path119440" />
        </g>
      </g>
      <g
         fill="#ffffff"
         fill-opacity="1"
         id="g5256"
         transform="matrix(0.35277777,0,0,0.35277777,-555.08276,-211.74852)">
        <g
           id="use5254"
           transform="translate(1479.2209,693.3739)">
          <path
             d="m 1.453125,-11.3125 v 6.171875 h 0.78125 c 0.203125,0 0.25,-0.140625 0.328125,-0.265625 0.5,-0.65625 1.296875,-0.9375 2.0625,-0.9375 1.671875,0 2.15625,1.5 2.15625,2.734375 0,0.734375 -0.125,1.5625 -0.671875,2.109375 C 5.59375,-0.953125 4.875,-0.703125 4.125,-0.703125 c -1.203125,0 -2.28125,-0.625 -2.9375,-1.609375 H 1.171875 c -0.15625,0.25 -0.453125,0.625 -0.453125,0.796875 0,0.15625 0.28125,0.375 0.40625,0.5 0.78125,0.75 1.859375,1.203125 2.953125,1.203125 2.015625,0 3.890625,-1.515625 3.890625,-3.75 0,-1.671875 -1.140625,-3.640625 -3.359375,-3.640625 -0.796875,0 -1.515625,0.328125 -2.109375,0.8125 v -4.015625 h 4.890625 v -0.90625 z m 0,0"
             id="path119428" />
        </g>
      </g>
      <g
         fill="#ffffff"
         fill-opacity="1"
         id="g5260"
         transform="matrix(0.35277777,0,0,0.35277777,-555.08276,-211.74852)">
        <g
           id="use5258"
           transform="translate(1487.9752,693.3739)">
          <path
             d="m 1.703125,-1.359375 v 1.34375 h 1.34375 v -1.34375 z m 0,0"
             id="path119404" />
        </g>
      </g>
      <g
         fill="#ffffff"
         fill-opacity="1"
         id="g5264"
         transform="matrix(0.35277777,0,0,0.35277777,-555.08276,-211.74852)">
        <g
           id="use5262"
           transform="translate(1492.6552,693.3739)">
          <path
             d="m 1.390625,-8.703125 c 0.75,-1.09375 1.46875,-1.953125 3.109375,-1.953125 0.96875,0 1.984375,0.53125 1.984375,1.640625 0,1.984375 -2.03125,2.390625 -3.609375,2.46875 V -5.6875 h 1.1875 c 0.8125,0 1.625,0.109375 2.203125,0.75 0.453125,0.453125 0.65625,1.09375 0.65625,1.734375 0,1.40625 -1.015625,2.5 -2.53125,2.5 -1.453125,0 -2.765625,-0.78125 -3.59375,-1.9375 -0.109375,0.234375 -0.15625,0.6875 -0.15625,0.828125 V -1.75 C 0.90625,-1.078125 2.15625,-0.28125 3.046875,-0.015625 3.5,0.109375 3.9375,0.171875 4.40625,0.171875 6.09375,0.171875 8.125,-1 8.125,-3.140625 8.125,-4.25 7.46875,-5.1875 6.484375,-5.734375 c -0.28125,-0.171875 -0.625,-0.34375 -0.96875,-0.375 C 6.59375,-6.625 7.625,-7.578125 7.625,-9 c 0,-1.65625 -1.75,-2.515625 -3.171875,-2.515625 -1.4375,0 -2.65625,0.71875 -3.484375,1.875 -0.03125,0.046875 -0.078125,0.09375 -0.078125,0.171875 0,0.15625 0.328125,0.53125 0.5,0.765625 z m 0,0"
             id="path119432" />
        </g>
      </g>
      <g
         fill="#ffffff"
         fill-opacity="1"
         id="g5268"
         transform="matrix(0.35277777,0,0,0.35277777,-555.08276,-211.74852)">
        <g
           id="use5266"
           transform="translate(1501.4093,693.3739)">
          <path
             d="m 3.21875,-6.125 v 0.015625 C 1.90625,-5.71875 0.625,-4.78125 0.625,-3.1875 c 0,2.078125 1.953125,3.375 3.828125,3.375 H 4.53125 C 6.3125,0.15625 8.125,-1.25 8.125,-3.171875 c 0,-1.5 -1.21875,-2.5625 -2.59375,-2.9375 0.921875,-0.34375 2.359375,-0.9375 2.359375,-2.5 0,-1.75 -1.796875,-2.90625 -3.515625,-2.90625 -1.609375,0 -3.515625,1.046875 -3.515625,2.890625 v 0.140625 C 0.96875,-7.28125 2.15625,-6.28125 3.21875,-6.125 Z M 1.75,-2.96875 c 0,-0.0625 -0.015625,-0.140625 -0.015625,-0.21875 0,-1.46875 1.109375,-2.5 2.640625,-2.5 1.421875,0 2.609375,0.90625 2.609375,2.484375 0,1.578125 -1.125,2.5 -2.59375,2.5 C 2.96875,-0.703125 1.921875,-1.5 1.75,-2.96875 Z m 0.140625,-5.453125 v -0.15625 c 0,-1.5625 1.296875,-2.078125 2.453125,-2.078125 1.109375,0 2.359375,0.40625 2.515625,1.875 V -8.625 c 0,1.53125 -1.296875,2.078125 -2.46875,2.078125 -1.1875,0 -2.328125,-0.546875 -2.5,-1.875 z m 0,0"
             id="path119444" />
        </g>
      </g>
      <g
         fill="#ffffff"
         fill-opacity="1"
         id="g5272"
         transform="matrix(0.35277777,0,0,0.35277777,-555.08276,-211.74852)">
        <g
           id="use5270"
           transform="translate(1510.1635,693.3739)">
          <path
             d="m 4.125,-11.515625 c -3.21875,0.3125 -3.375,3.984375 -3.375,5.90625 0,2.328125 0.46875,5.796875 3.625,5.796875 h 0.21875 c 2.359375,-0.296875 3.390625,-2.265625 3.390625,-5.90625 0,-1.59375 -0.125,-3.515625 -1.203125,-4.734375 -0.59375,-0.671875 -1.5,-1.078125 -2.390625,-1.078125 -0.078125,0 -0.171875,0.01563 -0.265625,0.01563 z M 1.859375,-4.875 C 1.84375,-5.015625 1.84375,-5.171875 1.84375,-5.296875 V -5.625 c 0,-2.15625 0.0625,-5.03125 2.546875,-5.03125 2.484375,0 2.5,3.078125 2.5,4.734375 v 0.8125 c 0,1.453125 -0.09375,3.21875 -1.28125,4.046875 C 5.25,-0.8125 4.828125,-0.671875 4.390625,-0.671875 3.6875,-0.671875 2.984375,-1.03125 2.5625,-1.65625 2.078125,-2.375 1.96875,-3.34375 1.890625,-4.203125 1.875,-4.421875 1.890625,-4.65625 1.859375,-4.875 Z m 0,0"
             id="path119412" />
        </g>
      </g>
      <g
         fill="#ffffff"
         fill-opacity="1"
         id="g5276"
         transform="matrix(0.35277777,0,0,0.35277777,-555.08276,-211.74852)">
        <g
           id="use5274"
           transform="translate(1445.9523,613.28406)">
          <path
             d="m 1.390625,-8.703125 c 0.75,-1.09375 1.46875,-1.953125 3.109375,-1.953125 0.96875,0 1.984375,0.53125 1.984375,1.640625 0,1.984375 -2.03125,2.390625 -3.609375,2.46875 V -5.6875 h 1.1875 c 0.8125,0 1.625,0.109375 2.203125,0.75 0.453125,0.453125 0.65625,1.09375 0.65625,1.734375 0,1.40625 -1.015625,2.5 -2.53125,2.5 -1.453125,0 -2.765625,-0.78125 -3.59375,-1.9375 -0.109375,0.234375 -0.15625,0.6875 -0.15625,0.828125 V -1.75 C 0.90625,-1.078125 2.15625,-0.28125 3.046875,-0.015625 3.5,0.109375 3.9375,0.171875 4.40625,0.171875 6.09375,0.171875 8.125,-1 8.125,-3.140625 8.125,-4.25 7.46875,-5.1875 6.484375,-5.734375 c -0.28125,-0.171875 -0.625,-0.34375 -0.96875,-0.375 C 6.59375,-6.625 7.625,-7.578125 7.625,-9 c 0,-1.65625 -1.75,-2.515625 -3.171875,-2.515625 -1.4375,0 -2.65625,0.71875 -3.484375,1.875 -0.03125,0.046875 -0.078125,0.09375 -0.078125,0.171875 0,0.15625 0.328125,0.53125 0.5,0.765625 z m 0,0"
             id="path119436" />
        </g>
      </g>
      <g
         fill="#ffffff"
         fill-opacity="1"
         id="g5280"
         transform="matrix(0.35277777,0,0,0.35277777,-555.08276,-211.74852)">
        <g
           id="use5278"
           transform="translate(1454.7064,613.28406)">
          <path
             d="m 4.125,-11.515625 c -3.21875,0.3125 -3.375,3.984375 -3.375,5.90625 0,2.328125 0.46875,5.796875 3.625,5.796875 h 0.21875 c 2.359375,-0.296875 3.390625,-2.265625 3.390625,-5.90625 0,-1.59375 -0.125,-3.515625 -1.203125,-4.734375 -0.59375,-0.671875 -1.5,-1.078125 -2.390625,-1.078125 -0.078125,0 -0.171875,0.01563 -0.265625,0.01563 z M 1.859375,-4.875 C 1.84375,-5.015625 1.84375,-5.171875 1.84375,-5.296875 V -5.625 c 0,-2.15625 0.0625,-5.03125 2.546875,-5.03125 2.484375,0 2.5,3.078125 2.5,4.734375 v 0.8125 c 0,1.453125 -0.09375,3.21875 -1.28125,4.046875 C 5.25,-0.8125 4.828125,-0.671875 4.390625,-0.671875 3.6875,-0.671875 2.984375,-1.03125 2.5625,-1.65625 2.078125,-2.375 1.96875,-3.34375 1.890625,-4.203125 1.875,-4.421875 1.890625,-4.65625 1.859375,-4.875 Z m 0,0"
             id="path119416" />
        </g>
      </g>
    </g>
  </g>
  <g
     inkscape:label="Capa 1"
     inkscape:groupmode="layer"
     id="layer1"
     transform="translate(-25.949774,-102.1557)">
    <g
       id="g35216"
       transform="matrix(0.35277777,0,0,0.35277777,-11.847197,-22.263639)" />
    <rect
       style="fill:none;stroke:#008080;stroke-width:2.99976;stroke-dasharray:none"
       id="rect22454"
       width="37.605034"
       height="37.569675"
       x="27.449654"
       y="103.65559" />
  </g>
</svg>
