<?xml version="1.0" encoding="UTF-8" standalone="no"?>
<!-- Created with Inkscape (http://www.inkscape.org/) -->

<svg
   width="40.57357mm"
   height="40.569443mm"
   viewBox="0 0 40.573571 40.569443"
   version="1.1"
   id="svg35221"
   inkscape:version="1.2.1 (9c6d41e410, 2022-07-14)"
   sodipodi:docname="32_clicked.svg"
   xmlns:inkscape="http://www.inkscape.org/namespaces/inkscape"
   xmlns:sodipodi="http://sodipodi.sourceforge.net/DTD/sodipodi-0.dtd"
   xmlns="http://www.w3.org/2000/svg"
   xmlns:svg="http://www.w3.org/2000/svg">
  <sodipodi:namedview
     id="namedview35223"
     pagecolor="#ffffff"
     bordercolor="#000000"
     borderopacity="0.25"
     inkscape:showpageshadow="2"
     inkscape:pageopacity="0.0"
     inkscape:pagecheckerboard="0"
     inkscape:deskcolor="#d1d1d1"
     inkscape:document-units="mm"
     showgrid="false"
     inkscape:zoom="2.8284271"
     inkscape:cx="-91.393552"
     inkscape:cy="49.497475"
     inkscape:window-width="1920"
     inkscape:window-height="1009"
     inkscape:window-x="2552"
     inkscape:window-y="421"
     inkscape:window-maximized="1"
     inkscape:current-layer="g121137" />
  <defs
     id="defs35218" />
  <g
     inkscape:groupmode="layer"
     id="layer2"
     inkscape:label="Capa 2">
    <g
       id="g121137"
       transform="matrix(0.35277777,0,0,0.35277777,-593.01323,-208.86304)">
      <path
         fill-rule="nonzero"
         fill="#f06414"
         fill-opacity="1"
         d="m 1680.9922,649.55078 v -51.74609 c 0,-3.17578 2.5664,-5.75 5.7539,-5.75 h 103.4844 c 3.1875,0 5.7539,2.57422 5.7539,5.75 v 103.49609 c 0,3.17578 -2.5664,5.75 -5.7539,5.75 h -103.4844 c -3.1875,0 -5.7539,-2.57422 -5.7539,-5.75"
         id="path5908"
         style="fill:#f4a261;fill-opacity:1" />
      <g
         fill="#ffffff"
         fill-opacity="1"
         id="g5912">
        <g
           id="use5910"
           transform="translate(1711.8467,649.57373)">
          <path
             d="m 28.234375,-14.140625 h -9.9375 v 4.078125 h 4.109375 v 5.953125 c 0,0.59375 -2.0625,0.640625 -3.046875,0.6875 -0.296875,0 -0.640625,0.03125 -0.9375,0.03125 -5.265625,0 -9.515625,-2.859375 -9.515625,-11.34375 0,-4.84375 1.125,-11.703125 9.390625,-11.703125 2.65625,0 5.140625,0.640625 7.359375,2.4375 0.4375,0.3125 0.78125,0.6875 1.203125,1 l 0.984375,-5.625 c -3.078125,-1.359375 -6.078125,-2.09375 -9.46875,-2.09375 -4.15625,0 -8.484375,0.8125 -11.65625,3.765625 -3.296875,3.09375 -4.109375,7.890625 -4.109375,12.21875 0,4.96875 1.296875,10.234375 5.65625,13.109375 2.875,1.875 6.390625,2.53125 9.6875,2.53125 H 18.25 c 3.34375,0 6.34375,-0.734375 9.46875,-1.890625 0.34375,-0.125 0.515625,-0.265625 0.515625,-0.734375 z m 0,0"
             id="path121784" />
        </g>
      </g>
      <g
         fill="#ffffff"
         fill-opacity="1"
         id="g5916">
        <g
           id="use5914"
           transform="translate(1743.2722,649.57373)">
          <path
             d="m 19.921875,-5.5625 c -2.265625,1.453125 -4.28125,2.90625 -7.453125,2.90625 -3.5625,0 -5.703125,-2.09375 -5.703125,-8.09375 H 20.5625 c 0,-4.765625 -1.203125,-10.25 -8.859375,-10.25 -2.796875,0 -5.828125,0.609375 -7.84375,2.65625 -2.109375,2.1875 -2.578125,5.3125 -2.578125,8.234375 v 0.390625 c 0.046875,5.34375 2.75,10.140625 10.890625,10.140625 2.53125,0 4.875,-0.59375 7.1875,-1.625 C 19.671875,-1.375 20.21875,-1.5 20.21875,-1.890625 l -0.04687,-0.84375 z M 6.9375,-13.03125 c 0.21875,-2.484375 1.890625,-4.875 4.625,-4.875 2.96875,0 3.953125,2.65625 4.15625,4.875 z m 0,0"
             id="path121788" />
        </g>
      </g>
      <g
         fill="#ffffff"
         fill-opacity="1"
         id="g5920">
        <g
           id="use5918"
           transform="translate(1698.6471,671.41382)">
          <path
             d="M 10.6875,-5.6875 H 6.890625 v 0.921875 H 9.59375 V -1.375 c 0,0.546875 -2.265625,0.65625 -2.65625,0.65625 -2.765625,0 -4.46875,-2.71875 -4.46875,-5.265625 0,-2.40625 1.53125,-5.28125 4.46875,-5.28125 0.828125,0 1.625,0.15625 2.359375,0.5 0.359375,0.1875 0.6875,0.4375 1.03125,0.640625 l 0.203125,-1.203125 C 10.078125,-11.53125 9.625,-11.75 9.125,-11.890625 c -0.75,-0.21875 -1.53125,-0.28125 -2.328125,-0.28125 -1.25,0 -2.515625,0.53125 -3.453125,1.375 -1.390625,1.21875 -2.09375,3.015625 -2.09375,4.8125 0,2.90625 2,6.171875 5.796875,6.171875 1.03125,0 3.640625,-0.46875 3.640625,-1.046875 z m 0,0"
             id="path121756" />
        </g>
      </g>
      <g
         fill="#ffffff"
         fill-opacity="1"
         id="g5924">
        <g
           id="use5922"
           transform="translate(1710.4012,671.41382)">
          <path
             d="m 7.203125,-1.90625 c -0.84375,0.625 -1.625,1.125 -2.71875,1.125 -1.6875,0 -2.84375,-1.53125 -2.84375,-3.546875 h 5.6875 c 0,-1.8125 -0.75,-3.96875 -3.15625,-3.96875 -2.34375,0 -3.5625,2.265625 -3.5625,4.28125 V -3.9375 c 0.03125,2.03125 1.578125,4.03125 3.78125,4.03125 0.953125,0 1.890625,-0.328125 2.65625,-0.890625 0.09375,-0.078125 0.234375,-0.15625 0.234375,-0.3125 0,-0.0625 -0.015625,-0.109375 -0.03125,-0.171875 -0.015625,-0.203125 -0.03125,-0.421875 -0.046875,-0.625 z M 1.71875,-5 c 0.265625,-1.125 1.046875,-2.4375 2.390625,-2.4375 1.140625,0 1.9375,0.796875 2.203125,1.859375 C 6.359375,-5.390625 6.375,-5.1875 6.421875,-5 Z m 0,0"
             id="path121748" />
        </g>
      </g>
      <g
         fill="#ffffff"
         fill-opacity="1"
         id="g5928">
        <g
           id="use5926"
           transform="translate(1718.2013,671.41382)">
          <path
             d="M 2.15625,-5.96875 V -8.140625 H 1.109375 v 8.125 H 2.1875 V -3.9375 c 0,-1.203125 0.34375,-2.53125 2.09375,-3.15625 0.375,-0.125 0.75,-0.1875 1.125,-0.1875 V -8.25 c -1.09375,0 -2.125,0.53125 -2.765625,1.421875 -0.203125,0.25 -0.40625,0.546875 -0.484375,0.859375 z m 0,0"
             id="path121752" />
        </g>
      </g>
      <g
         fill="#ffffff"
         fill-opacity="1"
         id="g5932">
        <g
           id="use5930"
           transform="translate(1723.7242,671.41382)">
          <path
             d="m 2.171875,-6.421875 v -1.71875 h -1.0625 v 8.125 h 1.09375 V -4.34375 c 0,-1.171875 0.234375,-3.046875 1.953125,-3.046875 0.59375,0 1.265625,0.125 1.640625,0.625 C 6.109375,-6.375 6.125,-5.859375 6.125,-5.375 v 5.359375 H 7.234375 V -4.34375 c 0,-1.171875 0.234375,-3.046875 1.9375,-3.046875 0.609375,0 1.28125,0.125 1.65625,0.625 0.3125,0.390625 0.328125,0.90625 0.328125,1.390625 v 5.359375 h 1.109375 v -4.5625 c 0,-0.296875 0.01563,-0.625 0.01563,-0.9375 0,-0.765625 -0.109375,-1.578125 -0.65625,-2.125 C 11.15625,-8.109375 10.4375,-8.25 9.796875,-8.25 8.578125,-8.25 7.640625,-7.453125 7.1875,-6.40625 6.90625,-7.640625 6.109375,-8.25 4.75,-8.25 c -1.09375,0 -2.25,0.78125 -2.578125,1.828125 z m 0,0"
             id="path121772" />
        </g>
      </g>
      <g
         fill="#ffffff"
         fill-opacity="1"
         id="g5936">
        <g
           id="use5934"
           transform="translate(1737.0441,671.41382)">
          <path
             d="M 1.359375,-6.609375 C 1.65625,-6.75 1.890625,-6.953125 2.1875,-7.09375 2.796875,-7.359375 3.4375,-7.5 4.109375,-7.5 c 1.109375,0 1.734375,0.921875 1.734375,2.15625 v 0.765625 c -1.890625,0 -5.015625,0.40625 -5.015625,2.578125 0,1.109375 0.734375,2.09375 1.90625,2.09375 1.125,0 2.609375,-0.453125 3.109375,-1.3125 l 0.015625,1.203125 H 6.9375 V -4.5625 c 0,-0.234375 0.015625,-0.5 0.015625,-0.765625 0,-1.265625 -0.6875,-2.78125 -2.578125,-2.96875 H 4.1875 c -0.90625,0 -1.75,0.15625 -2.5625,0.546875 -0.125,0.046875 -0.34375,0.125 -0.34375,0.296875 0,0.265625 0.0625,0.5625 0.078125,0.84375 z M 5.84375,-4.0625 v 1.4375 c 0,1.09375 -0.828125,1.84375 -2.171875,1.84375 -0.75,0 -1.796875,-0.359375 -1.796875,-1.265625 0,-1.65625 2.65625,-2.015625 3.96875,-2.015625 z m 0,0"
             id="path121724" />
        </g>
      </g>
      <g
         fill="#ffffff"
         fill-opacity="1"
         id="g5940">
        <g
           id="use5938"
           transform="translate(1745.0897,671.41382)">
          <path
             d="m 2.171875,-6.421875 v -1.71875 h -1.0625 v 8.125 h 1.09375 V -4.34375 c 0,-1.15625 0.234375,-3.046875 1.953125,-3.046875 0.59375,0 1.25,0.125 1.625,0.625 0.3125,0.390625 0.328125,0.90625 0.328125,1.390625 v 5.359375 H 7.21875 V -5.40625 c 0,-1.640625 -0.578125,-2.84375 -2.453125,-2.84375 -1.15625,0 -2.21875,0.765625 -2.59375,1.828125 z m 0,0"
             id="path121744" />
        </g>
      </g>
      <g
         fill="#ffffff"
         fill-opacity="1"
         id="g5944">
        <g
           id="use5942"
           transform="translate(1753.3639,671.41382)">
          <path
             d="m 1.109375,-8.140625 v 8.125 H 2.1875 v -8.125 z m 0,-3.828125 V -10.875 H 2.1875 v -1.09375 z m 0,0"
             id="path121736" />
        </g>
      </g>
      <g
         fill="#ffffff"
         fill-opacity="1"
         id="g5948">
        <g
           id="use5946"
           transform="translate(1756.6096,671.41382)">
          <path
             d="M 1.109375,-8.140625 V -2.3125 c 0,0.5 0.015625,1 0.21875,1.46875 0.328125,0.671875 1.015625,0.9375 1.71875,0.9375 1.15625,0 2.53125,-0.53125 3.0625,-1.609375 l 0.015625,1.5 h 1.09375 v -8.125 H 6.109375 v 4.125 C 6.109375,-3.75 6.125,-3.5 6.125,-3.234375 c 0,0.484375 -0.046875,0.96875 -0.28125,1.390625 -0.421875,0.703125 -1.15625,1.125 -2,1.125 -0.859375,0 -1.65625,0 -1.65625,-1.625 0,-0.25 0.015625,-0.515625 0.015625,-0.765625 v -5.03125 z m 0,0"
             id="path121720" />
        </g>
      </g>
      <g
         fill="#ffffff"
         fill-opacity="1"
         id="g5952">
        <g
           id="use5950"
           transform="translate(1764.8838,671.41382)">
          <path
             d="m 2.171875,-6.421875 v -1.71875 h -1.0625 v 8.125 h 1.09375 V -4.34375 c 0,-1.171875 0.234375,-3.046875 1.953125,-3.046875 0.59375,0 1.265625,0.125 1.640625,0.625 C 6.109375,-6.375 6.125,-5.859375 6.125,-5.375 v 5.359375 H 7.234375 V -4.34375 c 0,-1.171875 0.234375,-3.046875 1.9375,-3.046875 0.609375,0 1.28125,0.125 1.65625,0.625 0.3125,0.390625 0.328125,0.90625 0.328125,1.390625 v 5.359375 h 1.109375 v -4.5625 c 0,-0.296875 0.01563,-0.625 0.01563,-0.9375 0,-0.765625 -0.109375,-1.578125 -0.65625,-2.125 C 11.15625,-8.109375 10.4375,-8.25 9.796875,-8.25 8.578125,-8.25 7.640625,-7.453125 7.1875,-6.40625 6.90625,-7.640625 6.109375,-8.25 4.75,-8.25 c -1.09375,0 -2.25,0.78125 -2.578125,1.828125 z m 0,0"
             id="path121776" />
        </g>
      </g>
      <g
         fill="#ffffff"
         fill-opacity="1"
         id="g5956">
        <g
           id="use5954"
           transform="translate(1714.2469,693.3739)">
          <path
             d="m 0.625,-11.3125 v 0.96875 h 6.75 C 6.5625,-9.546875 5.8125,-8.75 5.1875,-7.796875 3.640625,-5.46875 2.796875,-2.703125 2.796875,0.09375 H 3.9375 c 0,-3.78125 1.4375,-7.25 3.859375,-10.125 C 7.953125,-10.1875 8.125,-10.3125 8.125,-10.5625 v -0.75 z m 0,0"
             id="path121760" />
        </g>
      </g>
      <g
         fill="#ffffff"
         fill-opacity="1"
         id="g5960">
        <g
           id="use5958"
           transform="translate(1723.0011,693.3739)">
          <path
             d="m 1.25,-7.921875 c 0.3125,-1.25 0.921875,-2.6875 2.640625,-2.6875 1.46875,0 2.96875,0.890625 2.96875,2.578125 0,1.9375 -1.8125,3.265625 -3.125,4.359375 C 2.875,-2.9375 2.03125,-2.140625 1.21875,-1.359375 L 0.9375,-1.078125 C 0.828125,-0.984375 0.75,-0.9375 0.75,-0.75 v 0.734375 h 7.234375 v -0.96875 H 1.75 c 0.4375,-0.40625 0.90625,-0.8125 1.34375,-1.203125 0.609375,-0.53125 1.1875,-1.078125 1.8125,-1.578125 1.359375,-1.109375 3.078125,-2.328125 3.078125,-4.3125 0,-2 -1.671875,-3.375 -3.65625,-3.4375 h -0.125 c -1.46875,0 -2.796875,0.609375 -3.453125,2.40625 C 0.703125,-9.015625 0.640625,-8.875 0.640625,-8.75 v 0.03125 C 0.65625,-8.609375 0.75,-8.515625 0.8125,-8.453125 c 0.140625,0.171875 0.265625,0.375 0.4375,0.53125 z m 0,0"
             id="path121728" />
        </g>
      </g>
      <g
         fill="#ffffff"
         fill-opacity="1"
         id="g5964">
        <g
           id="use5962"
           transform="translate(1731.7554,693.3739)">
          <path
             d="m 1.703125,-1.359375 v 1.34375 h 1.34375 v -1.34375 z m 0,0"
             id="path121716" />
        </g>
      </g>
      <g
         fill="#ffffff"
         fill-opacity="1"
         id="g5968">
        <g
           id="use5966"
           transform="translate(1736.4353,693.3739)">
          <path
             d="m 1.953125,-5.6875 h -0.03125 c 0,-1.984375 0.5625,-4.96875 3.546875,-4.96875 0.71875,0 1.265625,0.1875 1.90625,0.359375 V -11 c 0,-0.46875 -1.625,-0.515625 -1.9375,-0.515625 -2.578125,0 -4.234375,2.421875 -4.578125,4.75 -0.046875,0.390625 -0.0625,0.796875 -0.0625,1.1875 0,2.046875 0.328125,4.5625 2.390625,5.53125 C 3.5625,0.125 4,0.1875 4.421875,0.1875 c 2.09375,0 3.53125,-1.96875 3.53125,-3.96875 0,-1.359375 -0.5625,-3.15625 -1.890625,-3.75 -0.34375,-0.140625 -0.6875,-0.171875 -1.046875,-0.171875 -1.25,0.03125 -2.6875,0.890625 -3.0625,2.015625 z M 2,-4.03125 V -4.125 c 0,-1.34375 0.984375,-2.734375 2.515625,-2.734375 1.125,0 2.078125,0.734375 2.28125,2.234375 0.015625,0.28125 0.015625,0.59375 0.015625,0.890625 0,1.25 -0.359375,3.03125 -2.328125,3.03125 -1.578125,0 -2.3125,-1.3125 -2.484375,-2.890625 0,-0.078125 0.015625,-0.140625 0.015625,-0.21875 0,-0.0625 0,-0.140625 -0.015625,-0.21875 z m 0,0"
             id="path121780" />
        </g>
      </g>
      <g
         fill="#ffffff"
         fill-opacity="1"
         id="g5972">
        <g
           id="use5970"
           transform="translate(1745.1895,693.3739)">
          <path
             d="m 1.390625,-8.703125 c 0.75,-1.09375 1.46875,-1.953125 3.109375,-1.953125 0.96875,0 1.984375,0.53125 1.984375,1.640625 0,1.984375 -2.03125,2.390625 -3.609375,2.46875 V -5.6875 h 1.1875 c 0.8125,0 1.625,0.109375 2.203125,0.75 0.453125,0.453125 0.65625,1.09375 0.65625,1.734375 0,1.40625 -1.015625,2.5 -2.53125,2.5 -1.453125,0 -2.765625,-0.78125 -3.59375,-1.9375 -0.109375,0.234375 -0.15625,0.6875 -0.15625,0.828125 V -1.75 C 0.90625,-1.078125 2.15625,-0.28125 3.046875,-0.015625 3.5,0.109375 3.9375,0.171875 4.40625,0.171875 6.09375,0.171875 8.125,-1 8.125,-3.140625 8.125,-4.25 7.46875,-5.1875 6.484375,-5.734375 c -0.28125,-0.171875 -0.625,-0.34375 -0.96875,-0.375 C 6.59375,-6.625 7.625,-7.578125 7.625,-9 c 0,-1.65625 -1.75,-2.515625 -3.171875,-2.515625 -1.4375,0 -2.65625,0.71875 -3.484375,1.875 -0.03125,0.046875 -0.078125,0.09375 -0.078125,0.171875 0,0.15625 0.328125,0.53125 0.5,0.765625 z m 0,0"
             id="path121764" />
        </g>
      </g>
      <g
         fill="#ffffff"
         fill-opacity="1"
         id="g5976">
        <g
           id="use5974"
           transform="translate(1753.9436,693.3739)">
          <path
             d="m 4.125,-11.515625 c -3.21875,0.3125 -3.375,3.984375 -3.375,5.90625 0,2.328125 0.46875,5.796875 3.625,5.796875 h 0.21875 c 2.359375,-0.296875 3.390625,-2.265625 3.390625,-5.90625 0,-1.59375 -0.125,-3.515625 -1.203125,-4.734375 -0.59375,-0.671875 -1.5,-1.078125 -2.390625,-1.078125 -0.078125,0 -0.171875,0.01563 -0.265625,0.01563 z M 1.859375,-4.875 C 1.84375,-5.015625 1.84375,-5.171875 1.84375,-5.296875 V -5.625 c 0,-2.15625 0.0625,-5.03125 2.546875,-5.03125 2.484375,0 2.5,3.078125 2.5,4.734375 v 0.8125 c 0,1.453125 -0.09375,3.21875 -1.28125,4.046875 C 5.25,-0.8125 4.828125,-0.671875 4.390625,-0.671875 3.6875,-0.671875 2.984375,-1.03125 2.5625,-1.65625 2.078125,-2.375 1.96875,-3.34375 1.890625,-4.203125 1.875,-4.421875 1.890625,-4.65625 1.859375,-4.875 Z m 0,0"
             id="path121740" />
        </g>
      </g>
      <g
         fill="#ffffff"
         fill-opacity="1"
         id="g5980">
        <g
           id="use5978"
           transform="translate(1689.7318,613.28406)">
          <path
             d="m 1.390625,-8.703125 c 0.75,-1.09375 1.46875,-1.953125 3.109375,-1.953125 0.96875,0 1.984375,0.53125 1.984375,1.640625 0,1.984375 -2.03125,2.390625 -3.609375,2.46875 V -5.6875 h 1.1875 c 0.8125,0 1.625,0.109375 2.203125,0.75 0.453125,0.453125 0.65625,1.09375 0.65625,1.734375 0,1.40625 -1.015625,2.5 -2.53125,2.5 -1.453125,0 -2.765625,-0.78125 -3.59375,-1.9375 -0.109375,0.234375 -0.15625,0.6875 -0.15625,0.828125 V -1.75 C 0.90625,-1.078125 2.15625,-0.28125 3.046875,-0.015625 3.5,0.109375 3.9375,0.171875 4.40625,0.171875 6.09375,0.171875 8.125,-1 8.125,-3.140625 8.125,-4.25 7.46875,-5.1875 6.484375,-5.734375 c -0.28125,-0.171875 -0.625,-0.34375 -0.96875,-0.375 C 6.59375,-6.625 7.625,-7.578125 7.625,-9 c 0,-1.65625 -1.75,-2.515625 -3.171875,-2.515625 -1.4375,0 -2.65625,0.71875 -3.484375,1.875 -0.03125,0.046875 -0.078125,0.09375 -0.078125,0.171875 0,0.15625 0.328125,0.53125 0.5,0.765625 z m 0,0"
             id="path121768" />
        </g>
      </g>
      <g
         fill="#ffffff"
         fill-opacity="1"
         id="g5984">
        <g
           id="use5982"
           transform="translate(1698.486,613.28406)">
          <path
             d="m 1.25,-7.921875 c 0.3125,-1.25 0.921875,-2.6875 2.640625,-2.6875 1.46875,0 2.96875,0.890625 2.96875,2.578125 0,1.9375 -1.8125,3.265625 -3.125,4.359375 C 2.875,-2.9375 2.03125,-2.140625 1.21875,-1.359375 L 0.9375,-1.078125 C 0.828125,-0.984375 0.75,-0.9375 0.75,-0.75 v 0.734375 h 7.234375 v -0.96875 H 1.75 c 0.4375,-0.40625 0.90625,-0.8125 1.34375,-1.203125 0.609375,-0.53125 1.1875,-1.078125 1.8125,-1.578125 1.359375,-1.109375 3.078125,-2.328125 3.078125,-4.3125 0,-2 -1.671875,-3.375 -3.65625,-3.4375 h -0.125 c -1.46875,0 -2.796875,0.609375 -3.453125,2.40625 C 0.703125,-9.015625 0.640625,-8.875 0.640625,-8.75 v 0.03125 C 0.65625,-8.609375 0.75,-8.515625 0.8125,-8.453125 c 0.140625,0.171875 0.265625,0.375 0.4375,0.53125 z m 0,0"
             id="path121732" />
        </g>
      </g>
    </g>
  </g>
  <g
     inkscape:label="Capa 1"
     inkscape:groupmode="layer"
     id="layer1"
     transform="translate(-25.949774,-102.1557)">
    <g
       id="g35216"
       transform="matrix(0.35277777,0,0,0.35277777,-11.847197,-22.263639)" />
    <rect
       style="fill:none;stroke:#008080;stroke-width:2.99976;stroke-dasharray:none"
       id="rect22454"
       width="37.605034"
       height="37.569675"
       x="27.449654"
       y="103.65559" />
  </g>
</svg>
