<?xml version="1.0" encoding="UTF-8" standalone="no"?>
<!-- Created with Inkscape (http://www.inkscape.org/) -->

<svg
   width="40.57357mm"
   height="40.569443mm"
   viewBox="0 0 40.573571 40.569443"
   version="1.1"
   id="svg35221"
   inkscape:version="1.2.1 (9c6d41e410, 2022-07-14)"
   sodipodi:docname="34_clicked.svg"
   xmlns:inkscape="http://www.inkscape.org/namespaces/inkscape"
   xmlns:sodipodi="http://sodipodi.sourceforge.net/DTD/sodipodi-0.dtd"
   xmlns="http://www.w3.org/2000/svg"
   xmlns:svg="http://www.w3.org/2000/svg">
  <sodipodi:namedview
     id="namedview35223"
     pagecolor="#ffffff"
     bordercolor="#000000"
     borderopacity="0.25"
     inkscape:showpageshadow="2"
     inkscape:pageopacity="0.0"
     inkscape:pagecheckerboard="0"
     inkscape:deskcolor="#d1d1d1"
     inkscape:document-units="mm"
     showgrid="false"
     inkscape:zoom="2.8284271"
     inkscape:cx="-91.393552"
     inkscape:cy="49.497475"
     inkscape:window-width="1920"
     inkscape:window-height="1009"
     inkscape:window-x="2552"
     inkscape:window-y="421"
     inkscape:window-maximized="1"
     inkscape:current-layer="layer2" />
  <defs
     id="defs35218" />
  <g
     inkscape:groupmode="layer"
     id="layer2"
     inkscape:label="Capa 2">
    <g
       id="g123457"
       transform="matrix(0.35277777,0,0,0.35277777,-679.01175,-208.86304)">
      <path
         fill-rule="nonzero"
         fill="#ff3c3c"
         fill-opacity="1"
         d="m 1924.7578,649.55078 v -51.74609 c 0,-3.17578 2.586,-5.75 5.7539,-5.75 h 103.5039 c 3.168,0 5.7539,2.57422 5.7539,5.75 v 103.49609 c 0,3.17578 -2.5859,5.75 -5.7539,5.75 h -103.5039 c -3.1679,0 -5.7539,-2.57422 -5.7539,-5.75"
         id="path6580"
         style="fill:#264653;fill-opacity:1" />
      <g
         fill="#ffffff"
         fill-opacity="1"
         id="g6584">
        <g
           id="use6582"
           transform="translate(1958.2662,649.57373)">
          <path
             d="M 3.078125,-7.671875 C 2.78125,-5.953125 2.40625,-4.28125 2.1875,-2.578125 2.140625,-2.484375 2.140625,-2.40625 2.140625,-2.3125 c 0,0.296875 0.171875,0.390625 0.390625,0.515625 l 0.765625,0.390625 c 3.09375,1.484375 6.421875,2.3125 9.859375,2.3125 4.5,0 9.203125,-1.375 10.234375,-7.5 0.09375,-0.609375 0.125,-1.203125 0.125,-1.796875 0,-5.359375 -3.765625,-8.796875 -9.03125,-9.90625 -2.28125,-0.46875 -6.515625,-0.890625 -6.515625,-4.375 0,-2.859375 2.75,-3.640625 5.234375,-3.640625 1.875,0 3.765625,0.390625 5.34375,1.328125 0.953125,0.5625 1.671875,1.328125 2.53125,1.984375 l 0.984375,-5.625 c -2.953125,-1.28125 -5.65625,-2.09375 -8.859375,-2.09375 -4.59375,0 -10.59375,1.25 -10.59375,8.734375 0,4.078125 2.703125,7.15625 6.34375,8.578125 2.828125,1.0625 6.5625,0.640625 8.484375,3.25 0.46875,0.734375 0.734375,1.421875 0.734375,2.3125 0,2.921875 -2.3125,4.078125 -5.109375,4.078125 -3.25,0 -6.546875,-1.125 -9.078125,-3.171875 C 3.6875,-7.203125 3.390625,-7.453125 3.078125,-7.671875 Z m 0,0"
             id="path124092" />
        </g>
      </g>
      <g
         fill="#ffffff"
         fill-opacity="1"
         id="g6588">
        <g
           id="use6586"
           transform="translate(1984.4214,649.57373)">
          <path
             d="m 19.921875,-5.5625 c -2.265625,1.453125 -4.28125,2.90625 -7.453125,2.90625 -3.5625,0 -5.703125,-2.09375 -5.703125,-8.09375 H 20.5625 c 0,-4.765625 -1.203125,-10.25 -8.859375,-10.25 -2.796875,0 -5.828125,0.609375 -7.84375,2.65625 -2.109375,2.1875 -2.578125,5.3125 -2.578125,8.234375 v 0.390625 c 0.046875,5.34375 2.75,10.140625 10.890625,10.140625 2.53125,0 4.875,-0.59375 7.1875,-1.625 C 19.671875,-1.375 20.21875,-1.5 20.21875,-1.890625 l -0.04687,-0.84375 z M 6.9375,-13.03125 c 0.21875,-2.484375 1.890625,-4.875 4.625,-4.875 2.96875,0 3.953125,2.65625 4.15625,4.875 z m 0,0"
             id="path124096" />
        </g>
      </g>
      <g
         fill="#ffffff"
         fill-opacity="1"
         id="g6592">
        <g
           id="use6590"
           transform="translate(1951.3062,671.41382)">
          <path
             d="m 0.875,-2.203125 c -0.046875,0.359375 -0.1875,0.78125 -0.1875,1.09375 0,0.296875 1.265625,0.78125 1.96875,0.984375 0.671875,0.1875 1.359375,0.3125 2.0625,0.3125 1.484375,0 3.25,-0.59375 3.9375,-2.265625 0.15625,-0.359375 0.25,-0.765625 0.25,-1.15625 C 8.90625,-4.578125 8,-5.75 6.8125,-6.296875 6.203125,-6.578125 5.515625,-6.703125 4.84375,-6.875 3.765625,-7.140625 1.953125,-7.4375 1.953125,-9.09375 c 0,-1.46875 1.78125,-2.140625 2.9375,-2.140625 0.6875,0 1.390625,0.109375 2.015625,0.40625 0.40625,0.1875 0.75,0.46875 1.140625,0.703125 0.03125,-0.359375 0.1875,-0.71875 0.1875,-1.078125 0,-0.328125 -1.265625,-0.71875 -1.9375,-0.84375 C 5.875,-12.140625 5.4375,-12.171875 5,-12.171875 c -1.625,0 -3.53125,0.671875 -4.046875,2.546875 -0.0625,0.203125 -0.09375,0.40625 -0.09375,0.640625 0,1.40625 1.046875,2.4375 2.25,2.90625 C 4.84375,-5.421875 7.8125,-5.640625 7.8125,-3 c -0.140625,1.453125 -1.640625,2.21875 -2.953125,2.21875 -0.984375,0 -2,-0.25 -2.875,-0.703125 C 1.578125,-1.6875 1.234375,-1.96875 0.875,-2.203125 Z m 0,0"
             id="path124032" />
        </g>
      </g>
      <g
         fill="#ffffff"
         fill-opacity="1"
         id="g6596">
        <g
           id="use6594"
           transform="translate(1961.0319,671.41382)">
          <path
             d="m 7.203125,-1.90625 c -0.84375,0.625 -1.625,1.125 -2.71875,1.125 -1.6875,0 -2.84375,-1.53125 -2.84375,-3.546875 h 5.6875 c 0,-1.8125 -0.75,-3.96875 -3.15625,-3.96875 -2.34375,0 -3.5625,2.265625 -3.5625,4.28125 V -3.9375 c 0.03125,2.03125 1.578125,4.03125 3.78125,4.03125 0.953125,0 1.890625,-0.328125 2.65625,-0.890625 0.09375,-0.078125 0.234375,-0.15625 0.234375,-0.3125 0,-0.0625 -0.015625,-0.109375 -0.03125,-0.171875 -0.015625,-0.203125 -0.03125,-0.421875 -0.046875,-0.625 z M 1.71875,-5 c 0.265625,-1.125 1.046875,-2.4375 2.390625,-2.4375 1.140625,0 1.9375,0.796875 2.203125,1.859375 C 6.359375,-5.390625 6.375,-5.1875 6.421875,-5 Z m 0,0"
             id="path124052" />
        </g>
      </g>
      <g
         fill="#ffffff"
         fill-opacity="1"
         id="g6600">
        <g
           id="use6598"
           transform="translate(1968.832,671.41382)">
          <path
             d="M 1.109375,-11.96875 V -0.015625 H 2.1875 V -11.96875 Z m 0,0"
             id="path124084" />
        </g>
      </g>
      <g
         fill="#ffffff"
         fill-opacity="1"
         id="g6604">
        <g
           id="use6602"
           transform="translate(1972.0776,671.41382)">
          <path
             d="m 7.203125,-1.90625 c -0.84375,0.625 -1.625,1.125 -2.71875,1.125 -1.6875,0 -2.84375,-1.53125 -2.84375,-3.546875 h 5.6875 c 0,-1.8125 -0.75,-3.96875 -3.15625,-3.96875 -2.34375,0 -3.5625,2.265625 -3.5625,4.28125 V -3.9375 c 0.03125,2.03125 1.578125,4.03125 3.78125,4.03125 0.953125,0 1.890625,-0.328125 2.65625,-0.890625 0.09375,-0.078125 0.234375,-0.15625 0.234375,-0.3125 0,-0.0625 -0.015625,-0.109375 -0.03125,-0.171875 -0.015625,-0.203125 -0.03125,-0.421875 -0.046875,-0.625 z M 1.71875,-5 c 0.265625,-1.125 1.046875,-2.4375 2.390625,-2.4375 1.140625,0 1.9375,0.796875 2.203125,1.859375 C 6.359375,-5.390625 6.375,-5.1875 6.421875,-5 Z m 0,0"
             id="path124056" />
        </g>
      </g>
      <g
         fill="#ffffff"
         fill-opacity="1"
         id="g6608">
        <g
           id="use6606"
           transform="translate(1979.8776,671.41382)">
          <path
             d="m 2.171875,-6.421875 v -1.71875 h -1.0625 v 8.125 h 1.09375 V -4.34375 c 0,-1.15625 0.234375,-3.046875 1.953125,-3.046875 0.59375,0 1.25,0.125 1.625,0.625 0.3125,0.390625 0.328125,0.90625 0.328125,1.390625 v 5.359375 H 7.21875 V -5.40625 c 0,-1.640625 -0.578125,-2.84375 -2.453125,-2.84375 -1.15625,0 -2.21875,0.765625 -2.59375,1.828125 z m 0,0"
             id="path124044" />
        </g>
      </g>
      <g
         fill="#ffffff"
         fill-opacity="1"
         id="g6612">
        <g
           id="use6610"
           transform="translate(1988.1519,671.41382)">
          <path
             d="m 1.109375,-8.140625 v 8.125 H 2.1875 v -8.125 z m 0,-3.828125 V -10.875 H 2.1875 v -1.09375 z m 0,0"
             id="path124040" />
        </g>
      </g>
      <g
         fill="#ffffff"
         fill-opacity="1"
         id="g6616">
        <g
           id="use6614"
           transform="translate(1991.3977,671.41382)">
          <path
             d="M 1.109375,-8.140625 V -2.3125 c 0,0.5 0.015625,1 0.21875,1.46875 0.328125,0.671875 1.015625,0.9375 1.71875,0.9375 1.15625,0 2.53125,-0.53125 3.0625,-1.609375 l 0.015625,1.5 h 1.09375 v -8.125 H 6.109375 v 4.125 C 6.109375,-3.75 6.125,-3.5 6.125,-3.234375 c 0,0.484375 -0.046875,0.96875 -0.28125,1.390625 -0.421875,0.703125 -1.15625,1.125 -2,1.125 -0.859375,0 -1.65625,0 -1.65625,-1.625 0,-0.25 0.015625,-0.515625 0.015625,-0.765625 v -5.03125 z m 0,0"
             id="path124036" />
        </g>
      </g>
      <g
         fill="#ffffff"
         fill-opacity="1"
         id="g6620">
        <g
           id="use6618"
           transform="translate(1999.6718,671.41382)">
          <path
             d="m 2.171875,-6.421875 v -1.71875 h -1.0625 v 8.125 h 1.09375 V -4.34375 c 0,-1.171875 0.234375,-3.046875 1.953125,-3.046875 0.59375,0 1.265625,0.125 1.640625,0.625 C 6.109375,-6.375 6.125,-5.859375 6.125,-5.375 v 5.359375 H 7.234375 V -4.34375 c 0,-1.171875 0.234375,-3.046875 1.9375,-3.046875 0.609375,0 1.28125,0.125 1.65625,0.625 0.3125,0.390625 0.328125,0.90625 0.328125,1.390625 v 5.359375 h 1.109375 v -4.5625 c 0,-0.296875 0.01563,-0.625 0.01563,-0.9375 0,-0.765625 -0.109375,-1.578125 -0.65625,-2.125 C 11.15625,-8.109375 10.4375,-8.25 9.796875,-8.25 8.578125,-8.25 7.640625,-7.453125 7.1875,-6.40625 6.90625,-7.640625 6.109375,-8.25 4.75,-8.25 c -1.09375,0 -2.25,0.78125 -2.578125,1.828125 z m 0,0"
             id="path124080" />
        </g>
      </g>
      <g
         fill="#ffffff"
         fill-opacity="1"
         id="g6624">
        <g
           id="use6622"
           transform="translate(1958.0256,693.3739)">
          <path
             d="m 0.625,-11.3125 v 0.96875 h 6.75 C 6.5625,-9.546875 5.8125,-8.75 5.1875,-7.796875 3.640625,-5.46875 2.796875,-2.703125 2.796875,0.09375 H 3.9375 c 0,-3.78125 1.4375,-7.25 3.859375,-10.125 C 7.953125,-10.1875 8.125,-10.3125 8.125,-10.5625 v -0.75 z m 0,0"
             id="path124064" />
        </g>
      </g>
      <g
         fill="#ffffff"
         fill-opacity="1"
         id="g6628">
        <g
           id="use6626"
           transform="translate(1966.7798,693.3739)">
          <path
             d="m 3.21875,-6.125 v 0.015625 C 1.90625,-5.71875 0.625,-4.78125 0.625,-3.1875 c 0,2.078125 1.953125,3.375 3.828125,3.375 H 4.53125 C 6.3125,0.15625 8.125,-1.25 8.125,-3.171875 c 0,-1.5 -1.21875,-2.5625 -2.59375,-2.9375 0.921875,-0.34375 2.359375,-0.9375 2.359375,-2.5 0,-1.75 -1.796875,-2.90625 -3.515625,-2.90625 -1.609375,0 -3.515625,1.046875 -3.515625,2.890625 v 0.140625 C 0.96875,-7.28125 2.15625,-6.28125 3.21875,-6.125 Z M 1.75,-2.96875 c 0,-0.0625 -0.015625,-0.140625 -0.015625,-0.21875 0,-1.46875 1.109375,-2.5 2.640625,-2.5 1.421875,0 2.609375,0.90625 2.609375,2.484375 0,1.578125 -1.125,2.5 -2.59375,2.5 C 2.96875,-0.703125 1.921875,-1.5 1.75,-2.96875 Z m 0.140625,-5.453125 v -0.15625 c 0,-1.5625 1.296875,-2.078125 2.453125,-2.078125 1.109375,0 2.359375,0.40625 2.515625,1.875 V -8.625 c 0,1.53125 -1.296875,2.078125 -2.46875,2.078125 -1.1875,0 -2.328125,-0.546875 -2.5,-1.875 z m 0,0"
             id="path124088" />
        </g>
      </g>
      <g
         fill="#ffffff"
         fill-opacity="1"
         id="g6632">
        <g
           id="use6630"
           transform="translate(1975.5341,693.3739)">
          <path
             d="m 1.703125,-1.359375 v 1.34375 h 1.34375 v -1.34375 z m 0,0"
             id="path124028" />
        </g>
      </g>
      <g
         fill="#ffffff"
         fill-opacity="1"
         id="g6636">
        <g
           id="use6634"
           transform="translate(1980.214,693.3739)">
          <path
             d="M 6.796875,-5.671875 H 6.8125 c 0,1.859375 -0.40625,4.96875 -3.296875,4.96875 C 2.75,-0.703125 2.1875,-1 1.625,-1.390625 l -0.453125,0.78125 C 1.890625,-0.0625 2.703125,0.1875 3.59375,0.1875 c 2.9375,0 4.359375,-3.359375 4.359375,-5.796875 0,-2.015625 -0.234375,-4.8125 -2.421875,-5.703125 -0.359375,-0.140625 -0.765625,-0.203125 -1.15625,-0.203125 -2.1875,0 -3.578125,2 -3.578125,3.96875 0,1.796875 0.859375,3.90625 2.921875,3.90625 1.234375,0 2.703125,-0.875 3.078125,-2.03125 z M 6.75,-7.578125 c -0.015625,0.046875 -0.015625,0.109375 -0.015625,0.15625 0,0.125 0.015625,0.21875 0.015625,0.34375 v 0.09375 C 6.640625,-5.625 5.640625,-4.5 4.171875,-4.5 3.4375,-4.5 2.84375,-4.78125 2.40625,-5.390625 1.984375,-5.984375 1.921875,-6.71875 1.921875,-7.4375 c 0,-1.328125 0.265625,-3.21875 2.484375,-3.21875 1.640625,0 2.34375,1.703125 2.34375,2.953125 z m 0,0"
             id="path124076" />
        </g>
      </g>
      <g
         fill="#ffffff"
         fill-opacity="1"
         id="g6640">
        <g
           id="use6638"
           transform="translate(1988.9681,693.3739)">
          <path
             d="m 0.625,-11.3125 v 0.96875 h 6.75 C 6.5625,-9.546875 5.8125,-8.75 5.1875,-7.796875 3.640625,-5.46875 2.796875,-2.703125 2.796875,0.09375 H 3.9375 c 0,-3.78125 1.4375,-7.25 3.859375,-10.125 C 7.953125,-10.1875 8.125,-10.3125 8.125,-10.5625 v -0.75 z m 0,0"
             id="path124068" />
        </g>
      </g>
      <g
         fill="#ffffff"
         fill-opacity="1"
         id="g6644">
        <g
           id="use6642"
           transform="translate(1997.7223,693.3739)">
          <path
             d="m 1.671875,-10.390625 v 0.875 c 0.828125,0 1.5625,-0.15625 2.359375,-0.5 V -0.875 h -2.25 v 0.859375 h 5.625 V -0.875 H 5.140625 v -10.640625 h -0.125 c -0.234375,0 -0.359375,0.21875 -0.53125,0.34375 -0.8125,0.578125 -1.828125,0.78125 -2.8125,0.78125 z m 0,0"
             id="path124048" />
        </g>
      </g>
      <g
         fill="#ffffff"
         fill-opacity="1"
         id="g6648">
        <g
           id="use6646"
           transform="translate(1933.5111,613.28406)">
          <path
             d="m 1.390625,-8.703125 c 0.75,-1.09375 1.46875,-1.953125 3.109375,-1.953125 0.96875,0 1.984375,0.53125 1.984375,1.640625 0,1.984375 -2.03125,2.390625 -3.609375,2.46875 V -5.6875 h 1.1875 c 0.8125,0 1.625,0.109375 2.203125,0.75 0.453125,0.453125 0.65625,1.09375 0.65625,1.734375 0,1.40625 -1.015625,2.5 -2.53125,2.5 -1.453125,0 -2.765625,-0.78125 -3.59375,-1.9375 -0.109375,0.234375 -0.15625,0.6875 -0.15625,0.828125 V -1.75 C 0.90625,-1.078125 2.15625,-0.28125 3.046875,-0.015625 3.5,0.109375 3.9375,0.171875 4.40625,0.171875 6.09375,0.171875 8.125,-1 8.125,-3.140625 8.125,-4.25 7.46875,-5.1875 6.484375,-5.734375 c -0.28125,-0.171875 -0.625,-0.34375 -0.96875,-0.375 C 6.59375,-6.625 7.625,-7.578125 7.625,-9 c 0,-1.65625 -1.75,-2.515625 -3.171875,-2.515625 -1.4375,0 -2.65625,0.71875 -3.484375,1.875 -0.03125,0.046875 -0.078125,0.09375 -0.078125,0.171875 0,0.15625 0.328125,0.53125 0.5,0.765625 z m 0,0"
             id="path124072" />
        </g>
      </g>
      <g
         fill="#ffffff"
         fill-opacity="1"
         id="g6652">
        <g
           id="use6650"
           transform="translate(1942.2653,613.28406)">
          <path
             d="M 0.359375,-3.140625 H 5.34375 v 3.125 h 1.078125 v -3.125 h 1.96875 v -0.90625 h -1.96875 v -7.375 h -1.125 c -0.328125,0 -0.421875,0.40625 -0.59375,0.640625 -1.015625,1.625 -2.078125,3.203125 -3.125,4.828125 L 0.75,-4.671875 C 0.5625,-4.390625 0.359375,-4.15625 0.359375,-3.875 Z m 1.125,-0.90625 c 1.234375,-1.84375 2.4375,-3.71875 3.53125,-5.640625 0.125,-0.25 0.3125,-0.515625 0.359375,-0.796875 l 0.015625,6.4375 z m 0,0"
             id="path124060" />
        </g>
      </g>
    </g>
  </g>
  <g
     inkscape:label="Capa 1"
     inkscape:groupmode="layer"
     id="layer1"
     transform="translate(-25.949774,-102.1557)">
    <g
       id="g35216"
       transform="matrix(0.35277777,0,0,0.35277777,-11.847197,-22.263639)" />
    <rect
       style="fill:none;stroke:#008080;stroke-width:2.99976;stroke-dasharray:none"
       id="rect22454"
       width="37.605034"
       height="37.569675"
       x="27.449654"
       y="103.65559" />
  </g>
</svg>
