<?xml version="1.0" encoding="UTF-8" standalone="no"?>
<!-- Created with Inkscape (http://www.inkscape.org/) -->

<svg
   width="40.57357mm"
   height="40.569443mm"
   viewBox="0 0 40.573571 40.569443"
   version="1.1"
   id="svg35221"
   inkscape:version="1.2.1 (9c6d41e410, 2022-07-14)"
   sodipodi:docname="36_clicked.svg"
   xmlns:inkscape="http://www.inkscape.org/namespaces/inkscape"
   xmlns:sodipodi="http://sodipodi.sourceforge.net/DTD/sodipodi-0.dtd"
   xmlns="http://www.w3.org/2000/svg"
   xmlns:svg="http://www.w3.org/2000/svg">
  <sodipodi:namedview
     id="namedview35223"
     pagecolor="#ffffff"
     bordercolor="#000000"
     borderopacity="0.25"
     inkscape:showpageshadow="2"
     inkscape:pageopacity="0.0"
     inkscape:pagecheckerboard="0"
     inkscape:deskcolor="#d1d1d1"
     inkscape:document-units="mm"
     showgrid="false"
     inkscape:zoom="2.8284271"
     inkscape:cx="-91.393552"
     inkscape:cy="49.497475"
     inkscape:window-width="1920"
     inkscape:window-height="1009"
     inkscape:window-x="2552"
     inkscape:window-y="421"
     inkscape:window-maximized="1"
     inkscape:current-layer="g125759" />
  <defs
     id="defs35218" />
  <g
     inkscape:groupmode="layer"
     id="layer2"
     inkscape:label="Capa 2">
    <g
       id="g125759"
       transform="matrix(0.35277777,0,0,0.35277777,-765.011,-208.86304)">
      <path
         fill-rule="nonzero"
         fill="#c81432"
         fill-opacity="1"
         d="m 2168.543,649.55078 v -51.74609 c 0,-3.17578 2.5859,-5.75 5.7539,-5.75 h 103.5039 c 3.168,0 5.7383,2.57422 5.7383,5.75 v 103.49609 c 0,3.17578 -2.5703,5.75 -5.7383,5.75 h -103.5039 c -3.168,0 -5.7539,-2.57422 -5.7539,-5.75"
         id="path7290"
         style="fill:#9a031e;fill-opacity:1" />
      <g
         fill="#ffffff"
         fill-opacity="1"
         id="g7294">
        <g
           id="use7292"
           transform="translate(2201.6858,649.57373)">
          <path
             d="m 3.90625,-29.78125 v 29.734375 h 5.5625 v -9.25 l 4.96875,-4.921875 9.9375,14.140625 h 6.34375 l -12.25,-17.4375 -0.171875,-0.4375 0.765625,-0.890625 10.96875,-10.9375 H 23.3125 L 9.46875,-16.109375 V -29.78125 Z m 0,0"
             id="path126380" />
        </g>
      </g>
      <g
         fill="#ffffff"
         fill-opacity="1"
         id="g7298">
        <g
           id="use7296"
           transform="translate(2234.4504,649.57373)">
          <path
             d="m 8.140625,-15.34375 v -5.171875 h -5.53125 v 20.46875 H 8.3125 V -10.0625 c 0,-0.734375 0,-1.46875 0.21875,-2.140625 0.9375,-2.796875 3.984375,-4.15625 6.71875,-4.15625 v -4.375 c -2.5625,0 -4.75,1.40625 -6.171875,3.515625 -0.34375,0.546875 -0.765625,1.1875 -0.9375,1.875 z m 0,0"
             id="path126384" />
        </g>
      </g>
      <g
         fill="#ffffff"
         fill-opacity="1"
         id="g7302">
        <g
           id="use7300"
           transform="translate(2198.0857,671.41382)">
          <path
             d="m 1.40625,-11.96875 v 11.953125 h 1.140625 v -3.5 L 2.578125,-3.875 5.125,-6.453125 l 4.296875,6.234375 0.15625,0.171875 h 1.28125 l -4.96875,-7.171875 4.734375,-4.75 H 9.234375 l -6.6875,6.703125 v -6.703125 z m 0,0"
             id="path126320" />
        </g>
      </g>
      <g
         fill="#ffffff"
         fill-opacity="1"
         id="g7306">
        <g
           id="use7304"
           transform="translate(2209.6113,671.41382)">
          <path
             d="M 2.15625,-5.96875 V -8.140625 H 1.109375 v 8.125 H 2.1875 V -3.9375 c 0,-1.203125 0.34375,-2.53125 2.09375,-3.15625 0.375,-0.125 0.75,-0.1875 1.125,-0.1875 V -8.25 c -1.09375,0 -2.125,0.53125 -2.765625,1.421875 -0.203125,0.25 -0.40625,0.546875 -0.484375,0.859375 z m 0,0"
             id="path126344" />
        </g>
      </g>
      <g
         fill="#ffffff"
         fill-opacity="1"
         id="g7310">
        <g
           id="use7308"
           transform="translate(2215.1343,671.41382)">
          <path
             d="m 0.125,-8.140625 c 0.078125,0.28125 0.203125,0.5625 0.328125,0.84375 C 1.234375,-5.09375 2.171875,-2.921875 3,-0.75 l 0.171875,0.421875 c 0.03125,0.09375 0.078125,0.1875 0.09375,0.28125 v 0.03125 c 0,0.078125 -0.03125,0.171875 -0.0625,0.234375 l -0.1875,0.5 c -0.25,0.703125 -0.640625,1.375 -1.46875,1.375 -0.46875,0 -0.9375,-0.109375 -1.40625,-0.21875 L 0.21875,2.84375 c 0.453125,0.0625 0.90625,0.125 1.34375,0.125 1.359375,0 2,-1.234375 2.421875,-2.328125 0.171875,-0.5 0.359375,-0.984375 0.53125,-1.484375 L 6.875,-7.25 c 0.109375,-0.296875 0.234375,-0.578125 0.328125,-0.890625 h -0.9375 c -0.171875,0 -0.171875,0.09375 -0.203125,0.203125 l -0.140625,0.359375 c -0.53125,1.359375 -1,2.78125 -1.484375,4.15625 C 4.171875,-2.671875 3.890625,-1.90625 3.75,-1.125 3.21875,-3.328125 2.234375,-5.515625 1.421875,-7.609375 l -0.125,-0.34375 c -0.0625,-0.140625 -0.09375,-0.1875 -0.25,-0.1875 z m 0,0"
             id="path126340" />
        </g>
      </g>
      <g
         fill="#ffffff"
         fill-opacity="1"
         id="g7314">
        <g
           id="use7312"
           transform="translate(2222.4543,671.41382)">
          <path
             d="m 2.1875,-7.015625 v -1.125 H 1.109375 v 11 h 1.09375 v -3.96875 c 0.484375,0.671875 1.15625,1.21875 2.078125,1.21875 2.09375,0 3.375,-2.265625 3.375,-4.234375 0,-1.71875 -0.9375,-3.96875 -2.875,-4.125 H 4.625 c -1.015625,0 -1.765625,0.484375 -2.4375,1.234375 z m 4.34375,3.1875 C 6.40625,-2.390625 5.421875,-0.75 3.765625,-0.75 c -0.734375,0 -1.5625,-0.65625 -1.5625,-1.375 V -6.203125 C 2.3125,-6.828125 3.3125,-7.375 3.953125,-7.375 c 1.6875,0 2.59375,1.921875 2.59375,3.265625 0,0.09375 0,0.1875 -0.015625,0.28125 z m 0,0"
             id="path126324" />
        </g>
      </g>
      <g
         fill="#ffffff"
         fill-opacity="1"
         id="g7318">
        <g
           id="use7316"
           transform="translate(2230.7288,671.41382)">
          <path
             d="m 1.859375,-10.46875 v 2.328125 H 0.1875 v 0.859375 h 1.65625 v 5.015625 c 0,0.953125 0.140625,2.359375 1.421875,2.359375 0.828125,0 1.65625,-0.234375 2.359375,-0.609375 0.09375,-0.0625 0.234375,-0.109375 0.234375,-0.203125 0,-0.078125 -0.046875,-0.140625 -0.0625,-0.1875 C 5.75,-1.109375 5.703125,-1.3125 5.640625,-1.5 l -0.40625,0.3125 c -0.375,0.21875 -0.859375,0.390625 -1.328125,0.390625 -0.828125,0 -1.03125,-0.875 -1.03125,-1.59375 0,-0.25 0.015625,-0.484375 0.015625,-0.6875 V -7.28125 H 5.5625 V -8.140625 H 2.890625 v -2.328125 z m 0,0"
             id="path126364" />
        </g>
      </g>
      <g
         fill="#ffffff"
         fill-opacity="1"
         id="g7322">
        <g
           id="use7320"
           transform="translate(2236.9773,671.41382)">
          <path
             d="m 4.125,-8.296875 c -2.171875,0.21875 -3.5625,2.1875 -3.5625,4.234375 0,1.921875 1.359375,4.15625 3.828125,4.15625 2.1875,0 3.78125,-2.046875 3.78125,-4.140625 0,-2.0625 -1.421875,-4.25 -3.8125,-4.25 z M 1.671875,-3.90625 v -0.203125 c 0,-0.921875 0.15625,-1.9375 0.859375,-2.609375 0.5,-0.484375 1.171875,-0.71875 1.84375,-0.71875 1.8125,0 2.71875,1.53125 2.71875,3.265625 0,1.65625 -0.859375,3.359375 -2.71875,3.359375 -1,0 -1.8125,-0.53125 -2.296875,-1.390625 -0.265625,-0.53125 -0.34375,-1.125 -0.40625,-1.703125 z m 0,0"
             id="path126332" />
        </g>
      </g>
      <g
         fill="#ffffff"
         fill-opacity="1"
         id="g7326">
        <g
           id="use7324"
           transform="translate(2245.7314,671.41382)">
          <path
             d="m 2.171875,-6.421875 v -1.71875 h -1.0625 v 8.125 h 1.09375 V -4.34375 c 0,-1.15625 0.234375,-3.046875 1.953125,-3.046875 0.59375,0 1.25,0.125 1.625,0.625 0.3125,0.390625 0.328125,0.90625 0.328125,1.390625 v 5.359375 H 7.21875 V -5.40625 c 0,-1.640625 -0.578125,-2.84375 -2.453125,-2.84375 -1.15625,0 -2.21875,0.765625 -2.59375,1.828125 z m 0,0"
             id="path126336" />
        </g>
      </g>
      <g
         fill="#ffffff"
         fill-opacity="1"
         id="g7330">
        <g
           id="use7328"
           transform="translate(2201.8057,693.3739)">
          <path
             d="m 3.21875,-6.125 v 0.015625 C 1.90625,-5.71875 0.625,-4.78125 0.625,-3.1875 c 0,2.078125 1.953125,3.375 3.828125,3.375 H 4.53125 C 6.3125,0.15625 8.125,-1.25 8.125,-3.171875 c 0,-1.5 -1.21875,-2.5625 -2.59375,-2.9375 0.921875,-0.34375 2.359375,-0.9375 2.359375,-2.5 0,-1.75 -1.796875,-2.90625 -3.515625,-2.90625 -1.609375,0 -3.515625,1.046875 -3.515625,2.890625 v 0.140625 C 0.96875,-7.28125 2.15625,-6.28125 3.21875,-6.125 Z M 1.75,-2.96875 c 0,-0.0625 -0.015625,-0.140625 -0.015625,-0.21875 0,-1.46875 1.109375,-2.5 2.640625,-2.5 1.421875,0 2.609375,0.90625 2.609375,2.484375 0,1.578125 -1.125,2.5 -2.59375,2.5 C 2.96875,-0.703125 1.921875,-1.5 1.75,-2.96875 Z m 0.140625,-5.453125 v -0.15625 c 0,-1.5625 1.296875,-2.078125 2.453125,-2.078125 1.109375,0 2.359375,0.40625 2.515625,1.875 V -8.625 c 0,1.53125 -1.296875,2.078125 -2.46875,2.078125 -1.1875,0 -2.328125,-0.546875 -2.5,-1.875 z m 0,0"
             id="path126372" />
        </g>
      </g>
      <g
         fill="#ffffff"
         fill-opacity="1"
         id="g7334">
        <g
           id="use7332"
           transform="translate(2210.5598,693.3739)">
          <path
             d="m 1.390625,-8.703125 c 0.75,-1.09375 1.46875,-1.953125 3.109375,-1.953125 0.96875,0 1.984375,0.53125 1.984375,1.640625 0,1.984375 -2.03125,2.390625 -3.609375,2.46875 V -5.6875 h 1.1875 c 0.8125,0 1.625,0.109375 2.203125,0.75 0.453125,0.453125 0.65625,1.09375 0.65625,1.734375 0,1.40625 -1.015625,2.5 -2.53125,2.5 -1.453125,0 -2.765625,-0.78125 -3.59375,-1.9375 -0.109375,0.234375 -0.15625,0.6875 -0.15625,0.828125 V -1.75 C 0.90625,-1.078125 2.15625,-0.28125 3.046875,-0.015625 3.5,0.109375 3.9375,0.171875 4.40625,0.171875 6.09375,0.171875 8.125,-1 8.125,-3.140625 8.125,-4.25 7.46875,-5.1875 6.484375,-5.734375 c -0.28125,-0.171875 -0.625,-0.34375 -0.96875,-0.375 C 6.59375,-6.625 7.625,-7.578125 7.625,-9 c 0,-1.65625 -1.75,-2.515625 -3.171875,-2.515625 -1.4375,0 -2.65625,0.71875 -3.484375,1.875 -0.03125,0.046875 -0.078125,0.09375 -0.078125,0.171875 0,0.15625 0.328125,0.53125 0.5,0.765625 z m 0,0"
             id="path126352" />
        </g>
      </g>
      <g
         fill="#ffffff"
         fill-opacity="1"
         id="g7338">
        <g
           id="use7336"
           transform="translate(2219.3142,693.3739)">
          <path
             d="m 1.703125,-1.359375 v 1.34375 h 1.34375 v -1.34375 z m 0,0"
             id="path126328" />
        </g>
      </g>
      <g
         fill="#ffffff"
         fill-opacity="1"
         id="g7342">
        <g
           id="use7340"
           transform="translate(2223.9941,693.3739)">
          <path
             d="m 0.625,-11.3125 v 0.96875 h 6.75 C 6.5625,-9.546875 5.8125,-8.75 5.1875,-7.796875 3.640625,-5.46875 2.796875,-2.703125 2.796875,0.09375 H 3.9375 c 0,-3.78125 1.4375,-7.25 3.859375,-10.125 C 7.953125,-10.1875 8.125,-10.3125 8.125,-10.5625 v -0.75 z m 0,0"
             id="path126348" />
        </g>
      </g>
      <g
         fill="#ffffff"
         fill-opacity="1"
         id="g7346">
        <g
           id="use7344"
           transform="translate(2232.7483,693.3739)">
          <path
             d="M 6.796875,-5.671875 H 6.8125 c 0,1.859375 -0.40625,4.96875 -3.296875,4.96875 C 2.75,-0.703125 2.1875,-1 1.625,-1.390625 l -0.453125,0.78125 C 1.890625,-0.0625 2.703125,0.1875 3.59375,0.1875 c 2.9375,0 4.359375,-3.359375 4.359375,-5.796875 0,-2.015625 -0.234375,-4.8125 -2.421875,-5.703125 -0.359375,-0.140625 -0.765625,-0.203125 -1.15625,-0.203125 -2.1875,0 -3.578125,2 -3.578125,3.96875 0,1.796875 0.859375,3.90625 2.921875,3.90625 1.234375,0 2.703125,-0.875 3.078125,-2.03125 z M 6.75,-7.578125 c -0.015625,0.046875 -0.015625,0.109375 -0.015625,0.15625 0,0.125 0.015625,0.21875 0.015625,0.34375 v 0.09375 C 6.640625,-5.625 5.640625,-4.5 4.171875,-4.5 3.4375,-4.5 2.84375,-4.78125 2.40625,-5.390625 1.984375,-5.984375 1.921875,-6.71875 1.921875,-7.4375 c 0,-1.328125 0.265625,-3.21875 2.484375,-3.21875 1.640625,0 2.34375,1.703125 2.34375,2.953125 z m 0,0"
             id="path126360" />
        </g>
      </g>
      <g
         fill="#ffffff"
         fill-opacity="1"
         id="g7350">
        <g
           id="use7348"
           transform="translate(2241.5024,693.3739)">
          <path
             d="m 3.21875,-6.125 v 0.015625 C 1.90625,-5.71875 0.625,-4.78125 0.625,-3.1875 c 0,2.078125 1.953125,3.375 3.828125,3.375 H 4.53125 C 6.3125,0.15625 8.125,-1.25 8.125,-3.171875 c 0,-1.5 -1.21875,-2.5625 -2.59375,-2.9375 0.921875,-0.34375 2.359375,-0.9375 2.359375,-2.5 0,-1.75 -1.796875,-2.90625 -3.515625,-2.90625 -1.609375,0 -3.515625,1.046875 -3.515625,2.890625 v 0.140625 C 0.96875,-7.28125 2.15625,-6.28125 3.21875,-6.125 Z M 1.75,-2.96875 c 0,-0.0625 -0.015625,-0.140625 -0.015625,-0.21875 0,-1.46875 1.109375,-2.5 2.640625,-2.5 1.421875,0 2.609375,0.90625 2.609375,2.484375 0,1.578125 -1.125,2.5 -2.59375,2.5 C 2.96875,-0.703125 1.921875,-1.5 1.75,-2.96875 Z m 0.140625,-5.453125 v -0.15625 c 0,-1.5625 1.296875,-2.078125 2.453125,-2.078125 1.109375,0 2.359375,0.40625 2.515625,1.875 V -8.625 c 0,1.53125 -1.296875,2.078125 -2.46875,2.078125 -1.1875,0 -2.328125,-0.546875 -2.5,-1.875 z m 0,0"
             id="path126376" />
        </g>
      </g>
      <g
         fill="#ffffff"
         fill-opacity="1"
         id="g7354">
        <g
           id="use7352"
           transform="translate(2177.2905,613.28406)">
          <path
             d="m 1.390625,-8.703125 c 0.75,-1.09375 1.46875,-1.953125 3.109375,-1.953125 0.96875,0 1.984375,0.53125 1.984375,1.640625 0,1.984375 -2.03125,2.390625 -3.609375,2.46875 V -5.6875 h 1.1875 c 0.8125,0 1.625,0.109375 2.203125,0.75 0.453125,0.453125 0.65625,1.09375 0.65625,1.734375 0,1.40625 -1.015625,2.5 -2.53125,2.5 -1.453125,0 -2.765625,-0.78125 -3.59375,-1.9375 -0.109375,0.234375 -0.15625,0.6875 -0.15625,0.828125 V -1.75 C 0.90625,-1.078125 2.15625,-0.28125 3.046875,-0.015625 3.5,0.109375 3.9375,0.171875 4.40625,0.171875 6.09375,0.171875 8.125,-1 8.125,-3.140625 8.125,-4.25 7.46875,-5.1875 6.484375,-5.734375 c -0.28125,-0.171875 -0.625,-0.34375 -0.96875,-0.375 C 6.59375,-6.625 7.625,-7.578125 7.625,-9 c 0,-1.65625 -1.75,-2.515625 -3.171875,-2.515625 -1.4375,0 -2.65625,0.71875 -3.484375,1.875 -0.03125,0.046875 -0.078125,0.09375 -0.078125,0.171875 0,0.15625 0.328125,0.53125 0.5,0.765625 z m 0,0"
             id="path126356" />
        </g>
      </g>
      <g
         fill="#ffffff"
         fill-opacity="1"
         id="g7358">
        <g
           id="use7356"
           transform="translate(2186.0447,613.28406)">
          <path
             d="m 1.953125,-5.6875 h -0.03125 c 0,-1.984375 0.5625,-4.96875 3.546875,-4.96875 0.71875,0 1.265625,0.1875 1.90625,0.359375 V -11 c 0,-0.46875 -1.625,-0.515625 -1.9375,-0.515625 -2.578125,0 -4.234375,2.421875 -4.578125,4.75 -0.046875,0.390625 -0.0625,0.796875 -0.0625,1.1875 0,2.046875 0.328125,4.5625 2.390625,5.53125 C 3.5625,0.125 4,0.1875 4.421875,0.1875 c 2.09375,0 3.53125,-1.96875 3.53125,-3.96875 0,-1.359375 -0.5625,-3.15625 -1.890625,-3.75 -0.34375,-0.140625 -0.6875,-0.171875 -1.046875,-0.171875 -1.25,0.03125 -2.6875,0.890625 -3.0625,2.015625 z M 2,-4.03125 V -4.125 c 0,-1.34375 0.984375,-2.734375 2.515625,-2.734375 1.125,0 2.078125,0.734375 2.28125,2.234375 0.015625,0.28125 0.015625,0.59375 0.015625,0.890625 0,1.25 -0.359375,3.03125 -2.328125,3.03125 -1.578125,0 -2.3125,-1.3125 -2.484375,-2.890625 0,-0.078125 0.015625,-0.140625 0.015625,-0.21875 0,-0.0625 0,-0.140625 -0.015625,-0.21875 z m 0,0"
             id="path126368" />
        </g>
      </g>
    </g>
  </g>
  <g
     inkscape:label="Capa 1"
     inkscape:groupmode="layer"
     id="layer1"
     transform="translate(-25.949774,-102.1557)">
    <g
       id="g35216"
       transform="matrix(0.35277777,0,0,0.35277777,-11.847197,-22.263639)" />
    <rect
       style="fill:none;stroke:#008080;stroke-width:2.99976;stroke-dasharray:none"
       id="rect22454"
       width="37.605034"
       height="37.569675"
       x="27.449654"
       y="103.65559" />
  </g>
</svg>
