<?xml version="1.0" encoding="UTF-8" standalone="no"?>
<!-- Created with Inkscape (http://www.inkscape.org/) -->

<svg
   width="40.57357mm"
   height="40.569443mm"
   viewBox="0 0 40.573571 40.569443"
   version="1.1"
   id="svg35221"
   inkscape:version="1.2.1 (9c6d41e410, 2022-07-14)"
   sodipodi:docname="37_clicked.svg"
   xmlns:inkscape="http://www.inkscape.org/namespaces/inkscape"
   xmlns:sodipodi="http://sodipodi.sourceforge.net/DTD/sodipodi-0.dtd"
   xmlns="http://www.w3.org/2000/svg"
   xmlns:svg="http://www.w3.org/2000/svg">
  <sodipodi:namedview
     id="namedview35223"
     pagecolor="#ffffff"
     bordercolor="#000000"
     borderopacity="0.25"
     inkscape:showpageshadow="2"
     inkscape:pageopacity="0.0"
     inkscape:pagecheckerboard="0"
     inkscape:deskcolor="#d1d1d1"
     inkscape:document-units="mm"
     showgrid="false"
     inkscape:zoom="2.8284271"
     inkscape:cx="-91.393552"
     inkscape:cy="49.497475"
     inkscape:window-width="1920"
     inkscape:window-height="1009"
     inkscape:window-x="2552"
     inkscape:window-y="421"
     inkscape:window-maximized="1"
     inkscape:current-layer="g127627" />
  <defs
     id="defs35218" />
  <g
     inkscape:groupmode="layer"
     id="layer2"
     inkscape:label="Capa 2">
    <g
       id="g127627"
       transform="matrix(0.35277777,0,0,0.35277777,-34.013417,-251.86265)">
      <path
         fill-rule="nonzero"
         fill="#3cb4c8"
         fill-opacity="1"
         d="m 96.421875,771.44141 v -51.75 c 0,-3.17188 2.578125,-5.75 5.750005,-5.75 h 103.49999 c 3.17579,0 5.75,2.57812 5.75,5.75 v 103.5 c 0,3.17578 -2.57421,5.75 -5.75,5.75 H 102.17188 c -3.17188,0 -5.750005,-2.57422 -5.750005,-5.75"
         id="path2388"
         style="fill:#489fb5;fill-opacity:1" />
      <g
         fill="#ffffff"
         fill-opacity="1"
         id="g2392">
        <g
           id="use2390"
           transform="translate(126.80276,771.4635)">
          <path
             d="M 3.90625,-29.78125 V -0.046875 H 10.0625 V -13.375 h 4.296875 l 0.421875,0.09375 0.59375,0.859375 7.078125,12.296875 0.515625,0.078125 H 28.75 l -8.0625,-13.75 C 24.46875,-14.4375 27.5,-17.1875 27.5,-21.34375 27.5,-24 26.3125,-26.515625 24.125,-27.9375 c -2.75,-1.796875 -6.171875,-1.84375 -9.34375,-1.84375 z m 6.15625,13.328125 V -26.09375 H 15.25 c 2.875,0 6.25,0.296875 6.25,4.796875 0,1.5 -0.25,3.21875 -1.828125,4.03125 -1.328125,0.765625 -2.96875,0.8125 -4.421875,0.8125 z m 0,0"
             id="path128260" />
        </g>
      </g>
      <g
         fill="#ffffff"
         fill-opacity="1"
         id="g2396">
        <g
           id="use2394"
           transform="translate(156.93207,771.4635)">
          <path
             d="M 2.609375,-29.78125 V -0.046875 H 8.4375 v -1.875 c 1.453125,1.359375 3.125,2.34375 5.359375,2.34375 2.78125,0 5.4375,-0.9375 7.03125,-3.421875 1.359375,-2.140625 1.578125,-4.796875 1.578125,-7.28125 0,-4.421875 -0.984375,-10.453125 -7.234375,-10.453125 -2.453125,0 -5.015625,0.859375 -6.859375,2.5625 V -29.78125 Z M 16.53125,-8.390625 c -0.125,1.453125 -0.125,3.078125 -1.15625,4.28125 -0.765625,0.984375 -2.140625,1.453125 -3.46875,1.453125 -1.109375,0 -3.515625,-0.5625 -3.515625,-1.96875 0,-0.171875 0.046875,-0.34375 0.046875,-0.515625 V -16.03125 c 0.171875,-0.890625 2.4375,-1.625 3.765625,-1.625 1.125,0 2.1875,0.34375 3,1.078125 1.296875,1.15625 1.375,3.46875 1.375,5.4375 v 1.71875 c 0,0.34375 0,0.6875 -0.04687,1.03125 z m 0,0"
             id="path128264" />
        </g>
      </g>
      <g
         fill="#ffffff"
         fill-opacity="1"
         id="g2400">
        <g
           id="use2398"
           transform="translate(121.76298,793.30359)">
          <path
             d="M 1.375,-11.96875 V -0.015625 H 2.5625 V -5.5625 h 3.046875 c 0.25,0 0.3125,0.234375 0.4375,0.421875 C 7.0625,-3.5625 8.171875,-2 9.171875,-0.40625 9.3125,-0.21875 9.390625,0 9.625,0 9.71875,0 9.796875,-0.015625 9.84375,-0.015625 h 0.8125 L 6.859375,-5.6875 C 8.40625,-5.96875 10.15625,-7.078125 10.15625,-8.75 v -0.09375 c -0.171875,-2.328125 -2.953125,-3.125 -4.8125,-3.125 z m 1.1875,5.546875 v -4.625 h 2.453125 c 1.15625,0 2.59375,0.03125 3.453125,0.953125 0.34375,0.375 0.546875,0.859375 0.546875,1.359375 0,0.765625 -0.46875,1.421875 -1.140625,1.796875 -0.890625,0.5 -1.90625,0.515625 -2.875,0.515625 z m 0,0"
             id="path128232" />
        </g>
      </g>
      <g
         fill="#ffffff"
         fill-opacity="1"
         id="g2404">
        <g
           id="use2402"
           transform="translate(132.8102,793.30359)">
          <path
             d="M 1.109375,-8.140625 V -2.3125 c 0,0.5 0.015625,1 0.21875,1.46875 0.328125,0.671875 1.015625,0.9375 1.71875,0.9375 1.15625,0 2.53125,-0.53125 3.0625,-1.609375 l 0.015625,1.5 h 1.09375 v -8.125 H 6.109375 v 4.125 C 6.109375,-3.75 6.125,-3.5 6.125,-3.234375 c 0,0.484375 -0.046875,0.96875 -0.28125,1.390625 -0.421875,0.703125 -1.15625,1.125 -2,1.125 -0.859375,0 -1.65625,0 -1.65625,-1.625 0,-0.25 0.015625,-0.515625 0.015625,-0.765625 v -5.03125 z m 0,0"
             id="path128200" />
        </g>
      </g>
      <g
         fill="#ffffff"
         fill-opacity="1"
         id="g2408">
        <g
           id="use2406"
           transform="translate(141.08444,793.30359)">
          <path
             d="m 1.109375,-11.96875 v 11.953125 h 1.09375 l 0.015625,-1.09375 c 0.4375,0.875 1.46875,1.203125 2.046875,1.203125 2.140625,0 3.375,-2.265625 3.375,-4.21875 0,-1.5625 -0.609375,-3.234375 -2.078125,-3.921875 C 5.25,-8.171875 4.921875,-8.25 4.578125,-8.25 c -0.9375,0 -1.78125,0.5 -2.390625,1.234375 V -11.96875 Z M 6.53125,-3.75 c -0.078125,0.734375 -0.21875,1.484375 -0.734375,2.0625 -0.46875,0.578125 -1.25,0.90625 -2.015625,0.90625 -0.703125,0 -1.578125,-0.59375 -1.578125,-1.34375 V -6.203125 C 2.3125,-6.875 3.3125,-7.390625 4,-7.390625 c 0.5625,0 1.078125,0.234375 1.5625,0.59375 0.796875,0.671875 0.984375,1.765625 0.984375,2.734375 0,0.109375 0,0.203125 -0.015625,0.3125 z m 0,0"
             id="path128216" />
        </g>
      </g>
      <g
         fill="#ffffff"
         fill-opacity="1"
         id="g2412">
        <g
           id="use2410"
           transform="translate(149.35869,793.30359)">
          <path
             d="m 1.109375,-8.140625 v 8.125 H 2.1875 v -8.125 z m 0,-3.828125 V -10.875 H 2.1875 v -1.09375 z m 0,0"
             id="path128208" />
        </g>
      </g>
      <g
         fill="#ffffff"
         fill-opacity="1"
         id="g2416">
        <g
           id="use2414"
           transform="translate(152.60446,793.30359)">
          <path
             d="m 6.125,-11.96875 v 4.859375 C 5.5625,-7.734375 5,-8.25 3.953125,-8.25 c -2.046875,0 -3.28125,2.171875 -3.28125,4.171875 0,1.921875 1.140625,4.171875 3.171875,4.171875 0.84375,0 1.890625,-0.5625 2.25,-1.328125 l 0.015625,1.21875 H 7.21875 V -11.96875 Z M 1.78125,-3.75 v -0.203125 c 0,-1.21875 0.28125,-2.515625 1.484375,-3.125 0.375,-0.1875 0.796875,-0.3125 1.21875,-0.3125 0.609375,0 1.5,0.421875 1.625,1.09375 v 4.0625 c 0,0.859375 -1.0625,1.453125 -1.765625,1.453125 -0.703125,0 -1.453125,-0.359375 -1.875,-0.890625 -0.5,-0.59375 -0.609375,-1.34375 -0.6875,-2.078125 z m 0,0"
             id="path128236" />
        </g>
      </g>
      <g
         fill="#ffffff"
         fill-opacity="1"
         id="g2420">
        <g
           id="use2418"
           transform="translate(160.87872,793.30359)">
          <path
             d="m 1.109375,-8.140625 v 8.125 H 2.1875 v -8.125 z m 0,-3.828125 V -10.875 H 2.1875 v -1.09375 z m 0,0"
             id="path128212" />
        </g>
      </g>
      <g
         fill="#ffffff"
         fill-opacity="1"
         id="g2424">
        <g
           id="use2422"
           transform="translate(164.12448,793.30359)">
          <path
             d="M 1.109375,-8.140625 V -2.3125 c 0,0.5 0.015625,1 0.21875,1.46875 0.328125,0.671875 1.015625,0.9375 1.71875,0.9375 1.15625,0 2.53125,-0.53125 3.0625,-1.609375 l 0.015625,1.5 h 1.09375 v -8.125 H 6.109375 v 4.125 C 6.109375,-3.75 6.125,-3.5 6.125,-3.234375 c 0,0.484375 -0.046875,0.96875 -0.28125,1.390625 -0.421875,0.703125 -1.15625,1.125 -2,1.125 -0.859375,0 -1.65625,0 -1.65625,-1.625 0,-0.25 0.015625,-0.515625 0.015625,-0.765625 v -5.03125 z m 0,0"
             id="path128204" />
        </g>
      </g>
      <g
         fill="#ffffff"
         fill-opacity="1"
         id="g2428">
        <g
           id="use2426"
           transform="translate(172.39874,793.30359)">
          <path
             d="m 2.171875,-6.421875 v -1.71875 h -1.0625 v 8.125 h 1.09375 V -4.34375 c 0,-1.171875 0.234375,-3.046875 1.953125,-3.046875 0.59375,0 1.265625,0.125 1.640625,0.625 C 6.109375,-6.375 6.125,-5.859375 6.125,-5.375 v 5.359375 H 7.234375 V -4.34375 c 0,-1.171875 0.234375,-3.046875 1.9375,-3.046875 0.609375,0 1.28125,0.125 1.65625,0.625 0.3125,0.390625 0.328125,0.90625 0.328125,1.390625 v 5.359375 h 1.109375 v -4.5625 c 0,-0.296875 0.01563,-0.625 0.01563,-0.9375 0,-0.765625 -0.109375,-1.578125 -0.65625,-2.125 C 11.15625,-8.109375 10.4375,-8.25 9.796875,-8.25 8.578125,-8.25 7.640625,-7.453125 7.1875,-6.40625 6.90625,-7.640625 6.109375,-8.25 4.75,-8.25 c -1.09375,0 -2.25,0.78125 -2.578125,1.828125 z m 0,0"
             id="path128244" />
        </g>
      </g>
      <g
         fill="#ffffff"
         fill-opacity="1"
         id="g2432">
        <g
           id="use2430"
           transform="translate(129.68291,815.26306)">
          <path
             d="m 3.21875,-6.125 v 0.015625 C 1.90625,-5.71875 0.625,-4.78125 0.625,-3.1875 c 0,2.078125 1.953125,3.375 3.828125,3.375 H 4.53125 C 6.3125,0.15625 8.125,-1.25 8.125,-3.171875 c 0,-1.5 -1.21875,-2.5625 -2.59375,-2.9375 0.921875,-0.34375 2.359375,-0.9375 2.359375,-2.5 0,-1.75 -1.796875,-2.90625 -3.515625,-2.90625 -1.609375,0 -3.515625,1.046875 -3.515625,2.890625 v 0.140625 C 0.96875,-7.28125 2.15625,-6.28125 3.21875,-6.125 Z M 1.75,-2.96875 c 0,-0.0625 -0.015625,-0.140625 -0.015625,-0.21875 0,-1.46875 1.109375,-2.5 2.640625,-2.5 1.421875,0 2.609375,0.90625 2.609375,2.484375 0,1.578125 -1.125,2.5 -2.59375,2.5 C 2.96875,-0.703125 1.921875,-1.5 1.75,-2.96875 Z m 0.140625,-5.453125 v -0.15625 c 0,-1.5625 1.296875,-2.078125 2.453125,-2.078125 1.109375,0 2.359375,0.40625 2.515625,1.875 V -8.625 c 0,1.53125 -1.296875,2.078125 -2.46875,2.078125 -1.1875,0 -2.328125,-0.546875 -2.5,-1.875 z m 0,0"
             id="path128252" />
        </g>
      </g>
      <g
         fill="#ffffff"
         fill-opacity="1"
         id="g2436">
        <g
           id="use2434"
           transform="translate(138.43716,815.26306)">
          <path
             d="m 1.453125,-11.3125 v 6.171875 h 0.78125 c 0.203125,0 0.25,-0.140625 0.328125,-0.265625 0.5,-0.65625 1.296875,-0.9375 2.0625,-0.9375 1.671875,0 2.15625,1.5 2.15625,2.734375 0,0.734375 -0.125,1.5625 -0.671875,2.109375 C 5.59375,-0.953125 4.875,-0.703125 4.125,-0.703125 c -1.203125,0 -2.28125,-0.625 -2.9375,-1.609375 H 1.171875 c -0.15625,0.25 -0.453125,0.625 -0.453125,0.796875 0,0.15625 0.28125,0.375 0.40625,0.5 0.78125,0.75 1.859375,1.203125 2.953125,1.203125 2.015625,0 3.890625,-1.515625 3.890625,-3.75 0,-1.671875 -1.140625,-3.640625 -3.359375,-3.640625 -0.796875,0 -1.515625,0.328125 -2.109375,0.8125 v -4.015625 h 4.890625 v -0.90625 z m 0,0"
             id="path128220" />
        </g>
      </g>
      <g
         fill="#ffffff"
         fill-opacity="1"
         id="g2440">
        <g
           id="use2438"
           transform="translate(147.19141,815.26306)">
          <path
             d="m 1.703125,-1.359375 v 1.34375 h 1.34375 v -1.34375 z m 0,0"
             id="path128196" />
        </g>
      </g>
      <g
         fill="#ffffff"
         fill-opacity="1"
         id="g2444">
        <g
           id="use2442"
           transform="translate(151.87138,815.26306)">
          <path
             d="M 0.359375,-3.140625 H 5.34375 v 3.125 h 1.078125 v -3.125 h 1.96875 v -0.90625 h -1.96875 v -7.375 h -1.125 c -0.328125,0 -0.421875,0.40625 -0.59375,0.640625 -1.015625,1.625 -2.078125,3.203125 -3.125,4.828125 L 0.75,-4.671875 C 0.5625,-4.390625 0.359375,-4.15625 0.359375,-3.875 Z m 1.125,-0.90625 c 1.234375,-1.84375 2.4375,-3.71875 3.53125,-5.640625 0.125,-0.25 0.3125,-0.515625 0.359375,-0.796875 l 0.015625,6.4375 z m 0,0"
             id="path128224" />
        </g>
      </g>
      <g
         fill="#ffffff"
         fill-opacity="1"
         id="g2448">
        <g
           id="use2446"
           transform="translate(160.62564,815.26306)">
          <path
             d="m 1.953125,-5.6875 h -0.03125 c 0,-1.984375 0.5625,-4.96875 3.546875,-4.96875 0.71875,0 1.265625,0.1875 1.90625,0.359375 V -11 c 0,-0.46875 -1.625,-0.515625 -1.9375,-0.515625 -2.578125,0 -4.234375,2.421875 -4.578125,4.75 -0.046875,0.390625 -0.0625,0.796875 -0.0625,1.1875 0,2.046875 0.328125,4.5625 2.390625,5.53125 C 3.5625,0.125 4,0.1875 4.421875,0.1875 c 2.09375,0 3.53125,-1.96875 3.53125,-3.96875 0,-1.359375 -0.5625,-3.15625 -1.890625,-3.75 -0.34375,-0.140625 -0.6875,-0.171875 -1.046875,-0.171875 -1.25,0.03125 -2.6875,0.890625 -3.0625,2.015625 z M 2,-4.03125 V -4.125 c 0,-1.34375 0.984375,-2.734375 2.515625,-2.734375 1.125,0 2.078125,0.734375 2.28125,2.234375 0.015625,0.28125 0.015625,0.59375 0.015625,0.890625 0,1.25 -0.359375,3.03125 -2.328125,3.03125 -1.578125,0 -2.3125,-1.3125 -2.484375,-2.890625 0,-0.078125 0.015625,-0.140625 0.015625,-0.21875 0,-0.0625 0,-0.140625 -0.015625,-0.21875 z m 0,0"
             id="path128248" />
        </g>
      </g>
      <g
         fill="#ffffff"
         fill-opacity="1"
         id="g2452">
        <g
           id="use2450"
           transform="translate(169.37988,815.26306)">
          <path
             d="m 3.21875,-6.125 v 0.015625 C 1.90625,-5.71875 0.625,-4.78125 0.625,-3.1875 c 0,2.078125 1.953125,3.375 3.828125,3.375 H 4.53125 C 6.3125,0.15625 8.125,-1.25 8.125,-3.171875 c 0,-1.5 -1.21875,-2.5625 -2.59375,-2.9375 0.921875,-0.34375 2.359375,-0.9375 2.359375,-2.5 0,-1.75 -1.796875,-2.90625 -3.515625,-2.90625 -1.609375,0 -3.515625,1.046875 -3.515625,2.890625 v 0.140625 C 0.96875,-7.28125 2.15625,-6.28125 3.21875,-6.125 Z M 1.75,-2.96875 c 0,-0.0625 -0.015625,-0.140625 -0.015625,-0.21875 0,-1.46875 1.109375,-2.5 2.640625,-2.5 1.421875,0 2.609375,0.90625 2.609375,2.484375 0,1.578125 -1.125,2.5 -2.59375,2.5 C 2.96875,-0.703125 1.921875,-1.5 1.75,-2.96875 Z m 0.140625,-5.453125 v -0.15625 c 0,-1.5625 1.296875,-2.078125 2.453125,-2.078125 1.109375,0 2.359375,0.40625 2.515625,1.875 V -8.625 c 0,1.53125 -1.296875,2.078125 -2.46875,2.078125 -1.1875,0 -2.328125,-0.546875 -2.5,-1.875 z m 0,0"
             id="path128256" />
        </g>
      </g>
      <g
         fill="#ffffff"
         fill-opacity="1"
         id="g2456">
        <g
           id="use2454"
           transform="translate(105.16775,735.17322)">
          <path
             d="m 1.390625,-8.703125 c 0.75,-1.09375 1.46875,-1.953125 3.109375,-1.953125 0.96875,0 1.984375,0.53125 1.984375,1.640625 0,1.984375 -2.03125,2.390625 -3.609375,2.46875 V -5.6875 h 1.1875 c 0.8125,0 1.625,0.109375 2.203125,0.75 0.453125,0.453125 0.65625,1.09375 0.65625,1.734375 0,1.40625 -1.015625,2.5 -2.53125,2.5 -1.453125,0 -2.765625,-0.78125 -3.59375,-1.9375 -0.109375,0.234375 -0.15625,0.6875 -0.15625,0.828125 V -1.75 C 0.90625,-1.078125 2.15625,-0.28125 3.046875,-0.015625 3.5,0.109375 3.9375,0.171875 4.40625,0.171875 6.09375,0.171875 8.125,-1 8.125,-3.140625 8.125,-4.25 7.46875,-5.1875 6.484375,-5.734375 c -0.28125,-0.171875 -0.625,-0.34375 -0.96875,-0.375 C 6.59375,-6.625 7.625,-7.578125 7.625,-9 c 0,-1.65625 -1.75,-2.515625 -3.171875,-2.515625 -1.4375,0 -2.65625,0.71875 -3.484375,1.875 -0.03125,0.046875 -0.078125,0.09375 -0.078125,0.171875 0,0.15625 0.328125,0.53125 0.5,0.765625 z m 0,0"
             id="path128240" />
        </g>
      </g>
      <g
         fill="#ffffff"
         fill-opacity="1"
         id="g2460">
        <g
           id="use2458"
           transform="translate(113.922,735.17322)">
          <path
             d="m 0.625,-11.3125 v 0.96875 h 6.75 C 6.5625,-9.546875 5.8125,-8.75 5.1875,-7.796875 3.640625,-5.46875 2.796875,-2.703125 2.796875,0.09375 H 3.9375 c 0,-3.78125 1.4375,-7.25 3.859375,-10.125 C 7.953125,-10.1875 8.125,-10.3125 8.125,-10.5625 v -0.75 z m 0,0"
             id="path128228" />
        </g>
      </g>
    </g>
  </g>
  <g
     inkscape:label="Capa 1"
     inkscape:groupmode="layer"
     id="layer1"
     transform="translate(-25.949774,-102.1557)">
    <g
       id="g35216"
       transform="matrix(0.35277777,0,0,0.35277777,-11.847197,-22.263639)" />
    <rect
       style="fill:none;stroke:#008080;stroke-width:2.99976;stroke-dasharray:none"
       id="rect22454"
       width="37.605034"
       height="37.569675"
       x="27.449654"
       y="103.65559" />
  </g>
</svg>
