<?xml version="1.0" encoding="UTF-8" standalone="no"?>
<!-- Created with Inkscape (http://www.inkscape.org/) -->

<svg
   width="40.57357mm"
   height="40.569443mm"
   viewBox="0 0 40.573571 40.569443"
   version="1.1"
   id="svg35221"
   inkscape:version="1.2.1 (9c6d41e410, 2022-07-14)"
   sodipodi:docname="41.svg"
   xmlns:inkscape="http://www.inkscape.org/namespaces/inkscape"
   xmlns:sodipodi="http://sodipodi.sourceforge.net/DTD/sodipodi-0.dtd"
   xmlns="http://www.w3.org/2000/svg"
   xmlns:svg="http://www.w3.org/2000/svg">
  <sodipodi:namedview
     id="namedview35223"
     pagecolor="#ffffff"
     bordercolor="#000000"
     borderopacity="0.25"
     inkscape:showpageshadow="2"
     inkscape:pageopacity="0.0"
     inkscape:pagecheckerboard="0"
     inkscape:deskcolor="#d1d1d1"
     inkscape:document-units="mm"
     showgrid="false"
     inkscape:zoom="2.8284271"
     inkscape:cx="-100.23239"
     inkscape:cy="49.497475"
     inkscape:window-width="1920"
     inkscape:window-height="1009"
     inkscape:window-x="2552"
     inkscape:window-y="421"
     inkscape:window-maximized="1"
     inkscape:current-layer="g134533" />
  <defs
     id="defs35218" />
  <g
     inkscape:groupmode="layer"
     id="layer2"
     inkscape:label="Capa 2">
    <g
       id="g134533"
       transform="translate(59.949595,9.90131)">
      <path
         fill-rule="nonzero"
         fill="#c8c850"
         fill-opacity="1"
         d="m 583.98047,771.44141 v -51.75 c 0,-3.17188 2.57422,-5.75 5.75,-5.75 h 103.5 c 3.17578,0 5.75,2.57812 5.75,5.75 v 103.5 c 0,3.17578 -2.57422,5.75 -5.75,5.75 h -103.5 c -3.17578,0 -5.75,-2.57422 -5.75,-5.75"
         id="path3600"
         transform="matrix(0.35277777,0,0,0.35277777,-265.96284,-261.76396)"
         style="fill:#e76f51;fill-opacity:1" />
      <g
         fill="#ffffff"
         fill-opacity="1"
         id="g3604"
         transform="matrix(0.35277777,0,0,0.35277777,-265.96284,-261.76396)">
        <g
           id="use3602"
           transform="translate(612.44086,771.4635)">
          <path
             d="m 3.90625,-29.78125 v 29.734375 h 5.265625 v -24.59375 L 21.890625,-0.125 22.53125,-0.046875 h 7.546875 V -29.78125 H 24.8125 V -5.1875 l -12.734375,-24.5 -0.640625,-0.09375 z m 0,0"
             id="path132890" />
        </g>
      </g>
      <g
         fill="#ffffff"
         fill-opacity="1"
         id="g3608"
         transform="matrix(0.35277777,0,0,0.35277777,-265.96284,-261.76396)">
        <g
           id="use3606"
           transform="translate(646.50171,771.4635)">
          <path
             d="M 2.609375,-29.78125 V -0.046875 H 8.4375 v -1.875 c 1.453125,1.359375 3.125,2.34375 5.359375,2.34375 2.78125,0 5.4375,-0.9375 7.03125,-3.421875 1.359375,-2.140625 1.578125,-4.796875 1.578125,-7.28125 0,-4.421875 -0.984375,-10.453125 -7.234375,-10.453125 -2.453125,0 -5.015625,0.859375 -6.859375,2.5625 V -29.78125 Z M 16.53125,-8.390625 c -0.125,1.453125 -0.125,3.078125 -1.15625,4.28125 -0.765625,0.984375 -2.140625,1.453125 -3.46875,1.453125 -1.109375,0 -3.515625,-0.5625 -3.515625,-1.96875 0,-0.171875 0.046875,-0.34375 0.046875,-0.515625 V -16.03125 c 0.171875,-0.890625 2.4375,-1.625 3.765625,-1.625 1.125,0 2.1875,0.34375 3,1.078125 1.296875,1.15625 1.375,3.46875 1.375,5.4375 v 1.71875 c 0,0.34375 0,0.6875 -0.04687,1.03125 z m 0,0"
             id="path132886" />
        </g>
      </g>
      <g
         fill="#ffffff"
         fill-opacity="1"
         id="g3612"
         transform="matrix(0.35277777,0,0,0.35277777,-265.96284,-261.76396)">
        <g
           id="use3610"
           transform="translate(612.92078,793.30359)">
          <path
             d="M 1.40625,-11.96875 V -0.015625 H 2.484375 V -11 l 6.125,10.953125 0.171875,0.03125 h 1.5 V -11.96875 H 9.21875 V -0.984375 L 3.078125,-11.9375 2.90625,-11.96875 Z m 0,0"
             id="path132826" />
        </g>
      </g>
      <g
         fill="#ffffff"
         fill-opacity="1"
         id="g3616"
         transform="matrix(0.35277777,0,0,0.35277777,-265.96284,-261.76396)">
        <g
           id="use3614"
           transform="translate(624.55786,793.30359)">
          <path
             d="m 1.109375,-8.140625 v 8.125 H 2.1875 v -8.125 z m 0,-3.828125 V -10.875 H 2.1875 v -1.09375 z m 0,0"
             id="path132846" />
        </g>
      </g>
      <g
         fill="#ffffff"
         fill-opacity="1"
         id="g3620"
         transform="matrix(0.35277777,0,0,0.35277777,-265.96284,-261.76396)">
        <g
           id="use3618"
           transform="translate(627.80365,793.30359)">
          <path
             d="m 4.125,-8.296875 c -2.171875,0.21875 -3.5625,2.1875 -3.5625,4.234375 0,1.921875 1.359375,4.15625 3.828125,4.15625 2.1875,0 3.78125,-2.046875 3.78125,-4.140625 0,-2.0625 -1.421875,-4.25 -3.8125,-4.25 z M 1.671875,-3.90625 v -0.203125 c 0,-0.921875 0.15625,-1.9375 0.859375,-2.609375 0.5,-0.484375 1.171875,-0.71875 1.84375,-0.71875 1.8125,0 2.71875,1.53125 2.71875,3.265625 0,1.65625 -0.859375,3.359375 -2.71875,3.359375 -1,0 -1.8125,-0.53125 -2.296875,-1.390625 -0.265625,-0.53125 -0.34375,-1.125 -0.40625,-1.703125 z m 0,0"
             id="path132854" />
        </g>
      </g>
      <g
         fill="#ffffff"
         fill-opacity="1"
         id="g3624"
         transform="matrix(0.35277777,0,0,0.35277777,-265.96284,-261.76396)">
        <g
           id="use3622"
           transform="translate(636.55792,793.30359)">
          <path
             d="m 1.109375,-11.96875 v 11.953125 h 1.09375 l 0.015625,-1.09375 c 0.4375,0.875 1.46875,1.203125 2.046875,1.203125 2.140625,0 3.375,-2.265625 3.375,-4.21875 0,-1.5625 -0.609375,-3.234375 -2.078125,-3.921875 C 5.25,-8.171875 4.921875,-8.25 4.578125,-8.25 c -0.9375,0 -1.78125,0.5 -2.390625,1.234375 V -11.96875 Z M 6.53125,-3.75 c -0.078125,0.734375 -0.21875,1.484375 -0.734375,2.0625 -0.46875,0.578125 -1.25,0.90625 -2.015625,0.90625 -0.703125,0 -1.578125,-0.59375 -1.578125,-1.34375 V -6.203125 C 2.3125,-6.875 3.3125,-7.390625 4,-7.390625 c 0.5625,0 1.078125,0.234375 1.5625,0.59375 0.796875,0.671875 0.984375,1.765625 0.984375,2.734375 0,0.109375 0,0.203125 -0.015625,0.3125 z m 0,0"
             id="path132866" />
        </g>
      </g>
      <g
         fill="#ffffff"
         fill-opacity="1"
         id="g3628"
         transform="matrix(0.35277777,0,0,0.35277777,-265.96284,-261.76396)">
        <g
           id="use3626"
           transform="translate(644.83215,793.30359)">
          <path
             d="m 1.109375,-8.140625 v 8.125 H 2.1875 v -8.125 z m 0,-3.828125 V -10.875 H 2.1875 v -1.09375 z m 0,0"
             id="path132850" />
        </g>
      </g>
      <g
         fill="#ffffff"
         fill-opacity="1"
         id="g3632"
         transform="matrix(0.35277777,0,0,0.35277777,-265.96284,-261.76396)">
        <g
           id="use3630"
           transform="translate(648.07794,793.30359)">
          <path
             d="M 1.109375,-8.140625 V -2.3125 c 0,0.5 0.015625,1 0.21875,1.46875 0.328125,0.671875 1.015625,0.9375 1.71875,0.9375 1.15625,0 2.53125,-0.53125 3.0625,-1.609375 l 0.015625,1.5 h 1.09375 v -8.125 H 6.109375 v 4.125 C 6.109375,-3.75 6.125,-3.5 6.125,-3.234375 c 0,0.484375 -0.046875,0.96875 -0.28125,1.390625 -0.421875,0.703125 -1.15625,1.125 -2,1.125 -0.859375,0 -1.65625,0 -1.65625,-1.625 0,-0.25 0.015625,-0.515625 0.015625,-0.765625 v -5.03125 z m 0,0"
             id="path132834" />
        </g>
      </g>
      <g
         fill="#ffffff"
         fill-opacity="1"
         id="g3636"
         transform="matrix(0.35277777,0,0,0.35277777,-265.96284,-261.76396)">
        <g
           id="use3634"
           transform="translate(656.35217,793.30359)">
          <path
             d="m 2.171875,-6.421875 v -1.71875 h -1.0625 v 8.125 h 1.09375 V -4.34375 c 0,-1.171875 0.234375,-3.046875 1.953125,-3.046875 0.59375,0 1.265625,0.125 1.640625,0.625 C 6.109375,-6.375 6.125,-5.859375 6.125,-5.375 v 5.359375 H 7.234375 V -4.34375 c 0,-1.171875 0.234375,-3.046875 1.9375,-3.046875 0.609375,0 1.28125,0.125 1.65625,0.625 0.3125,0.390625 0.328125,0.90625 0.328125,1.390625 v 5.359375 h 1.109375 v -4.5625 c 0,-0.296875 0.01563,-0.625 0.01563,-0.9375 0,-0.765625 -0.109375,-1.578125 -0.65625,-2.125 C 11.15625,-8.109375 10.4375,-8.25 9.796875,-8.25 8.578125,-8.25 7.640625,-7.453125 7.1875,-6.40625 6.90625,-7.640625 6.109375,-8.25 4.75,-8.25 c -1.09375,0 -2.25,0.78125 -2.578125,1.828125 z m 0,0"
             id="path132882" />
        </g>
      </g>
      <g
         fill="#ffffff"
         fill-opacity="1"
         id="g3640"
         transform="matrix(0.35277777,0,0,0.35277777,-265.96284,-261.76396)">
        <g
           id="use3638"
           transform="translate(617.24066,815.26306)">
          <path
             d="M 6.796875,-5.671875 H 6.8125 c 0,1.859375 -0.40625,4.96875 -3.296875,4.96875 C 2.75,-0.703125 2.1875,-1 1.625,-1.390625 l -0.453125,0.78125 C 1.890625,-0.0625 2.703125,0.1875 3.59375,0.1875 c 2.9375,0 4.359375,-3.359375 4.359375,-5.796875 0,-2.015625 -0.234375,-4.8125 -2.421875,-5.703125 -0.359375,-0.140625 -0.765625,-0.203125 -1.15625,-0.203125 -2.1875,0 -3.578125,2 -3.578125,3.96875 0,1.796875 0.859375,3.90625 2.921875,3.90625 1.234375,0 2.703125,-0.875 3.078125,-2.03125 z M 6.75,-7.578125 c -0.015625,0.046875 -0.015625,0.109375 -0.015625,0.15625 0,0.125 0.015625,0.21875 0.015625,0.34375 v 0.09375 C 6.640625,-5.625 5.640625,-4.5 4.171875,-4.5 3.4375,-4.5 2.84375,-4.78125 2.40625,-5.390625 1.984375,-5.984375 1.921875,-6.71875 1.921875,-7.4375 c 0,-1.328125 0.265625,-3.21875 2.484375,-3.21875 1.640625,0 2.34375,1.703125 2.34375,2.953125 z m 0,0"
             id="path132878" />
        </g>
      </g>
      <g
         fill="#ffffff"
         fill-opacity="1"
         id="g3644"
         transform="matrix(0.35277777,0,0,0.35277777,-265.96284,-261.76396)">
        <g
           id="use3642"
           transform="translate(625.99493,815.26306)">
          <path
             d="m 1.671875,-10.390625 v 0.875 c 0.828125,0 1.5625,-0.15625 2.359375,-0.5 V -0.875 h -2.25 v 0.859375 h 5.625 V -0.875 H 5.140625 v -10.640625 h -0.125 c -0.234375,0 -0.359375,0.21875 -0.53125,0.34375 -0.8125,0.578125 -1.828125,0.78125 -2.8125,0.78125 z m 0,0"
             id="path132862" />
        </g>
      </g>
      <g
         fill="#ffffff"
         fill-opacity="1"
         id="g3648"
         transform="matrix(0.35277777,0,0,0.35277777,-265.96284,-261.76396)">
        <g
           id="use3646"
           transform="translate(634.74915,815.26306)">
          <path
             d="m 1.703125,-1.359375 v 1.34375 h 1.34375 v -1.34375 z m 0,0"
             id="path132830" />
        </g>
      </g>
      <g
         fill="#ffffff"
         fill-opacity="1"
         id="g3652"
         transform="matrix(0.35277777,0,0,0.35277777,-265.96284,-261.76396)">
        <g
           id="use3650"
           transform="translate(639.42914,815.26306)">
          <path
             d="m 1.25,-7.921875 c 0.3125,-1.25 0.921875,-2.6875 2.640625,-2.6875 1.46875,0 2.96875,0.890625 2.96875,2.578125 0,1.9375 -1.8125,3.265625 -3.125,4.359375 C 2.875,-2.9375 2.03125,-2.140625 1.21875,-1.359375 L 0.9375,-1.078125 C 0.828125,-0.984375 0.75,-0.9375 0.75,-0.75 v 0.734375 h 7.234375 v -0.96875 H 1.75 c 0.4375,-0.40625 0.90625,-0.8125 1.34375,-1.203125 0.609375,-0.53125 1.1875,-1.078125 1.8125,-1.578125 1.359375,-1.109375 3.078125,-2.328125 3.078125,-4.3125 0,-2 -1.671875,-3.375 -3.65625,-3.4375 h -0.125 c -1.46875,0 -2.796875,0.609375 -3.453125,2.40625 C 0.703125,-9.015625 0.640625,-8.875 0.640625,-8.75 v 0.03125 C 0.65625,-8.609375 0.75,-8.515625 0.8125,-8.453125 c 0.140625,0.171875 0.265625,0.375 0.4375,0.53125 z m 0,0"
             id="path132838" />
        </g>
      </g>
      <g
         fill="#ffffff"
         fill-opacity="1"
         id="g3656"
         transform="matrix(0.35277777,0,0,0.35277777,-265.96284,-261.76396)">
        <g
           id="use3654"
           transform="translate(648.18341,815.26306)">
          <path
             d="m 1.25,-7.921875 c 0.3125,-1.25 0.921875,-2.6875 2.640625,-2.6875 1.46875,0 2.96875,0.890625 2.96875,2.578125 0,1.9375 -1.8125,3.265625 -3.125,4.359375 C 2.875,-2.9375 2.03125,-2.140625 1.21875,-1.359375 L 0.9375,-1.078125 C 0.828125,-0.984375 0.75,-0.9375 0.75,-0.75 v 0.734375 h 7.234375 v -0.96875 H 1.75 c 0.4375,-0.40625 0.90625,-0.8125 1.34375,-1.203125 0.609375,-0.53125 1.1875,-1.078125 1.8125,-1.578125 1.359375,-1.109375 3.078125,-2.328125 3.078125,-4.3125 0,-2 -1.671875,-3.375 -3.65625,-3.4375 h -0.125 c -1.46875,0 -2.796875,0.609375 -3.453125,2.40625 C 0.703125,-9.015625 0.640625,-8.875 0.640625,-8.75 v 0.03125 C 0.65625,-8.609375 0.75,-8.515625 0.8125,-8.453125 c 0.140625,0.171875 0.265625,0.375 0.4375,0.53125 z m 0,0"
             id="path132842" />
        </g>
      </g>
      <g
         fill="#ffffff"
         fill-opacity="1"
         id="g3660"
         transform="matrix(0.35277777,0,0,0.35277777,-265.96284,-261.76396)">
        <g
           id="use3658"
           transform="translate(656.93768,815.26306)">
          <path
             d="M 0.359375,-3.140625 H 5.34375 v 3.125 h 1.078125 v -3.125 h 1.96875 v -0.90625 h -1.96875 v -7.375 h -1.125 c -0.328125,0 -0.421875,0.40625 -0.59375,0.640625 -1.015625,1.625 -2.078125,3.203125 -3.125,4.828125 L 0.75,-4.671875 C 0.5625,-4.390625 0.359375,-4.15625 0.359375,-3.875 Z m 1.125,-0.90625 c 1.234375,-1.84375 2.4375,-3.71875 3.53125,-5.640625 0.125,-0.25 0.3125,-0.515625 0.359375,-0.796875 l 0.015625,6.4375 z m 0,0"
             id="path132870" />
        </g>
      </g>
      <g
         fill="#ffffff"
         fill-opacity="1"
         id="g3664"
         transform="matrix(0.35277777,0,0,0.35277777,-265.96284,-261.76396)">
        <g
           id="use3662"
           transform="translate(592.72552,735.17322)">
          <path
             d="M 0.359375,-3.140625 H 5.34375 v 3.125 h 1.078125 v -3.125 h 1.96875 v -0.90625 h -1.96875 v -7.375 h -1.125 c -0.328125,0 -0.421875,0.40625 -0.59375,0.640625 -1.015625,1.625 -2.078125,3.203125 -3.125,4.828125 L 0.75,-4.671875 C 0.5625,-4.390625 0.359375,-4.15625 0.359375,-3.875 Z m 1.125,-0.90625 c 1.234375,-1.84375 2.4375,-3.71875 3.53125,-5.640625 0.125,-0.25 0.3125,-0.515625 0.359375,-0.796875 l 0.015625,6.4375 z m 0,0"
             id="path132874" />
        </g>
      </g>
      <g
         id="use6384"
         transform="matrix(0.35277777,0,0,0.35277777,-53.834802,-2.378118)"
         style="fill:#ffffff;stroke:none">
        <path
           d="m 1.671875,-10.390625 v 0.875 c 0.828125,0 1.5625,-0.15625 2.359375,-0.5 V -0.875 h -2.25 v 0.859375 h 5.625 V -0.875 H 5.140625 v -10.640625 h -0.125 c -0.234375,0 -0.359375,0.21875 -0.53125,0.34375 -0.8125,0.578125 -1.828125,0.78125 -2.8125,0.78125 z m 0,0"
           id="path133701"
           style="fill:#ffffff;stroke:none" />
      </g>
    </g>
  </g>
  <g
     inkscape:label="Capa 1"
     inkscape:groupmode="layer"
     id="layer1"
     transform="translate(-25.949774,-102.1557)">
    <g
       id="g35216"
       transform="matrix(0.35277777,0,0,0.35277777,-11.847197,-22.263639)" />
  </g>
</svg>
