<?xml version="1.0" encoding="UTF-8" standalone="no"?>
<!-- Created with Inkscape (http://www.inkscape.org/) -->

<svg
   width="40.57357mm"
   height="40.569443mm"
   viewBox="0 0 40.573571 40.569443"
   version="1.1"
   id="svg35221"
   inkscape:version="1.2.1 (9c6d41e410, 2022-07-14)"
   sodipodi:docname="45.svg"
   xmlns:inkscape="http://www.inkscape.org/namespaces/inkscape"
   xmlns:sodipodi="http://sodipodi.sourceforge.net/DTD/sodipodi-0.dtd"
   xmlns="http://www.w3.org/2000/svg"
   xmlns:svg="http://www.w3.org/2000/svg">
  <sodipodi:namedview
     id="namedview35223"
     pagecolor="#ffffff"
     bordercolor="#000000"
     borderopacity="0.25"
     inkscape:showpageshadow="2"
     inkscape:pageopacity="0.0"
     inkscape:pagecheckerboard="0"
     inkscape:deskcolor="#d1d1d1"
     inkscape:document-units="mm"
     showgrid="false"
     inkscape:zoom="2.8284271"
     inkscape:cx="-100.23239"
     inkscape:cy="49.497475"
     inkscape:window-width="1920"
     inkscape:window-height="1009"
     inkscape:window-x="2552"
     inkscape:window-y="421"
     inkscape:window-maximized="1"
     inkscape:current-layer="g138476" />
  <defs
     id="defs35218" />
  <g
     inkscape:groupmode="layer"
     id="layer2"
     inkscape:label="Capa 2">
    <g
       id="g138476"
       transform="matrix(0.35277777,0,0,0.35277777,-378.01309,-251.86265)">
      <path
         fill-rule="nonzero"
         fill="#c8c850"
         fill-opacity="1"
         d="m 1071.5391,771.44141 v -51.75 c 0,-3.17188 2.5742,-5.75 5.75,-5.75 h 103.5 c 3.1757,0 5.75,2.57812 5.75,5.75 v 103.5 c 0,3.17578 -2.5743,5.75 -5.75,5.75 h -103.5 c -3.1758,0 -5.75,-2.57422 -5.75,-5.75"
         id="path4668"
         style="fill:#e76f51;fill-opacity:1" />
      <g
         fill="#ffffff"
         fill-opacity="1"
         id="g4672">
        <g
           id="use4670"
           transform="translate(1101.9178,771.4635)">
          <path
             d="M 3.90625,-29.78125 V -0.046875 H 10.0625 V -13.375 h 4.296875 l 0.421875,0.09375 0.59375,0.859375 7.078125,12.296875 0.515625,0.078125 H 28.75 l -8.0625,-13.75 C 24.46875,-14.4375 27.5,-17.1875 27.5,-21.34375 27.5,-24 26.3125,-26.515625 24.125,-27.9375 c -2.75,-1.796875 -6.171875,-1.84375 -9.34375,-1.84375 z m 6.15625,13.328125 V -26.09375 H 15.25 c 2.875,0 6.25,0.296875 6.25,4.796875 0,1.5 -0.25,3.21875 -1.828125,4.03125 -1.328125,0.765625 -2.96875,0.8125 -4.421875,0.8125 z m 0,0"
             id="path139111" />
        </g>
      </g>
      <g
         fill="#ffffff"
         fill-opacity="1"
         id="g4676">
        <g
           id="use4674"
           transform="translate(1132.0472,771.4635)">
          <path
             d="m 2.578125,-29.78125 v 29.734375 h 5.8125 v -11 c 0,-2.796875 0.78125,-6.609375 4.25,-6.609375 1.890625,0 3,0.90625 3,3.609375 0,0.546875 -0.04687,1.109375 -0.04687,1.625 v 12.375 H 21.42188 V -13.625 c 0,-1.546875 0,-3.25 -0.734375,-4.671875 -1.15625,-2.09375 -3.421875,-2.4375 -5.65625,-2.4375 -2.390625,0 -4.484375,1.15625 -5.859375,3 -0.34375,0.46875 -0.6875,0.9375 -0.859375,1.5 L 8.265625,-29.78125 Z m 0,0"
             id="path139115" />
        </g>
      </g>
      <g
         fill="#ffffff"
         fill-opacity="1"
         id="g4680">
        <g
           id="use4678"
           transform="translate(1098.3185,793.30359)">
          <path
             d="M 1.375,-11.96875 V -0.015625 H 2.5625 V -5.5625 h 3.046875 c 0.25,0 0.3125,0.234375 0.4375,0.421875 C 7.0625,-3.5625 8.171875,-2 9.171875,-0.40625 9.3125,-0.21875 9.390625,0 9.625,0 9.71875,0 9.796875,-0.015625 9.84375,-0.015625 h 0.8125 L 6.859375,-5.6875 C 8.40625,-5.96875 10.15625,-7.078125 10.15625,-8.75 v -0.09375 c -0.171875,-2.328125 -2.953125,-3.125 -4.8125,-3.125 z m 1.1875,5.546875 v -4.625 h 2.453125 c 1.15625,0 2.59375,0.03125 3.453125,0.953125 0.34375,0.375 0.546875,0.859375 0.546875,1.359375 0,0.765625 -0.46875,1.421875 -1.140625,1.796875 -0.890625,0.5 -1.90625,0.515625 -2.875,0.515625 z m 0,0"
             id="path139095" />
        </g>
      </g>
      <g
         fill="#ffffff"
         fill-opacity="1"
         id="g4684">
        <g
           id="use4682"
           transform="translate(1109.3657,793.30359)">
          <path
             d="m 1.109375,-11.96875 v 11.953125 h 1.09375 V -4.34375 c 0,-1.15625 0.234375,-3.046875 1.953125,-3.046875 0.59375,0 1.25,0.125 1.625,0.625 0.3125,0.390625 0.328125,0.90625 0.328125,1.390625 v 5.359375 H 7.21875 V -5.4375 C 7.21875,-6.078125 7.1875,-6.71875 6.875,-7.265625 6.421875,-8.046875 5.546875,-8.25 4.71875,-8.25 c -1.0625,0 -2.296875,0.828125 -2.515625,1.765625 L 2.1875,-11.96875 Z m 0,0"
             id="path139087" />
        </g>
      </g>
      <g
         fill="#ffffff"
         fill-opacity="1"
         id="g4688">
        <g
           id="use4686"
           transform="translate(1117.64,793.30359)">
          <path
             d="m 4.125,-8.296875 c -2.171875,0.21875 -3.5625,2.1875 -3.5625,4.234375 0,1.921875 1.359375,4.15625 3.828125,4.15625 2.1875,0 3.78125,-2.046875 3.78125,-4.140625 0,-2.0625 -1.421875,-4.25 -3.8125,-4.25 z M 1.671875,-3.90625 v -0.203125 c 0,-0.921875 0.15625,-1.9375 0.859375,-2.609375 0.5,-0.484375 1.171875,-0.71875 1.84375,-0.71875 1.8125,0 2.71875,1.53125 2.71875,3.265625 0,1.65625 -0.859375,3.359375 -2.71875,3.359375 -1,0 -1.8125,-0.53125 -2.296875,-1.390625 -0.265625,-0.53125 -0.34375,-1.125 -0.40625,-1.703125 z m 0,0"
             id="path139063" />
        </g>
      </g>
      <g
         fill="#ffffff"
         fill-opacity="1"
         id="g4692">
        <g
           id="use4690"
           transform="translate(1126.3943,793.30359)">
          <path
             d="m 6.125,-11.96875 v 4.859375 C 5.5625,-7.734375 5,-8.25 3.953125,-8.25 c -2.046875,0 -3.28125,2.171875 -3.28125,4.171875 0,1.921875 1.140625,4.171875 3.171875,4.171875 0.84375,0 1.890625,-0.5625 2.25,-1.328125 l 0.015625,1.21875 H 7.21875 V -11.96875 Z M 1.78125,-3.75 v -0.203125 c 0,-1.21875 0.28125,-2.515625 1.484375,-3.125 0.375,-0.1875 0.796875,-0.3125 1.21875,-0.3125 0.609375,0 1.5,0.421875 1.625,1.09375 v 4.0625 c 0,0.859375 -1.0625,1.453125 -1.765625,1.453125 -0.703125,0 -1.453125,-0.359375 -1.875,-0.890625 -0.5,-0.59375 -0.609375,-1.34375 -0.6875,-2.078125 z m 0,0"
             id="path139099" />
        </g>
      </g>
      <g
         fill="#ffffff"
         fill-opacity="1"
         id="g4696">
        <g
           id="use4694"
           transform="translate(1134.6686,793.30359)">
          <path
             d="m 1.109375,-8.140625 v 8.125 H 2.1875 v -8.125 z m 0,-3.828125 V -10.875 H 2.1875 v -1.09375 z m 0,0"
             id="path139059" />
        </g>
      </g>
      <g
         fill="#ffffff"
         fill-opacity="1"
         id="g4700">
        <g
           id="use4698"
           transform="translate(1137.9143,793.30359)">
          <path
             d="M 1.109375,-8.140625 V -2.3125 c 0,0.5 0.015625,1 0.21875,1.46875 0.328125,0.671875 1.015625,0.9375 1.71875,0.9375 1.15625,0 2.53125,-0.53125 3.0625,-1.609375 l 0.015625,1.5 h 1.09375 v -8.125 H 6.109375 v 4.125 C 6.109375,-3.75 6.125,-3.5 6.125,-3.234375 c 0,0.484375 -0.046875,0.96875 -0.28125,1.390625 -0.421875,0.703125 -1.15625,1.125 -2,1.125 -0.859375,0 -1.65625,0 -1.65625,-1.625 0,-0.25 0.015625,-0.515625 0.015625,-0.765625 v -5.03125 z m 0,0"
             id="path139051" />
        </g>
      </g>
      <g
         fill="#ffffff"
         fill-opacity="1"
         id="g4704">
        <g
           id="use4702"
           transform="translate(1146.1886,793.30359)">
          <path
             d="m 2.171875,-6.421875 v -1.71875 h -1.0625 v 8.125 h 1.09375 V -4.34375 c 0,-1.171875 0.234375,-3.046875 1.953125,-3.046875 0.59375,0 1.265625,0.125 1.640625,0.625 C 6.109375,-6.375 6.125,-5.859375 6.125,-5.375 v 5.359375 H 7.234375 V -4.34375 c 0,-1.171875 0.234375,-3.046875 1.9375,-3.046875 0.609375,0 1.28125,0.125 1.65625,0.625 0.3125,0.390625 0.328125,0.90625 0.328125,1.390625 v 5.359375 h 1.109375 v -4.5625 c 0,-0.296875 0.01563,-0.625 0.01563,-0.9375 0,-0.765625 -0.109375,-1.578125 -0.65625,-2.125 C 11.15625,-8.109375 10.4375,-8.25 9.796875,-8.25 8.578125,-8.25 7.640625,-7.453125 7.1875,-6.40625 6.90625,-7.640625 6.109375,-8.25 4.75,-8.25 c -1.09375,0 -2.25,0.78125 -2.578125,1.828125 z m 0,0"
             id="path139107" />
        </g>
      </g>
      <g
         fill="#ffffff"
         fill-opacity="1"
         id="g4708">
        <g
           id="use4706"
           transform="translate(1100.3582,815.26306)">
          <path
             d="m 1.671875,-10.390625 v 0.875 c 0.828125,0 1.5625,-0.15625 2.359375,-0.5 V -0.875 h -2.25 v 0.859375 h 5.625 V -0.875 H 5.140625 v -10.640625 h -0.125 c -0.234375,0 -0.359375,0.21875 -0.53125,0.34375 -0.8125,0.578125 -1.828125,0.78125 -2.8125,0.78125 z m 0,0"
             id="path139075" />
        </g>
      </g>
      <g
         fill="#ffffff"
         fill-opacity="1"
         id="g4712">
        <g
           id="use4710"
           transform="translate(1109.1124,815.26306)">
          <path
             d="m 4.125,-11.515625 c -3.21875,0.3125 -3.375,3.984375 -3.375,5.90625 0,2.328125 0.46875,5.796875 3.625,5.796875 h 0.21875 c 2.359375,-0.296875 3.390625,-2.265625 3.390625,-5.90625 0,-1.59375 -0.125,-3.515625 -1.203125,-4.734375 -0.59375,-0.671875 -1.5,-1.078125 -2.390625,-1.078125 -0.078125,0 -0.171875,0.01563 -0.265625,0.01563 z M 1.859375,-4.875 C 1.84375,-5.015625 1.84375,-5.171875 1.84375,-5.296875 V -5.625 c 0,-2.15625 0.0625,-5.03125 2.546875,-5.03125 2.484375,0 2.5,3.078125 2.5,4.734375 v 0.8125 c 0,1.453125 -0.09375,3.21875 -1.28125,4.046875 C 5.25,-0.8125 4.828125,-0.671875 4.390625,-0.671875 3.6875,-0.671875 2.984375,-1.03125 2.5625,-1.65625 2.078125,-2.375 1.96875,-3.34375 1.890625,-4.203125 1.875,-4.421875 1.890625,-4.65625 1.859375,-4.875 Z m 0,0"
             id="path139067" />
        </g>
      </g>
      <g
         fill="#ffffff"
         fill-opacity="1"
         id="g4716">
        <g
           id="use4714"
           transform="translate(1117.8667,815.26306)">
          <path
             d="m 1.25,-7.921875 c 0.3125,-1.25 0.921875,-2.6875 2.640625,-2.6875 1.46875,0 2.96875,0.890625 2.96875,2.578125 0,1.9375 -1.8125,3.265625 -3.125,4.359375 C 2.875,-2.9375 2.03125,-2.140625 1.21875,-1.359375 L 0.9375,-1.078125 C 0.828125,-0.984375 0.75,-0.9375 0.75,-0.75 v 0.734375 h 7.234375 v -0.96875 H 1.75 c 0.4375,-0.40625 0.90625,-0.8125 1.34375,-1.203125 0.609375,-0.53125 1.1875,-1.078125 1.8125,-1.578125 1.359375,-1.109375 3.078125,-2.328125 3.078125,-4.3125 0,-2 -1.671875,-3.375 -3.65625,-3.4375 h -0.125 c -1.46875,0 -2.796875,0.609375 -3.453125,2.40625 C 0.703125,-9.015625 0.640625,-8.875 0.640625,-8.75 v 0.03125 C 0.65625,-8.609375 0.75,-8.515625 0.8125,-8.453125 c 0.140625,0.171875 0.265625,0.375 0.4375,0.53125 z m 0,0"
             id="path139055" />
        </g>
      </g>
      <g
         fill="#ffffff"
         fill-opacity="1"
         id="g4720">
        <g
           id="use4718"
           transform="translate(1126.621,815.26306)">
          <path
             d="m 1.703125,-1.359375 v 1.34375 h 1.34375 v -1.34375 z m 0,0"
             id="path139047" />
        </g>
      </g>
      <g
         fill="#ffffff"
         fill-opacity="1"
         id="g4724">
        <g
           id="use4722"
           transform="translate(1131.3009,815.26306)">
          <path
             d="M 6.796875,-5.671875 H 6.8125 c 0,1.859375 -0.40625,4.96875 -3.296875,4.96875 C 2.75,-0.703125 2.1875,-1 1.625,-1.390625 l -0.453125,0.78125 C 1.890625,-0.0625 2.703125,0.1875 3.59375,0.1875 c 2.9375,0 4.359375,-3.359375 4.359375,-5.796875 0,-2.015625 -0.234375,-4.8125 -2.421875,-5.703125 -0.359375,-0.140625 -0.765625,-0.203125 -1.15625,-0.203125 -2.1875,0 -3.578125,2 -3.578125,3.96875 0,1.796875 0.859375,3.90625 2.921875,3.90625 1.234375,0 2.703125,-0.875 3.078125,-2.03125 z M 6.75,-7.578125 c -0.015625,0.046875 -0.015625,0.109375 -0.015625,0.15625 0,0.125 0.015625,0.21875 0.015625,0.34375 v 0.09375 C 6.640625,-5.625 5.640625,-4.5 4.171875,-4.5 3.4375,-4.5 2.84375,-4.78125 2.40625,-5.390625 1.984375,-5.984375 1.921875,-6.71875 1.921875,-7.4375 c 0,-1.328125 0.265625,-3.21875 2.484375,-3.21875 1.640625,0 2.34375,1.703125 2.34375,2.953125 z m 0,0"
             id="path139103" />
        </g>
      </g>
      <g
         fill="#ffffff"
         fill-opacity="1"
         id="g4728">
        <g
           id="use4726"
           transform="translate(1140.0552,815.26306)">
          <path
             d="m 1.671875,-10.390625 v 0.875 c 0.828125,0 1.5625,-0.15625 2.359375,-0.5 V -0.875 h -2.25 v 0.859375 h 5.625 V -0.875 H 5.140625 v -10.640625 h -0.125 c -0.234375,0 -0.359375,0.21875 -0.53125,0.34375 -0.8125,0.578125 -1.828125,0.78125 -2.8125,0.78125 z m 0,0"
             id="path139079" />
        </g>
      </g>
      <g
         fill="#ffffff"
         fill-opacity="1"
         id="g4732">
        <g
           id="use4730"
           transform="translate(1148.8094,815.26306)">
          <path
             d="m 4.125,-11.515625 c -3.21875,0.3125 -3.375,3.984375 -3.375,5.90625 0,2.328125 0.46875,5.796875 3.625,5.796875 h 0.21875 c 2.359375,-0.296875 3.390625,-2.265625 3.390625,-5.90625 0,-1.59375 -0.125,-3.515625 -1.203125,-4.734375 -0.59375,-0.671875 -1.5,-1.078125 -2.390625,-1.078125 -0.078125,0 -0.171875,0.01563 -0.265625,0.01563 z M 1.859375,-4.875 C 1.84375,-5.015625 1.84375,-5.171875 1.84375,-5.296875 V -5.625 c 0,-2.15625 0.0625,-5.03125 2.546875,-5.03125 2.484375,0 2.5,3.078125 2.5,4.734375 v 0.8125 c 0,1.453125 -0.09375,3.21875 -1.28125,4.046875 C 5.25,-0.8125 4.828125,-0.671875 4.390625,-0.671875 3.6875,-0.671875 2.984375,-1.03125 2.5625,-1.65625 2.078125,-2.375 1.96875,-3.34375 1.890625,-4.203125 1.875,-4.421875 1.890625,-4.65625 1.859375,-4.875 Z m 0,0"
             id="path139071" />
        </g>
      </g>
      <g
         fill="#ffffff"
         fill-opacity="1"
         id="g4736">
        <g
           id="use4734"
           transform="translate(1080.2828,735.17322)">
          <path
             d="M 0.359375,-3.140625 H 5.34375 v 3.125 h 1.078125 v -3.125 h 1.96875 v -0.90625 h -1.96875 v -7.375 h -1.125 c -0.328125,0 -0.421875,0.40625 -0.59375,0.640625 -1.015625,1.625 -2.078125,3.203125 -3.125,4.828125 L 0.75,-4.671875 C 0.5625,-4.390625 0.359375,-4.15625 0.359375,-3.875 Z m 1.125,-0.90625 c 1.234375,-1.84375 2.4375,-3.71875 3.53125,-5.640625 0.125,-0.25 0.3125,-0.515625 0.359375,-0.796875 l 0.015625,6.4375 z m 0,0"
             id="path139091" />
        </g>
      </g>
      <g
         fill="#ffffff"
         fill-opacity="1"
         id="g4740">
        <g
           id="use4738"
           transform="translate(1089.0371,735.17322)">
          <path
             d="m 1.453125,-11.3125 v 6.171875 h 0.78125 c 0.203125,0 0.25,-0.140625 0.328125,-0.265625 0.5,-0.65625 1.296875,-0.9375 2.0625,-0.9375 1.671875,0 2.15625,1.5 2.15625,2.734375 0,0.734375 -0.125,1.5625 -0.671875,2.109375 C 5.59375,-0.953125 4.875,-0.703125 4.125,-0.703125 c -1.203125,0 -2.28125,-0.625 -2.9375,-1.609375 H 1.171875 c -0.15625,0.25 -0.453125,0.625 -0.453125,0.796875 0,0.15625 0.28125,0.375 0.40625,0.5 0.78125,0.75 1.859375,1.203125 2.953125,1.203125 2.015625,0 3.890625,-1.515625 3.890625,-3.75 0,-1.671875 -1.140625,-3.640625 -3.359375,-3.640625 -0.796875,0 -1.515625,0.328125 -2.109375,0.8125 v -4.015625 h 4.890625 v -0.90625 z m 0,0"
             id="path139083" />
        </g>
      </g>
    </g>
  </g>
  <g
     inkscape:label="Capa 1"
     inkscape:groupmode="layer"
     id="layer1"
     transform="translate(-25.949774,-102.1557)">
    <g
       id="g35216"
       transform="matrix(0.35277777,0,0,0.35277777,-11.847197,-22.263639)" />
  </g>
</svg>
