<?xml version="1.0" encoding="UTF-8" standalone="no"?>
<!-- Created with Inkscape (http://www.inkscape.org/) -->

<svg
   width="40.57357mm"
   height="40.569443mm"
   viewBox="0 0 40.573571 40.569443"
   version="1.1"
   id="svg35221"
   inkscape:version="1.2.1 (9c6d41e410, 2022-07-14)"
   sodipodi:docname="47.svg"
   xmlns:inkscape="http://www.inkscape.org/namespaces/inkscape"
   xmlns:sodipodi="http://sodipodi.sourceforge.net/DTD/sodipodi-0.dtd"
   xmlns="http://www.w3.org/2000/svg"
   xmlns:svg="http://www.w3.org/2000/svg">
  <sodipodi:namedview
     id="namedview35223"
     pagecolor="#ffffff"
     bordercolor="#000000"
     borderopacity="0.25"
     inkscape:showpageshadow="2"
     inkscape:pageopacity="0.0"
     inkscape:pagecheckerboard="0"
     inkscape:deskcolor="#d1d1d1"
     inkscape:document-units="mm"
     showgrid="false"
     inkscape:zoom="2.8284271"
     inkscape:cx="-100.23239"
     inkscape:cy="49.497475"
     inkscape:window-width="1920"
     inkscape:window-height="1009"
     inkscape:window-x="2552"
     inkscape:window-y="421"
     inkscape:window-maximized="1"
     inkscape:current-layer="g140814" />
  <defs
     id="defs35218" />
  <g
     inkscape:groupmode="layer"
     id="layer2"
     inkscape:label="Capa 2">
    <g
       id="g140814"
       transform="matrix(0.35277777,0,0,0.35277777,-464.01299,-251.86265)">
      <path
         fill-rule="nonzero"
         fill="#c8c850"
         fill-opacity="1"
         d="m 1315.3203,771.44141 v -51.75 c 0,-3.17188 2.5742,-5.75 5.75,-5.75 h 103.4961 c 3.1758,0 5.75,2.57812 5.75,5.75 v 103.5 c 0,3.17578 -2.5742,5.75 -5.75,5.75 h -103.4961 c -3.1758,0 -5.75,-2.57422 -5.75,-5.75"
         id="path5100"
         style="fill:#e76f51;fill-opacity:1" />
      <g
         fill="#ffffff"
         fill-opacity="1"
         id="g5104">
        <g
           id="use5102"
           transform="translate(1345.0974,771.4635)">
          <path
             d="m 11.703125,-29.78125 -10.375,29.734375 H 7.03125 l 0.25,-0.46875 2.0625,-6 h 10.921875 l 0.90625,0.09375 0.671875,1.671875 1.640625,4.703125 H 30.03125 L 19.671875,-29.78125 Z m -1.03125,19.578125 4.0625,-12.125 0.609375,-2.09375 1.453125,4.96875 3.171875,9.25 z m 0,0"
             id="path141381" />
        </g>
      </g>
      <g
         fill="#ffffff"
         fill-opacity="1"
         id="g5108">
        <g
           id="use5106"
           transform="translate(1376.5229,771.4635)">
          <path
             d="m 15.515625,-5.234375 0.03125,4.71875 c 0,2.359375 -0.34375,5.53125 -3.9375,5.53125 C 9.515625,5.015625 7.375,4.578125 5.53125,3.5625 4.71875,3.078125 4.03125,2.484375 3.25,2.015625 v 2.875 c 0,0.171875 -0.03125,0.34375 -0.03125,0.546875 0,1.671875 5.5625,2.484375 6.59375,2.578125 0.640625,0.03125 1.234375,0.078125 1.890625,0.078125 3,0 6.46875,-0.515625 8.3125,-3.171875 1.1875,-1.75 1.40625,-3.84375 1.40625,-5.90625 0,-0.90625 -0.04687,-1.84375 -0.04687,-2.703125 v -17.046875 h -5.6875 v 3 c -1.375,-1.765625 -2.921875,-3 -5.453125,-3 -2.4375,0 -5.046875,0.859375 -6.59375,2.828125 -1.625,2.046875 -2.0625,4.75 -2.0625,7.359375 0,2.1875 0.171875,4.46875 1.421875,6.34375 1.5,2.3125 4.28125,3.125 6.9375,3.125 2.40625,0 4.890625,-1.75 5.578125,-4.15625 z M 15.546875,-10.75 c 0,2.5625 -0.640625,6.59375 -3.9375,6.59375 -1.5,0 -2.734375,-0.765625 -3.46875,-2.09375 C 7.40625,-7.671875 7.40625,-9.296875 7.40625,-10.84375 c 0,-3 1.125,-6.8125 4.796875,-6.8125 1.765625,0 3.484375,1.421875 3.484375,3.171875 V -10.75 Z m 0,0"
             id="path141425" />
        </g>
      </g>
      <g
         fill="#ffffff"
         fill-opacity="1"
         id="g5112">
        <g
           id="use5110"
           transform="translate(1354.3372,793.30359)">
          <path
             d="m 0.875,-2.203125 c -0.046875,0.359375 -0.1875,0.78125 -0.1875,1.09375 0,0.296875 1.265625,0.78125 1.96875,0.984375 0.671875,0.1875 1.359375,0.3125 2.0625,0.3125 1.484375,0 3.25,-0.59375 3.9375,-2.265625 0.15625,-0.359375 0.25,-0.765625 0.25,-1.15625 C 8.90625,-4.578125 8,-5.75 6.8125,-6.296875 6.203125,-6.578125 5.515625,-6.703125 4.84375,-6.875 3.765625,-7.140625 1.953125,-7.4375 1.953125,-9.09375 c 0,-1.46875 1.78125,-2.140625 2.9375,-2.140625 0.6875,0 1.390625,0.109375 2.015625,0.40625 0.40625,0.1875 0.75,0.46875 1.140625,0.703125 0.03125,-0.359375 0.1875,-0.71875 0.1875,-1.078125 0,-0.328125 -1.265625,-0.71875 -1.9375,-0.84375 C 5.875,-12.140625 5.4375,-12.171875 5,-12.171875 c -1.625,0 -3.53125,0.671875 -4.046875,2.546875 -0.0625,0.203125 -0.09375,0.40625 -0.09375,0.640625 0,1.40625 1.046875,2.4375 2.25,2.90625 C 4.84375,-5.421875 7.8125,-5.640625 7.8125,-3 c -0.140625,1.453125 -1.640625,2.21875 -2.953125,2.21875 -0.984375,0 -2,-0.25 -2.875,-0.703125 C 1.578125,-1.6875 1.234375,-1.96875 0.875,-2.203125 Z m 0,0"
             id="path141369" />
        </g>
      </g>
      <g
         fill="#ffffff"
         fill-opacity="1"
         id="g5116">
        <g
           id="use5114"
           transform="translate(1364.0629,793.30359)">
          <path
             d="m 1.109375,-8.140625 v 8.125 H 2.1875 v -8.125 z m 0,-3.828125 V -10.875 H 2.1875 v -1.09375 z m 0,0"
             id="path141373" />
        </g>
      </g>
      <g
         fill="#ffffff"
         fill-opacity="1"
         id="g5120">
        <g
           id="use5118"
           transform="translate(1367.3087,793.30359)">
          <path
             d="M 1.109375,-11.96875 V -0.015625 H 2.1875 V -11.96875 Z m 0,0"
             id="path141417" />
        </g>
      </g>
      <g
         fill="#ffffff"
         fill-opacity="1"
         id="g5124">
        <g
           id="use5122"
           transform="translate(1370.5543,793.30359)">
          <path
             d="m 0.125,-8.140625 c 0.15625,0.59375 0.421875,1.203125 0.625,1.78125 0.65625,1.84375 1.34375,3.6875 1.96875,5.53125 0.140625,0.34375 0.171875,0.84375 0.46875,0.84375 H 4.234375 C 4.3125,-0.015625 4.328125,-0.0625 4.34375,-0.140625 L 4.453125,-0.46875 c 0.90625,-2.25 1.609375,-4.5625 2.453125,-6.828125 0.109375,-0.28125 0.21875,-0.5625 0.296875,-0.84375 H 6.125 L 3.6875,-1.125 1.1875,-8.109375 0.875,-8.140625 Z m 0,0"
             id="path141401" />
        </g>
      </g>
      <g
         fill="#ffffff"
         fill-opacity="1"
         id="g5128">
        <g
           id="use5126"
           transform="translate(1377.8744,793.30359)">
          <path
             d="m 7.203125,-1.90625 c -0.84375,0.625 -1.625,1.125 -2.71875,1.125 -1.6875,0 -2.84375,-1.53125 -2.84375,-3.546875 h 5.6875 c 0,-1.8125 -0.75,-3.96875 -3.15625,-3.96875 -2.34375,0 -3.5625,2.265625 -3.5625,4.28125 V -3.9375 c 0.03125,2.03125 1.578125,4.03125 3.78125,4.03125 0.953125,0 1.890625,-0.328125 2.65625,-0.890625 0.09375,-0.078125 0.234375,-0.15625 0.234375,-0.3125 0,-0.0625 -0.015625,-0.109375 -0.03125,-0.171875 -0.015625,-0.203125 -0.03125,-0.421875 -0.046875,-0.625 z M 1.71875,-5 c 0.265625,-1.125 1.046875,-2.4375 2.390625,-2.4375 1.140625,0 1.9375,0.796875 2.203125,1.859375 C 6.359375,-5.390625 6.375,-5.1875 6.421875,-5 Z m 0,0"
             id="path141389" />
        </g>
      </g>
      <g
         fill="#ffffff"
         fill-opacity="1"
         id="g5132">
        <g
           id="use5130"
           transform="translate(1385.6743,793.30359)">
          <path
             d="M 2.15625,-5.96875 V -8.140625 H 1.109375 v 8.125 H 2.1875 V -3.9375 c 0,-1.203125 0.34375,-2.53125 2.09375,-3.15625 0.375,-0.125 0.75,-0.1875 1.125,-0.1875 V -8.25 c -1.09375,0 -2.125,0.53125 -2.765625,1.421875 -0.203125,0.25 -0.40625,0.546875 -0.484375,0.859375 z m 0,0"
             id="path141393" />
        </g>
      </g>
      <g
         fill="#ffffff"
         fill-opacity="1"
         id="g5136">
        <g
           id="use5134"
           transform="translate(1348.5775,815.26306)">
          <path
             d="m 1.671875,-10.390625 v 0.875 c 0.828125,0 1.5625,-0.15625 2.359375,-0.5 V -0.875 h -2.25 v 0.859375 h 5.625 V -0.875 H 5.140625 v -10.640625 h -0.125 c -0.234375,0 -0.359375,0.21875 -0.53125,0.34375 -0.8125,0.578125 -1.828125,0.78125 -2.8125,0.78125 z m 0,0"
             id="path141385" />
        </g>
      </g>
      <g
         fill="#ffffff"
         fill-opacity="1"
         id="g5140">
        <g
           id="use5138"
           transform="translate(1357.3315,815.26306)">
          <path
             d="m 4.125,-11.515625 c -3.21875,0.3125 -3.375,3.984375 -3.375,5.90625 0,2.328125 0.46875,5.796875 3.625,5.796875 h 0.21875 c 2.359375,-0.296875 3.390625,-2.265625 3.390625,-5.90625 0,-1.59375 -0.125,-3.515625 -1.203125,-4.734375 -0.59375,-0.671875 -1.5,-1.078125 -2.390625,-1.078125 -0.078125,0 -0.171875,0.01563 -0.265625,0.01563 z M 1.859375,-4.875 C 1.84375,-5.015625 1.84375,-5.171875 1.84375,-5.296875 V -5.625 c 0,-2.15625 0.0625,-5.03125 2.546875,-5.03125 2.484375,0 2.5,3.078125 2.5,4.734375 v 0.8125 c 0,1.453125 -0.09375,3.21875 -1.28125,4.046875 C 5.25,-0.8125 4.828125,-0.671875 4.390625,-0.671875 3.6875,-0.671875 2.984375,-1.03125 2.5625,-1.65625 2.078125,-2.375 1.96875,-3.34375 1.890625,-4.203125 1.875,-4.421875 1.890625,-4.65625 1.859375,-4.875 Z m 0,0"
             id="path141377" />
        </g>
      </g>
      <g
         fill="#ffffff"
         fill-opacity="1"
         id="g5144">
        <g
           id="use5142"
           transform="translate(1366.0859,815.26306)">
          <path
             d="m 0.625,-11.3125 v 0.96875 h 6.75 C 6.5625,-9.546875 5.8125,-8.75 5.1875,-7.796875 3.640625,-5.46875 2.796875,-2.703125 2.796875,0.09375 H 3.9375 c 0,-3.78125 1.4375,-7.25 3.859375,-10.125 C 7.953125,-10.1875 8.125,-10.3125 8.125,-10.5625 v -0.75 z m 0,0"
             id="path141405" />
        </g>
      </g>
      <g
         fill="#ffffff"
         fill-opacity="1"
         id="g5148">
        <g
           id="use5146"
           transform="translate(1374.8401,815.26306)">
          <path
             d="m 1.703125,-1.359375 v 1.34375 h 1.34375 v -1.34375 z m 0,0"
             id="path141365" />
        </g>
      </g>
      <g
         fill="#ffffff"
         fill-opacity="1"
         id="g5152">
        <g
           id="use5150"
           transform="translate(1379.52,815.26306)">
          <path
             d="m 3.21875,-6.125 v 0.015625 C 1.90625,-5.71875 0.625,-4.78125 0.625,-3.1875 c 0,2.078125 1.953125,3.375 3.828125,3.375 H 4.53125 C 6.3125,0.15625 8.125,-1.25 8.125,-3.171875 c 0,-1.5 -1.21875,-2.5625 -2.59375,-2.9375 0.921875,-0.34375 2.359375,-0.9375 2.359375,-2.5 0,-1.75 -1.796875,-2.90625 -3.515625,-2.90625 -1.609375,0 -3.515625,1.046875 -3.515625,2.890625 v 0.140625 C 0.96875,-7.28125 2.15625,-6.28125 3.21875,-6.125 Z M 1.75,-2.96875 c 0,-0.0625 -0.015625,-0.140625 -0.015625,-0.21875 0,-1.46875 1.109375,-2.5 2.640625,-2.5 1.421875,0 2.609375,0.90625 2.609375,2.484375 0,1.578125 -1.125,2.5 -2.59375,2.5 C 2.96875,-0.703125 1.921875,-1.5 1.75,-2.96875 Z m 0.140625,-5.453125 v -0.15625 c 0,-1.5625 1.296875,-2.078125 2.453125,-2.078125 1.109375,0 2.359375,0.40625 2.515625,1.875 V -8.625 c 0,1.53125 -1.296875,2.078125 -2.46875,2.078125 -1.1875,0 -2.328125,-0.546875 -2.5,-1.875 z m 0,0"
             id="path141421" />
        </g>
      </g>
      <g
         fill="#ffffff"
         fill-opacity="1"
         id="g5156">
        <g
           id="use5154"
           transform="translate(1388.2742,815.26306)">
          <path
             d="m 0.625,-11.3125 v 0.96875 h 6.75 C 6.5625,-9.546875 5.8125,-8.75 5.1875,-7.796875 3.640625,-5.46875 2.796875,-2.703125 2.796875,0.09375 H 3.9375 c 0,-3.78125 1.4375,-7.25 3.859375,-10.125 C 7.953125,-10.1875 8.125,-10.3125 8.125,-10.5625 v -0.75 z m 0,0"
             id="path141409" />
        </g>
      </g>
      <g
         fill="#ffffff"
         fill-opacity="1"
         id="g5160">
        <g
           id="use5158"
           transform="translate(1324.0623,735.17322)">
          <path
             d="M 0.359375,-3.140625 H 5.34375 v 3.125 h 1.078125 v -3.125 h 1.96875 v -0.90625 h -1.96875 v -7.375 h -1.125 c -0.328125,0 -0.421875,0.40625 -0.59375,0.640625 -1.015625,1.625 -2.078125,3.203125 -3.125,4.828125 L 0.75,-4.671875 C 0.5625,-4.390625 0.359375,-4.15625 0.359375,-3.875 Z m 1.125,-0.90625 c 1.234375,-1.84375 2.4375,-3.71875 3.53125,-5.640625 0.125,-0.25 0.3125,-0.515625 0.359375,-0.796875 l 0.015625,6.4375 z m 0,0"
             id="path141397" />
        </g>
      </g>
      <g
         fill="#ffffff"
         fill-opacity="1"
         id="g5164">
        <g
           id="use5162"
           transform="translate(1332.8164,735.17322)">
          <path
             d="m 0.625,-11.3125 v 0.96875 h 6.75 C 6.5625,-9.546875 5.8125,-8.75 5.1875,-7.796875 3.640625,-5.46875 2.796875,-2.703125 2.796875,0.09375 H 3.9375 c 0,-3.78125 1.4375,-7.25 3.859375,-10.125 C 7.953125,-10.1875 8.125,-10.3125 8.125,-10.5625 v -0.75 z m 0,0"
             id="path141413" />
        </g>
      </g>
    </g>
  </g>
  <g
     inkscape:label="Capa 1"
     inkscape:groupmode="layer"
     id="layer1"
     transform="translate(-25.949774,-102.1557)">
    <g
       id="g35216"
       transform="matrix(0.35277777,0,0,0.35277777,-11.847197,-22.263639)" />
  </g>
</svg>
