<?xml version="1.0" encoding="UTF-8" standalone="no"?>
<!-- Created with Inkscape (http://www.inkscape.org/) -->

<svg
   width="40.568066mm"
   height="40.569443mm"
   viewBox="0 0 40.568066 40.569443"
   version="1.1"
   id="svg35221"
   inkscape:version="1.2.1 (9c6d41e410, 2022-07-14)"
   sodipodi:docname="4_clicked.svg"
   xmlns:inkscape="http://www.inkscape.org/namespaces/inkscape"
   xmlns:sodipodi="http://sodipodi.sourceforge.net/DTD/sodipodi-0.dtd"
   xmlns="http://www.w3.org/2000/svg"
   xmlns:svg="http://www.w3.org/2000/svg">
  <sodipodi:namedview
     id="namedview35223"
     pagecolor="#ffffff"
     bordercolor="#000000"
     borderopacity="0.25"
     inkscape:showpageshadow="2"
     inkscape:pageopacity="0.0"
     inkscape:pagecheckerboard="0"
     inkscape:deskcolor="#d1d1d1"
     inkscape:document-units="mm"
     showgrid="false"
     inkscape:zoom="2.1543544"
     inkscape:cx="81.927096"
     inkscape:cy="117.43657"
     inkscape:window-width="1920"
     inkscape:window-height="1009"
     inkscape:window-x="2552"
     inkscape:window-y="421"
     inkscape:window-maximized="1"
     inkscape:current-layer="g35216" />
  <defs
     id="defs35218" />
  <g
     inkscape:label="Capa 1"
     inkscape:groupmode="layer"
     id="layer1"
     transform="translate(-65.1686,-100.59949)">
    <g
       id="g35216"
       transform="matrix(0.35277777,0,0,0.35277777,-11.847197,-22.263639)">
      <path
         fill-rule="nonzero"
         fill="#46a046"
         fill-opacity="1"
         d="m 218.3125,405.77344 v -51.75 c 0,-3.17578 2.57422,-5.75 5.75,-5.75 h 103.5 c 3.17187,0 5.74609,2.57422 5.74609,5.75 v 103.5 c 0,3.17187 -2.57422,5.75 -5.74609,5.75 h -103.5 c -3.17578,0 -5.75,-2.57813 -5.75,-5.75"
         id="path2582"
         style="fill:#a1c181;fill-opacity:1" />
      <g
         fill="#ffffff"
         fill-opacity="1"
         id="g2586">
        <g
           id="use2584"
           transform="translate(249.17253,405.79422)">
          <path
             d="m 3.90625,-29.78125 v 29.734375 h 12.078125 c 4.96875,0 12.765625,-0.34375 12.765625,-8.171875 0,-4.546875 -3.59375,-6.90625 -7.546875,-7.375 1.71875,-0.5625 3.515625,-0.984375 4.71875,-2.4375 1.03125,-1.203125 1.5,-2.65625 1.5,-4.15625 0,-2.625 -1.375,-4.96875 -3.9375,-6.265625 -2.578125,-1.28125 -5.53125,-1.328125 -8.3125,-1.328125 z M 9.9375,-3.734375 V -13.96875 h 4.765625 c 1.96875,0 4.0625,0.09375 5.78125,1.109375 1.453125,0.90625 2.34375,2.65625 2.34375,4.375 0,1.5 -0.71875,2.953125 -2.09375,3.765625 -1.578125,0.953125 -3.515625,0.984375 -5.265625,0.984375 z m 0,-13.3125 v -9.046875 c 1.15625,0 2.265625,-0.04687 3.4375,-0.04687 h 0.5 c 2.96875,0 7.71875,0.140625 7.71875,4.25 0,4.109375 -4.203125,4.84375 -7.453125,4.84375 z m 0,0"
             id="path37795" />
        </g>
      </g>
      <g
         fill="#ffffff"
         fill-opacity="1"
         id="g2590">
        <g
           id="use2588"
           transform="translate(280.59808,405.79422)">
          <path
             d="m 19.921875,-5.5625 c -2.265625,1.453125 -4.28125,2.90625 -7.453125,2.90625 -3.5625,0 -5.703125,-2.09375 -5.703125,-8.09375 H 20.5625 c 0,-4.765625 -1.203125,-10.25 -8.859375,-10.25 -2.796875,0 -5.828125,0.609375 -7.84375,2.65625 -2.109375,2.1875 -2.578125,5.3125 -2.578125,8.234375 v 0.390625 c 0.046875,5.34375 2.75,10.140625 10.890625,10.140625 2.53125,0 4.875,-0.59375 7.1875,-1.625 C 19.671875,-1.375 20.21875,-1.5 20.21875,-1.890625 l -0.04687,-0.84375 z M 6.9375,-13.03125 c 0.21875,-2.484375 1.890625,-4.875 4.625,-4.875 2.96875,0 3.953125,2.65625 4.15625,4.875 z m 0,0"
             id="path37791" />
        </g>
      </g>
      <g
         fill="#ffffff"
         fill-opacity="1"
         id="g2594">
        <g
           id="use2592"
           transform="translate(244.01277,427.63428)">
          <path
             d="m 1.390625,-11.96875 v 11.953125 h 4.34375 c 1.53125,0 3.078125,-0.34375 4.09375,-1.546875 C 10.234375,-2 10.46875,-2.5625 10.5,-3.15625 10.5,-5.125 8.484375,-5.984375 6.921875,-6.265625 8.15625,-6.625 10,-7.296875 10,-9 c 0,-1.125 -0.984375,-1.96875 -1.890625,-2.421875 -0.71875,-0.359375 -1.53125,-0.5 -2.34375,-0.546875 z M 2.546875,-0.9375 V -5.796875 H 5.09375 c 1.03125,0 1.96875,0.171875 2.84375,0.609375 0.6875,0.359375 1.421875,1.03125 1.421875,1.875 0,1.734375 -2.296875,2.3125 -3.609375,2.375 z m 0,-5.71875 v -4.390625 H 5.25 c 1.375,0 3.640625,0.609375 3.640625,2.109375 0,1.5625 -2.203125,2.1875 -3.609375,2.28125 z m 0,0"
             id="path37779" />
        </g>
      </g>
      <g
         fill="#ffffff"
         fill-opacity="1"
         id="g2598">
        <g
           id="use2596"
           transform="translate(255.40565,427.63428)">
          <path
             d="m 7.203125,-1.90625 c -0.84375,0.625 -1.625,1.125 -2.71875,1.125 -1.6875,0 -2.84375,-1.53125 -2.84375,-3.546875 h 5.6875 c 0,-1.8125 -0.75,-3.96875 -3.15625,-3.96875 -2.34375,0 -3.5625,2.265625 -3.5625,4.28125 V -3.9375 c 0.03125,2.03125 1.578125,4.03125 3.78125,4.03125 0.953125,0 1.890625,-0.328125 2.65625,-0.890625 0.09375,-0.078125 0.234375,-0.15625 0.234375,-0.3125 0,-0.0625 -0.015625,-0.109375 -0.03125,-0.171875 -0.015625,-0.203125 -0.03125,-0.421875 -0.046875,-0.625 z M 1.71875,-5 c 0.265625,-1.125 1.046875,-2.4375 2.390625,-2.4375 1.140625,0 1.9375,0.796875 2.203125,1.859375 C 6.359375,-5.390625 6.375,-5.1875 6.421875,-5 Z m 0,0"
             id="path37759" />
        </g>
      </g>
      <g
         fill="#ffffff"
         fill-opacity="1"
         id="g2602">
        <g
           id="use2600"
           transform="translate(263.20563,427.63428)">
          <path
             d="M 2.15625,-5.96875 V -8.140625 H 1.109375 v 8.125 H 2.1875 V -3.9375 c 0,-1.203125 0.34375,-2.53125 2.09375,-3.15625 0.375,-0.125 0.75,-0.1875 1.125,-0.1875 V -8.25 c -1.09375,0 -2.125,0.53125 -2.765625,1.421875 -0.203125,0.25 -0.40625,0.546875 -0.484375,0.859375 z m 0,0"
             id="path37763" />
        </g>
      </g>
      <g
         fill="#ffffff"
         fill-opacity="1"
         id="g2606">
        <g
           id="use2604"
           transform="translate(268.72849,427.63428)">
          <path
             d="m 0.125,-8.140625 c 0.078125,0.28125 0.203125,0.5625 0.328125,0.84375 C 1.234375,-5.09375 2.171875,-2.921875 3,-0.75 l 0.171875,0.421875 c 0.03125,0.09375 0.078125,0.1875 0.09375,0.28125 v 0.03125 c 0,0.078125 -0.03125,0.171875 -0.0625,0.234375 l -0.1875,0.5 c -0.25,0.703125 -0.640625,1.375 -1.46875,1.375 -0.46875,0 -0.9375,-0.109375 -1.40625,-0.21875 L 0.21875,2.84375 c 0.453125,0.0625 0.90625,0.125 1.34375,0.125 1.359375,0 2,-1.234375 2.421875,-2.328125 0.171875,-0.5 0.359375,-0.984375 0.53125,-1.484375 L 6.875,-7.25 c 0.109375,-0.296875 0.234375,-0.578125 0.328125,-0.890625 h -0.9375 c -0.171875,0 -0.171875,0.09375 -0.203125,0.203125 l -0.140625,0.359375 c -0.53125,1.359375 -1,2.78125 -1.484375,4.15625 C 4.171875,-2.671875 3.890625,-1.90625 3.75,-1.125 3.21875,-3.328125 2.234375,-5.515625 1.421875,-7.609375 l -0.125,-0.34375 c -0.0625,-0.140625 -0.09375,-0.1875 -0.25,-0.1875 z m 0,0"
             id="path37751" />
        </g>
      </g>
      <g
         fill="#ffffff"
         fill-opacity="1"
         id="g2610">
        <g
           id="use2608"
           transform="translate(276.04846,427.63428)">
          <path
             d="M 1.109375,-11.96875 V -0.015625 H 2.1875 V -11.96875 Z m 0,0"
             id="path37783" />
        </g>
      </g>
      <g
         fill="#ffffff"
         fill-opacity="1"
         id="g2614">
        <g
           id="use2612"
           transform="translate(279.29422,427.63428)">
          <path
             d="M 1.109375,-11.96875 V -0.015625 H 2.1875 V -11.96875 Z m 0,0"
             id="path37787" />
        </g>
      </g>
      <g
         fill="#ffffff"
         fill-opacity="1"
         id="g2618">
        <g
           id="use2616"
           transform="translate(282.54001,427.63428)">
          <path
             d="m 1.109375,-8.140625 v 8.125 H 2.1875 v -8.125 z m 0,-3.828125 V -10.875 H 2.1875 v -1.09375 z m 0,0"
             id="path37743" />
        </g>
      </g>
      <g
         fill="#ffffff"
         fill-opacity="1"
         id="g2622">
        <g
           id="use2620"
           transform="translate(285.78577,427.63428)">
          <path
             d="M 1.109375,-8.140625 V -2.3125 c 0,0.5 0.015625,1 0.21875,1.46875 0.328125,0.671875 1.015625,0.9375 1.71875,0.9375 1.15625,0 2.53125,-0.53125 3.0625,-1.609375 l 0.015625,1.5 h 1.09375 v -8.125 H 6.109375 v 4.125 C 6.109375,-3.75 6.125,-3.5 6.125,-3.234375 c 0,0.484375 -0.046875,0.96875 -0.28125,1.390625 -0.421875,0.703125 -1.15625,1.125 -2,1.125 -0.859375,0 -1.65625,0 -1.65625,-1.625 0,-0.25 0.015625,-0.515625 0.015625,-0.765625 v -5.03125 z m 0,0"
             id="path37735" />
        </g>
      </g>
      <g
         fill="#ffffff"
         fill-opacity="1"
         id="g2626">
        <g
           id="use2624"
           transform="translate(294.06,427.63428)">
          <path
             d="m 2.171875,-6.421875 v -1.71875 h -1.0625 v 8.125 h 1.09375 V -4.34375 c 0,-1.171875 0.234375,-3.046875 1.953125,-3.046875 0.59375,0 1.265625,0.125 1.640625,0.625 C 6.109375,-6.375 6.125,-5.859375 6.125,-5.375 v 5.359375 H 7.234375 V -4.34375 c 0,-1.171875 0.234375,-3.046875 1.9375,-3.046875 0.609375,0 1.28125,0.125 1.65625,0.625 0.3125,0.390625 0.328125,0.90625 0.328125,1.390625 v 5.359375 h 1.109375 v -4.5625 c 0,-0.296875 0.01563,-0.625 0.01563,-0.9375 0,-0.765625 -0.109375,-1.578125 -0.65625,-2.125 C 11.15625,-8.109375 10.4375,-8.25 9.796875,-8.25 8.578125,-8.25 7.640625,-7.453125 7.1875,-6.40625 6.90625,-7.640625 6.109375,-8.25 4.75,-8.25 c -1.09375,0 -2.25,0.78125 -2.578125,1.828125 z m 0,0"
             id="path37775" />
        </g>
      </g>
      <g
         fill="#ffffff"
         fill-opacity="1"
         id="g2630">
        <g
           id="use2628"
           transform="translate(255.89264,449.59433)">
          <path
             d="M 6.796875,-5.671875 H 6.8125 c 0,1.859375 -0.40625,4.96875 -3.296875,4.96875 C 2.75,-0.703125 2.1875,-1 1.625,-1.390625 l -0.453125,0.78125 C 1.890625,-0.0625 2.703125,0.1875 3.59375,0.1875 c 2.9375,0 4.359375,-3.359375 4.359375,-5.796875 0,-2.015625 -0.234375,-4.8125 -2.421875,-5.703125 -0.359375,-0.140625 -0.765625,-0.203125 -1.15625,-0.203125 -2.1875,0 -3.578125,2 -3.578125,3.96875 0,1.796875 0.859375,3.90625 2.921875,3.90625 1.234375,0 2.703125,-0.875 3.078125,-2.03125 z M 6.75,-7.578125 c -0.015625,0.046875 -0.015625,0.109375 -0.015625,0.15625 0,0.125 0.015625,0.21875 0.015625,0.34375 v 0.09375 C 6.640625,-5.625 5.640625,-4.5 4.171875,-4.5 3.4375,-4.5 2.84375,-4.78125 2.40625,-5.390625 1.984375,-5.984375 1.921875,-6.71875 1.921875,-7.4375 c 0,-1.328125 0.265625,-3.21875 2.484375,-3.21875 1.640625,0 2.34375,1.703125 2.34375,2.953125 z m 0,0"
             id="path37771" />
        </g>
      </g>
      <g
         fill="#ffffff"
         fill-opacity="1"
         id="g2634">
        <g
           id="use2632"
           transform="translate(264.64688,449.59433)">
          <path
             d="m 1.703125,-1.359375 v 1.34375 h 1.34375 v -1.34375 z m 0,0"
             id="path37731" />
        </g>
      </g>
      <g
         fill="#ffffff"
         fill-opacity="1"
         id="g2638">
        <g
           id="use2636"
           transform="translate(269.32687,449.59433)">
          <path
             d="m 4.125,-11.515625 c -3.21875,0.3125 -3.375,3.984375 -3.375,5.90625 0,2.328125 0.46875,5.796875 3.625,5.796875 h 0.21875 c 2.359375,-0.296875 3.390625,-2.265625 3.390625,-5.90625 0,-1.59375 -0.125,-3.515625 -1.203125,-4.734375 -0.59375,-0.671875 -1.5,-1.078125 -2.390625,-1.078125 -0.078125,0 -0.171875,0.01563 -0.265625,0.01563 z M 1.859375,-4.875 C 1.84375,-5.015625 1.84375,-5.171875 1.84375,-5.296875 V -5.625 c 0,-2.15625 0.0625,-5.03125 2.546875,-5.03125 2.484375,0 2.5,3.078125 2.5,4.734375 v 0.8125 c 0,1.453125 -0.09375,3.21875 -1.28125,4.046875 C 5.25,-0.8125 4.828125,-0.671875 4.390625,-0.671875 3.6875,-0.671875 2.984375,-1.03125 2.5625,-1.65625 2.078125,-2.375 1.96875,-3.34375 1.890625,-4.203125 1.875,-4.421875 1.890625,-4.65625 1.859375,-4.875 Z m 0,0"
             id="path37747" />
        </g>
      </g>
      <g
         fill="#ffffff"
         fill-opacity="1"
         id="g2642">
        <g
           id="use2640"
           transform="translate(278.08109,449.59433)">
          <path
             d="m 1.671875,-10.390625 v 0.875 c 0.828125,0 1.5625,-0.15625 2.359375,-0.5 V -0.875 h -2.25 v 0.859375 h 5.625 V -0.875 H 5.140625 v -10.640625 h -0.125 c -0.234375,0 -0.359375,0.21875 -0.53125,0.34375 -0.8125,0.578125 -1.828125,0.78125 -2.8125,0.78125 z m 0,0"
             id="path37755" />
        </g>
      </g>
      <g
         fill="#ffffff"
         fill-opacity="1"
         id="g2646">
        <g
           id="use2644"
           transform="translate(286.83536,449.59433)">
          <path
             d="m 1.25,-7.921875 c 0.3125,-1.25 0.921875,-2.6875 2.640625,-2.6875 1.46875,0 2.96875,0.890625 2.96875,2.578125 0,1.9375 -1.8125,3.265625 -3.125,4.359375 C 2.875,-2.9375 2.03125,-2.140625 1.21875,-1.359375 L 0.9375,-1.078125 C 0.828125,-0.984375 0.75,-0.9375 0.75,-0.75 v 0.734375 h 7.234375 v -0.96875 H 1.75 c 0.4375,-0.40625 0.90625,-0.8125 1.34375,-1.203125 0.609375,-0.53125 1.1875,-1.078125 1.8125,-1.578125 1.359375,-1.109375 3.078125,-2.328125 3.078125,-4.3125 0,-2 -1.671875,-3.375 -3.65625,-3.4375 h -0.125 c -1.46875,0 -2.796875,0.609375 -3.453125,2.40625 C 0.703125,-9.015625 0.640625,-8.875 0.640625,-8.75 v 0.03125 C 0.65625,-8.609375 0.75,-8.515625 0.8125,-8.453125 c 0.140625,0.171875 0.265625,0.375 0.4375,0.53125 z m 0,0"
             id="path37739" />
        </g>
      </g>
      <g
         fill="#ffffff"
         fill-opacity="1"
         id="g2650">
        <g
           id="use2648"
           transform="translate(227.0576,369.50449)">
          <path
             d="M 0.359375,-3.140625 H 5.34375 v 3.125 h 1.078125 v -3.125 h 1.96875 v -0.90625 h -1.96875 v -7.375 h -1.125 c -0.328125,0 -0.421875,0.40625 -0.59375,0.640625 -1.015625,1.625 -2.078125,3.203125 -3.125,4.828125 L 0.75,-4.671875 C 0.5625,-4.390625 0.359375,-4.15625 0.359375,-3.875 Z m 1.125,-0.90625 c 1.234375,-1.84375 2.4375,-3.71875 3.53125,-5.640625 0.125,-0.25 0.3125,-0.515625 0.359375,-0.796875 l 0.015625,6.4375 z m 0,0"
             id="path37767" />
        </g>
      </g>
    </g>
    <rect
       style="fill:none;stroke:#008080;stroke-width:1.99988;stroke-dasharray:none"
       id="rect22454"
       width="38.569561"
       height="38.568184"
       x="129.88809"
       y="110.66778" />
    <rect
       style="fill:none;stroke:#008080;stroke-width:2.99976;stroke-dasharray:none"
       id="rect22454-5"
       width="37.605034"
       height="37.569675"
       x="66.650803"
       y="102.10006" />
  </g>
</svg>
