<?xml version="1.0" encoding="UTF-8" standalone="no"?>
<!-- Created with Inkscape (http://www.inkscape.org/) -->

<svg
   width="40.57082mm"
   height="40.569443mm"
   viewBox="0 0 40.57082 40.569443"
   version="1.1"
   id="svg35221"
   inkscape:version="1.2.1 (9c6d41e410, 2022-07-14)"
   sodipodi:docname="5.svg"
   xmlns:inkscape="http://www.inkscape.org/namespaces/inkscape"
   xmlns:sodipodi="http://sodipodi.sourceforge.net/DTD/sodipodi-0.dtd"
   xmlns="http://www.w3.org/2000/svg"
   xmlns:svg="http://www.w3.org/2000/svg">
  <sodipodi:namedview
     id="namedview35223"
     pagecolor="#ffffff"
     bordercolor="#000000"
     borderopacity="0.25"
     inkscape:showpageshadow="2"
     inkscape:pageopacity="0.0"
     inkscape:pagecheckerboard="0"
     inkscape:deskcolor="#d1d1d1"
     inkscape:document-units="mm"
     showgrid="false"
     inkscape:zoom="2.1543544"
     inkscape:cx="-104.67173"
     inkscape:cy="104.43964"
     inkscape:window-width="1920"
     inkscape:window-height="1009"
     inkscape:window-x="2552"
     inkscape:window-y="421"
     inkscape:window-maximized="1"
     inkscape:current-layer="layer1" />
  <defs
     id="defs35218" />
  <g
     inkscape:label="Capa 1"
     inkscape:groupmode="layer"
     id="layer1"
     transform="translate(-117.58865,-103.89492)">
    <g
       id="g35216"
       transform="matrix(0.35277777,0,0,0.35277777,-11.847197,-22.263639)" />
    <g
       id="g42381"
       transform="matrix(0.35277777,0,0,0.35277777,-432.42636,-18.968209)">
      <path
         fill-rule="nonzero"
         fill="#f06414"
         fill-opacity="1"
         d="m 1559.0977,405.77344 v -51.75 c 0,-3.17578 2.5742,-5.75 5.75,-5.75 h 103.5 c 3.1679,0 5.7539,2.57422 5.7539,5.75 v 103.5 c 0,3.17187 -2.586,5.75 -5.7539,5.75 h -103.5 c -3.1758,0 -5.75,-2.57813 -5.75,-5.75"
         id="path5430"
         style="fill:#f4a261;fill-opacity:1" />
      <g
         fill="#ffffff"
         fill-opacity="1"
         id="g5434">
        <g
           id="use5432"
           transform="translate(1600.877,405.79422)">
          <path
             d="m 3.90625,-29.78125 v 29.734375 h 12.078125 c 4.96875,0 12.765625,-0.34375 12.765625,-8.171875 0,-4.546875 -3.59375,-6.90625 -7.546875,-7.375 1.71875,-0.5625 3.515625,-0.984375 4.71875,-2.4375 1.03125,-1.203125 1.5,-2.65625 1.5,-4.15625 0,-2.625 -1.375,-4.96875 -3.9375,-6.265625 -2.578125,-1.28125 -5.53125,-1.328125 -8.3125,-1.328125 z M 9.9375,-3.734375 V -13.96875 h 4.765625 c 1.96875,0 4.0625,0.09375 5.78125,1.109375 1.453125,0.90625 2.34375,2.65625 2.34375,4.375 0,1.5 -0.71875,2.953125 -2.09375,3.765625 -1.578125,0.953125 -3.515625,0.984375 -5.265625,0.984375 z m 0,-13.3125 v -9.046875 c 1.15625,0 2.265625,-0.04687 3.4375,-0.04687 h 0.5 c 2.96875,0 7.71875,0.140625 7.71875,4.25 0,4.109375 -4.203125,4.84375 -7.453125,4.84375 z m 0,0"
             id="path44037" />
        </g>
      </g>
      <g
         fill="#ffffff"
         fill-opacity="1"
         id="g5438">
        <g
           id="use5436"
           transform="translate(1595.4766,427.63428)">
          <path
             d="m 1.390625,-11.96875 v 11.953125 h 4.34375 c 1.53125,0 3.078125,-0.34375 4.09375,-1.546875 C 10.234375,-2 10.46875,-2.5625 10.5,-3.15625 10.5,-5.125 8.484375,-5.984375 6.921875,-6.265625 8.15625,-6.625 10,-7.296875 10,-9 c 0,-1.125 -0.984375,-1.96875 -1.890625,-2.421875 -0.71875,-0.359375 -1.53125,-0.5 -2.34375,-0.546875 z M 2.546875,-0.9375 V -5.796875 H 5.09375 c 1.03125,0 1.96875,0.171875 2.84375,0.609375 0.6875,0.359375 1.421875,1.03125 1.421875,1.875 0,1.734375 -2.296875,2.3125 -3.609375,2.375 z m 0,-5.71875 v -4.390625 H 5.25 c 1.375,0 3.640625,0.609375 3.640625,2.109375 0,1.5625 -2.203125,2.1875 -3.609375,2.28125 z m 0,0"
             id="path44029" />
        </g>
      </g>
      <g
         fill="#ffffff"
         fill-opacity="1"
         id="g5442">
        <g
           id="use5440"
           transform="translate(1606.8695,427.63428)">
          <path
             d="m 4.125,-8.296875 c -2.171875,0.21875 -3.5625,2.1875 -3.5625,4.234375 0,1.921875 1.359375,4.15625 3.828125,4.15625 2.1875,0 3.78125,-2.046875 3.78125,-4.140625 0,-2.0625 -1.421875,-4.25 -3.8125,-4.25 z M 1.671875,-3.90625 v -0.203125 c 0,-0.921875 0.15625,-1.9375 0.859375,-2.609375 0.5,-0.484375 1.171875,-0.71875 1.84375,-0.71875 1.8125,0 2.71875,1.53125 2.71875,3.265625 0,1.65625 -0.859375,3.359375 -2.71875,3.359375 -1,0 -1.8125,-0.53125 -2.296875,-1.390625 -0.265625,-0.53125 -0.34375,-1.125 -0.40625,-1.703125 z m 0,0"
             id="path43993" />
        </g>
      </g>
      <g
         fill="#ffffff"
         fill-opacity="1"
         id="g5446">
        <g
           id="use5444"
           transform="translate(1615.1436,427.63428)">
          <path
             d="M 2.15625,-5.96875 V -8.140625 H 1.109375 v 8.125 H 2.1875 V -3.9375 c 0,-1.203125 0.34375,-2.53125 2.09375,-3.15625 0.375,-0.125 0.75,-0.1875 1.125,-0.1875 V -8.25 c -1.09375,0 -2.125,0.53125 -2.765625,1.421875 -0.203125,0.25 -0.40625,0.546875 -0.484375,0.859375 z m 0,0"
             id="path44021" />
        </g>
      </g>
      <g
         fill="#ffffff"
         fill-opacity="1"
         id="g5450">
        <g
           id="use5448"
           transform="translate(1620.6665,427.63428)">
          <path
             d="m 4.125,-8.296875 c -2.171875,0.21875 -3.5625,2.1875 -3.5625,4.234375 0,1.921875 1.359375,4.15625 3.828125,4.15625 2.1875,0 3.78125,-2.046875 3.78125,-4.140625 0,-2.0625 -1.421875,-4.25 -3.8125,-4.25 z M 1.671875,-3.90625 v -0.203125 c 0,-0.921875 0.15625,-1.9375 0.859375,-2.609375 0.5,-0.484375 1.171875,-0.71875 1.84375,-0.71875 1.8125,0 2.71875,1.53125 2.71875,3.265625 0,1.65625 -0.859375,3.359375 -2.71875,3.359375 -1,0 -1.8125,-0.53125 -2.296875,-1.390625 -0.265625,-0.53125 -0.34375,-1.125 -0.40625,-1.703125 z m 0,0"
             id="path43997" />
        </g>
      </g>
      <g
         fill="#ffffff"
         fill-opacity="1"
         id="g5454">
        <g
           id="use5452"
           transform="translate(1629.4207,427.63428)">
          <path
             d="m 2.171875,-6.421875 v -1.71875 h -1.0625 v 8.125 h 1.09375 V -4.34375 c 0,-1.15625 0.234375,-3.046875 1.953125,-3.046875 0.59375,0 1.25,0.125 1.625,0.625 0.3125,0.390625 0.328125,0.90625 0.328125,1.390625 v 5.359375 H 7.21875 V -5.40625 c 0,-1.640625 -0.578125,-2.84375 -2.453125,-2.84375 -1.15625,0 -2.21875,0.765625 -2.59375,1.828125 z m 0,0"
             id="path44009" />
        </g>
      </g>
      <g
         fill="#ffffff"
         fill-opacity="1"
         id="g5458">
        <g
           id="use5456"
           transform="translate(1592.3564,449.59433)">
          <path
             d="m 1.671875,-10.390625 v 0.875 c 0.828125,0 1.5625,-0.15625 2.359375,-0.5 V -0.875 h -2.25 v 0.859375 h 5.625 V -0.875 H 5.140625 v -10.640625 h -0.125 c -0.234375,0 -0.359375,0.21875 -0.53125,0.34375 -0.8125,0.578125 -1.828125,0.78125 -2.8125,0.78125 z m 0,0"
             id="path44013" />
        </g>
      </g>
      <g
         fill="#ffffff"
         fill-opacity="1"
         id="g5462">
        <g
           id="use5460"
           transform="translate(1601.1106,449.59433)">
          <path
             d="m 4.125,-11.515625 c -3.21875,0.3125 -3.375,3.984375 -3.375,5.90625 0,2.328125 0.46875,5.796875 3.625,5.796875 h 0.21875 c 2.359375,-0.296875 3.390625,-2.265625 3.390625,-5.90625 0,-1.59375 -0.125,-3.515625 -1.203125,-4.734375 -0.59375,-0.671875 -1.5,-1.078125 -2.390625,-1.078125 -0.078125,0 -0.171875,0.01563 -0.265625,0.01563 z M 1.859375,-4.875 C 1.84375,-5.015625 1.84375,-5.171875 1.84375,-5.296875 V -5.625 c 0,-2.15625 0.0625,-5.03125 2.546875,-5.03125 2.484375,0 2.5,3.078125 2.5,4.734375 v 0.8125 c 0,1.453125 -0.09375,3.21875 -1.28125,4.046875 C 5.25,-0.8125 4.828125,-0.671875 4.390625,-0.671875 3.6875,-0.671875 2.984375,-1.03125 2.5625,-1.65625 2.078125,-2.375 1.96875,-3.34375 1.890625,-4.203125 1.875,-4.421875 1.890625,-4.65625 1.859375,-4.875 Z m 0,0"
             id="path44001" />
        </g>
      </g>
      <g
         fill="#ffffff"
         fill-opacity="1"
         id="g5466">
        <g
           id="use5464"
           transform="translate(1609.8649,449.59433)">
          <path
             d="m 1.703125,-1.359375 v 1.34375 h 1.34375 v -1.34375 z m 0,0"
             id="path43989" />
        </g>
      </g>
      <g
         fill="#ffffff"
         fill-opacity="1"
         id="g5470">
        <g
           id="use5468"
           transform="translate(1614.5449,449.59433)">
          <path
             d="m 3.21875,-6.125 v 0.015625 C 1.90625,-5.71875 0.625,-4.78125 0.625,-3.1875 c 0,2.078125 1.953125,3.375 3.828125,3.375 H 4.53125 C 6.3125,0.15625 8.125,-1.25 8.125,-3.171875 c 0,-1.5 -1.21875,-2.5625 -2.59375,-2.9375 0.921875,-0.34375 2.359375,-0.9375 2.359375,-2.5 0,-1.75 -1.796875,-2.90625 -3.515625,-2.90625 -1.609375,0 -3.515625,1.046875 -3.515625,2.890625 v 0.140625 C 0.96875,-7.28125 2.15625,-6.28125 3.21875,-6.125 Z M 1.75,-2.96875 c 0,-0.0625 -0.015625,-0.140625 -0.015625,-0.21875 0,-1.46875 1.109375,-2.5 2.640625,-2.5 1.421875,0 2.609375,0.90625 2.609375,2.484375 0,1.578125 -1.125,2.5 -2.59375,2.5 C 2.96875,-0.703125 1.921875,-1.5 1.75,-2.96875 Z m 0.140625,-5.453125 v -0.15625 c 0,-1.5625 1.296875,-2.078125 2.453125,-2.078125 1.109375,0 2.359375,0.40625 2.515625,1.875 V -8.625 c 0,1.53125 -1.296875,2.078125 -2.46875,2.078125 -1.1875,0 -2.328125,-0.546875 -2.5,-1.875 z m 0,0"
             id="path44033" />
        </g>
      </g>
      <g
         fill="#ffffff"
         fill-opacity="1"
         id="g5474">
        <g
           id="use5472"
           transform="translate(1623.299,449.59433)">
          <path
             d="m 1.671875,-10.390625 v 0.875 c 0.828125,0 1.5625,-0.15625 2.359375,-0.5 V -0.875 h -2.25 v 0.859375 h 5.625 V -0.875 H 5.140625 v -10.640625 h -0.125 c -0.234375,0 -0.359375,0.21875 -0.53125,0.34375 -0.8125,0.578125 -1.828125,0.78125 -2.8125,0.78125 z m 0,0"
             id="path44017" />
        </g>
      </g>
      <g
         fill="#ffffff"
         fill-opacity="1"
         id="g5478">
        <g
           id="use5476"
           transform="translate(1632.0531,449.59433)">
          <path
             d="m 4.125,-11.515625 c -3.21875,0.3125 -3.375,3.984375 -3.375,5.90625 0,2.328125 0.46875,5.796875 3.625,5.796875 h 0.21875 c 2.359375,-0.296875 3.390625,-2.265625 3.390625,-5.90625 0,-1.59375 -0.125,-3.515625 -1.203125,-4.734375 -0.59375,-0.671875 -1.5,-1.078125 -2.390625,-1.078125 -0.078125,0 -0.171875,0.01563 -0.265625,0.01563 z M 1.859375,-4.875 C 1.84375,-5.015625 1.84375,-5.171875 1.84375,-5.296875 V -5.625 c 0,-2.15625 0.0625,-5.03125 2.546875,-5.03125 2.484375,0 2.5,3.078125 2.5,4.734375 v 0.8125 c 0,1.453125 -0.09375,3.21875 -1.28125,4.046875 C 5.25,-0.8125 4.828125,-0.671875 4.390625,-0.671875 3.6875,-0.671875 2.984375,-1.03125 2.5625,-1.65625 2.078125,-2.375 1.96875,-3.34375 1.890625,-4.203125 1.875,-4.421875 1.890625,-4.65625 1.859375,-4.875 Z m 0,0"
             id="path44005" />
        </g>
      </g>
      <g
         fill="#ffffff"
         fill-opacity="1"
         id="g5482">
        <g
           id="use5480"
           transform="translate(1567.8413,369.50449)">
          <path
             d="m 1.453125,-11.3125 v 6.171875 h 0.78125 c 0.203125,0 0.25,-0.140625 0.328125,-0.265625 0.5,-0.65625 1.296875,-0.9375 2.0625,-0.9375 1.671875,0 2.15625,1.5 2.15625,2.734375 0,0.734375 -0.125,1.5625 -0.671875,2.109375 C 5.59375,-0.953125 4.875,-0.703125 4.125,-0.703125 c -1.203125,0 -2.28125,-0.625 -2.9375,-1.609375 H 1.171875 c -0.15625,0.25 -0.453125,0.625 -0.453125,0.796875 0,0.15625 0.28125,0.375 0.40625,0.5 0.78125,0.75 1.859375,1.203125 2.953125,1.203125 2.015625,0 3.890625,-1.515625 3.890625,-3.75 0,-1.671875 -1.140625,-3.640625 -3.359375,-3.640625 -0.796875,0 -1.515625,0.328125 -2.109375,0.8125 v -4.015625 h 4.890625 v -0.90625 z m 0,0"
             id="path44025" />
        </g>
      </g>
    </g>
  </g>
</svg>
