<?xml version="1.0" encoding="UTF-8" standalone="no"?>
<!-- Created with Inkscape (http://www.inkscape.org/) -->

<svg
   width="40.57357mm"
   height="40.569443mm"
   viewBox="0 0 40.573571 40.569443"
   version="1.1"
   id="svg35221"
   inkscape:version="1.2.1 (9c6d41e410, 2022-07-14)"
   sodipodi:docname="51_clicked.svg"
   xmlns:inkscape="http://www.inkscape.org/namespaces/inkscape"
   xmlns:sodipodi="http://sodipodi.sourceforge.net/DTD/sodipodi-0.dtd"
   xmlns="http://www.w3.org/2000/svg"
   xmlns:svg="http://www.w3.org/2000/svg">
  <sodipodi:namedview
     id="namedview35223"
     pagecolor="#ffffff"
     bordercolor="#000000"
     borderopacity="0.25"
     inkscape:showpageshadow="2"
     inkscape:pageopacity="0.0"
     inkscape:pagecheckerboard="0"
     inkscape:deskcolor="#d1d1d1"
     inkscape:document-units="mm"
     showgrid="false"
     inkscape:zoom="2.8284271"
     inkscape:cx="-91.393552"
     inkscape:cy="77.428193"
     inkscape:window-width="1920"
     inkscape:window-height="1009"
     inkscape:window-x="2552"
     inkscape:window-y="421"
     inkscape:window-maximized="1"
     inkscape:current-layer="layer2" />
  <defs
     id="defs35218" />
  <g
     inkscape:groupmode="layer"
     id="layer2"
     inkscape:label="Capa 2">
    <g
       id="g145458"
       transform="matrix(0.35277777,0,0,0.35277777,-636.01076,-251.86265)">
      <path
         fill-rule="nonzero"
         fill="#f06414"
         fill-opacity="1"
         d="m 1802.875,771.44141 v -51.75 c 0,-3.17188 2.5859,-5.75 5.7539,-5.75 h 103.5039 c 3.168,0 5.7344,2.57812 5.7344,5.75 v 103.5 c 0,3.17578 -2.5664,5.75 -5.7344,5.75 h -103.5039 c -3.168,0 -5.7539,-2.57422 -5.7539,-5.75"
         id="path6316"
         style="fill:#f4a261;fill-opacity:1" />
      <g
         fill="#ffffff"
         fill-opacity="1"
         id="g6320">
        <g
           id="use6318"
           transform="translate(1835.2965,771.4635)">
          <path
             d="M 3.078125,-7.671875 C 2.78125,-5.953125 2.40625,-4.28125 2.1875,-2.578125 2.140625,-2.484375 2.140625,-2.40625 2.140625,-2.3125 c 0,0.296875 0.171875,0.390625 0.390625,0.515625 l 0.765625,0.390625 c 3.09375,1.484375 6.421875,2.3125 9.859375,2.3125 4.5,0 9.203125,-1.375 10.234375,-7.5 0.09375,-0.609375 0.125,-1.203125 0.125,-1.796875 0,-5.359375 -3.765625,-8.796875 -9.03125,-9.90625 -2.28125,-0.46875 -6.515625,-0.890625 -6.515625,-4.375 0,-2.859375 2.75,-3.640625 5.234375,-3.640625 1.875,0 3.765625,0.390625 5.34375,1.328125 0.953125,0.5625 1.671875,1.328125 2.53125,1.984375 l 0.984375,-5.625 c -2.953125,-1.28125 -5.65625,-2.09375 -8.859375,-2.09375 -4.59375,0 -10.59375,1.25 -10.59375,8.734375 0,4.078125 2.703125,7.15625 6.34375,8.578125 2.828125,1.0625 6.5625,0.640625 8.484375,3.25 0.46875,0.734375 0.734375,1.421875 0.734375,2.3125 0,2.921875 -2.3125,4.078125 -5.109375,4.078125 -3.25,0 -6.546875,-1.125 -9.078125,-3.171875 C 3.6875,-7.203125 3.390625,-7.453125 3.078125,-7.671875 Z m 0,0"
             id="path146087" />
        </g>
      </g>
      <g
         fill="#ffffff"
         fill-opacity="1"
         id="g6324">
        <g
           id="use6322"
           transform="translate(1861.4517,771.4635)">
          <path
             d="M 2.609375,-29.78125 V -0.046875 H 8.4375 v -1.875 c 1.453125,1.359375 3.125,2.34375 5.359375,2.34375 2.78125,0 5.4375,-0.9375 7.03125,-3.421875 1.359375,-2.140625 1.578125,-4.796875 1.578125,-7.28125 0,-4.421875 -0.984375,-10.453125 -7.234375,-10.453125 -2.453125,0 -5.015625,0.859375 -6.859375,2.5625 V -29.78125 Z M 16.53125,-8.390625 c -0.125,1.453125 -0.125,3.078125 -1.15625,4.28125 -0.765625,0.984375 -2.140625,1.453125 -3.46875,1.453125 -1.109375,0 -3.515625,-0.5625 -3.515625,-1.96875 0,-0.171875 0.046875,-0.34375 0.046875,-0.515625 V -16.03125 c 0.171875,-0.890625 2.4375,-1.625 3.765625,-1.625 1.125,0 2.1875,0.34375 3,1.078125 1.296875,1.15625 1.375,3.46875 1.375,5.4375 v 1.71875 c 0,0.34375 0,0.6875 -0.04687,1.03125 z m 0,0"
             id="path146091" />
        </g>
      </g>
      <g
         fill="#ffffff"
         fill-opacity="1"
         id="g6328">
        <g
           id="use6326"
           transform="translate(1827.136,793.30359)">
          <path
             d="m 0.359375,-0.015625 h 1.09375 l 1.34375,-3.59375 h 4.78125 l 0.390625,0.03125 0.140625,0.21875 1.140625,3.09375 0.109375,0.21875 1.25,0.03125 C 10.3125,-0.859375 9.984375,-1.6875 9.671875,-2.53125 8.578125,-5.453125 7.484375,-8.421875 6.390625,-11.359375 6.3125,-11.578125 6.203125,-12.03125 6.0625,-12.078125 H 5.015625 c -0.28125,0 -0.359375,0.5 -0.453125,0.765625 -1.40625,3.75 -2.84375,7.53125 -4.203125,11.296875 z m 2.78125,-4.515625 2.046875,-5.625 0.21875,-0.703125 0.546875,1.640625 1.703125,4.6875 z m 0,0"
             id="path146067" />
        </g>
      </g>
      <g
         fill="#ffffff"
         fill-opacity="1"
         id="g6332">
        <g
           id="use6330"
           transform="translate(1838.0646,793.30359)">
          <path
             d="m 2.171875,-6.421875 v -1.71875 h -1.0625 v 8.125 h 1.09375 V -4.34375 c 0,-1.15625 0.234375,-3.046875 1.953125,-3.046875 0.59375,0 1.25,0.125 1.625,0.625 0.3125,0.390625 0.328125,0.90625 0.328125,1.390625 v 5.359375 H 7.21875 V -5.40625 c 0,-1.640625 -0.578125,-2.84375 -2.453125,-2.84375 -1.15625,0 -2.21875,0.765625 -2.59375,1.828125 z m 0,0"
             id="path146039" />
        </g>
      </g>
      <g
         fill="#ffffff"
         fill-opacity="1"
         id="g6338">
        <g
           id="use6334"
           transform="translate(1846.3387,793.30359)">
          <path
             d="m 1.859375,-10.46875 v 2.328125 H 0.1875 v 0.859375 h 1.65625 v 5.015625 c 0,0.953125 0.140625,2.359375 1.421875,2.359375 0.828125,0 1.65625,-0.234375 2.359375,-0.609375 0.09375,-0.0625 0.234375,-0.109375 0.234375,-0.203125 0,-0.078125 -0.046875,-0.140625 -0.0625,-0.1875 C 5.75,-1.109375 5.703125,-1.3125 5.640625,-1.5 l -0.40625,0.3125 c -0.375,0.21875 -0.859375,0.390625 -1.328125,0.390625 -0.828125,0 -1.03125,-0.875 -1.03125,-1.59375 0,-0.25 0.015625,-0.484375 0.015625,-0.6875 V -7.28125 H 5.5625 V -8.140625 H 2.890625 v -2.328125 z m 0,0"
             id="path146075" />
        </g>
        <g
           id="use6336"
           transform="translate(1852.5879,793.30359)">
          <path
             d="m 1.109375,-8.140625 v 8.125 H 2.1875 v -8.125 z m 0,-3.828125 V -10.875 H 2.1875 v -1.09375 z m 0,0"
             id="path146031" />
        </g>
      </g>
      <g
         fill="#ffffff"
         fill-opacity="1"
         id="g6342">
        <g
           id="use6340"
           transform="translate(1855.8336,793.30359)">
          <path
             d="m 2.171875,-6.421875 v -1.71875 h -1.0625 v 8.125 h 1.09375 V -4.34375 c 0,-1.171875 0.234375,-3.046875 1.953125,-3.046875 0.59375,0 1.265625,0.125 1.640625,0.625 C 6.109375,-6.375 6.125,-5.859375 6.125,-5.375 v 5.359375 H 7.234375 V -4.34375 c 0,-1.171875 0.234375,-3.046875 1.9375,-3.046875 0.609375,0 1.28125,0.125 1.65625,0.625 0.3125,0.390625 0.328125,0.90625 0.328125,1.390625 v 5.359375 h 1.109375 v -4.5625 c 0,-0.296875 0.01563,-0.625 0.01563,-0.9375 0,-0.765625 -0.109375,-1.578125 -0.65625,-2.125 C 11.15625,-8.109375 10.4375,-8.25 9.796875,-8.25 8.578125,-8.25 7.640625,-7.453125 7.1875,-6.40625 6.90625,-7.640625 6.109375,-8.25 4.75,-8.25 c -1.09375,0 -2.25,0.78125 -2.578125,1.828125 z m 0,0"
             id="path146079" />
        </g>
      </g>
      <g
         fill="#ffffff"
         fill-opacity="1"
         id="g6346">
        <g
           id="use6344"
           transform="translate(1869.1536,793.30359)">
          <path
             d="m 4.125,-8.296875 c -2.171875,0.21875 -3.5625,2.1875 -3.5625,4.234375 0,1.921875 1.359375,4.15625 3.828125,4.15625 2.1875,0 3.78125,-2.046875 3.78125,-4.140625 0,-2.0625 -1.421875,-4.25 -3.8125,-4.25 z M 1.671875,-3.90625 v -0.203125 c 0,-0.921875 0.15625,-1.9375 0.859375,-2.609375 0.5,-0.484375 1.171875,-0.71875 1.84375,-0.71875 1.8125,0 2.71875,1.53125 2.71875,3.265625 0,1.65625 -0.859375,3.359375 -2.71875,3.359375 -1,0 -1.8125,-0.53125 -2.296875,-1.390625 -0.265625,-0.53125 -0.34375,-1.125 -0.40625,-1.703125 z m 0,0"
             id="path146035" />
        </g>
      </g>
      <g
         fill="#ffffff"
         fill-opacity="1"
         id="g6350">
        <g
           id="use6348"
           transform="translate(1877.9077,793.30359)">
          <path
             d="m 2.171875,-6.421875 v -1.71875 h -1.0625 v 8.125 h 1.09375 V -4.34375 c 0,-1.15625 0.234375,-3.046875 1.953125,-3.046875 0.59375,0 1.25,0.125 1.625,0.625 0.3125,0.390625 0.328125,0.90625 0.328125,1.390625 v 5.359375 H 7.21875 V -5.40625 c 0,-1.640625 -0.578125,-2.84375 -2.453125,-2.84375 -1.15625,0 -2.21875,0.765625 -2.59375,1.828125 z m 0,0"
             id="path146043" />
        </g>
      </g>
      <g
         fill="#ffffff"
         fill-opacity="1"
         id="g6354">
        <g
           id="use6352"
           transform="translate(1886.182,793.30359)">
          <path
             d="m 0.125,-8.140625 c 0.078125,0.28125 0.203125,0.5625 0.328125,0.84375 C 1.234375,-5.09375 2.171875,-2.921875 3,-0.75 l 0.171875,0.421875 c 0.03125,0.09375 0.078125,0.1875 0.09375,0.28125 v 0.03125 c 0,0.078125 -0.03125,0.171875 -0.0625,0.234375 l -0.1875,0.5 c -0.25,0.703125 -0.640625,1.375 -1.46875,1.375 -0.46875,0 -0.9375,-0.109375 -1.40625,-0.21875 L 0.21875,2.84375 c 0.453125,0.0625 0.90625,0.125 1.34375,0.125 1.359375,0 2,-1.234375 2.421875,-2.328125 0.171875,-0.5 0.359375,-0.984375 0.53125,-1.484375 L 6.875,-7.25 c 0.109375,-0.296875 0.234375,-0.578125 0.328125,-0.890625 h -0.9375 c -0.171875,0 -0.171875,0.09375 -0.203125,0.203125 l -0.140625,0.359375 c -0.53125,1.359375 -1,2.78125 -1.484375,4.15625 C 4.171875,-2.671875 3.890625,-1.90625 3.75,-1.125 3.21875,-3.328125 2.234375,-5.515625 1.421875,-7.609375 l -0.125,-0.34375 c -0.0625,-0.140625 -0.09375,-0.1875 -0.25,-0.1875 z m 0,0"
             id="path146047" />
        </g>
      </g>
      <g
         fill="#ffffff"
         fill-opacity="1"
         id="g6358">
        <g
           id="use6356"
           transform="translate(1836.136,815.26306)">
          <path
             d="m 1.671875,-10.390625 v 0.875 c 0.828125,0 1.5625,-0.15625 2.359375,-0.5 V -0.875 h -2.25 v 0.859375 h 5.625 V -0.875 H 5.140625 v -10.640625 h -0.125 c -0.234375,0 -0.359375,0.21875 -0.53125,0.34375 -0.8125,0.578125 -1.828125,0.78125 -2.8125,0.78125 z m 0,0"
             id="path146051" />
        </g>
      </g>
      <g
         fill="#ffffff"
         fill-opacity="1"
         id="g6362">
        <g
           id="use6360"
           transform="translate(1844.8901,815.26306)">
          <path
             d="m 1.25,-7.921875 c 0.3125,-1.25 0.921875,-2.6875 2.640625,-2.6875 1.46875,0 2.96875,0.890625 2.96875,2.578125 0,1.9375 -1.8125,3.265625 -3.125,4.359375 C 2.875,-2.9375 2.03125,-2.140625 1.21875,-1.359375 L 0.9375,-1.078125 C 0.828125,-0.984375 0.75,-0.9375 0.75,-0.75 v 0.734375 h 7.234375 v -0.96875 H 1.75 c 0.4375,-0.40625 0.90625,-0.8125 1.34375,-1.203125 0.609375,-0.53125 1.1875,-1.078125 1.8125,-1.578125 1.359375,-1.109375 3.078125,-2.328125 3.078125,-4.3125 0,-2 -1.671875,-3.375 -3.65625,-3.4375 h -0.125 c -1.46875,0 -2.796875,0.609375 -3.453125,2.40625 C 0.703125,-9.015625 0.640625,-8.875 0.640625,-8.75 v 0.03125 C 0.65625,-8.609375 0.75,-8.515625 0.8125,-8.453125 c 0.140625,0.171875 0.265625,0.375 0.4375,0.53125 z m 0,0"
             id="path146027" />
        </g>
      </g>
      <g
         fill="#ffffff"
         fill-opacity="1"
         id="g6366">
        <g
           id="use6364"
           transform="translate(1853.6444,815.26306)">
          <path
             d="m 1.671875,-10.390625 v 0.875 c 0.828125,0 1.5625,-0.15625 2.359375,-0.5 V -0.875 h -2.25 v 0.859375 h 5.625 V -0.875 H 5.140625 v -10.640625 h -0.125 c -0.234375,0 -0.359375,0.21875 -0.53125,0.34375 -0.8125,0.578125 -1.828125,0.78125 -2.8125,0.78125 z m 0,0"
             id="path146055" />
        </g>
      </g>
      <g
         fill="#ffffff"
         fill-opacity="1"
         id="g6370">
        <g
           id="use6368"
           transform="translate(1862.3986,815.26306)">
          <path
             d="m 1.703125,-1.359375 v 1.34375 h 1.34375 v -1.34375 z m 0,0"
             id="path146023" />
        </g>
      </g>
      <g
         fill="#ffffff"
         fill-opacity="1"
         id="g6374">
        <g
           id="use6372"
           transform="translate(1867.0785,815.26306)">
          <path
             d="m 0.625,-11.3125 v 0.96875 h 6.75 C 6.5625,-9.546875 5.8125,-8.75 5.1875,-7.796875 3.640625,-5.46875 2.796875,-2.703125 2.796875,0.09375 H 3.9375 c 0,-3.78125 1.4375,-7.25 3.859375,-10.125 C 7.953125,-10.1875 8.125,-10.3125 8.125,-10.5625 v -0.75 z m 0,0"
             id="path146071" />
        </g>
      </g>
      <g
         fill="#ffffff"
         fill-opacity="1"
         id="g6378">
        <g
           id="use6376"
           transform="translate(1875.8326,815.26306)">
          <path
             d="m 1.953125,-5.6875 h -0.03125 c 0,-1.984375 0.5625,-4.96875 3.546875,-4.96875 0.71875,0 1.265625,0.1875 1.90625,0.359375 V -11 c 0,-0.46875 -1.625,-0.515625 -1.9375,-0.515625 -2.578125,0 -4.234375,2.421875 -4.578125,4.75 -0.046875,0.390625 -0.0625,0.796875 -0.0625,1.1875 0,2.046875 0.328125,4.5625 2.390625,5.53125 C 3.5625,0.125 4,0.1875 4.421875,0.1875 c 2.09375,0 3.53125,-1.96875 3.53125,-3.96875 0,-1.359375 -0.5625,-3.15625 -1.890625,-3.75 -0.34375,-0.140625 -0.6875,-0.171875 -1.046875,-0.171875 -1.25,0.03125 -2.6875,0.890625 -3.0625,2.015625 z M 2,-4.03125 V -4.125 c 0,-1.34375 0.984375,-2.734375 2.515625,-2.734375 1.125,0 2.078125,0.734375 2.28125,2.234375 0.015625,0.28125 0.015625,0.59375 0.015625,0.890625 0,1.25 -0.359375,3.03125 -2.328125,3.03125 -1.578125,0 -2.3125,-1.3125 -2.484375,-2.890625 0,-0.078125 0.015625,-0.140625 0.015625,-0.21875 0,-0.0625 0,-0.140625 -0.015625,-0.21875 z m 0,0"
             id="path146083" />
        </g>
      </g>
      <g
         fill="#ffffff"
         fill-opacity="1"
         id="g6382">
        <g
           id="use6380"
           transform="translate(1811.6208,735.17322)">
          <path
             d="m 1.453125,-11.3125 v 6.171875 h 0.78125 c 0.203125,0 0.25,-0.140625 0.328125,-0.265625 0.5,-0.65625 1.296875,-0.9375 2.0625,-0.9375 1.671875,0 2.15625,1.5 2.15625,2.734375 0,0.734375 -0.125,1.5625 -0.671875,2.109375 C 5.59375,-0.953125 4.875,-0.703125 4.125,-0.703125 c -1.203125,0 -2.28125,-0.625 -2.9375,-1.609375 H 1.171875 c -0.15625,0.25 -0.453125,0.625 -0.453125,0.796875 0,0.15625 0.28125,0.375 0.40625,0.5 0.78125,0.75 1.859375,1.203125 2.953125,1.203125 2.015625,0 3.890625,-1.515625 3.890625,-3.75 0,-1.671875 -1.140625,-3.640625 -3.359375,-3.640625 -0.796875,0 -1.515625,0.328125 -2.109375,0.8125 v -4.015625 h 4.890625 v -0.90625 z m 0,0"
             id="path146063" />
        </g>
      </g>
      <g
         fill="#ffffff"
         fill-opacity="1"
         id="g6386">
        <g
           id="use6384"
           transform="translate(1820.375,735.17322)">
          <path
             d="m 1.671875,-10.390625 v 0.875 c 0.828125,0 1.5625,-0.15625 2.359375,-0.5 V -0.875 h -2.25 v 0.859375 h 5.625 V -0.875 H 5.140625 v -10.640625 h -0.125 c -0.234375,0 -0.359375,0.21875 -0.53125,0.34375 -0.8125,0.578125 -1.828125,0.78125 -2.8125,0.78125 z m 0,0"
             id="path146059" />
        </g>
      </g>
    </g>
  </g>
  <g
     inkscape:label="Capa 1"
     inkscape:groupmode="layer"
     id="layer1"
     transform="translate(-25.949774,-102.1557)">
    <g
       id="g35216"
       transform="matrix(0.35277777,0,0,0.35277777,-11.847197,-22.263639)" />
    <rect
       style="fill:none;stroke:#008080;stroke-width:2.99976;stroke-dasharray:none"
       id="rect22454"
       width="37.605034"
       height="37.569675"
       x="27.449654"
       y="103.65559" />
  </g>
</svg>
