<?xml version="1.0" encoding="UTF-8" standalone="no"?>
<!-- Created with Inkscape (http://www.inkscape.org/) -->

<svg
   width="40.566692mm"
   height="40.569443mm"
   viewBox="0 0 40.566693 40.569443"
   version="1.1"
   id="svg35221"
   inkscape:version="1.2.1 (9c6d41e410, 2022-07-14)"
   sodipodi:docname="7.svg"
   xmlns:inkscape="http://www.inkscape.org/namespaces/inkscape"
   xmlns:sodipodi="http://sodipodi.sourceforge.net/DTD/sodipodi-0.dtd"
   xmlns="http://www.w3.org/2000/svg"
   xmlns:svg="http://www.w3.org/2000/svg">
  <sodipodi:namedview
     id="namedview35223"
     pagecolor="#ffffff"
     bordercolor="#000000"
     borderopacity="0.25"
     inkscape:showpageshadow="2"
     inkscape:pageopacity="0.0"
     inkscape:pagecheckerboard="0"
     inkscape:deskcolor="#d1d1d1"
     inkscape:document-units="mm"
     showgrid="false"
     inkscape:zoom="4"
     inkscape:cx="41.125"
     inkscape:cy="76.75"
     inkscape:window-width="1920"
     inkscape:window-height="1009"
     inkscape:window-x="2552"
     inkscape:window-y="421"
     inkscape:window-maximized="1"
     inkscape:current-layer="g54343" />
  <defs
     id="defs35218" />
  <g
     inkscape:label="Capa 1"
     inkscape:groupmode="layer"
     id="layer1"
     transform="translate(-19.295792,-103.91864)">
    <g
       id="g35216"
       transform="matrix(0.35277777,0,0,0.35277777,-11.847197,-22.263639)" />
    <g
       id="g54343"
       transform="matrix(0.35277777,0,0,0.35277777,-616.71843,-18.944489)">
      <path
         fill-rule="nonzero"
         fill="#ff3c3c"
         fill-opacity="1"
         d="m 1802.875,405.77344 v -51.75 c 0,-3.17578 2.5859,-5.75 5.7539,-5.75 h 103.5039 c 3.168,0 5.7344,2.57422 5.7344,5.75 v 103.5 c 0,3.17187 -2.5664,5.75 -5.7344,5.75 h -103.5039 c -3.168,0 -5.7539,-2.57813 -5.7539,-5.75"
         id="path6102"
         style="fill:#264653;fill-opacity:1" />
      <g
         fill="#ffffff"
         fill-opacity="1"
         id="g6106">
        <g
           id="use6104"
           transform="translate(1843.3364,405.79422)">
          <path
             d="m 3.90625,-29.78125 v 29.734375 h 5.265625 v -24.59375 L 21.890625,-0.125 22.53125,-0.046875 h 7.546875 V -29.78125 H 24.8125 V -5.1875 l -12.734375,-24.5 -0.640625,-0.09375 z m 0,0"
             id="path54954" />
        </g>
      </g>
      <g
         fill="#ffffff"
         fill-opacity="1"
         id="g6110">
        <g
           id="use6108"
           transform="translate(1830.3761,427.63428)">
          <path
             d="M 1.40625,-11.96875 V -0.015625 H 2.484375 V -11 l 6.125,10.953125 0.171875,0.03125 h 1.5 V -11.96875 H 9.21875 V -0.984375 L 3.078125,-11.9375 2.90625,-11.96875 Z m 0,0"
             id="path54894" />
        </g>
      </g>
      <g
         fill="#ffffff"
         fill-opacity="1"
         id="g6114">
        <g
           id="use6112"
           transform="translate(1842.0132,427.63428)">
          <path
             d="m 1.109375,-8.140625 v 8.125 H 2.1875 v -8.125 z m 0,-3.828125 V -10.875 H 2.1875 v -1.09375 z m 0,0"
             id="path54902" />
        </g>
      </g>
      <g
         fill="#ffffff"
         fill-opacity="1"
         id="g6118">
        <g
           id="use6116"
           transform="translate(1845.2589,427.63428)">
          <path
             d="m 1.859375,-10.46875 v 2.328125 H 0.1875 v 0.859375 h 1.65625 v 5.015625 c 0,0.953125 0.140625,2.359375 1.421875,2.359375 0.828125,0 1.65625,-0.234375 2.359375,-0.609375 0.09375,-0.0625 0.234375,-0.109375 0.234375,-0.203125 0,-0.078125 -0.046875,-0.140625 -0.0625,-0.1875 C 5.75,-1.109375 5.703125,-1.3125 5.640625,-1.5 l -0.40625,0.3125 c -0.375,0.21875 -0.859375,0.390625 -1.328125,0.390625 -0.828125,0 -1.03125,-0.875 -1.03125,-1.59375 0,-0.25 0.015625,-0.484375 0.015625,-0.6875 V -7.28125 H 5.5625 V -8.140625 H 2.890625 v -2.328125 z m 0,0"
             id="path54950" />
        </g>
      </g>
      <g
         fill="#ffffff"
         fill-opacity="1"
         id="g6122">
        <g
           id="use6120"
           transform="translate(1851.5074,427.63428)">
          <path
             d="M 2.15625,-5.96875 V -8.140625 H 1.109375 v 8.125 H 2.1875 V -3.9375 c 0,-1.203125 0.34375,-2.53125 2.09375,-3.15625 0.375,-0.125 0.75,-0.1875 1.125,-0.1875 V -8.25 c -1.09375,0 -2.125,0.53125 -2.765625,1.421875 -0.203125,0.25 -0.40625,0.546875 -0.484375,0.859375 z m 0,0"
             id="path54934" />
        </g>
      </g>
      <g
         fill="#ffffff"
         fill-opacity="1"
         id="g6126">
        <g
           id="use6124"
           transform="translate(1857.0305,427.63428)">
          <path
             d="m 4.125,-8.296875 c -2.171875,0.21875 -3.5625,2.1875 -3.5625,4.234375 0,1.921875 1.359375,4.15625 3.828125,4.15625 2.1875,0 3.78125,-2.046875 3.78125,-4.140625 0,-2.0625 -1.421875,-4.25 -3.8125,-4.25 z M 1.671875,-3.90625 v -0.203125 c 0,-0.921875 0.15625,-1.9375 0.859375,-2.609375 0.5,-0.484375 1.171875,-0.71875 1.84375,-0.71875 1.8125,0 2.71875,1.53125 2.71875,3.265625 0,1.65625 -0.859375,3.359375 -2.71875,3.359375 -1,0 -1.8125,-0.53125 -2.296875,-1.390625 -0.265625,-0.53125 -0.34375,-1.125 -0.40625,-1.703125 z m 0,0"
             id="path54906" />
        </g>
      </g>
      <g
         fill="#ffffff"
         fill-opacity="1"
         id="g6130">
        <g
           id="use6128"
           transform="translate(1865.7848,427.63428)">
          <path
             d="m 6.09375,-2.078125 0.015625,1.59375 c 0,1.046875 -0.234375,2.5 -1.59375,2.703125 h -0.1875 c -1.140625,0 -2.0625,-0.25 -3.203125,-0.765625 V 2.21875 c 0,0.578125 2.265625,0.859375 3.1875,0.859375 1.59375,0 2.796875,-1.28125 2.90625,-2.90625 V -8.25 H 6.125 v 1.375 C 5.6875,-7.609375 5.078125,-8.25 4.09375,-8.25 c -2.171875,0 -3.421875,2.21875 -3.421875,4.140625 0,1.796875 1.203125,3.796875 3.21875,3.796875 0.875,0 1.921875,-0.6875 2.203125,-1.765625 z m 0.015625,-2.25 C 6.09375,-4.21875 6.09375,-4.109375 6.09375,-4.03125 V -3.75 c -0.0625,1.09375 -0.453125,2.578125 -1.75,2.578125 -1.65625,0 -2.5625,-1.640625 -2.5625,-3 0,-1.453125 1.078125,-3.21875 2.75,-3.21875 0.921875,0 1.359375,0.765625 1.59375,1.59375 0.015625,0.078125 0.015625,0.15625 0.015625,0.234375 0,0.171875 -0.015625,0.34375 -0.015625,0.5 v 0.375 c 0,0.125 0,0.25 -0.015625,0.359375 z m 0,0"
             id="path54930" />
        </g>
      </g>
      <g
         fill="#ffffff"
         fill-opacity="1"
         id="g6134">
        <g
           id="use6132"
           transform="translate(1874.0588,427.63428)">
          <path
             d="m 7.203125,-1.90625 c -0.84375,0.625 -1.625,1.125 -2.71875,1.125 -1.6875,0 -2.84375,-1.53125 -2.84375,-3.546875 h 5.6875 c 0,-1.8125 -0.75,-3.96875 -3.15625,-3.96875 -2.34375,0 -3.5625,2.265625 -3.5625,4.28125 V -3.9375 c 0.03125,2.03125 1.578125,4.03125 3.78125,4.03125 0.953125,0 1.890625,-0.328125 2.65625,-0.890625 0.09375,-0.078125 0.234375,-0.15625 0.234375,-0.3125 0,-0.0625 -0.015625,-0.109375 -0.03125,-0.171875 -0.015625,-0.203125 -0.03125,-0.421875 -0.046875,-0.625 z M 1.71875,-5 c 0.265625,-1.125 1.046875,-2.4375 2.390625,-2.4375 1.140625,0 1.9375,0.796875 2.203125,1.859375 C 6.359375,-5.390625 6.375,-5.1875 6.421875,-5 Z m 0,0"
             id="path54926" />
        </g>
      </g>
      <g
         fill="#ffffff"
         fill-opacity="1"
         id="g6138">
        <g
           id="use6136"
           transform="translate(1881.8589,427.63428)">
          <path
             d="m 2.171875,-6.421875 v -1.71875 h -1.0625 v 8.125 h 1.09375 V -4.34375 c 0,-1.15625 0.234375,-3.046875 1.953125,-3.046875 0.59375,0 1.25,0.125 1.625,0.625 0.3125,0.390625 0.328125,0.90625 0.328125,1.390625 v 5.359375 H 7.21875 V -5.40625 c 0,-1.640625 -0.578125,-2.84375 -2.453125,-2.84375 -1.15625,0 -2.21875,0.765625 -2.59375,1.828125 z m 0,0"
             id="path54918" />
        </g>
      </g>
      <g
         fill="#ffffff"
         fill-opacity="1"
         id="g6142">
        <g
           id="use6140"
           transform="translate(1836.1364,449.59433)">
          <path
             d="m 1.671875,-10.390625 v 0.875 c 0.828125,0 1.5625,-0.15625 2.359375,-0.5 V -0.875 h -2.25 v 0.859375 h 5.625 V -0.875 H 5.140625 v -10.640625 h -0.125 c -0.234375,0 -0.359375,0.21875 -0.53125,0.34375 -0.8125,0.578125 -1.828125,0.78125 -2.8125,0.78125 z m 0,0"
             id="path54922" />
        </g>
      </g>
      <g
         fill="#ffffff"
         fill-opacity="1"
         id="g6146">
        <g
           id="use6144"
           transform="translate(1844.8905,449.59433)">
          <path
             d="M 0.359375,-3.140625 H 5.34375 v 3.125 h 1.078125 v -3.125 h 1.96875 v -0.90625 h -1.96875 v -7.375 h -1.125 c -0.328125,0 -0.421875,0.40625 -0.59375,0.640625 -1.015625,1.625 -2.078125,3.203125 -3.125,4.828125 L 0.75,-4.671875 C 0.5625,-4.390625 0.359375,-4.15625 0.359375,-3.875 Z m 1.125,-0.90625 c 1.234375,-1.84375 2.4375,-3.71875 3.53125,-5.640625 0.125,-0.25 0.3125,-0.515625 0.359375,-0.796875 l 0.015625,6.4375 z m 0,0"
             id="path54938" />
        </g>
      </g>
      <g
         fill="#ffffff"
         fill-opacity="1"
         id="g6150">
        <g
           id="use6148"
           transform="translate(1853.6448,449.59433)">
          <path
             d="m 1.703125,-1.359375 v 1.34375 h 1.34375 v -1.34375 z m 0,0"
             id="path54898" />
        </g>
      </g>
      <g
         fill="#ffffff"
         fill-opacity="1"
         id="g6154">
        <g
           id="use6152"
           transform="translate(1858.3248,449.59433)">
          <path
             d="m 4.125,-11.515625 c -3.21875,0.3125 -3.375,3.984375 -3.375,5.90625 0,2.328125 0.46875,5.796875 3.625,5.796875 h 0.21875 c 2.359375,-0.296875 3.390625,-2.265625 3.390625,-5.90625 0,-1.59375 -0.125,-3.515625 -1.203125,-4.734375 -0.59375,-0.671875 -1.5,-1.078125 -2.390625,-1.078125 -0.078125,0 -0.171875,0.01563 -0.265625,0.01563 z M 1.859375,-4.875 C 1.84375,-5.015625 1.84375,-5.171875 1.84375,-5.296875 V -5.625 c 0,-2.15625 0.0625,-5.03125 2.546875,-5.03125 2.484375,0 2.5,3.078125 2.5,4.734375 v 0.8125 c 0,1.453125 -0.09375,3.21875 -1.28125,4.046875 C 5.25,-0.8125 4.828125,-0.671875 4.390625,-0.671875 3.6875,-0.671875 2.984375,-1.03125 2.5625,-1.65625 2.078125,-2.375 1.96875,-3.34375 1.890625,-4.203125 1.875,-4.421875 1.890625,-4.65625 1.859375,-4.875 Z m 0,0"
             id="path54910" />
        </g>
      </g>
      <g
         fill="#ffffff"
         fill-opacity="1"
         id="g6158">
        <g
           id="use6156"
           transform="translate(1867.0789,449.59433)">
          <path
             d="m 4.125,-11.515625 c -3.21875,0.3125 -3.375,3.984375 -3.375,5.90625 0,2.328125 0.46875,5.796875 3.625,5.796875 h 0.21875 c 2.359375,-0.296875 3.390625,-2.265625 3.390625,-5.90625 0,-1.59375 -0.125,-3.515625 -1.203125,-4.734375 -0.59375,-0.671875 -1.5,-1.078125 -2.390625,-1.078125 -0.078125,0 -0.171875,0.01563 -0.265625,0.01563 z M 1.859375,-4.875 C 1.84375,-5.015625 1.84375,-5.171875 1.84375,-5.296875 V -5.625 c 0,-2.15625 0.0625,-5.03125 2.546875,-5.03125 2.484375,0 2.5,3.078125 2.5,4.734375 v 0.8125 c 0,1.453125 -0.09375,3.21875 -1.28125,4.046875 C 5.25,-0.8125 4.828125,-0.671875 4.390625,-0.671875 3.6875,-0.671875 2.984375,-1.03125 2.5625,-1.65625 2.078125,-2.375 1.96875,-3.34375 1.890625,-4.203125 1.875,-4.421875 1.890625,-4.65625 1.859375,-4.875 Z m 0,0"
             id="path54914" />
        </g>
      </g>
      <g
         fill="#ffffff"
         fill-opacity="1"
         id="g6162">
        <g
           id="use6160"
           transform="translate(1875.833,449.59433)">
          <path
             d="m 0.625,-11.3125 v 0.96875 h 6.75 C 6.5625,-9.546875 5.8125,-8.75 5.1875,-7.796875 3.640625,-5.46875 2.796875,-2.703125 2.796875,0.09375 H 3.9375 c 0,-3.78125 1.4375,-7.25 3.859375,-10.125 C 7.953125,-10.1875 8.125,-10.3125 8.125,-10.5625 v -0.75 z m 0,0"
             id="path54942" />
        </g>
      </g>
      <g
         fill="#ffffff"
         fill-opacity="1"
         id="g6166">
        <g
           id="use6164"
           transform="translate(1811.6212,369.50449)">
          <path
             d="m 0.625,-11.3125 v 0.96875 h 6.75 C 6.5625,-9.546875 5.8125,-8.75 5.1875,-7.796875 3.640625,-5.46875 2.796875,-2.703125 2.796875,0.09375 H 3.9375 c 0,-3.78125 1.4375,-7.25 3.859375,-10.125 C 7.953125,-10.1875 8.125,-10.3125 8.125,-10.5625 v -0.75 z m 0,0"
             id="path54946" />
        </g>
      </g>
    </g>
  </g>
</svg>
