<?xml version="1.0" encoding="UTF-8" standalone="no"?>
<!-- Created with Inkscape (http://www.inkscape.org/) -->

<svg
   width="40.57357mm"
   height="40.569443mm"
   viewBox="0 0 40.573571 40.569443"
   version="1.1"
   id="svg35221"
   inkscape:version="1.2.1 (9c6d41e410, 2022-07-14)"
   sodipodi:docname="83.svg"
   xmlns:inkscape="http://www.inkscape.org/namespaces/inkscape"
   xmlns:sodipodi="http://sodipodi.sourceforge.net/DTD/sodipodi-0.dtd"
   xmlns="http://www.w3.org/2000/svg"
   xmlns:svg="http://www.w3.org/2000/svg">
  <sodipodi:namedview
     id="namedview35223"
     pagecolor="#ffffff"
     bordercolor="#000000"
     borderopacity="0.25"
     inkscape:showpageshadow="2"
     inkscape:pageopacity="0.0"
     inkscape:pagecheckerboard="0"
     inkscape:deskcolor="#d1d1d1"
     inkscape:document-units="mm"
     showgrid="false"
     inkscape:zoom="2.8284271"
     inkscape:cx="-111.5461"
     inkscape:cy="77.428193"
     inkscape:window-width="1920"
     inkscape:window-height="1009"
     inkscape:window-x="2552"
     inkscape:window-y="421"
     inkscape:window-maximized="1"
     inkscape:current-layer="g71581" />
  <defs
     id="defs35218" />
  <g
     inkscape:groupmode="layer"
     id="layer2"
     inkscape:label="Capa 2">
    <g
       id="g71581"
       transform="matrix(0.35277777,0,0,0.35277777,-636.01076,-294.86295)">
      <path
         fill-rule="nonzero"
         fill="#ffc81e"
         fill-opacity="1"
         d="m 1802.875,893.33203 v -51.75 c 0,-3.17578 2.5859,-5.75 5.7539,-5.75 h 103.5039 c 3.168,0 5.7344,2.57422 5.7344,5.75 v 103.5 c 0,3.17578 -2.5664,5.75 -5.7344,5.75 h -103.5039 c -3.168,0 -5.7539,-2.57422 -5.7539,-5.75"
         id="path6388"
         style="fill:#e9c46a;fill-opacity:1" />
      <g
         fill="#ffffff"
         fill-opacity="1"
         id="g6392">
        <g
           id="use6390"
           transform="translate(1839.1365,893.35229)">
          <path
             d="m 3.90625,-29.78125 v 29.734375 h 12.078125 c 4.96875,0 12.765625,-0.34375 12.765625,-8.171875 0,-4.546875 -3.59375,-6.90625 -7.546875,-7.375 1.71875,-0.5625 3.515625,-0.984375 4.71875,-2.4375 1.03125,-1.203125 1.5,-2.65625 1.5,-4.15625 0,-2.625 -1.375,-4.96875 -3.9375,-6.265625 -2.578125,-1.28125 -5.53125,-1.328125 -8.3125,-1.328125 z M 9.9375,-3.734375 V -13.96875 h 4.765625 c 1.96875,0 4.0625,0.09375 5.78125,1.109375 1.453125,0.90625 2.34375,2.65625 2.34375,4.375 0,1.5 -0.71875,2.953125 -2.09375,3.765625 -1.578125,0.953125 -3.515625,0.984375 -5.265625,0.984375 z m 0,-13.3125 v -9.046875 c 1.15625,0 2.265625,-0.04687 3.4375,-0.04687 h 0.5 c 2.96875,0 7.71875,0.140625 7.71875,4.25 0,4.109375 -4.203125,4.84375 -7.453125,4.84375 z m 0,0"
             id="path72210" />
        </g>
      </g>
      <g
         fill="#ffffff"
         fill-opacity="1"
         id="g6396">
        <g
           id="use6394"
           transform="translate(1870.562,893.35229)">
          <path
             d="m 2.609375,-20.265625 v 20.21875 H 8.3125 v -20.21875 z m 0,-9.515625 v 5.234375 H 8.3125 v -5.234375 z m 0,0"
             id="path72214" />
        </g>
      </g>
      <g
         fill="#ffffff"
         fill-opacity="1"
         id="g6400">
        <g
           id="use6398"
           transform="translate(1831.5765,915.19232)">
          <path
             d="m 1.390625,-11.96875 v 11.953125 h 4.34375 c 1.53125,0 3.078125,-0.34375 4.09375,-1.546875 C 10.234375,-2 10.46875,-2.5625 10.5,-3.15625 10.5,-5.125 8.484375,-5.984375 6.921875,-6.265625 8.15625,-6.625 10,-7.296875 10,-9 c 0,-1.125 -0.984375,-1.96875 -1.890625,-2.421875 -0.71875,-0.359375 -1.53125,-0.5 -2.34375,-0.546875 z M 2.546875,-0.9375 V -5.796875 H 5.09375 c 1.03125,0 1.96875,0.171875 2.84375,0.609375 0.6875,0.359375 1.421875,1.03125 1.421875,1.875 0,1.734375 -2.296875,2.3125 -3.609375,2.375 z m 0,-5.71875 v -4.390625 H 5.25 c 1.375,0 3.640625,0.609375 3.640625,2.109375 0,1.5625 -2.203125,2.1875 -3.609375,2.28125 z m 0,0"
             id="path72146" />
        </g>
      </g>
      <g
         fill="#ffffff"
         fill-opacity="1"
         id="g6404">
        <g
           id="use6402"
           transform="translate(1842.9695,915.19232)">
          <path
             d="m 1.109375,-8.140625 v 8.125 H 2.1875 v -8.125 z m 0,-3.828125 V -10.875 H 2.1875 v -1.09375 z m 0,0"
             id="path72206" />
        </g>
      </g>
      <g
         fill="#ffffff"
         fill-opacity="1"
         id="g6408">
        <g
           id="use6406"
           transform="translate(1846.2152,915.19232)">
          <path
             d="M 0.53125,-1.71875 C 0.5,-1.421875 0.375,-1.125 0.375,-0.828125 c 0,0.453125 1.890625,0.8125 2.125,0.84375 0.328125,0.046875 0.671875,0.078125 1,0.078125 1.328125,0 2.796875,-0.5625 2.890625,-2.28125 v -0.125 C 6.390625,-3.40625 5.5625,-4.171875 4.625,-4.515625 3.65625,-4.875 1.46875,-4.71875 1.46875,-6.203125 c 0,-0.9375 0.96875,-1.234375 1.796875,-1.234375 h 0.34375 C 4.25,-7.421875 4.90625,-7.28125 5.5,-6.984375 c 0.125,0.0625 0.25,0.15625 0.40625,0.1875 l 0.15625,-0.9375 c -0.84375,-0.375 -1.703125,-0.5625 -2.640625,-0.5625 -1.328125,0 -2.953125,0.515625 -2.953125,2.234375 0,3.140625 4.90625,1.578125 4.90625,3.890625 0,0.953125 -0.921875,1.375 -1.859375,1.375 -1.125,0 -1.875,-0.3125 -2.984375,-0.921875 z m 0,0"
             id="path72154" />
        </g>
      </g>
      <g
         fill="#ffffff"
         fill-opacity="1"
         id="g6412">
        <g
           id="use6410"
           transform="translate(1852.8182,915.19232)">
          <path
             d="m 2.171875,-6.421875 v -1.71875 h -1.0625 v 8.125 h 1.09375 V -4.34375 c 0,-1.171875 0.234375,-3.046875 1.953125,-3.046875 0.59375,0 1.265625,0.125 1.640625,0.625 C 6.109375,-6.375 6.125,-5.859375 6.125,-5.375 v 5.359375 H 7.234375 V -4.34375 c 0,-1.171875 0.234375,-3.046875 1.9375,-3.046875 0.609375,0 1.28125,0.125 1.65625,0.625 0.3125,0.390625 0.328125,0.90625 0.328125,1.390625 v 5.359375 h 1.109375 v -4.5625 c 0,-0.296875 0.01563,-0.625 0.01563,-0.9375 0,-0.765625 -0.109375,-1.578125 -0.65625,-2.125 C 11.15625,-8.109375 10.4375,-8.25 9.796875,-8.25 8.578125,-8.25 7.640625,-7.453125 7.1875,-6.40625 6.90625,-7.640625 6.109375,-8.25 4.75,-8.25 c -1.09375,0 -2.25,0.78125 -2.578125,1.828125 z m 0,0"
             id="path72186" />
        </g>
      </g>
      <g
         fill="#ffffff"
         fill-opacity="1"
         id="g6416">
        <g
           id="use6414"
           transform="translate(1866.1381,915.19232)">
          <path
             d="M 1.109375,-8.140625 V -2.3125 c 0,0.5 0.015625,1 0.21875,1.46875 0.328125,0.671875 1.015625,0.9375 1.71875,0.9375 1.15625,0 2.53125,-0.53125 3.0625,-1.609375 l 0.015625,1.5 h 1.09375 v -8.125 H 6.109375 v 4.125 C 6.109375,-3.75 6.125,-3.5 6.125,-3.234375 c 0,0.484375 -0.046875,0.96875 -0.28125,1.390625 -0.421875,0.703125 -1.15625,1.125 -2,1.125 -0.859375,0 -1.65625,0 -1.65625,-1.625 0,-0.25 0.015625,-0.515625 0.015625,-0.765625 v -5.03125 z m 0,0"
             id="path72190" />
        </g>
      </g>
      <g
         fill="#ffffff"
         fill-opacity="1"
         id="g6422">
        <g
           id="use6418"
           transform="translate(1874.4121,915.19232)">
          <path
             d="m 1.859375,-10.46875 v 2.328125 H 0.1875 v 0.859375 h 1.65625 v 5.015625 c 0,0.953125 0.140625,2.359375 1.421875,2.359375 0.828125,0 1.65625,-0.234375 2.359375,-0.609375 0.09375,-0.0625 0.234375,-0.109375 0.234375,-0.203125 0,-0.078125 -0.046875,-0.140625 -0.0625,-0.1875 C 5.75,-1.109375 5.703125,-1.3125 5.640625,-1.5 l -0.40625,0.3125 c -0.375,0.21875 -0.859375,0.390625 -1.328125,0.390625 -0.828125,0 -1.03125,-0.875 -1.03125,-1.59375 0,-0.25 0.015625,-0.484375 0.015625,-0.6875 V -7.28125 H 5.5625 V -8.140625 H 2.890625 v -2.328125 z m 0,0"
             id="path72202" />
        </g>
        <g
           id="use6420"
           transform="translate(1880.6613,915.19232)">
          <path
             d="m 1.109375,-11.96875 v 11.953125 h 1.09375 V -4.34375 c 0,-1.15625 0.234375,-3.046875 1.953125,-3.046875 0.59375,0 1.25,0.125 1.625,0.625 0.3125,0.390625 0.328125,0.90625 0.328125,1.390625 v 5.359375 H 7.21875 V -5.4375 C 7.21875,-6.078125 7.1875,-6.71875 6.875,-7.265625 6.421875,-8.046875 5.546875,-8.25 4.71875,-8.25 c -1.0625,0 -2.296875,0.828125 -2.515625,1.765625 L 2.1875,-11.96875 Z m 0,0"
             id="path72198" />
        </g>
      </g>
      <g
         fill="#ffffff"
         fill-opacity="1"
         id="g6426">
        <g
           id="use6424"
           transform="translate(1831.6965,937.1524)">
          <path
             d="m 1.25,-7.921875 c 0.3125,-1.25 0.921875,-2.6875 2.640625,-2.6875 1.46875,0 2.96875,0.890625 2.96875,2.578125 0,1.9375 -1.8125,3.265625 -3.125,4.359375 C 2.875,-2.9375 2.03125,-2.140625 1.21875,-1.359375 L 0.9375,-1.078125 C 0.828125,-0.984375 0.75,-0.9375 0.75,-0.75 v 0.734375 h 7.234375 v -0.96875 H 1.75 c 0.4375,-0.40625 0.90625,-0.8125 1.34375,-1.203125 0.609375,-0.53125 1.1875,-1.078125 1.8125,-1.578125 1.359375,-1.109375 3.078125,-2.328125 3.078125,-4.3125 0,-2 -1.671875,-3.375 -3.65625,-3.4375 h -0.125 c -1.46875,0 -2.796875,0.609375 -3.453125,2.40625 C 0.703125,-9.015625 0.640625,-8.875 0.640625,-8.75 v 0.03125 C 0.65625,-8.609375 0.75,-8.515625 0.8125,-8.453125 c 0.140625,0.171875 0.265625,0.375 0.4375,0.53125 z m 0,0"
             id="path72150" />
        </g>
      </g>
      <g
         fill="#ffffff"
         fill-opacity="1"
         id="g6430">
        <g
           id="use6428"
           transform="translate(1840.4506,937.1524)">
          <path
             d="m 4.125,-11.515625 c -3.21875,0.3125 -3.375,3.984375 -3.375,5.90625 0,2.328125 0.46875,5.796875 3.625,5.796875 h 0.21875 c 2.359375,-0.296875 3.390625,-2.265625 3.390625,-5.90625 0,-1.59375 -0.125,-3.515625 -1.203125,-4.734375 -0.59375,-0.671875 -1.5,-1.078125 -2.390625,-1.078125 -0.078125,0 -0.171875,0.01563 -0.265625,0.01563 z M 1.859375,-4.875 C 1.84375,-5.015625 1.84375,-5.171875 1.84375,-5.296875 V -5.625 c 0,-2.15625 0.0625,-5.03125 2.546875,-5.03125 2.484375,0 2.5,3.078125 2.5,4.734375 v 0.8125 c 0,1.453125 -0.09375,3.21875 -1.28125,4.046875 C 5.25,-0.8125 4.828125,-0.671875 4.390625,-0.671875 3.6875,-0.671875 2.984375,-1.03125 2.5625,-1.65625 2.078125,-2.375 1.96875,-3.34375 1.890625,-4.203125 1.875,-4.421875 1.890625,-4.65625 1.859375,-4.875 Z m 0,0"
             id="path72178" />
        </g>
      </g>
      <g
         fill="#ffffff"
         fill-opacity="1"
         id="g6434">
        <g
           id="use6432"
           transform="translate(1849.205,937.1524)">
          <path
             d="m 3.21875,-6.125 v 0.015625 C 1.90625,-5.71875 0.625,-4.78125 0.625,-3.1875 c 0,2.078125 1.953125,3.375 3.828125,3.375 H 4.53125 C 6.3125,0.15625 8.125,-1.25 8.125,-3.171875 c 0,-1.5 -1.21875,-2.5625 -2.59375,-2.9375 0.921875,-0.34375 2.359375,-0.9375 2.359375,-2.5 0,-1.75 -1.796875,-2.90625 -3.515625,-2.90625 -1.609375,0 -3.515625,1.046875 -3.515625,2.890625 v 0.140625 C 0.96875,-7.28125 2.15625,-6.28125 3.21875,-6.125 Z M 1.75,-2.96875 c 0,-0.0625 -0.015625,-0.140625 -0.015625,-0.21875 0,-1.46875 1.109375,-2.5 2.640625,-2.5 1.421875,0 2.609375,0.90625 2.609375,2.484375 0,1.578125 -1.125,2.5 -2.59375,2.5 C 2.96875,-0.703125 1.921875,-1.5 1.75,-2.96875 Z m 0.140625,-5.453125 v -0.15625 c 0,-1.5625 1.296875,-2.078125 2.453125,-2.078125 1.109375,0 2.359375,0.40625 2.515625,1.875 V -8.625 c 0,1.53125 -1.296875,2.078125 -2.46875,2.078125 -1.1875,0 -2.328125,-0.546875 -2.5,-1.875 z m 0,0"
             id="path72166" />
        </g>
      </g>
      <g
         fill="#ffffff"
         fill-opacity="1"
         id="g6438">
        <g
           id="use6436"
           transform="translate(1857.9591,937.1524)">
          <path
             d="m 1.703125,-1.359375 v 1.34375 h 1.34375 v -1.34375 z m 0,0"
             id="path72194" />
        </g>
      </g>
      <g
         fill="#ffffff"
         fill-opacity="1"
         id="g6442">
        <g
           id="use6440"
           transform="translate(1862.639,937.1524)">
          <path
             d="M 6.796875,-5.671875 H 6.8125 c 0,1.859375 -0.40625,4.96875 -3.296875,4.96875 C 2.75,-0.703125 2.1875,-1 1.625,-1.390625 l -0.453125,0.78125 C 1.890625,-0.0625 2.703125,0.1875 3.59375,0.1875 c 2.9375,0 4.359375,-3.359375 4.359375,-5.796875 0,-2.015625 -0.234375,-4.8125 -2.421875,-5.703125 -0.359375,-0.140625 -0.765625,-0.203125 -1.15625,-0.203125 -2.1875,0 -3.578125,2 -3.578125,3.96875 0,1.796875 0.859375,3.90625 2.921875,3.90625 1.234375,0 2.703125,-0.875 3.078125,-2.03125 z M 6.75,-7.578125 c -0.015625,0.046875 -0.015625,0.109375 -0.015625,0.15625 0,0.125 0.015625,0.21875 0.015625,0.34375 v 0.09375 C 6.640625,-5.625 5.640625,-4.5 4.171875,-4.5 3.4375,-4.5 2.84375,-4.78125 2.40625,-5.390625 1.984375,-5.984375 1.921875,-6.71875 1.921875,-7.4375 c 0,-1.328125 0.265625,-3.21875 2.484375,-3.21875 1.640625,0 2.34375,1.703125 2.34375,2.953125 z m 0,0"
             id="path72162" />
        </g>
      </g>
      <g
         fill="#ffffff"
         fill-opacity="1"
         id="g6446">
        <g
           id="use6444"
           transform="translate(1871.3932,937.1524)">
          <path
             d="m 3.21875,-6.125 v 0.015625 C 1.90625,-5.71875 0.625,-4.78125 0.625,-3.1875 c 0,2.078125 1.953125,3.375 3.828125,3.375 H 4.53125 C 6.3125,0.15625 8.125,-1.25 8.125,-3.171875 c 0,-1.5 -1.21875,-2.5625 -2.59375,-2.9375 0.921875,-0.34375 2.359375,-0.9375 2.359375,-2.5 0,-1.75 -1.796875,-2.90625 -3.515625,-2.90625 -1.609375,0 -3.515625,1.046875 -3.515625,2.890625 v 0.140625 C 0.96875,-7.28125 2.15625,-6.28125 3.21875,-6.125 Z M 1.75,-2.96875 c 0,-0.0625 -0.015625,-0.140625 -0.015625,-0.21875 0,-1.46875 1.109375,-2.5 2.640625,-2.5 1.421875,0 2.609375,0.90625 2.609375,2.484375 0,1.578125 -1.125,2.5 -2.59375,2.5 C 2.96875,-0.703125 1.921875,-1.5 1.75,-2.96875 Z m 0.140625,-5.453125 v -0.15625 c 0,-1.5625 1.296875,-2.078125 2.453125,-2.078125 1.109375,0 2.359375,0.40625 2.515625,1.875 V -8.625 c 0,1.53125 -1.296875,2.078125 -2.46875,2.078125 -1.1875,0 -2.328125,-0.546875 -2.5,-1.875 z m 0,0"
             id="path72170" />
        </g>
      </g>
      <g
         fill="#ffffff"
         fill-opacity="1"
         id="g6450">
        <g
           id="use6448"
           transform="translate(1880.1472,937.1524)">
          <path
             d="m 4.125,-11.515625 c -3.21875,0.3125 -3.375,3.984375 -3.375,5.90625 0,2.328125 0.46875,5.796875 3.625,5.796875 h 0.21875 c 2.359375,-0.296875 3.390625,-2.265625 3.390625,-5.90625 0,-1.59375 -0.125,-3.515625 -1.203125,-4.734375 -0.59375,-0.671875 -1.5,-1.078125 -2.390625,-1.078125 -0.078125,0 -0.171875,0.01563 -0.265625,0.01563 z M 1.859375,-4.875 C 1.84375,-5.015625 1.84375,-5.171875 1.84375,-5.296875 V -5.625 c 0,-2.15625 0.0625,-5.03125 2.546875,-5.03125 2.484375,0 2.5,3.078125 2.5,4.734375 v 0.8125 c 0,1.453125 -0.09375,3.21875 -1.28125,4.046875 C 5.25,-0.8125 4.828125,-0.671875 4.390625,-0.671875 3.6875,-0.671875 2.984375,-1.03125 2.5625,-1.65625 2.078125,-2.375 1.96875,-3.34375 1.890625,-4.203125 1.875,-4.421875 1.890625,-4.65625 1.859375,-4.875 Z m 0,0"
             id="path72182" />
        </g>
      </g>
      <g
         fill="#ffffff"
         fill-opacity="1"
         id="g6454">
        <g
           id="use6452"
           transform="translate(1811.6211,857.06256)">
          <path
             d="m 3.21875,-6.125 v 0.015625 C 1.90625,-5.71875 0.625,-4.78125 0.625,-3.1875 c 0,2.078125 1.953125,3.375 3.828125,3.375 H 4.53125 C 6.3125,0.15625 8.125,-1.25 8.125,-3.171875 c 0,-1.5 -1.21875,-2.5625 -2.59375,-2.9375 0.921875,-0.34375 2.359375,-0.9375 2.359375,-2.5 0,-1.75 -1.796875,-2.90625 -3.515625,-2.90625 -1.609375,0 -3.515625,1.046875 -3.515625,2.890625 v 0.140625 C 0.96875,-7.28125 2.15625,-6.28125 3.21875,-6.125 Z M 1.75,-2.96875 c 0,-0.0625 -0.015625,-0.140625 -0.015625,-0.21875 0,-1.46875 1.109375,-2.5 2.640625,-2.5 1.421875,0 2.609375,0.90625 2.609375,2.484375 0,1.578125 -1.125,2.5 -2.59375,2.5 C 2.96875,-0.703125 1.921875,-1.5 1.75,-2.96875 Z m 0.140625,-5.453125 v -0.15625 c 0,-1.5625 1.296875,-2.078125 2.453125,-2.078125 1.109375,0 2.359375,0.40625 2.515625,1.875 V -8.625 c 0,1.53125 -1.296875,2.078125 -2.46875,2.078125 -1.1875,0 -2.328125,-0.546875 -2.5,-1.875 z m 0,0"
             id="path72174" />
        </g>
      </g>
      <g
         fill="#ffffff"
         fill-opacity="1"
         id="g6458">
        <g
           id="use6456"
           transform="translate(1820.3752,857.06256)">
          <path
             d="m 1.390625,-8.703125 c 0.75,-1.09375 1.46875,-1.953125 3.109375,-1.953125 0.96875,0 1.984375,0.53125 1.984375,1.640625 0,1.984375 -2.03125,2.390625 -3.609375,2.46875 V -5.6875 h 1.1875 c 0.8125,0 1.625,0.109375 2.203125,0.75 0.453125,0.453125 0.65625,1.09375 0.65625,1.734375 0,1.40625 -1.015625,2.5 -2.53125,2.5 -1.453125,0 -2.765625,-0.78125 -3.59375,-1.9375 -0.109375,0.234375 -0.15625,0.6875 -0.15625,0.828125 V -1.75 C 0.90625,-1.078125 2.15625,-0.28125 3.046875,-0.015625 3.5,0.109375 3.9375,0.171875 4.40625,0.171875 6.09375,0.171875 8.125,-1 8.125,-3.140625 8.125,-4.25 7.46875,-5.1875 6.484375,-5.734375 c -0.28125,-0.171875 -0.625,-0.34375 -0.96875,-0.375 C 6.59375,-6.625 7.625,-7.578125 7.625,-9 c 0,-1.65625 -1.75,-2.515625 -3.171875,-2.515625 -1.4375,0 -2.65625,0.71875 -3.484375,1.875 -0.03125,0.046875 -0.078125,0.09375 -0.078125,0.171875 0,0.15625 0.328125,0.53125 0.5,0.765625 z m 0,0"
             id="path72158" />
        </g>
      </g>
    </g>
  </g>
  <g
     inkscape:label="Capa 1"
     inkscape:groupmode="layer"
     id="layer1"
     transform="translate(-25.949774,-102.1557)">
    <g
       id="g35216"
       transform="matrix(0.35277777,0,0,0.35277777,-11.847197,-22.263639)" />
  </g>
</svg>
