<?xml version="1.0" encoding="UTF-8" standalone="no"?>
<!-- Created with Inkscape (http://www.inkscape.org/) -->

<svg
   width="40.57357mm"
   height="40.569443mm"
   viewBox="0 0 40.573571 40.569443"
   version="1.1"
   id="svg35221"
   inkscape:version="1.2.1 (9c6d41e410, 2022-07-14)"
   sodipodi:docname="8_clicked.svg"
   xmlns:inkscape="http://www.inkscape.org/namespaces/inkscape"
   xmlns:sodipodi="http://sodipodi.sourceforge.net/DTD/sodipodi-0.dtd"
   xmlns="http://www.w3.org/2000/svg"
   xmlns:svg="http://www.w3.org/2000/svg">
  <sodipodi:namedview
     id="namedview35223"
     pagecolor="#ffffff"
     bordercolor="#000000"
     borderopacity="0.25"
     inkscape:showpageshadow="2"
     inkscape:pageopacity="0.0"
     inkscape:pagecheckerboard="0"
     inkscape:deskcolor="#d1d1d1"
     inkscape:document-units="mm"
     showgrid="false"
     inkscape:zoom="2.8284271"
     inkscape:cx="16.086679"
     inkscape:cy="105.71246"
     inkscape:window-width="1920"
     inkscape:window-height="1009"
     inkscape:window-x="2552"
     inkscape:window-y="421"
     inkscape:window-maximized="1"
     inkscape:current-layer="layer1" />
  <defs
     id="defs35218" />
  <g
     inkscape:label="Capa 1"
     inkscape:groupmode="layer"
     id="layer1"
     transform="translate(-25.949774,-102.1557)">
    <g
       id="g35216"
       transform="matrix(0.35277777,0,0,0.35277777,-11.847197,-22.263639)" />
    <g
       id="g56355"
       transform="matrix(0.35277777,0,0,0.35277777,-653.06199,-20.707431)">
      <path
         fill-rule="nonzero"
         fill="#ff3c3c"
         fill-opacity="1"
         d="m 1924.7578,405.77344 v -51.75 c 0,-3.17578 2.586,-5.75 5.7539,-5.75 h 103.5039 c 3.168,0 5.7539,2.57422 5.7539,5.75 v 103.5 c 0,3.17187 -2.5859,5.75 -5.7539,5.75 h -103.5039 c -3.1679,0 -5.7539,-2.57813 -5.7539,-5.75"
         id="path6460"
         style="fill:#264653;fill-opacity:1" />
      <g
         fill="#ffffff"
         fill-opacity="1"
         id="g6464">
        <g
           id="use6462"
           transform="translate(1965.2262,405.79422)">
          <path
             d="m 15.984375,-30.71875 c -1.125,0.125 -2.1875,0.21875 -3.296875,0.421875 C 5.875,-28.75 2.609375,-23.140625 2.609375,-14.65625 c 0,4.28125 0.8125,9.046875 4.03125,12.125 2.703125,2.578125 6.59375,3.4375 10.28125,3.4375 C 20.828125,0.90625 25.015625,0 27.8125,-3 c 2.734375,-3 3.546875,-7.28125 3.546875,-11.3125 0,-4.203125 -0.515625,-8.953125 -3.421875,-12.25 -2.875,-3.21875 -7.15625,-4.15625 -11.265625,-4.15625 z M 8.90625,-13.578125 v -2.578125 c 0,-4.5 0.734375,-11.21875 8.109375,-11.21875 2.09375,0 4.234375,0.71875 5.65625,2.265625 2.265625,2.53125 2.390625,6.296875 2.390625,9.390625 v 0.34375 c 0,3.125 -0.04687,7.40625 -2.3125,10.234375 -1.375,1.75 -3.5625,2.609375 -5.734375,2.609375 -2.28125,0 -4.59375,-0.9375 -5.96875,-2.828125 C 9.25,-7.84375 9.21875,-10.71875 8.90625,-13.578125 Z m 0,0"
             id="path56938" />
        </g>
      </g>
      <g
         fill="#ffffff"
         fill-opacity="1"
         id="g6468">
        <g
           id="use6466"
           transform="translate(1956.2263,427.63428)">
          <path
             d="M 6.234375,-12.171875 C 4.84375,-12.015625 3.5,-11.46875 2.5,-10.328125 1.421875,-9.125 0.875,-7.53125 0.875,-5.9375 c 0,2.84375 2,6.125 5.671875,6.125 3.4375,0 5.640625,-3.15625 5.640625,-6.203125 0,-3.078125 -2.296875,-6.171875 -5.671875,-6.171875 -0.09375,0 -0.203125,0.01563 -0.28125,0.01563 z M 2.0625,-5.875 v -0.21875 c 0,-2.078125 0.90625,-4.34375 3.375,-5.0625 0.34375,-0.09375 0.734375,-0.140625 1.09375,-0.140625 2.515625,0 4.453125,2.21875 4.453125,5.015625 0,2.34375 -1.203125,5.578125 -4.46875,5.578125 H 6.359375 C 4.171875,-0.84375 2.5625,-2.71875 2.203125,-4.796875 2.140625,-5.171875 2.09375,-5.515625 2.0625,-5.875 Z m 0,0"
             id="path56886" />
        </g>
      </g>
      <g
         fill="#ffffff"
         fill-opacity="1"
         id="g6472">
        <g
           id="use6470"
           transform="translate(1969.3005,427.63428)">
          <path
             d="m -0.03125,-8.140625 3.171875,3.9375 -3.28125,4.1875 h 1.1875 l 2.5625,-3.5625 2.640625,3.53125 h 1.203125 l -3.375,-4.15625 3.0625,-3.9375 H 5.96875 l -2.359375,3.125 -2.4375,-3.09375 -0.375,-0.03125 z m 0,0"
             id="path56914" />
        </g>
      </g>
      <g
         fill="#ffffff"
         fill-opacity="1"
         id="g6476">
        <g
           id="use6474"
           transform="translate(1976.6206,427.63428)">
          <path
             d="m 0.125,-8.140625 c 0.078125,0.28125 0.203125,0.5625 0.328125,0.84375 C 1.234375,-5.09375 2.171875,-2.921875 3,-0.75 l 0.171875,0.421875 c 0.03125,0.09375 0.078125,0.1875 0.09375,0.28125 v 0.03125 c 0,0.078125 -0.03125,0.171875 -0.0625,0.234375 l -0.1875,0.5 c -0.25,0.703125 -0.640625,1.375 -1.46875,1.375 -0.46875,0 -0.9375,-0.109375 -1.40625,-0.21875 L 0.21875,2.84375 c 0.453125,0.0625 0.90625,0.125 1.34375,0.125 1.359375,0 2,-1.234375 2.421875,-2.328125 0.171875,-0.5 0.359375,-0.984375 0.53125,-1.484375 L 6.875,-7.25 c 0.109375,-0.296875 0.234375,-0.578125 0.328125,-0.890625 h -0.9375 c -0.171875,0 -0.171875,0.09375 -0.203125,0.203125 l -0.140625,0.359375 c -0.53125,1.359375 -1,2.78125 -1.484375,4.15625 C 4.171875,-2.671875 3.890625,-1.90625 3.75,-1.125 3.21875,-3.328125 2.234375,-5.515625 1.421875,-7.609375 l -0.125,-0.34375 c -0.0625,-0.140625 -0.09375,-0.1875 -0.25,-0.1875 z m 0,0"
             id="path56898" />
        </g>
      </g>
      <g
         fill="#ffffff"
         fill-opacity="1"
         id="g6480">
        <g
           id="use6478"
           transform="translate(1983.9404,427.63428)">
          <path
             d="m 6.09375,-2.078125 0.015625,1.59375 c 0,1.046875 -0.234375,2.5 -1.59375,2.703125 h -0.1875 c -1.140625,0 -2.0625,-0.25 -3.203125,-0.765625 V 2.21875 c 0,0.578125 2.265625,0.859375 3.1875,0.859375 1.59375,0 2.796875,-1.28125 2.90625,-2.90625 V -8.25 H 6.125 v 1.375 C 5.6875,-7.609375 5.078125,-8.25 4.09375,-8.25 c -2.171875,0 -3.421875,2.21875 -3.421875,4.140625 0,1.796875 1.203125,3.796875 3.21875,3.796875 0.875,0 1.921875,-0.6875 2.203125,-1.765625 z m 0.015625,-2.25 C 6.09375,-4.21875 6.09375,-4.109375 6.09375,-4.03125 V -3.75 c -0.0625,1.09375 -0.453125,2.578125 -1.75,2.578125 -1.65625,0 -2.5625,-1.640625 -2.5625,-3 0,-1.453125 1.078125,-3.21875 2.75,-3.21875 0.921875,0 1.359375,0.765625 1.59375,1.59375 0.015625,0.078125 0.015625,0.15625 0.015625,0.234375 0,0.171875 -0.015625,0.34375 -0.015625,0.5 v 0.375 c 0,0.125 0,0.25 -0.015625,0.359375 z m 0,0"
             id="path56910" />
        </g>
      </g>
      <g
         fill="#ffffff"
         fill-opacity="1"
         id="g6484">
        <g
           id="use6482"
           transform="translate(1992.2147,427.63428)">
          <path
             d="m 7.203125,-1.90625 c -0.84375,0.625 -1.625,1.125 -2.71875,1.125 -1.6875,0 -2.84375,-1.53125 -2.84375,-3.546875 h 5.6875 c 0,-1.8125 -0.75,-3.96875 -3.15625,-3.96875 -2.34375,0 -3.5625,2.265625 -3.5625,4.28125 V -3.9375 c 0.03125,2.03125 1.578125,4.03125 3.78125,4.03125 0.953125,0 1.890625,-0.328125 2.65625,-0.890625 0.09375,-0.078125 0.234375,-0.15625 0.234375,-0.3125 0,-0.0625 -0.015625,-0.109375 -0.03125,-0.171875 -0.015625,-0.203125 -0.03125,-0.421875 -0.046875,-0.625 z M 1.71875,-5 c 0.265625,-1.125 1.046875,-2.4375 2.390625,-2.4375 1.140625,0 1.9375,0.796875 2.203125,1.859375 C 6.359375,-5.390625 6.375,-5.1875 6.421875,-5 Z m 0,0"
             id="path56906" />
        </g>
      </g>
      <g
         fill="#ffffff"
         fill-opacity="1"
         id="g6488">
        <g
           id="use6486"
           transform="translate(2000.0146,427.63428)">
          <path
             d="m 2.171875,-6.421875 v -1.71875 h -1.0625 v 8.125 h 1.09375 V -4.34375 c 0,-1.15625 0.234375,-3.046875 1.953125,-3.046875 0.59375,0 1.25,0.125 1.625,0.625 0.3125,0.390625 0.328125,0.90625 0.328125,1.390625 v 5.359375 H 7.21875 V -5.40625 c 0,-1.640625 -0.578125,-2.84375 -2.453125,-2.84375 -1.15625,0 -2.21875,0.765625 -2.59375,1.828125 z m 0,0"
             id="path56894" />
        </g>
      </g>
      <g
         fill="#ffffff"
         fill-opacity="1"
         id="g6492">
        <g
           id="use6490"
           transform="translate(1958.026,449.59433)">
          <path
             d="m 1.671875,-10.390625 v 0.875 c 0.828125,0 1.5625,-0.15625 2.359375,-0.5 V -0.875 h -2.25 v 0.859375 h 5.625 V -0.875 H 5.140625 v -10.640625 h -0.125 c -0.234375,0 -0.359375,0.21875 -0.53125,0.34375 -0.8125,0.578125 -1.828125,0.78125 -2.8125,0.78125 z m 0,0"
             id="path56902" />
        </g>
      </g>
      <g
         fill="#ffffff"
         fill-opacity="1"
         id="g6496">
        <g
           id="use6494"
           transform="translate(1966.7802,449.59433)">
          <path
             d="m 1.453125,-11.3125 v 6.171875 h 0.78125 c 0.203125,0 0.25,-0.140625 0.328125,-0.265625 0.5,-0.65625 1.296875,-0.9375 2.0625,-0.9375 1.671875,0 2.15625,1.5 2.15625,2.734375 0,0.734375 -0.125,1.5625 -0.671875,2.109375 C 5.59375,-0.953125 4.875,-0.703125 4.125,-0.703125 c -1.203125,0 -2.28125,-0.625 -2.9375,-1.609375 H 1.171875 c -0.15625,0.25 -0.453125,0.625 -0.453125,0.796875 0,0.15625 0.28125,0.375 0.40625,0.5 0.78125,0.75 1.859375,1.203125 2.953125,1.203125 2.015625,0 3.890625,-1.515625 3.890625,-3.75 0,-1.671875 -1.140625,-3.640625 -3.359375,-3.640625 -0.796875,0 -1.515625,0.328125 -2.109375,0.8125 v -4.015625 h 4.890625 v -0.90625 z m 0,0"
             id="path56918" />
        </g>
      </g>
      <g
         fill="#ffffff"
         fill-opacity="1"
         id="g6500">
        <g
           id="use6498"
           transform="translate(1975.5344,449.59433)">
          <path
             d="m 1.703125,-1.359375 v 1.34375 h 1.34375 v -1.34375 z m 0,0"
             id="path56890" />
        </g>
      </g>
      <g
         fill="#ffffff"
         fill-opacity="1"
         id="g6504">
        <g
           id="use6502"
           transform="translate(1980.2144,449.59433)">
          <path
             d="M 6.796875,-5.671875 H 6.8125 c 0,1.859375 -0.40625,4.96875 -3.296875,4.96875 C 2.75,-0.703125 2.1875,-1 1.625,-1.390625 l -0.453125,0.78125 C 1.890625,-0.0625 2.703125,0.1875 3.59375,0.1875 c 2.9375,0 4.359375,-3.359375 4.359375,-5.796875 0,-2.015625 -0.234375,-4.8125 -2.421875,-5.703125 -0.359375,-0.140625 -0.765625,-0.203125 -1.15625,-0.203125 -2.1875,0 -3.578125,2 -3.578125,3.96875 0,1.796875 0.859375,3.90625 2.921875,3.90625 1.234375,0 2.703125,-0.875 3.078125,-2.03125 z M 6.75,-7.578125 c -0.015625,0.046875 -0.015625,0.109375 -0.015625,0.15625 0,0.125 0.015625,0.21875 0.015625,0.34375 v 0.09375 C 6.640625,-5.625 5.640625,-4.5 4.171875,-4.5 3.4375,-4.5 2.84375,-4.78125 2.40625,-5.390625 1.984375,-5.984375 1.921875,-6.71875 1.921875,-7.4375 c 0,-1.328125 0.265625,-3.21875 2.484375,-3.21875 1.640625,0 2.34375,1.703125 2.34375,2.953125 z m 0,0"
             id="path56922" />
        </g>
      </g>
      <g
         fill="#ffffff"
         fill-opacity="1"
         id="g6508">
        <g
           id="use6506"
           transform="translate(1988.9685,449.59433)">
          <path
             d="M 6.796875,-5.671875 H 6.8125 c 0,1.859375 -0.40625,4.96875 -3.296875,4.96875 C 2.75,-0.703125 2.1875,-1 1.625,-1.390625 l -0.453125,0.78125 C 1.890625,-0.0625 2.703125,0.1875 3.59375,0.1875 c 2.9375,0 4.359375,-3.359375 4.359375,-5.796875 0,-2.015625 -0.234375,-4.8125 -2.421875,-5.703125 -0.359375,-0.140625 -0.765625,-0.203125 -1.15625,-0.203125 -2.1875,0 -3.578125,2 -3.578125,3.96875 0,1.796875 0.859375,3.90625 2.921875,3.90625 1.234375,0 2.703125,-0.875 3.078125,-2.03125 z M 6.75,-7.578125 c -0.015625,0.046875 -0.015625,0.109375 -0.015625,0.15625 0,0.125 0.015625,0.21875 0.015625,0.34375 v 0.09375 C 6.640625,-5.625 5.640625,-4.5 4.171875,-4.5 3.4375,-4.5 2.84375,-4.78125 2.40625,-5.390625 1.984375,-5.984375 1.921875,-6.71875 1.921875,-7.4375 c 0,-1.328125 0.265625,-3.21875 2.484375,-3.21875 1.640625,0 2.34375,1.703125 2.34375,2.953125 z m 0,0"
             id="path56926" />
        </g>
      </g>
      <g
         fill="#ffffff"
         fill-opacity="1"
         id="g6512">
        <g
           id="use6510"
           transform="translate(1997.7227,449.59433)">
          <path
             d="M 6.796875,-5.671875 H 6.8125 c 0,1.859375 -0.40625,4.96875 -3.296875,4.96875 C 2.75,-0.703125 2.1875,-1 1.625,-1.390625 l -0.453125,0.78125 C 1.890625,-0.0625 2.703125,0.1875 3.59375,0.1875 c 2.9375,0 4.359375,-3.359375 4.359375,-5.796875 0,-2.015625 -0.234375,-4.8125 -2.421875,-5.703125 -0.359375,-0.140625 -0.765625,-0.203125 -1.15625,-0.203125 -2.1875,0 -3.578125,2 -3.578125,3.96875 0,1.796875 0.859375,3.90625 2.921875,3.90625 1.234375,0 2.703125,-0.875 3.078125,-2.03125 z M 6.75,-7.578125 c -0.015625,0.046875 -0.015625,0.109375 -0.015625,0.15625 0,0.125 0.015625,0.21875 0.015625,0.34375 v 0.09375 C 6.640625,-5.625 5.640625,-4.5 4.171875,-4.5 3.4375,-4.5 2.84375,-4.78125 2.40625,-5.390625 1.984375,-5.984375 1.921875,-6.71875 1.921875,-7.4375 c 0,-1.328125 0.265625,-3.21875 2.484375,-3.21875 1.640625,0 2.34375,1.703125 2.34375,2.953125 z m 0,0"
             id="path56930" />
        </g>
      </g>
      <g
         fill="#ffffff"
         fill-opacity="1"
         id="g6516">
        <g
           id="use6514"
           transform="translate(1933.5114,369.50449)">
          <path
             d="m 3.21875,-6.125 v 0.015625 C 1.90625,-5.71875 0.625,-4.78125 0.625,-3.1875 c 0,2.078125 1.953125,3.375 3.828125,3.375 H 4.53125 C 6.3125,0.15625 8.125,-1.25 8.125,-3.171875 c 0,-1.5 -1.21875,-2.5625 -2.59375,-2.9375 0.921875,-0.34375 2.359375,-0.9375 2.359375,-2.5 0,-1.75 -1.796875,-2.90625 -3.515625,-2.90625 -1.609375,0 -3.515625,1.046875 -3.515625,2.890625 v 0.140625 C 0.96875,-7.28125 2.15625,-6.28125 3.21875,-6.125 Z M 1.75,-2.96875 c 0,-0.0625 -0.015625,-0.140625 -0.015625,-0.21875 0,-1.46875 1.109375,-2.5 2.640625,-2.5 1.421875,0 2.609375,0.90625 2.609375,2.484375 0,1.578125 -1.125,2.5 -2.59375,2.5 C 2.96875,-0.703125 1.921875,-1.5 1.75,-2.96875 Z m 0.140625,-5.453125 v -0.15625 c 0,-1.5625 1.296875,-2.078125 2.453125,-2.078125 1.109375,0 2.359375,0.40625 2.515625,1.875 V -8.625 c 0,1.53125 -1.296875,2.078125 -2.46875,2.078125 -1.1875,0 -2.328125,-0.546875 -2.5,-1.875 z m 0,0"
             id="path56934" />
        </g>
      </g>
    </g>
    <rect
       style="fill:none;stroke:#008080;stroke-width:2.99976;stroke-dasharray:none"
       id="rect22454"
       width="37.605034"
       height="37.569675"
       x="27.449654"
       y="103.65559" />
  </g>
</svg>
