<?xml version="1.0" encoding="UTF-8" standalone="no"?>
<!-- Created with Inkscape (http://www.inkscape.org/) -->

<svg
   width="40.57357mm"
   height="40.569443mm"
   viewBox="0 0 40.573571 40.569443"
   version="1.1"
   id="svg35221"
   inkscape:version="1.2.1 (9c6d41e410, 2022-07-14)"
   sodipodi:docname="91_clicked.svg"
   xmlns:inkscape="http://www.inkscape.org/namespaces/inkscape"
   xmlns:sodipodi="http://sodipodi.sourceforge.net/DTD/sodipodi-0.dtd"
   xmlns="http://www.w3.org/2000/svg"
   xmlns:svg="http://www.w3.org/2000/svg">
  <sodipodi:namedview
     id="namedview35223"
     pagecolor="#ffffff"
     bordercolor="#000000"
     borderopacity="0.25"
     inkscape:showpageshadow="2"
     inkscape:pageopacity="0.0"
     inkscape:pagecheckerboard="0"
     inkscape:deskcolor="#d1d1d1"
     inkscape:document-units="mm"
     showgrid="false"
     inkscape:zoom="2.8284271"
     inkscape:cx="-91.393552"
     inkscape:cy="77.428193"
     inkscape:window-width="1920"
     inkscape:window-height="1009"
     inkscape:window-x="2552"
     inkscape:window-y="421"
     inkscape:window-maximized="1"
     inkscape:current-layer="g160889" />
  <defs
     id="defs35218" />
  <g
     inkscape:groupmode="layer"
     id="layer2"
     inkscape:label="Capa 2">
    <g
       id="g160889"
       transform="matrix(0.35277777,0,0,0.35277777,-206.01324,-466.86277)">
      <path
         fill-rule="nonzero"
         fill="#783cb4"
         fill-opacity="1"
         d="m 583.98047,1380.8906 v -51.75 c 0,-3.1758 2.57422,-5.75 5.75,-5.75 h 103.5 c 3.17578,0 5.75,2.5742 5.75,5.75 v 103.5 c 0,3.1758 -2.57422,5.75 -5.75,5.75 h -103.5 c -3.17578,0 -5.75,-2.5742 -5.75,-5.75"
         id="path8688"
         style="fill:#2a9d8f;fill-opacity:1" />
      <g
         fill="#ffffff"
         fill-opacity="1"
         id="g8692">
        <g
           id="use8690"
           transform="translate(615.80084,1380.9073)">
          <path
             d="m 3.90625,-29.78125 v 29.734375 h 6.296875 V -11.53125 h 5.390625 c 3.421875,0 7.671875,-0.203125 9.984375,-3.125 1.375,-1.578125 1.890625,-3.765625 1.890625,-5.828125 0,-2.78125 -0.8125,-5.6875 -3.46875,-7.5 -2.65625,-1.796875 -5.921875,-1.75 -8.96875,-1.796875 z m 6.15625,14.875 v -11.1875 h 4.890625 c 1.890625,0 3.984375,0.09375 5.390625,1.5 1.078125,1.109375 1.15625,2.78125 1.15625,4.25 0,1.75 -0.25,3.421875 -1.875,4.484375 -1.421875,0.90625 -3.171875,0.953125 -4.796875,0.953125 z m 0,0"
             id="path161582" />
        </g>
      </g>
      <g
         fill="#ffffff"
         fill-opacity="1"
         id="g8696">
        <g
           id="use8694"
           transform="translate(644.61035,1380.9073)">
          <path
             d="m 3.90625,-14.90625 c 0.546875,-0.46875 1.015625,-1.03125 1.625,-1.453125 1.578125,-1.203125 3.546875,-1.8125 5.515625,-1.8125 2.40625,0 3,2.1875 3,4.421875 v 2.140625 c -0.671875,0.07813 -1.40625,0.04687 -2.09375,0.07813 -4.0625,0.34375 -10.625,1.125 -10.625,6 0,3.390625 2.828125,5.953125 6.125,5.953125 2.4375,0 5.484375,-1.234375 6.6875,-3.421875 l 0.04687,2.953125 h 5.6875 v -12.71875 c 0,-2.0625 -0.07813,-4.203125 -1.5,-5.828125 C 16.671875,-20.515625 13.96875,-21 11.4375,-21 8.828125,-21 6.421875,-20.5625 3.90625,-19.328125 3.6875,-19.234375 3.5625,-19.15625 3.5625,-18.9375 v 0.21875 c 0,1.28125 0.25,2.5625 0.34375,3.8125 z m 10.140625,5.015625 v 3.421875 c 0,2.3125 -2,3.8125 -4.109375,3.8125 -1.578125,0 -3.046875,-1.28125 -3.046875,-2.90625 0,-2.625 2.75,-3.78125 5.703125,-4.203125 0.46875,-0.046875 0.984375,-0.046875 1.453125,-0.125 z m 0,0"
             id="path161578" />
        </g>
      </g>
      <g
         fill="#ffffff"
         fill-opacity="1"
         id="g8700">
        <g
           id="use8698"
           transform="translate(596.48029,1402.7474)">
          <path
             d="m 1.375,-11.96875 v 11.953125 h 1.203125 v -5.09375 H 6.125 C 7.984375,-5.25 10,-6.484375 10,-8.5625 c 0,-2.375 -2.578125,-3.40625 -4.5,-3.40625 z m 1.1875,5.984375 v -5.0625 h 2.328125 c 1.28125,0 2.78125,0.04687 3.578125,1.21875 0.265625,0.375 0.40625,0.828125 0.40625,1.28125 0,0.8125 -0.4375,1.59375 -1.15625,2.015625 C 6.875,-6.015625 5.890625,-5.984375 4.9375,-5.984375 Z m 0,0"
             id="path161530" />
        </g>
      </g>
      <g
         fill="#ffffff"
         fill-opacity="1"
         id="g8704">
        <g
           id="use8702"
           transform="translate(607.396,1402.7474)">
          <path
             d="M 2.15625,-5.96875 V -8.140625 H 1.109375 v 8.125 H 2.1875 V -3.9375 c 0,-1.203125 0.34375,-2.53125 2.09375,-3.15625 0.375,-0.125 0.75,-0.1875 1.125,-0.1875 V -8.25 c -1.09375,0 -2.125,0.53125 -2.765625,1.421875 -0.203125,0.25 -0.40625,0.546875 -0.484375,0.859375 z m 0,0"
             id="path161546" />
        </g>
      </g>
      <g
         fill="#ffffff"
         fill-opacity="1"
         id="g8708">
        <g
           id="use8706"
           transform="translate(612.91882,1402.7474)">
          <path
             d="m 4.125,-8.296875 c -2.171875,0.21875 -3.5625,2.1875 -3.5625,4.234375 0,1.921875 1.359375,4.15625 3.828125,4.15625 2.1875,0 3.78125,-2.046875 3.78125,-4.140625 0,-2.0625 -1.421875,-4.25 -3.8125,-4.25 z M 1.671875,-3.90625 v -0.203125 c 0,-0.921875 0.15625,-1.9375 0.859375,-2.609375 0.5,-0.484375 1.171875,-0.71875 1.84375,-0.71875 1.8125,0 2.71875,1.53125 2.71875,3.265625 0,1.65625 -0.859375,3.359375 -2.71875,3.359375 -1,0 -1.8125,-0.53125 -2.296875,-1.390625 -0.265625,-0.53125 -0.34375,-1.125 -0.40625,-1.703125 z m 0,0"
             id="path161522" />
        </g>
      </g>
      <g
         fill="#ffffff"
         fill-opacity="1"
         id="g8712">
        <g
           id="use8710"
           transform="translate(621.6731,1402.7474)">
          <path
             d="m 1.859375,-10.46875 v 2.328125 H 0.1875 v 0.859375 h 1.65625 v 5.015625 c 0,0.953125 0.140625,2.359375 1.421875,2.359375 0.828125,0 1.65625,-0.234375 2.359375,-0.609375 0.09375,-0.0625 0.234375,-0.109375 0.234375,-0.203125 0,-0.078125 -0.046875,-0.140625 -0.0625,-0.1875 C 5.75,-1.109375 5.703125,-1.3125 5.640625,-1.5 l -0.40625,0.3125 c -0.375,0.21875 -0.859375,0.390625 -1.328125,0.390625 -0.828125,0 -1.03125,-0.875 -1.03125,-1.59375 0,-0.25 0.015625,-0.484375 0.015625,-0.6875 V -7.28125 H 5.5625 V -8.140625 H 2.890625 v -2.328125 z m 0,0"
             id="path161566" />
        </g>
      </g>
      <g
         fill="#ffffff"
         fill-opacity="1"
         id="g8716">
        <g
           id="use8714"
           transform="translate(627.92163,1402.7474)">
          <path
             d="M 1.359375,-6.609375 C 1.65625,-6.75 1.890625,-6.953125 2.1875,-7.09375 2.796875,-7.359375 3.4375,-7.5 4.109375,-7.5 c 1.109375,0 1.734375,0.921875 1.734375,2.15625 v 0.765625 c -1.890625,0 -5.015625,0.40625 -5.015625,2.578125 0,1.109375 0.734375,2.09375 1.90625,2.09375 1.125,0 2.609375,-0.453125 3.109375,-1.3125 l 0.015625,1.203125 H 6.9375 V -4.5625 c 0,-0.234375 0.015625,-0.5 0.015625,-0.765625 0,-1.265625 -0.6875,-2.78125 -2.578125,-2.96875 H 4.1875 c -0.90625,0 -1.75,0.15625 -2.5625,0.546875 -0.125,0.046875 -0.34375,0.125 -0.34375,0.296875 0,0.265625 0.0625,0.5625 0.078125,0.84375 z M 5.84375,-4.0625 v 1.4375 c 0,1.09375 -0.828125,1.84375 -2.171875,1.84375 -0.75,0 -1.796875,-0.359375 -1.796875,-1.265625 0,-1.65625 2.65625,-2.015625 3.96875,-2.015625 z m 0,0"
             id="path161506" />
        </g>
      </g>
      <g
         fill="#ffffff"
         fill-opacity="1"
         id="g8720">
        <g
           id="use8718"
           transform="translate(635.96735,1402.7474)">
          <path
             d="m 7.296875,-1.953125 c -0.890625,0.65625 -1.609375,1.15625 -2.84375,1.15625 -1.921875,0 -2.671875,-1.78125 -2.671875,-3.28125 0,-1.609375 0.765625,-3.34375 2.671875,-3.34375 0.8125,0 1.484375,0.140625 2.3125,0.59375 0.125,0.0625 0.21875,0.140625 0.359375,0.1875 0.015625,-0.28125 0.140625,-0.578125 0.140625,-0.828125 0,-0.609375 -2.5,-0.828125 -2.75,-0.828125 -1.78125,0 -3.09375,1.171875 -3.609375,2.703125 C 0.71875,-5.0625 0.671875,-4.5 0.671875,-3.921875 0.6875,-1.90625 2.25,0.09375 4.40625,0.09375 c 0.96875,0 2,-0.296875 2.734375,-0.890625 0.125,-0.078125 0.25,-0.15625 0.25,-0.3125 0,-0.265625 -0.078125,-0.5625 -0.09375,-0.84375 z m 0,0"
             id="path161550" />
        </g>
      </g>
      <g
         fill="#ffffff"
         fill-opacity="1"
         id="g8724">
        <g
           id="use8722"
           transform="translate(643.7674,1402.7474)">
          <path
             d="m 1.859375,-10.46875 v 2.328125 H 0.1875 v 0.859375 h 1.65625 v 5.015625 c 0,0.953125 0.140625,2.359375 1.421875,2.359375 0.828125,0 1.65625,-0.234375 2.359375,-0.609375 0.09375,-0.0625 0.234375,-0.109375 0.234375,-0.203125 0,-0.078125 -0.046875,-0.140625 -0.0625,-0.1875 C 5.75,-1.109375 5.703125,-1.3125 5.640625,-1.5 l -0.40625,0.3125 c -0.375,0.21875 -0.859375,0.390625 -1.328125,0.390625 -0.828125,0 -1.03125,-0.875 -1.03125,-1.59375 0,-0.25 0.015625,-0.484375 0.015625,-0.6875 V -7.28125 H 5.5625 V -8.140625 H 2.890625 v -2.328125 z m 0,0"
             id="path161570" />
        </g>
      </g>
      <g
         fill="#ffffff"
         fill-opacity="1"
         id="g8728">
        <g
           id="use8726"
           transform="translate(650.01593,1402.7474)">
          <path
             d="m 1.109375,-8.140625 v 8.125 H 2.1875 v -8.125 z m 0,-3.828125 V -10.875 H 2.1875 v -1.09375 z m 0,0"
             id="path161514" />
        </g>
      </g>
      <g
         fill="#ffffff"
         fill-opacity="1"
         id="g8732">
        <g
           id="use8730"
           transform="translate(653.26172,1402.7474)">
          <path
             d="m 2.171875,-6.421875 v -1.71875 h -1.0625 v 8.125 h 1.09375 V -4.34375 c 0,-1.15625 0.234375,-3.046875 1.953125,-3.046875 0.59375,0 1.25,0.125 1.625,0.625 0.3125,0.390625 0.328125,0.90625 0.328125,1.390625 v 5.359375 H 7.21875 V -5.40625 c 0,-1.640625 -0.578125,-2.84375 -2.453125,-2.84375 -1.15625,0 -2.21875,0.765625 -2.59375,1.828125 z m 0,0"
             id="path161534" />
        </g>
      </g>
      <g
         fill="#ffffff"
         fill-opacity="1"
         id="g8736">
        <g
           id="use8734"
           transform="translate(661.53595,1402.7474)">
          <path
             d="m 1.109375,-8.140625 v 8.125 H 2.1875 v -8.125 z m 0,-3.828125 V -10.875 H 2.1875 v -1.09375 z m 0,0"
             id="path161518" />
        </g>
      </g>
      <g
         fill="#ffffff"
         fill-opacity="1"
         id="g8740">
        <g
           id="use8738"
           transform="translate(664.78174,1402.7474)">
          <path
             d="M 1.109375,-8.140625 V -2.3125 c 0,0.5 0.015625,1 0.21875,1.46875 0.328125,0.671875 1.015625,0.9375 1.71875,0.9375 1.15625,0 2.53125,-0.53125 3.0625,-1.609375 l 0.015625,1.5 h 1.09375 v -8.125 H 6.109375 v 4.125 C 6.109375,-3.75 6.125,-3.5 6.125,-3.234375 c 0,0.484375 -0.046875,0.96875 -0.28125,1.390625 -0.421875,0.703125 -1.15625,1.125 -2,1.125 -0.859375,0 -1.65625,0 -1.65625,-1.625 0,-0.25 0.015625,-0.515625 0.015625,-0.765625 v -5.03125 z m 0,0"
             id="path161502" />
        </g>
      </g>
      <g
         fill="#ffffff"
         fill-opacity="1"
         id="g8744">
        <g
           id="use8742"
           transform="translate(673.05597,1402.7474)">
          <path
             d="m 2.171875,-6.421875 v -1.71875 h -1.0625 v 8.125 h 1.09375 V -4.34375 c 0,-1.171875 0.234375,-3.046875 1.953125,-3.046875 0.59375,0 1.265625,0.125 1.640625,0.625 C 6.109375,-6.375 6.125,-5.859375 6.125,-5.375 v 5.359375 H 7.234375 V -4.34375 c 0,-1.171875 0.234375,-3.046875 1.9375,-3.046875 0.609375,0 1.28125,0.125 1.65625,0.625 0.3125,0.390625 0.328125,0.90625 0.328125,1.390625 v 5.359375 h 1.109375 v -4.5625 c 0,-0.296875 0.01563,-0.625 0.01563,-0.9375 0,-0.765625 -0.109375,-1.578125 -0.65625,-2.125 C 11.15625,-8.109375 10.4375,-8.25 9.796875,-8.25 8.578125,-8.25 7.640625,-7.453125 7.1875,-6.40625 6.90625,-7.640625 6.109375,-8.25 4.75,-8.25 c -1.09375,0 -2.25,0.78125 -2.578125,1.828125 z m 0,0"
             id="path161574" />
        </g>
      </g>
      <g
         fill="#ffffff"
         fill-opacity="1"
         id="g8748">
        <g
           id="use8746"
           transform="translate(617.24054,1424.7069)">
          <path
             d="m 1.25,-7.921875 c 0.3125,-1.25 0.921875,-2.6875 2.640625,-2.6875 1.46875,0 2.96875,0.890625 2.96875,2.578125 0,1.9375 -1.8125,3.265625 -3.125,4.359375 C 2.875,-2.9375 2.03125,-2.140625 1.21875,-1.359375 L 0.9375,-1.078125 C 0.828125,-0.984375 0.75,-0.9375 0.75,-0.75 v 0.734375 h 7.234375 v -0.96875 H 1.75 c 0.4375,-0.40625 0.90625,-0.8125 1.34375,-1.203125 0.609375,-0.53125 1.1875,-1.078125 1.8125,-1.578125 1.359375,-1.109375 3.078125,-2.328125 3.078125,-4.3125 0,-2 -1.671875,-3.375 -3.65625,-3.4375 h -0.125 c -1.46875,0 -2.796875,0.609375 -3.453125,2.40625 C 0.703125,-9.015625 0.640625,-8.875 0.640625,-8.75 v 0.03125 C 0.65625,-8.609375 0.75,-8.515625 0.8125,-8.453125 c 0.140625,0.171875 0.265625,0.375 0.4375,0.53125 z m 0,0"
             id="path161510" />
        </g>
      </g>
      <g
         fill="#ffffff"
         fill-opacity="1"
         id="g8752">
        <g
           id="use8750"
           transform="translate(625.99475,1424.7069)">
          <path
             d="m 1.390625,-8.703125 c 0.75,-1.09375 1.46875,-1.953125 3.109375,-1.953125 0.96875,0 1.984375,0.53125 1.984375,1.640625 0,1.984375 -2.03125,2.390625 -3.609375,2.46875 V -5.6875 h 1.1875 c 0.8125,0 1.625,0.109375 2.203125,0.75 0.453125,0.453125 0.65625,1.09375 0.65625,1.734375 0,1.40625 -1.015625,2.5 -2.53125,2.5 -1.453125,0 -2.765625,-0.78125 -3.59375,-1.9375 -0.109375,0.234375 -0.15625,0.6875 -0.15625,0.828125 V -1.75 C 0.90625,-1.078125 2.15625,-0.28125 3.046875,-0.015625 3.5,0.109375 3.9375,0.171875 4.40625,0.171875 6.09375,0.171875 8.125,-1 8.125,-3.140625 8.125,-4.25 7.46875,-5.1875 6.484375,-5.734375 c -0.28125,-0.171875 -0.625,-0.34375 -0.96875,-0.375 C 6.59375,-6.625 7.625,-7.578125 7.625,-9 c 0,-1.65625 -1.75,-2.515625 -3.171875,-2.515625 -1.4375,0 -2.65625,0.71875 -3.484375,1.875 -0.03125,0.046875 -0.078125,0.09375 -0.078125,0.171875 0,0.15625 0.328125,0.53125 0.5,0.765625 z m 0,0"
             id="path161558" />
        </g>
      </g>
      <g
         fill="#ffffff"
         fill-opacity="1"
         id="g8756">
        <g
           id="use8754"
           transform="translate(634.74902,1424.7069)">
          <path
             d="m 1.671875,-10.390625 v 0.875 c 0.828125,0 1.5625,-0.15625 2.359375,-0.5 V -0.875 h -2.25 v 0.859375 h 5.625 V -0.875 H 5.140625 v -10.640625 h -0.125 c -0.234375,0 -0.359375,0.21875 -0.53125,0.34375 -0.8125,0.578125 -1.828125,0.78125 -2.8125,0.78125 z m 0,0"
             id="path161538" />
        </g>
      </g>
      <g
         fill="#ffffff"
         fill-opacity="1"
         id="g8760">
        <g
           id="use8758"
           transform="translate(643.5033,1424.7069)">
          <path
             d="m 1.703125,-1.359375 v 1.34375 h 1.34375 v -1.34375 z m 0,0"
             id="path161498" />
        </g>
      </g>
      <g
         fill="#ffffff"
         fill-opacity="1"
         id="g8764">
        <g
           id="use8762"
           transform="translate(648.18329,1424.7069)">
          <path
             d="m 4.125,-11.515625 c -3.21875,0.3125 -3.375,3.984375 -3.375,5.90625 0,2.328125 0.46875,5.796875 3.625,5.796875 h 0.21875 c 2.359375,-0.296875 3.390625,-2.265625 3.390625,-5.90625 0,-1.59375 -0.125,-3.515625 -1.203125,-4.734375 -0.59375,-0.671875 -1.5,-1.078125 -2.390625,-1.078125 -0.078125,0 -0.171875,0.01563 -0.265625,0.01563 z M 1.859375,-4.875 C 1.84375,-5.015625 1.84375,-5.171875 1.84375,-5.296875 V -5.625 c 0,-2.15625 0.0625,-5.03125 2.546875,-5.03125 2.484375,0 2.5,3.078125 2.5,4.734375 v 0.8125 c 0,1.453125 -0.09375,3.21875 -1.28125,4.046875 C 5.25,-0.8125 4.828125,-0.671875 4.390625,-0.671875 3.6875,-0.671875 2.984375,-1.03125 2.5625,-1.65625 2.078125,-2.375 1.96875,-3.34375 1.890625,-4.203125 1.875,-4.421875 1.890625,-4.65625 1.859375,-4.875 Z m 0,0"
             id="path161526" />
        </g>
      </g>
      <g
         fill="#ffffff"
         fill-opacity="1"
         id="g8768">
        <g
           id="use8766"
           transform="translate(656.9375,1424.7069)">
          <path
             d="M 0.359375,-3.140625 H 5.34375 v 3.125 h 1.078125 v -3.125 h 1.96875 v -0.90625 h -1.96875 v -7.375 h -1.125 c -0.328125,0 -0.421875,0.40625 -0.59375,0.640625 -1.015625,1.625 -2.078125,3.203125 -3.125,4.828125 L 0.75,-4.671875 C 0.5625,-4.390625 0.359375,-4.15625 0.359375,-3.875 Z m 1.125,-0.90625 c 1.234375,-1.84375 2.4375,-3.71875 3.53125,-5.640625 0.125,-0.25 0.3125,-0.515625 0.359375,-0.796875 l 0.015625,6.4375 z m 0,0"
             id="path161554" />
        </g>
      </g>
      <g
         fill="#ffffff"
         fill-opacity="1"
         id="g8772">
        <g
           id="use8770"
           transform="translate(592.72534,1344.6171)">
          <path
             d="M 6.796875,-5.671875 H 6.8125 c 0,1.859375 -0.40625,4.96875 -3.296875,4.96875 C 2.75,-0.703125 2.1875,-1 1.625,-1.390625 l -0.453125,0.78125 C 1.890625,-0.0625 2.703125,0.1875 3.59375,0.1875 c 2.9375,0 4.359375,-3.359375 4.359375,-5.796875 0,-2.015625 -0.234375,-4.8125 -2.421875,-5.703125 -0.359375,-0.140625 -0.765625,-0.203125 -1.15625,-0.203125 -2.1875,0 -3.578125,2 -3.578125,3.96875 0,1.796875 0.859375,3.90625 2.921875,3.90625 1.234375,0 2.703125,-0.875 3.078125,-2.03125 z M 6.75,-7.578125 c -0.015625,0.046875 -0.015625,0.109375 -0.015625,0.15625 0,0.125 0.015625,0.21875 0.015625,0.34375 v 0.09375 C 6.640625,-5.625 5.640625,-4.5 4.171875,-4.5 3.4375,-4.5 2.84375,-4.78125 2.40625,-5.390625 1.984375,-5.984375 1.921875,-6.71875 1.921875,-7.4375 c 0,-1.328125 0.265625,-3.21875 2.484375,-3.21875 1.640625,0 2.34375,1.703125 2.34375,2.953125 z m 0,0"
             id="path161562" />
        </g>
      </g>
      <g
         fill="#ffffff"
         fill-opacity="1"
         id="g8776">
        <g
           id="use8774"
           transform="translate(601.47961,1344.6171)">
          <path
             d="m 1.671875,-10.390625 v 0.875 c 0.828125,0 1.5625,-0.15625 2.359375,-0.5 V -0.875 h -2.25 v 0.859375 h 5.625 V -0.875 H 5.140625 v -10.640625 h -0.125 c -0.234375,0 -0.359375,0.21875 -0.53125,0.34375 -0.8125,0.578125 -1.828125,0.78125 -2.8125,0.78125 z m 0,0"
             id="path161542" />
        </g>
      </g>
    </g>
  </g>
  <g
     inkscape:label="Capa 1"
     inkscape:groupmode="layer"
     id="layer1"
     transform="translate(-25.949774,-102.1557)">
    <g
       id="g35216"
       transform="matrix(0.35277777,0,0,0.35277777,-11.847197,-22.263639)" />
    <rect
       style="fill:none;stroke:#008080;stroke-width:2.99976;stroke-dasharray:none"
       id="rect22454"
       width="37.605034"
       height="37.569675"
       x="27.449654"
       y="103.65559" />
  </g>
</svg>
