<?xml version="1.0" encoding="UTF-8" standalone="no"?>
<svg
   enable-background="new 0 0 64 64"
   version="1.1"
   viewBox="0 0 72 72"
   xml:space="preserve"
   id="svg7"
   sodipodi:docname="icon_mail.svg"
   inkscape:version="1.2.1 (9c6d41e410, 2022-07-14)"
   width="72"
   height="72"
   xmlns:inkscape="http://www.inkscape.org/namespaces/inkscape"
   xmlns:sodipodi="http://sodipodi.sourceforge.net/DTD/sodipodi-0.dtd"
   xmlns="http://www.w3.org/2000/svg"
   xmlns:svg="http://www.w3.org/2000/svg"><defs
     id="defs11" /><sodipodi:namedview
     id="namedview9"
     pagecolor="#ffffff"
     bordercolor="#666666"
     borderopacity="1.0"
     inkscape:pageshadow="2"
     inkscape:pageopacity="0.0"
     inkscape:pagecheckerboard="0"
     showgrid="false"
     inkscape:zoom="3.3203125"
     inkscape:cx="10.390588"
     inkscape:cy="-13.552941"
     inkscape:window-width="1920"
     inkscape:window-height="1009"
     inkscape:window-x="2552"
     inkscape:window-y="363"
     inkscape:window-maximized="1"
     inkscape:current-layer="layer2"
     inkscape:showpageshadow="2"
     inkscape:deskcolor="#d1d1d1" /><g
     id="g10311"><path
       d="m 8,72 h 56 c 4.418278,0 8,-3.581722 8,-8 V 8 C 72,3.581722 68.418278,0 64,0 H 8 C 3.581722,0 0,3.581722 0,8 v 56 c 0,4.418278 3.581722,8 8,8 z"
       fill="#3E75C3"
       id="path2-4"
       style="fill:#577a95;fill-opacity:1" /></g><g
     inkscape:groupmode="layer"
     id="layer2"
     inkscape:label="Layer 1"
     transform="translate(-128.40815,-3.18536)"><g
       id="Glyph_copy_2"
       style="fill:#ffffff;fill-opacity:1"
       transform="matrix(0.74950088,0,0,0.74950088,140.42412,14.701332)"><path
         d="M 63.125,9.977 C 62.223,8.656 60.706,7.783 58.994,7.783 H 5.006 C 3.33,7.783 1.848,8.625 0.939,9.9 l 31.16,25.982 z"
         id="path2"
         style="fill:#ffffff;fill-opacity:1" /><path
         d="m 0.006,14.328 v 36.889 c 0,2.75 2.25,5 5,5 h 53.988 c 2.75,0 5,-2.25 5,-5 V 14.461 L 32.099,41.09 Z"
         id="path4"
         style="fill:#ffffff;fill-opacity:1" /></g></g></svg>
