<?xml version="1.0" encoding="UTF-8" standalone="no"?>
<!-- Created with Inkscape (http://www.inkscape.org/) -->

<svg
   width="40.57357mm"
   height="40.569443mm"
   viewBox="0 0 40.573571 40.569443"
   version="1.1"
   id="svg35221"
   inkscape:version="1.2.1 (9c6d41e410, 2022-07-14)"
   sodipodi:docname="33.svg"
   xmlns:inkscape="http://www.inkscape.org/namespaces/inkscape"
   xmlns:sodipodi="http://sodipodi.sourceforge.net/DTD/sodipodi-0.dtd"
   xmlns="http://www.w3.org/2000/svg"
   xmlns:svg="http://www.w3.org/2000/svg">
  <sodipodi:namedview
     id="namedview35223"
     pagecolor="#ffffff"
     bordercolor="#000000"
     borderopacity="0.25"
     inkscape:showpageshadow="2"
     inkscape:pageopacity="0.0"
     inkscape:pagecheckerboard="0"
     inkscape:deskcolor="#d1d1d1"
     inkscape:document-units="mm"
     showgrid="false"
     inkscape:zoom="2.8284271"
     inkscape:cx="-100.23239"
     inkscape:cy="49.497475"
     inkscape:window-width="1920"
     inkscape:window-height="1009"
     inkscape:window-x="2552"
     inkscape:window-y="421"
     inkscape:window-maximized="1"
     inkscape:current-layer="g122315" />
  <defs
     id="defs35218" />
  <g
     inkscape:groupmode="layer"
     id="layer2"
     inkscape:label="Capa 2">
    <g
       id="g122315"
       transform="matrix(0.35277777,0,0,0.35277777,-636.01077,-208.86304)">
      <path
         fill-rule="nonzero"
         fill="#f06414"
         fill-opacity="1"
         d="m 1802.875,649.55078 v -51.74609 c 0,-3.17578 2.5859,-5.75 5.7539,-5.75 h 103.5039 c 3.168,0 5.7344,2.57422 5.7344,5.75 v 103.49609 c 0,3.17578 -2.5664,5.75 -5.7344,5.75 h -103.5039 c -3.168,0 -5.7539,-2.57422 -5.7539,-5.75"
         id="path6246"
         style="fill:#f4a261;fill-opacity:1" />
      <g
         fill="#ffffff"
         fill-opacity="1"
         id="g6250">
        <g
           id="use6248"
           transform="translate(1835.6565,649.57373)">
          <path
             d="m 11.703125,-29.78125 -10.375,29.734375 H 7.03125 l 0.25,-0.46875 2.0625,-6 h 10.921875 l 0.90625,0.09375 0.671875,1.671875 1.640625,4.703125 H 30.03125 L 19.671875,-29.78125 Z m -1.03125,19.578125 4.0625,-12.125 0.609375,-2.09375 1.453125,4.96875 3.171875,9.25 z m 0,0"
             id="path122900" />
        </g>
      </g>
      <g
         fill="#ffffff"
         fill-opacity="1"
         id="g6254">
        <g
           id="use6252"
           transform="translate(1867.082,649.57373)">
          <path
             d="M 2.09375,-6.25 C 1.890625,-4.796875 1.546875,-3.421875 1.328125,-1.96875 V -1.75 c 0,0.9375 4.921875,1.921875 5.4375,2 L 8.3125,0.390625 c 0.296875,0.03125 0.59375,0.03125 0.90625,0.03125 3.5,0 7.75,-0.765625 7.75,-6.546875 0,-3.171875 -2.109375,-5.53125 -4.890625,-6.46875 -2.046875,-0.6875 -6.25,-0.4375 -6.25,-3.21875 0,-1.703125 1.625,-2.1875 3.078125,-2.1875 1.640625,0 3.265625,0.4375 4.671875,1.15625 0.734375,0.390625 1.28125,0.953125 1.96875,1.375 l 0.734375,-4.0625 C 13.921875,-20.515625 11.65625,-21 9.078125,-21 c -3.6875,0 -7.5,1.15625 -7.5,6.265625 0,3.71875 3.09375,5.828125 6.5625,6.515625 1.625,0.328125 4.578125,0.46875 4.578125,2.90625 0,1.71875 -1.5,2.3125 -3,2.40625 H 9.515625 c -2.53125,0 -4.671875,-0.859375 -6.6875,-2.625 -0.25,-0.25 -0.46875,-0.515625 -0.734375,-0.71875 z m 0,0"
             id="path122940" />
        </g>
      </g>
      <g
         fill="#ffffff"
         fill-opacity="1"
         id="g6258">
        <g
           id="use6256"
           transform="translate(1835.2965,671.41382)">
          <path
             d="m 0.359375,-0.015625 h 1.09375 l 1.34375,-3.59375 h 4.78125 l 0.390625,0.03125 0.140625,0.21875 1.140625,3.09375 0.109375,0.21875 1.25,0.03125 C 10.3125,-0.859375 9.984375,-1.6875 9.671875,-2.53125 8.578125,-5.453125 7.484375,-8.421875 6.390625,-11.359375 6.3125,-11.578125 6.203125,-12.03125 6.0625,-12.078125 H 5.015625 c -0.28125,0 -0.359375,0.5 -0.453125,0.765625 -1.40625,3.75 -2.84375,7.53125 -4.203125,11.296875 z m 2.78125,-4.515625 2.046875,-5.625 0.21875,-0.703125 0.546875,1.640625 1.703125,4.6875 z m 0,0"
             id="path122916" />
        </g>
      </g>
      <g
         fill="#ffffff"
         fill-opacity="1"
         id="g6262">
        <g
           id="use6260"
           transform="translate(1846.2252,671.41382)">
          <path
             d="M 2.15625,-5.96875 V -8.140625 H 1.109375 v 8.125 H 2.1875 V -3.9375 c 0,-1.203125 0.34375,-2.53125 2.09375,-3.15625 0.375,-0.125 0.75,-0.1875 1.125,-0.1875 V -8.25 c -1.09375,0 -2.125,0.53125 -2.765625,1.421875 -0.203125,0.25 -0.40625,0.546875 -0.484375,0.859375 z m 0,0"
             id="path122908" />
        </g>
      </g>
      <g
         fill="#ffffff"
         fill-opacity="1"
         id="g6266">
        <g
           id="use6264"
           transform="translate(1851.748,671.41382)">
          <path
             d="M 0.53125,-1.71875 C 0.5,-1.421875 0.375,-1.125 0.375,-0.828125 c 0,0.453125 1.890625,0.8125 2.125,0.84375 0.328125,0.046875 0.671875,0.078125 1,0.078125 1.328125,0 2.796875,-0.5625 2.890625,-2.28125 v -0.125 C 6.390625,-3.40625 5.5625,-4.171875 4.625,-4.515625 3.65625,-4.875 1.46875,-4.71875 1.46875,-6.203125 c 0,-0.9375 0.96875,-1.234375 1.796875,-1.234375 h 0.34375 C 4.25,-7.421875 4.90625,-7.28125 5.5,-6.984375 c 0.125,0.0625 0.25,0.15625 0.40625,0.1875 l 0.15625,-0.9375 c -0.84375,-0.375 -1.703125,-0.5625 -2.640625,-0.5625 -1.328125,0 -2.953125,0.515625 -2.953125,2.234375 0,3.140625 4.90625,1.578125 4.90625,3.890625 0,0.953125 -0.921875,1.375 -1.859375,1.375 -1.125,0 -1.875,-0.3125 -2.984375,-0.921875 z m 0,0"
             id="path122876" />
        </g>
      </g>
      <g
         fill="#ffffff"
         fill-opacity="1"
         id="g6270">
        <g
           id="use6268"
           transform="translate(1858.351,671.41382)">
          <path
             d="m 7.203125,-1.90625 c -0.84375,0.625 -1.625,1.125 -2.71875,1.125 -1.6875,0 -2.84375,-1.53125 -2.84375,-3.546875 h 5.6875 c 0,-1.8125 -0.75,-3.96875 -3.15625,-3.96875 -2.34375,0 -3.5625,2.265625 -3.5625,4.28125 V -3.9375 c 0.03125,2.03125 1.578125,4.03125 3.78125,4.03125 0.953125,0 1.890625,-0.328125 2.65625,-0.890625 0.09375,-0.078125 0.234375,-0.15625 0.234375,-0.3125 0,-0.0625 -0.015625,-0.109375 -0.03125,-0.171875 -0.015625,-0.203125 -0.03125,-0.421875 -0.046875,-0.625 z M 1.71875,-5 c 0.265625,-1.125 1.046875,-2.4375 2.390625,-2.4375 1.140625,0 1.9375,0.796875 2.203125,1.859375 C 6.359375,-5.390625 6.375,-5.1875 6.421875,-5 Z m 0,0"
             id="path122904" />
        </g>
      </g>
      <g
         fill="#ffffff"
         fill-opacity="1"
         id="g6274">
        <g
           id="use6272"
           transform="translate(1866.151,671.41382)">
          <path
             d="m 2.171875,-6.421875 v -1.71875 h -1.0625 v 8.125 h 1.09375 V -4.34375 c 0,-1.15625 0.234375,-3.046875 1.953125,-3.046875 0.59375,0 1.25,0.125 1.625,0.625 0.3125,0.390625 0.328125,0.90625 0.328125,1.390625 v 5.359375 H 7.21875 V -5.40625 c 0,-1.640625 -0.578125,-2.84375 -2.453125,-2.84375 -1.15625,0 -2.21875,0.765625 -2.59375,1.828125 z m 0,0"
             id="path122896" />
        </g>
      </g>
      <g
         fill="#ffffff"
         fill-opacity="1"
         id="g6278">
        <g
           id="use6276"
           transform="translate(1874.425,671.41382)">
          <path
             d="m 1.109375,-8.140625 v 8.125 H 2.1875 v -8.125 z m 0,-3.828125 V -10.875 H 2.1875 v -1.09375 z m 0,0"
             id="path122892" />
        </g>
      </g>
      <g
         fill="#ffffff"
         fill-opacity="1"
         id="g6282">
        <g
           id="use6280"
           transform="translate(1877.6709,671.41382)">
          <path
             d="m 7.296875,-1.953125 c -0.890625,0.65625 -1.609375,1.15625 -2.84375,1.15625 -1.921875,0 -2.671875,-1.78125 -2.671875,-3.28125 0,-1.609375 0.765625,-3.34375 2.671875,-3.34375 0.8125,0 1.484375,0.140625 2.3125,0.59375 0.125,0.0625 0.21875,0.140625 0.359375,0.1875 0.015625,-0.28125 0.140625,-0.578125 0.140625,-0.828125 0,-0.609375 -2.5,-0.828125 -2.75,-0.828125 -1.78125,0 -3.09375,1.171875 -3.609375,2.703125 C 0.71875,-5.0625 0.671875,-4.5 0.671875,-3.921875 0.6875,-1.90625 2.25,0.09375 4.40625,0.09375 c 0.96875,0 2,-0.296875 2.734375,-0.890625 0.125,-0.078125 0.25,-0.15625 0.25,-0.3125 0,-0.265625 -0.078125,-0.5625 -0.09375,-0.84375 z m 0,0"
             id="path122912" />
        </g>
      </g>
      <g
         fill="#ffffff"
         fill-opacity="1"
         id="g6286">
        <g
           id="use6284"
           transform="translate(1836.1365,693.3739)">
          <path
             d="m 0.625,-11.3125 v 0.96875 h 6.75 C 6.5625,-9.546875 5.8125,-8.75 5.1875,-7.796875 3.640625,-5.46875 2.796875,-2.703125 2.796875,0.09375 H 3.9375 c 0,-3.78125 1.4375,-7.25 3.859375,-10.125 C 7.953125,-10.1875 8.125,-10.3125 8.125,-10.5625 v -0.75 z m 0,0"
             id="path122924" />
        </g>
      </g>
      <g
         fill="#ffffff"
         fill-opacity="1"
         id="g6290">
        <g
           id="use6288"
           transform="translate(1844.8905,693.3739)">
          <path
             d="M 0.359375,-3.140625 H 5.34375 v 3.125 h 1.078125 v -3.125 h 1.96875 v -0.90625 h -1.96875 v -7.375 h -1.125 c -0.328125,0 -0.421875,0.40625 -0.59375,0.640625 -1.015625,1.625 -2.078125,3.203125 -3.125,4.828125 L 0.75,-4.671875 C 0.5625,-4.390625 0.359375,-4.15625 0.359375,-3.875 Z m 1.125,-0.90625 c 1.234375,-1.84375 2.4375,-3.71875 3.53125,-5.640625 0.125,-0.25 0.3125,-0.515625 0.359375,-0.796875 l 0.015625,6.4375 z m 0,0"
             id="path122920" />
        </g>
      </g>
      <g
         fill="#ffffff"
         fill-opacity="1"
         id="g6294">
        <g
           id="use6292"
           transform="translate(1853.6449,693.3739)">
          <path
             d="m 1.703125,-1.359375 v 1.34375 h 1.34375 v -1.34375 z m 0,0"
             id="path122880" />
        </g>
      </g>
      <g
         fill="#ffffff"
         fill-opacity="1"
         id="g6298">
        <g
           id="use6296"
           transform="translate(1858.3248,693.3739)">
          <path
             d="M 6.796875,-5.671875 H 6.8125 c 0,1.859375 -0.40625,4.96875 -3.296875,4.96875 C 2.75,-0.703125 2.1875,-1 1.625,-1.390625 l -0.453125,0.78125 C 1.890625,-0.0625 2.703125,0.1875 3.59375,0.1875 c 2.9375,0 4.359375,-3.359375 4.359375,-5.796875 0,-2.015625 -0.234375,-4.8125 -2.421875,-5.703125 -0.359375,-0.140625 -0.765625,-0.203125 -1.15625,-0.203125 -2.1875,0 -3.578125,2 -3.578125,3.96875 0,1.796875 0.859375,3.90625 2.921875,3.90625 1.234375,0 2.703125,-0.875 3.078125,-2.03125 z M 6.75,-7.578125 c -0.015625,0.046875 -0.015625,0.109375 -0.015625,0.15625 0,0.125 0.015625,0.21875 0.015625,0.34375 v 0.09375 C 6.640625,-5.625 5.640625,-4.5 4.171875,-4.5 3.4375,-4.5 2.84375,-4.78125 2.40625,-5.390625 1.984375,-5.984375 1.921875,-6.71875 1.921875,-7.4375 c 0,-1.328125 0.265625,-3.21875 2.484375,-3.21875 1.640625,0 2.34375,1.703125 2.34375,2.953125 z m 0,0"
             id="path122936" />
        </g>
      </g>
      <g
         fill="#ffffff"
         fill-opacity="1"
         id="g6302">
        <g
           id="use6300"
           transform="translate(1867.079,693.3739)">
          <path
             d="m 1.25,-7.921875 c 0.3125,-1.25 0.921875,-2.6875 2.640625,-2.6875 1.46875,0 2.96875,0.890625 2.96875,2.578125 0,1.9375 -1.8125,3.265625 -3.125,4.359375 C 2.875,-2.9375 2.03125,-2.140625 1.21875,-1.359375 L 0.9375,-1.078125 C 0.828125,-0.984375 0.75,-0.9375 0.75,-0.75 v 0.734375 h 7.234375 v -0.96875 H 1.75 c 0.4375,-0.40625 0.90625,-0.8125 1.34375,-1.203125 0.609375,-0.53125 1.1875,-1.078125 1.8125,-1.578125 1.359375,-1.109375 3.078125,-2.328125 3.078125,-4.3125 0,-2 -1.671875,-3.375 -3.65625,-3.4375 h -0.125 c -1.46875,0 -2.796875,0.609375 -3.453125,2.40625 C 0.703125,-9.015625 0.640625,-8.875 0.640625,-8.75 v 0.03125 C 0.65625,-8.609375 0.75,-8.515625 0.8125,-8.453125 c 0.140625,0.171875 0.265625,0.375 0.4375,0.53125 z m 0,0"
             id="path122884" />
        </g>
      </g>
      <g
         fill="#ffffff"
         fill-opacity="1"
         id="g6306">
        <g
           id="use6304"
           transform="translate(1875.833,693.3739)">
          <path
             d="m 1.25,-7.921875 c 0.3125,-1.25 0.921875,-2.6875 2.640625,-2.6875 1.46875,0 2.96875,0.890625 2.96875,2.578125 0,1.9375 -1.8125,3.265625 -3.125,4.359375 C 2.875,-2.9375 2.03125,-2.140625 1.21875,-1.359375 L 0.9375,-1.078125 C 0.828125,-0.984375 0.75,-0.9375 0.75,-0.75 v 0.734375 h 7.234375 v -0.96875 H 1.75 c 0.4375,-0.40625 0.90625,-0.8125 1.34375,-1.203125 0.609375,-0.53125 1.1875,-1.078125 1.8125,-1.578125 1.359375,-1.109375 3.078125,-2.328125 3.078125,-4.3125 0,-2 -1.671875,-3.375 -3.65625,-3.4375 h -0.125 c -1.46875,0 -2.796875,0.609375 -3.453125,2.40625 C 0.703125,-9.015625 0.640625,-8.875 0.640625,-8.75 v 0.03125 C 0.65625,-8.609375 0.75,-8.515625 0.8125,-8.453125 c 0.140625,0.171875 0.265625,0.375 0.4375,0.53125 z m 0,0"
             id="path122888" />
        </g>
      </g>
      <g
         fill="#ffffff"
         fill-opacity="1"
         id="g6310">
        <g
           id="use6308"
           transform="translate(1811.6212,613.28406)">
          <path
             d="m 1.390625,-8.703125 c 0.75,-1.09375 1.46875,-1.953125 3.109375,-1.953125 0.96875,0 1.984375,0.53125 1.984375,1.640625 0,1.984375 -2.03125,2.390625 -3.609375,2.46875 V -5.6875 h 1.1875 c 0.8125,0 1.625,0.109375 2.203125,0.75 0.453125,0.453125 0.65625,1.09375 0.65625,1.734375 0,1.40625 -1.015625,2.5 -2.53125,2.5 -1.453125,0 -2.765625,-0.78125 -3.59375,-1.9375 -0.109375,0.234375 -0.15625,0.6875 -0.15625,0.828125 V -1.75 C 0.90625,-1.078125 2.15625,-0.28125 3.046875,-0.015625 3.5,0.109375 3.9375,0.171875 4.40625,0.171875 6.09375,0.171875 8.125,-1 8.125,-3.140625 8.125,-4.25 7.46875,-5.1875 6.484375,-5.734375 c -0.28125,-0.171875 -0.625,-0.34375 -0.96875,-0.375 C 6.59375,-6.625 7.625,-7.578125 7.625,-9 c 0,-1.65625 -1.75,-2.515625 -3.171875,-2.515625 -1.4375,0 -2.65625,0.71875 -3.484375,1.875 -0.03125,0.046875 -0.078125,0.09375 -0.078125,0.171875 0,0.15625 0.328125,0.53125 0.5,0.765625 z m 0,0"
             id="path122928" />
        </g>
      </g>
      <g
         fill="#ffffff"
         fill-opacity="1"
         id="g6314">
        <g
           id="use6312"
           transform="translate(1820.3754,613.28406)">
          <path
             d="m 1.390625,-8.703125 c 0.75,-1.09375 1.46875,-1.953125 3.109375,-1.953125 0.96875,0 1.984375,0.53125 1.984375,1.640625 0,1.984375 -2.03125,2.390625 -3.609375,2.46875 V -5.6875 h 1.1875 c 0.8125,0 1.625,0.109375 2.203125,0.75 0.453125,0.453125 0.65625,1.09375 0.65625,1.734375 0,1.40625 -1.015625,2.5 -2.53125,2.5 -1.453125,0 -2.765625,-0.78125 -3.59375,-1.9375 -0.109375,0.234375 -0.15625,0.6875 -0.15625,0.828125 V -1.75 C 0.90625,-1.078125 2.15625,-0.28125 3.046875,-0.015625 3.5,0.109375 3.9375,0.171875 4.40625,0.171875 6.09375,0.171875 8.125,-1 8.125,-3.140625 8.125,-4.25 7.46875,-5.1875 6.484375,-5.734375 c -0.28125,-0.171875 -0.625,-0.34375 -0.96875,-0.375 C 6.59375,-6.625 7.625,-7.578125 7.625,-9 c 0,-1.65625 -1.75,-2.515625 -3.171875,-2.515625 -1.4375,0 -2.65625,0.71875 -3.484375,1.875 -0.03125,0.046875 -0.078125,0.09375 -0.078125,0.171875 0,0.15625 0.328125,0.53125 0.5,0.765625 z m 0,0"
             id="path122932" />
        </g>
      </g>
    </g>
  </g>
  <g
     inkscape:label="Capa 1"
     inkscape:groupmode="layer"
     id="layer1"
     transform="translate(-25.949774,-102.1557)">
    <g
       id="g35216"
       transform="matrix(0.35277777,0,0,0.35277777,-11.847197,-22.263639)" />
  </g>
</svg>
