<?xml version="1.0" encoding="UTF-8" standalone="no"?>
<svg
   style="fill-opacity:1; color-rendering:auto; color-interpolation:auto; text-rendering:auto; stroke:black; stroke-linecap:square; stroke-miterlimit:10; shape-rendering:auto; stroke-opacity:1; fill:black; stroke-dasharray:none; font-weight:normal; stroke-width:1; font-family:'Dialog'; font-style:normal; stroke-linejoin:miter; font-size:12px; stroke-dashoffset:0; image-rendering:auto;"
   width="1712"
   height="771"
   version="1.1"
   id="svg293"
   sodipodi:docname="performance_thermo.svg"
   inkscape:version="1.1.1 (3bf5ae0d25, 2021-09-20)"
   xmlns:inkscape="http://www.inkscape.org/namespaces/inkscape"
   xmlns:sodipodi="http://sodipodi.sourceforge.net/DTD/sodipodi-0.dtd"
   xmlns="http://www.w3.org/2000/svg"
   xmlns:svg="http://www.w3.org/2000/svg">
  <sodipodi:namedview
     id="namedview295"
     pagecolor="#ffffff"
     bordercolor="#666666"
     borderopacity="1.0"
     inkscape:pageshadow="2"
     inkscape:pageopacity="0.0"
     inkscape:pagecheckerboard="0"
     showgrid="false"
     inkscape:zoom="0.46837564"
     inkscape:cx="724.84556"
     inkscape:cy="227.3816"
     inkscape:window-width="1920"
     inkscape:window-height="1009"
     inkscape:window-x="-8"
     inkscape:window-y="312"
     inkscape:window-maximized="1"
     inkscape:current-layer="g291" />
  <!--Generated by the Batik Graphics2D SVG Generator-->
  <defs
     id="genericDefs" />
  <g
     id="g291">
    <defs
       id="defs1">
      <clipPath
         clipPathUnits="userSpaceOnUse"
         id="clipPath1">
        <path
           d="M0 0 L1712 0 L1712 771 L0 771 L0 0 Z"
           id="path3" />
      </clipPath>
    </defs>
    <g
       style="fill:white; stroke:white;"
       id="g9">
      <rect
         x="0"
         y="0"
         width="1712"
         style="clip-path:url(#clipPath1); stroke:none;"
         height="771"
         clip-path="url(#clipPath1)"
         id="rect7" />
    </g>
    <g
       style="fill:white; text-rendering:optimizeSpeed; color-rendering:optimizeSpeed; image-rendering:optimizeSpeed; shape-rendering:crispEdges; stroke:white; color-interpolation:sRGB;"
       id="g15">
      <rect
         x="0"
         width="1712"
         height="771"
         y="0"
         style="stroke:none;"
         id="rect11" />
      <path
         style="stroke:none;"
         d="M223 686 L1549 686 L1549 58 L223 58 Z"
         id="path13" />
    </g>
    <g
       style="fill:rgb(38,38,38); text-rendering:geometricPrecision; image-rendering:optimizeQuality; color-rendering:optimizeQuality; stroke-linejoin:round; stroke:rgb(38,38,38); color-interpolation:linearRGB; stroke-width:2.4;"
       id="g27">
      <line
         y2="686"
         style="fill:none;"
         x1="223"
         x2="1548.9999"
         y1="686"
         id="line17" />
      <line
         y2="672.74"
         style="fill:none;"
         x1="301"
         x2="301"
         y1="686"
         id="line19" />
      <line
         y2="672.74"
         style="fill:none;"
         x1="691"
         x2="691"
         y1="686"
         id="line21" />
      <line
         y2="672.74"
         style="fill:none;"
         x1="1081"
         x2="1081"
         y1="686"
         id="line23" />
      <line
         y2="672.74"
         style="fill:none;"
         x1="1471"
         x2="1471"
         y1="686"
         id="line25" />
    </g>
    <g
       transform="translate(301,694)"
       style="font-size:26.6667px; fill:rgb(38,38,38); text-rendering:geometricPrecision; image-rendering:optimizeQuality; color-rendering:optimizeQuality; font-family:'Symbola'; stroke:rgb(38,38,38); color-interpolation:linearRGB;"
       id="g31">
      <path
         style="stroke:none;"
         d="M-2.5625 17.6562 Q-2.5625 17.9375 -2.9062 18.6406 Q-4.2812 21.3125 -7.25 21.3125 Q-9.8125 21.3125 -11.5781 19.375 Q-13.2969 17.5 -13.2969 14.9219 Q-13.2969 12.2656 -11.5938 10.3438 Q-9.8281 8.3438 -7.2031 8.3438 Q-5.6094 8.3438 -4.375 9.0625 Q-2.8906 9.9062 -2.8906 11.375 Q-2.8906 12.6875 -4.1719 12.6875 Q-4.7188 12.6875 -5.0938 12.3203 Q-5.4688 11.9531 -5.4688 11.4062 Q-5.4688 10.1562 -4.1562 10.0938 Q-5.1875 9.0625 -7.1719 9.0625 Q-7.9688 9.0625 -8.75 9.5156 Q-10.9688 10.75 -10.9688 14.8594 Q-10.9688 18.8906 -8.625 20.1562 Q-7.7969 20.6094 -7 20.6094 Q-5.5156 20.6094 -4.6094 19.7656 Q-4.0781 19.2656 -3.5781 18.2031 Q-3.1875 17.3594 -2.9375 17.3594 Q-2.5625 17.3594 -2.5625 17.6562 ZM12.5682 14.9219 Q12.5682 17.5469 10.7323 19.4297 Q8.8964 21.3125 6.287 21.3125 Q5.2714 21.3125 4.2557 20.7812 Q3.1464 20.2031 2.8182 19.3281 L2.8182 24.4375 Q2.8182 25 2.9589 25.2188 Q3.2557 25.6875 5.0057 25.5938 L5.0057 26.4531 Q2.7714 26.3906 1.8182 26.3906 Q0.8651 26.3906 -1.3224 26.4531 L-1.3224 25.5938 Q-0.838 25.6094 -0.713 25.6094 Q0.2089 25.6094 0.4745 25.4375 Q0.8807 25.1719 0.8807 24.3281 L0.8807 11.125 Q0.8807 10.4531 0.7714 10.2344 Q0.6151 9.9062 0.037 9.7656 Q-0.2755 9.7031 -1.3224 9.7344 L-1.3224 8.8281 L2.7245 8.5312 L2.7245 10.3906 Q4.3964 8.5312 6.6776 8.5312 Q9.162 8.5312 10.912 10.5 Q12.5682 12.3906 12.5682 14.9219 ZM10.2245 14.9219 Q10.2245 12.9375 9.3339 11.25 Q8.2714 9.2344 6.4589 9.2344 Q4.0995 9.2344 2.8182 11.5 L2.8182 17.7969 Q2.8182 18.4062 3.2089 18.9688 Q4.412 20.6875 6.1776 20.6875 Q8.0839 20.6875 9.2401 18.6719 Q10.2245 16.9844 10.2245 14.9219 Z"
         id="path29" />
    </g>
    <g
       transform="translate(691,694)"
       style="font-size:26.6667px; fill:rgb(38,38,38); text-rendering:geometricPrecision; image-rendering:optimizeQuality; color-rendering:optimizeQuality; font-family:'Symbola'; stroke:rgb(38,38,38); color-interpolation:linearRGB;"
       id="g35">
      <path
         style="stroke:none;"
         d="M0.3906 21 Q-2.25 20.9219 -2.8125 20.9219 Q-3.25 20.9219 -5.9688 21 L-5.9688 20.125 Q-5.5781 20.1406 -5.3438 20.1406 Q-4.5 20.1406 -4.2031 19.9844 Q-3.7656 19.7344 -3.7656 18.9844 L-3.7656 12.1406 Q-3.7656 9.1406 -5.8438 9.1406 Q-7.5625 9.1406 -8.6562 10.5781 Q-9.6562 11.9062 -9.6562 13.6719 L-9.6562 18.9375 Q-9.6562 19.4531 -9.5312 19.7031 Q-9.25 20.2188 -7.4844 20.125 L-7.4844 21 Q-10.125 20.9219 -10.6406 20.9219 Q-11.0781 20.9219 -13.7969 21 L-13.7969 20.125 Q-13.4062 20.1406 -13.1875 20.1406 Q-12.2812 20.1406 -12 19.9531 Q-11.6094 19.7031 -11.6094 18.8594 L-11.6094 4.1719 Q-11.6094 3.0156 -12.1875 2.7344 Q-12.5156 2.5781 -13.7969 2.6094 L-13.7969 1.7188 L-9.7656 1.4219 L-9.7656 11.2344 L-9.7344 11.2344 Q-9.2031 10 -8.0938 9.2656 Q-6.9844 8.5312 -5.6719 8.5312 Q-1.8125 8.5312 -1.8125 12.6719 L-1.8125 19.2812 Q-1.8125 20.2344 0.3906 20.125 L0.3906 21 ZM13.4028 12.2188 Q13.4028 16.2969 12.3716 18.4062 Q10.8091 21.5938 7.5903 21.5938 Q4.6216 21.5938 3.0591 18.8438 Q1.8403 16.6719 1.8403 12.2188 Q1.8403 8.0625 2.8403 5.9531 Q4.3716 2.7031 7.6216 2.7031 Q10.7622 2.7031 12.3091 5.7656 Q13.4028 7.9375 13.4028 12.2188 ZM11.1216 13.5625 L11.1216 10.1406 Q11.1216 7.2812 10.6216 5.7969 Q9.8247 3.2969 7.5903 3.2969 Q5.3872 3.2969 4.5747 5.8125 Q4.0903 7.3125 4.0903 10.1562 Q4.0903 10.6875 4.106 11.7656 Q4.106 12.8281 4.106 13.3594 Q4.106 16.5 4.5435 18.0938 Q5.3091 21 7.5903 21 Q9.856 21 10.6685 18.2031 Q11.1216 16.625 11.1216 13.5625 Z"
         id="path33" />
    </g>
    <g
       transform="translate(1081,694)"
       style="font-size:26.6667px; fill:rgb(38,38,38); text-rendering:geometricPrecision; image-rendering:optimizeQuality; color-rendering:optimizeQuality; font-family:'Symbola'; stroke:rgb(38,38,38); color-interpolation:linearRGB;"
       id="g39">
      <path
         style="stroke:none;"
         d="M-0.4219 9.5938 Q-0.4219 10.4375 -1.2344 10.4375 Q-2.0625 10.4375 -2.0625 9.6406 Q-2.0625 9.0625 -1.6094 8.8594 Q-1.7188 8.8281 -1.875 8.8281 Q-3.2344 8.8281 -4.4219 9.9375 Q-3.2656 11 -3.2656 12.6719 Q-3.2656 14.4375 -4.6875 15.6406 Q-6.0312 16.8125 -7.8281 16.8125 Q-9.3906 16.8125 -10.625 15.9219 Q-11.0938 16.4844 -11.0938 17.25 Q-11.0938 19.2031 -8.6875 19.2031 Q-8.4375 19.2031 -7.9453 19.1875 Q-7.4531 19.1719 -7.2031 19.1719 Q-4.0156 19.1719 -2.6562 19.9375 Q-0.7969 21.0156 -0.7969 23.1562 Q-0.7969 25.0156 -3.125 26.0156 Q-4.9219 26.7969 -7.0625 26.7969 Q-9.1562 26.7969 -10.9688 26.0156 Q-13.2969 25.0156 -13.2969 23.2344 Q-13.2969 22.2188 -12.4844 21.4219 Q-11.7656 20.7188 -10.7031 20.4219 Q-11.9375 19.6094 -11.9375 17.8906 Q-11.9375 16.5938 -11.0781 15.5625 Q-12.4062 14.4531 -12.4062 12.6562 Q-12.4062 10.8906 -10.9844 9.6719 Q-9.625 8.5312 -7.8281 8.5312 Q-6.125 8.5312 -4.8438 9.5469 Q-3.4844 8.2188 -1.8438 8.2188 Q-1.25 8.2188 -0.8359 8.6094 Q-0.4219 9 -0.4219 9.5938 ZM-5.3594 12.6562 Q-5.3594 9.1719 -7.8281 9.1719 Q-9.1719 9.1719 -9.8438 10.3281 Q-10.2969 11.0781 -10.2969 12.6719 Q-10.2969 16.1406 -7.8281 16.1406 Q-6.5 16.1406 -5.8281 15.0156 Q-5.3594 14.2344 -5.3594 12.6562 ZM-2.2969 23.2344 Q-2.2969 20.8125 -7 20.8125 L-9.5156 20.8125 Q-10.4688 20.8125 -11.1562 21.5469 Q-11.8438 22.2812 -11.8438 23.2344 Q-11.8438 24.6719 -10.0781 25.5 Q-8.6562 26.1719 -7.0312 26.1719 Q-5.4375 26.1719 -4.0312 25.5 Q-2.2969 24.6562 -2.2969 23.2344 ZM12.6143 12.2188 Q12.6143 16.2969 11.583 18.4062 Q10.0205 21.5938 6.8018 21.5938 Q3.833 21.5938 2.2705 18.8438 Q1.0518 16.6719 1.0518 12.2188 Q1.0518 8.0625 2.0518 5.9531 Q3.583 2.7031 6.833 2.7031 Q9.9737 2.7031 11.5205 5.7656 Q12.6143 7.9375 12.6143 12.2188 ZM10.333 13.5625 L10.333 10.1406 Q10.333 7.2812 9.833 5.7969 Q9.0362 3.2969 6.8018 3.2969 Q4.5987 3.2969 3.7862 5.8125 Q3.3018 7.3125 3.3018 10.1562 Q3.3018 10.6875 3.3174 11.7656 Q3.3174 12.8281 3.3174 13.3594 Q3.3174 16.5 3.7549 18.0938 Q4.5205 21 6.8018 21 Q9.0674 21 9.8799 18.2031 Q10.333 16.625 10.333 13.5625 Z"
         id="path37" />
    </g>
    <g
       transform="translate(1471,694)"
       style="font-size:26.6667px; fill:rgb(38,38,38); text-rendering:geometricPrecision; image-rendering:optimizeQuality; color-rendering:optimizeQuality; font-family:'Symbola'; stroke:rgb(38,38,38); color-interpolation:linearRGB;"
       id="g43">
      <path
         style="stroke:none;"
         d="M-2.0781 17.3906 Q-2.0781 19.3125 -3.4375 20.3594 Q-4.6406 21.3125 -6.625 21.3125 Q-8.4688 21.3125 -9.75 20.0938 Q-10.7656 21.3125 -11.0156 21.3125 Q-11.2969 21.3125 -11.2969 20.875 L-11.2969 16.6406 Q-11.2969 16.2188 -10.9375 16.2188 Q-10.6719 16.2188 -10.5469 16.6719 Q-10.0625 18.5938 -9.3438 19.5 Q-8.375 20.6875 -6.625 20.6875 Q-5.2656 20.6875 -4.4219 20.0938 Q-3.4375 19.4062 -3.4375 18.1094 Q-3.4375 16.1719 -6.3906 15.5469 Q-8.0781 15.1719 -8.3281 15.1094 Q-9.4219 14.7812 -10.0938 14.2188 Q-11.2969 13.2344 -11.2969 11.8125 Q-11.2969 10.0469 -9.875 9.125 Q-8.6719 8.3438 -6.8125 8.3438 Q-5.25 8.3438 -4.1562 9.1406 Q-3.3594 8.3438 -3.0938 8.3438 Q-2.7812 8.3438 -2.7812 8.7812 L-2.7812 12.125 Q-2.7812 12.5938 -3.1719 12.5938 Q-3.4688 12.5938 -3.5781 12.0156 Q-3.6094 11.625 -3.6562 11.2344 Q-3.8594 10.0781 -4.7656 9.4688 Q-5.5938 8.8906 -6.8125 8.8906 Q-8.0469 8.8906 -8.8906 9.3281 Q-9.9531 9.9062 -9.9531 11.0312 Q-9.9531 12.1719 -8.7188 12.75 Q-8.0781 13.0312 -6.4844 13.3594 Q-4.25 13.7812 -3.2812 14.7031 Q-2.0781 15.8281 -2.0781 17.3906 ZM10.9959 12.2188 Q10.9959 16.2969 9.9647 18.4062 Q8.4022 21.5938 5.1834 21.5938 Q2.2147 21.5938 0.6522 18.8438 Q-0.5666 16.6719 -0.5666 12.2188 Q-0.5666 8.0625 0.4334 5.9531 Q1.9647 2.7031 5.2147 2.7031 Q8.3553 2.7031 9.9022 5.7656 Q10.9959 7.9375 10.9959 12.2188 ZM8.7147 13.5625 L8.7147 10.1406 Q8.7147 7.2812 8.2147 5.7969 Q7.4178 3.2969 5.1834 3.2969 Q2.9803 3.2969 2.1678 5.8125 Q1.6834 7.3125 1.6834 10.1562 Q1.6834 10.6875 1.699 11.7656 Q1.699 12.8281 1.699 13.3594 Q1.699 16.5 2.1365 18.0938 Q2.9022 21 5.1834 21 Q7.449 21 8.2615 18.2031 Q8.7147 16.625 8.7147 13.5625 Z"
         id="path41" />
    </g>
    <g
       style="fill:rgb(38,38,38); text-rendering:geometricPrecision; image-rendering:optimizeQuality; color-rendering:optimizeQuality; stroke-linejoin:round; stroke:rgb(38,38,38); color-interpolation:linearRGB; stroke-width:2.4;"
       id="g57">
      <line
         y2="58"
         style="fill:none;"
         x1="223"
         x2="223"
         y1="686"
         id="line45" />
      <line
         y2="686"
         style="fill:none;"
         x1="223"
         x2="236.26"
         y1="686"
         id="line47" />
      <line
         y2="545.0196"
         style="fill:none;"
         x1="223"
         x2="236.26"
         y1="545.0196"
         id="line49" />
      <line
         y2="404.0392"
         style="fill:none;"
         x1="223"
         x2="236.26"
         y1="404.0392"
         id="line51" />
      <line
         y2="263.0588"
         style="fill:none;"
         x1="223"
         x2="236.26"
         y1="263.0588"
         id="line53" />
      <line
         y2="122.0785"
         style="fill:none;"
         x1="223"
         x2="236.26"
         y1="122.0785"
         id="line55" />
    </g>
    <g
       transform="translate(215,686)"
       style="font-size:26.6667px; fill:rgb(38,38,38); text-rendering:geometricPrecision; image-rendering:optimizeQuality; color-rendering:optimizeQuality; font-family:'Symbola'; stroke:rgb(38,38,38); color-interpolation:linearRGB;"
       id="g61">
      <path
         style="stroke:none;"
         d="M-1.4688 -1.2812 Q-1.4688 2.7969 -2.5 4.9062 Q-4.0625 8.0938 -7.2812 8.0938 Q-10.25 8.0938 -11.8125 5.3438 Q-13.0312 3.1719 -13.0312 -1.2812 Q-13.0312 -5.4375 -12.0312 -7.5469 Q-10.5 -10.7969 -7.25 -10.7969 Q-4.1094 -10.7969 -2.5625 -7.7344 Q-1.4688 -5.5625 -1.4688 -1.2812 ZM-3.75 0.0625 L-3.75 -3.3594 Q-3.75 -6.2188 -4.25 -7.7031 Q-5.0469 -10.2031 -7.2812 -10.2031 Q-9.4844 -10.2031 -10.2969 -7.6875 Q-10.7812 -6.1875 -10.7812 -3.3438 Q-10.7812 -2.8125 -10.7656 -1.7344 Q-10.7656 -0.6719 -10.7656 -0.1406 Q-10.7656 3 -10.3281 4.5938 Q-9.5625 7.5 -7.2812 7.5 Q-5.0156 7.5 -4.2031 4.7031 Q-3.75 3.125 -3.75 0.0625 Z"
         id="path59" />
    </g>
    <g
       transform="translate(215,545.0196)"
       style="font-size:26.6667px; fill:rgb(38,38,38); text-rendering:geometricPrecision; image-rendering:optimizeQuality; color-rendering:optimizeQuality; font-family:'Symbola'; stroke:rgb(38,38,38); color-interpolation:linearRGB;"
       id="g65">
      <path
         style="stroke:none;"
         d="M-21.4688 -1.2812 Q-21.4688 2.7969 -22.5 4.9062 Q-24.0625 8.0938 -27.2812 8.0938 Q-30.25 8.0938 -31.8125 5.3438 Q-33.0312 3.1719 -33.0312 -1.2812 Q-33.0312 -5.4375 -32.0312 -7.5469 Q-30.5 -10.7969 -27.25 -10.7969 Q-24.1094 -10.7969 -22.5625 -7.7344 Q-21.4688 -5.5625 -21.4688 -1.2812 ZM-23.75 0.0625 L-23.75 -3.3594 Q-23.75 -6.2188 -24.25 -7.7031 Q-25.0469 -10.2031 -27.2812 -10.2031 Q-29.4844 -10.2031 -30.2969 -7.6875 Q-30.7812 -6.1875 -30.7812 -3.3438 Q-30.7812 -2.8125 -30.7656 -1.7344 Q-30.7656 -0.6719 -30.7656 -0.1406 Q-30.7656 3 -30.3281 4.5938 Q-29.5625 7.5 -27.2812 7.5 Q-25.0156 7.5 -24.2031 4.7031 Q-23.75 3.125 -23.75 0.0625 ZM-15.8594 6.0625 Q-15.8594 6.6562 -16.2812 7.0781 Q-16.7031 7.5 -17.2969 7.5 Q-17.8906 7.5 -18.3125 7.0781 Q-18.7344 6.6562 -18.7344 6.0625 Q-18.7344 5.4844 -18.3125 5.0625 Q-17.8906 4.6406 -17.2969 4.6406 Q-16.7031 4.6406 -16.2812 5.0625 Q-15.8594 5.4844 -15.8594 6.0625 ZM-1.7891 1.9688 Q-1.7891 4.4688 -3.5312 6.2812 Q-5.2734 8.0938 -7.7734 8.0938 Q-9.8203 8.0938 -11.2812 6.6016 Q-12.7422 5.1094 -12.7422 3.0625 Q-12.7422 1.6094 -11.4141 1.6094 Q-10.8359 1.6094 -10.4297 1.9922 Q-10.0234 2.375 -10.0234 2.9531 Q-10.0234 3.5312 -10.4297 3.9219 Q-10.8359 4.3125 -11.4141 4.3125 Q-11.6484 4.3125 -11.8516 4.25 Q-11.4766 5.5781 -10.3359 6.4609 Q-9.1953 7.3438 -7.8203 7.3438 Q-5.9141 7.3438 -4.8672 5.5469 Q-4.2266 4.4219 -4.2266 1.7812 Q-4.2266 -0.5625 -4.7109 -1.6719 Q-5.4922 -3.4375 -7.0547 -3.4375 Q-8.2266 -3.4375 -9.1641 -2.875 Q-9.7578 -2.5156 -10.3516 -1.8281 Q-10.8516 -1.25 -10.9609 -1.25 Q-11.3516 -1.25 -11.3516 -1.7969 L-11.3516 -10.3438 Q-11.3516 -10.7812 -11.0859 -10.7812 Q-10.9609 -10.7812 -10.7422 -10.7031 Q-8.5547 -9.9219 -7.0703 -9.9219 Q-5.2891 -9.9219 -3.3516 -10.7344 Q-3.1953 -10.7969 -3.1172 -10.7969 Q-2.8516 -10.7969 -2.8516 -10.5 Q-2.8516 -10.2812 -3.3359 -9.75 Q-5.2266 -7.6406 -8.1484 -7.6406 Q-9.2891 -7.6406 -10.4766 -7.9844 L-10.4766 -2.6562 Q-9.0391 -4.0469 -6.9922 -4.0469 Q-4.6953 -4.0469 -3.1797 -2.1562 Q-1.7891 -0.3906 -1.7891 1.9688 Z"
         id="path63" />
    </g>
    <g
       transform="translate(215,404.0392)"
       style="font-size:26.6667px; fill:rgb(38,38,38); text-rendering:geometricPrecision; image-rendering:optimizeQuality; color-rendering:optimizeQuality; font-family:'Symbola'; stroke:rgb(38,38,38); color-interpolation:linearRGB;"
       id="g69">
      <path
         style="stroke:none;"
         d="M-2.7188 7.5 Q-3.6562 7.4219 -4.5 7.4219 L-9.8281 7.4219 Q-10.6719 7.4219 -11.6094 7.5 L-11.6094 6.6562 Q-11.4531 6.6562 -11.1172 6.6719 Q-10.7812 6.6875 -10.6094 6.6875 Q-8.5938 6.6875 -8.2969 6.1094 Q-8.1875 5.875 -8.1875 5.4219 L-8.1875 -8.9062 Q-9.625 -8.2031 -11.7656 -8.2031 L-11.7656 -9.0469 Q-8.4688 -9.0469 -6.7812 -10.7969 L-6.6406 -10.7969 Q-6.2656 -10.7969 -6.1875 -10.6094 Q-6.1406 -10.5312 -6.1406 -10.0938 L-6.1406 5.4688 Q-6.1406 5.9062 -6.0312 6.125 Q-5.8438 6.5625 -4.5 6.6562 Q-4.3125 6.6719 -2.7188 6.6562 L-2.7188 7.5 Z"
         id="path67" />
    </g>
    <g
       transform="translate(215,263.0588)"
       style="font-size:26.6667px; fill:rgb(38,38,38); text-rendering:geometricPrecision; image-rendering:optimizeQuality; color-rendering:optimizeQuality; font-family:'Symbola'; stroke:rgb(38,38,38); color-interpolation:linearRGB;"
       id="g73">
      <path
         style="stroke:none;"
         d="M-22.7188 7.5 Q-23.6562 7.4219 -24.5 7.4219 L-29.8281 7.4219 Q-30.6719 7.4219 -31.6094 7.5 L-31.6094 6.6562 Q-31.4531 6.6562 -31.1172 6.6719 Q-30.7812 6.6875 -30.6094 6.6875 Q-28.5938 6.6875 -28.2969 6.1094 Q-28.1875 5.875 -28.1875 5.4219 L-28.1875 -8.9062 Q-29.625 -8.2031 -31.7656 -8.2031 L-31.7656 -9.0469 Q-28.4688 -9.0469 -26.7812 -10.7969 L-26.6406 -10.7969 Q-26.2656 -10.7969 -26.1875 -10.6094 Q-26.1406 -10.5312 -26.1406 -10.0938 L-26.1406 5.4688 Q-26.1406 5.9062 -26.0312 6.125 Q-25.8438 6.5625 -24.5 6.6562 Q-24.3125 6.6719 -22.7188 6.6562 L-22.7188 7.5 ZM-15.8594 6.0625 Q-15.8594 6.6562 -16.2812 7.0781 Q-16.7031 7.5 -17.2969 7.5 Q-17.8906 7.5 -18.3125 7.0781 Q-18.7344 6.6562 -18.7344 6.0625 Q-18.7344 5.4844 -18.3125 5.0625 Q-17.8906 4.6406 -17.2969 4.6406 Q-16.7031 4.6406 -16.2812 5.0625 Q-15.8594 5.4844 -15.8594 6.0625 ZM-1.7891 1.9688 Q-1.7891 4.4688 -3.5312 6.2812 Q-5.2734 8.0938 -7.7734 8.0938 Q-9.8203 8.0938 -11.2812 6.6016 Q-12.7422 5.1094 -12.7422 3.0625 Q-12.7422 1.6094 -11.4141 1.6094 Q-10.8359 1.6094 -10.4297 1.9922 Q-10.0234 2.375 -10.0234 2.9531 Q-10.0234 3.5312 -10.4297 3.9219 Q-10.8359 4.3125 -11.4141 4.3125 Q-11.6484 4.3125 -11.8516 4.25 Q-11.4766 5.5781 -10.3359 6.4609 Q-9.1953 7.3438 -7.8203 7.3438 Q-5.9141 7.3438 -4.8672 5.5469 Q-4.2266 4.4219 -4.2266 1.7812 Q-4.2266 -0.5625 -4.7109 -1.6719 Q-5.4922 -3.4375 -7.0547 -3.4375 Q-8.2266 -3.4375 -9.1641 -2.875 Q-9.7578 -2.5156 -10.3516 -1.8281 Q-10.8516 -1.25 -10.9609 -1.25 Q-11.3516 -1.25 -11.3516 -1.7969 L-11.3516 -10.3438 Q-11.3516 -10.7812 -11.0859 -10.7812 Q-10.9609 -10.7812 -10.7422 -10.7031 Q-8.5547 -9.9219 -7.0703 -9.9219 Q-5.2891 -9.9219 -3.3516 -10.7344 Q-3.1953 -10.7969 -3.1172 -10.7969 Q-2.8516 -10.7969 -2.8516 -10.5 Q-2.8516 -10.2812 -3.3359 -9.75 Q-5.2266 -7.6406 -8.1484 -7.6406 Q-9.2891 -7.6406 -10.4766 -7.9844 L-10.4766 -2.6562 Q-9.0391 -4.0469 -6.9922 -4.0469 Q-4.6953 -4.0469 -3.1797 -2.1562 Q-1.7891 -0.3906 -1.7891 1.9688 Z"
         id="path71" />
    </g>
    <g
       transform="translate(215,122.0785)"
       style="font-size:26.6667px; fill:rgb(38,38,38); text-rendering:geometricPrecision; image-rendering:optimizeQuality; color-rendering:optimizeQuality; font-family:'Symbola'; stroke:rgb(38,38,38); color-interpolation:linearRGB;"
       id="g77">
      <path
         style="stroke:none;"
         d="M-1.7812 2.7344 L-2.5312 7.5 L-12.7344 7.5 L-12.7344 7.2656 Q-12.7344 6.8281 -12.4219 6.4688 L-7.1406 0.6094 Q-4.2656 -2.5938 -4.2656 -5.4688 Q-4.2656 -7.3125 -5.1875 -8.5625 Q-6.1875 -9.9531 -7.9531 -9.9531 Q-9.2344 -9.9531 -10.2344 -9.1797 Q-11.2344 -8.4062 -11.6719 -7.1562 Q-11.5781 -7.1875 -11.4375 -7.1875 Q-9.8438 -7.1875 -9.8438 -5.75 Q-9.8438 -5.1406 -10.2578 -4.7188 Q-10.6719 -4.2969 -11.2656 -4.2969 Q-12.7344 -4.2969 -12.7344 -5.8281 Q-12.7344 -7.9062 -11.2031 -9.3516 Q-9.6719 -10.7969 -7.5938 -10.7969 Q-5.1562 -10.7969 -3.5 -9.375 Q-1.7812 -7.875 -1.7812 -5.4688 Q-1.7812 -3.9219 -2.7969 -2.4688 Q-3.375 -1.6406 -4.9688 -0.0781 L-10.6094 5.3906 L-5.125 5.3906 Q-3.3281 5.3906 -3.0703 5.1719 Q-2.8125 4.9531 -2.4688 2.7344 L-1.7812 2.7344 Z"
         id="path75" />
    </g>
    <g
       transform="translate(177,371.9997) rotate(-90)"
       style="font-size:29.3333px; fill:rgb(38,38,38); text-rendering:geometricPrecision; image-rendering:optimizeQuality; color-rendering:optimizeQuality; font-family:'mwa_cmr10'; stroke:rgb(38,38,38); color-interpolation:linearRGB;"
       id="g93">
      <path
         style="stroke:none;"
         d="M-47.3234 -10.5601 L-47.3234 -11.5757 Q-45.8703 -11.5757 -44.4953 -11.7398 Q-43.1203 -11.9039 -43.1203 -12.4976 L-43.1203 -28.4351 Q-43.1203 -29.0601 -43.4719 -29.2085 Q-43.8234 -29.357 -44.6047 -29.357 L-45.8078 -29.357 Q-48.2141 -29.357 -49.2141 -28.3101 Q-49.7297 -27.7789 -49.9562 -26.6226 Q-50.1828 -25.4664 -50.3391 -23.732 L-51.1828 -23.732 L-50.6359 -30.3726 L-32.9172 -30.3726 L-32.3703 -23.732 L-33.2141 -23.732 Q-33.3859 -25.5914 -33.5891 -26.6929 Q-33.7922 -27.7945 -34.3234 -28.3101 Q-35.3547 -29.357 -37.7297 -29.357 L-38.9484 -29.357 Q-39.4641 -29.357 -39.7609 -29.3101 Q-40.0578 -29.2632 -40.2375 -29.0601 Q-40.4172 -28.857 -40.4172 -28.4351 L-40.4172 -12.4976 Q-40.4172 -11.9039 -39.0422 -11.7398 Q-37.6672 -11.5757 -36.2297 -11.5757 L-36.2297 -10.5601 L-47.3234 -10.5601 Z"
         id="path79" />
      <path
         style="stroke:none;"
         d="M-30.1539 -10.5601 L-30.1539 -11.5757 Q-29.1539 -11.5757 -28.521 -11.732 Q-27.8882 -11.8882 -27.8882 -12.4976 L-27.8882 -20.4195 Q-27.8882 -21.5289 -28.3179 -21.7867 Q-28.7476 -22.0445 -30.0289 -22.0445 L-30.0289 -23.0601 L-25.8414 -23.3726 L-25.8414 -12.4976 Q-25.8414 -11.8882 -25.2945 -11.732 Q-24.7476 -11.5757 -23.8257 -11.5757 L-23.8257 -10.5601 L-30.1539 -10.5601 ZM-28.9195 -28.357 Q-28.9195 -28.9976 -28.4351 -29.482 Q-27.9507 -29.9664 -27.3414 -29.9664 Q-26.9195 -29.9664 -26.5367 -29.7476 Q-26.1539 -29.5289 -25.9429 -29.146 Q-25.732 -28.7632 -25.732 -28.357 Q-25.732 -27.732 -26.2164 -27.2554 Q-26.7007 -26.7789 -27.3414 -26.7789 Q-27.9507 -26.7789 -28.4351 -27.2554 Q-28.9195 -27.732 -28.9195 -28.357 Z"
         id="path81" />
      <path
         style="stroke:none;"
         d="M-22.0369 -10.5601 L-22.0369 -11.5757 Q-21.0369 -11.5757 -20.4041 -11.732 Q-19.7713 -11.8882 -19.7713 -12.4976 L-19.7713 -20.4195 Q-19.7713 -21.2007 -20.0057 -21.5445 Q-20.2401 -21.8882 -20.6776 -21.9664 Q-21.1151 -22.0445 -22.0369 -22.0445 L-22.0369 -23.0601 L-17.8338 -23.3726 L-17.8338 -20.5445 Q-17.2401 -21.7945 -16.0994 -22.5835 Q-14.9588 -23.3726 -13.6151 -23.3726 Q-10.2869 -23.3726 -9.6932 -20.6539 Q-9.1151 -21.8726 -7.9979 -22.6226 Q-6.8807 -23.3726 -5.5526 -23.3726 Q-4.2401 -23.3726 -3.3338 -22.9507 Q-2.4276 -22.5289 -1.9744 -21.6539 Q-1.5213 -20.7789 -1.5213 -19.4664 L-1.5213 -12.4976 Q-1.5213 -11.8882 -0.8807 -11.732 Q-0.2401 -11.5757 0.7443 -11.5757 L0.7443 -10.5601 L-5.8963 -10.5601 L-5.8963 -11.5757 Q-4.9119 -11.5757 -4.2713 -11.732 Q-3.6307 -11.8882 -3.6307 -12.4976 L-3.6307 -19.3882 Q-3.6307 -20.8414 -4.0447 -21.732 Q-4.4588 -22.6226 -5.7401 -22.6226 Q-7.4119 -22.6226 -8.4979 -21.2789 Q-9.5838 -19.9351 -9.5838 -18.2164 L-9.5838 -12.4976 Q-9.5838 -11.8882 -8.951 -11.732 Q-8.3182 -11.5757 -7.3182 -11.5757 L-7.3182 -10.5601 L-13.9588 -10.5601 L-13.9588 -11.5757 Q-12.9744 -11.5757 -12.3338 -11.732 Q-11.6932 -11.8882 -11.6932 -12.4976 L-11.6932 -19.3882 Q-11.6932 -20.7945 -12.1072 -21.7085 Q-12.5213 -22.6226 -13.7869 -22.6226 Q-15.4744 -22.6226 -16.5604 -21.2789 Q-17.6463 -19.9351 -17.6463 -18.2164 L-17.6463 -12.4976 Q-17.6463 -11.8882 -17.0057 -11.732 Q-16.3651 -11.5757 -15.3963 -11.5757 L-15.3963 -10.5601 L-22.0369 -10.5601 Z"
         id="path83" />
      <path
         style="stroke:none;"
         d="M8.767 -10.232 Q7.0013 -10.232 5.5248 -11.1617 Q4.0482 -12.0914 3.2045 -13.6382 Q2.3607 -15.1851 2.3607 -16.9195 Q2.3607 -18.6226 3.1263 -20.146 Q3.892 -21.6695 5.2748 -22.6148 Q6.6576 -23.5601 8.3607 -23.5601 Q9.6888 -23.5601 10.6732 -23.1148 Q11.6576 -22.6695 12.2982 -21.8726 Q12.9388 -21.0757 13.2592 -20.0054 Q13.5795 -18.9351 13.5795 -17.6382 Q13.5795 -17.2632 13.2826 -17.2632 L4.892 -17.2632 L4.892 -16.9507 Q4.892 -14.5445 5.8607 -12.8179 Q6.8295 -11.0914 9.0326 -11.0914 Q9.9232 -11.0914 10.681 -11.482 Q11.4388 -11.8726 11.9935 -12.5835 Q12.5482 -13.2945 12.7513 -14.107 Q12.7826 -14.2007 12.8607 -14.2789 Q12.9388 -14.357 13.0326 -14.357 L13.2826 -14.357 Q13.5795 -14.357 13.5795 -13.982 Q13.1732 -12.3414 11.8138 -11.2867 Q10.4545 -10.232 8.767 -10.232 ZM4.9232 -17.982 L11.5326 -17.982 Q11.5326 -19.0757 11.2279 -20.1929 Q10.9232 -21.3101 10.2123 -22.0523 Q9.5013 -22.7945 8.3607 -22.7945 Q6.7201 -22.7945 5.8217 -21.2554 Q4.9232 -19.7164 4.9232 -17.982 Z"
         id="path85" />
      <path
         style="stroke:none;"
         d="M27.7849 -3.3101 L27.7849 -32.3101 L31.7536 -32.3101 L31.7536 -31.1539 L28.9568 -31.1539 L28.9568 -4.4664 L31.7536 -4.4664 L31.7536 -3.3101 L27.7849 -3.3101 Z"
         id="path87" />
      <path
         style="stroke:none;"
         d="M33.4799 -10.482 L33.4799 -15.2007 Q33.4799 -15.4351 33.7299 -15.4351 L34.0893 -15.4351 Q34.2456 -15.4351 34.3081 -15.2007 Q35.1206 -10.9976 38.2143 -10.9976 Q39.5893 -10.9976 40.519 -11.6226 Q41.4487 -12.2476 41.4487 -13.5445 Q41.4487 -14.482 40.7221 -15.1382 Q39.9956 -15.7945 39.0112 -16.0445 L37.0737 -16.4195 Q36.0893 -16.6382 35.2924 -17.0757 Q34.4956 -17.5132 33.9877 -18.2398 Q33.4799 -18.9664 33.4799 -19.9351 Q33.4799 -21.2164 34.1518 -22.0289 Q34.8237 -22.8414 35.894 -23.2007 Q36.9643 -23.5601 38.2143 -23.5601 Q39.6987 -23.5601 40.8081 -22.7632 L41.6518 -23.482 Q41.6518 -23.5601 41.7924 -23.5601 L41.9956 -23.5601 Q42.0893 -23.5601 42.1596 -23.482 Q42.2299 -23.4039 42.2299 -23.3257 L42.2299 -19.5289 Q42.2299 -19.2476 41.9956 -19.2476 L41.6518 -19.2476 Q41.3862 -19.2476 41.3862 -19.5289 Q41.3862 -21.0445 40.5424 -21.9585 Q39.6987 -22.8726 38.1831 -22.8726 Q36.8862 -22.8726 35.9331 -22.396 Q34.9799 -21.9195 34.9799 -20.7476 Q34.9799 -19.9351 35.6674 -19.4195 Q36.3549 -18.9039 37.2768 -18.6695 L39.2299 -18.3101 Q40.2299 -18.0757 41.0893 -17.5367 Q41.9487 -16.9976 42.4487 -16.1773 Q42.9487 -15.357 42.9487 -14.3257 Q42.9487 -13.2789 42.5893 -12.5054 Q42.2299 -11.732 41.5815 -11.2242 Q40.9331 -10.7164 40.0581 -10.4742 Q39.1831 -10.232 38.2143 -10.232 Q36.4018 -10.232 35.1206 -11.4507 L34.0581 -10.3101 Q34.0581 -10.232 33.9018 -10.232 L33.7299 -10.232 Q33.4799 -10.232 33.4799 -10.482 Z"
         id="path89" />
      <path
         style="stroke:none;"
         d="M44.7222 -3.3101 L44.7222 -4.4664 L47.5347 -4.4664 L47.5347 -31.1539 L44.7222 -31.1539 L44.7222 -32.3101 L48.6909 -32.3101 L48.6909 -3.3101 L44.7222 -3.3101 Z"
         id="path91" />
    </g>
    <g
       transform="translate(886.0009,37.5)"
       style="font-size:34.6667px;font-family:mwa_cmr10;color-interpolation:linearRGB;color-rendering:optimizeQuality;image-rendering:optimizeQuality;text-rendering:geometricPrecision"
       id="g145">
      <path
         style="stroke:none"
         d="m -223.769,-12.4801 v -1.2344 q 4.375,0 4.375,-1.1094 v -18.375 q -1.8125,0.875 -4.5781,0.875 v -1.2344 q 4.2813,0 6.4688,-2.2343 h 0.5 q 0.125,0 0.2343,0.0937 0.1094,0.0938 0.1094,0.2188 v 20.6562 q 0,1.1094 4.375,1.1094 v 1.2344 z"
         id="path95" />
      <path
         style="stroke:none"
         d="m -200.9356,-11.7145 q -4.2968,0 -5.8359,-3.5313 -1.5391,-3.5312 -1.5391,-8.3906 0,-3.0469 0.5547,-5.7265 0.5547,-2.6797 2.2032,-4.5547 1.6484,-1.875 4.6171,-1.875 2.3125,0 3.7813,1.125 1.4687,1.125 2.2344,2.914 0.7656,1.7891 1.0468,3.8282 0.2813,2.039 0.2813,4.289 0,3 -0.5547,5.625 -0.5547,2.625 -2.1797,4.461 -1.625,1.8359 -4.6094,1.8359 z m 0,-0.9063 q 1.9532,0 2.9063,-2 0.9531,-2 1.1797,-4.4218 0.2265,-2.4219 0.2265,-5.1563 0,-2.6406 -0.2265,-4.8594 -0.2266,-2.2187 -1.1719,-4.0234 -0.9453,-1.8047 -2.9141,-1.8047 -1.9843,0 -2.9375,1.8125 -0.9531,1.8125 -1.1796,4.0235 -0.2266,2.2109 -0.2266,4.8515 0,1.9375 0.0937,3.6641 0.0938,1.7265 0.5079,3.5625 0.414,1.8359 1.3281,3.0937 0.914,1.2578 2.414,1.2578 z"
         id="path97" />
      <path
         style="stroke:none"
         d="m -183.6022,-11.7145 q -4.2969,0 -5.8359,-3.5313 -1.5391,-3.5312 -1.5391,-8.3906 0,-3.0469 0.5547,-5.7265 0.5547,-2.6797 2.2031,-4.5547 1.6485,-1.875 4.6172,-1.875 2.3125,0 3.7813,1.125 1.4687,1.125 2.2343,2.914 0.7657,1.7891 1.0469,3.8282 0.2813,2.039 0.2813,4.289 0,3 -0.5547,5.625 -0.5547,2.625 -2.1797,4.461 -1.625,1.8359 -4.6094,1.8359 z m 0,-0.9063 q 1.9531,0 2.9063,-2 0.9531,-2 1.1796,-4.4218 0.2266,-2.4219 0.2266,-5.1563 0,-2.6406 -0.2266,-4.8594 -0.2265,-2.2187 -1.1718,-4.0234 -0.9453,-1.8047 -2.9141,-1.8047 -1.9844,0 -2.9375,1.8125 -0.9531,1.8125 -1.1797,4.0235 -0.2265,2.2109 -0.2265,4.8515 0,1.9375 0.0937,3.6641 0.0938,1.7265 0.5078,3.5625 0.4141,1.8359 1.3281,3.0937 0.9141,1.2578 2.4141,1.2578 z"
         id="path99" />
      <path
         style="stroke:none"
         d="m -171.7688,-12.4801 v -1.2344 q 4.375,0 4.375,-1.1094 v -18.375 q -1.8125,0.875 -4.5781,0.875 v -1.2344 q 4.2812,0 6.4687,-2.2343 h 0.5 q 0.125,0 0.2344,0.0937 0.1094,0.0938 0.1094,0.2188 v 20.6562 q 0,1.1094 4.375,1.1094 v 1.2344 z"
         id="path101" />
      <path
         style="stroke:none"
         d="m -148.9354,-11.7145 q -4.2969,0 -5.8359,-3.5313 -1.5391,-3.5312 -1.5391,-8.3906 0,-3.0469 0.5547,-5.7265 0.5547,-2.6797 2.2031,-4.5547 1.6484,-1.875 4.6172,-1.875 2.3125,0 3.7812,1.125 1.4688,1.125 2.2344,2.914 0.7656,1.7891 1.0469,3.8282 0.2812,2.039 0.2812,4.289 0,3 -0.5546,5.625 -0.5547,2.625 -2.1797,4.461 -1.625,1.8359 -4.6094,1.8359 z m 0,-0.9063 q 1.9531,0 2.9062,-2 0.9532,-2 1.1797,-4.4218 0.2266,-2.4219 0.2266,-5.1563 0,-2.6406 -0.2266,-4.8594 -0.2265,-2.2187 -1.1718,-4.0234 -0.9454,-1.8047 -2.9141,-1.8047 -1.9844,0 -2.9375,1.8125 -0.9531,1.8125 -1.1797,4.0235 -0.2266,2.2109 -0.2266,4.8515 0,1.9375 0.0938,3.6641 0.0937,1.7265 0.5078,3.5625 0.4141,1.8359 1.3281,3.0937 0.9141,1.2578 2.4141,1.2578 z"
         id="path103" />
      <path
         style="stroke:none"
         d="m -131.602,-11.7145 q -4.2969,0 -5.836,-3.5313 -1.539,-3.5312 -1.539,-8.3906 0,-3.0469 0.5547,-5.7265 0.5547,-2.6797 2.2031,-4.5547 1.6484,-1.875 4.6172,-1.875 2.3125,0 3.7812,1.125 1.4688,1.125 2.2344,2.914 0.7656,1.7891 1.0469,3.8282 0.2812,2.039 0.2812,4.289 0,3 -0.5547,5.625 -0.5546,2.625 -2.1796,4.461 -1.625,1.8359 -4.6094,1.8359 z m 0,-0.9063 q 1.9531,0 2.9062,-2 0.9532,-2 1.1797,-4.4218 0.2266,-2.4219 0.2266,-5.1563 0,-2.6406 -0.2266,-4.8594 -0.2265,-2.2187 -1.1719,-4.0234 -0.9453,-1.8047 -2.914,-1.8047 -1.9844,0 -2.9375,1.8125 -0.9531,1.8125 -1.1797,4.0235 -0.2266,2.2109 -0.2266,4.8515 0,1.9375 0.0938,3.6641 0.0937,1.7265 0.5078,3.5625 0.4141,1.8359 1.3281,3.0937 0.9141,1.2578 2.4141,1.2578 z"
         id="path105" />
      <path
         style="stroke:none"
         d="m -102.7443,-12.0895 q -2.125,0 -3.8516,-1.1016 -1.7266,-1.1015 -2.7188,-2.9375 -0.9921,-1.8359 -0.9921,-3.8984 0,-2.0781 0.9843,-3.9766 0.9844,-1.8984 2.7188,-3.0312 1.7344,-1.1328 3.8594,-1.1328 2.0468,0 3.7343,0.8047 1.6875,0.8046 1.6875,2.6328 0,0.6875 -0.4922,1.1875 -0.4921,0.5 -1.1953,0.5 -0.6875,0 -1.1797,-0.5 -0.4921,-0.5 -0.4921,-1.1875 0,-0.625 0.3906,-1.0782 0.3906,-0.4531 0.9844,-0.5625 -1.2188,-0.7656 -3.4063,-0.7656 -1.6719,0 -2.6953,1.1094 -1.0234,1.1094 -1.4375,2.75 -0.4141,1.6406 -0.4141,3.25 0,1.6875 0.5078,3.2656 0.5079,1.5781 1.625,2.6172 1.1172,1.0391 2.8047,1.0391 1.6563,0 2.8203,-1.0235 1.1641,-1.0234 1.586,-2.664 0,-0.2032 0.2812,-0.2032 h 0.4219 q 0.1094,0 0.1953,0.0938 0.086,0.0937 0.086,0.2187 v 0.0938 q -0.5313,2.0781 -2.1016,3.2891 -1.5703,1.2109 -3.7109,1.2109 z"
         id="path107" />
      <path
         style="stroke:none"
         d="m -87.3057,-12.0895 q -2.1094,0 -3.8984,-1.0703 -1.7891,-1.0703 -2.836,-2.8594 -1.0468,-1.7891 -1.0468,-3.9141 0,-1.6093 0.5781,-3.0937 0.5781,-1.4844 1.6406,-2.6563 1.0625,-1.1718 2.4844,-1.8281 1.4219,-0.6562 3.0781,-0.6562 2.1563,0 3.9219,1.1328 1.7656,1.1328 2.789,3.039 1.0235,1.9063 1.0235,4.0625 0,2.1094 -1.0391,3.9063 -1.039,1.7969 -2.8281,2.8672 -1.7891,1.0703 -3.8672,1.0703 z m 0,-1.0156 q 2.7969,0 3.7422,-2.0391 0.9453,-2.0391 0.9453,-5.1797 0,-1.7656 -0.1875,-2.914 -0.1875,-1.1485 -0.8281,-2.1016 -0.3906,-0.5781 -1,-1.0078 -0.6094,-0.4297 -1.2813,-0.6641 -0.6718,-0.2344 -1.3906,-0.2344 -1.0937,0 -2.0781,0.4922 -0.9844,0.4922 -1.625,1.4141 -0.6563,1 -0.836,2.1875 -0.1796,1.1875 -0.1796,2.8281 0,1.9688 0.3437,3.5313 0.3438,1.5625 1.375,2.625 1.0313,1.0625 3,1.0625 z"
         id="path109" />
      <path
         style="stroke:none"
         d="m -77.6754,-12.4801 v -1.2344 q 1.1875,0 1.9609,-0.1875 0.7734,-0.1875 0.7734,-0.9219 v -9.5469 q 0,-0.9375 -0.2812,-1.3593 -0.2813,-0.4219 -0.8125,-0.5157 -0.5313,-0.0937 -1.6406,-0.0937 v -1.2344 l 5.0781,-0.375 v 3.4219 q 0.6875,-1.5 2.0703,-2.4609 1.3828,-0.961 2.9922,-0.961 4.0469,0 4.7344,3.2813 0.7031,-1.4688 2.0546,-2.375 1.3516,-0.9063 2.961,-0.9063 1.5937,0 2.6719,0.5156 1.0781,0.5157 1.625,1.5625 0.5468,1.0469 0.5468,2.6407 v 8.4062 q 0,0.7344 0.7813,0.9219 0.7812,0.1875 1.9531,0.1875 v 1.2344 h -8 v -1.2344 q 1.1875,0 1.9609,-0.1875 0.7735,-0.1875 0.7735,-0.9219 v -8.2969 q 0,-1.7656 -0.5,-2.8437 -0.5,-1.0781 -2.0313,-1.0781 -2.0156,0 -3.3359,1.625 -1.3203,1.625 -1.3203,3.6875 v 6.9062 q 0,0.7344 0.7734,0.9219 0.7735,0.1875 1.961,0.1875 v 1.2344 h -8.0157 v -1.2344 q 1.2032,0 1.9688,-0.1875 0.7656,-0.1875 0.7656,-0.9219 v -8.2969 q 0,-1.7187 -0.4922,-2.8203 -0.4922,-1.1015 -2.039,-1.1015 -2.0313,0 -3.336,1.625 -1.3047,1.625 -1.3047,3.6875 v 6.9062 q 0,0.7344 0.7657,0.9219 0.7656,0.1875 1.9531,0.1875 v 1.2344 z"
         id="path111" />
      <path
         style="stroke:none"
         d="M -48.9271,-5.6989 V -6.902 q 1.2031,0 1.9688,-0.2109 0.7656,-0.211 0.7656,-0.9297 V -24.902 q 0,-0.9531 -0.6875,-1.1953 -0.6875,-0.2422 -2.0469,-0.2422 v -1.2344 l 5.1719,-0.375 v 2.1719 q 0.9687,-1.0625 2.2422,-1.6172 1.2734,-0.5547 2.6953,-0.5547 2.0781,0 3.7344,1.1172 1.6562,1.1172 2.5859,2.9375 0.9297,1.8203 0.9297,3.8672 0,2.1094 -1.0313,3.9375 -1.0312,1.8281 -2.8203,2.9141 -1.789,1.0859 -3.914,1.0859 -2.5469,0 -4.3125,-2.0625 v 6.1094 q 0,0.7187 0.7734,0.9297 0.7734,0.2109 1.9609,0.2109 v 1.2031 z m 5.2813,-10.1875 q 0.6093,1.25 1.7031,2.0625 1.0937,0.8125 2.3906,0.8125 1.2188,0 2.1485,-0.6484 0.9296,-0.6485 1.5625,-1.7422 0.6328,-1.0938 0.9375,-2.2969 0.3046,-1.2031 0.3046,-2.3281 0,-1.4063 -0.5078,-3.0391 -0.5078,-1.6328 -1.539,-2.75 -1.0313,-1.1172 -2.5,-1.1172 -1.4219,0 -2.6094,0.7266 -1.1875,0.7266 -1.8906,1.9609 z"
         id="path113" />
      <path
         style="stroke:none"
         d="m -26.7928,-16.652 v -7.7188 q 0,-0.9375 -0.2812,-1.3593 -0.2813,-0.4219 -0.8125,-0.5157 -0.5313,-0.0937 -1.6406,-0.0937 v -1.2344 l 5.2968,-0.375 v 11.2969 q 0,1.375 0.1953,2.1328 0.1954,0.7578 0.836,1.1328 0.6406,0.375 2.0469,0.375 1.875,0 2.9843,-1.5703 1.1094,-1.5703 1.1094,-3.5703 v -6.2188 q 0,-0.9375 -0.2891,-1.3593 -0.289,-0.4219 -0.8125,-0.5157 -0.5234,-0.0937 -1.6328,-0.0937 v -1.2344 l 5.2813,-0.375 v 12.2969 q 0,0.9219 0.2812,1.3359 0.2813,0.4141 0.8125,0.5078 0.5313,0.0938 1.6407,0.0938 v 1.2344 l -5.1719,0.3906 v -2.9531 q -0.6563,1.3125 -1.8203,2.1328 -1.1641,0.8203 -2.5547,0.8203 -2.5156,0 -3.9922,-1.0703 -1.4766,-1.0703 -1.4766,-3.4922 z"
         id="path115" />
      <path
         style="stroke:none"
         d="m -7.7366,-16.6833 v -9.6562 h -2.9062 v -0.9063 q 2.2812,0 3.3594,-2.1328 1.0781,-2.1328 1.0781,-4.6328 h 1.0156 v 6.4375 h 4.9375 v 1.2344 h -4.9375 v 9.5937 q 0,1.4532 0.4844,2.5469 0.4844,1.0938 1.75,1.0938 1.1875,0 1.7187,-1.1563 0.5313,-1.1562 0.5313,-2.4844 v -2.0781 h 1.0156 v 2.1406 q 0,1.0938 -0.4062,2.1641 -0.4063,1.0703 -1.1875,1.75 -0.7813,0.6797 -1.9063,0.6797 -2.1094,0 -3.3281,-1.2578 -1.2188,-1.2578 -1.2188,-3.336 z"
         id="path117" />
      <path
         style="stroke:none"
         d="m 3.5731,-15.9176 q 0,-2.0782 1.6406,-3.3907 1.6406,-1.3125 3.9375,-1.8515 2.2969,-0.5391 4.3594,-0.5391 v -1.4219 q 0,-1.0156 -0.4453,-1.9609 -0.4453,-0.9453 -1.2813,-1.5547 -0.8359,-0.6094 -1.8359,-0.6094 -2.3281,0 -3.5469,1.0469 0.6719,0 1.1094,0.5 0.4375,0.5 0.4375,1.1719 0,0.7031 -0.5,1.1953 -0.5,0.4922 -1.1719,0.4922 -0.7031,0 -1.2031,-0.4922 -0.5,-0.4922 -0.5,-1.1953 0,-1.8438 1.6797,-2.7422 1.6797,-0.8984 3.6953,-0.8984 1.4062,0 2.8437,0.6093 1.4375,0.6094 2.3516,1.7344 0.914,1.125 0.914,2.625 v 7.875 q 0,0.6875 0.2891,1.2578 0.2891,0.5703 0.9141,0.5703 0.5781,0 0.8593,-0.5781 0.2813,-0.5781 0.2813,-1.25 v -2.2344 h 1.0312 v 2.2344 q 0,0.7969 -0.414,1.5078 -0.4141,0.711 -1.1016,1.125 -0.6875,0.4141 -1.5,0.4141 -1.0156,0 -1.7656,-0.7969 -0.75,-0.7969 -0.8281,-1.8906 -0.6563,1.3281 -1.9141,2.1016 -1.2578,0.7734 -2.6953,0.7734 -1.3437,0 -2.6328,-0.3906 -1.2891,-0.3907 -2.1484,-1.2344 -0.8594,-0.8438 -0.8594,-2.2031 z m 2.8281,0 q 0,1.2343 0.9063,2.0703 0.9062,0.8359 2.1406,0.8359 1.125,0 2.0469,-0.5625 0.9218,-0.5625 1.4687,-1.539 0.5469,-0.9766 0.5469,-2.0547 v -3.6407 q -1.5781,0 -3.25,0.5235 -1.6719,0.5234 -2.7656,1.6328 -1.0938,1.1094 -1.0938,2.7344 z"
         id="path119" />
      <path
         style="stroke:none"
         d="m 23.0783,-16.6833 v -9.6562 h -2.9062 v -0.9063 q 2.2812,0 3.3594,-2.1328 1.0781,-2.1328 1.0781,-4.6328 h 1.0156 v 6.4375 h 4.9375 v 1.2344 h -4.9375 v 9.5937 q 0,1.4532 0.4844,2.5469 0.4844,1.0938 1.75,1.0938 1.1875,0 1.7187,-1.1563 0.5313,-1.1562 0.5313,-2.4844 v -2.0781 h 1.0156 v 2.1406 q 0,1.0938 -0.4062,2.1641 -0.4063,1.0703 -1.1875,1.75 -0.7813,0.6797 -1.9063,0.6797 -2.1094,0 -3.3281,-1.2578 -1.2188,-1.2578 -1.2188,-3.336 z"
         id="path121" />
      <path
         style="stroke:none"
         d="m 34.0599,-12.4801 v -1.2344 q 1.1875,0 1.9609,-0.1875 0.7734,-0.1875 0.7734,-0.9219 v -9.5469 q 0,-1.3593 -0.5234,-1.664 -0.5234,-0.3047 -2.0547,-0.3047 v -1.2344 l 5.0313,-0.375 v 13.125 q 0,0.7344 0.6718,0.9219 0.6719,0.1875 1.7813,0.1875 v 1.2344 z m 1.4843,-21.4844 q 0,-0.7656 0.5782,-1.3438 0.5781,-0.5781 1.3437,-0.5781 0.4844,0 0.9453,0.25 0.461,0.25 0.7188,0.711 0.2578,0.4609 0.2578,0.9609 0,0.75 -0.5781,1.3359 -0.5782,0.586 -1.3438,0.586 -0.7656,0 -1.3437,-0.586 -0.5782,-0.5859 -0.5782,-1.3359 z"
         id="path123" />
      <path
         style="stroke:none"
         d="m 51.3614,-12.0895 q -2.1094,0 -3.8984,-1.0703 -1.7891,-1.0703 -2.836,-2.8594 -1.0469,-1.7891 -1.0469,-3.9141 0,-1.6093 0.5782,-3.0937 0.5781,-1.4844 1.6406,-2.6563 1.0625,-1.1718 2.4844,-1.8281 1.4218,-0.6562 3.0781,-0.6562 2.1562,0 3.9219,1.1328 1.7656,1.1328 2.789,3.039 1.0235,1.9063 1.0235,4.0625 0,2.1094 -1.0391,3.9063 -1.0391,1.7969 -2.8281,2.8672 -1.7891,1.0703 -3.8672,1.0703 z m 0,-1.0156 q 2.7969,0 3.7422,-2.0391 0.9453,-2.0391 0.9453,-5.1797 0,-1.7656 -0.1875,-2.914 -0.1875,-1.1485 -0.8281,-2.1016 -0.3907,-0.5781 -1,-1.0078 -0.6094,-0.4297 -1.2813,-0.6641 -0.6719,-0.2344 -1.3906,-0.2344 -1.0938,0 -2.0781,0.4922 -0.9844,0.4922 -1.625,1.4141 -0.6563,1 -0.836,2.1875 -0.1797,1.1875 -0.1797,2.8281 0,1.9688 0.3438,3.5313 0.3437,1.5625 1.375,2.625 1.0312,1.0625 3,1.0625 z"
         id="path125" />
      <path
         style="stroke:none"
         d="m 60.9917,-12.4801 v -1.2344 q 1.1875,0 1.9609,-0.1875 0.7734,-0.1875 0.7734,-0.9219 v -9.5469 q 0,-0.9375 -0.2812,-1.3593 -0.2813,-0.4219 -0.8125,-0.5157 -0.5313,-0.0937 -1.6406,-0.0937 v -1.2344 l 5.0781,-0.375 v 3.4219 q 0.6875,-1.5 2.0703,-2.4609 1.3828,-0.961 2.9922,-0.961 2.4375,0 3.6562,1.1641 1.2188,1.164 1.2188,3.5547 v 8.4062 q 0,0.7344 0.7734,0.9219 0.7735,0.1875 1.961,0.1875 v 1.2344 H 70.726 v -1.2344 q 1.2032,0 1.9688,-0.1875 0.7656,-0.1875 0.7656,-0.9219 v -8.2969 q 0,-1.7187 -0.4922,-2.8203 -0.4922,-1.1015 -2.039,-1.1015 -2.0313,0 -3.336,1.625 -1.3047,1.625 -1.3047,3.6875 v 6.9062 q 0,0.7344 0.7657,0.9219 0.7656,0.1875 1.9531,0.1875 v 1.2344 z"
         id="path127" />
      <path
         style="stroke:none"
         d="m 80.3604,-12.3708 v -5.7187 q 0,-0.2656 0.3125,-0.2656 h 0.4218 q 0.2188,0 0.2813,0.2656 0.9687,5.0781 4.7187,5.0781 1.6563,0 2.7735,-0.75 1.1172,-0.75 1.1172,-2.3281 0,-1.125 -0.8672,-1.9219 -0.8672,-0.7969 -2.0703,-1.0781 l -2.3438,-0.4688 q -1.1719,-0.25 -2.1406,-0.7812 -0.9688,-0.5313 -1.586,-1.4141 -0.6171,-0.8828 -0.6171,-2.039 0,-1.5469 0.8125,-2.5235 0.8125,-0.9765 2.1171,-1.414 1.3047,-0.4375 2.8047,-0.4375 1.7969,0 3.125,0.9531 l 1,-0.875 q 0,-0.0781 0.1719,-0.0781 h 0.2656 q 0.0938,0 0.1797,0.0937 0.086,0.0938 0.086,0.2031 v 4.5782 q 0,0.3125 -0.2657,0.3125 h -0.4375 q -0.2968,0 -0.2968,-0.3125 0,-1.8282 -1.0157,-2.9453 -1.0156,-1.1172 -2.8437,-1.1172 -1.5781,0 -2.7344,0.5859 -1.1562,0.5859 -1.1562,2.0078 0,0.9688 0.8281,1.5938 0.8281,0.625 1.9531,0.8906 l 2.375,0.4531 q 1.1875,0.2656 2.2188,0.9141 1.0312,0.6484 1.6406,1.6406 0.6094,0.9922 0.6094,2.2422 0,1.2656 -0.4375,2.1953 -0.4375,0.9297 -1.211,1.5469 -0.7734,0.6172 -1.8359,0.9062 -1.0625,0.2891 -2.2188,0.2891 -2.1875,0 -3.75,-1.4688 l -1.2812,1.3907 q 0,0.0781 -0.1875,0.0781 h -0.2031 q -0.3125,0 -0.3125,-0.2813 z"
         id="path129" />
      <path
         style="stroke:none"
         d="M 105.34,-5.6989 V -6.902 q 1.2031,0 1.9687,-0.2109 0.7656,-0.211 0.7656,-0.9297 V -24.902 q 0,-0.9531 -0.6875,-1.1953 -0.6875,-0.2422 -2.0468,-0.2422 v -1.2344 l 5.1718,-0.375 v 2.1719 q 0.9688,-1.0625 2.2422,-1.6172 1.2735,-0.5547 2.6953,-0.5547 2.0782,0 3.7344,1.1172 1.6563,1.1172 2.5859,2.9375 0.9297,1.8203 0.9297,3.8672 0,2.1094 -1.0312,3.9375 -1.0313,1.8281 -2.8203,2.9141 -1.7891,1.0859 -3.9141,1.0859 -2.5469,0 -4.3125,-2.0625 v 6.1094 q 0,0.7187 0.7734,0.9297 0.7735,0.2109 1.961,0.2109 v 1.2031 z m 5.2812,-10.1875 q 0.6094,1.25 1.7031,2.0625 1.0938,0.8125 2.3907,0.8125 1.2187,0 2.1484,-0.6484 0.9297,-0.6485 1.5625,-1.7422 0.6328,-1.0938 0.9375,-2.2969 0.3047,-1.2031 0.3047,-2.3281 0,-1.4063 -0.5078,-3.0391 -0.5078,-1.6328 -1.5391,-2.75 -1.0312,-1.1172 -2.5,-1.1172 -1.4219,0 -2.6094,0.7266 -1.1875,0.7266 -1.8906,1.9609 z"
         id="path131" />
      <path
         style="stroke:none"
         d="m 133.3748,-12.0895 q -2.1407,0 -3.9219,-1.1172 -1.7813,-1.1172 -2.8047,-2.9922 -1.0234,-1.875 -1.0234,-3.9531 0,-2.0469 0.9375,-3.8984 0.9375,-1.8516 2.6015,-2.9844 1.6641,-1.1328 3.711,-1.1328 1.6093,0 2.7968,0.539 1.1875,0.5391 1.9532,1.4922 0.7656,0.9531 1.164,2.2578 0.3985,1.3047 0.3985,2.8516 0,0.4687 -0.3594,0.4687 h -10.1406 v 0.375 q 0,2.9063 1.1718,4.9922 1.1719,2.086 3.8282,2.086 1.0625,0 1.9765,-0.4844 0.9141,-0.4844 1.5938,-1.3359 0.6797,-0.8516 0.914,-1.8204 0.0313,-0.125 0.125,-0.2187 0.0938,-0.0938 0.2188,-0.0938 h 0.3125 q 0.3594,0 0.3594,0.4375 -0.5,1.9844 -2.1407,3.2579 -1.6406,1.2734 -3.6718,1.2734 z m -4.6563,-9.3438 h 7.9844 q 0,-1.3125 -0.3672,-2.664 -0.3672,-1.3516 -1.2188,-2.25 -0.8515,-0.8985 -2.2421,-0.8985 -1.9844,0 -3.0704,1.8516 -1.0859,1.8516 -1.0859,3.9609 z"
         id="path133" />
      <path
         style="stroke:none"
         d="m 140.9697,-12.4801 v -1.2344 q 1.2031,0 1.9687,-0.1875 0.7656,-0.1875 0.7656,-0.9219 v -9.5469 q 0,-0.9375 -0.2812,-1.3593 -0.2813,-0.4219 -0.8125,-0.5157 -0.5313,-0.0937 -1.6406,-0.0937 v -1.2344 l 5,-0.375 v 3.4219 q 0.5781,-1.5156 1.6172,-2.4688 1.039,-0.9531 2.5234,-0.9531 1.0469,0 1.8672,0.6172 0.8203,0.6172 0.8203,1.6172 0,0.6406 -0.4531,1.1094 -0.4532,0.4687 -1.125,0.4687 -0.6407,0 -1.1016,-0.4609 -0.4609,-0.461 -0.4609,-1.1172 0,-0.9375 0.6562,-1.3281 h -0.2031 q -1.4219,0 -2.3125,1.0234 -0.8906,1.0234 -1.2734,2.5469 -0.3829,1.5234 -0.3829,2.914 v 5.7344 q 0,1.1094 3.4063,1.1094 v 1.2344 z"
         id="path135" />
      <path
         style="stroke:none"
         d="m 173.9155,-12.0895 q -2.125,0 -3.8516,-1.1016 -1.7265,-1.1015 -2.7187,-2.9375 -0.9922,-1.8359 -0.9922,-3.8984 0,-2.0781 0.9844,-3.9766 0.9843,-1.8984 2.7187,-3.0312 1.7344,-1.1328 3.8594,-1.1328 2.0469,0 3.7344,0.8047 1.6875,0.8046 1.6875,2.6328 0,0.6875 -0.4922,1.1875 -0.4922,0.5 -1.1953,0.5 -0.6875,0 -1.1797,-0.5 -0.4922,-0.5 -0.4922,-1.1875 0,-0.625 0.3906,-1.0782 0.3906,-0.4531 0.9844,-0.5625 -1.2188,-0.7656 -3.4063,-0.7656 -1.6718,0 -2.6953,1.1094 -1.0234,1.1094 -1.4375,2.75 -0.414,1.6406 -0.414,3.25 0,1.6875 0.5078,3.2656 0.5078,1.5781 1.625,2.6172 1.1172,1.0391 2.8047,1.0391 1.6562,0 2.8203,-1.0235 1.164,-1.0234 1.5859,-2.664 0,-0.2032 0.2813,-0.2032 h 0.4218 q 0.1094,0 0.1954,0.0938 0.0859,0.0937 0.0859,0.2187 v 0.0938 q -0.5313,2.0781 -2.1016,3.2891 -1.5703,1.2109 -3.7109,1.2109 z"
         id="path137" />
      <path
         style="stroke:none"
         d="m 182.0104,-15.9176 q 0,-2.0782 1.6406,-3.3907 1.6407,-1.3125 3.9375,-1.8515 2.2969,-0.5391 4.3594,-0.5391 v -1.4219 q 0,-1.0156 -0.4453,-1.9609 -0.4453,-0.9453 -1.2813,-1.5547 -0.8359,-0.6094 -1.8359,-0.6094 -2.3281,0 -3.5469,1.0469 0.6719,0 1.1094,0.5 0.4375,0.5 0.4375,1.1719 0,0.7031 -0.5,1.1953 -0.5,0.4922 -1.1719,0.4922 -0.7031,0 -1.2031,-0.4922 -0.5,-0.4922 -0.5,-1.1953 0,-1.8438 1.6797,-2.7422 1.6797,-0.8984 3.6953,-0.8984 1.4063,0 2.8438,0.6093 1.4375,0.6094 2.3515,1.7344 0.9141,1.125 0.9141,2.625 v 7.875 q 0,0.6875 0.289,1.2578 0.2891,0.5703 0.9141,0.5703 0.5781,0 0.8594,-0.5781 0.2812,-0.5781 0.2812,-1.25 v -2.2344 h 1.0313 v 2.2344 q 0,0.7969 -0.4141,1.5078 -0.414,0.711 -1.1015,1.125 -0.6875,0.4141 -1.5,0.4141 -1.0157,0 -1.7657,-0.7969 -0.75,-0.7969 -0.8281,-1.8906 -0.6562,1.3281 -1.9141,2.1016 -1.2578,0.7734 -2.6953,0.7734 -1.3437,0 -2.6328,-0.3906 -1.289,-0.3907 -2.1484,-1.2344 -0.8594,-0.8438 -0.8594,-2.2031 z m 2.8281,0 q 0,1.2343 0.9063,2.0703 0.9062,0.8359 2.1406,0.8359 1.125,0 2.0469,-0.5625 0.9219,-0.5625 1.4687,-1.539 0.5469,-0.9766 0.5469,-2.0547 v -3.6407 q -1.5781,0 -3.25,0.5235 -1.6719,0.5234 -2.7656,1.6328 -1.0938,1.1094 -1.0938,2.7344 z"
         id="path139" />
      <path
         style="stroke:none"
         d="m 199.0938,-12.3708 v -5.7187 q 0,-0.2656 0.3125,-0.2656 h 0.4219 q 0.2187,0 0.2812,0.2656 0.9688,5.0781 4.7188,5.0781 1.6562,0 2.7734,-0.75 1.1172,-0.75 1.1172,-2.3281 0,-1.125 -0.8672,-1.9219 -0.8672,-0.7969 -2.0703,-1.0781 l -2.3438,-0.4688 q -1.1718,-0.25 -2.1406,-0.7812 -0.9687,-0.5313 -1.5859,-1.4141 -0.6172,-0.8828 -0.6172,-2.039 0,-1.5469 0.8125,-2.5235 0.8125,-0.9765 2.1172,-1.414 1.3047,-0.4375 2.8047,-0.4375 1.7968,0 3.125,0.9531 l 1,-0.875 q 0,-0.0781 0.1718,-0.0781 h 0.2657 q 0.0937,0 0.1797,0.0937 0.0859,0.0938 0.0859,0.2031 v 4.5782 q 0,0.3125 -0.2656,0.3125 h -0.4375 q -0.2969,0 -0.2969,-0.3125 0,-1.8282 -1.0156,-2.9453 -1.0157,-1.1172 -2.8438,-1.1172 -1.5781,0 -2.7344,0.5859 -1.1562,0.5859 -1.1562,2.0078 0,0.9688 0.8281,1.5938 0.8281,0.625 1.9531,0.8906 l 2.375,0.4531 q 1.1875,0.2656 2.2188,0.9141 1.0312,0.6484 1.6406,1.6406 0.6094,0.9922 0.6094,2.2422 0,1.2656 -0.4375,2.1953 -0.4375,0.9297 -1.2109,1.5469 -0.7735,0.6172 -1.836,0.9062 -1.0625,0.2891 -2.2187,0.2891 -2.1875,0 -3.75,-1.4688 l -1.2813,1.3907 q 0,0.0781 -0.1875,0.0781 h -0.2031 q -0.3125,0 -0.3125,-0.2813 z"
         id="path141" />
      <path
         style="stroke:none"
         d="m 220.3304,-12.0895 q -2.1407,0 -3.9219,-1.1172 -1.7813,-1.1172 -2.8047,-2.9922 -1.0234,-1.875 -1.0234,-3.9531 0,-2.0469 0.9375,-3.8984 0.9375,-1.8516 2.6015,-2.9844 1.6641,-1.1328 3.711,-1.1328 1.6093,0 2.7968,0.539 1.1875,0.5391 1.9532,1.4922 0.7656,0.9531 1.164,2.2578 0.3985,1.3047 0.3985,2.8516 0,0.4687 -0.3594,0.4687 h -10.1406 v 0.375 q 0,2.9063 1.1718,4.9922 1.1719,2.086 3.8282,2.086 1.0625,0 1.9765,-0.4844 0.9141,-0.4844 1.5938,-1.3359 0.6797,-0.8516 0.914,-1.8204 0.0313,-0.125 0.125,-0.2187 0.0938,-0.0938 0.2188,-0.0938 h 0.3125 q 0.3594,0 0.3594,0.4375 -0.5,1.9844 -2.1407,3.2579 -1.6406,1.2734 -3.6718,1.2734 z m -4.6563,-9.3438 h 7.9844 q 0,-1.3125 -0.3672,-2.664 -0.3672,-1.3516 -1.2188,-2.25 -0.8515,-0.8985 -2.2421,-0.8985 -1.9844,0 -3.0704,1.8516 -1.0859,1.8516 -1.0859,3.9609 z"
         id="path143" />
    </g>
    <g
       style="stroke-linecap:butt; fill:rgb(38,38,38); text-rendering:geometricPrecision; image-rendering:optimizeQuality; color-rendering:optimizeQuality; stroke-linejoin:round; stroke:rgb(38,38,38); color-interpolation:linearRGB; stroke-width:0.6667;"
       id="g149">
      <line
         y2="686"
         style="fill:none;"
         x1="223"
         x2="1548.9999"
         y1="686"
         id="line147" />
    </g>
    <g
       style="fill:rgb(51,51,128); text-rendering:optimizeSpeed; color-rendering:optimizeSpeed; image-rendering:optimizeSpeed; shape-rendering:crispEdges; stroke:rgb(51,51,128); color-interpolation:sRGB;"
       id="g153">
      <path
         style="stroke:none;"
         d="M379 686 L379 114.1329 L223 114.1329 L223 686 ZM769 686 L769 58 L613 58 L613 686 ZM1159 686 L1159 71.7943 L1003 71.7943 L1003 686 ZM1548.9999 686 L1548.9999 125.9381 L1393 125.9381 L1393 686 Z"
         id="path151" />
    </g>
    <g
       style="text-rendering:geometricPrecision; stroke-width:0.6667; color-interpolation:linearRGB; color-rendering:optimizeQuality; stroke-linecap:butt; image-rendering:optimizeQuality;"
       id="g163">
      <path
         d="M223 686 L223 114.1329 L379 114.1329 L379 686 Z"
         style="fill:none; fill-rule:evenodd;"
         id="path155" />
      <path
         d="M613 686 L613 58 L769 58 L769 686 Z"
         style="fill:none; fill-rule:evenodd;"
         id="path157" />
      <path
         d="M1003 686 L1003 71.7943 L1159 71.7943 L1159 686 Z"
         style="fill:none; fill-rule:evenodd;"
         id="path159" />
      <path
         d="M1393 686 L1393 125.9381 L1548.9999 125.9381 L1548.9999 686 Z"
         style="fill:none; fill-rule:evenodd;"
         id="path161" />
    </g>
    <g
       style="fill:rgb(0,179,179); text-rendering:optimizeSpeed; color-rendering:optimizeSpeed; image-rendering:optimizeSpeed; shape-rendering:crispEdges; stroke:rgb(0,179,179); color-interpolation:sRGB;"
       id="g167">
      <path
         style="stroke:none;"
         d="M379 686 L379 495.7746 L223 495.7746 L223 686 ZM769 686 L769 493.0946 L613 493.0946 L613 686 ZM1159 686 L1159 492.5416 L1003 492.5416 L1003 686 ZM1548.9999 686 L1548.9999 494.7893 L1393 494.7893 L1393 686 Z"
         id="path165" />
    </g>
    <g
       style="text-rendering:geometricPrecision; stroke-width:0.6667; color-interpolation:linearRGB; color-rendering:optimizeQuality; stroke-linecap:butt; image-rendering:optimizeQuality;"
       id="g177">
      <path
         d="M223 686 L223 495.7746 L379 495.7746 L379 686 Z"
         style="fill:none; fill-rule:evenodd;"
         id="path169" />
      <path
         d="M613 686 L613 493.0946 L769 493.0946 L769 686 Z"
         style="fill:none; fill-rule:evenodd;"
         id="path171" />
      <path
         d="M1003 686 L1003 492.5416 L1159 492.5416 L1159 686 Z"
         style="fill:none; fill-rule:evenodd;"
         id="path173" />
      <path
         d="M1393 686 L1393 494.7893 L1548.9999 494.7893 L1548.9999 686 Z"
         style="fill:none; fill-rule:evenodd;"
         id="path175" />
    </g>
    <g
       transform="translate(1471,125.9381)"
       style="font-size:21.3333px; fill:white; text-rendering:geometricPrecision; image-rendering:optimizeQuality; color-rendering:optimizeQuality; font-family:'Symbola'; stroke:white; color-interpolation:linearRGB;"
       id="g181">
      <path
         style="stroke:none;"
         d="M-10.2188 17 Q-10.9531 16.9375 -11.6094 16.9375 L-15.7656 16.9375 Q-16.4219 16.9375 -17.1406 17 L-17.1406 16.3438 Q-17.0156 16.3438 -16.7578 16.3516 Q-16.5 16.3594 -16.3594 16.3594 Q-14.7969 16.3594 -14.5625 15.9219 Q-14.4844 15.7344 -14.4844 15.375 L-14.4844 4.2344 Q-15.5938 4.7812 -17.2656 4.7812 L-17.2656 4.125 Q-14.7031 4.125 -13.375 2.7656 L-13.2812 2.7656 Q-12.9844 2.7656 -12.9219 2.9062 Q-12.8906 2.9688 -12.8906 3.3125 L-12.8906 15.4219 Q-12.8906 15.7656 -12.8125 15.9375 Q-12.6562 16.2656 -11.6094 16.3438 Q-11.4688 16.3594 -10.2188 16.3438 L-10.2188 17 ZM-4.5938 15.875 Q-4.5938 16.3438 -4.9219 16.6719 Q-5.25 17 -5.7188 17 Q-6.1875 17 -6.5156 16.6719 Q-6.8438 16.3438 -6.8438 15.875 Q-6.8438 15.4375 -6.5156 15.1094 Q-6.1875 14.7812 -5.7188 14.7812 Q-5.25 14.7812 -4.9219 15.1094 Q-4.5938 15.4375 -4.5938 15.875 ZM6.6719 9.9531 Q6.6719 11.7344 6.2031 13.1719 Q5.625 14.9375 4.4062 16.125 Q3.0312 17.4688 1.2969 17.4688 Q0.0781 17.4688 -0.7344 16.9375 Q-1.6719 16.3281 -1.6719 15.1719 Q-1.6719 14.1406 -0.7031 14.1406 Q-0.2812 14.1406 0.0078 14.4219 Q0.2969 14.7031 0.2969 15.125 Q0.2969 15.5781 -0.0391 15.8672 Q-0.375 16.1562 -0.8281 16.0938 Q-0.1719 16.875 1.2812 16.875 Q2.0781 16.875 2.7969 16.3906 Q4.0312 15.5781 4.4688 13.5781 Q4.75 12.3594 4.75 10.2031 Q3.9062 12.3438 2.0781 12.3438 Q0.1875 12.3438 -1.0312 10.875 Q-2.2031 9.4844 -2.2031 7.5781 Q-2.2031 5.5 -0.8438 4.0938 Q0.4531 2.7656 2.3125 2.7656 Q3.3594 2.7656 4.2188 3.3125 Q6.6719 4.8281 6.6719 9.9531 ZM4.7031 8 Q4.7031 5.9219 4.3594 5 Q3.7188 3.2812 2.3125 3.2812 Q0.8906 3.2812 0.1562 4.6406 Q-0.2812 5.4531 -0.2812 7.1719 L-0.2812 8.0469 Q-0.2812 9.7031 0.1094 10.4844 Q0.7656 11.8438 2.0938 11.8438 Q3.4375 11.8438 4.1406 10.5156 Q4.7031 9.4688 4.7031 8 ZM17.3281 9.9531 Q17.3281 11.7344 16.8594 13.1719 Q16.2812 14.9375 15.0625 16.125 Q13.6875 17.4688 11.9531 17.4688 Q10.7344 17.4688 9.9219 16.9375 Q8.9844 16.3281 8.9844 15.1719 Q8.9844 14.1406 9.9531 14.1406 Q10.375 14.1406 10.6641 14.4219 Q10.9531 14.7031 10.9531 15.125 Q10.9531 15.5781 10.6172 15.8672 Q10.2812 16.1562 9.8281 16.0938 Q10.4844 16.875 11.9375 16.875 Q12.7344 16.875 13.4531 16.3906 Q14.6875 15.5781 15.125 13.5781 Q15.4062 12.3594 15.4062 10.2031 Q14.5625 12.3438 12.7344 12.3438 Q10.8438 12.3438 9.625 10.875 Q8.4531 9.4844 8.4531 7.5781 Q8.4531 5.5 9.8125 4.0938 Q11.1094 2.7656 12.9688 2.7656 Q14.0156 2.7656 14.875 3.3125 Q17.3281 4.8281 17.3281 9.9531 ZM15.3594 8 Q15.3594 5.9219 15.0156 5 Q14.375 3.2812 12.9688 3.2812 Q11.5469 3.2812 10.8125 4.6406 Q10.375 5.4531 10.375 7.1719 L10.375 8.0469 Q10.375 9.7031 10.7656 10.4844 Q11.4219 11.8438 12.75 11.8438 Q14.0938 11.8438 14.7969 10.5156 Q15.3594 9.4688 15.3594 8 Z"
         id="path179" />
    </g>
    <g
       transform="translate(1471,494.7893)"
       style="font-size:21.3333px; fill:white; text-rendering:geometricPrecision; image-rendering:optimizeQuality; color-rendering:optimizeQuality; font-family:'Symbola'; stroke:white; color-interpolation:linearRGB;"
       id="g185">
      <path
         style="stroke:none;"
         d="M-9.2656 10.1719 Q-9.2656 13.3438 -10.0625 14.9844 Q-11.2656 17.4688 -13.7656 17.4688 Q-16.0938 17.4688 -17.2969 15.3125 Q-18.25 13.6406 -18.25 10.1719 Q-18.25 6.9375 -17.4688 5.2969 Q-16.2656 2.7656 -13.75 2.7656 Q-11.3125 2.7656 -10.1094 5.1406 Q-9.2656 6.8438 -9.2656 10.1719 ZM-11.0312 11.2188 L-11.0312 8.5469 Q-11.0312 6.3281 -11.4062 5.1719 Q-12.0312 3.2344 -13.7656 3.2344 Q-15.5 3.2344 -16.125 5.1875 Q-16.5 6.3594 -16.5 8.5625 Q-16.5 8.9844 -16.4844 9.8125 Q-16.4844 10.6406 -16.4844 11.0469 Q-16.4844 13.5 -16.1562 14.75 Q-15.5469 17 -13.7656 17 Q-12 17 -11.375 14.8281 Q-11.0312 13.5938 -11.0312 11.2188 ZM-4.5938 15.875 Q-4.5938 16.3438 -4.9219 16.6719 Q-5.25 17 -5.7188 17 Q-6.1875 17 -6.5156 16.6719 Q-6.8438 16.3438 -6.8438 15.875 Q-6.8438 15.4375 -6.5156 15.1094 Q-6.1875 14.7812 -5.7188 14.7812 Q-5.25 14.7812 -4.9219 15.1094 Q-4.5938 15.4375 -4.5938 15.875 ZM6.6719 12.6406 Q6.6719 14.5938 5.4688 16 Q4.1875 17.4688 2.2812 17.4688 Q-0.2031 17.4688 -1.3438 14.9219 Q-2.1875 13.0469 -2.1875 10.2344 Q-2.1875 8.125 -1.4219 6.3906 Q-0.5469 4.4219 1.0938 3.4375 Q2.2188 2.7656 3.4375 2.7656 Q4.5781 2.7656 5.3281 3.3281 Q6.1562 3.9531 6.1562 5.0469 Q6.1562 5.5 5.8828 5.7969 Q5.6094 6.0938 5.1719 6.0938 Q4.75 6.0938 4.4688 5.8125 Q4.1875 5.5312 4.1875 5.1094 Q4.1875 4.0938 5.3594 4.1562 Q4.7656 3.2812 3.4688 3.2812 Q2.6406 3.2812 1.8906 3.7656 Q-0.2656 5.125 -0.2656 9.9844 Q0.5938 7.875 2.4062 7.875 Q4.2812 7.875 5.5 9.3438 Q6.6719 10.7188 6.6719 12.6406 ZM4.75 13.2031 L4.75 12.125 Q4.75 10.4844 4.375 9.6875 Q3.7188 8.3594 2.3906 8.3594 Q1.0625 8.3594 0.3438 9.6719 Q-0.2344 10.7188 -0.2344 12.1719 Q-0.2344 14.2812 0.1562 15.2656 Q0.4219 15.9531 0.9688 16.3906 Q1.5781 16.875 2.2812 16.875 Q3.7188 16.875 4.3906 15.4844 Q4.75 14.7188 4.75 13.2031 ZM17.3281 13.4219 Q17.3281 15.1719 15.9531 16.3438 Q14.6406 17.4688 12.875 17.4688 Q11.1406 17.4688 9.8594 16.5 Q8.4531 15.4375 8.4531 13.7656 Q8.4531 11.3594 11.5312 9.8281 Q10.9688 9.5 9.9531 8.6875 Q9.0312 7.6719 9.0312 6.3281 Q9.0312 4.7969 10.2188 3.7656 Q11.3594 2.7656 12.9062 2.7656 Q14.3906 2.7656 15.5156 3.5938 Q16.75 4.5156 16.75 5.9531 Q16.75 7.9375 14.1562 9.2656 Q15.1094 9.8281 15.2812 9.9375 Q15.8906 10.3594 16.2812 10.7812 Q17.3281 11.9375 17.3281 13.4219 ZM15.8125 5.9531 Q15.8125 4.7969 14.9062 4.0156 Q14.0469 3.2812 12.875 3.2812 Q11.7969 3.2812 10.9375 3.8281 Q9.9531 4.4688 9.9531 5.5 Q9.9531 6.4219 11.0469 7.2188 Q11.3594 7.4375 13.6875 8.9375 Q15.8125 7.7031 15.8125 5.9531 ZM16.2656 14.1719 Q16.2656 13.3906 15.7812 12.7812 Q15.4375 12.3594 14.6484 11.8203 Q13.8594 11.2812 12.0156 10.1719 Q9.5156 11.5469 9.5156 13.7656 Q9.5156 15.1094 10.5469 16.0156 Q11.5469 16.875 12.9062 16.875 Q14.1562 16.875 15.1562 16.1719 Q16.2656 15.375 16.2656 14.1719 Z"
         id="path183" />
    </g>
    <g
       transform="translate(1081,71.7943)"
       style="font-size:21.3333px; fill:white; text-rendering:geometricPrecision; image-rendering:optimizeQuality; color-rendering:optimizeQuality; font-family:'Symbola'; stroke:white; color-interpolation:linearRGB;"
       id="g189">
      <path
         style="stroke:none;"
         d="M-9.5 13.2812 L-10.0781 17 L-18.0156 17 L-18.0156 16.8125 Q-18.0156 16.4844 -17.7656 16.2031 L-13.6719 11.6406 Q-11.4375 9.1406 -11.4375 6.9062 Q-11.4375 5.4844 -12.1406 4.5156 Q-12.9219 3.4219 -14.2969 3.4219 Q-15.2812 3.4219 -16.0625 4.0312 Q-16.8438 4.6406 -17.1875 5.5938 Q-17.1094 5.5781 -17.0156 5.5781 Q-15.7656 5.5781 -15.7656 6.6875 Q-15.7656 7.1719 -16.0859 7.5 Q-16.4062 7.8281 -16.875 7.8281 Q-18.0156 7.8281 -18.0156 6.6406 Q-18.0156 5.0156 -16.8281 3.8906 Q-15.6406 2.7656 -14.0156 2.7656 Q-12.125 2.7656 -10.8438 3.875 Q-9.5 5.0469 -9.5 6.9062 Q-9.5 8.125 -10.2812 9.25 Q-10.7344 9.8906 -11.9688 11.1094 L-16.3594 15.3594 L-12.0938 15.3594 Q-10.7031 15.3594 -10.5 15.1875 Q-10.2969 15.0156 -10.0312 13.2812 L-9.5 13.2812 ZM-4.5938 15.875 Q-4.5938 16.3438 -4.9219 16.6719 Q-5.25 17 -5.7188 17 Q-6.1875 17 -6.5156 16.6719 Q-6.8438 16.3438 -6.8438 15.875 Q-6.8438 15.4375 -6.5156 15.1094 Q-6.1875 14.7812 -5.7188 14.7812 Q-5.25 14.7812 -4.9219 15.1094 Q-4.5938 15.4375 -4.5938 15.875 ZM5.7656 17 Q5.0312 16.9375 4.375 16.9375 L0.2188 16.9375 Q-0.4375 16.9375 -1.1562 17 L-1.1562 16.3438 Q-1.0312 16.3438 -0.7734 16.3516 Q-0.5156 16.3594 -0.375 16.3594 Q1.1875 16.3594 1.4219 15.9219 Q1.5 15.7344 1.5 15.375 L1.5 4.2344 Q0.3906 4.7812 -1.2812 4.7812 L-1.2812 4.125 Q1.2812 4.125 2.6094 2.7656 L2.7031 2.7656 Q3 2.7656 3.0625 2.9062 Q3.0938 2.9688 3.0938 3.3125 L3.0938 15.4219 Q3.0938 15.7656 3.1719 15.9375 Q3.3281 16.2656 4.375 16.3438 Q4.5156 16.3594 5.7656 16.3438 L5.7656 17 ZM17.3281 13.4219 Q17.3281 15.1719 15.9531 16.3438 Q14.6406 17.4688 12.875 17.4688 Q11.1406 17.4688 9.8594 16.5 Q8.4531 15.4375 8.4531 13.7656 Q8.4531 11.3594 11.5312 9.8281 Q10.9688 9.5 9.9531 8.6875 Q9.0312 7.6719 9.0312 6.3281 Q9.0312 4.7969 10.2188 3.7656 Q11.3594 2.7656 12.9062 2.7656 Q14.3906 2.7656 15.5156 3.5938 Q16.75 4.5156 16.75 5.9531 Q16.75 7.9375 14.1562 9.2656 Q15.1094 9.8281 15.2812 9.9375 Q15.8906 10.3594 16.2812 10.7812 Q17.3281 11.9375 17.3281 13.4219 ZM15.8125 5.9531 Q15.8125 4.7969 14.9062 4.0156 Q14.0469 3.2812 12.875 3.2812 Q11.7969 3.2812 10.9375 3.8281 Q9.9531 4.4688 9.9531 5.5 Q9.9531 6.4219 11.0469 7.2188 Q11.3594 7.4375 13.6875 8.9375 Q15.8125 7.7031 15.8125 5.9531 ZM16.2656 14.1719 Q16.2656 13.3906 15.7812 12.7812 Q15.4375 12.3594 14.6484 11.8203 Q13.8594 11.2812 12.0156 10.1719 Q9.5156 11.5469 9.5156 13.7656 Q9.5156 15.1094 10.5469 16.0156 Q11.5469 16.875 12.9062 16.875 Q14.1562 16.875 15.1562 16.1719 Q16.2656 15.375 16.2656 14.1719 Z"
         id="path187" />
    </g>
    <g
       transform="translate(1081,492.5416)"
       style="font-size:21.3333px; fill:white; text-rendering:geometricPrecision; image-rendering:optimizeQuality; color-rendering:optimizeQuality; font-family:'Symbola'; stroke:white; color-interpolation:linearRGB;"
       id="g193">
      <path
         style="stroke:none;"
         d="M-9.2656 10.1719 Q-9.2656 13.3438 -10.0625 14.9844 Q-11.2656 17.4688 -13.7656 17.4688 Q-16.0938 17.4688 -17.2969 15.3125 Q-18.25 13.6406 -18.25 10.1719 Q-18.25 6.9375 -17.4688 5.2969 Q-16.2656 2.7656 -13.75 2.7656 Q-11.3125 2.7656 -10.1094 5.1406 Q-9.2656 6.8438 -9.2656 10.1719 ZM-11.0312 11.2188 L-11.0312 8.5469 Q-11.0312 6.3281 -11.4062 5.1719 Q-12.0312 3.2344 -13.7656 3.2344 Q-15.5 3.2344 -16.125 5.1875 Q-16.5 6.3594 -16.5 8.5625 Q-16.5 8.9844 -16.4844 9.8125 Q-16.4844 10.6406 -16.4844 11.0469 Q-16.4844 13.5 -16.1562 14.75 Q-15.5469 17 -13.7656 17 Q-12 17 -11.375 14.8281 Q-11.0312 13.5938 -11.0312 11.2188 ZM-4.5938 15.875 Q-4.5938 16.3438 -4.9219 16.6719 Q-5.25 17 -5.7188 17 Q-6.1875 17 -6.5156 16.6719 Q-6.8438 16.3438 -6.8438 15.875 Q-6.8438 15.4375 -6.5156 15.1094 Q-6.1875 14.7812 -5.7188 14.7812 Q-5.25 14.7812 -4.9219 15.1094 Q-4.5938 15.4375 -4.5938 15.875 ZM6.6719 12.6406 Q6.6719 14.5938 5.4688 16 Q4.1875 17.4688 2.2812 17.4688 Q-0.2031 17.4688 -1.3438 14.9219 Q-2.1875 13.0469 -2.1875 10.2344 Q-2.1875 8.125 -1.4219 6.3906 Q-0.5469 4.4219 1.0938 3.4375 Q2.2188 2.7656 3.4375 2.7656 Q4.5781 2.7656 5.3281 3.3281 Q6.1562 3.9531 6.1562 5.0469 Q6.1562 5.5 5.8828 5.7969 Q5.6094 6.0938 5.1719 6.0938 Q4.75 6.0938 4.4688 5.8125 Q4.1875 5.5312 4.1875 5.1094 Q4.1875 4.0938 5.3594 4.1562 Q4.7656 3.2812 3.4688 3.2812 Q2.6406 3.2812 1.8906 3.7656 Q-0.2656 5.125 -0.2656 9.9844 Q0.5938 7.875 2.4062 7.875 Q4.2812 7.875 5.5 9.3438 Q6.6719 10.7188 6.6719 12.6406 ZM4.75 13.2031 L4.75 12.125 Q4.75 10.4844 4.375 9.6875 Q3.7188 8.3594 2.3906 8.3594 Q1.0625 8.3594 0.3438 9.6719 Q-0.2344 10.7188 -0.2344 12.1719 Q-0.2344 14.2812 0.1562 15.2656 Q0.4219 15.9531 0.9688 16.3906 Q1.5781 16.875 2.2812 16.875 Q3.7188 16.875 4.3906 15.4844 Q4.75 14.7188 4.75 13.2031 ZM17.3281 9.9531 Q17.3281 11.7344 16.8594 13.1719 Q16.2812 14.9375 15.0625 16.125 Q13.6875 17.4688 11.9531 17.4688 Q10.7344 17.4688 9.9219 16.9375 Q8.9844 16.3281 8.9844 15.1719 Q8.9844 14.1406 9.9531 14.1406 Q10.375 14.1406 10.6641 14.4219 Q10.9531 14.7031 10.9531 15.125 Q10.9531 15.5781 10.6172 15.8672 Q10.2812 16.1562 9.8281 16.0938 Q10.4844 16.875 11.9375 16.875 Q12.7344 16.875 13.4531 16.3906 Q14.6875 15.5781 15.125 13.5781 Q15.4062 12.3594 15.4062 10.2031 Q14.5625 12.3438 12.7344 12.3438 Q10.8438 12.3438 9.625 10.875 Q8.4531 9.4844 8.4531 7.5781 Q8.4531 5.5 9.8125 4.0938 Q11.1094 2.7656 12.9688 2.7656 Q14.0156 2.7656 14.875 3.3125 Q17.3281 4.8281 17.3281 9.9531 ZM15.3594 8 Q15.3594 5.9219 15.0156 5 Q14.375 3.2812 12.9688 3.2812 Q11.5469 3.2812 10.8125 4.6406 Q10.375 5.4531 10.375 7.1719 L10.375 8.0469 Q10.375 9.7031 10.7656 10.4844 Q11.4219 11.8438 12.75 11.8438 Q14.0938 11.8438 14.7969 10.5156 Q15.3594 9.4688 15.3594 8 Z"
         id="path191" />
    </g>
    <g
       transform="translate(691,58)"
       style="font-size:21.3333px; fill:white; text-rendering:geometricPrecision; image-rendering:optimizeQuality; color-rendering:optimizeQuality; font-family:'Symbola'; stroke:white; color-interpolation:linearRGB;"
       id="g197">
      <path
         style="stroke:none;"
         d="M-9.5 13.2812 L-10.0781 17 L-18.0156 17 L-18.0156 16.8125 Q-18.0156 16.4844 -17.7656 16.2031 L-13.6719 11.6406 Q-11.4375 9.1406 -11.4375 6.9062 Q-11.4375 5.4844 -12.1406 4.5156 Q-12.9219 3.4219 -14.2969 3.4219 Q-15.2812 3.4219 -16.0625 4.0312 Q-16.8438 4.6406 -17.1875 5.5938 Q-17.1094 5.5781 -17.0156 5.5781 Q-15.7656 5.5781 -15.7656 6.6875 Q-15.7656 7.1719 -16.0859 7.5 Q-16.4062 7.8281 -16.875 7.8281 Q-18.0156 7.8281 -18.0156 6.6406 Q-18.0156 5.0156 -16.8281 3.8906 Q-15.6406 2.7656 -14.0156 2.7656 Q-12.125 2.7656 -10.8438 3.875 Q-9.5 5.0469 -9.5 6.9062 Q-9.5 8.125 -10.2812 9.25 Q-10.7344 9.8906 -11.9688 11.1094 L-16.3594 15.3594 L-12.0938 15.3594 Q-10.7031 15.3594 -10.5 15.1875 Q-10.2969 15.0156 -10.0312 13.2812 L-9.5 13.2812 ZM-4.5938 15.875 Q-4.5938 16.3438 -4.9219 16.6719 Q-5.25 17 -5.7188 17 Q-6.1875 17 -6.5156 16.6719 Q-6.8438 16.3438 -6.8438 15.875 Q-6.8438 15.4375 -6.5156 15.1094 Q-6.1875 14.7812 -5.7188 14.7812 Q-5.25 14.7812 -4.9219 15.1094 Q-4.5938 15.4375 -4.5938 15.875 ZM6.4844 13.2812 L5.9062 17 L-2.0312 17 L-2.0312 16.8125 Q-2.0312 16.4844 -1.7812 16.2031 L2.3125 11.6406 Q4.5469 9.1406 4.5469 6.9062 Q4.5469 5.4844 3.8438 4.5156 Q3.0625 3.4219 1.6875 3.4219 Q0.7031 3.4219 -0.0781 4.0312 Q-0.8594 4.6406 -1.2031 5.5938 Q-1.125 5.5781 -1.0312 5.5781 Q0.2188 5.5781 0.2188 6.6875 Q0.2188 7.1719 -0.1016 7.5 Q-0.4219 7.8281 -0.8906 7.8281 Q-2.0312 7.8281 -2.0312 6.6406 Q-2.0312 5.0156 -0.8438 3.8906 Q0.3438 2.7656 1.9688 2.7656 Q3.8594 2.7656 5.1406 3.875 Q6.4844 5.0469 6.4844 6.9062 Q6.4844 8.125 5.7031 9.25 Q5.25 9.8906 4.0156 11.1094 L-0.375 15.3594 L3.8906 15.3594 Q5.2812 15.3594 5.4844 15.1875 Q5.6875 15.0156 5.9531 13.2812 L6.4844 13.2812 ZM17.3281 13.3438 Q17.3281 15.1094 15.9219 16.3281 Q14.5781 17.4688 12.7812 17.4688 Q11.1562 17.4688 9.8906 16.625 Q8.4531 15.6719 8.4531 14.125 Q8.4531 13.5781 8.7812 13.2266 Q9.1094 12.875 9.6562 12.875 Q10.1562 12.875 10.5 13.2188 Q10.8438 13.5625 10.8438 14.0781 Q10.8438 14.5938 10.4922 14.9219 Q10.1406 15.25 9.625 15.25 Q9.5312 15.25 9.4219 15.25 Q9.8906 16.0312 10.8438 16.4844 Q11.7188 16.875 12.7031 16.875 Q13.9844 16.875 14.625 15.6875 Q15.1094 14.75 15.1094 13.3438 Q15.1094 11.8594 14.5938 10.9531 Q13.9531 9.7969 12.5781 9.7969 L11.4688 9.7969 Q11.125 9.7969 11.125 9.5625 Q11.125 9.3281 11.625 9.2656 Q11.9531 9.2656 12.2812 9.2344 Q13.5625 9.1562 14.1875 8.125 Q14.7812 7.1719 14.7812 5.6875 Q14.7812 4.6406 14.2812 4 Q13.7344 3.2812 12.7344 3.2812 Q10.7344 3.2812 9.875 4.6094 Q11.2031 4.5938 11.2031 5.6875 Q11.2031 6.1562 10.8984 6.4688 Q10.5938 6.7812 10.125 6.7812 Q9.625 6.7812 9.3281 6.4766 Q9.0312 6.1719 9.0312 5.6719 Q9.0312 4.3281 10.2812 3.5 Q11.3906 2.7656 12.8125 2.7656 Q14.2812 2.7656 15.4219 3.5 Q16.75 4.3438 16.75 5.7031 Q16.75 7 15.8594 8.0625 Q15.0312 9.0469 13.75 9.4688 Q15.2344 9.7656 16.25 10.7969 Q17.3281 11.8906 17.3281 13.3438 Z"
         id="path195" />
    </g>
    <g
       transform="translate(691,493.0946)"
       style="font-size:21.3333px; fill:white; text-rendering:geometricPrecision; image-rendering:optimizeQuality; color-rendering:optimizeQuality; font-family:'Symbola'; stroke:white; color-interpolation:linearRGB;"
       id="g201">
      <path
         style="stroke:none;"
         d="M-9.2656 10.1719 Q-9.2656 13.3438 -10.0625 14.9844 Q-11.2656 17.4688 -13.7656 17.4688 Q-16.0938 17.4688 -17.2969 15.3125 Q-18.25 13.6406 -18.25 10.1719 Q-18.25 6.9375 -17.4688 5.2969 Q-16.2656 2.7656 -13.75 2.7656 Q-11.3125 2.7656 -10.1094 5.1406 Q-9.2656 6.8438 -9.2656 10.1719 ZM-11.0312 11.2188 L-11.0312 8.5469 Q-11.0312 6.3281 -11.4062 5.1719 Q-12.0312 3.2344 -13.7656 3.2344 Q-15.5 3.2344 -16.125 5.1875 Q-16.5 6.3594 -16.5 8.5625 Q-16.5 8.9844 -16.4844 9.8125 Q-16.4844 10.6406 -16.4844 11.0469 Q-16.4844 13.5 -16.1562 14.75 Q-15.5469 17 -13.7656 17 Q-12 17 -11.375 14.8281 Q-11.0312 13.5938 -11.0312 11.2188 ZM-4.5938 15.875 Q-4.5938 16.3438 -4.9219 16.6719 Q-5.25 17 -5.7188 17 Q-6.1875 17 -6.5156 16.6719 Q-6.8438 16.3438 -6.8438 15.875 Q-6.8438 15.4375 -6.5156 15.1094 Q-6.1875 14.7812 -5.7188 14.7812 Q-5.25 14.7812 -4.9219 15.1094 Q-4.5938 15.4375 -4.5938 15.875 ZM6.6719 12.6406 Q6.6719 14.5938 5.4688 16 Q4.1875 17.4688 2.2812 17.4688 Q-0.2031 17.4688 -1.3438 14.9219 Q-2.1875 13.0469 -2.1875 10.2344 Q-2.1875 8.125 -1.4219 6.3906 Q-0.5469 4.4219 1.0938 3.4375 Q2.2188 2.7656 3.4375 2.7656 Q4.5781 2.7656 5.3281 3.3281 Q6.1562 3.9531 6.1562 5.0469 Q6.1562 5.5 5.8828 5.7969 Q5.6094 6.0938 5.1719 6.0938 Q4.75 6.0938 4.4688 5.8125 Q4.1875 5.5312 4.1875 5.1094 Q4.1875 4.0938 5.3594 4.1562 Q4.7656 3.2812 3.4688 3.2812 Q2.6406 3.2812 1.8906 3.7656 Q-0.2656 5.125 -0.2656 9.9844 Q0.5938 7.875 2.4062 7.875 Q4.2812 7.875 5.5 9.3438 Q6.6719 10.7188 6.6719 12.6406 ZM4.75 13.2031 L4.75 12.125 Q4.75 10.4844 4.375 9.6875 Q3.7188 8.3594 2.3906 8.3594 Q1.0625 8.3594 0.3438 9.6719 Q-0.2344 10.7188 -0.2344 12.1719 Q-0.2344 14.2812 0.1562 15.2656 Q0.4219 15.9531 0.9688 16.3906 Q1.5781 16.875 2.2812 16.875 Q3.7188 16.875 4.3906 15.4844 Q4.75 14.7188 4.75 13.2031 ZM17.3281 13.4219 Q17.3281 15.1719 15.9531 16.3438 Q14.6406 17.4688 12.875 17.4688 Q11.1406 17.4688 9.8594 16.5 Q8.4531 15.4375 8.4531 13.7656 Q8.4531 11.3594 11.5312 9.8281 Q10.9688 9.5 9.9531 8.6875 Q9.0312 7.6719 9.0312 6.3281 Q9.0312 4.7969 10.2188 3.7656 Q11.3594 2.7656 12.9062 2.7656 Q14.3906 2.7656 15.5156 3.5938 Q16.75 4.5156 16.75 5.9531 Q16.75 7.9375 14.1562 9.2656 Q15.1094 9.8281 15.2812 9.9375 Q15.8906 10.3594 16.2812 10.7812 Q17.3281 11.9375 17.3281 13.4219 ZM15.8125 5.9531 Q15.8125 4.7969 14.9062 4.0156 Q14.0469 3.2812 12.875 3.2812 Q11.7969 3.2812 10.9375 3.8281 Q9.9531 4.4688 9.9531 5.5 Q9.9531 6.4219 11.0469 7.2188 Q11.3594 7.4375 13.6875 8.9375 Q15.8125 7.7031 15.8125 5.9531 ZM16.2656 14.1719 Q16.2656 13.3906 15.7812 12.7812 Q15.4375 12.3594 14.6484 11.8203 Q13.8594 11.2812 12.0156 10.1719 Q9.5156 11.5469 9.5156 13.7656 Q9.5156 15.1094 10.5469 16.0156 Q11.5469 16.875 12.9062 16.875 Q14.1562 16.875 15.1562 16.1719 Q16.2656 15.375 16.2656 14.1719 Z"
         id="path199" />
    </g>
    <g
       transform="translate(301,114.1329)"
       style="font-size:21.3333px; fill:white; text-rendering:geometricPrecision; image-rendering:optimizeQuality; color-rendering:optimizeQuality; font-family:'Symbola'; stroke:white; color-interpolation:linearRGB;"
       id="g205">
      <path
         style="stroke:none;"
         d="M-9.5 13.2812 L-10.0781 17 L-18.0156 17 L-18.0156 16.8125 Q-18.0156 16.4844 -17.7656 16.2031 L-13.6719 11.6406 Q-11.4375 9.1406 -11.4375 6.9062 Q-11.4375 5.4844 -12.1406 4.5156 Q-12.9219 3.4219 -14.2969 3.4219 Q-15.2812 3.4219 -16.0625 4.0312 Q-16.8438 4.6406 -17.1875 5.5938 Q-17.1094 5.5781 -17.0156 5.5781 Q-15.7656 5.5781 -15.7656 6.6875 Q-15.7656 7.1719 -16.0859 7.5 Q-16.4062 7.8281 -16.875 7.8281 Q-18.0156 7.8281 -18.0156 6.6406 Q-18.0156 5.0156 -16.8281 3.8906 Q-15.6406 2.7656 -14.0156 2.7656 Q-12.125 2.7656 -10.8438 3.875 Q-9.5 5.0469 -9.5 6.9062 Q-9.5 8.125 -10.2812 9.25 Q-10.7344 9.8906 -11.9688 11.1094 L-16.3594 15.3594 L-12.0938 15.3594 Q-10.7031 15.3594 -10.5 15.1875 Q-10.2969 15.0156 -10.0312 13.2812 L-9.5 13.2812 ZM-4.5938 15.875 Q-4.5938 16.3438 -4.9219 16.6719 Q-5.25 17 -5.7188 17 Q-6.1875 17 -6.5156 16.6719 Q-6.8438 16.3438 -6.8438 15.875 Q-6.8438 15.4375 -6.5156 15.1094 Q-6.1875 14.7812 -5.7188 14.7812 Q-5.25 14.7812 -4.9219 15.1094 Q-4.5938 15.4375 -4.5938 15.875 ZM6.7188 10.1719 Q6.7188 13.3438 5.9219 14.9844 Q4.7188 17.4688 2.2188 17.4688 Q-0.1094 17.4688 -1.3125 15.3125 Q-2.2656 13.6406 -2.2656 10.1719 Q-2.2656 6.9375 -1.4844 5.2969 Q-0.2812 2.7656 2.2344 2.7656 Q4.6719 2.7656 5.875 5.1406 Q6.7188 6.8438 6.7188 10.1719 ZM4.9531 11.2188 L4.9531 8.5469 Q4.9531 6.3281 4.5781 5.1719 Q3.9531 3.2344 2.2188 3.2344 Q0.4844 3.2344 -0.1406 5.1875 Q-0.5156 6.3594 -0.5156 8.5625 Q-0.5156 8.9844 -0.5 9.8125 Q-0.5 10.6406 -0.5 11.0469 Q-0.5 13.5 -0.1719 14.75 Q0.4375 17 2.2188 17 Q3.9844 17 4.6094 14.8281 Q4.9531 13.5938 4.9531 11.2188 ZM17.3281 13.3438 Q17.3281 15.1094 15.9219 16.3281 Q14.5781 17.4688 12.7812 17.4688 Q11.1562 17.4688 9.8906 16.625 Q8.4531 15.6719 8.4531 14.125 Q8.4531 13.5781 8.7812 13.2266 Q9.1094 12.875 9.6562 12.875 Q10.1562 12.875 10.5 13.2188 Q10.8438 13.5625 10.8438 14.0781 Q10.8438 14.5938 10.4922 14.9219 Q10.1406 15.25 9.625 15.25 Q9.5312 15.25 9.4219 15.25 Q9.8906 16.0312 10.8438 16.4844 Q11.7188 16.875 12.7031 16.875 Q13.9844 16.875 14.625 15.6875 Q15.1094 14.75 15.1094 13.3438 Q15.1094 11.8594 14.5938 10.9531 Q13.9531 9.7969 12.5781 9.7969 L11.4688 9.7969 Q11.125 9.7969 11.125 9.5625 Q11.125 9.3281 11.625 9.2656 Q11.9531 9.2656 12.2812 9.2344 Q13.5625 9.1562 14.1875 8.125 Q14.7812 7.1719 14.7812 5.6875 Q14.7812 4.6406 14.2812 4 Q13.7344 3.2812 12.7344 3.2812 Q10.7344 3.2812 9.875 4.6094 Q11.2031 4.5938 11.2031 5.6875 Q11.2031 6.1562 10.8984 6.4688 Q10.5938 6.7812 10.125 6.7812 Q9.625 6.7812 9.3281 6.4766 Q9.0312 6.1719 9.0312 5.6719 Q9.0312 4.3281 10.2812 3.5 Q11.3906 2.7656 12.8125 2.7656 Q14.2812 2.7656 15.4219 3.5 Q16.75 4.3438 16.75 5.7031 Q16.75 7 15.8594 8.0625 Q15.0312 9.0469 13.75 9.4688 Q15.2344 9.7656 16.25 10.7969 Q17.3281 11.8906 17.3281 13.3438 Z"
         id="path203" />
    </g>
    <g
       transform="translate(301,495.7746)"
       style="font-size:21.3333px; fill:white; text-rendering:geometricPrecision; image-rendering:optimizeQuality; color-rendering:optimizeQuality; font-family:'Symbola'; stroke:white; color-interpolation:linearRGB;"
       id="g209">
      <path
         style="stroke:none;"
         d="M-9.2656 10.1719 Q-9.2656 13.3438 -10.0625 14.9844 Q-11.2656 17.4688 -13.7656 17.4688 Q-16.0938 17.4688 -17.2969 15.3125 Q-18.25 13.6406 -18.25 10.1719 Q-18.25 6.9375 -17.4688 5.2969 Q-16.2656 2.7656 -13.75 2.7656 Q-11.3125 2.7656 -10.1094 5.1406 Q-9.2656 6.8438 -9.2656 10.1719 ZM-11.0312 11.2188 L-11.0312 8.5469 Q-11.0312 6.3281 -11.4062 5.1719 Q-12.0312 3.2344 -13.7656 3.2344 Q-15.5 3.2344 -16.125 5.1875 Q-16.5 6.3594 -16.5 8.5625 Q-16.5 8.9844 -16.4844 9.8125 Q-16.4844 10.6406 -16.4844 11.0469 Q-16.4844 13.5 -16.1562 14.75 Q-15.5469 17 -13.7656 17 Q-12 17 -11.375 14.8281 Q-11.0312 13.5938 -11.0312 11.2188 ZM-4.5938 15.875 Q-4.5938 16.3438 -4.9219 16.6719 Q-5.25 17 -5.7188 17 Q-6.1875 17 -6.5156 16.6719 Q-6.8438 16.3438 -6.8438 15.875 Q-6.8438 15.4375 -6.5156 15.1094 Q-6.1875 14.7812 -5.7188 14.7812 Q-5.25 14.7812 -4.9219 15.1094 Q-4.5938 15.4375 -4.5938 15.875 ZM6.6719 12.6406 Q6.6719 14.5938 5.4688 16 Q4.1875 17.4688 2.2812 17.4688 Q-0.2031 17.4688 -1.3438 14.9219 Q-2.1875 13.0469 -2.1875 10.2344 Q-2.1875 8.125 -1.4219 6.3906 Q-0.5469 4.4219 1.0938 3.4375 Q2.2188 2.7656 3.4375 2.7656 Q4.5781 2.7656 5.3281 3.3281 Q6.1562 3.9531 6.1562 5.0469 Q6.1562 5.5 5.8828 5.7969 Q5.6094 6.0938 5.1719 6.0938 Q4.75 6.0938 4.4688 5.8125 Q4.1875 5.5312 4.1875 5.1094 Q4.1875 4.0938 5.3594 4.1562 Q4.7656 3.2812 3.4688 3.2812 Q2.6406 3.2812 1.8906 3.7656 Q-0.2656 5.125 -0.2656 9.9844 Q0.5938 7.875 2.4062 7.875 Q4.2812 7.875 5.5 9.3438 Q6.6719 10.7188 6.6719 12.6406 ZM4.75 13.2031 L4.75 12.125 Q4.75 10.4844 4.375 9.6875 Q3.7188 8.3594 2.3906 8.3594 Q1.0625 8.3594 0.3438 9.6719 Q-0.2344 10.7188 -0.2344 12.1719 Q-0.2344 14.2812 0.1562 15.2656 Q0.4219 15.9531 0.9688 16.3906 Q1.5781 16.875 2.2812 16.875 Q3.7188 16.875 4.3906 15.4844 Q4.75 14.7188 4.75 13.2031 ZM17.4688 3.375 Q17.4688 3.7031 17.2812 3.9844 L14.375 8.0312 Q13.4062 9.375 13.0625 11.6875 Q12.8281 13.2344 12.8281 16.2969 Q12.8281 17.4688 11.8438 17.4688 Q10.875 17.4688 10.875 16.2969 Q10.875 12.3594 13.5 8.25 Q14.2969 7.1406 15.875 4.875 L10.7656 4.875 Q9.5625 4.875 9.3594 5 Q9.125 5.1562 8.8281 6.9531 L8.2969 6.9531 L9 2.5469 L9.5312 2.5469 Q9.5625 2.75 9.6875 2.875 Q10 3.2344 12.2812 3.2344 L17.4688 3.2344 L17.4688 3.375 Z"
         id="path207" />
    </g>
    <g
       style="fill:white; text-rendering:optimizeSpeed; color-rendering:optimizeSpeed; image-rendering:optimizeSpeed; shape-rendering:crispEdges; stroke:white; color-interpolation:sRGB;"
       id="g213">
      <path
         style="stroke:none;"
         d="M1527 92 L1527 37 L1282 37 L1282 92 Z"
         id="path211" />
    </g>
    <g
       transform="translate(1328.9062,51.614)"
       style="font-size:21.3333px; text-rendering:geometricPrecision; color-rendering:optimizeQuality; image-rendering:optimizeQuality; font-family:'mwa_cmr10'; color-interpolation:linearRGB;"
       id="g217">
      <path
         style="stroke:none;"
         d="M0.6406 5.1199 L0.6406 4.3855 Q2.8125 4.3855 2.8125 3.1355 L2.8125 -8.3645 Q2.125 -8.4895 0.6406 -8.4895 L0.6406 -9.2238 L4.6719 -9.2238 Q4.7656 -9.2238 4.8125 -9.1457 L12.25 1.7918 L12.25 -7.2395 Q12.25 -8.4895 10.0781 -8.4895 L10.0781 -9.2238 L15.0781 -9.2238 L15.0781 -8.4895 Q12.9219 -8.4895 12.9219 -7.2395 L12.9219 4.9324 Q12.9219 4.9949 12.8359 5.0574 Q12.75 5.1199 12.7031 5.1199 L12.4531 5.1199 Q12.3438 5.1199 12.3125 5.0418 L3.4844 -7.9426 L3.4844 3.1355 Q3.4844 4.3855 5.6562 4.3855 L5.6562 5.1199 L0.6406 5.1199 Z"
         id="path215" />
    </g>
    <g
       transform="translate(1328.9062,51.614)"
       style="font-size:21.3333px; text-rendering:geometricPrecision; color-rendering:optimizeQuality; image-rendering:optimizeQuality; font-family:'mwa_cmr10'; color-interpolation:linearRGB;"
       id="g225">
      <path
         style="stroke:none;"
         d="M16.6719 5.1199 L16.6719 4.3855 Q18.5469 4.3855 18.9844 3.1355 L23.3907 -9.6926 Q23.4532 -9.9113 23.7344 -9.9113 L24 -9.9113 Q24.2813 -9.9113 24.3438 -9.6926 L28.9375 3.7137 Q29.1407 4.1512 29.6875 4.2684 Q30.2344 4.3855 31.0469 4.3855 L31.0469 5.1199 L25.2032 5.1199 L25.2032 4.3855 Q26.9375 4.3855 26.9375 3.823 L26.9375 3.7137 L25.7969 0.4324 L20.7032 0.4324 L19.7657 3.1355 Q19.75 3.2137 19.75 3.3543 Q19.75 3.8855 20.2422 4.1355 Q20.7344 4.3855 21.3125 4.3855 L21.3125 5.1199 L16.6719 5.1199 ZM20.9532 -0.302 L25.5625 -0.302 L23.25 -7.0051 L20.9532 -0.302 Z"
         id="path219" />
      <path
         style="stroke:none;"
         d="M33.1719 5.4168 L33.1719 0.5105 Q33.1719 0.3543 33.3594 0.3543 L33.6251 0.3543 Q33.6876 0.3543 33.7344 0.4012 Q33.7813 0.448 33.7813 0.5105 Q33.7813 2.573 35.0626 3.7059 Q36.3438 4.8387 38.4063 4.8387 Q39.1407 4.8387 39.7579 4.4168 Q40.3751 3.9949 40.711 3.3152 Q41.0469 2.6355 41.0469 1.9168 Q41.0469 1.2762 40.7969 0.6746 Q40.5469 0.073 40.0626 -0.3645 Q39.5782 -0.802 38.9688 -0.9582 L36.2501 -1.6145 Q34.8907 -1.9738 34.0313 -3.091 Q33.1719 -4.2082 33.1719 -5.5832 Q33.1719 -6.677 33.7266 -7.6301 Q34.2813 -8.5832 35.2188 -9.1379 Q36.1563 -9.6926 37.2501 -9.6926 Q39.3594 -9.6926 40.5938 -8.2551 L41.4532 -9.6301 Q41.5157 -9.6926 41.5938 -9.6926 L41.7344 -9.6926 Q41.7969 -9.6926 41.8594 -9.6457 Q41.9219 -9.5988 41.9219 -9.5051 L41.9219 -4.6457 Q41.9219 -4.4582 41.7344 -4.4582 L41.5001 -4.4582 Q41.2969 -4.4582 41.2969 -4.6457 Q41.2969 -5.177 41.1173 -5.8098 Q40.9376 -6.4426 40.6251 -7.0285 Q40.3126 -7.6145 39.9376 -7.9895 Q38.9219 -9.0051 37.2501 -9.0051 Q36.5313 -9.0051 35.9298 -8.6457 Q35.3282 -8.2863 34.9688 -7.6613 Q34.6094 -7.0363 34.6094 -6.3488 Q34.6094 -5.4426 35.1641 -4.7082 Q35.7188 -3.9738 36.6251 -3.7395 L39.3594 -3.0676 Q40.0313 -2.9113 40.6329 -2.4816 Q41.2344 -2.052 41.6329 -1.4895 Q42.0313 -0.927 42.2579 -0.2395 Q42.4844 0.448 42.4844 1.198 Q42.4844 2.323 41.961 3.3387 Q41.4376 4.3543 40.4844 4.9715 Q39.5313 5.5887 38.4063 5.5887 Q37.7188 5.5887 36.9844 5.4324 Q36.2501 5.2762 35.6407 4.9559 Q35.0313 4.6355 34.5157 4.1355 L33.6407 5.5262 Q33.5782 5.5887 33.4844 5.5887 L33.3594 5.5887 Q33.1719 5.5887 33.1719 5.4168 Z"
         id="path221" />
      <path
         style="stroke:none;"
         d="M44.5238 5.1199 L44.5238 4.3855 Q46.3988 4.3855 46.8363 3.1355 L51.2426 -9.6926 Q51.3051 -9.9113 51.5863 -9.9113 L51.852 -9.9113 Q52.1332 -9.9113 52.1957 -9.6926 L56.7895 3.7137 Q56.9926 4.1512 57.5395 4.2684 Q58.0863 4.3855 58.8988 4.3855 L58.8988 5.1199 L53.0551 5.1199 L53.0551 4.3855 Q54.7895 4.3855 54.7895 3.823 L54.7895 3.7137 L53.6488 0.4324 L48.5551 0.4324 L47.6176 3.1355 Q47.602 3.2137 47.602 3.3543 Q47.602 3.8855 48.0941 4.1355 Q48.5863 4.3855 49.1645 4.3855 L49.1645 5.1199 L44.5238 5.1199 ZM48.8051 -0.302 L53.4145 -0.302 L51.102 -7.0051 L48.8051 -0.302 Z"
         id="path223" />
    </g>
    <g
       style="fill:rgb(51,51,128); text-rendering:optimizeSpeed; color-rendering:optimizeSpeed; image-rendering:optimizeSpeed; shape-rendering:crispEdges; stroke:rgb(51,51,128); color-interpolation:sRGB;"
       id="g229">
      <path
         style="stroke:none;"
         d="M1325.9122 61.0934 L1325.9122 42.1347 L1285.9921 42.1347 L1285.9921 61.0934 Z"
         id="path227" />
    </g>
    <g
       style="text-rendering:geometricPrecision; stroke-width:0.6667; color-interpolation:linearRGB; color-rendering:optimizeQuality; stroke-linecap:butt; image-rendering:optimizeQuality;"
       id="g233">
      <path
         d="M1285.9921 61.0934 L1285.9921 42.1347 L1325.9122 42.1347 L1325.9122 61.0934 Z"
         style="fill:none; fill-rule:evenodd;"
         id="path231" />
    </g>
    <g
       transform="translate(1328.9062,77.386)"
       style="font-size:21.3333px; text-rendering:geometricPrecision; color-rendering:optimizeQuality; image-rendering:optimizeQuality; font-family:'mwa_cmr10'; color-interpolation:linearRGB;"
       id="g237">
      <path
         style="stroke:none;"
         d="M4.7812 2.8699 Q5.5 3.7918 6.5781 4.3152 Q7.6562 4.8387 8.8125 4.8387 Q9.7969 4.8387 10.625 4.4559 Q11.4531 4.073 12.0703 3.3855 Q12.6875 2.698 13.0234 1.8309 Q13.3594 0.9637 13.3594 -0.0051 Q13.3594 -0.177 13.5469 -0.177 L13.7969 -0.177 Q13.9688 -0.177 13.9688 0.0262 Q13.9688 1.1355 13.5469 2.1512 Q13.125 3.1668 12.3594 3.9402 Q11.5938 4.7137 10.5938 5.1512 Q9.5938 5.5887 8.5 5.5887 Q7 5.5887 5.6484 4.9715 Q4.2969 4.3543 3.2969 3.2996 Q2.2969 2.2449 1.7344 0.8465 Q1.1719 -0.552 1.1719 -2.052 Q1.1719 -3.5676 1.7344 -4.9582 Q2.2969 -6.3488 3.2969 -7.4191 Q4.2969 -8.4895 5.6484 -9.091 Q7 -9.6926 8.5 -9.6926 Q9.5781 -9.6926 10.5625 -9.2238 Q11.5469 -8.7551 12.2812 -7.8957 L13.5 -9.6301 Q13.625 -9.6926 13.6406 -9.6926 L13.7969 -9.6926 Q13.8594 -9.6926 13.9141 -9.6379 Q13.9688 -9.5832 13.9688 -9.5051 L13.9688 -3.8488 Q13.9688 -3.6613 13.7969 -3.6613 L13.4219 -3.6613 Q13.2344 -3.6613 13.2344 -3.8488 Q13.2344 -4.4426 12.9922 -5.1926 Q12.75 -5.9426 12.375 -6.6145 Q12 -7.2863 11.5 -7.802 Q10.3281 -8.9426 8.7969 -8.9426 Q7.6406 -8.9426 6.5781 -8.4191 Q5.5156 -7.8957 4.7812 -6.9738 Q4.0156 -5.9895 3.7188 -4.7395 Q3.4219 -3.4895 3.4219 -2.052 Q3.4219 -0.6301 3.7188 0.6277 Q4.0156 1.8855 4.7812 2.8699 Z"
         id="path235" />
    </g>
    <g
       transform="translate(1328.9062,77.386)"
       style="font-size:21.3333px; text-rendering:geometricPrecision; color-rendering:optimizeQuality; image-rendering:optimizeQuality; font-family:'mwa_cmr10'; color-interpolation:linearRGB;"
       id="g271">
      <path
         style="stroke:none;"
         d="M20.6574 5.3543 Q19.3918 5.3543 18.3137 4.7137 Q17.2355 4.073 16.6105 2.9949 Q15.9855 1.9168 15.9855 0.6512 Q15.9855 -0.3176 16.3293 -1.2082 Q16.673 -2.0988 17.3137 -2.802 Q17.9543 -3.5051 18.8059 -3.8957 Q19.6574 -4.2863 20.6574 -4.2863 Q21.9543 -4.2863 23.0168 -3.6066 Q24.0793 -2.927 24.6887 -1.7863 Q25.298 -0.6457 25.298 0.6512 Q25.298 1.9168 24.673 2.9949 Q24.048 4.073 22.9777 4.7137 Q21.9074 5.3543 20.6574 5.3543 ZM20.6574 4.7449 Q22.3449 4.7449 22.9074 3.5262 Q23.4699 2.3074 23.4699 0.4168 Q23.4699 -0.6457 23.3527 -1.3332 Q23.2355 -2.0207 22.8605 -2.5988 Q22.6262 -2.9426 22.259 -3.2004 Q21.8918 -3.4582 21.4934 -3.5988 Q21.0949 -3.7395 20.6574 -3.7395 Q20.0012 -3.7395 19.4152 -3.4426 Q18.8293 -3.1457 18.4387 -2.5988 Q18.048 -1.9895 17.9387 -1.2785 Q17.8293 -0.5676 17.8293 0.4168 Q17.8293 1.5887 18.0324 2.5262 Q18.2355 3.4637 18.8605 4.1043 Q19.4855 4.7449 20.6574 4.7449 Z"
         id="path239" />
      <path
         style="stroke:none;"
         d="M26.6991 5.1199 L26.6991 4.3855 Q27.4179 4.3855 27.8788 4.2684 Q28.3397 4.1512 28.3397 3.7137 L28.3397 -2.0207 Q28.3397 -2.5832 28.1679 -2.8332 Q27.996 -3.0832 27.6835 -3.1379 Q27.371 -3.1926 26.6991 -3.1926 L26.6991 -3.927 L29.746 -4.1613 L29.746 -2.1145 Q30.1679 -3.0051 30.996 -3.5832 Q31.8241 -4.1613 32.7929 -4.1613 Q35.2147 -4.1613 35.6366 -2.1926 Q36.0585 -3.0676 36.8632 -3.6145 Q37.6679 -4.1613 38.6366 -4.1613 Q39.5897 -4.1613 40.2382 -3.8566 Q40.8866 -3.552 41.2147 -2.9191 Q41.5429 -2.2863 41.5429 -1.3332 L41.5429 3.7137 Q41.5429 4.1512 42.0116 4.2684 Q42.4804 4.3855 43.1835 4.3855 L43.1835 5.1199 L38.3866 5.1199 L38.3866 4.3855 Q39.0897 4.3855 39.5585 4.2684 Q40.0272 4.1512 40.0272 3.7137 L40.0272 -1.2707 Q40.0272 -2.3176 39.7226 -2.966 Q39.4179 -3.6145 38.496 -3.6145 Q37.2929 -3.6145 36.5038 -2.6379 Q35.7147 -1.6613 35.7147 -0.427 L35.7147 3.7137 Q35.7147 4.1512 36.1757 4.2684 Q36.6366 4.3855 37.3554 4.3855 L37.3554 5.1199 L32.5429 5.1199 L32.5429 4.3855 Q33.2616 4.3855 33.7226 4.2684 Q34.1835 4.1512 34.1835 3.7137 L34.1835 -1.2707 Q34.1835 -2.2863 33.8866 -2.9504 Q33.5897 -3.6145 32.6679 -3.6145 Q31.4491 -3.6145 30.6601 -2.6379 Q29.871 -1.6613 29.871 -0.427 L29.871 3.7137 Q29.871 4.1512 30.3397 4.2684 Q30.8085 4.3855 31.5116 4.3855 L31.5116 5.1199 L26.6991 5.1199 Z"
         id="path241" />
      <path
         style="stroke:none;"
         d="M45.4468 5.1199 L45.4468 -7.302 Q45.4468 -7.8645 45.275 -8.1223 Q45.1031 -8.3801 44.7828 -8.4348 Q44.4625 -8.4895 43.8062 -8.4895 L43.8062 -9.2238 L46.9156 -9.4582 L46.9156 -2.8801 Q47.2593 -3.2707 47.7281 -3.5598 Q48.1968 -3.8488 48.7281 -4.0051 Q49.2593 -4.1613 49.8062 -4.1613 Q50.7593 -4.1613 51.564 -3.7785 Q52.3687 -3.3957 52.9625 -2.7316 Q53.5562 -2.0676 53.8922 -1.2004 Q54.2281 -0.3332 54.2281 0.5887 Q54.2281 1.8543 53.6031 2.9559 Q52.9781 4.0574 51.9078 4.7059 Q50.8375 5.3543 49.5562 5.3543 Q48.7593 5.3543 48.0093 4.948 Q47.2593 4.5418 46.7593 3.8543 L46.0562 5.1199 L45.4468 5.1199 ZM46.9781 3.0574 Q47.3218 3.823 47.9781 4.3152 Q48.6343 4.8074 49.4312 4.8074 Q50.525 4.8074 51.1968 4.1824 Q51.8687 3.5574 52.1343 2.6043 Q52.4 1.6512 52.4 0.5887 Q52.4 -1.1926 51.9312 -2.1145 Q51.7281 -2.5207 51.3765 -2.8723 Q51.025 -3.2238 50.5875 -3.4191 Q50.15 -3.6145 49.6656 -3.6145 Q48.8218 -3.6145 48.1031 -3.1691 Q47.3843 -2.7238 46.9781 -1.9738 L46.9781 3.0574 Z"
         id="path243" />
      <path
         style="stroke:none;"
         d="M57.3769 2.6199 L57.3769 -2.0207 Q57.3769 -2.5832 57.205 -2.8332 Q57.0331 -3.0832 56.7206 -3.1379 Q56.4081 -3.1926 55.7362 -3.1926 L55.7362 -3.927 L58.9081 -4.1613 L58.9081 2.6199 Q58.9081 3.4324 59.0331 3.8934 Q59.1581 4.3543 59.5409 4.5809 Q59.9237 4.8074 60.7675 4.8074 Q61.8925 4.8074 62.5565 3.8621 Q63.2206 2.9168 63.2206 1.7137 L63.2206 -2.0207 Q63.2206 -2.5832 63.0487 -2.8332 Q62.8769 -3.0832 62.5644 -3.1379 Q62.2519 -3.1926 61.58 -3.1926 L61.58 -3.927 L64.7519 -4.1613 L64.7519 3.2137 Q64.7519 3.7605 64.9237 4.0184 Q65.0956 4.2762 65.4081 4.3309 Q65.7206 4.3855 66.3925 4.3855 L66.3925 5.1199 L63.2831 5.3543 L63.2831 3.5887 Q62.8925 4.3699 62.1972 4.8621 Q61.5019 5.3543 60.6581 5.3543 Q59.1581 5.3543 58.2675 4.7137 Q57.3769 4.073 57.3769 2.6199 Z"
         id="path245" />
      <path
         style="stroke:none;"
         d="M67.6662 5.1824 L67.6662 1.7605 Q67.6662 1.5887 67.8381 1.5887 L68.1037 1.5887 Q68.2287 1.5887 68.26 1.7605 Q68.8537 4.8074 71.0881 4.8074 Q72.0881 4.8074 72.76 4.3543 Q73.4319 3.9012 73.4319 2.9637 Q73.4319 2.2762 72.9084 1.7996 Q72.385 1.323 71.6662 1.1512 L70.26 0.8699 Q69.5569 0.7137 68.9787 0.4012 Q68.4006 0.0887 68.0334 -0.4426 Q67.6662 -0.9738 67.6662 -1.6613 Q67.6662 -2.5988 68.1506 -3.1848 Q68.635 -3.7707 69.4162 -4.0285 Q70.1975 -4.2863 71.0881 -4.2863 Q72.1662 -4.2863 72.9787 -3.7238 L73.5725 -4.2395 Q73.5725 -4.2863 73.6819 -4.2863 L73.8381 -4.2863 Q73.9006 -4.2863 73.9475 -4.2316 Q73.9944 -4.177 73.9944 -4.1145 L73.9944 -1.3645 Q73.9944 -1.177 73.8381 -1.177 L73.5725 -1.177 Q73.385 -1.177 73.385 -1.3645 Q73.385 -2.4738 72.7756 -3.1379 Q72.1662 -3.802 71.0725 -3.802 Q70.135 -3.802 69.4397 -3.4504 Q68.7444 -3.0988 68.7444 -2.2551 Q68.7444 -1.6613 69.2444 -1.2941 Q69.7444 -0.927 70.4162 -0.7551 L71.8381 -0.4895 Q72.5569 -0.3176 73.1741 0.0652 Q73.7912 0.448 74.1584 1.0496 Q74.5256 1.6512 74.5256 2.3855 Q74.5256 3.1512 74.26 3.7137 Q73.9944 4.2762 73.5256 4.6434 Q73.0569 5.0105 72.4241 5.1824 Q71.7912 5.3543 71.0881 5.3543 Q69.7756 5.3543 68.8537 4.4793 L68.0881 5.3074 Q68.0881 5.3543 67.9631 5.3543 L67.8381 5.3543 Q67.6662 5.3543 67.6662 5.1824 Z"
         id="path247" />
      <path
         style="stroke:none;"
         d="M77.5186 2.6043 L77.5186 -3.1926 L75.7842 -3.1926 L75.7842 -3.7395 Q77.1592 -3.7395 77.7998 -5.0207 Q78.4404 -6.302 78.4404 -7.802 L79.0498 -7.802 L79.0498 -3.927 L82.0186 -3.927 L82.0186 -3.1926 L79.0498 -3.1926 L79.0498 2.5574 Q79.0498 3.4324 79.3389 4.0887 Q79.6279 4.7449 80.3936 4.7449 Q81.1123 4.7449 81.4326 4.0496 Q81.7529 3.3543 81.7529 2.5574 L81.7529 1.323 L82.3467 1.323 L82.3467 2.6043 Q82.3467 3.2605 82.1045 3.9012 Q81.8623 4.5418 81.3936 4.948 Q80.9248 5.3543 80.2529 5.3543 Q78.9873 5.3543 78.2529 4.6043 Q77.5186 3.8543 77.5186 2.6043 Z"
         id="path249" />
      <path
         style="stroke:none;"
         d="M84.3149 5.1199 L84.3149 4.3855 Q85.0336 4.3855 85.4946 4.2684 Q85.9555 4.1512 85.9555 3.7137 L85.9555 -2.0207 Q85.9555 -2.8332 85.643 -3.0129 Q85.3305 -3.1926 84.4086 -3.1926 L84.4086 -3.927 L87.4399 -4.1613 L87.4399 3.7137 Q87.4399 4.1512 87.8383 4.2684 Q88.2368 4.3855 88.9086 4.3855 L88.9086 5.1199 L84.3149 5.1199 ZM85.2055 -7.7707 Q85.2055 -8.2238 85.5571 -8.5754 Q85.9086 -8.927 86.3618 -8.927 Q86.6586 -8.927 86.9321 -8.7707 Q87.2055 -8.6145 87.3618 -8.341 Q87.518 -8.0676 87.518 -7.7707 Q87.518 -7.3176 87.1664 -6.966 Q86.8149 -6.6145 86.3618 -6.6145 Q85.9086 -6.6145 85.5571 -6.966 Q85.2055 -7.3176 85.2055 -7.7707 Z"
         id="path251" />
      <path
         style="stroke:none;"
         d="M94.8502 5.3543 Q93.5846 5.3543 92.5064 4.7137 Q91.4283 4.073 90.8033 2.9949 Q90.1783 1.9168 90.1783 0.6512 Q90.1783 -0.3176 90.5221 -1.2082 Q90.8658 -2.0988 91.5064 -2.802 Q92.1471 -3.5051 92.9986 -3.8957 Q93.8502 -4.2863 94.8502 -4.2863 Q96.1471 -4.2863 97.2096 -3.6066 Q98.2721 -2.927 98.8814 -1.7863 Q99.4908 -0.6457 99.4908 0.6512 Q99.4908 1.9168 98.8658 2.9949 Q98.2408 4.073 97.1705 4.7137 Q96.1002 5.3543 94.8502 5.3543 ZM94.8502 4.7449 Q96.5377 4.7449 97.1002 3.5262 Q97.6627 2.3074 97.6627 0.4168 Q97.6627 -0.6457 97.5455 -1.3332 Q97.4283 -2.0207 97.0533 -2.5988 Q96.8189 -2.9426 96.4518 -3.2004 Q96.0846 -3.4582 95.6861 -3.5988 Q95.2877 -3.7395 94.8502 -3.7395 Q94.1939 -3.7395 93.608 -3.4426 Q93.0221 -3.1457 92.6314 -2.5988 Q92.2408 -1.9895 92.1314 -1.2785 Q92.0221 -0.5676 92.0221 0.4168 Q92.0221 1.5887 92.2252 2.5262 Q92.4283 3.4637 93.0533 4.1043 Q93.6783 4.7449 94.8502 4.7449 Z"
         id="path253" />
      <path
         style="stroke:none;"
         d="M100.8919 5.1199 L100.8919 4.3855 Q101.6106 4.3855 102.0716 4.2684 Q102.5325 4.1512 102.5325 3.7137 L102.5325 -2.0207 Q102.5325 -2.5832 102.3606 -2.8332 Q102.1888 -3.0832 101.8763 -3.1379 Q101.5638 -3.1926 100.8919 -3.1926 L100.8919 -3.927 L103.9388 -4.1613 L103.9388 -2.1145 Q104.3606 -3.0051 105.1888 -3.5832 Q106.0169 -4.1613 106.9856 -4.1613 Q108.4388 -4.1613 109.1731 -3.466 Q109.9075 -2.7707 109.9075 -1.3332 L109.9075 3.7137 Q109.9075 4.1512 110.3685 4.2684 Q110.8294 4.3855 111.5481 4.3855 L111.5481 5.1199 L106.7356 5.1199 L106.7356 4.3855 Q107.4544 4.3855 107.9153 4.2684 Q108.3763 4.1512 108.3763 3.7137 L108.3763 -1.2707 Q108.3763 -2.2863 108.0794 -2.9504 Q107.7825 -3.6145 106.8606 -3.6145 Q105.6419 -3.6145 104.8528 -2.6379 Q104.0638 -1.6613 104.0638 -0.427 L104.0638 3.7137 Q104.0638 4.1512 104.5325 4.2684 Q105.0013 4.3855 105.7044 4.3855 L105.7044 5.1199 L100.8919 5.1199 Z"
         id="path255" />
      <path
         style="stroke:none;"
         d="M122.7768 5.1199 L122.7768 4.3855 Q123.8393 4.3855 124.8315 4.2684 Q125.8236 4.1512 125.8236 3.7137 L125.8236 -7.8176 Q125.8236 -8.2707 125.5736 -8.3801 Q125.3236 -8.4895 124.7611 -8.4895 L123.8705 -8.4895 Q122.1361 -8.4895 121.4174 -7.7238 Q121.0424 -7.3488 120.8783 -6.5129 Q120.7143 -5.677 120.5893 -4.4113 L119.9955 -4.4113 L120.3861 -9.2238 L133.2143 -9.2238 L133.6205 -4.4113 L132.9955 -4.4113 Q132.8705 -5.7707 132.7221 -6.5676 Q132.5736 -7.3645 132.1986 -7.7238 Q131.4486 -8.4895 129.7299 -8.4895 L128.8549 -8.4895 Q128.4643 -8.4895 128.2533 -8.4582 Q128.0424 -8.427 127.9096 -8.2785 Q127.7768 -8.1301 127.7768 -7.8176 L127.7768 3.7137 Q127.7768 4.1512 128.7768 4.2684 Q129.7768 4.3855 130.8236 4.3855 L130.8236 5.1199 L122.7768 5.1199 Z"
         id="path257" />
      <path
         style="stroke:none;"
         d="M138.1095 5.3543 Q136.8439 5.3543 135.7658 4.7137 Q134.6876 4.073 134.0626 2.9949 Q133.4376 1.9168 133.4376 0.6512 Q133.4376 -0.3176 133.7814 -1.2082 Q134.1251 -2.0988 134.7658 -2.802 Q135.4064 -3.5051 136.2579 -3.8957 Q137.1095 -4.2863 138.1095 -4.2863 Q139.4064 -4.2863 140.4689 -3.6066 Q141.5314 -2.927 142.1408 -1.7863 Q142.7501 -0.6457 142.7501 0.6512 Q142.7501 1.9168 142.1251 2.9949 Q141.5001 4.073 140.4298 4.7137 Q139.3595 5.3543 138.1095 5.3543 ZM138.1095 4.7449 Q139.797 4.7449 140.3595 3.5262 Q140.922 2.3074 140.922 0.4168 Q140.922 -0.6457 140.8048 -1.3332 Q140.6876 -2.0207 140.3126 -2.5988 Q140.0783 -2.9426 139.7111 -3.2004 Q139.3439 -3.4582 138.9454 -3.5988 Q138.547 -3.7395 138.1095 -3.7395 Q137.4533 -3.7395 136.8673 -3.4426 Q136.2814 -3.1457 135.8908 -2.5988 Q135.5001 -1.9895 135.3908 -1.2785 Q135.2814 -0.5676 135.2814 0.4168 Q135.2814 1.5887 135.4845 2.5262 Q135.6876 3.4637 136.3126 4.1043 Q136.9376 4.7449 138.1095 4.7449 Z"
         id="path259" />
      <path
         style="stroke:none;"
         d="M149.3688 5.3543 Q148.1032 5.3543 147.0251 4.7137 Q145.9469 4.073 145.3219 2.9949 Q144.6969 1.9168 144.6969 0.6512 Q144.6969 -0.3176 145.0407 -1.2082 Q145.3844 -2.0988 146.0251 -2.802 Q146.6657 -3.5051 147.5173 -3.8957 Q148.3688 -4.2863 149.3688 -4.2863 Q150.6657 -4.2863 151.7282 -3.6066 Q152.7907 -2.927 153.4001 -1.7863 Q154.0094 -0.6457 154.0094 0.6512 Q154.0094 1.9168 153.3844 2.9949 Q152.7594 4.073 151.6891 4.7137 Q150.6188 5.3543 149.3688 5.3543 ZM149.3688 4.7449 Q151.0563 4.7449 151.6188 3.5262 Q152.1813 2.3074 152.1813 0.4168 Q152.1813 -0.6457 152.0641 -1.3332 Q151.9469 -2.0207 151.5719 -2.5988 Q151.3376 -2.9426 150.9704 -3.2004 Q150.6032 -3.4582 150.2048 -3.5988 Q149.8063 -3.7395 149.3688 -3.7395 Q148.7126 -3.7395 148.1266 -3.4426 Q147.5407 -3.1457 147.1501 -2.5988 Q146.7594 -1.9895 146.6501 -1.2785 Q146.5407 -0.5676 146.5407 0.4168 Q146.5407 1.5887 146.7438 2.5262 Q146.9469 3.4637 147.5719 4.1043 Q148.1969 4.7449 149.3688 4.7449 Z"
         id="path261" />
      <path
         style="stroke:none;"
         d="M155.4261 5.1199 L155.4261 4.3855 Q156.1449 4.3855 156.6058 4.2684 Q157.0668 4.1512 157.0668 3.7137 L157.0668 -7.302 Q157.0668 -7.8645 156.9027 -8.1223 Q156.7386 -8.3801 156.4183 -8.4348 Q156.098 -8.4895 155.4261 -8.4895 L155.4261 -9.2238 L158.5511 -9.4582 L158.5511 3.7137 Q158.5511 4.1512 159.0121 4.2684 Q159.473 4.3855 160.1761 4.3855 L160.1761 5.1199 L155.4261 5.1199 Z"
         id="path263" />
      <path
         style="stroke:none;"
         d="M162.899 5.1199 L162.899 -7.302 Q162.899 -7.8645 162.7271 -8.1223 Q162.5552 -8.3801 162.2349 -8.4348 Q161.9146 -8.4895 161.2583 -8.4895 L161.2583 -9.2238 L164.3677 -9.4582 L164.3677 -2.8801 Q164.7115 -3.2707 165.1802 -3.5598 Q165.649 -3.8488 166.1802 -4.0051 Q166.7115 -4.1613 167.2583 -4.1613 Q168.2115 -4.1613 169.0162 -3.7785 Q169.8208 -3.3957 170.4146 -2.7316 Q171.0083 -2.0676 171.3443 -1.2004 Q171.6802 -0.3332 171.6802 0.5887 Q171.6802 1.8543 171.0552 2.9559 Q170.4302 4.0574 169.3599 4.7059 Q168.2896 5.3543 167.0083 5.3543 Q166.2115 5.3543 165.4615 4.948 Q164.7115 4.5418 164.2115 3.8543 L163.5083 5.1199 L162.899 5.1199 ZM164.4302 3.0574 Q164.774 3.823 165.4302 4.3152 Q166.0865 4.8074 166.8833 4.8074 Q167.9771 4.8074 168.649 4.1824 Q169.3208 3.5574 169.5865 2.6043 Q169.8521 1.6512 169.8521 0.5887 Q169.8521 -1.1926 169.3833 -2.1145 Q169.1802 -2.5207 168.8287 -2.8723 Q168.4771 -3.2238 168.0396 -3.4191 Q167.6021 -3.6145 167.1177 -3.6145 Q166.274 -3.6145 165.5552 -3.1691 Q164.8365 -2.7238 164.4302 -1.9738 L164.4302 3.0574 Z"
         id="path265" />
      <path
         style="stroke:none;"
         d="M178.406 5.3543 Q177.1403 5.3543 176.0622 4.7137 Q174.9841 4.073 174.3591 2.9949 Q173.7341 1.9168 173.7341 0.6512 Q173.7341 -0.3176 174.0778 -1.2082 Q174.4216 -2.0988 175.0622 -2.802 Q175.7028 -3.5051 176.5544 -3.8957 Q177.406 -4.2863 178.406 -4.2863 Q179.7028 -4.2863 180.7653 -3.6066 Q181.8278 -2.927 182.4372 -1.7863 Q183.0466 -0.6457 183.0466 0.6512 Q183.0466 1.9168 182.4216 2.9949 Q181.7966 4.073 180.7263 4.7137 Q179.656 5.3543 178.406 5.3543 ZM178.406 4.7449 Q180.0935 4.7449 180.656 3.5262 Q181.2185 2.3074 181.2185 0.4168 Q181.2185 -0.6457 181.1013 -1.3332 Q180.9841 -2.0207 180.6091 -2.5988 Q180.3747 -2.9426 180.0075 -3.2004 Q179.6403 -3.4582 179.2419 -3.5988 Q178.8435 -3.7395 178.406 -3.7395 Q177.7497 -3.7395 177.1638 -3.4426 Q176.5778 -3.1457 176.1872 -2.5988 Q175.7966 -1.9895 175.6872 -1.2785 Q175.5778 -0.5676 175.5778 0.4168 Q175.5778 1.5887 175.781 2.5262 Q175.9841 3.4637 176.6091 4.1043 Q177.2341 4.7449 178.406 4.7449 Z"
         id="path267" />
      <path
         style="stroke:none;"
         d="M183.4801 5.1199 L183.4801 4.3855 Q184.2926 4.3855 184.9957 4.073 Q185.6988 3.7605 186.1988 3.1355 L188.1051 0.7137 L185.6207 -2.5207 Q185.2457 -2.9738 184.816 -3.0832 Q184.3863 -3.1926 183.5894 -3.1926 L183.5894 -3.927 L187.9644 -3.927 L187.9644 -3.1926 Q187.6832 -3.1926 187.441 -3.0676 Q187.1988 -2.9426 187.1988 -2.7082 Q187.1988 -2.6301 187.2613 -2.5207 L188.9488 -0.3332 L190.1988 -1.9582 Q190.4644 -2.2707 190.4644 -2.5676 Q190.4644 -2.8332 190.2926 -3.0129 Q190.1207 -3.1926 189.8394 -3.1926 L189.8394 -3.927 L193.7144 -3.927 L193.7144 -3.1926 Q192.9019 -3.1926 192.191 -2.8801 Q191.4801 -2.5676 190.9801 -1.9582 L189.3238 0.1668 L192.0113 3.7137 Q192.4019 4.1824 192.8316 4.284 Q193.2613 4.3855 194.0738 4.3855 L194.0738 5.1199 L189.6988 5.1199 L189.6988 4.3855 Q189.9644 4.3855 190.1988 4.2605 Q190.4332 4.1355 190.4332 3.9012 Q190.4332 3.8074 190.3707 3.7137 L188.4801 1.2137 L186.9801 3.1355 Q186.7301 3.4012 186.7301 3.7605 Q186.7301 4.0105 186.9097 4.198 Q187.0894 4.3855 187.3238 4.3855 L187.3238 5.1199 L183.4801 5.1199 Z"
         id="path269" />
    </g>
    <g
       style="fill:rgb(0,179,179); text-rendering:optimizeSpeed; color-rendering:optimizeSpeed; image-rendering:optimizeSpeed; shape-rendering:crispEdges; stroke:rgb(0,179,179); color-interpolation:sRGB;"
       id="g275">
      <path
         style="stroke:none;"
         d="M1325.9122 86.8653 L1325.9122 67.9066 L1285.9921 67.9066 L1285.9921 86.8653 Z"
         id="path273" />
    </g>
    <g
       style="text-rendering:geometricPrecision; stroke-width:0.6667; color-interpolation:linearRGB; color-rendering:optimizeQuality; stroke-linecap:butt; image-rendering:optimizeQuality;"
       id="g281">
      <path
         d="M1285.9921 86.8653 L1285.9921 67.9066 L1325.9122 67.9066 L1325.9122 86.8653 Z"
         style="fill:none; fill-rule:evenodd;"
         id="path277" />
      <path
         d="M1282 92 L1282 37 L1527 37 L1527 92 Z"
         style="fill:none; stroke-width:2.4; fill-rule:evenodd; stroke:rgb(38,38,38);"
         id="path279" />
    </g>
    <g
       transform="translate(0,771)"
       style="fill:gray; text-rendering:geometricPrecision; color-rendering:optimizeQuality; image-rendering:optimizeQuality; color-interpolation:linearRGB; stroke:gray;"
       id="g285">
      <circle
         r="2.6667"
         style="stroke:none;"
         cx="0"
         cy="0"
         id="circle283" />
    </g>
    <g
       transform="translate(0,771)"
       style="stroke-linecap:butt; fill:rgb(255,255,220); text-rendering:geometricPrecision; color-rendering:optimizeQuality; image-rendering:optimizeQuality; stroke:rgb(255,255,220); color-interpolation:linearRGB; stroke-width:2.4;"
       id="g289">
      <path
         style="stroke:none;"
         d="M0 -2.6667 C1.4728 -2.6667 2.6667 -1.4728 2.6667 0 L2.6667 0 C2.6667 1.4728 1.4728 2.6667 -0 2.6667 C-1.4728 2.6667 -2.6667 1.4728 -2.6667 -0 C-2.6667 -1.4728 -1.4728 -2.6667 0 -2.6667 ZM0 -4 C-2.2091 -4 -4 -2.2091 -4 -0 C-4 2.2091 -2.2091 4 -0 4 C2.2091 4 4 2.2091 4 0 L4 0 C4 -2.2091 2.2091 -4 0 -4 Z"
         id="path287" />
    </g>
  </g>
</svg>
