<?xml version="1.0" encoding="UTF-8" standalone="no"?>
<svg
   style="fill-opacity:1; color-rendering:auto; color-interpolation:auto; text-rendering:auto; stroke:black; stroke-linecap:square; stroke-miterlimit:10; shape-rendering:auto; stroke-opacity:1; fill:black; stroke-dasharray:none; font-weight:normal; stroke-width:1; font-family:'Dialog'; font-style:normal; stroke-linejoin:miter; font-size:12px; stroke-dashoffset:0; image-rendering:auto;"
   width="1712"
   height="771"
   version="1.1"
   id="svg293"
   sodipodi:docname="performance_thermo.svg"
   inkscape:version="1.1.1 (3bf5ae0d25, 2021-09-20)"
   xmlns:inkscape="http://www.inkscape.org/namespaces/inkscape"
   xmlns:sodipodi="http://sodipodi.sourceforge.net/DTD/sodipodi-0.dtd"
   xmlns="http://www.w3.org/2000/svg"
   xmlns:svg="http://www.w3.org/2000/svg">
  <sodipodi:namedview
     id="namedview295"
     pagecolor="#ffffff"
     bordercolor="#666666"
     borderopacity="1.0"
     inkscape:pageshadow="2"
     inkscape:pageopacity="0.0"
     inkscape:pagecheckerboard="0"
     showgrid="false"
     inkscape:zoom="0.66238318"
     inkscape:cx="802.40564"
     inkscape:cy="258.91358"
     inkscape:window-width="1920"
     inkscape:window-height="1009"
     inkscape:window-x="-8"
     inkscape:window-y="312"
     inkscape:window-maximized="1"
     inkscape:current-layer="g291" />
  <!--Generated by the Batik Graphics2D SVG Generator-->
  <defs
     id="genericDefs" />
  <g
     id="g291">
    <defs
       id="defs1">
      <clipPath
         clipPathUnits="userSpaceOnUse"
         id="clipPath1">
        <path
           d="M0 0 L1712 0 L1712 771 L0 771 L0 0 Z"
           id="path3" />
      </clipPath>
    </defs>
    <g
       style="fill:white; stroke:white;"
       id="g9">
      <rect
         x="0"
         y="0"
         width="1712"
         style="clip-path:url(#clipPath1); stroke:none;"
         height="771"
         clip-path="url(#clipPath1)"
         id="rect7" />
    </g>
    <g
       style="fill:white; text-rendering:optimizeSpeed; color-rendering:optimizeSpeed; image-rendering:optimizeSpeed; shape-rendering:crispEdges; stroke:white; color-interpolation:sRGB;"
       id="g15">
      <rect
         x="0"
         width="1712"
         height="771"
         y="0"
         style="stroke:none;"
         id="rect11" />
      <path
         style="stroke:none;"
         d="M223 686 L1549 686 L1549 58 L223 58 Z"
         id="path13" />
    </g>
    <g
       style="fill:rgb(38,38,38); text-rendering:geometricPrecision; image-rendering:optimizeQuality; color-rendering:optimizeQuality; stroke-linejoin:round; stroke:rgb(38,38,38); color-interpolation:linearRGB; stroke-width:2.4;"
       id="g27">
      <line
         y2="686"
         style="fill:none;"
         x1="223"
         x2="1548.9999"
         y1="686"
         id="line17" />
      <line
         y2="672.74"
         style="fill:none;"
         x1="301"
         x2="301"
         y1="686"
         id="line19" />
      <line
         y2="672.74"
         style="fill:none;"
         x1="691"
         x2="691"
         y1="686"
         id="line21" />
      <line
         y2="672.74"
         style="fill:none;"
         x1="1081"
         x2="1081"
         y1="686"
         id="line23" />
      <line
         y2="672.74"
         style="fill:none;"
         x1="1471"
         x2="1471"
         y1="686"
         id="line25" />
    </g>
    <g
       transform="translate(301,694)"
       style="font-size:26.6667px; fill:rgb(38,38,38); text-rendering:geometricPrecision; image-rendering:optimizeQuality; color-rendering:optimizeQuality; font-family:'Symbola'; stroke:rgb(38,38,38); color-interpolation:linearRGB;"
       id="g31">
      <path
         style="stroke:none;"
         d="M-2.5625 17.6562 Q-2.5625 17.9375 -2.9062 18.6406 Q-4.2812 21.3125 -7.25 21.3125 Q-9.8125 21.3125 -11.5781 19.375 Q-13.2969 17.5 -13.2969 14.9219 Q-13.2969 12.2656 -11.5938 10.3438 Q-9.8281 8.3438 -7.2031 8.3438 Q-5.6094 8.3438 -4.375 9.0625 Q-2.8906 9.9062 -2.8906 11.375 Q-2.8906 12.6875 -4.1719 12.6875 Q-4.7188 12.6875 -5.0938 12.3203 Q-5.4688 11.9531 -5.4688 11.4062 Q-5.4688 10.1562 -4.1562 10.0938 Q-5.1875 9.0625 -7.1719 9.0625 Q-7.9688 9.0625 -8.75 9.5156 Q-10.9688 10.75 -10.9688 14.8594 Q-10.9688 18.8906 -8.625 20.1562 Q-7.7969 20.6094 -7 20.6094 Q-5.5156 20.6094 -4.6094 19.7656 Q-4.0781 19.2656 -3.5781 18.2031 Q-3.1875 17.3594 -2.9375 17.3594 Q-2.5625 17.3594 -2.5625 17.6562 ZM12.5682 14.9219 Q12.5682 17.5469 10.7323 19.4297 Q8.8964 21.3125 6.287 21.3125 Q5.2714 21.3125 4.2557 20.7812 Q3.1464 20.2031 2.8182 19.3281 L2.8182 24.4375 Q2.8182 25 2.9589 25.2188 Q3.2557 25.6875 5.0057 25.5938 L5.0057 26.4531 Q2.7714 26.3906 1.8182 26.3906 Q0.8651 26.3906 -1.3224 26.4531 L-1.3224 25.5938 Q-0.838 25.6094 -0.713 25.6094 Q0.2089 25.6094 0.4745 25.4375 Q0.8807 25.1719 0.8807 24.3281 L0.8807 11.125 Q0.8807 10.4531 0.7714 10.2344 Q0.6151 9.9062 0.037 9.7656 Q-0.2755 9.7031 -1.3224 9.7344 L-1.3224 8.8281 L2.7245 8.5312 L2.7245 10.3906 Q4.3964 8.5312 6.6776 8.5312 Q9.162 8.5312 10.912 10.5 Q12.5682 12.3906 12.5682 14.9219 ZM10.2245 14.9219 Q10.2245 12.9375 9.3339 11.25 Q8.2714 9.2344 6.4589 9.2344 Q4.0995 9.2344 2.8182 11.5 L2.8182 17.7969 Q2.8182 18.4062 3.2089 18.9688 Q4.412 20.6875 6.1776 20.6875 Q8.0839 20.6875 9.2401 18.6719 Q10.2245 16.9844 10.2245 14.9219 Z"
         id="path29" />
    </g>
    <g
       transform="translate(691,694)"
       style="font-size:26.6667px; fill:rgb(38,38,38); text-rendering:geometricPrecision; image-rendering:optimizeQuality; color-rendering:optimizeQuality; font-family:'Symbola'; stroke:rgb(38,38,38); color-interpolation:linearRGB;"
       id="g35">
      <path
         style="stroke:none;"
         d="M0.3906 21 Q-2.25 20.9219 -2.8125 20.9219 Q-3.25 20.9219 -5.9688 21 L-5.9688 20.125 Q-5.5781 20.1406 -5.3438 20.1406 Q-4.5 20.1406 -4.2031 19.9844 Q-3.7656 19.7344 -3.7656 18.9844 L-3.7656 12.1406 Q-3.7656 9.1406 -5.8438 9.1406 Q-7.5625 9.1406 -8.6562 10.5781 Q-9.6562 11.9062 -9.6562 13.6719 L-9.6562 18.9375 Q-9.6562 19.4531 -9.5312 19.7031 Q-9.25 20.2188 -7.4844 20.125 L-7.4844 21 Q-10.125 20.9219 -10.6406 20.9219 Q-11.0781 20.9219 -13.7969 21 L-13.7969 20.125 Q-13.4062 20.1406 -13.1875 20.1406 Q-12.2812 20.1406 -12 19.9531 Q-11.6094 19.7031 -11.6094 18.8594 L-11.6094 4.1719 Q-11.6094 3.0156 -12.1875 2.7344 Q-12.5156 2.5781 -13.7969 2.6094 L-13.7969 1.7188 L-9.7656 1.4219 L-9.7656 11.2344 L-9.7344 11.2344 Q-9.2031 10 -8.0938 9.2656 Q-6.9844 8.5312 -5.6719 8.5312 Q-1.8125 8.5312 -1.8125 12.6719 L-1.8125 19.2812 Q-1.8125 20.2344 0.3906 20.125 L0.3906 21 ZM13.4028 12.2188 Q13.4028 16.2969 12.3716 18.4062 Q10.8091 21.5938 7.5903 21.5938 Q4.6216 21.5938 3.0591 18.8438 Q1.8403 16.6719 1.8403 12.2188 Q1.8403 8.0625 2.8403 5.9531 Q4.3716 2.7031 7.6216 2.7031 Q10.7622 2.7031 12.3091 5.7656 Q13.4028 7.9375 13.4028 12.2188 ZM11.1216 13.5625 L11.1216 10.1406 Q11.1216 7.2812 10.6216 5.7969 Q9.8247 3.2969 7.5903 3.2969 Q5.3872 3.2969 4.5747 5.8125 Q4.0903 7.3125 4.0903 10.1562 Q4.0903 10.6875 4.106 11.7656 Q4.106 12.8281 4.106 13.3594 Q4.106 16.5 4.5435 18.0938 Q5.3091 21 7.5903 21 Q9.856 21 10.6685 18.2031 Q11.1216 16.625 11.1216 13.5625 Z"
         id="path33" />
    </g>
    <g
       transform="translate(1081,694)"
       style="font-size:26.6667px; fill:rgb(38,38,38); text-rendering:geometricPrecision; image-rendering:optimizeQuality; color-rendering:optimizeQuality; font-family:'Symbola'; stroke:rgb(38,38,38); color-interpolation:linearRGB;"
       id="g39">
      <path
         style="stroke:none;"
         d="M-0.4219 9.5938 Q-0.4219 10.4375 -1.2344 10.4375 Q-2.0625 10.4375 -2.0625 9.6406 Q-2.0625 9.0625 -1.6094 8.8594 Q-1.7188 8.8281 -1.875 8.8281 Q-3.2344 8.8281 -4.4219 9.9375 Q-3.2656 11 -3.2656 12.6719 Q-3.2656 14.4375 -4.6875 15.6406 Q-6.0312 16.8125 -7.8281 16.8125 Q-9.3906 16.8125 -10.625 15.9219 Q-11.0938 16.4844 -11.0938 17.25 Q-11.0938 19.2031 -8.6875 19.2031 Q-8.4375 19.2031 -7.9453 19.1875 Q-7.4531 19.1719 -7.2031 19.1719 Q-4.0156 19.1719 -2.6562 19.9375 Q-0.7969 21.0156 -0.7969 23.1562 Q-0.7969 25.0156 -3.125 26.0156 Q-4.9219 26.7969 -7.0625 26.7969 Q-9.1562 26.7969 -10.9688 26.0156 Q-13.2969 25.0156 -13.2969 23.2344 Q-13.2969 22.2188 -12.4844 21.4219 Q-11.7656 20.7188 -10.7031 20.4219 Q-11.9375 19.6094 -11.9375 17.8906 Q-11.9375 16.5938 -11.0781 15.5625 Q-12.4062 14.4531 -12.4062 12.6562 Q-12.4062 10.8906 -10.9844 9.6719 Q-9.625 8.5312 -7.8281 8.5312 Q-6.125 8.5312 -4.8438 9.5469 Q-3.4844 8.2188 -1.8438 8.2188 Q-1.25 8.2188 -0.8359 8.6094 Q-0.4219 9 -0.4219 9.5938 ZM-5.3594 12.6562 Q-5.3594 9.1719 -7.8281 9.1719 Q-9.1719 9.1719 -9.8438 10.3281 Q-10.2969 11.0781 -10.2969 12.6719 Q-10.2969 16.1406 -7.8281 16.1406 Q-6.5 16.1406 -5.8281 15.0156 Q-5.3594 14.2344 -5.3594 12.6562 ZM-2.2969 23.2344 Q-2.2969 20.8125 -7 20.8125 L-9.5156 20.8125 Q-10.4688 20.8125 -11.1562 21.5469 Q-11.8438 22.2812 -11.8438 23.2344 Q-11.8438 24.6719 -10.0781 25.5 Q-8.6562 26.1719 -7.0312 26.1719 Q-5.4375 26.1719 -4.0312 25.5 Q-2.2969 24.6562 -2.2969 23.2344 ZM12.6143 12.2188 Q12.6143 16.2969 11.583 18.4062 Q10.0205 21.5938 6.8018 21.5938 Q3.833 21.5938 2.2705 18.8438 Q1.0518 16.6719 1.0518 12.2188 Q1.0518 8.0625 2.0518 5.9531 Q3.583 2.7031 6.833 2.7031 Q9.9737 2.7031 11.5205 5.7656 Q12.6143 7.9375 12.6143 12.2188 ZM10.333 13.5625 L10.333 10.1406 Q10.333 7.2812 9.833 5.7969 Q9.0362 3.2969 6.8018 3.2969 Q4.5987 3.2969 3.7862 5.8125 Q3.3018 7.3125 3.3018 10.1562 Q3.3018 10.6875 3.3174 11.7656 Q3.3174 12.8281 3.3174 13.3594 Q3.3174 16.5 3.7549 18.0938 Q4.5205 21 6.8018 21 Q9.0674 21 9.8799 18.2031 Q10.333 16.625 10.333 13.5625 Z"
         id="path37" />
    </g>
    <g
       transform="translate(1471,694)"
       style="font-size:26.6667px; fill:rgb(38,38,38); text-rendering:geometricPrecision; image-rendering:optimizeQuality; color-rendering:optimizeQuality; font-family:'Symbola'; stroke:rgb(38,38,38); color-interpolation:linearRGB;"
       id="g43">
      <path
         style="stroke:none;"
         d="M-2.0781 17.3906 Q-2.0781 19.3125 -3.4375 20.3594 Q-4.6406 21.3125 -6.625 21.3125 Q-8.4688 21.3125 -9.75 20.0938 Q-10.7656 21.3125 -11.0156 21.3125 Q-11.2969 21.3125 -11.2969 20.875 L-11.2969 16.6406 Q-11.2969 16.2188 -10.9375 16.2188 Q-10.6719 16.2188 -10.5469 16.6719 Q-10.0625 18.5938 -9.3438 19.5 Q-8.375 20.6875 -6.625 20.6875 Q-5.2656 20.6875 -4.4219 20.0938 Q-3.4375 19.4062 -3.4375 18.1094 Q-3.4375 16.1719 -6.3906 15.5469 Q-8.0781 15.1719 -8.3281 15.1094 Q-9.4219 14.7812 -10.0938 14.2188 Q-11.2969 13.2344 -11.2969 11.8125 Q-11.2969 10.0469 -9.875 9.125 Q-8.6719 8.3438 -6.8125 8.3438 Q-5.25 8.3438 -4.1562 9.1406 Q-3.3594 8.3438 -3.0938 8.3438 Q-2.7812 8.3438 -2.7812 8.7812 L-2.7812 12.125 Q-2.7812 12.5938 -3.1719 12.5938 Q-3.4688 12.5938 -3.5781 12.0156 Q-3.6094 11.625 -3.6562 11.2344 Q-3.8594 10.0781 -4.7656 9.4688 Q-5.5938 8.8906 -6.8125 8.8906 Q-8.0469 8.8906 -8.8906 9.3281 Q-9.9531 9.9062 -9.9531 11.0312 Q-9.9531 12.1719 -8.7188 12.75 Q-8.0781 13.0312 -6.4844 13.3594 Q-4.25 13.7812 -3.2812 14.7031 Q-2.0781 15.8281 -2.0781 17.3906 ZM10.9959 12.2188 Q10.9959 16.2969 9.9647 18.4062 Q8.4022 21.5938 5.1834 21.5938 Q2.2147 21.5938 0.6522 18.8438 Q-0.5666 16.6719 -0.5666 12.2188 Q-0.5666 8.0625 0.4334 5.9531 Q1.9647 2.7031 5.2147 2.7031 Q8.3553 2.7031 9.9022 5.7656 Q10.9959 7.9375 10.9959 12.2188 ZM8.7147 13.5625 L8.7147 10.1406 Q8.7147 7.2812 8.2147 5.7969 Q7.4178 3.2969 5.1834 3.2969 Q2.9803 3.2969 2.1678 5.8125 Q1.6834 7.3125 1.6834 10.1562 Q1.6834 10.6875 1.699 11.7656 Q1.699 12.8281 1.699 13.3594 Q1.699 16.5 2.1365 18.0938 Q2.9022 21 5.1834 21 Q7.449 21 8.2615 18.2031 Q8.7147 16.625 8.7147 13.5625 Z"
         id="path41" />
    </g>
    <g
       style="fill:rgb(38,38,38); text-rendering:geometricPrecision; image-rendering:optimizeQuality; color-rendering:optimizeQuality; stroke-linejoin:round; stroke:rgb(38,38,38); color-interpolation:linearRGB; stroke-width:2.4;"
       id="g57">
      <line
         y2="58"
         style="fill:none;"
         x1="223"
         x2="223"
         y1="686"
         id="line45" />
      <line
         y2="686"
         style="fill:none;"
         x1="223"
         x2="236.26"
         y1="686"
         id="line47" />
      <line
         y2="545.0196"
         style="fill:none;"
         x1="223"
         x2="236.26"
         y1="545.0196"
         id="line49" />
      <line
         y2="404.0392"
         style="fill:none;"
         x1="223"
         x2="236.26"
         y1="404.0392"
         id="line51" />
      <line
         y2="263.0588"
         style="fill:none;"
         x1="223"
         x2="236.26"
         y1="263.0588"
         id="line53" />
      <line
         y2="122.0785"
         style="fill:none;"
         x1="223"
         x2="236.26"
         y1="122.0785"
         id="line55" />
    </g>
    <g
       transform="translate(215,686)"
       style="font-size:26.6667px; fill:rgb(38,38,38); text-rendering:geometricPrecision; image-rendering:optimizeQuality; color-rendering:optimizeQuality; font-family:'Symbola'; stroke:rgb(38,38,38); color-interpolation:linearRGB;"
       id="g61">
      <path
         style="stroke:none;"
         d="M-1.4688 -1.2812 Q-1.4688 2.7969 -2.5 4.9062 Q-4.0625 8.0938 -7.2812 8.0938 Q-10.25 8.0938 -11.8125 5.3438 Q-13.0312 3.1719 -13.0312 -1.2812 Q-13.0312 -5.4375 -12.0312 -7.5469 Q-10.5 -10.7969 -7.25 -10.7969 Q-4.1094 -10.7969 -2.5625 -7.7344 Q-1.4688 -5.5625 -1.4688 -1.2812 ZM-3.75 0.0625 L-3.75 -3.3594 Q-3.75 -6.2188 -4.25 -7.7031 Q-5.0469 -10.2031 -7.2812 -10.2031 Q-9.4844 -10.2031 -10.2969 -7.6875 Q-10.7812 -6.1875 -10.7812 -3.3438 Q-10.7812 -2.8125 -10.7656 -1.7344 Q-10.7656 -0.6719 -10.7656 -0.1406 Q-10.7656 3 -10.3281 4.5938 Q-9.5625 7.5 -7.2812 7.5 Q-5.0156 7.5 -4.2031 4.7031 Q-3.75 3.125 -3.75 0.0625 Z"
         id="path59" />
    </g>
    <g
       transform="translate(215,545.0196)"
       style="font-size:26.6667px; fill:rgb(38,38,38); text-rendering:geometricPrecision; image-rendering:optimizeQuality; color-rendering:optimizeQuality; font-family:'Symbola'; stroke:rgb(38,38,38); color-interpolation:linearRGB;"
       id="g65">
      <path
         style="stroke:none;"
         d="M-21.4688 -1.2812 Q-21.4688 2.7969 -22.5 4.9062 Q-24.0625 8.0938 -27.2812 8.0938 Q-30.25 8.0938 -31.8125 5.3438 Q-33.0312 3.1719 -33.0312 -1.2812 Q-33.0312 -5.4375 -32.0312 -7.5469 Q-30.5 -10.7969 -27.25 -10.7969 Q-24.1094 -10.7969 -22.5625 -7.7344 Q-21.4688 -5.5625 -21.4688 -1.2812 ZM-23.75 0.0625 L-23.75 -3.3594 Q-23.75 -6.2188 -24.25 -7.7031 Q-25.0469 -10.2031 -27.2812 -10.2031 Q-29.4844 -10.2031 -30.2969 -7.6875 Q-30.7812 -6.1875 -30.7812 -3.3438 Q-30.7812 -2.8125 -30.7656 -1.7344 Q-30.7656 -0.6719 -30.7656 -0.1406 Q-30.7656 3 -30.3281 4.5938 Q-29.5625 7.5 -27.2812 7.5 Q-25.0156 7.5 -24.2031 4.7031 Q-23.75 3.125 -23.75 0.0625 ZM-15.8594 6.0625 Q-15.8594 6.6562 -16.2812 7.0781 Q-16.7031 7.5 -17.2969 7.5 Q-17.8906 7.5 -18.3125 7.0781 Q-18.7344 6.6562 -18.7344 6.0625 Q-18.7344 5.4844 -18.3125 5.0625 Q-17.8906 4.6406 -17.2969 4.6406 Q-16.7031 4.6406 -16.2812 5.0625 Q-15.8594 5.4844 -15.8594 6.0625 ZM-1.7891 1.9688 Q-1.7891 4.4688 -3.5312 6.2812 Q-5.2734 8.0938 -7.7734 8.0938 Q-9.8203 8.0938 -11.2812 6.6016 Q-12.7422 5.1094 -12.7422 3.0625 Q-12.7422 1.6094 -11.4141 1.6094 Q-10.8359 1.6094 -10.4297 1.9922 Q-10.0234 2.375 -10.0234 2.9531 Q-10.0234 3.5312 -10.4297 3.9219 Q-10.8359 4.3125 -11.4141 4.3125 Q-11.6484 4.3125 -11.8516 4.25 Q-11.4766 5.5781 -10.3359 6.4609 Q-9.1953 7.3438 -7.8203 7.3438 Q-5.9141 7.3438 -4.8672 5.5469 Q-4.2266 4.4219 -4.2266 1.7812 Q-4.2266 -0.5625 -4.7109 -1.6719 Q-5.4922 -3.4375 -7.0547 -3.4375 Q-8.2266 -3.4375 -9.1641 -2.875 Q-9.7578 -2.5156 -10.3516 -1.8281 Q-10.8516 -1.25 -10.9609 -1.25 Q-11.3516 -1.25 -11.3516 -1.7969 L-11.3516 -10.3438 Q-11.3516 -10.7812 -11.0859 -10.7812 Q-10.9609 -10.7812 -10.7422 -10.7031 Q-8.5547 -9.9219 -7.0703 -9.9219 Q-5.2891 -9.9219 -3.3516 -10.7344 Q-3.1953 -10.7969 -3.1172 -10.7969 Q-2.8516 -10.7969 -2.8516 -10.5 Q-2.8516 -10.2812 -3.3359 -9.75 Q-5.2266 -7.6406 -8.1484 -7.6406 Q-9.2891 -7.6406 -10.4766 -7.9844 L-10.4766 -2.6562 Q-9.0391 -4.0469 -6.9922 -4.0469 Q-4.6953 -4.0469 -3.1797 -2.1562 Q-1.7891 -0.3906 -1.7891 1.9688 Z"
         id="path63" />
    </g>
    <g
       transform="translate(215,404.0392)"
       style="font-size:26.6667px; fill:rgb(38,38,38); text-rendering:geometricPrecision; image-rendering:optimizeQuality; color-rendering:optimizeQuality; font-family:'Symbola'; stroke:rgb(38,38,38); color-interpolation:linearRGB;"
       id="g69">
      <path
         style="stroke:none;"
         d="M-2.7188 7.5 Q-3.6562 7.4219 -4.5 7.4219 L-9.8281 7.4219 Q-10.6719 7.4219 -11.6094 7.5 L-11.6094 6.6562 Q-11.4531 6.6562 -11.1172 6.6719 Q-10.7812 6.6875 -10.6094 6.6875 Q-8.5938 6.6875 -8.2969 6.1094 Q-8.1875 5.875 -8.1875 5.4219 L-8.1875 -8.9062 Q-9.625 -8.2031 -11.7656 -8.2031 L-11.7656 -9.0469 Q-8.4688 -9.0469 -6.7812 -10.7969 L-6.6406 -10.7969 Q-6.2656 -10.7969 -6.1875 -10.6094 Q-6.1406 -10.5312 -6.1406 -10.0938 L-6.1406 5.4688 Q-6.1406 5.9062 -6.0312 6.125 Q-5.8438 6.5625 -4.5 6.6562 Q-4.3125 6.6719 -2.7188 6.6562 L-2.7188 7.5 Z"
         id="path67" />
    </g>
    <g
       transform="translate(215,263.0588)"
       style="font-size:26.6667px; fill:rgb(38,38,38); text-rendering:geometricPrecision; image-rendering:optimizeQuality; color-rendering:optimizeQuality; font-family:'Symbola'; stroke:rgb(38,38,38); color-interpolation:linearRGB;"
       id="g73">
      <path
         style="stroke:none;"
         d="M-22.7188 7.5 Q-23.6562 7.4219 -24.5 7.4219 L-29.8281 7.4219 Q-30.6719 7.4219 -31.6094 7.5 L-31.6094 6.6562 Q-31.4531 6.6562 -31.1172 6.6719 Q-30.7812 6.6875 -30.6094 6.6875 Q-28.5938 6.6875 -28.2969 6.1094 Q-28.1875 5.875 -28.1875 5.4219 L-28.1875 -8.9062 Q-29.625 -8.2031 -31.7656 -8.2031 L-31.7656 -9.0469 Q-28.4688 -9.0469 -26.7812 -10.7969 L-26.6406 -10.7969 Q-26.2656 -10.7969 -26.1875 -10.6094 Q-26.1406 -10.5312 -26.1406 -10.0938 L-26.1406 5.4688 Q-26.1406 5.9062 -26.0312 6.125 Q-25.8438 6.5625 -24.5 6.6562 Q-24.3125 6.6719 -22.7188 6.6562 L-22.7188 7.5 ZM-15.8594 6.0625 Q-15.8594 6.6562 -16.2812 7.0781 Q-16.7031 7.5 -17.2969 7.5 Q-17.8906 7.5 -18.3125 7.0781 Q-18.7344 6.6562 -18.7344 6.0625 Q-18.7344 5.4844 -18.3125 5.0625 Q-17.8906 4.6406 -17.2969 4.6406 Q-16.7031 4.6406 -16.2812 5.0625 Q-15.8594 5.4844 -15.8594 6.0625 ZM-1.7891 1.9688 Q-1.7891 4.4688 -3.5312 6.2812 Q-5.2734 8.0938 -7.7734 8.0938 Q-9.8203 8.0938 -11.2812 6.6016 Q-12.7422 5.1094 -12.7422 3.0625 Q-12.7422 1.6094 -11.4141 1.6094 Q-10.8359 1.6094 -10.4297 1.9922 Q-10.0234 2.375 -10.0234 2.9531 Q-10.0234 3.5312 -10.4297 3.9219 Q-10.8359 4.3125 -11.4141 4.3125 Q-11.6484 4.3125 -11.8516 4.25 Q-11.4766 5.5781 -10.3359 6.4609 Q-9.1953 7.3438 -7.8203 7.3438 Q-5.9141 7.3438 -4.8672 5.5469 Q-4.2266 4.4219 -4.2266 1.7812 Q-4.2266 -0.5625 -4.7109 -1.6719 Q-5.4922 -3.4375 -7.0547 -3.4375 Q-8.2266 -3.4375 -9.1641 -2.875 Q-9.7578 -2.5156 -10.3516 -1.8281 Q-10.8516 -1.25 -10.9609 -1.25 Q-11.3516 -1.25 -11.3516 -1.7969 L-11.3516 -10.3438 Q-11.3516 -10.7812 -11.0859 -10.7812 Q-10.9609 -10.7812 -10.7422 -10.7031 Q-8.5547 -9.9219 -7.0703 -9.9219 Q-5.2891 -9.9219 -3.3516 -10.7344 Q-3.1953 -10.7969 -3.1172 -10.7969 Q-2.8516 -10.7969 -2.8516 -10.5 Q-2.8516 -10.2812 -3.3359 -9.75 Q-5.2266 -7.6406 -8.1484 -7.6406 Q-9.2891 -7.6406 -10.4766 -7.9844 L-10.4766 -2.6562 Q-9.0391 -4.0469 -6.9922 -4.0469 Q-4.6953 -4.0469 -3.1797 -2.1562 Q-1.7891 -0.3906 -1.7891 1.9688 Z"
         id="path71" />
    </g>
    <g
       transform="translate(215,122.0785)"
       style="font-size:26.6667px; fill:rgb(38,38,38); text-rendering:geometricPrecision; image-rendering:optimizeQuality; color-rendering:optimizeQuality; font-family:'Symbola'; stroke:rgb(38,38,38); color-interpolation:linearRGB;"
       id="g77">
      <path
         style="stroke:none;"
         d="M-1.7812 2.7344 L-2.5312 7.5 L-12.7344 7.5 L-12.7344 7.2656 Q-12.7344 6.8281 -12.4219 6.4688 L-7.1406 0.6094 Q-4.2656 -2.5938 -4.2656 -5.4688 Q-4.2656 -7.3125 -5.1875 -8.5625 Q-6.1875 -9.9531 -7.9531 -9.9531 Q-9.2344 -9.9531 -10.2344 -9.1797 Q-11.2344 -8.4062 -11.6719 -7.1562 Q-11.5781 -7.1875 -11.4375 -7.1875 Q-9.8438 -7.1875 -9.8438 -5.75 Q-9.8438 -5.1406 -10.2578 -4.7188 Q-10.6719 -4.2969 -11.2656 -4.2969 Q-12.7344 -4.2969 -12.7344 -5.8281 Q-12.7344 -7.9062 -11.2031 -9.3516 Q-9.6719 -10.7969 -7.5938 -10.7969 Q-5.1562 -10.7969 -3.5 -9.375 Q-1.7812 -7.875 -1.7812 -5.4688 Q-1.7812 -3.9219 -2.7969 -2.4688 Q-3.375 -1.6406 -4.9688 -0.0781 L-10.6094 5.3906 L-5.125 5.3906 Q-3.3281 5.3906 -3.0703 5.1719 Q-2.8125 4.9531 -2.4688 2.7344 L-1.7812 2.7344 Z"
         id="path75" />
    </g>
    <g
       transform="translate(177,371.9997) rotate(-90)"
       style="font-size:29.3333px; fill:rgb(38,38,38); text-rendering:geometricPrecision; image-rendering:optimizeQuality; color-rendering:optimizeQuality; font-family:'mwa_cmr10'; stroke:rgb(38,38,38); color-interpolation:linearRGB;"
       id="g93">
      <path
         style="stroke:none;"
         d="M-47.3234 -10.5601 L-47.3234 -11.5757 Q-45.8703 -11.5757 -44.4953 -11.7398 Q-43.1203 -11.9039 -43.1203 -12.4976 L-43.1203 -28.4351 Q-43.1203 -29.0601 -43.4719 -29.2085 Q-43.8234 -29.357 -44.6047 -29.357 L-45.8078 -29.357 Q-48.2141 -29.357 -49.2141 -28.3101 Q-49.7297 -27.7789 -49.9562 -26.6226 Q-50.1828 -25.4664 -50.3391 -23.732 L-51.1828 -23.732 L-50.6359 -30.3726 L-32.9172 -30.3726 L-32.3703 -23.732 L-33.2141 -23.732 Q-33.3859 -25.5914 -33.5891 -26.6929 Q-33.7922 -27.7945 -34.3234 -28.3101 Q-35.3547 -29.357 -37.7297 -29.357 L-38.9484 -29.357 Q-39.4641 -29.357 -39.7609 -29.3101 Q-40.0578 -29.2632 -40.2375 -29.0601 Q-40.4172 -28.857 -40.4172 -28.4351 L-40.4172 -12.4976 Q-40.4172 -11.9039 -39.0422 -11.7398 Q-37.6672 -11.5757 -36.2297 -11.5757 L-36.2297 -10.5601 L-47.3234 -10.5601 Z"
         id="path79" />
      <path
         style="stroke:none;"
         d="M-30.1539 -10.5601 L-30.1539 -11.5757 Q-29.1539 -11.5757 -28.521 -11.732 Q-27.8882 -11.8882 -27.8882 -12.4976 L-27.8882 -20.4195 Q-27.8882 -21.5289 -28.3179 -21.7867 Q-28.7476 -22.0445 -30.0289 -22.0445 L-30.0289 -23.0601 L-25.8414 -23.3726 L-25.8414 -12.4976 Q-25.8414 -11.8882 -25.2945 -11.732 Q-24.7476 -11.5757 -23.8257 -11.5757 L-23.8257 -10.5601 L-30.1539 -10.5601 ZM-28.9195 -28.357 Q-28.9195 -28.9976 -28.4351 -29.482 Q-27.9507 -29.9664 -27.3414 -29.9664 Q-26.9195 -29.9664 -26.5367 -29.7476 Q-26.1539 -29.5289 -25.9429 -29.146 Q-25.732 -28.7632 -25.732 -28.357 Q-25.732 -27.732 -26.2164 -27.2554 Q-26.7007 -26.7789 -27.3414 -26.7789 Q-27.9507 -26.7789 -28.4351 -27.2554 Q-28.9195 -27.732 -28.9195 -28.357 Z"
         id="path81" />
      <path
         style="stroke:none;"
         d="M-22.0369 -10.5601 L-22.0369 -11.5757 Q-21.0369 -11.5757 -20.4041 -11.732 Q-19.7713 -11.8882 -19.7713 -12.4976 L-19.7713 -20.4195 Q-19.7713 -21.2007 -20.0057 -21.5445 Q-20.2401 -21.8882 -20.6776 -21.9664 Q-21.1151 -22.0445 -22.0369 -22.0445 L-22.0369 -23.0601 L-17.8338 -23.3726 L-17.8338 -20.5445 Q-17.2401 -21.7945 -16.0994 -22.5835 Q-14.9588 -23.3726 -13.6151 -23.3726 Q-10.2869 -23.3726 -9.6932 -20.6539 Q-9.1151 -21.8726 -7.9979 -22.6226 Q-6.8807 -23.3726 -5.5526 -23.3726 Q-4.2401 -23.3726 -3.3338 -22.9507 Q-2.4276 -22.5289 -1.9744 -21.6539 Q-1.5213 -20.7789 -1.5213 -19.4664 L-1.5213 -12.4976 Q-1.5213 -11.8882 -0.8807 -11.732 Q-0.2401 -11.5757 0.7443 -11.5757 L0.7443 -10.5601 L-5.8963 -10.5601 L-5.8963 -11.5757 Q-4.9119 -11.5757 -4.2713 -11.732 Q-3.6307 -11.8882 -3.6307 -12.4976 L-3.6307 -19.3882 Q-3.6307 -20.8414 -4.0447 -21.732 Q-4.4588 -22.6226 -5.7401 -22.6226 Q-7.4119 -22.6226 -8.4979 -21.2789 Q-9.5838 -19.9351 -9.5838 -18.2164 L-9.5838 -12.4976 Q-9.5838 -11.8882 -8.951 -11.732 Q-8.3182 -11.5757 -7.3182 -11.5757 L-7.3182 -10.5601 L-13.9588 -10.5601 L-13.9588 -11.5757 Q-12.9744 -11.5757 -12.3338 -11.732 Q-11.6932 -11.8882 -11.6932 -12.4976 L-11.6932 -19.3882 Q-11.6932 -20.7945 -12.1072 -21.7085 Q-12.5213 -22.6226 -13.7869 -22.6226 Q-15.4744 -22.6226 -16.5604 -21.2789 Q-17.6463 -19.9351 -17.6463 -18.2164 L-17.6463 -12.4976 Q-17.6463 -11.8882 -17.0057 -11.732 Q-16.3651 -11.5757 -15.3963 -11.5757 L-15.3963 -10.5601 L-22.0369 -10.5601 Z"
         id="path83" />
      <path
         style="stroke:none;"
         d="M8.767 -10.232 Q7.0013 -10.232 5.5248 -11.1617 Q4.0482 -12.0914 3.2045 -13.6382 Q2.3607 -15.1851 2.3607 -16.9195 Q2.3607 -18.6226 3.1263 -20.146 Q3.892 -21.6695 5.2748 -22.6148 Q6.6576 -23.5601 8.3607 -23.5601 Q9.6888 -23.5601 10.6732 -23.1148 Q11.6576 -22.6695 12.2982 -21.8726 Q12.9388 -21.0757 13.2592 -20.0054 Q13.5795 -18.9351 13.5795 -17.6382 Q13.5795 -17.2632 13.2826 -17.2632 L4.892 -17.2632 L4.892 -16.9507 Q4.892 -14.5445 5.8607 -12.8179 Q6.8295 -11.0914 9.0326 -11.0914 Q9.9232 -11.0914 10.681 -11.482 Q11.4388 -11.8726 11.9935 -12.5835 Q12.5482 -13.2945 12.7513 -14.107 Q12.7826 -14.2007 12.8607 -14.2789 Q12.9388 -14.357 13.0326 -14.357 L13.2826 -14.357 Q13.5795 -14.357 13.5795 -13.982 Q13.1732 -12.3414 11.8138 -11.2867 Q10.4545 -10.232 8.767 -10.232 ZM4.9232 -17.982 L11.5326 -17.982 Q11.5326 -19.0757 11.2279 -20.1929 Q10.9232 -21.3101 10.2123 -22.0523 Q9.5013 -22.7945 8.3607 -22.7945 Q6.7201 -22.7945 5.8217 -21.2554 Q4.9232 -19.7164 4.9232 -17.982 Z"
         id="path85" />
      <path
         style="stroke:none;"
         d="M27.7849 -3.3101 L27.7849 -32.3101 L31.7536 -32.3101 L31.7536 -31.1539 L28.9568 -31.1539 L28.9568 -4.4664 L31.7536 -4.4664 L31.7536 -3.3101 L27.7849 -3.3101 Z"
         id="path87" />
      <path
         style="stroke:none;"
         d="M33.4799 -10.482 L33.4799 -15.2007 Q33.4799 -15.4351 33.7299 -15.4351 L34.0893 -15.4351 Q34.2456 -15.4351 34.3081 -15.2007 Q35.1206 -10.9976 38.2143 -10.9976 Q39.5893 -10.9976 40.519 -11.6226 Q41.4487 -12.2476 41.4487 -13.5445 Q41.4487 -14.482 40.7221 -15.1382 Q39.9956 -15.7945 39.0112 -16.0445 L37.0737 -16.4195 Q36.0893 -16.6382 35.2924 -17.0757 Q34.4956 -17.5132 33.9877 -18.2398 Q33.4799 -18.9664 33.4799 -19.9351 Q33.4799 -21.2164 34.1518 -22.0289 Q34.8237 -22.8414 35.894 -23.2007 Q36.9643 -23.5601 38.2143 -23.5601 Q39.6987 -23.5601 40.8081 -22.7632 L41.6518 -23.482 Q41.6518 -23.5601 41.7924 -23.5601 L41.9956 -23.5601 Q42.0893 -23.5601 42.1596 -23.482 Q42.2299 -23.4039 42.2299 -23.3257 L42.2299 -19.5289 Q42.2299 -19.2476 41.9956 -19.2476 L41.6518 -19.2476 Q41.3862 -19.2476 41.3862 -19.5289 Q41.3862 -21.0445 40.5424 -21.9585 Q39.6987 -22.8726 38.1831 -22.8726 Q36.8862 -22.8726 35.9331 -22.396 Q34.9799 -21.9195 34.9799 -20.7476 Q34.9799 -19.9351 35.6674 -19.4195 Q36.3549 -18.9039 37.2768 -18.6695 L39.2299 -18.3101 Q40.2299 -18.0757 41.0893 -17.5367 Q41.9487 -16.9976 42.4487 -16.1773 Q42.9487 -15.357 42.9487 -14.3257 Q42.9487 -13.2789 42.5893 -12.5054 Q42.2299 -11.732 41.5815 -11.2242 Q40.9331 -10.7164 40.0581 -10.4742 Q39.1831 -10.232 38.2143 -10.232 Q36.4018 -10.232 35.1206 -11.4507 L34.0581 -10.3101 Q34.0581 -10.232 33.9018 -10.232 L33.7299 -10.232 Q33.4799 -10.232 33.4799 -10.482 Z"
         id="path89" />
      <path
         style="stroke:none;"
         d="M44.7222 -3.3101 L44.7222 -4.4664 L47.5347 -4.4664 L47.5347 -31.1539 L44.7222 -31.1539 L44.7222 -32.3101 L48.6909 -32.3101 L48.6909 -3.3101 L44.7222 -3.3101 Z"
         id="path91" />
    </g>
    <g
       transform="translate(886.0009,37.5)"
       style="font-size:34.6667px;font-family:mwa_cmr10;color-interpolation:linearRGB;color-rendering:optimizeQuality;image-rendering:optimizeQuality;text-rendering:geometricPrecision"
       id="g145">
      <path
         style="stroke:none"
         d="m -223.769,-12.4801 v -1.2344 q 4.375,0 4.375,-1.1094 v -18.375 q -1.8125,0.875 -4.5781,0.875 v -1.2344 q 4.2813,0 6.4688,-2.2343 h 0.5 q 0.125,0 0.2343,0.0937 0.1094,0.0938 0.1094,0.2188 v 20.6562 q 0,1.1094 4.375,1.1094 v 1.2344 z"
         id="path95" />
      <path
         style="stroke:none"
         d="m -200.9356,-11.7145 q -4.2968,0 -5.8359,-3.5313 -1.5391,-3.5312 -1.5391,-8.3906 0,-3.0469 0.5547,-5.7265 0.5547,-2.6797 2.2032,-4.5547 1.6484,-1.875 4.6171,-1.875 2.3125,0 3.7813,1.125 1.4687,1.125 2.2344,2.914 0.7656,1.7891 1.0468,3.8282 0.2813,2.039 0.2813,4.289 0,3 -0.5547,5.625 -0.5547,2.625 -2.1797,4.461 -1.625,1.8359 -4.6094,1.8359 z m 0,-0.9063 q 1.9532,0 2.9063,-2 0.9531,-2 1.1797,-4.4218 0.2265,-2.4219 0.2265,-5.1563 0,-2.6406 -0.2265,-4.8594 -0.2266,-2.2187 -1.1719,-4.0234 -0.9453,-1.8047 -2.9141,-1.8047 -1.9843,0 -2.9375,1.8125 -0.9531,1.8125 -1.1796,4.0235 -0.2266,2.2109 -0.2266,4.8515 0,1.9375 0.0937,3.6641 0.0938,1.7265 0.5079,3.5625 0.414,1.8359 1.3281,3.0937 0.914,1.2578 2.414,1.2578 z"
         id="path97" />
      <path
         style="stroke:none"
         d="m -183.6022,-11.7145 q -4.2969,0 -5.8359,-3.5313 -1.5391,-3.5312 -1.5391,-8.3906 0,-3.0469 0.5547,-5.7265 0.5547,-2.6797 2.2031,-4.5547 1.6485,-1.875 4.6172,-1.875 2.3125,0 3.7813,1.125 1.4687,1.125 2.2343,2.914 0.7657,1.7891 1.0469,3.8282 0.2813,2.039 0.2813,4.289 0,3 -0.5547,5.625 -0.5547,2.625 -2.1797,4.461 -1.625,1.8359 -4.6094,1.8359 z m 0,-0.9063 q 1.9531,0 2.9063,-2 0.9531,-2 1.1796,-4.4218 0.2266,-2.4219 0.2266,-5.1563 0,-2.6406 -0.2266,-4.8594 -0.2265,-2.2187 -1.1718,-4.0234 -0.9453,-1.8047 -2.9141,-1.8047 -1.9844,0 -2.9375,1.8125 -0.9531,1.8125 -1.1797,4.0235 -0.2265,2.2109 -0.2265,4.8515 0,1.9375 0.0937,3.6641 0.0938,1.7265 0.5078,3.5625 0.4141,1.8359 1.3281,3.0937 0.9141,1.2578 2.4141,1.2578 z"
         id="path99" />
      <path
         style="stroke:none"
         d="m -171.7688,-12.4801 v -1.2344 q 4.375,0 4.375,-1.1094 v -18.375 q -1.8125,0.875 -4.5781,0.875 v -1.2344 q 4.2812,0 6.4687,-2.2343 h 0.5 q 0.125,0 0.2344,0.0937 0.1094,0.0938 0.1094,0.2188 v 20.6562 q 0,1.1094 4.375,1.1094 v 1.2344 z"
         id="path101" />
      <path
         style="stroke:none"
         d="m -148.9354,-11.7145 q -4.2969,0 -5.8359,-3.5313 -1.5391,-3.5312 -1.5391,-8.3906 0,-3.0469 0.5547,-5.7265 0.5547,-2.6797 2.2031,-4.5547 1.6484,-1.875 4.6172,-1.875 2.3125,0 3.7812,1.125 1.4688,1.125 2.2344,2.914 0.7656,1.7891 1.0469,3.8282 0.2812,2.039 0.2812,4.289 0,3 -0.5546,5.625 -0.5547,2.625 -2.1797,4.461 -1.625,1.8359 -4.6094,1.8359 z m 0,-0.9063 q 1.9531,0 2.9062,-2 0.9532,-2 1.1797,-4.4218 0.2266,-2.4219 0.2266,-5.1563 0,-2.6406 -0.2266,-4.8594 -0.2265,-2.2187 -1.1718,-4.0234 -0.9454,-1.8047 -2.9141,-1.8047 -1.9844,0 -2.9375,1.8125 -0.9531,1.8125 -1.1797,4.0235 -0.2266,2.2109 -0.2266,4.8515 0,1.9375 0.0938,3.6641 0.0937,1.7265 0.5078,3.5625 0.4141,1.8359 1.3281,3.0937 0.9141,1.2578 2.4141,1.2578 z"
         id="path103" />
      <path
         style="stroke:none"
         d="m -131.602,-11.7145 q -4.2969,0 -5.836,-3.5313 -1.539,-3.5312 -1.539,-8.3906 0,-3.0469 0.5547,-5.7265 0.5547,-2.6797 2.2031,-4.5547 1.6484,-1.875 4.6172,-1.875 2.3125,0 3.7812,1.125 1.4688,1.125 2.2344,2.914 0.7656,1.7891 1.0469,3.8282 0.2812,2.039 0.2812,4.289 0,3 -0.5547,5.625 -0.5546,2.625 -2.1796,4.461 -1.625,1.8359 -4.6094,1.8359 z m 0,-0.9063 q 1.9531,0 2.9062,-2 0.9532,-2 1.1797,-4.4218 0.2266,-2.4219 0.2266,-5.1563 0,-2.6406 -0.2266,-4.8594 -0.2265,-2.2187 -1.1719,-4.0234 -0.9453,-1.8047 -2.914,-1.8047 -1.9844,0 -2.9375,1.8125 -0.9531,1.8125 -1.1797,4.0235 -0.2266,2.2109 -0.2266,4.8515 0,1.9375 0.0938,3.6641 0.0937,1.7265 0.5078,3.5625 0.4141,1.8359 1.3281,3.0937 0.9141,1.2578 2.4141,1.2578 z"
         id="path105" />
      <path
         style="stroke:none"
         d="m -102.7443,-12.0895 q -2.125,0 -3.8516,-1.1016 -1.7266,-1.1015 -2.7188,-2.9375 -0.9921,-1.8359 -0.9921,-3.8984 0,-2.0781 0.9843,-3.9766 0.9844,-1.8984 2.7188,-3.0312 1.7344,-1.1328 3.8594,-1.1328 2.0468,0 3.7343,0.8047 1.6875,0.8046 1.6875,2.6328 0,0.6875 -0.4922,1.1875 -0.4921,0.5 -1.1953,0.5 -0.6875,0 -1.1797,-0.5 -0.4921,-0.5 -0.4921,-1.1875 0,-0.625 0.3906,-1.0782 0.3906,-0.4531 0.9844,-0.5625 -1.2188,-0.7656 -3.4063,-0.7656 -1.6719,0 -2.6953,1.1094 -1.0234,1.1094 -1.4375,2.75 -0.4141,1.6406 -0.4141,3.25 0,1.6875 0.5078,3.2656 0.5079,1.5781 1.625,2.6172 1.1172,1.0391 2.8047,1.0391 1.6563,0 2.8203,-1.0235 1.1641,-1.0234 1.586,-2.664 0,-0.2032 0.2812,-0.2032 h 0.4219 q 0.1094,0 0.1953,0.0938 0.086,0.0937 0.086,0.2187 v 0.0938 q -0.5313,2.0781 -2.1016,3.2891 -1.5703,1.2109 -3.7109,1.2109 z"
         id="path107" />
      <path
         style="stroke:none"
         d="m -87.3057,-12.0895 q -2.1094,0 -3.8984,-1.0703 -1.7891,-1.0703 -2.836,-2.8594 -1.0468,-1.7891 -1.0468,-3.9141 0,-1.6093 0.5781,-3.0937 0.5781,-1.4844 1.6406,-2.6563 1.0625,-1.1718 2.4844,-1.8281 1.4219,-0.6562 3.0781,-0.6562 2.1563,0 3.9219,1.1328 1.7656,1.1328 2.789,3.039 1.0235,1.9063 1.0235,4.0625 0,2.1094 -1.0391,3.9063 -1.039,1.7969 -2.8281,2.8672 -1.7891,1.0703 -3.8672,1.0703 z m 0,-1.0156 q 2.7969,0 3.7422,-2.0391 0.9453,-2.0391 0.9453,-5.1797 0,-1.7656 -0.1875,-2.914 -0.1875,-1.1485 -0.8281,-2.1016 -0.3906,-0.5781 -1,-1.0078 -0.6094,-0.4297 -1.2813,-0.6641 -0.6718,-0.2344 -1.3906,-0.2344 -1.0937,0 -2.0781,0.4922 -0.9844,0.4922 -1.625,1.4141 -0.6563,1 -0.836,2.1875 -0.1796,1.1875 -0.1796,2.8281 0,1.9688 0.3437,3.5313 0.3438,1.5625 1.375,2.625 1.0313,1.0625 3,1.0625 z"
         id="path109" />
      <path
         style="stroke:none"
         d="m -77.6754,-12.4801 v -1.2344 q 1.1875,0 1.9609,-0.1875 0.7734,-0.1875 0.7734,-0.9219 v -9.5469 q 0,-0.9375 -0.2812,-1.3593 -0.2813,-0.4219 -0.8125,-0.5157 -0.5313,-0.0937 -1.6406,-0.0937 v -1.2344 l 5.0781,-0.375 v 3.4219 q 0.6875,-1.5 2.0703,-2.4609 1.3828,-0.961 2.9922,-0.961 4.0469,0 4.7344,3.2813 0.7031,-1.4688 2.0546,-2.375 1.3516,-0.9063 2.961,-0.9063 1.5937,0 2.6719,0.5156 1.0781,0.5157 1.625,1.5625 0.5468,1.0469 0.5468,2.6407 v 8.4062 q 0,0.7344 0.7813,0.9219 0.7812,0.1875 1.9531,0.1875 v 1.2344 h -8 v -1.2344 q 1.1875,0 1.9609,-0.1875 0.7735,-0.1875 0.7735,-0.9219 v -8.2969 q 0,-1.7656 -0.5,-2.8437 -0.5,-1.0781 -2.0313,-1.0781 -2.0156,0 -3.3359,1.625 -1.3203,1.625 -1.3203,3.6875 v 6.9062 q 0,0.7344 0.7734,0.9219 0.7735,0.1875 1.961,0.1875 v 1.2344 h -8.0157 v -1.2344 q 1.2032,0 1.9688,-0.1875 0.7656,-0.1875 0.7656,-0.9219 v -8.2969 q 0,-1.7187 -0.4922,-2.8203 -0.4922,-1.1015 -2.039,-1.1015 -2.0313,0 -3.336,1.625 -1.3047,1.625 -1.3047,3.6875 v 6.9062 q 0,0.7344 0.7657,0.9219 0.7656,0.1875 1.9531,0.1875 v 1.2344 z"
         id="path111" />
      <path
         style="stroke:none"
         d="M -48.9271,-5.6989 V -6.902 q 1.2031,0 1.9688,-0.2109 0.7656,-0.211 0.7656,-0.9297 V -24.902 q 0,-0.9531 -0.6875,-1.1953 -0.6875,-0.2422 -2.0469,-0.2422 v -1.2344 l 5.1719,-0.375 v 2.1719 q 0.9687,-1.0625 2.2422,-1.6172 1.2734,-0.5547 2.6953,-0.5547 2.0781,0 3.7344,1.1172 1.6562,1.1172 2.5859,2.9375 0.9297,1.8203 0.9297,3.8672 0,2.1094 -1.0313,3.9375 -1.0312,1.8281 -2.8203,2.9141 -1.789,1.0859 -3.914,1.0859 -2.5469,0 -4.3125,-2.0625 v 6.1094 q 0,0.7187 0.7734,0.9297 0.7734,0.2109 1.9609,0.2109 v 1.2031 z m 5.2813,-10.1875 q 0.6093,1.25 1.7031,2.0625 1.0937,0.8125 2.3906,0.8125 1.2188,0 2.1485,-0.6484 0.9296,-0.6485 1.5625,-1.7422 0.6328,-1.0938 0.9375,-2.2969 0.3046,-1.2031 0.3046,-2.3281 0,-1.4063 -0.5078,-3.0391 -0.5078,-1.6328 -1.539,-2.75 -1.0313,-1.1172 -2.5,-1.1172 -1.4219,0 -2.6094,0.7266 -1.1875,0.7266 -1.8906,1.9609 z"
         id="path113" />
      <path
         style="stroke:none"
         d="m -26.7928,-16.652 v -7.7188 q 0,-0.9375 -0.2812,-1.3593 -0.2813,-0.4219 -0.8125,-0.5157 -0.5313,-0.0937 -1.6406,-0.0937 v -1.2344 l 5.2968,-0.375 v 11.2969 q 0,1.375 0.1953,2.1328 0.1954,0.7578 0.836,1.1328 0.6406,0.375 2.0469,0.375 1.875,0 2.9843,-1.5703 1.1094,-1.5703 1.1094,-3.5703 v -6.2188 q 0,-0.9375 -0.2891,-1.3593 -0.289,-0.4219 -0.8125,-0.5157 -0.5234,-0.0937 -1.6328,-0.0937 v -1.2344 l 5.2813,-0.375 v 12.2969 q 0,0.9219 0.2812,1.3359 0.2813,0.4141 0.8125,0.5078 0.5313,0.0938 1.6407,0.0938 v 1.2344 l -5.1719,0.3906 v -2.9531 q -0.6563,1.3125 -1.8203,2.1328 -1.1641,0.8203 -2.5547,0.8203 -2.5156,0 -3.9922,-1.0703 -1.4766,-1.0703 -1.4766,-3.4922 z"
         id="path115" />
      <path
         style="stroke:none"
         d="m -7.7366,-16.6833 v -9.6562 h -2.9062 v -0.9063 q 2.2812,0 3.3594,-2.1328 1.0781,-2.1328 1.0781,-4.6328 h 1.0156 v 6.4375 h 4.9375 v 1.2344 h -4.9375 v 9.5937 q 0,1.4532 0.4844,2.5469 0.4844,1.0938 1.75,1.0938 1.1875,0 1.7187,-1.1563 0.5313,-1.1562 0.5313,-2.4844 v -2.0781 h 1.0156 v 2.1406 q 0,1.0938 -0.4062,2.1641 -0.4063,1.0703 -1.1875,1.75 -0.7813,0.6797 -1.9063,0.6797 -2.1094,0 -3.3281,-1.2578 -1.2188,-1.2578 -1.2188,-3.336 z"
         id="path117" />
      <path
         style="stroke:none"
         d="m 3.5731,-15.9176 q 0,-2.0782 1.6406,-3.3907 1.6406,-1.3125 3.9375,-1.8515 2.2969,-0.5391 4.3594,-0.5391 v -1.4219 q 0,-1.0156 -0.4453,-1.9609 -0.4453,-0.9453 -1.2813,-1.5547 -0.8359,-0.6094 -1.8359,-0.6094 -2.3281,0 -3.5469,1.0469 0.6719,0 1.1094,0.5 0.4375,0.5 0.4375,1.1719 0,0.7031 -0.5,1.1953 -0.5,0.4922 -1.1719,0.4922 -0.7031,0 -1.2031,-0.4922 -0.5,-0.4922 -0.5,-1.1953 0,-1.8438 1.6797,-2.7422 1.6797,-0.8984 3.6953,-0.8984 1.4062,0 2.8437,0.6093 1.4375,0.6094 2.3516,1.7344 0.914,1.125 0.914,2.625 v 7.875 q 0,0.6875 0.2891,1.2578 0.2891,0.5703 0.9141,0.5703 0.5781,0 0.8593,-0.5781 0.2813,-0.5781 0.2813,-1.25 v -2.2344 h 1.0312 v 2.2344 q 0,0.7969 -0.414,1.5078 -0.4141,0.711 -1.1016,1.125 -0.6875,0.4141 -1.5,0.4141 -1.0156,0 -1.7656,-0.7969 -0.75,-0.7969 -0.8281,-1.8906 -0.6563,1.3281 -1.9141,2.1016 -1.2578,0.7734 -2.6953,0.7734 -1.3437,0 -2.6328,-0.3906 -1.2891,-0.3907 -2.1484,-1.2344 -0.8594,-0.8438 -0.8594,-2.2031 z m 2.8281,0 q 0,1.2343 0.9063,2.0703 0.9062,0.8359 2.1406,0.8359 1.125,0 2.0469,-0.5625 0.9218,-0.5625 1.4687,-1.539 0.5469,-0.9766 0.5469,-2.0547 v -3.6407 q -1.5781,0 -3.25,0.5235 -1.6719,0.5234 -2.7656,1.6328 -1.0938,1.1094 -1.0938,2.7344 z"
         id="path119" />
      <path
         style="stroke:none"
         d="m 23.0783,-16.6833 v -9.6562 h -2.9062 v -0.9063 q 2.2812,0 3.3594,-2.1328 1.0781,-2.1328 1.0781,-4.6328 h 1.0156 v 6.4375 h 4.9375 v 1.2344 h -4.9375 v 9.5937 q 0,1.4532 0.4844,2.5469 0.4844,1.0938 1.75,1.0938 1.1875,0 1.7187,-1.1563 0.5313,-1.1562 0.5313,-2.4844 v -2.0781 h 1.0156 v 2.1406 q 0,1.0938 -0.4062,2.1641 -0.4063,1.0703 -1.1875,1.75 -0.7813,0.6797 -1.9063,0.6797 -2.1094,0 -3.3281,-1.2578 -1.2188,-1.2578 -1.2188,-3.336 z"
         id="path121" />
      <path
         style="stroke:none"
         d="m 34.0599,-12.4801 v -1.2344 q 1.1875,0 1.9609,-0.1875 0.7734,-0.1875 0.7734,-0.9219 v -9.5469 q 0,-1.3593 -0.5234,-1.664 -0.5234,-0.3047 -2.0547,-0.3047 v -1.2344 l 5.0313,-0.375 v 13.125 q 0,0.7344 0.6718,0.9219 0.6719,0.1875 1.7813,0.1875 v 1.2344 z m 1.4843,-21.4844 q 0,-0.7656 0.5782,-1.3438 0.5781,-0.5781 1.3437,-0.5781 0.4844,0 0.9453,0.25 0.461,0.25 0.7188,0.711 0.2578,0.4609 0.2578,0.9609 0,0.75 -0.5781,1.3359 -0.5782,0.586 -1.3438,0.586 -0.7656,0 -1.3437,-0.586 -0.5782,-0.5859 -0.5782,-1.3359 z"
         id="path123" />
      <path
         style="stroke:none"
         d="m 51.3614,-12.0895 q -2.1094,0 -3.8984,-1.0703 -1.7891,-1.0703 -2.836,-2.8594 -1.0469,-1.7891 -1.0469,-3.9141 0,-1.6093 0.5782,-3.0937 0.5781,-1.4844 1.6406,-2.6563 1.0625,-1.1718 2.4844,-1.8281 1.4218,-0.6562 3.0781,-0.6562 2.1562,0 3.9219,1.1328 1.7656,1.1328 2.789,3.039 1.0235,1.9063 1.0235,4.0625 0,2.1094 -1.0391,3.9063 -1.0391,1.7969 -2.8281,2.8672 -1.7891,1.0703 -3.8672,1.0703 z m 0,-1.0156 q 2.7969,0 3.7422,-2.0391 0.9453,-2.0391 0.9453,-5.1797 0,-1.7656 -0.1875,-2.914 -0.1875,-1.1485 -0.8281,-2.1016 -0.3907,-0.5781 -1,-1.0078 -0.6094,-0.4297 -1.2813,-0.6641 -0.6719,-0.2344 -1.3906,-0.2344 -1.0938,0 -2.0781,0.4922 -0.9844,0.4922 -1.625,1.4141 -0.6563,1 -0.836,2.1875 -0.1797,1.1875 -0.1797,2.8281 0,1.9688 0.3438,3.5313 0.3437,1.5625 1.375,2.625 1.0312,1.0625 3,1.0625 z"
         id="path125" />
      <path
         style="stroke:none"
         d="m 60.9917,-12.4801 v -1.2344 q 1.1875,0 1.9609,-0.1875 0.7734,-0.1875 0.7734,-0.9219 v -9.5469 q 0,-0.9375 -0.2812,-1.3593 -0.2813,-0.4219 -0.8125,-0.5157 -0.5313,-0.0937 -1.6406,-0.0937 v -1.2344 l 5.0781,-0.375 v 3.4219 q 0.6875,-1.5 2.0703,-2.4609 1.3828,-0.961 2.9922,-0.961 2.4375,0 3.6562,1.1641 1.2188,1.164 1.2188,3.5547 v 8.4062 q 0,0.7344 0.7734,0.9219 0.7735,0.1875 1.961,0.1875 v 1.2344 H 70.726 v -1.2344 q 1.2032,0 1.9688,-0.1875 0.7656,-0.1875 0.7656,-0.9219 v -8.2969 q 0,-1.7187 -0.4922,-2.8203 -0.4922,-1.1015 -2.039,-1.1015 -2.0313,0 -3.336,1.625 -1.3047,1.625 -1.3047,3.6875 v 6.9062 q 0,0.7344 0.7657,0.9219 0.7656,0.1875 1.9531,0.1875 v 1.2344 z"
         id="path127" />
      <path
         style="stroke:none"
         d="m 80.3604,-12.3708 v -5.7187 q 0,-0.2656 0.3125,-0.2656 h 0.4218 q 0.2188,0 0.2813,0.2656 0.9687,5.0781 4.7187,5.0781 1.6563,0 2.7735,-0.75 1.1172,-0.75 1.1172,-2.3281 0,-1.125 -0.8672,-1.9219 -0.8672,-0.7969 -2.0703,-1.0781 l -2.3438,-0.4688 q -1.1719,-0.25 -2.1406,-0.7812 -0.9688,-0.5313 -1.586,-1.4141 -0.6171,-0.8828 -0.6171,-2.039 0,-1.5469 0.8125,-2.5235 0.8125,-0.9765 2.1171,-1.414 1.3047,-0.4375 2.8047,-0.4375 1.7969,0 3.125,0.9531 l 1,-0.875 q 0,-0.0781 0.1719,-0.0781 h 0.2656 q 0.0938,0 0.1797,0.0937 0.086,0.0938 0.086,0.2031 v 4.5782 q 0,0.3125 -0.2657,0.3125 h -0.4375 q -0.2968,0 -0.2968,-0.3125 0,-1.8282 -1.0157,-2.9453 -1.0156,-1.1172 -2.8437,-1.1172 -1.5781,0 -2.7344,0.5859 -1.1562,0.5859 -1.1562,2.0078 0,0.9688 0.8281,1.5938 0.8281,0.625 1.9531,0.8906 l 2.375,0.4531 q 1.1875,0.2656 2.2188,0.9141 1.0312,0.6484 1.6406,1.6406 0.6094,0.9922 0.6094,2.2422 0,1.2656 -0.4375,2.1953 -0.4375,0.9297 -1.211,1.5469 -0.7734,0.6172 -1.8359,0.9062 -1.0625,0.2891 -2.2188,0.2891 -2.1875,0 -3.75,-1.4688 l -1.2812,1.3907 q 0,0.0781 -0.1875,0.0781 h -0.2031 q -0.3125,0 -0.3125,-0.2813 z"
         id="path129" />
      <path
         style="stroke:none"
         d="M 105.34,-5.6989 V -6.902 q 1.2031,0 1.9687,-0.2109 0.7656,-0.211 0.7656,-0.9297 V -24.902 q 0,-0.9531 -0.6875,-1.1953 -0.6875,-0.2422 -2.0468,-0.2422 v -1.2344 l 5.1718,-0.375 v 2.1719 q 0.9688,-1.0625 2.2422,-1.6172 1.2735,-0.5547 2.6953,-0.5547 2.0782,0 3.7344,1.1172 1.6563,1.1172 2.5859,2.9375 0.9297,1.8203 0.9297,3.8672 0,2.1094 -1.0312,3.9375 -1.0313,1.8281 -2.8203,2.9141 -1.7891,1.0859 -3.9141,1.0859 -2.5469,0 -4.3125,-2.0625 v 6.1094 q 0,0.7187 0.7734,0.9297 0.7735,0.2109 1.961,0.2109 v 1.2031 z m 5.2812,-10.1875 q 0.6094,1.25 1.7031,2.0625 1.0938,0.8125 2.3907,0.8125 1.2187,0 2.1484,-0.6484 0.9297,-0.6485 1.5625,-1.7422 0.6328,-1.0938 0.9375,-2.2969 0.3047,-1.2031 0.3047,-2.3281 0,-1.4063 -0.5078,-3.0391 -0.5078,-1.6328 -1.5391,-2.75 -1.0312,-1.1172 -2.5,-1.1172 -1.4219,0 -2.6094,0.7266 -1.1875,0.7266 -1.8906,1.9609 z"
         id="path131" />
      <path
         style="stroke:none"
         d="m 133.3748,-12.0895 q -2.1407,0 -3.9219,-1.1172 -1.7813,-1.1172 -2.8047,-2.9922 -1.0234,-1.875 -1.0234,-3.9531 0,-2.0469 0.9375,-3.8984 0.9375,-1.8516 2.6015,-2.9844 1.6641,-1.1328 3.711,-1.1328 1.6093,0 2.7968,0.539 1.1875,0.5391 1.9532,1.4922 0.7656,0.9531 1.164,2.2578 0.3985,1.3047 0.3985,2.8516 0,0.4687 -0.3594,0.4687 h -10.1406 v 0.375 q 0,2.9063 1.1718,4.9922 1.1719,2.086 3.8282,2.086 1.0625,0 1.9765,-0.4844 0.9141,-0.4844 1.5938,-1.3359 0.6797,-0.8516 0.914,-1.8204 0.0313,-0.125 0.125,-0.2187 0.0938,-0.0938 0.2188,-0.0938 h 0.3125 q 0.3594,0 0.3594,0.4375 -0.5,1.9844 -2.1407,3.2579 -1.6406,1.2734 -3.6718,1.2734 z m -4.6563,-9.3438 h 7.9844 q 0,-1.3125 -0.3672,-2.664 -0.3672,-1.3516 -1.2188,-2.25 -0.8515,-0.8985 -2.2421,-0.8985 -1.9844,0 -3.0704,1.8516 -1.0859,1.8516 -1.0859,3.9609 z"
         id="path133" />
      <path
         style="stroke:none"
         d="m 140.9697,-12.4801 v -1.2344 q 1.2031,0 1.9687,-0.1875 0.7656,-0.1875 0.7656,-0.9219 v -9.5469 q 0,-0.9375 -0.2812,-1.3593 -0.2813,-0.4219 -0.8125,-0.5157 -0.5313,-0.0937 -1.6406,-0.0937 v -1.2344 l 5,-0.375 v 3.4219 q 0.5781,-1.5156 1.6172,-2.4688 1.039,-0.9531 2.5234,-0.9531 1.0469,0 1.8672,0.6172 0.8203,0.6172 0.8203,1.6172 0,0.6406 -0.4531,1.1094 -0.4532,0.4687 -1.125,0.4687 -0.6407,0 -1.1016,-0.4609 -0.4609,-0.461 -0.4609,-1.1172 0,-0.9375 0.6562,-1.3281 h -0.2031 q -1.4219,0 -2.3125,1.0234 -0.8906,1.0234 -1.2734,2.5469 -0.3829,1.5234 -0.3829,2.914 v 5.7344 q 0,1.1094 3.4063,1.1094 v 1.2344 z"
         id="path135" />
      <path
         style="stroke:none"
         d="m 173.9155,-12.0895 q -2.125,0 -3.8516,-1.1016 -1.7265,-1.1015 -2.7187,-2.9375 -0.9922,-1.8359 -0.9922,-3.8984 0,-2.0781 0.9844,-3.9766 0.9843,-1.8984 2.7187,-3.0312 1.7344,-1.1328 3.8594,-1.1328 2.0469,0 3.7344,0.8047 1.6875,0.8046 1.6875,2.6328 0,0.6875 -0.4922,1.1875 -0.4922,0.5 -1.1953,0.5 -0.6875,0 -1.1797,-0.5 -0.4922,-0.5 -0.4922,-1.1875 0,-0.625 0.3906,-1.0782 0.3906,-0.4531 0.9844,-0.5625 -1.2188,-0.7656 -3.4063,-0.7656 -1.6718,0 -2.6953,1.1094 -1.0234,1.1094 -1.4375,2.75 -0.414,1.6406 -0.414,3.25 0,1.6875 0.5078,3.2656 0.5078,1.5781 1.625,2.6172 1.1172,1.0391 2.8047,1.0391 1.6562,0 2.8203,-1.0235 1.164,-1.0234 1.5859,-2.664 0,-0.2032 0.2813,-0.2032 h 0.4218 q 0.1094,0 0.1954,0.0938 0.0859,0.0937 0.0859,0.2187 v 0.0938 q -0.5313,2.0781 -2.1016,3.2891 -1.5703,1.2109 -3.7109,1.2109 z"
         id="path137" />
      <path
         style="stroke:none"
         d="m 182.0104,-15.9176 q 0,-2.0782 1.6406,-3.3907 1.6407,-1.3125 3.9375,-1.8515 2.2969,-0.5391 4.3594,-0.5391 v -1.4219 q 0,-1.0156 -0.4453,-1.9609 -0.4453,-0.9453 -1.2813,-1.5547 -0.8359,-0.6094 -1.8359,-0.6094 -2.3281,0 -3.5469,1.0469 0.6719,0 1.1094,0.5 0.4375,0.5 0.4375,1.1719 0,0.7031 -0.5,1.1953 -0.5,0.4922 -1.1719,0.4922 -0.7031,0 -1.2031,-0.4922 -0.5,-0.4922 -0.5,-1.1953 0,-1.8438 1.6797,-2.7422 1.6797,-0.8984 3.6953,-0.8984 1.4063,0 2.8438,0.6093 1.4375,0.6094 2.3515,1.7344 0.9141,1.125 0.9141,2.625 v 7.875 q 0,0.6875 0.289,1.2578 0.2891,0.5703 0.9141,0.5703 0.5781,0 0.8594,-0.5781 0.2812,-0.5781 0.2812,-1.25 v -2.2344 h 1.0313 v 2.2344 q 0,0.7969 -0.4141,1.5078 -0.414,0.711 -1.1015,1.125 -0.6875,0.4141 -1.5,0.4141 -1.0157,0 -1.7657,-0.7969 -0.75,-0.7969 -0.8281,-1.8906 -0.6562,1.3281 -1.9141,2.1016 -1.2578,0.7734 -2.6953,0.7734 -1.3437,0 -2.6328,-0.3906 -1.289,-0.3907 -2.1484,-1.2344 -0.8594,-0.8438 -0.8594,-2.2031 z m 2.8281,0 q 0,1.2343 0.9063,2.0703 0.9062,0.8359 2.1406,0.8359 1.125,0 2.0469,-0.5625 0.9219,-0.5625 1.4687,-1.539 0.5469,-0.9766 0.5469,-2.0547 v -3.6407 q -1.5781,0 -3.25,0.5235 -1.6719,0.5234 -2.7656,1.6328 -1.0938,1.1094 -1.0938,2.7344 z"
         id="path139" />
      <path
         style="stroke:none"
         d="m 199.0938,-12.3708 v -5.7187 q 0,-0.2656 0.3125,-0.2656 h 0.4219 q 0.2187,0 0.2812,0.2656 0.9688,5.0781 4.7188,5.0781 1.6562,0 2.7734,-0.75 1.1172,-0.75 1.1172,-2.3281 0,-1.125 -0.8672,-1.9219 -0.8672,-0.7969 -2.0703,-1.0781 l -2.3438,-0.4688 q -1.1718,-0.25 -2.1406,-0.7812 -0.9687,-0.5313 -1.5859,-1.4141 -0.6172,-0.8828 -0.6172,-2.039 0,-1.5469 0.8125,-2.5235 0.8125,-0.9765 2.1172,-1.414 1.3047,-0.4375 2.8047,-0.4375 1.7968,0 3.125,0.9531 l 1,-0.875 q 0,-0.0781 0.1718,-0.0781 h 0.2657 q 0.0937,0 0.1797,0.0937 0.0859,0.0938 0.0859,0.2031 v 4.5782 q 0,0.3125 -0.2656,0.3125 h -0.4375 q -0.2969,0 -0.2969,-0.3125 0,-1.8282 -1.0156,-2.9453 -1.0157,-1.1172 -2.8438,-1.1172 -1.5781,0 -2.7344,0.5859 -1.1562,0.5859 -1.1562,2.0078 0,0.9688 0.8281,1.5938 0.8281,0.625 1.9531,0.8906 l 2.375,0.4531 q 1.1875,0.2656 2.2188,0.9141 1.0312,0.6484 1.6406,1.6406 0.6094,0.9922 0.6094,2.2422 0,1.2656 -0.4375,2.1953 -0.4375,0.9297 -1.2109,1.5469 -0.7735,0.6172 -1.836,0.9062 -1.0625,0.2891 -2.2187,0.2891 -2.1875,0 -3.75,-1.4688 l -1.2813,1.3907 q 0,0.0781 -0.1875,0.0781 h -0.2031 q -0.3125,0 -0.3125,-0.2813 z"
         id="path141" />
      <path
         style="stroke:none"
         d="m 220.3304,-12.0895 q -2.1407,0 -3.9219,-1.1172 -1.7813,-1.1172 -2.8047,-2.9922 -1.0234,-1.875 -1.0234,-3.9531 0,-2.0469 0.9375,-3.8984 0.9375,-1.8516 2.6015,-2.9844 1.6641,-1.1328 3.711,-1.1328 1.6093,0 2.7968,0.539 1.1875,0.5391 1.9532,1.4922 0.7656,0.9531 1.164,2.2578 0.3985,1.3047 0.3985,2.8516 0,0.4687 -0.3594,0.4687 h -10.1406 v 0.375 q 0,2.9063 1.1718,4.9922 1.1719,2.086 3.8282,2.086 1.0625,0 1.9765,-0.4844 0.9141,-0.4844 1.5938,-1.3359 0.6797,-0.8516 0.914,-1.8204 0.0313,-0.125 0.125,-0.2187 0.0938,-0.0938 0.2188,-0.0938 h 0.3125 q 0.3594,0 0.3594,0.4375 -0.5,1.9844 -2.1407,3.2579 -1.6406,1.2734 -3.6718,1.2734 z m -4.6563,-9.3438 h 7.9844 q 0,-1.3125 -0.3672,-2.664 -0.3672,-1.3516 -1.2188,-2.25 -0.8515,-0.8985 -2.2421,-0.8985 -1.9844,0 -3.0704,1.8516 -1.0859,1.8516 -1.0859,3.9609 z"
         id="path143" />
    </g>
    <g
       style="stroke-linecap:butt; fill:rgb(38,38,38); text-rendering:geometricPrecision; image-rendering:optimizeQuality; color-rendering:optimizeQuality; stroke-linejoin:round; stroke:rgb(38,38,38); color-interpolation:linearRGB; stroke-width:0.6667;"
       id="g149">
      <line
         y2="686"
         style="fill:none;"
         x1="223"
         x2="1548.9999"
         y1="686"
         id="line147" />
    </g>
    <g
       style="fill:rgb(51,51,128); text-rendering:optimizeSpeed; color-rendering:optimizeSpeed; image-rendering:optimizeSpeed; shape-rendering:crispEdges; stroke:rgb(51,51,128); color-interpolation:sRGB;"
       id="g153">
      <path
         style="stroke:none;"
         d="M379 686 L379 114.1329 L223 114.1329 L223 686 ZM769 686 L769 58 L613 58 L613 686 ZM1159 686 L1159 71.7943 L1003 71.7943 L1003 686 ZM1548.9999 686 L1548.9999 125.9381 L1393 125.9381 L1393 686 Z"
         id="path151" />
    </g>
    <g
       style="text-rendering:geometricPrecision; stroke-width:0.6667; color-interpolation:linearRGB; color-rendering:optimizeQuality; stroke-linecap:butt; image-rendering:optimizeQuality;"
       id="g163">
      <path
         d="M223 686 L223 114.1329 L379 114.1329 L379 686 Z"
         style="fill:none; fill-rule:evenodd;"
         id="path155" />
      <path
         d="M613 686 L613 58 L769 58 L769 686 Z"
         style="fill:none; fill-rule:evenodd;"
         id="path157" />
      <path
         d="M1003 686 L1003 71.7943 L1159 71.7943 L1159 686 Z"
         style="fill:none; fill-rule:evenodd;"
         id="path159" />
      <path
         d="M1393 686 L1393 125.9381 L1548.9999 125.9381 L1548.9999 686 Z"
         style="fill:none; fill-rule:evenodd;"
         id="path161" />
    </g>
    <g
       style="fill:rgb(0,179,179); text-rendering:optimizeSpeed; color-rendering:optimizeSpeed; image-rendering:optimizeSpeed; shape-rendering:crispEdges; stroke:rgb(0,179,179); color-interpolation:sRGB;"
       id="g167">
      <path
         style="stroke:none;"
         d="M379 686 L379 495.7746 L223 495.7746 L223 686 ZM769 686 L769 493.0946 L613 493.0946 L613 686 ZM1159 686 L1159 492.5416 L1003 492.5416 L1003 686 ZM1548.9999 686 L1548.9999 494.7893 L1393 494.7893 L1393 686 Z"
         id="path165" />
    </g>
    <g
       style="text-rendering:geometricPrecision; stroke-width:0.6667; color-interpolation:linearRGB; color-rendering:optimizeQuality; stroke-linecap:butt; image-rendering:optimizeQuality;"
       id="g177">
      <path
         d="M223 686 L223 495.7746 L379 495.7746 L379 686 Z"
         style="fill:none; fill-rule:evenodd;"
         id="path169" />
      <path
         d="M613 686 L613 493.0946 L769 493.0946 L769 686 Z"
         style="fill:none; fill-rule:evenodd;"
         id="path171" />
      <path
         d="M1003 686 L1003 492.5416 L1159 492.5416 L1159 686 Z"
         style="fill:none; fill-rule:evenodd;"
         id="path173" />
      <path
         d="M1393 686 L1393 494.7893 L1548.9999 494.7893 L1548.9999 686 Z"
         style="fill:none; fill-rule:evenodd;"
         id="path175" />
    </g>
    <g
       transform="matrix(1.44,0,0,1.44,1470.9863,129.48653)"
       style="font-size:21.3333px;font-family:Symbola;color-interpolation:linearRGB;fill:#ffffff;stroke:#ffffff;color-rendering:optimizeQuality;image-rendering:optimizeQuality;text-rendering:geometricPrecision"
       id="g181">
      <path
         style="stroke:none"
         d="m -10.2188,17 q -0.7343,-0.0625 -1.3906,-0.0625 h -4.1562 q -0.6563,0 -1.375,0.0625 v -0.6562 q 0.125,0 0.3828,0.0078 0.2578,0.0078 0.3984,0.0078 1.5625,0 1.7969,-0.4375 0.0781,-0.1875 0.0781,-0.5469 V 4.2344 q -1.1094,0.5468 -2.7812,0.5468 V 4.125 q 2.5625,0 3.8906,-1.3594 h 0.0938 q 0.2968,0 0.3593,0.1406 0.0313,0.0626 0.0313,0.4063 v 12.1094 q 0,0.3437 0.0781,0.5156 0.1563,0.3281 1.2031,0.4063 0.1406,0.0156 1.3906,0 z m 5.625,-1.125 q 0,0.4688 -0.3281,0.7969 Q -5.25,17 -5.7188,17 q -0.4687,0 -0.7968,-0.3281 -0.3282,-0.3281 -0.3282,-0.7969 0,-0.4375 0.3282,-0.7656 0.3281,-0.3282 0.7968,-0.3282 0.4688,0 0.7969,0.3282 0.3281,0.3281 0.3281,0.7656 z M 6.6719,9.9531 q 0,1.7813 -0.4688,3.2188 -0.5781,1.7656 -1.7969,2.9531 -1.375,1.3438 -3.1093,1.3438 -1.2188,0 -2.0313,-0.5313 -0.9375,-0.6094 -0.9375,-1.7656 0,-1.0313 0.9688,-1.0313 0.4219,0 0.7109,0.2813 0.2891,0.2812 0.2891,0.7031 0,0.4531 -0.336,0.7422 -0.3359,0.289 -0.789,0.2266 0.6562,0.7812 2.1093,0.7812 0.7969,0 1.5157,-0.4844 1.2343,-0.8125 1.6719,-2.8125 0.2812,-1.2187 0.2812,-3.375 -0.8438,2.1407 -2.6719,2.1407 -1.8906,0 -3.1093,-1.4688 -1.1719,-1.3906 -1.1719,-3.2969 0,-2.0781 1.3593,-3.4843 1.2969,-1.3282 3.1563,-1.3282 1.0469,0 1.9063,0.5469 2.4531,1.5156 2.4531,6.6406 z M 4.7031,8 q 0,-2.0781 -0.3437,-3 -0.6406,-1.7188 -2.0469,-1.7188 -1.4219,0 -2.1563,1.3594 -0.4374,0.8125 -0.4374,2.5313 v 0.875 q 0,1.6562 0.3906,2.4375 0.6562,1.3594 1.9844,1.3594 1.3437,0 2.0468,-1.3282 Q 4.7031,9.4688 4.7031,8 Z m 12.625,1.9531 q 0,1.7813 -0.4687,3.2188 -0.5782,1.7656 -1.7969,2.9531 -1.375,1.3438 -3.1094,1.3438 -1.2187,0 -2.0312,-0.5313 -0.9375,-0.6094 -0.9375,-1.7656 0,-1.0313 0.9687,-1.0313 0.4219,0 0.711,0.2813 0.289,0.2812 0.289,0.7031 0,0.4531 -0.3359,0.7422 -0.336,0.289 -0.7891,0.2266 0.6563,0.7812 2.1094,0.7812 0.7969,0 1.5156,-0.4844 1.2344,-0.8125 1.6719,-2.8125 0.2812,-1.2187 0.2812,-3.375 -0.8437,2.1407 -2.6718,2.1407 -1.8906,0 -3.1094,-1.4688 -1.1719,-1.3906 -1.1719,-3.2969 0,-2.0781 1.3594,-3.4843 1.2969,-1.3282 3.1563,-1.3282 1.0468,0 1.9062,0.5469 2.4531,1.5156 2.4531,6.6406 z M 15.3594,8 q 0,-2.0781 -0.3438,-3 -0.6406,-1.7188 -2.0468,-1.7188 -1.4219,0 -2.1563,1.3594 -0.4375,0.8125 -0.4375,2.5313 v 0.875 q 0,1.6562 0.3906,2.4375 0.6563,1.3594 1.9844,1.3594 1.3438,0 2.0469,-1.3282 Q 15.3594,9.4688 15.3594,8 Z"
         id="path179" />
    </g>
    <g
       transform="matrix(1.44,0,0,1.44,1471.2028,498.33773)"
       style="font-size:21.3333px;font-family:Symbola;color-interpolation:linearRGB;fill:#ffffff;stroke:#ffffff;color-rendering:optimizeQuality;image-rendering:optimizeQuality;text-rendering:geometricPrecision"
       id="g185">
      <path
         style="stroke:none"
         d="m -9.2656,10.1719 q 0,3.1719 -0.7969,4.8125 -1.2031,2.4844 -3.7031,2.4844 -2.3282,0 -3.5313,-2.1563 -0.9531,-1.6719 -0.9531,-5.1406 0,-3.2344 0.7812,-4.875 1.2032,-2.5313 3.7188,-2.5313 2.4375,0 3.6406,2.375 0.8438,1.7032 0.8438,5.0313 z m -1.7656,1.0469 V 8.5469 q 0,-2.2188 -0.375,-3.375 -0.625,-1.9375 -2.3594,-1.9375 -1.7344,0 -2.3594,1.9531 -0.375,1.1719 -0.375,3.375 0,0.4219 0.0156,1.25 0,0.8281 0,1.2344 0,2.4531 0.3282,3.7031 0.6093,2.25 2.3906,2.25 1.7656,0 2.3906,-2.1719 0.3438,-1.2343 0.3438,-3.6093 z m 6.4374,4.6562 q 0,0.4688 -0.3281,0.7969 Q -5.25,17 -5.7188,17 q -0.4687,0 -0.7968,-0.3281 -0.3282,-0.3281 -0.3282,-0.7969 0,-0.4375 0.3282,-0.7656 0.3281,-0.3282 0.7968,-0.3282 0.4688,0 0.7969,0.3282 0.3281,0.3281 0.3281,0.7656 z M 6.6719,12.6406 q 0,1.9532 -1.2031,3.3594 -1.2813,1.4688 -3.1876,1.4688 -2.4843,0 -3.625,-2.5469 -0.8437,-1.875 -0.8437,-4.6875 0,-2.1094 0.7656,-3.8438 0.875,-1.9687 2.5157,-2.9531 1.125,-0.6719 2.3437,-0.6719 1.1406,0 1.8906,0.5625 0.8281,0.625 0.8281,1.7188 0,0.4531 -0.2734,0.75 Q 5.6094,6.0938 5.1719,6.0938 4.75,6.0938 4.4688,5.8125 4.1875,5.5312 4.1875,5.1094 4.1875,4.0938 5.3594,4.1562 4.7656,3.2812 3.4688,3.2812 2.6406,3.2812 1.8906,3.7656 -0.2656,5.125 -0.2656,9.9844 0.5938,7.875 2.4062,7.875 q 1.875,0 3.0938,1.4688 1.1719,1.375 1.1719,3.2968 z M 4.75,13.2031 V 12.125 Q 4.75,10.4844 4.375,9.6875 3.7188,8.3594 2.3906,8.3594 q -1.3281,0 -2.0468,1.3125 -0.5782,1.0469 -0.5782,2.5 0,2.1093 0.3906,3.0937 0.2657,0.6875 0.8126,1.125 0.6093,0.4844 1.3124,0.4844 1.4376,0 2.1094,-1.3906 Q 4.75,14.7188 4.75,13.2031 Z m 12.5781,0.2188 q 0,1.75 -1.375,2.9219 -1.3125,1.125 -3.0781,1.125 -1.7344,0 -3.0156,-0.9688 -1.4063,-1.0625 -1.4063,-2.7344 0,-2.4062 3.0781,-3.9375 Q 10.9688,9.5 9.9531,8.6875 9.0312,7.6719 9.0312,6.3281 q 0,-1.5312 1.1876,-2.5625 1.1406,-1 2.6874,-1 1.4844,0 2.6094,0.8282 1.2344,0.9218 1.2344,2.3593 0,1.9844 -2.5938,3.3125 0.9532,0.5625 1.125,0.6719 0.6094,0.4219 1,0.8437 1.0469,1.1563 1.0469,2.6407 z M 15.8125,5.9531 q 0,-1.1562 -0.9063,-1.9375 -0.8593,-0.7344 -2.0312,-0.7344 -1.0781,0 -1.9375,0.5469 Q 9.9531,4.4688 9.9531,5.5 q 0,0.9219 1.0938,1.7188 0.3125,0.2187 2.6406,1.7187 2.125,-1.2344 2.125,-2.9844 z m 0.4531,8.2188 q 0,-0.7813 -0.4844,-1.3907 -0.3437,-0.4218 -1.1328,-0.9609 -0.789,-0.5391 -2.6328,-1.6484 -2.5,1.375 -2.5,3.5937 0,1.3438 1.0313,2.25 1,0.8594 2.3593,0.8594 1.25,0 2.25,-0.7031 1.1094,-0.7969 1.1094,-2 z"
         id="path183" />
    </g>
    <g
       transform="matrix(1.44,0,0,1.44,1081.1513,75.342732)"
       style="font-size:21.3333px;font-family:Symbola;color-interpolation:linearRGB;fill:#ffffff;stroke:#ffffff;color-rendering:optimizeQuality;image-rendering:optimizeQuality;text-rendering:geometricPrecision"
       id="g189">
      <path
         style="stroke:none"
         d="M -9.5,13.2812 -10.0781,17 h -7.9375 v -0.1875 q 0,-0.3281 0.25,-0.6094 l 4.0937,-4.5625 q 2.2344,-2.5 2.2344,-4.7344 0,-1.4218 -0.7031,-2.3906 -0.7813,-1.0937 -2.1563,-1.0937 -0.9843,0 -1.7656,0.6093 -0.7813,0.6094 -1.125,1.5626 0.0781,-0.0157 0.1719,-0.0157 1.25,0 1.25,1.1094 0,0.4844 -0.3203,0.8125 -0.3203,0.3281 -0.7891,0.3281 -1.1406,0 -1.1406,-1.1875 0,-1.625 1.1875,-2.75 1.1875,-1.125 2.8125,-1.125 1.8906,0 3.1718,1.1094 1.3438,1.1719 1.3438,3.0312 0,1.2188 -0.7812,2.3438 -0.4532,0.6406 -1.6876,1.8594 l -4.3906,4.25 h 4.2656 q 1.3907,0 1.5938,-0.1719 0.2031,-0.1719 0.4688,-1.9063 z m 4.9062,2.5938 q 0,0.4688 -0.3281,0.7969 Q -5.25,17 -5.7188,17 q -0.4687,0 -0.7968,-0.3281 -0.3282,-0.3281 -0.3282,-0.7969 0,-0.4375 0.3282,-0.7656 0.3281,-0.3282 0.7968,-0.3282 0.4688,0 0.7969,0.3282 0.3281,0.3281 0.3281,0.7656 z M 5.7656,17 Q 5.0312,16.9375 4.375,16.9375 H 0.2188 q -0.6563,0 -1.375,0.0625 v -0.6562 q 0.125,0 0.3828,0.0078 0.2578,0.0078 0.3984,0.0078 1.5625,0 1.7969,-0.4375 Q 1.5,15.7344 1.5,15.375 V 4.2344 Q 0.3906,4.7812 -1.2812,4.7812 V 4.125 q 2.5624,0 3.8906,-1.3594 h 0.0937 q 0.2969,0 0.3594,0.1406 0.0313,0.0626 0.0313,0.4063 v 12.1094 q 0,0.3437 0.0781,0.5156 0.1562,0.3281 1.2031,0.4063 0.1406,0.0156 1.3906,0 z m 11.5625,-3.5781 q 0,1.75 -1.375,2.9219 -1.3125,1.125 -3.0781,1.125 -1.7344,0 -3.0156,-0.9688 -1.4063,-1.0625 -1.4063,-2.7344 0,-2.4062 3.0781,-3.9375 Q 10.9688,9.5 9.9531,8.6875 9.0312,7.6719 9.0312,6.3281 q 0,-1.5312 1.1876,-2.5625 1.1406,-1 2.6874,-1 1.4844,0 2.6094,0.8282 1.2344,0.9218 1.2344,2.3593 0,1.9844 -2.5938,3.3125 0.9532,0.5625 1.125,0.6719 0.6094,0.4219 1,0.8437 1.0469,1.1563 1.0469,2.6407 z M 15.8125,5.9531 q 0,-1.1562 -0.9063,-1.9375 -0.8593,-0.7344 -2.0312,-0.7344 -1.0781,0 -1.9375,0.5469 Q 9.9531,4.4688 9.9531,5.5 q 0,0.9219 1.0938,1.7188 0.3125,0.2187 2.6406,1.7187 2.125,-1.2344 2.125,-2.9844 z m 0.4531,8.2188 q 0,-0.7813 -0.4844,-1.3907 -0.3437,-0.4218 -1.1328,-0.9609 -0.789,-0.5391 -2.6328,-1.6484 -2.5,1.375 -2.5,3.5937 0,1.3438 1.0313,2.25 1,0.8594 2.3593,0.8594 1.25,0 2.25,-0.7031 1.1094,-0.7969 1.1094,-2 z"
         id="path187" />
    </g>
    <g
       transform="translate(1081,492.5416)"
       style="font-size:21.3333px; fill:white; text-rendering:geometricPrecision; image-rendering:optimizeQuality; color-rendering:optimizeQuality; font-family:'Symbola'; stroke:white; color-interpolation:linearRGB;"
       id="g193">
      <path
         style="stroke:none;stroke-width:1.44"
         d="m -13.139646,18.195968 q 0,4.567536 -1.147536,6.93 -1.732464,3.577536 -5.332464,3.577536 -3.352608,0 -5.085072,-3.105072 -1.372464,-2.407536 -1.372464,-7.402464 0,-4.657536 1.124928,-7.02 1.732608,-3.645072 5.355072,-3.645072 3.51,0 5.242464,3.42 1.215072,2.452608 1.215072,7.245072 z m -2.542464,1.507536 v -3.847536 q 0,-3.195072 -0.54,-4.86 -0.9,-2.79 -3.397536,-2.79 -2.497536,0 -3.397536,2.812464 -0.54,1.687536 -0.54,4.86 0,0.607536 0.02246,1.8 0,1.192464 0,1.777536 0,3.532464 0.472608,5.332464 0.877392,3.24 3.442464,3.24 2.542464,0 3.442464,-3.127536 0.495072,-1.777392 0.495072,-5.197392 z m 9.269856,6.704928 q 0,0.675072 -0.472464,1.147536 -0.472464,0.472464 -1.147536,0.472464 -0.674928,0 -1.147392,-0.472464 -0.472608,-0.472464 -0.472608,-1.147536 0,-0.63 0.472608,-1.102464 0.472464,-0.472608 1.147392,-0.472608 0.675072,0 1.147536,0.472608 0.472464,0.472464 0.472464,1.102464 z M 9.810354,21.750896 q 0,2.812608 -1.732464,4.837536 -1.845072,2.115072 -4.590144,2.115072 -3.577392,0 -5.22,-3.667536 -1.214928,-2.7 -1.214928,-6.75 0,-3.037536 1.102464,-5.535072 1.26,-2.834928 3.622608,-4.252464 1.62,-0.967536 3.374928,-0.967536 1.642464,0 2.722464,0.81 1.192464,0.9 1.192464,2.475072 0,0.652464 -0.393696,1.08 -0.393696,0.427536 -1.023696,0.427536 -0.607536,0 -1.012464,-0.405072 -0.405072,-0.405072 -0.405072,-1.012464 0,-1.462464 1.687536,-1.372608 -0.855072,-1.26 -2.722464,-1.26 -1.192608,0 -2.272608,0.697536 -3.104928,1.957536 -3.104928,8.955072 1.237536,-3.037536 3.847392,-3.037536 2.7,0 4.455072,2.115072 1.687536,1.98 1.687536,4.747392 z m -2.767536,0.81 v -1.552464 q 0,-2.362464 -0.54,-3.51 -0.944928,-1.912464 -2.857536,-1.912464 -1.912464,0 -2.947392,1.89 -0.832608,1.507536 -0.832608,3.6 0,3.037392 0.562464,4.454928 0.382608,0.99 1.170144,1.62 0.877392,0.697536 1.889856,0.697536 2.070144,0 3.037536,-2.002464 0.517536,-1.102464 0.517536,-3.285072 z m 18.112464,-4.68 q 0,2.565072 -0.674928,4.635072 -0.832608,2.542464 -2.587536,4.252464 -1.98,1.935072 -4.477536,1.935072 -1.754928,0 -2.924928,-0.765072 -1.35,-0.877536 -1.35,-2.542464 0,-1.485072 1.394928,-1.485072 0.607536,0 1.02384,0.405072 0.41616,0.404928 0.41616,1.012464 0,0.652464 -0.483696,1.068768 -0.48384,0.41616 -1.136304,0.326304 0.945072,1.124928 3.037536,1.124928 1.147536,0 2.182464,-0.697536 1.777536,-1.17 2.407536,-4.05 0.404928,-1.754928 0.404928,-4.86 -1.214928,3.082608 -3.847392,3.082608 -2.722464,0 -4.477536,-2.115072 -1.687536,-2.002464 -1.687536,-4.747536 0,-2.992464 1.957536,-5.017392 1.867536,-1.912608 4.545072,-1.912608 1.507392,0 2.744928,0.787536 3.532464,2.182464 3.532464,9.562464 z m -2.834928,-2.812464 q 0,-2.992464 -0.495072,-4.32 Q 20.902818,8.27336 18.87789,8.27336 q -2.047536,0 -3.105072,1.957536 -0.63,1.17 -0.63,3.645072 v 1.26 q 0,2.384928 0.562464,3.51 0.945072,1.957536 2.857536,1.957536 1.935072,0 2.947536,-1.912608 0.81,-1.507392 0.81,-3.622464 z"
         id="path191" />
    </g>
    <g
       transform="matrix(1.44,0,0,1.44,691.15125,61.548432)"
       style="font-size:21.3333px;font-family:Symbola;color-interpolation:linearRGB;fill:#ffffff;stroke:#ffffff;color-rendering:optimizeQuality;image-rendering:optimizeQuality;text-rendering:geometricPrecision"
       id="g197">
      <path
         style="stroke:none"
         d="M -9.5,13.2812 -10.0781,17 h -7.9375 v -0.1875 q 0,-0.3281 0.25,-0.6094 l 4.0937,-4.5625 q 2.2344,-2.5 2.2344,-4.7344 0,-1.4218 -0.7031,-2.3906 -0.7813,-1.0937 -2.1563,-1.0937 -0.9843,0 -1.7656,0.6093 -0.7813,0.6094 -1.125,1.5626 0.0781,-0.0157 0.1719,-0.0157 1.25,0 1.25,1.1094 0,0.4844 -0.3203,0.8125 -0.3203,0.3281 -0.7891,0.3281 -1.1406,0 -1.1406,-1.1875 0,-1.625 1.1875,-2.75 1.1875,-1.125 2.8125,-1.125 1.8906,0 3.1718,1.1094 1.3438,1.1719 1.3438,3.0312 0,1.2188 -0.7812,2.3438 -0.4532,0.6406 -1.6876,1.8594 l -4.3906,4.25 h 4.2656 q 1.3907,0 1.5938,-0.1719 0.2031,-0.1719 0.4688,-1.9063 z m 4.9062,2.5938 q 0,0.4688 -0.3281,0.7969 Q -5.25,17 -5.7188,17 q -0.4687,0 -0.7968,-0.3281 -0.3282,-0.3281 -0.3282,-0.7969 0,-0.4375 0.3282,-0.7656 0.3281,-0.3282 0.7968,-0.3282 0.4688,0 0.7969,0.3282 0.3281,0.3281 0.3281,0.7656 z M 6.4844,13.2812 5.9062,17 h -7.9374 v -0.1875 q 0,-0.3281 0.25,-0.6094 l 4.0937,-4.5625 q 2.2344,-2.5 2.2344,-4.7344 0,-1.4218 -0.7031,-2.3906 -0.7813,-1.0937 -2.1563,-1.0937 -0.9844,0 -1.7656,0.6093 -0.7813,0.6094 -1.125,1.5626 0.0781,-0.0157 0.1719,-0.0157 1.25,0 1.25,1.1094 0,0.4844 -0.3204,0.8125 -0.3203,0.3281 -0.789,0.3281 -1.1406,0 -1.1406,-1.1875 0,-1.625 1.1874,-2.75 1.1876,-1.125 2.8126,-1.125 1.8906,0 3.1718,1.1094 1.3438,1.1719 1.3438,3.0312 0,1.2188 -0.7813,2.3438 Q 5.25,9.8906 4.0156,11.1094 l -4.3906,4.25 h 4.2656 q 1.3906,0 1.5938,-0.1719 0.2031,-0.1719 0.4687,-1.9063 z m 10.8437,0.0626 q 0,1.7656 -1.4062,2.9843 -1.3438,1.1407 -3.1407,1.1407 -1.625,0 -2.8906,-0.8438 -1.4375,-0.9531 -1.4375,-2.5 0,-0.5469 0.3281,-0.8984 0.3282,-0.3516 0.875,-0.3516 0.5,0 0.8438,0.3438 0.3438,0.3437 0.3438,0.8593 0,0.5157 -0.3516,0.8438 -0.3516,0.3281 -0.8672,0.3281 -0.0938,0 -0.2031,0 0.4687,0.7812 1.4219,1.2344 0.875,0.3906 1.8593,0.3906 1.2813,0 1.9219,-1.1875 0.4844,-0.9375 0.4844,-2.3437 0,-1.4844 -0.5156,-2.3907 -0.6407,-1.1562 -2.0157,-1.1562 h -1.1093 q -0.3438,0 -0.3438,-0.2344 0,-0.2344 0.5,-0.2969 0.3281,0 0.6562,-0.0312 1.2813,-0.0782 1.9063,-1.1094 0.5937,-0.9531 0.5937,-2.4375 0,-1.0469 -0.5,-1.6875 -0.5468,-0.7188 -1.5468,-0.7188 -2,0 -2.8594,1.3282 1.3281,-0.0156 1.3281,1.0781 0,0.4687 -0.3047,0.7813 -0.3046,0.3124 -0.7734,0.3124 -0.5,0 -0.7969,-0.3046 -0.2969,-0.3047 -0.2969,-0.8047 0,-1.3438 1.25,-2.1719 1.1094,-0.7344 2.5313,-0.7344 1.4687,0 2.6094,0.7344 Q 16.75,4.3438 16.75,5.7031 16.75,7 15.8594,8.0625 15.0312,9.0469 13.75,9.4688 q 1.4844,0.2968 2.5,1.3281 1.0781,1.0937 1.0781,2.5469 z"
         id="path195" />
    </g>
    <g
       transform="matrix(1.44,0,0,1.44,691.20282,496.64303)"
       style="font-size:21.3333px;font-family:Symbola;color-interpolation:linearRGB;fill:#ffffff;stroke:#ffffff;color-rendering:optimizeQuality;image-rendering:optimizeQuality;text-rendering:geometricPrecision"
       id="g201">
      <path
         style="stroke:none"
         d="m -9.2656,10.1719 q 0,3.1719 -0.7969,4.8125 -1.2031,2.4844 -3.7031,2.4844 -2.3282,0 -3.5313,-2.1563 -0.9531,-1.6719 -0.9531,-5.1406 0,-3.2344 0.7812,-4.875 1.2032,-2.5313 3.7188,-2.5313 2.4375,0 3.6406,2.375 0.8438,1.7032 0.8438,5.0313 z m -1.7656,1.0469 V 8.5469 q 0,-2.2188 -0.375,-3.375 -0.625,-1.9375 -2.3594,-1.9375 -1.7344,0 -2.3594,1.9531 -0.375,1.1719 -0.375,3.375 0,0.4219 0.0156,1.25 0,0.8281 0,1.2344 0,2.4531 0.3282,3.7031 0.6093,2.25 2.3906,2.25 1.7656,0 2.3906,-2.1719 0.3438,-1.2343 0.3438,-3.6093 z m 6.4374,4.6562 q 0,0.4688 -0.3281,0.7969 Q -5.25,17 -5.7188,17 q -0.4687,0 -0.7968,-0.3281 -0.3282,-0.3281 -0.3282,-0.7969 0,-0.4375 0.3282,-0.7656 0.3281,-0.3282 0.7968,-0.3282 0.4688,0 0.7969,0.3282 0.3281,0.3281 0.3281,0.7656 z M 6.6719,12.6406 q 0,1.9532 -1.2031,3.3594 -1.2813,1.4688 -3.1876,1.4688 -2.4843,0 -3.625,-2.5469 -0.8437,-1.875 -0.8437,-4.6875 0,-2.1094 0.7656,-3.8438 0.875,-1.9687 2.5157,-2.9531 1.125,-0.6719 2.3437,-0.6719 1.1406,0 1.8906,0.5625 0.8281,0.625 0.8281,1.7188 0,0.4531 -0.2734,0.75 Q 5.6094,6.0938 5.1719,6.0938 4.75,6.0938 4.4688,5.8125 4.1875,5.5312 4.1875,5.1094 4.1875,4.0938 5.3594,4.1562 4.7656,3.2812 3.4688,3.2812 2.6406,3.2812 1.8906,3.7656 -0.2656,5.125 -0.2656,9.9844 0.5938,7.875 2.4062,7.875 q 1.875,0 3.0938,1.4688 1.1719,1.375 1.1719,3.2968 z M 4.75,13.2031 V 12.125 Q 4.75,10.4844 4.375,9.6875 3.7188,8.3594 2.3906,8.3594 q -1.3281,0 -2.0468,1.3125 -0.5782,1.0469 -0.5782,2.5 0,2.1093 0.3906,3.0937 0.2657,0.6875 0.8126,1.125 0.6093,0.4844 1.3124,0.4844 1.4376,0 2.1094,-1.3906 Q 4.75,14.7188 4.75,13.2031 Z m 12.5781,0.2188 q 0,1.75 -1.375,2.9219 -1.3125,1.125 -3.0781,1.125 -1.7344,0 -3.0156,-0.9688 -1.4063,-1.0625 -1.4063,-2.7344 0,-2.4062 3.0781,-3.9375 Q 10.9688,9.5 9.9531,8.6875 9.0312,7.6719 9.0312,6.3281 q 0,-1.5312 1.1876,-2.5625 1.1406,-1 2.6874,-1 1.4844,0 2.6094,0.8282 1.2344,0.9218 1.2344,2.3593 0,1.9844 -2.5938,3.3125 0.9532,0.5625 1.125,0.6719 0.6094,0.4219 1,0.8437 1.0469,1.1563 1.0469,2.6407 z M 15.8125,5.9531 q 0,-1.1562 -0.9063,-1.9375 -0.8593,-0.7344 -2.0312,-0.7344 -1.0781,0 -1.9375,0.5469 Q 9.9531,4.4688 9.9531,5.5 q 0,0.9219 1.0938,1.7188 0.3125,0.2187 2.6406,1.7187 2.125,-1.2344 2.125,-2.9844 z m 0.4531,8.2188 q 0,-0.7813 -0.4844,-1.3907 -0.3437,-0.4218 -1.1328,-0.9609 -0.789,-0.5391 -2.6328,-1.6484 -2.5,1.375 -2.5,3.5937 0,1.3438 1.0313,2.25 1,0.8594 2.3593,0.8594 1.25,0 2.25,-0.7031 1.1094,-0.7969 1.1094,-2 z"
         id="path199" />
    </g>
    <g
       transform="matrix(1.44,0,0,1.44,301.15125,117.68133)"
       style="font-size:21.3333px;font-family:Symbola;color-interpolation:linearRGB;fill:#ffffff;stroke:#ffffff;color-rendering:optimizeQuality;image-rendering:optimizeQuality;text-rendering:geometricPrecision"
       id="g205">
      <path
         style="stroke:none"
         d="M -9.5,13.2812 -10.0781,17 h -7.9375 v -0.1875 q 0,-0.3281 0.25,-0.6094 l 4.0937,-4.5625 q 2.2344,-2.5 2.2344,-4.7344 0,-1.4218 -0.7031,-2.3906 -0.7813,-1.0937 -2.1563,-1.0937 -0.9843,0 -1.7656,0.6093 -0.7813,0.6094 -1.125,1.5626 0.0781,-0.0157 0.1719,-0.0157 1.25,0 1.25,1.1094 0,0.4844 -0.3203,0.8125 -0.3203,0.3281 -0.7891,0.3281 -1.1406,0 -1.1406,-1.1875 0,-1.625 1.1875,-2.75 1.1875,-1.125 2.8125,-1.125 1.8906,0 3.1718,1.1094 1.3438,1.1719 1.3438,3.0312 0,1.2188 -0.7812,2.3438 -0.4532,0.6406 -1.6876,1.8594 l -4.3906,4.25 h 4.2656 q 1.3907,0 1.5938,-0.1719 0.2031,-0.1719 0.4688,-1.9063 z m 4.9062,2.5938 q 0,0.4688 -0.3281,0.7969 Q -5.25,17 -5.7188,17 q -0.4687,0 -0.7968,-0.3281 -0.3282,-0.3281 -0.3282,-0.7969 0,-0.4375 0.3282,-0.7656 0.3281,-0.3282 0.7968,-0.3282 0.4688,0 0.7969,0.3282 0.3281,0.3281 0.3281,0.7656 z M 6.7188,10.1719 q 0,3.1719 -0.7969,4.8125 -1.2031,2.4844 -3.7031,2.4844 -2.3282,0 -3.5313,-2.1563 -0.9531,-1.6719 -0.9531,-5.1406 0,-3.2344 0.7812,-4.875 1.2032,-2.5313 3.7188,-2.5313 2.4375,0 3.6406,2.375 0.8438,1.7032 0.8438,5.0313 z M 4.9531,11.2188 V 8.5469 q 0,-2.2188 -0.375,-3.375 -0.625,-1.9375 -2.3593,-1.9375 -1.7344,0 -2.3594,1.9531 -0.375,1.1719 -0.375,3.375 0,0.4219 0.0156,1.25 0,0.8281 0,1.2344 0,2.4531 0.3281,3.7031 Q 0.4375,17 2.2188,17 3.9844,17 4.6094,14.8281 4.9531,13.5938 4.9531,11.2188 Z m 12.375,2.125 q 0,1.7656 -1.4062,2.9843 -1.3438,1.1407 -3.1407,1.1407 -1.625,0 -2.8906,-0.8438 -1.4375,-0.9531 -1.4375,-2.5 0,-0.5469 0.3281,-0.8984 0.3282,-0.3516 0.875,-0.3516 0.5,0 0.8438,0.3438 0.3438,0.3437 0.3438,0.8593 0,0.5157 -0.3516,0.8438 -0.3516,0.3281 -0.8672,0.3281 -0.0938,0 -0.2031,0 0.4687,0.7812 1.4219,1.2344 0.875,0.3906 1.8593,0.3906 1.2813,0 1.9219,-1.1875 0.4844,-0.9375 0.4844,-2.3437 0,-1.4844 -0.5156,-2.3907 -0.6407,-1.1562 -2.0157,-1.1562 h -1.1093 q -0.3438,0 -0.3438,-0.2344 0,-0.2344 0.5,-0.2969 0.3281,0 0.6562,-0.0312 1.2813,-0.0782 1.9063,-1.1094 0.5937,-0.9531 0.5937,-2.4375 0,-1.0469 -0.5,-1.6875 -0.5468,-0.7188 -1.5468,-0.7188 -2,0 -2.8594,1.3282 1.3281,-0.0156 1.3281,1.0781 0,0.4687 -0.3047,0.7813 -0.3046,0.3124 -0.7734,0.3124 -0.5,0 -0.7969,-0.3046 -0.2969,-0.3047 -0.2969,-0.8047 0,-1.3438 1.25,-2.1719 1.1094,-0.7344 2.5313,-0.7344 1.4687,0 2.6094,0.7344 Q 16.75,4.3438 16.75,5.7031 16.75,7 15.8594,8.0625 15.0312,9.0469 13.75,9.4688 q 1.4844,0.2968 2.5,1.3281 1.0781,1.0937 1.0781,2.5469 z"
         id="path203" />
    </g>
    <g
       transform="matrix(1.44,0,0,1.44,301.17186,499.37115)"
       style="font-size:21.3333px;font-family:Symbola;color-interpolation:linearRGB;fill:#ffffff;stroke:#ffffff;color-rendering:optimizeQuality;image-rendering:optimizeQuality;text-rendering:geometricPrecision"
       id="g209">
      <path
         style="stroke:none"
         d="m -9.2656,10.1719 q 0,3.1719 -0.7969,4.8125 -1.2031,2.4844 -3.7031,2.4844 -2.3282,0 -3.5313,-2.1563 -0.9531,-1.6719 -0.9531,-5.1406 0,-3.2344 0.7812,-4.875 1.2032,-2.5313 3.7188,-2.5313 2.4375,0 3.6406,2.375 0.8438,1.7032 0.8438,5.0313 z m -1.7656,1.0469 V 8.5469 q 0,-2.2188 -0.375,-3.375 -0.625,-1.9375 -2.3594,-1.9375 -1.7344,0 -2.3594,1.9531 -0.375,1.1719 -0.375,3.375 0,0.4219 0.0156,1.25 0,0.8281 0,1.2344 0,2.4531 0.3282,3.7031 0.6093,2.25 2.3906,2.25 1.7656,0 2.3906,-2.1719 0.3438,-1.2343 0.3438,-3.6093 z m 6.4374,4.6562 q 0,0.4688 -0.3281,0.7969 Q -5.25,17 -5.7188,17 q -0.4687,0 -0.7968,-0.3281 -0.3282,-0.3281 -0.3282,-0.7969 0,-0.4375 0.3282,-0.7656 0.3281,-0.3282 0.7968,-0.3282 0.4688,0 0.7969,0.3282 0.3281,0.3281 0.3281,0.7656 z M 6.6719,12.6406 q 0,1.9532 -1.2031,3.3594 -1.2813,1.4688 -3.1876,1.4688 -2.4843,0 -3.625,-2.5469 -0.8437,-1.875 -0.8437,-4.6875 0,-2.1094 0.7656,-3.8438 0.875,-1.9687 2.5157,-2.9531 1.125,-0.6719 2.3437,-0.6719 1.1406,0 1.8906,0.5625 0.8281,0.625 0.8281,1.7188 0,0.4531 -0.2734,0.75 Q 5.6094,6.0938 5.1719,6.0938 4.75,6.0938 4.4688,5.8125 4.1875,5.5312 4.1875,5.1094 4.1875,4.0938 5.3594,4.1562 4.7656,3.2812 3.4688,3.2812 2.6406,3.2812 1.8906,3.7656 -0.2656,5.125 -0.2656,9.9844 0.5938,7.875 2.4062,7.875 q 1.875,0 3.0938,1.4688 1.1719,1.375 1.1719,3.2968 z M 4.75,13.2031 V 12.125 Q 4.75,10.4844 4.375,9.6875 3.7188,8.3594 2.3906,8.3594 q -1.3281,0 -2.0468,1.3125 -0.5782,1.0469 -0.5782,2.5 0,2.1093 0.3906,3.0937 0.2657,0.6875 0.8126,1.125 0.6093,0.4844 1.3124,0.4844 1.4376,0 2.1094,-1.3906 Q 4.75,14.7188 4.75,13.2031 Z M 17.4688,3.375 q 0,0.3281 -0.1876,0.6094 L 14.375,8.0312 q -0.9688,1.3438 -1.3125,3.6563 -0.2344,1.5469 -0.2344,4.6094 0,1.1719 -0.9843,1.1719 -0.9688,0 -0.9688,-1.1719 0,-3.9375 2.625,-8.0469 0.7969,-1.1094 2.375,-3.375 H 10.7656 Q 9.5625,4.875 9.3594,5 9.125,5.1562 8.8281,6.9531 H 8.2969 L 9,2.5469 H 9.5312 Q 9.5625,2.75 9.6875,2.875 10,3.2344 12.2812,3.2344 h 5.1876 z"
         id="path207" />
    </g>
    <g
       id="g1002"
       transform="matrix(1.2,0,0,1.2,-280.9,-12.9)">
      <g
         style="color-interpolation:sRGB;fill:#ffffff;stroke:#ffffff;color-rendering:optimizeSpeed;image-rendering:optimizeSpeed;shape-rendering:crispEdges;text-rendering:optimizeSpeed"
         id="g213">
        <path
           style="stroke:none"
           d="M 1527,92 V 37 h -245 v 55 z"
           id="path211" />
      </g>
      <g
         transform="translate(1328.9062,51.614)"
         style="font-size:21.3333px;font-family:mwa_cmr10;color-interpolation:linearRGB;color-rendering:optimizeQuality;image-rendering:optimizeQuality;text-rendering:geometricPrecision"
         id="g217">
        <path
           style="stroke:none"
           d="M 0.6406,5.1199 V 4.3855 q 2.1719,0 2.1719,-1.25 v -11.5 Q 2.125,-8.4895 0.6406,-8.4895 v -0.7343 h 4.0313 q 0.0937,0 0.1406,0.0781 L 12.25,1.7918 v -9.0313 q 0,-1.25 -2.1719,-1.25 v -0.7343 h 5 v 0.7343 q -2.1562,0 -2.1562,1.25 V 4.9324 q 0,0.0625 -0.086,0.125 -0.0859,0.0625 -0.1328,0.0625 h -0.25 q -0.1093,0 -0.1406,-0.0781 L 3.4844,-7.9426 V 3.1355 q 0,1.25 2.1718,1.25 v 0.7344 z"
           id="path215" />
      </g>
      <g
         transform="translate(1328.9062,51.614)"
         style="font-size:21.3333px;font-family:mwa_cmr10;color-interpolation:linearRGB;color-rendering:optimizeQuality;image-rendering:optimizeQuality;text-rendering:geometricPrecision"
         id="g225">
        <path
           style="stroke:none"
           d="M 16.6719,5.1199 V 4.3855 q 1.875,0 2.3125,-1.25 l 4.4063,-12.8281 q 0.0625,-0.2187 0.3437,-0.2187 H 24 q 0.2813,0 0.3438,0.2187 l 4.5937,13.4063 q 0.2032,0.4375 0.75,0.5547 0.5469,0.1171 1.3594,0.1171 V 5.1199 H 25.2032 V 4.3855 q 1.7343,0 1.7343,-0.5625 V 3.7137 L 25.7969,0.4324 H 20.7032 L 19.7657,3.1355 Q 19.75,3.2137 19.75,3.3543 q 0,0.5312 0.4922,0.7812 0.4922,0.25 1.0703,0.25 v 0.7344 z m 4.2813,-5.4219 h 4.6093 L 23.25,-7.0051 Z"
           id="path219" />
        <path
           style="stroke:none"
           d="M 33.1719,5.4168 V 0.5105 q 0,-0.1562 0.1875,-0.1562 h 0.2657 q 0.0625,0 0.1093,0.0469 0.0469,0.0468 0.0469,0.1093 0,2.0625 1.2813,3.1954 1.2812,1.1328 3.3437,1.1328 0.7344,0 1.3516,-0.4219 0.6172,-0.4219 0.9531,-1.1016 0.3359,-0.6797 0.3359,-1.3984 0,-0.6406 -0.25,-1.2422 -0.25,-0.6016 -0.7343,-1.0391 -0.4844,-0.4375 -1.0938,-0.5937 l -2.7187,-0.6563 q -1.3594,-0.3593 -2.2188,-1.4765 -0.8594,-1.1172 -0.8594,-2.4922 0,-1.0938 0.5547,-2.0469 0.5547,-0.9531 1.4922,-1.5078 0.9375,-0.5547 2.0313,-0.5547 2.1093,0 3.3437,1.4375 l 0.8594,-1.375 q 0.0625,-0.0625 0.1406,-0.0625 h 0.1406 q 0.0625,0 0.125,0.0469 0.0625,0.0469 0.0625,0.1406 v 4.8594 q 0,0.1875 -0.1875,0.1875 h -0.2343 q -0.2032,0 -0.2032,-0.1875 0,-0.5313 -0.1796,-1.1641 -0.1797,-0.6328 -0.4922,-1.2187 -0.3125,-0.586 -0.6875,-0.961 -1.0157,-1.0156 -2.6875,-1.0156 -0.7188,0 -1.3203,0.3594 -0.6016,0.3594 -0.961,0.9844 -0.3594,0.625 -0.3594,1.3125 0,0.9062 0.5547,1.6406 0.5547,0.7344 1.461,0.9687 l 2.7343,0.6719 q 0.6719,0.1563 1.2735,0.586 0.6015,0.4296 1,0.9921 0.3984,0.5625 0.625,1.25 0.2265,0.6875 0.2265,1.4375 0,1.125 -0.5234,2.1407 -0.5234,1.0156 -1.4766,1.6328 -0.9531,0.6172 -2.0781,0.6172 -0.6875,0 -1.4219,-0.1563 Q 36.2501,5.2762 35.6407,4.9559 35.0313,4.6355 34.5157,4.1355 l -0.875,1.3907 q -0.0625,0.0625 -0.1563,0.0625 h -0.125 q -0.1875,0 -0.1875,-0.1719 z"
           id="path221" />
        <path
           style="stroke:none"
           d="M 44.5238,5.1199 V 4.3855 q 1.875,0 2.3125,-1.25 l 4.4063,-12.8281 q 0.0625,-0.2187 0.3437,-0.2187 h 0.2657 q 0.2812,0 0.3437,0.2187 l 4.5938,13.4063 q 0.2031,0.4375 0.75,0.5547 0.5468,0.1171 1.3593,0.1171 V 5.1199 H 53.0551 V 4.3855 q 1.7344,0 1.7344,-0.5625 V 3.7137 L 53.6488,0.4324 h -5.0937 l -0.9375,2.7031 q -0.0156,0.0782 -0.0156,0.2188 0,0.5312 0.4921,0.7812 0.4922,0.25 1.0704,0.25 v 0.7344 z m 4.2813,-5.4219 h 4.6094 L 51.102,-7.0051 Z"
           id="path223" />
      </g>
      <g
         style="color-interpolation:sRGB;fill:#333380;stroke:#333380;color-rendering:optimizeSpeed;image-rendering:optimizeSpeed;shape-rendering:crispEdges;text-rendering:optimizeSpeed"
         id="g229">
        <path
           style="stroke:none"
           d="M 1325.9122,61.0934 V 42.1347 h -39.9201 v 18.9587 z"
           id="path227" />
      </g>
      <g
         style="color-interpolation:linearRGB;stroke-width:0.6667;stroke-linecap:butt;color-rendering:optimizeQuality;image-rendering:optimizeQuality;text-rendering:geometricPrecision"
         id="g233">
        <path
           d="M 1285.9921,61.0934 V 42.1347 h 39.9201 v 18.9587 z"
           style="fill:none;fill-rule:evenodd"
           id="path231" />
      </g>
      <g
         transform="translate(1328.9062,77.386)"
         style="font-size:21.3333px;font-family:mwa_cmr10;color-interpolation:linearRGB;color-rendering:optimizeQuality;image-rendering:optimizeQuality;text-rendering:geometricPrecision"
         id="g237">
        <path
           style="stroke:none"
           d="M 4.7812,2.8699 Q 5.5,3.7918 6.5781,4.3152 q 1.0781,0.5235 2.2344,0.5235 0.9844,0 1.8125,-0.3828 0.8281,-0.3829 1.4453,-1.0704 0.6172,-0.6875 0.9531,-1.5546 0.336,-0.8672 0.336,-1.836 0,-0.1719 0.1875,-0.1719 h 0.25 q 0.1719,0 0.1719,0.2032 0,1.1093 -0.4219,2.125 -0.4219,1.0156 -1.1875,1.789 -0.7656,0.7735 -1.7656,1.211 Q 9.5938,5.5887 8.5,5.5887 7,5.5887 5.6484,4.9715 4.2969,4.3543 3.2969,3.2996 2.2969,2.2449 1.7344,0.8465 1.1719,-0.552 1.1719,-2.052 q 0,-1.5156 0.5625,-2.9062 0.5625,-1.3906 1.5625,-2.4609 1,-1.0704 2.3515,-1.6719 Q 7,-9.6926 8.5,-9.6926 q 1.0781,0 2.0625,0.4688 0.9844,0.4687 1.7187,1.3281 L 13.5,-9.6301 q 0.125,-0.0625 0.1406,-0.0625 h 0.1563 q 0.0625,0 0.1172,0.0547 0.0547,0.0547 0.0547,0.1328 v 5.6563 q 0,0.1875 -0.1719,0.1875 h -0.375 q -0.1875,0 -0.1875,-0.1875 0,-0.5938 -0.2422,-1.3438 Q 12.75,-5.9426 12.375,-6.6145 12,-7.2863 11.5,-7.802 10.3281,-8.9426 8.7969,-8.9426 q -1.1563,0 -2.2188,0.5235 -1.0625,0.5234 -1.7969,1.4453 -0.7656,0.9843 -1.0624,2.2343 -0.2969,1.25 -0.2969,2.6875 0,1.4219 0.2969,2.6797 0.2968,1.2578 1.0624,2.2422 z"
           id="path235" />
      </g>
      <g
         transform="translate(1328.9062,77.386)"
         style="font-size:21.3333px;font-family:mwa_cmr10;color-interpolation:linearRGB;color-rendering:optimizeQuality;image-rendering:optimizeQuality;text-rendering:geometricPrecision"
         id="g271">
        <path
           style="stroke:none"
           d="m 20.6574,5.3543 q -1.2656,0 -2.3437,-0.6406 -1.0782,-0.6407 -1.7032,-1.7188 -0.625,-1.0781 -0.625,-2.3437 0,-0.9688 0.3438,-1.8594 0.3437,-0.8906 0.9844,-1.5938 0.6406,-0.7031 1.4922,-1.0937 0.8515,-0.3906 1.8515,-0.3906 1.2969,0 2.3594,0.6797 1.0625,0.6796 1.6719,1.8203 0.6093,1.1406 0.6093,2.4375 0,1.2656 -0.625,2.3437 -0.625,1.0781 -1.6953,1.7188 -1.0703,0.6406 -2.3203,0.6406 z m 0,-0.6094 q 1.6875,0 2.25,-1.2187 0.5625,-1.2188 0.5625,-3.1094 0,-1.0625 -0.1172,-1.75 -0.1172,-0.6875 -0.4922,-1.2656 -0.2343,-0.3438 -0.6015,-0.6016 -0.3672,-0.2578 -0.7656,-0.3984 -0.3985,-0.1407 -0.836,-0.1407 -0.6562,0 -1.2422,0.2969 -0.5859,0.2969 -0.9765,0.8438 -0.3907,0.6093 -0.5,1.3203 -0.1094,0.7109 -0.1094,1.6953 0,1.1719 0.2031,2.1094 0.2031,0.9375 0.8281,1.5781 0.625,0.6406 1.7969,0.6406 z"
           id="path239" />
        <path
           style="stroke:none"
           d="M 26.6991,5.1199 V 4.3855 q 0.7188,0 1.1797,-0.1171 0.4609,-0.1172 0.4609,-0.5547 v -5.7344 q 0,-0.5625 -0.1718,-0.8125 -0.1719,-0.25 -0.4844,-0.3047 -0.3125,-0.0547 -0.9844,-0.0547 V -3.927 l 3.0469,-0.2343 v 2.0468 q 0.4219,-0.8906 1.25,-1.4687 0.8281,-0.5781 1.7969,-0.5781 2.4218,0 2.8437,1.9687 0.4219,-0.875 1.2266,-1.4219 0.8047,-0.5468 1.7734,-0.5468 0.9531,0 1.6016,0.3047 0.6484,0.3046 0.9765,0.9375 0.3282,0.6328 0.3282,1.5859 v 5.0469 q 0,0.4375 0.4687,0.5547 0.4688,0.1171 1.1719,0.1171 V 5.1199 H 38.3866 V 4.3855 q 0.7031,0 1.1719,-0.1171 0.4687,-0.1172 0.4687,-0.5547 v -4.9844 q 0,-1.0469 -0.3046,-1.6953 -0.3047,-0.6485 -1.2266,-0.6485 -1.2031,0 -1.9922,0.9766 -0.7891,0.9766 -0.7891,2.2109 v 4.1407 q 0,0.4375 0.461,0.5547 0.4609,0.1171 1.1797,0.1171 V 5.1199 H 32.5429 V 4.3855 q 0.7187,0 1.1797,-0.1171 0.4609,-0.1172 0.4609,-0.5547 v -4.9844 q 0,-1.0156 -0.2969,-1.6797 -0.2969,-0.6641 -1.2187,-0.6641 -1.2188,0 -2.0078,0.9766 -0.7891,0.9766 -0.7891,2.2109 v 4.1407 q 0,0.4375 0.4687,0.5547 0.4688,0.1171 1.1719,0.1171 v 0.7344 z"
           id="path241" />
        <path
           style="stroke:none"
           d="M 45.4468,5.1199 V -7.302 q 0,-0.5625 -0.1718,-0.8203 -0.1719,-0.2578 -0.4922,-0.3125 -0.3203,-0.0547 -0.9766,-0.0547 v -0.7343 l 3.1094,-0.2344 v 6.5781 q 0.3437,-0.3906 0.8125,-0.6797 0.4687,-0.289 1,-0.4453 0.5312,-0.1562 1.0781,-0.1562 0.9531,0 1.7578,0.3828 0.8047,0.3828 1.3985,1.0469 0.5937,0.664 0.9297,1.5312 0.3359,0.8672 0.3359,1.7891 0,1.2656 -0.625,2.3672 -0.625,1.1015 -1.6953,1.75 -1.0703,0.6484 -2.3516,0.6484 -0.7969,0 -1.5469,-0.4063 -0.75,-0.4062 -1.25,-1.0937 l -0.7031,1.2656 z m 1.5313,-2.0625 q 0.3437,0.7656 1,1.2578 0.6562,0.4922 1.4531,0.4922 1.0938,0 1.7656,-0.625 0.6719,-0.625 0.9375,-1.5781 Q 52.4,1.6512 52.4,0.5887 q 0,-1.7813 -0.4688,-2.7032 -0.2031,-0.4062 -0.5547,-0.7578 -0.3515,-0.3515 -0.789,-0.5468 -0.4375,-0.1954 -0.9219,-0.1954 -0.8438,0 -1.5625,0.4454 -0.7188,0.4453 -1.125,1.1953 z"
           id="path243" />
        <path
           style="stroke:none"
           d="m 57.3769,2.6199 v -4.6406 q 0,-0.5625 -0.1719,-0.8125 -0.1719,-0.25 -0.4844,-0.3047 -0.3125,-0.0547 -0.9844,-0.0547 V -3.927 l 3.1719,-0.2343 v 6.7812 q 0,0.8125 0.125,1.2735 0.125,0.4609 0.5078,0.6875 0.3828,0.2265 1.2266,0.2265 1.125,0 1.789,-0.9453 0.6641,-0.9453 0.6641,-2.1484 v -3.7344 q 0,-0.5625 -0.1719,-0.8125 -0.1718,-0.25 -0.4843,-0.3047 Q 62.2519,-3.1926 61.58,-3.1926 V -3.927 l 3.1719,-0.2343 v 7.375 q 0,0.5468 0.1718,0.8047 0.1719,0.2578 0.4844,0.3125 0.3125,0.0546 0.9844,0.0546 V 5.1199 L 63.2831,5.3543 V 3.5887 q -0.3906,0.7812 -1.0859,1.2734 -0.6953,0.4922 -1.5391,0.4922 -1.5,0 -2.3906,-0.6406 Q 57.3769,4.073 57.3769,2.6199 Z"
           id="path245" />
        <path
           style="stroke:none"
           d="M 67.6662,5.1824 V 1.7605 q 0,-0.1718 0.1719,-0.1718 h 0.2656 q 0.125,0 0.1563,0.1718 0.5937,3.0469 2.8281,3.0469 1,0 1.6719,-0.4531 0.6719,-0.4531 0.6719,-1.3906 0,-0.6875 -0.5235,-1.1641 Q 72.385,1.323 71.6662,1.1512 L 70.26,0.8699 Q 69.5569,0.7137 68.9787,0.4012 68.4006,0.0887 68.0334,-0.4426 q -0.3672,-0.5312 -0.3672,-1.2187 0,-0.9375 0.4844,-1.5235 0.4844,-0.5859 1.2656,-0.8437 0.7813,-0.2578 1.6719,-0.2578 1.0781,0 1.8906,0.5625 l 0.5938,-0.5157 q 0,-0.0468 0.1094,-0.0468 h 0.1562 q 0.0625,0 0.1094,0.0547 0.0469,0.0546 0.0469,0.1171 v 2.75 q 0,0.1875 -0.1563,0.1875 h -0.2656 q -0.1875,0 -0.1875,-0.1875 0,-1.1093 -0.6094,-1.7734 -0.6094,-0.6641 -1.7031,-0.6641 -0.9375,0 -1.6328,0.3516 -0.6953,0.3516 -0.6953,1.1953 0,0.5938 0.5,0.961 0.5,0.3671 1.1718,0.539 l 1.4219,0.2656 q 0.7188,0.1719 1.336,0.5547 0.6171,0.3828 0.9843,0.9844 0.3672,0.6016 0.3672,1.3359 0,0.7657 -0.2656,1.3282 -0.2656,0.5625 -0.7344,0.9297 -0.4687,0.3671 -1.1015,0.539 -0.6329,0.1719 -1.336,0.1719 -1.3125,0 -2.2344,-0.875 l -0.7656,0.8281 q 0,0.0469 -0.125,0.0469 h -0.125 q -0.1719,0 -0.1719,-0.1719 z"
           id="path247" />
        <path
           style="stroke:none"
           d="m 77.5186,2.6043 v -5.7969 h -1.7344 v -0.5469 q 1.375,0 2.0156,-1.2812 0.6406,-1.2813 0.6406,-2.7813 h 0.6094 v 3.875 h 2.9688 v 0.7344 h -2.9688 v 5.75 q 0,0.875 0.2891,1.5313 0.289,0.6562 1.0547,0.6562 0.7187,0 1.039,-0.6953 0.3203,-0.6953 0.3203,-1.4922 V 1.323 h 0.5938 v 1.2813 q 0,0.6562 -0.2422,1.2969 -0.2422,0.6406 -0.7109,1.0468 -0.4688,0.4063 -1.1407,0.4063 -1.2656,0 -2,-0.75 -0.7343,-0.75 -0.7343,-2 z"
           id="path249" />
        <path
           style="stroke:none"
           d="M 84.3149,5.1199 V 4.3855 q 0.7187,0 1.1797,-0.1171 0.4609,-0.1172 0.4609,-0.5547 v -5.7344 q 0,-0.8125 -0.3125,-0.9922 -0.3125,-0.1797 -1.2344,-0.1797 V -3.927 l 3.0313,-0.2343 v 7.875 q 0,0.4375 0.3984,0.5547 0.3985,0.1171 1.0703,0.1171 v 0.7344 z m 0.8906,-12.8906 q 0,-0.4531 0.3516,-0.8047 0.3515,-0.3516 0.8047,-0.3516 0.2968,0 0.5703,0.1563 0.2734,0.1562 0.4297,0.4297 0.1562,0.2734 0.1562,0.5703 0,0.4531 -0.3516,0.8047 -0.3515,0.3515 -0.8046,0.3515 -0.4532,0 -0.8047,-0.3515 -0.3516,-0.3516 -0.3516,-0.8047 z"
           id="path251" />
        <path
           style="stroke:none"
           d="m 94.8502,5.3543 q -1.2656,0 -2.3438,-0.6406 -1.0781,-0.6407 -1.7031,-1.7188 -0.625,-1.0781 -0.625,-2.3437 0,-0.9688 0.3438,-1.8594 0.3437,-0.8906 0.9843,-1.5938 0.6407,-0.7031 1.4922,-1.0937 0.8516,-0.3906 1.8516,-0.3906 1.2969,0 2.3594,0.6797 1.0625,0.6796 1.6718,1.8203 0.6094,1.1406 0.6094,2.4375 0,1.2656 -0.625,2.3437 -0.625,1.0781 -1.6953,1.7188 -1.0703,0.6406 -2.3203,0.6406 z m 0,-0.6094 q 1.6875,0 2.25,-1.2187 0.5625,-1.2188 0.5625,-3.1094 0,-1.0625 -0.1172,-1.75 -0.1172,-0.6875 -0.4922,-1.2656 -0.2344,-0.3438 -0.6015,-0.6016 -0.3672,-0.2578 -0.7657,-0.3984 -0.3984,-0.1407 -0.8359,-0.1407 -0.6563,0 -1.2422,0.2969 -0.5859,0.2969 -0.9766,0.8438 -0.3906,0.6093 -0.5,1.3203 -0.1093,0.7109 -0.1093,1.6953 0,1.1719 0.2031,2.1094 0.2031,0.9375 0.8281,1.5781 0.625,0.6406 1.7969,0.6406 z"
           id="path253" />
        <path
           style="stroke:none"
           d="M 100.8919,5.1199 V 4.3855 q 0.7187,0 1.1797,-0.1171 0.4609,-0.1172 0.4609,-0.5547 v -5.7344 q 0,-0.5625 -0.1719,-0.8125 -0.1718,-0.25 -0.4843,-0.3047 -0.3125,-0.0547 -0.9844,-0.0547 V -3.927 l 3.0469,-0.2343 v 2.0468 q 0.4218,-0.8906 1.25,-1.4687 0.8281,-0.5781 1.7968,-0.5781 1.4532,0 2.1875,0.6953 0.7344,0.6953 0.7344,2.1328 v 5.0469 q 0,0.4375 0.461,0.5547 0.4609,0.1171 1.1796,0.1171 v 0.7344 h -4.8125 V 4.3855 q 0.7188,0 1.1797,-0.1171 0.461,-0.1172 0.461,-0.5547 v -4.9844 q 0,-1.0156 -0.2969,-1.6797 -0.2969,-0.6641 -1.2188,-0.6641 -1.2187,0 -2.0078,0.9766 -0.789,0.9766 -0.789,2.2109 v 4.1407 q 0,0.4375 0.4687,0.5547 0.4688,0.1171 1.1719,0.1171 v 0.7344 z"
           id="path255" />
        <path
           style="stroke:none"
           d="M 122.7768,5.1199 V 4.3855 q 1.0625,0 2.0547,-0.1171 0.9921,-0.1172 0.9921,-0.5547 V -7.8176 q 0,-0.4531 -0.25,-0.5625 -0.25,-0.1094 -0.8125,-0.1094 h -0.8906 q -1.7344,0 -2.4531,0.7657 -0.375,0.375 -0.5391,1.2109 -0.164,0.8359 -0.289,2.1016 h -0.5938 l 0.3906,-4.8125 h 12.8282 l 0.4062,4.8125 h -0.625 q -0.125,-1.3594 -0.2734,-2.1563 -0.1485,-0.7969 -0.5235,-1.1562 -0.75,-0.7657 -2.4687,-0.7657 h -0.875 q -0.3906,0 -0.6016,0.0313 -0.2109,0.0312 -0.3437,0.1797 -0.1328,0.1484 -0.1328,0.4609 V 3.7137 q 0,0.4375 1,0.5547 1,0.1171 2.0468,0.1171 v 0.7344 z"
           id="path257" />
        <path
           style="stroke:none"
           d="m 138.1095,5.3543 q -1.2656,0 -2.3437,-0.6406 -1.0782,-0.6407 -1.7032,-1.7188 -0.625,-1.0781 -0.625,-2.3437 0,-0.9688 0.3438,-1.8594 0.3437,-0.8906 0.9844,-1.5938 0.6406,-0.7031 1.4921,-1.0937 0.8516,-0.3906 1.8516,-0.3906 1.2969,0 2.3594,0.6797 1.0625,0.6796 1.6719,1.8203 0.6093,1.1406 0.6093,2.4375 0,1.2656 -0.625,2.3437 -0.625,1.0781 -1.6953,1.7188 -1.0703,0.6406 -2.3203,0.6406 z m 0,-0.6094 q 1.6875,0 2.25,-1.2187 0.5625,-1.2188 0.5625,-3.1094 0,-1.0625 -0.1172,-1.75 -0.1172,-0.6875 -0.4922,-1.2656 -0.2343,-0.3438 -0.6015,-0.6016 -0.3672,-0.2578 -0.7657,-0.3984 -0.3984,-0.1407 -0.8359,-0.1407 -0.6562,0 -1.2422,0.2969 -0.5859,0.2969 -0.9765,0.8438 -0.3907,0.6093 -0.5,1.3203 -0.1094,0.7109 -0.1094,1.6953 0,1.1719 0.2031,2.1094 0.2031,0.9375 0.8281,1.5781 0.625,0.6406 1.7969,0.6406 z"
           id="path259" />
        <path
           style="stroke:none"
           d="m 149.3688,5.3543 q -1.2656,0 -2.3437,-0.6406 -1.0782,-0.6407 -1.7032,-1.7188 -0.625,-1.0781 -0.625,-2.3437 0,-0.9688 0.3438,-1.8594 0.3437,-0.8906 0.9844,-1.5938 0.6406,-0.7031 1.4922,-1.0937 0.8515,-0.3906 1.8515,-0.3906 1.2969,0 2.3594,0.6797 1.0625,0.6796 1.6719,1.8203 0.6093,1.1406 0.6093,2.4375 0,1.2656 -0.625,2.3437 -0.625,1.0781 -1.6953,1.7188 -1.0703,0.6406 -2.3203,0.6406 z m 0,-0.6094 q 1.6875,0 2.25,-1.2187 0.5625,-1.2188 0.5625,-3.1094 0,-1.0625 -0.1172,-1.75 -0.1172,-0.6875 -0.4922,-1.2656 -0.2343,-0.3438 -0.6015,-0.6016 -0.3672,-0.2578 -0.7656,-0.3984 -0.3985,-0.1407 -0.836,-0.1407 -0.6562,0 -1.2422,0.2969 -0.5859,0.2969 -0.9765,0.8438 -0.3907,0.6093 -0.5,1.3203 -0.1094,0.7109 -0.1094,1.6953 0,1.1719 0.2031,2.1094 0.2031,0.9375 0.8281,1.5781 0.625,0.6406 1.7969,0.6406 z"
           id="path261" />
        <path
           style="stroke:none"
           d="M 155.4261,5.1199 V 4.3855 q 0.7188,0 1.1797,-0.1171 0.461,-0.1172 0.461,-0.5547 V -7.302 q 0,-0.5625 -0.1641,-0.8203 -0.1641,-0.2578 -0.4844,-0.3125 -0.3203,-0.0547 -0.9922,-0.0547 v -0.7343 l 3.125,-0.2344 V 3.7137 q 0,0.4375 0.461,0.5547 0.4609,0.1171 1.164,0.1171 v 0.7344 z"
           id="path263" />
        <path
           style="stroke:none"
           d="M 162.899,5.1199 V -7.302 q 0,-0.5625 -0.1719,-0.8203 -0.1719,-0.2578 -0.4922,-0.3125 -0.3203,-0.0547 -0.9766,-0.0547 v -0.7343 l 3.1094,-0.2344 v 6.5781 q 0.3438,-0.3906 0.8125,-0.6797 0.4688,-0.289 1,-0.4453 0.5313,-0.1562 1.0781,-0.1562 0.9532,0 1.7579,0.3828 0.8046,0.3828 1.3984,1.0469 0.5937,0.664 0.9297,1.5312 0.3359,0.8672 0.3359,1.7891 0,1.2656 -0.625,2.3672 -0.625,1.1015 -1.6953,1.75 -1.0703,0.6484 -2.3516,0.6484 -0.7968,0 -1.5468,-0.4063 -0.75,-0.4062 -1.25,-1.0937 l -0.7032,1.2656 z m 1.5312,-2.0625 q 0.3438,0.7656 1,1.2578 0.6563,0.4922 1.4531,0.4922 1.0938,0 1.7657,-0.625 0.6718,-0.625 0.9375,-1.5781 0.2656,-0.9531 0.2656,-2.0156 0,-1.7813 -0.4688,-2.7032 -0.2031,-0.4062 -0.5546,-0.7578 -0.3516,-0.3515 -0.7891,-0.5468 -0.4375,-0.1954 -0.9219,-0.1954 -0.8437,0 -1.5625,0.4454 -0.7187,0.4453 -1.125,1.1953 z"
           id="path265" />
        <path
           style="stroke:none"
           d="m 178.406,5.3543 q -1.2657,0 -2.3438,-0.6406 -1.0781,-0.6407 -1.7031,-1.7188 -0.625,-1.0781 -0.625,-2.3437 0,-0.9688 0.3437,-1.8594 0.3438,-0.8906 0.9844,-1.5938 0.6406,-0.7031 1.4922,-1.0937 0.8516,-0.3906 1.8516,-0.3906 1.2968,0 2.3593,0.6797 1.0625,0.6796 1.6719,1.8203 0.6094,1.1406 0.6094,2.4375 0,1.2656 -0.625,2.3437 -0.625,1.0781 -1.6953,1.7188 -1.0703,0.6406 -2.3203,0.6406 z m 0,-0.6094 q 1.6875,0 2.25,-1.2187 0.5625,-1.2188 0.5625,-3.1094 0,-1.0625 -0.1172,-1.75 -0.1172,-0.6875 -0.4922,-1.2656 -0.2344,-0.3438 -0.6016,-0.6016 -0.3672,-0.2578 -0.7656,-0.3984 -0.3984,-0.1407 -0.8359,-0.1407 -0.6563,0 -1.2422,0.2969 -0.586,0.2969 -0.9766,0.8438 -0.3906,0.6093 -0.5,1.3203 -0.1094,0.7109 -0.1094,1.6953 0,1.1719 0.2032,2.1094 0.2031,0.9375 0.8281,1.5781 0.625,0.6406 1.7969,0.6406 z"
           id="path267" />
        <path
           style="stroke:none"
           d="M 183.4801,5.1199 V 4.3855 q 0.8125,0 1.5156,-0.3125 0.7031,-0.3125 1.2031,-0.9375 l 1.9063,-2.4218 -2.4844,-3.2344 q -0.375,-0.4531 -0.8047,-0.5625 -0.4297,-0.1094 -1.2266,-0.1094 V -3.927 h 4.375 v 0.7344 q -0.2812,0 -0.5234,0.125 -0.2422,0.125 -0.2422,0.3594 0,0.0781 0.0625,0.1875 l 1.6875,2.1875 1.25,-1.625 q 0.2656,-0.3125 0.2656,-0.6094 0,-0.2656 -0.1718,-0.4453 -0.1719,-0.1797 -0.4532,-0.1797 V -3.927 h 3.875 v 0.7344 q -0.8125,0 -1.5234,0.3125 -0.7109,0.3125 -1.2109,0.9219 l -1.6563,2.125 2.6875,3.5469 q 0.3906,0.4687 0.8203,0.5703 0.4297,0.1015 1.2422,0.1015 v 0.7344 h -4.375 V 4.3855 q 0.2656,0 0.5,-0.125 0.2344,-0.125 0.2344,-0.3593 0,-0.0938 -0.0625,-0.1875 l -1.8906,-2.5 -1.5,1.9218 q -0.25,0.2657 -0.25,0.625 0,0.25 0.1796,0.4375 0.1797,0.1875 0.4141,0.1875 v 0.7344 z"
           id="path269" />
      </g>
      <g
         style="color-interpolation:sRGB;fill:#00b3b3;stroke:#00b3b3;color-rendering:optimizeSpeed;image-rendering:optimizeSpeed;shape-rendering:crispEdges;text-rendering:optimizeSpeed"
         id="g275">
        <path
           style="stroke:none"
           d="M 1325.9122,86.8653 V 67.9066 h -39.9201 v 18.9587 z"
           id="path273" />
      </g>
      <g
         style="color-interpolation:linearRGB;stroke-width:0.6667;stroke-linecap:butt;color-rendering:optimizeQuality;image-rendering:optimizeQuality;text-rendering:geometricPrecision"
         id="g281">
        <path
           d="M 1285.9921,86.8653 V 67.9066 h 39.9201 v 18.9587 z"
           style="fill:none;fill-rule:evenodd"
           id="path277" />
        <path
           d="M 1282,92 V 37 h 245 v 55 z"
           style="fill:none;fill-rule:evenodd;stroke:#262626;stroke-width:2.4"
           id="path279" />
      </g>
    </g>
    <g
       transform="translate(0,771)"
       style="fill:gray; text-rendering:geometricPrecision; color-rendering:optimizeQuality; image-rendering:optimizeQuality; color-interpolation:linearRGB; stroke:gray;"
       id="g285">
      <circle
         r="2.6667"
         style="stroke:none;"
         cx="0"
         cy="0"
         id="circle283" />
    </g>
    <g
       transform="translate(0,771)"
       style="stroke-linecap:butt; fill:rgb(255,255,220); text-rendering:geometricPrecision; color-rendering:optimizeQuality; image-rendering:optimizeQuality; stroke:rgb(255,255,220); color-interpolation:linearRGB; stroke-width:2.4;"
       id="g289">
      <path
         style="stroke:none;"
         d="M0 -2.6667 C1.4728 -2.6667 2.6667 -1.4728 2.6667 0 L2.6667 0 C2.6667 1.4728 1.4728 2.6667 -0 2.6667 C-1.4728 2.6667 -2.6667 1.4728 -2.6667 -0 C-2.6667 -1.4728 -1.4728 -2.6667 0 -2.6667 ZM0 -4 C-2.2091 -4 -4 -2.2091 -4 -0 C-4 2.2091 -2.2091 4 -0 4 C2.2091 4 4 2.2091 4 0 L4 0 C4 -2.2091 2.2091 -4 0 -4 Z"
         id="path287" />
    </g>
  </g>
</svg>
