<?xml version="1.0" encoding="UTF-8" standalone="no"?>
<!-- Generator: Adobe Illustrator 19.0.0, SVG Export Plug-In . SVG Version: 6.00 Build 0)  -->

<svg
   version="1.1"
   id="Capa_1"
   x="0px"
   y="0px"
   viewBox="0 0 72 72.000023"
   xml:space="preserve"
   sodipodi:docname="icon_new.svg"
   inkscape:version="1.2.1 (9c6d41e410, 2022-07-14)"
   width="72"
   height="72.000023"
   xmlns:inkscape="http://www.inkscape.org/namespaces/inkscape"
   xmlns:sodipodi="http://sodipodi.sourceforge.net/DTD/sodipodi-0.dtd"
   xmlns="http://www.w3.org/2000/svg"
   xmlns:svg="http://www.w3.org/2000/svg"><defs
   id="defs28623" /><sodipodi:namedview
   id="namedview28621"
   pagecolor="#ffffff"
   bordercolor="#000000"
   borderopacity="0.25"
   inkscape:showpageshadow="2"
   inkscape:pageopacity="0.0"
   inkscape:pagecheckerboard="0"
   inkscape:deskcolor="#d1d1d1"
   showgrid="false"
   inkscape:zoom="4.1367925"
   inkscape:cx="17.283922"
   inkscape:cy="17.888255"
   inkscape:window-width="1920"
   inkscape:window-height="1009"
   inkscape:window-x="2552"
   inkscape:window-y="363"
   inkscape:window-maximized="1"
   inkscape:current-layer="layer6" />

<g
   id="g28590"
   transform="translate(90.567844,15.694425)">
</g>
<g
   id="g28592"
   transform="translate(90.567844,15.694425)">
</g>
<g
   id="g28594"
   transform="translate(90.567844,15.694425)">
</g>
<g
   id="g28596"
   transform="translate(90.567844,15.694425)">
</g>
<g
   id="g28598"
   transform="translate(90.567844,15.694425)">
</g>
<g
   id="g28600"
   transform="translate(90.567844,15.694425)">
</g>
<g
   id="g28602"
   transform="translate(90.567844,15.694425)">
</g>
<g
   id="g28604"
   transform="translate(90.567844,15.694425)">
</g>
<g
   id="g28606"
   transform="translate(90.567844,15.694425)">
</g>
<g
   id="g28608"
   transform="translate(90.567844,15.694425)">
</g>
<g
   id="g28610"
   transform="translate(90.567844,15.694425)">
</g>
<g
   id="g28612"
   transform="translate(90.567844,15.694425)">
</g>
<g
   id="g28614"
   transform="translate(90.567844,15.694425)">
</g>
<g
   id="g28616"
   transform="translate(90.567844,15.694425)">
</g>
<g
   id="g28618"
   transform="translate(90.567844,15.694425)">
</g>
<path
   d="m 8,72.000024 h 55.999999 c 4.4185,0 8,-3.582 8,-8 V 7.9999998 C 71.999999,3.5817 68.418499,0 63.999999,0 H 8 C 3.5815,0 0,3.5817 0,7.9999998 V 64.000024 c 0,4.418 3.5815,8 8,8 z"
   fill="#3E75C3"
   id="path2"
   style="display:none;fill:#577a95;fill-opacity:1;stroke-width:1" /><g
   inkscape:groupmode="layer"
   id="layer6"
   inkscape:label="Layer 1"
   transform="translate(90.567844,15.694425)"
   style="display:inline" /><g
   inkscape:groupmode="layer"
   id="layer7"
   inkscape:label="Layer 2"
   transform="translate(90.567844,15.694425)"><g
     id="g28588"
     style="fill:#ffffff;fill-opacity:1;stroke-width:3.25;stroke-dasharray:none"
     transform="translate(-81.066557,-6.6943753)">
	
<g
   id="Page-1"
   stroke="none"
   stroke-width="1"
   fill="none"
   fill-rule="evenodd"
   transform="matrix(8.9557839,0,0,8.9557839,-13.801079,-9.3231383)"><g
     id="Dribbble-Light-Preview"
     transform="matrix(0.59282943,0,0,0.59282943,-202.69388,-120.49418)"
     fill="#000000"
     style="fill:#ffffff;fill-opacity:1"><g
       id="icons"
       transform="translate(56,160)"
       style="fill:#ffffff;fill-opacity:1"><path
         style="fill:#ffffff;fill-opacity:1;stroke:none;stroke-width:0.612139;stroke-dasharray:none"
         d="m 292.37476,46.094168 2.25,0 1e-5,3.000045 3.00005,-4.5e-5 v 2 h -3.00006 v 3 h -2.25 v -3 h -3.00007 v -2 h 3.00005 l 2e-5,-3"
         id="path36839"
         sodipodi:nodetypes="ccccccccccccc" /></g></g></g></g></g></svg>
