<?xml version="1.0" encoding="UTF-8" standalone="no"?>
<!-- Uploaded to: SVG Repo, www.svgrepo.com, Generator: SVG Repo Mixer Tools -->

<svg
   fill="#000000"
   width="72"
   height="72"
   viewBox="0 0 2.88 2.88"
   version="1.1"
   id="svg20311"
   sodipodi:docname="icon_save.svg"
   inkscape:version="1.2.1 (9c6d41e410, 2022-07-14)"
   xmlns:inkscape="http://www.inkscape.org/namespaces/inkscape"
   xmlns:sodipodi="http://sodipodi.sourceforge.net/DTD/sodipodi-0.dtd"
   xmlns="http://www.w3.org/2000/svg"
   xmlns:svg="http://www.w3.org/2000/svg"
   xmlns:rdf="http://www.w3.org/1999/02/22-rdf-syntax-ns#"
   xmlns:cc="http://creativecommons.org/ns#"
   xmlns:dc="http://purl.org/dc/elements/1.1/">
  <defs
     id="defs20315" />
  <sodipodi:namedview
     id="namedview20313"
     pagecolor="#ffffff"
     bordercolor="#000000"
     borderopacity="0.25"
     inkscape:showpageshadow="2"
     inkscape:pageopacity="0.0"
     inkscape:pagecheckerboard="0"
     inkscape:deskcolor="#d1d1d1"
     showgrid="false"
     inkscape:zoom="4.385"
     inkscape:cx="35.119726"
     inkscape:cy="57.468643"
     inkscape:window-width="1920"
     inkscape:window-height="1009"
     inkscape:window-x="2552"
     inkscape:window-y="363"
     inkscape:window-maximized="1"
     inkscape:current-layer="svg20311" />
  <title
     id="title20307">save</title>
  <path
     d="m 0.32,2.88 h 2.24 c 0.176731,0 0.32,-0.143269 0.32,-0.32 V 0.32 C 2.88,0.143269 2.736731,0 2.56,0 H 0.32 C 0.143269,0 0,0.143269 0,0.32 v 2.24 c 0,0.176731 0.143269,0.32 0.32,0.32 z"
     fill="#3E75C3"
     id="path2"
     style="display:none;fill:#577a95;fill-opacity:1;stroke-width:0.04" />
  <g
     inkscape:groupmode="layer"
     id="layer5"
     inkscape:label="Layer 1"
     transform="translate(-56.211083,-14.176876)">
    <path
       d="m 57.143573,14.658136 h 0.211944 c 0.0186,0 0.03372,0.01945 0.03372,0.04344 v 0.305956 c 0,0.02399 -0.01511,0.04344 -0.03372,0.04344 h -0.211944 c -0.0186,0 -0.03372,-0.01946 -0.03372,-0.04344 v -0.305956 c 0,-0.02399 0.01512,-0.04344 0.03372,-0.04344 z m 0.874146,0.798671 0.558677,0.558677 h -0.279303 v 0.558679 H 57.738414 V 16.015484 H 57.45911 l 0.558678,-0.558677 z m -0.317706,0.716551 h -0.721097 c -0.0193,0 -0.0349,-0.0156 -0.0349,-0.0349 v -0.803082 c 0,-0.0193 0.0156,-0.0349 0.0349,-0.0349 h 1.239555 c 0.0193,0 0.0349,0.01559 0.0349,0.0349 v 0.307913 l 0.218239,0.218239 V 14.93387 c 0,-0.0193 -0.294902,-0.314279 -0.314277,-0.314279 h -0.331626 c 0.01184,0.0048 0.02008,0.0156 0.02008,0.02827 v 0.43235 c 0,0.01706 -0.01512,0.03092 -0.03372,0.03092 h -0.741034 c -0.0186,0 -0.03372,-0.01385 -0.03372,-0.03092 V 14.64786 c 0,-0.0126 0.0082,-0.02343 0.02008,-0.02827 h -0.296714 c -0.01937,0 -0.0349,0.0156 -0.0349,0.0349 v 1.676034 c 0,0.01937 0.01559,0.0349 0.0349,0.0349 h 0.939337 z m 0.635412,-0.130454 v 0.322533 h 0.101357 c 0.01938,0 0.0349,-0.0156 0.0349,-0.0349 v -0.287562 h -0.13626 z"
       id="path20309"
       style="fill:#ffffff;fill-opacity:1;stroke-width:0.0699484" />
  </g>
  <metadata
     id="metadata23991">
    <rdf:RDF>
      <cc:Work
         rdf:about="">
        <dc:title>save</dc:title>
      </cc:Work>
    </rdf:RDF>
  </metadata>
</svg>
