<?xml version="1.0" encoding="UTF-8" standalone="no"?>
<svg
   height="72"
   viewBox="0 0 72 72"
   width="72"
   version="1.1"
   id="svg8"
   sodipodi:docname="icon_github_CT.svg"
   inkscape:version="1.2.1 (9c6d41e410, 2022-07-14)"
   xmlns:inkscape="http://www.inkscape.org/namespaces/inkscape"
   xmlns:sodipodi="http://sodipodi.sourceforge.net/DTD/sodipodi-0.dtd"
   xmlns="http://www.w3.org/2000/svg"
   xmlns:svg="http://www.w3.org/2000/svg">
  <defs
     id="defs12" />
  <sodipodi:namedview
     id="namedview10"
     pagecolor="#ffffff"
     bordercolor="#666666"
     borderopacity="1.0"
     inkscape:pageshadow="2"
     inkscape:pageopacity="0.0"
     inkscape:pagecheckerboard="0"
     showgrid="false"
     inkscape:zoom="4.1738941"
     inkscape:cx="9.9427535"
     inkscape:cy="40.010599"
     inkscape:window-width="1920"
     inkscape:window-height="1009"
     inkscape:window-x="2552"
     inkscape:window-y="363"
     inkscape:window-maximized="1"
     inkscape:current-layer="g10311"
     inkscape:showpageshadow="2"
     inkscape:deskcolor="#d1d1d1" />
  <g
     fill="none"
     fill-rule="evenodd"
     id="g6">
    <g
       id="g10311"
       style="display:inline">
      <path
         d="m 8,72 h 56 c 4.418278,0 8,-3.581722 8,-8 V 8 C 72,3.581722 68.418278,0 64,0 H 8 C 3.581722,0 0,3.581722 0,8 v 56 c 0,4.418278 3.581722,8 8,8 z"
         fill="#3E75C3"
         id="path2"
         style="display:none;fill:#577a95;fill-opacity:1" />
      <path
         d="m 35.998308,8.9852294 c -14.952639,0 -27.0772228,12.1709476 -27.0772228,27.1879566 0,12.009529 7.7581088,22.199279 18.5202858,25.794661 1.353945,0.249774 1.848136,-0.589601 1.848136,-1.310037 0,-0.645674 -0.02369,-2.35501 -0.03723,-4.623363 -7.533016,1.643069 -9.122209,-3.644657 -9.122209,-3.644657 -1.230398,-3.140014 -3.00576,-3.975991 -3.00576,-3.975991 -2.459104,-1.687248 0.186168,-1.653264 0.186168,-1.653264 2.716353,0.192002 4.146459,2.801883 4.146459,2.801883 2.416793,4.1544 6.338158,2.954807 7.881656,2.258159 0.245402,-1.756913 0.946069,-2.954807 1.719511,-3.634463 -6.01321,-0.686453 -12.334444,-3.017674 -12.334444,-13.435109 0,-2.968399 1.054385,-5.394773 2.787435,-7.296112 -0.279251,-0.688152 -1.208396,-3.450955 0.264019,-7.194164 0,0 2.274629,-0.73063 7.446702,2.786592 2.161236,-0.603195 4.476483,-0.903943 6.779883,-0.915837 2.300016,0.01189 4.616955,0.312642 6.779883,0.915837 5.168689,-3.517222 7.43824,-2.786592 7.43824,-2.786592 1.477493,3.743209 0.548348,6.506012 0.269097,7.194164 1.736435,1.901339 2.78405,4.327713 2.78405,7.296112 0,10.442922 -6.331388,12.741859 -12.363216,13.41472 0.971456,0.839375 1.837981,2.497736 1.837981,5.034554 0,3.634463 -0.03385,6.565482 -0.03385,7.457531 0,0.727233 0.487421,1.573405 1.861676,1.306639 10.752022,-3.602179 18.50336,-13.785132 18.50336,-25.791263 0,-15.017009 -12.124583,-27.1879566 -27.080606,-27.1879566"
         fill="#ffffff"
         id="path4"
         style="display:inline;stroke-width:1.12828" />
    </g>
  </g>
</svg>
