<?xml version="1.0" encoding="UTF-8" standalone="no"?>
<svg
   viewBox="0 0 50 50"
   width="400"
   height="400"
   version="1.1"
   id="svg24"
   sodipodi:docname="icon_success.svg"
   inkscape:version="1.2.1 (9c6d41e410, 2022-07-14)"
   inkscape:export-filename="icon_success.png"
   inkscape:export-xdpi="96"
   inkscape:export-ydpi="96"
   xml:space="preserve"
   xmlns:inkscape="http://www.inkscape.org/namespaces/inkscape"
   xmlns:sodipodi="http://sodipodi.sourceforge.net/DTD/sodipodi-0.dtd"
   xmlns="http://www.w3.org/2000/svg"
   xmlns:svg="http://www.w3.org/2000/svg"><defs
     id="defs28"><linearGradient
       id="linearGradient958"
       x1="32"
       x2="32"
       y1="6"
       y2="56"
       gradientUnits="userSpaceOnUse"
       spreadMethod="reflect"
       gradientTransform="translate(-7,-6)"><stop
         offset="0"
         stop-color="#42d778"
         id="stop13-4" /><stop
         offset=".996"
         stop-color="#34b171"
         id="stop15-8" /><stop
         offset="1"
         stop-color="#34b171"
         id="stop17-5" /></linearGradient></defs><sodipodi:namedview
     id="namedview26"
     pagecolor="#ffffff"
     bordercolor="#000000"
     borderopacity="0.25"
     inkscape:showpageshadow="2"
     inkscape:pageopacity="0.0"
     inkscape:pagecheckerboard="0"
     inkscape:deskcolor="#d1d1d1"
     showgrid="false"
     inkscape:zoom="0.80957031"
     inkscape:cx="-124.13993"
     inkscape:cy="-19.763571"
     inkscape:window-width="1920"
     inkscape:window-height="1009"
     inkscape:window-x="2552"
     inkscape:window-y="363"
     inkscape:window-maximized="1"
     inkscape:current-layer="svg24" /><radialGradient
     id="c0yjGprCnv9Gl20e9Vf6Ca"
     cx="32.5"
     cy="31.5"
     r="30.516001"
     gradientUnits="userSpaceOnUse"
     spreadMethod="reflect"><stop
       offset="0"
       stop-color="#afeeff"
       id="stop2" /><stop
       offset=".193"
       stop-color="#bbf1ff"
       id="stop4" /><stop
       offset=".703"
       stop-color="#d7f8ff"
       id="stop6" /><stop
       offset="1"
       stop-color="#e1faff"
       id="stop8" /></radialGradient><linearGradient
     id="c0yjGprCnv9Gl20e9Vf6Cb"
     x1="32"
     x2="32"
     y1="6"
     y2="56"
     gradientUnits="userSpaceOnUse"
     spreadMethod="reflect"
     gradientTransform="translate(-7,-6)"><stop
       offset="0"
       stop-color="#42d778"
       id="stop13" /><stop
       offset=".996"
       stop-color="#34b171"
       id="stop15" /><stop
       offset="1"
       stop-color="#34b171"
       id="stop17" /></linearGradient><rect
     style="fill:#f5f5f5;fill-opacity:1;stroke-width:0.141732"
     id="rect735"
     width="50"
     height="50"
     x="0"
     y="9.2724611e-07" /><g
     id="g916"><path
       fill="url(#c0yjGprCnv9Gl20e9Vf6Cb)"
       d="M 50,25 C 50,38.805 38.805,50 25,50 11.195,50 0,38.805 0,25 0,11.195 11.195,0 25,0 38.805,0 50,11.195 50,25 Z"
       id="path20"
       style="fill:url(#c0yjGprCnv9Gl20e9Vf6Cb)" /><path
       fill="#ffffff"
       d="M 35.695,15.733 20.5,30.946 15.265,25.726 c -0.977,-0.974 -2.558,-0.973 -3.533,0.003 v 0 c -0.977,0.977 -0.976,2.562 0.002,3.538 l 7.002,6.985 c 0.977,0.975 2.559,0.973 3.534,-0.003 L 39.232,19.267 c 0.975,-0.977 0.975,-2.559 -10e-4,-3.535 v 0 c -0.977,-0.976 -2.56,-0.976 -3.536,0.001 z"
       id="path22" /></g></svg>
