<?xml version="1.0" encoding="UTF-8" standalone="no"?>
<svg
   fill="#000000"
   viewBox="0 0 26 24"
   width="104"
   height="96"
   version="1.1"
   id="svg4"
   sodipodi:docname="about.svg"
   inkscape:version="1.1.1 (3bf5ae0d25, 2021-09-20)"
   xmlns:inkscape="http://www.inkscape.org/namespaces/inkscape"
   xmlns:sodipodi="http://sodipodi.sourceforge.net/DTD/sodipodi-0.dtd"
   xmlns="http://www.w3.org/2000/svg"
   xmlns:svg="http://www.w3.org/2000/svg">
  <defs
     id="defs8" />
  <sodipodi:namedview
     id="namedview6"
     pagecolor="#ffffff"
     bordercolor="#666666"
     borderopacity="1.0"
     inkscape:pageshadow="2"
     inkscape:pageopacity="0.0"
     inkscape:pagecheckerboard="0"
     showgrid="false"
     fit-margin-top="0"
     fit-margin-left="0"
     fit-margin-right="0"
     fit-margin-bottom="0"
     inkscape:zoom="7.0833333"
     inkscape:cx="47.082353"
     inkscape:cy="48.070588"
     inkscape:window-width="1920"
     inkscape:window-height="1009"
     inkscape:window-x="-8"
     inkscape:window-y="317"
     inkscape:window-maximized="1"
     inkscape:current-layer="svg4" />
  <path
     d="M 13,0 C 5.82,0 0,4.925 0,11 c 0,2.676142 1.1322222,5.126093 3.0097656,7.033203 0.037914,0.09432 1.0012475,2.573471 -1.8515625,5.101563 A 0.5,0.5 0 0 0 1,23.5 0.5,0.5 0 0 0 1.5,24 0.5,0.5 0 0 0 1.6074219,23.988281 C 4.4832831,23.817905 6.9434573,22.390739 8.445312,21.291016 9.864706,21.741137 11.394827,22 13,22 20.18,22 26,17.075 26,11 26,4.925 20.18,0 13,0 Z m 0,4.5 c 0.828,0 1.5,0.672 1.5,1.5 0,0.828 -0.672,1.5 -1.5,1.5 C 12.172,7.5 11.5,6.828 11.5,6 11.5,5.172 12.172,4.5 13,4.5 Z M 12,10 h 2 v 7 h -2 z"
     id="path2" />
</svg>
