<svg height="464pt" viewBox="-16 0 464 464" width="464pt" xmlns="http://www.w3.org/2000/svg"><path d="m384 192c.042969-33.675781-10.082031-66.578125-29.046875-94.398438 9.308594-12.6875 7.96875-30.269531-3.160156-41.394531-11.125-11.128906-28.707031-12.46875-41.394531-3.160156-56.976563-38.722656-131.820313-38.722656-188.796876 0-12.6875-9.308594-30.269531-7.96875-41.394531 3.160156-11.128906 11.125-12.46875 28.707031-3.160156 41.394531-18.964844 27.820313-29.089844 60.722657-29.046875 94.398438zm0 0" fill="#ffb655"/><path d="m408 224c8.808594-.066406 15.933594-7.191406 16-16-.027344-8.824219-7.175781-15.972656-16-16h-384c-8.808594.066406-15.933594 7.191406-16 16 .027344 8.824219 7.175781 15.972656 16 16zm0 0" fill="#ff9811"/><path d="m248 116.320312v-84.320312c0-17.671875-14.328125-32-32-32s-32 14.328125-32 32v84.320312c8.480469-7.679687 55.519531-7.679687 64 0zm0 0" fill="#ff9811"/><path d="m368 224v8c0 2.71875-.078125 5.359375-.238281 8-4.53125 80.503906-71.132813 143.460938-151.761719 143.460938s-147.230469-62.957032-151.761719-143.460938c-.160156-2.640625-.238281-5.28125-.238281-8v-8zm0 0" fill="#ffdaaa"/><path d="m264 152c.027344 13.636719-5.800781 26.628906-16 35.679688-18.144531 16.492187-45.855469 16.492187-64 0-16.34375-14.71875-20.574219-38.671876-10.253906-58.097657 10.316406-19.425781 32.53125-29.335937 53.878906-24.03125 21.347656 5.300781 36.34375 24.453125 36.375 46.449219zm0 0" fill="#ff6243"/><path d="m240 152c0 13.253906-10.746094 24-24 24s-24-10.746094-24-24 10.746094-24 24-24 24 10.746094 24 24zm0 0" fill="#e6e7e8"/><path d="m264 376.238281c-.054688 5.832031-1.164062 11.605469-3.28125 17.042969-.871094 2.328125-1.941406 4.574219-3.199219 6.71875-8.550781 14.851562-24.382812 24.003906-41.519531 24.003906s-32.96875-9.152344-41.519531-24.003906c-1.257813-2.144531-2.328125-4.390625-3.199219-6.71875-2.117188-5.4375-3.226562-11.210938-3.28125-17.042969 31.164062 10.347657 64.835938 10.347657 96 0zm0 0" fill="#f1cfa2"/><path d="m432 464h-432c-.0234375-16.980469 6.710938-33.273438 18.71875-45.28125s28.300781-18.742188 45.28125-18.71875h110.480469c8.550781 14.851562 24.382812 24.003906 41.519531 24.003906s32.96875-9.152344 41.519531-24.003906h110.480469c35.347656 0 64 28.652344 64 64zm0 0" fill="#ffb655"/><path d="m368 224v8c0 2.71875-.078125 5.359375-.238281 8h-303.523438c-.160156-2.640625-.238281-5.28125-.238281-8v-8zm0 0" fill="#f1cfa2"/><path d="m264 376.238281c-.054688 5.832031-1.164062 11.605469-3.28125 17.042969-29.140625 8.957031-60.296875 8.957031-89.4375 0-2.117188-5.4375-3.226562-11.210938-3.28125-17.042969 31.164062 10.347657 64.835938 10.347657 96 0zm0 0" fill="#e6c59a"/><path d="m432 464h-216.398438c35.945313-18.953125 70.558594-40.335938 103.597657-64h48.800781c35.347656 0 64 28.652344 64 64zm0 0" fill="#ffa733"/><path d="m87.800781 120.367188-12-12c-15.058593-14.597657-16.746093-38.175782-3.921875-54.765626 7.164063-8.746093 17.6875-14.058593 28.976563-14.625 11.289062-.570312 22.292969 3.65625 30.296875 11.640626l13.703125 13.710937c3.125 3.125 3.125 8.1875 0 11.3125-3.125 3.121094-8.1875 3.121094-11.3125 0l-13.039063-13.039063c-8.113281-8.414062-21.015625-9.96875-30.894531-3.730468-6 3.988281-9.894531 10.453125-10.613281 17.621094-.722656 7.167968 1.808594 14.277343 6.890625 19.378906l13.226562 13.226562c3.121094 3.121094 3.121094 8.1875 0 11.308594-3.136719 3.113281-8.199219 3.097656-11.3125-.039062zm0 0" fill="#ff9811"/><path d="m332.886719 120.367188c-3.121094-3.125-3.121094-8.1875 0-11.3125l12.554687-12.550782c8.410156-8.113281 9.96875-21.015625 3.726563-30.894531-3.984375-6-10.453125-9.898437-17.621094-10.617187-7.164063-.722657-14.277344 1.808593-19.378906 6.894531l-13.710938 13.714843c-3.125 3.121094-8.1875 3.121094-11.3125 0-3.125-3.125-3.125-8.191406 0-11.3125l12.449219-12.449218c14.605469-15.109375 38.242188-16.8125 54.863281-3.953125 8.738281 7.164062 14.046875 17.6875 14.609375 28.976562.566406 11.285157-3.660156 22.285157-11.640625 30.289063l-13.226562 13.214844c-3.125 3.125-8.1875 3.125-11.3125 0zm0 0" fill="#ff9811"/><g fill="#57565c"><path d="m152 272c-13.253906 0-24-10.746094-24-24h16c0 4.417969 3.582031 8 8 8s8-3.582031 8-8h16c0 13.253906-10.746094 24-24 24zm0 0"/><path d="m280 272c-13.253906 0-24-10.746094-24-24h16c0 4.417969 3.582031 8 8 8s8-3.582031 8-8h16c0 13.253906-10.746094 24-24 24zm0 0"/><path d="m216 352c-30.914062-.035156-55.964844-25.085938-56-56h16c0 22.089844 17.910156 40 40 40s40-17.910156 40-40h16c-.035156 30.914062-25.085938 55.964844-56 56zm0 0"/></g></svg>