<?xml version="1.0" encoding="UTF-8" standalone="no"?>
<svg
   width="716.74pt"
   height="212.03pt"
   viewBox="0 0 716.74 212.03"
   version="1.2"
   id="svg91"
   sodipodi:docname="logo_uc3m.svg"
   inkscape:version="1.1.1 (3bf5ae0d25, 2021-09-20)"
   xmlns:inkscape="http://www.inkscape.org/namespaces/inkscape"
   xmlns:sodipodi="http://sodipodi.sourceforge.net/DTD/sodipodi-0.dtd"
   xmlns="http://www.w3.org/2000/svg"
   xmlns:svg="http://www.w3.org/2000/svg">
  <sodipodi:namedview
     id="namedview93"
     pagecolor="#ffffff"
     bordercolor="#666666"
     borderopacity="1.0"
     inkscape:pageshadow="2"
     inkscape:pageopacity="0.0"
     inkscape:pagecheckerboard="0"
     inkscape:document-units="pt"
     showgrid="false"
     inkscape:zoom="1.1866228"
     inkscape:cx="477.4053"
     inkscape:cy="141.15691"
     inkscape:window-width="1920"
     inkscape:window-height="1009"
     inkscape:window-x="-8"
     inkscape:window-y="370"
     inkscape:window-maximized="1"
     inkscape:current-layer="svg91" />
  <defs
     id="defs14">
    <clipPath
       id="clip1">
      <path
         d="M 700 66 L 716.738281 66 L 716.738281 139 L 700 139 Z M 700 66 "
         id="path2" />
    </clipPath>
    <clipPath
       id="clip2">
      <path
         d="M 677 0 L 716.738281 0 L 716.738281 54 L 677 54 Z M 677 0 "
         id="path5" />
    </clipPath>
    <clipPath
       id="clip3">
      <path
         d="M 677 158 L 716.738281 158 L 716.738281 212 L 677 212 Z M 677 158 "
         id="path8" />
    </clipPath>
    <clipPath
       id="clip4">
      <path
         d="M 458 157 L 528 157 L 528 212.03125 L 458 212.03125 Z M 458 157 "
         id="path11" />
    </clipPath>
  </defs>
  <g
     id="surface6823">
    <path
       style=" stroke:none;fill-rule:nonzero;fill:rgb(17.999268%,17.350769%,42.91687%);fill-opacity:1;"
       d="M 399.710938 117.53125 C 395.660156 121.878906 389.65625 124.777344 383.246094 124.777344 C 370.992188 124.777344 361.0625 114.84375 361.0625 102.589844 C 361.0625 90.335938 370.992188 80.402344 383.246094 80.402344 C 389.730469 80.402344 395.621094 83.179688 399.675781 87.613281 L 399.730469 70.097656 C 394.808594 67.613281 389.183594 66.214844 383.296875 66.214844 C 363.203125 66.214844 346.914062 82.503906 346.914062 102.597656 C 346.914062 122.6875 363.203125 138.976562 383.296875 138.976562 C 389.195312 138.976562 394.800781 137.574219 399.730469 135.078125 L 399.710938 117.53125 "
       id="path16" />
    <path
       style=" stroke:none;fill-rule:evenodd;fill:rgb(17.999268%,17.350769%,42.91687%);fill-opacity:1;"
       d="M 420.914062 112.96875 C 420.914062 105.261719 427.160156 99.015625 434.863281 99.015625 C 442.570312 99.015625 448.816406 105.261719 448.816406 112.96875 C 448.816406 120.671875 442.570312 126.917969 434.863281 126.917969 C 427.160156 126.917969 420.914062 120.671875 420.914062 112.96875 Z M 448.746094 135.203125 C 444.75 137.683594 439.914062 139.113281 434.863281 139.113281 C 420.425781 139.113281 408.71875 127.40625 408.71875 112.96875 C 408.71875 98.527344 420.425781 86.820312 434.863281 86.820312 C 439.980469 86.820312 444.71875 88.289062 448.746094 90.828125 L 448.746094 86.820312 L 461.011719 86.820312 L 461.011719 139.113281 L 448.746094 139.113281 L 448.746094 135.203125 "
       id="path18" />
    <path
       style=" stroke:none;fill-rule:nonzero;fill:rgb(17.999268%,17.350769%,42.91687%);fill-opacity:1;"
       d="M 497.367188 101.039062 C 496.121094 100.328125 494.683594 99.921875 493.144531 99.921875 C 488.40625 99.921875 484.511719 103.765625 484.511719 108.503906 L 484.511719 139.113281 L 471.355469 139.113281 L 471.40625 86.746094 L 484.515625 86.746094 L 484.613281 89.980469 C 487.695312 87.945312 491.363281 86.765625 495.332031 86.765625 L 495.390625 86.765625 C 496.035156 86.765625 496.738281 86.796875 497.367188 86.859375 L 497.367188 101.039062 "
       id="path20" />
    <path
       style=" stroke:none;fill-rule:evenodd;fill:rgb(17.999268%,17.350769%,42.91687%);fill-opacity:1;"
       d="M 537.789062 112.941406 C 537.789062 105.234375 544.039062 98.984375 551.746094 98.984375 C 559.457031 98.984375 565.703125 105.234375 565.703125 112.941406 C 565.703125 120.652344 559.457031 126.898438 551.746094 126.898438 C 544.039062 126.898438 537.789062 120.652344 537.789062 112.941406 Z M 525.574219 112.941406 C 525.574219 98.488281 537.292969 86.773438 551.746094 86.773438 C 566.199219 86.773438 577.917969 98.488281 577.917969 112.941406 C 577.917969 127.398438 566.199219 139.113281 551.746094 139.113281 C 537.292969 139.113281 525.574219 127.398438 525.574219 112.941406 "
       id="path22" />
    <path
       style=" stroke:none;fill-rule:nonzero;fill:rgb(17.999268%,17.350769%,42.91687%);fill-opacity:1;"
       d="M 611.054688 100.207031 L 618.015625 93.117188 C 614.089844 89.21875 608.683594 86.808594 602.710938 86.808594 C 600.570312 86.808594 598.550781 87.121094 596.597656 87.699219 C 589.492188 89.890625 584.195312 96.390625 584.195312 104.214844 C 584.195312 104.738281 584.242188 105.257812 584.289062 105.769531 C 584.921875 110.148438 588.160156 113.671875 592.226562 115.101562 L 604.371094 119.734375 C 606.265625 120.519531 606.960938 121.867188 606.960938 123.636719 C 606.960938 127.382812 602.675781 128.484375 599.640625 128.484375 C 595 128.484375 590.96875 126.339844 588.367188 122.90625 L 581.488281 129.730469 C 585.847656 135.429688 592.710938 139.113281 600.441406 139.113281 C 605.09375 139.113281 609.390625 137.777344 613.0625 135.472656 C 617.328125 132.714844 620.152344 127.914062 620.152344 122.457031 C 620.152344 116.011719 616.332031 110.566406 610.730469 108.234375 L 601.632812 104.8125 C 599.84375 104.21875 598.558594 102.878906 598.558594 100.957031 C 598.558594 98.636719 600.441406 96.699219 602.761719 96.699219 C 606.042969 96.699219 608.917969 98.054688 611.054688 100.207031 "
       id="path24" />
    <path
       style=" stroke:none;fill-rule:evenodd;fill:rgb(17.999268%,17.350769%,42.91687%);fill-opacity:1;"
       d="M 505.339844 66.25 L 518.421875 66.25 L 518.421875 139.113281 L 505.339844 139.113281 L 505.339844 66.25 "
       id="path26" />
    <path
       style=" stroke:none;fill-rule:evenodd;fill:rgb(17.999268%,17.350769%,42.91687%);fill-opacity:1;"
       d="M 290.703125 0.117188 L 297.402344 0.117188 L 297.402344 211.5 L 290.703125 211.5 L 290.703125 0.117188 "
       id="path28" />
    <path
       style=" stroke:none;fill-rule:nonzero;fill:rgb(17.999268%,17.350769%,42.91687%);fill-opacity:1;"
       d="M 90.664062 103.964844 C 87.710938 101.105469 83.675781 99.351562 79.238281 99.351562 C 71.941406 99.351562 66.003906 105.273438 66.003906 112.570312 C 66.003906 119.871094 71.921875 125.792969 79.21875 125.792969 C 83.679688 125.792969 87.703125 124.015625 90.664062 121.132812 L 90.664062 136.355469 C 87.214844 138.011719 83.304688 138.9375 79.21875 138.9375 C 64.65625 138.9375 52.851562 127.136719 52.851562 112.570312 C 52.851562 98.011719 64.65625 86.203125 79.21875 86.203125 C 83.308594 86.203125 87.210938 87.136719 90.664062 88.796875 L 90.664062 103.964844 "
       id="path30" />
    <path
       style=" stroke:none;fill-rule:evenodd;fill:rgb(17.999268%,17.350769%,42.91687%);fill-opacity:1;"
       d="M 32.972656 86.027344 L 32.972656 115.867188 C 32.972656 121.324219 28.539062 125.746094 23.082031 125.746094 C 17.625 125.746094 13.199219 121.324219 13.199219 115.867188 L 13.199219 86.027344 L 0 86.027344 L 0 115.855469 C 0 128.609375 10.335938 138.945312 23.089844 138.945312 C 35.839844 138.945312 46.195312 128.609375 46.195312 115.855469 L 46.195312 86.027344 L 32.972656 86.027344 "
       id="path32" />
    <path
       style=" stroke:none;fill-rule:evenodd;fill:rgb(17.999268%,17.350769%,42.91687%);fill-opacity:1;"
       d="M 123.730469 79.496094 L 116.105469 99.335938 L 125.328125 99.339844 L 125.140625 99.363281 C 132.4375 99.363281 138.335938 105.28125 138.335938 112.578125 C 138.335938 119.878906 132.417969 125.792969 125.121094 125.792969 C 117.820312 125.792969 111.90625 119.878906 111.90625 112.578125 L 98.761719 112.605469 C 98.761719 127.167969 110.558594 138.945312 125.121094 138.945312 C 139.683594 138.945312 151.488281 127.140625 151.488281 112.578125 C 151.488281 101.324219 144.453125 91.714844 134.527344 87.933594 L 142.949219 66.164062 L 102.164062 66.265625 L 102.164062 79.484375 L 123.730469 79.496094 "
       id="path34" />
    <path
       style=" stroke:none;fill-rule:evenodd;fill:rgb(17.999268%,17.350769%,42.91687%);fill-opacity:1;"
       d="M 202.75 93.730469 C 198.824219 89.050781 192.9375 86.074219 186.351562 86.074219 C 182.039062 86.074219 178.042969 87.351562 174.683594 89.546875 L 174.734375 86.089844 L 161.570312 86.089844 L 161.570312 138.90625 L 174.734375 138.90625 L 174.792969 109.15625 C 174.792969 103.699219 179.199219 99.273438 184.65625 99.273438 C 190.113281 99.273438 194.515625 103.730469 194.515625 109.1875 L 194.515625 138.90625 L 207.753906 138.90625 L 207.757812 109.15625 C 207.757812 103.699219 212.160156 99.273438 217.617188 99.273438 C 223.074219 99.273438 227.5 103.699219 227.5 109.15625 L 227.476562 138.90625 L 240.703125 138.90625 L 240.742188 107.449219 C 240.742188 95.605469 231.097656 86.074219 219.25 86.074219 C 212.617188 86.074219 206.683594 89.003906 202.75 93.730469 "
       id="path36" />
    <path
       style=" stroke:none;fill-rule:evenodd;fill:rgb(17.999268%,17.350769%,42.91687%);fill-opacity:1;"
       d="M 643.84375 66.09375 L 659.785156 66.09375 L 659.785156 138.957031 L 643.84375 138.957031 L 643.84375 66.09375 "
       id="path38" />
    <g
       clip-path="url(#clip1)"
       clip-rule="nonzero"
       id="g42">
      <path
         style=" stroke:none;fill-rule:evenodd;fill:rgb(17.999268%,17.350769%,42.91687%);fill-opacity:1;"
         d="M 700.800781 66.09375 L 716.742188 66.09375 L 716.742188 138.957031 L 700.800781 138.957031 L 700.800781 66.09375 "
         id="path40" />
    </g>
    <path
       style=" stroke:none;fill-rule:evenodd;fill:rgb(17.999268%,17.350769%,42.91687%);fill-opacity:1;"
       d="M 672.324219 66.09375 L 688.265625 66.09375 L 688.265625 138.957031 L 672.324219 138.957031 L 672.324219 66.09375 "
       id="path44" />
    <path
       style=" stroke:none;fill-rule:evenodd;fill:rgb(17.999268%,17.350769%,42.91687%);fill-opacity:1;"
       d="M 346.667969 32.59375 L 346.699219 0.1875 L 352.128906 0.1875 L 352.113281 32.59375 C 352.113281 40.929688 358.875 47.691406 367.214844 47.691406 C 375.550781 47.691406 382.472656 40.929688 382.472656 32.59375 L 382.386719 0.1875 L 387.816406 0.1875 L 387.804688 32.59375 C 387.804688 43.9375 378.558594 53.136719 367.214844 53.136719 C 355.867188 53.136719 346.667969 43.9375 346.667969 32.59375 "
       id="path46" />
    <path
       style=" stroke:none;fill-rule:evenodd;fill:rgb(17.999268%,17.350769%,42.91687%);fill-opacity:1;"
       d="M 400.589844 30.261719 C 400.589844 24.734375 404.984375 20.253906 410.511719 20.253906 C 416.039062 20.253906 420.523438 24.734375 420.523438 30.261719 L 420.554688 53.136719 L 425.984375 53.136719 L 426.027344 29.832031 C 426.027344 21.574219 419.230469 14.847656 410.972656 14.847656 C 406.929688 14.847656 403.25 16.515625 400.558594 19.121094 L 400.558594 14.789062 L 395.128906 14.789062 L 395.128906 53.136719 L 400.558594 53.136719 L 400.589844 30.261719 "
       id="path48" />
    <path
       style=" stroke:none;fill-rule:evenodd;fill:rgb(17.999268%,17.350769%,42.91687%);fill-opacity:1;"
       d="M 431.035156 3.832031 C 431.035156 1.835938 432.652344 0.21875 434.652344 0.21875 C 436.648438 0.21875 438.265625 1.835938 438.265625 3.832031 C 438.265625 5.828125 436.648438 7.449219 434.652344 7.449219 C 432.652344 7.449219 431.035156 5.828125 431.035156 3.832031 Z M 431.9375 14.722656 L 437.367188 14.722656 L 437.367188 53.136719 L 431.9375 53.136719 L 431.9375 14.722656 "
       id="path50" />
    <path
       style=" stroke:none;fill-rule:evenodd;fill:rgb(17.999268%,17.350769%,42.91687%);fill-opacity:1;"
       d="M 461.292969 53.136719 L 442.285156 14.246094 L 448.394531 14.246094 L 461.242188 40.742188 L 473.792969 14.246094 L 479.902344 14.246094 L 461.292969 53.136719 "
       id="path52" />
    <path
       style=" stroke:none;fill-rule:evenodd;fill:rgb(17.999268%,17.350769%,42.91687%);fill-opacity:1;"
       d="M 487.050781 31.140625 C 488.324219 24.824219 493.855469 20.070312 500.546875 20.070312 C 507.214844 20.070312 512.78125 24.800781 514.070312 31.089844 Z M 510.1875 43.808594 C 507.699219 46.210938 504.273438 47.6875 500.546875 47.6875 C 493.835938 47.6875 488.246094 42.902344 486.996094 36.558594 L 519.617188 36.570312 C 519.742188 35.691406 519.804688 34.789062 519.804688 33.878906 C 519.804688 23.238281 511.183594 14.617188 500.546875 14.617188 C 489.90625 14.617188 481.285156 23.238281 481.285156 33.878906 C 481.285156 44.515625 489.90625 53.136719 500.546875 53.136719 C 505.804688 53.136719 510.628906 51.03125 514.117188 47.613281 L 510.1875 43.808594 "
       id="path54" />
    <path
       style=" stroke:none;fill-rule:evenodd;fill:rgb(17.999268%,17.350769%,42.91687%);fill-opacity:1;"
       d="M 544.863281 15.195312 C 543.824219 14.96875 542.75 14.847656 541.644531 14.847656 C 537.601562 14.847656 533.921875 16.515625 531.230469 19.121094 L 531.230469 14.789062 L 525.800781 14.789062 L 525.800781 53.136719 L 531.230469 53.136719 L 531.261719 30.261719 C 531.261719 24.734375 535.65625 20.253906 541.183594 20.253906 C 542.464844 20.253906 543.738281 20.492188 544.863281 20.929688 L 544.863281 15.195312 "
       id="path56" />
    <path
       style=" stroke:none;fill-rule:evenodd;fill:rgb(17.999268%,17.350769%,42.91687%);fill-opacity:1;"
       d="M 638.933594 33.878906 C 638.933594 26.25 645.117188 20.070312 652.742188 20.070312 C 660.367188 20.070312 666.550781 26.25 666.550781 33.878906 C 666.550781 41.503906 660.367188 47.6875 652.742188 47.6875 C 645.117188 47.6875 638.933594 41.503906 638.933594 33.878906 Z M 666.660156 47.261719 C 663.15625 50.882812 658.179688 53.136719 652.742188 53.136719 C 642.105469 53.136719 633.480469 44.515625 633.480469 33.878906 C 633.480469 23.238281 642.105469 14.617188 652.742188 14.617188 C 658.214844 14.617188 663.152344 16.871094 666.660156 20.53125 L 666.660156 14.617188 L 672.109375 14.617188 L 672.109375 52.847656 L 666.660156 52.847656 L 666.660156 47.261719 "
       id="path58" />
    <path
       style=" stroke:none;fill-rule:evenodd;fill:rgb(17.999268%,17.350769%,42.91687%);fill-opacity:1;"
       d="M 577.609375 3.832031 C 577.609375 1.835938 579.226562 0.21875 581.226562 0.21875 C 583.222656 0.21875 584.839844 1.835938 584.839844 3.832031 C 584.839844 5.828125 583.222656 7.449219 581.226562 7.449219 C 579.226562 7.449219 577.609375 5.828125 577.609375 3.832031 Z M 578.507812 14.722656 L 583.9375 14.722656 L 583.9375 53.136719 L 578.507812 53.136719 L 578.507812 14.722656 "
       id="path60" />
    <g
       clip-path="url(#clip2)"
       clip-rule="nonzero"
       id="g64">
      <path
         style=" stroke:none;fill-rule:evenodd;fill:rgb(17.999268%,17.350769%,42.91687%);fill-opacity:1;"
         d="M 682.898438 33.878906 C 682.898438 26.25 689.082031 20.070312 696.707031 20.070312 C 704.335938 20.070312 710.515625 26.25 710.515625 33.878906 C 710.515625 41.503906 704.335938 47.6875 696.707031 47.6875 C 689.082031 47.6875 682.898438 41.503906 682.898438 33.878906 Z M 710.625 47.261719 C 707.121094 50.882812 702.144531 53.136719 696.707031 53.136719 C 686.070312 53.136719 677.445312 44.515625 677.445312 33.878906 C 677.445312 23.238281 686.070312 14.617188 696.707031 14.617188 C 702.179688 14.617188 707.117188 16.871094 710.625 20.53125 L 710.625 -0.00390625 L 716.078125 -0.00390625 L 716.078125 52.847656 L 710.625 52.847656 L 710.625 47.261719 "
         id="path62" />
    </g>
    <path
       style=" stroke:none;fill-rule:evenodd;fill:rgb(17.999268%,17.350769%,42.91687%);fill-opacity:1;"
       d="M 594.96875 33.878906 C 594.96875 26.25 601.148438 20.070312 608.777344 20.070312 C 616.402344 20.070312 622.585938 26.25 622.585938 33.878906 C 622.585938 41.503906 616.402344 47.6875 608.777344 47.6875 C 601.148438 47.6875 594.96875 41.503906 594.96875 33.878906 Z M 622.695312 47.261719 C 619.191406 50.882812 614.214844 53.136719 608.777344 53.136719 C 598.140625 53.136719 589.515625 44.515625 589.515625 33.878906 C 589.515625 23.238281 598.140625 14.617188 608.777344 14.617188 C 614.246094 14.617188 619.1875 16.871094 622.695312 20.53125 L 622.695312 -0.00390625 L 628.144531 -0.00390625 L 628.144531 52.847656 L 622.695312 52.847656 L 622.695312 47.261719 "
       id="path66" />
    <path
       style=" stroke:none;fill-rule:evenodd;fill:rgb(17.999268%,17.350769%,42.91687%);fill-opacity:1;"
       d="M 555.378906 24.359375 C 555.140625 21.746094 557.382812 19.90625 559.855469 19.90625 C 563.003906 19.957031 565.144531 21.683594 566.234375 23.960938 L 570.671875 21.4375 C 568.382812 16.964844 564.667969 14.527344 560.25 14.527344 C 554.46875 14.527344 549.773438 18.648438 549.597656 24.382812 C 549.597656 29.34375 552.589844 31.394531 556.621094 33.566406 L 564.4375 37.753906 C 566.320312 39.007812 567.101562 40.085938 567.101562 42.328125 C 566.964844 45.050781 564.363281 47.617188 561.023438 47.617188 C 557.164062 47.617188 554.632812 45.375 552.925781 42.234375 L 547.894531 44.691406 C 549.859375 50.210938 555.132812 53.136719 560.40625 53.136719 C 567.011719 53.136719 572.703125 48.246094 572.933594 41.5625 C 572.933594 35.828125 568.808594 33.308594 564.589844 31.132812 C 560.230469 28.710938 555.46875 26.855469 555.378906 24.359375 "
       id="path68" />
    <path
       style=" stroke:none;fill-rule:evenodd;fill:rgb(17.999268%,17.350769%,42.91687%);fill-opacity:1;"
       d="M 352.140625 192.441406 C 352.140625 184.8125 358.320312 178.632812 365.949219 178.632812 C 373.574219 178.632812 379.757812 184.8125 379.757812 192.441406 C 379.757812 200.066406 373.574219 206.246094 365.949219 206.246094 C 358.320312 206.246094 352.140625 200.066406 352.140625 192.441406 Z M 379.867188 205.820312 C 376.363281 209.445312 371.386719 211.699219 365.949219 211.699219 C 355.3125 211.699219 346.6875 203.078125 346.6875 192.441406 C 346.6875 181.804688 355.3125 173.179688 365.949219 173.179688 C 371.417969 173.179688 376.359375 175.433594 379.867188 179.097656 L 379.867188 158.558594 L 385.316406 158.558594 L 385.316406 211.410156 L 379.867188 211.410156 L 379.867188 205.820312 "
       id="path70" />
    <path
       style=" stroke:none;fill-rule:evenodd;fill:rgb(17.999268%,17.350769%,42.91687%);fill-opacity:1;"
       d="M 399.828125 189.703125 C 401.101562 183.386719 406.632812 178.632812 413.324219 178.632812 C 419.992188 178.632812 425.558594 183.363281 426.851562 189.652344 Z M 422.964844 202.367188 C 420.480469 204.769531 417.050781 206.246094 413.324219 206.246094 C 406.613281 206.246094 401.023438 201.464844 399.773438 195.121094 L 432.394531 195.132812 C 432.519531 194.253906 432.582031 193.355469 432.582031 192.441406 C 432.582031 181.804688 423.960938 173.179688 413.324219 173.179688 C 402.683594 173.179688 394.0625 181.804688 394.0625 192.441406 C 394.0625 203.078125 402.683594 211.699219 413.324219 211.699219 C 418.582031 211.699219 423.40625 209.59375 426.894531 206.175781 L 422.964844 202.367188 "
       id="path72" />
    <path
       style=" stroke:none;fill-rule:evenodd;fill:rgb(17.999268%,17.350769%,42.91687%);fill-opacity:1;"
       d="M 541.460938 192.441406 C 541.460938 184.8125 547.644531 178.632812 555.269531 178.632812 C 562.894531 178.632812 569.078125 184.8125 569.078125 192.441406 C 569.078125 200.066406 562.894531 206.246094 555.269531 206.246094 C 547.644531 206.246094 541.460938 200.066406 541.460938 192.441406 Z M 569.1875 205.820312 C 565.683594 209.445312 560.707031 211.699219 555.269531 211.699219 C 544.632812 211.699219 536.007812 203.078125 536.007812 192.441406 C 536.007812 181.804688 544.632812 173.179688 555.269531 173.179688 C 560.738281 173.179688 565.679688 175.433594 569.1875 179.097656 L 569.1875 173.179688 L 574.636719 173.179688 L 574.636719 211.410156 L 569.1875 211.410156 L 569.1875 205.820312 "
       id="path74" />
    <path
       style=" stroke:none;fill-rule:evenodd;fill:rgb(17.999268%,17.350769%,42.91687%);fill-opacity:1;"
       d="M 588.835938 192.441406 C 588.835938 184.8125 595.015625 178.632812 602.644531 178.632812 C 610.269531 178.632812 616.449219 184.8125 616.449219 192.441406 C 616.449219 200.066406 610.269531 206.246094 602.644531 206.246094 C 595.015625 206.246094 588.835938 200.066406 588.835938 192.441406 Z M 616.558594 205.820312 C 613.058594 209.445312 608.082031 211.699219 602.644531 211.699219 C 592.003906 211.699219 583.382812 203.078125 583.382812 192.441406 C 583.382812 181.804688 592.003906 173.179688 602.644531 173.179688 C 608.113281 173.179688 613.054688 175.433594 616.558594 179.097656 L 616.558594 158.558594 L 622.011719 158.558594 L 622.011719 211.410156 L 616.558594 211.410156 L 616.558594 205.820312 "
       id="path76" />
    <path
       style=" stroke:none;fill-rule:evenodd;fill:rgb(17.999268%,17.350769%,42.91687%);fill-opacity:1;"
       d="M 652.679688 173.757812 C 651.640625 173.53125 650.566406 173.410156 649.460938 173.410156 C 645.417969 173.410156 641.738281 175.078125 639.046875 177.683594 L 639.046875 173.355469 L 633.617188 173.355469 L 633.617188 211.699219 L 639.046875 211.699219 L 639.078125 188.824219 C 639.078125 183.296875 643.472656 178.816406 649 178.816406 C 650.277344 178.816406 651.554688 179.054688 652.679688 179.492188 L 652.679688 173.757812 "
       id="path78" />
    <path
       style=" stroke:none;fill-rule:evenodd;fill:rgb(17.999268%,17.350769%,42.91687%);fill-opacity:1;"
       d="M 661.425781 162.394531 C 661.425781 160.398438 663.042969 158.78125 665.039062 158.78125 C 667.035156 158.78125 668.65625 160.398438 668.65625 162.394531 C 668.65625 164.390625 667.035156 166.011719 665.039062 166.011719 C 663.042969 166.011719 661.425781 164.390625 661.425781 162.394531 Z M 662.324219 173.28125 L 667.753906 173.28125 L 667.753906 211.699219 L 662.324219 211.699219 L 662.324219 173.28125 "
       id="path80" />
    <g
       clip-path="url(#clip3)"
       clip-rule="nonzero"
       id="g84">
      <path
         style=" stroke:none;fill-rule:evenodd;fill:rgb(17.999268%,17.350769%,42.91687%);fill-opacity:1;"
         d="M 682.851562 192.441406 C 682.851562 184.8125 689.035156 178.632812 696.660156 178.632812 C 704.285156 178.632812 710.46875 184.8125 710.46875 192.441406 C 710.46875 200.066406 704.285156 206.246094 696.660156 206.246094 C 689.035156 206.246094 682.851562 200.066406 682.851562 192.441406 Z M 710.578125 205.820312 C 707.074219 209.445312 702.097656 211.699219 696.660156 211.699219 C 686.023438 211.699219 677.398438 203.078125 677.398438 192.441406 C 677.398438 181.804688 686.023438 173.179688 696.660156 173.179688 C 702.132812 173.179688 707.070312 175.433594 710.578125 179.097656 L 710.578125 158.558594 L 716.03125 158.558594 L 716.03125 211.410156 L 710.578125 211.410156 L 710.578125 205.820312 "
         id="path82" />
    </g>
    <g
       clip-path="url(#clip4)"
       clip-rule="nonzero"
       id="g88">
      <path
         style=" stroke:none;fill-rule:evenodd;fill:rgb(17.999268%,17.350769%,42.91687%);fill-opacity:1;"
         d="M 492.875 199.636719 L 513.414062 157.679688 L 527.265625 211.046875 L 521.535156 211.046875 L 511.777344 173.269531 L 492.871094 212.03125 L 473.972656 173.269531 L 464.21875 211.046875 L 458.488281 211.046875 L 472.339844 157.679688 L 492.875 199.636719 "
         id="path86" />
    </g>
  </g>
</svg>
