<svg height="464pt" viewBox="0 -108 464 464" width="464pt" xmlns="http://www.w3.org/2000/svg"><path d="m432 184h-24c-4.417969 0-8-3.582031-8-8v-48c0-4.417969 3.582031-8 8-8h32c4.417969 0 8 3.582031 8 8v40c0 8.835938-7.164062 16-16 16zm-16-16h16v-32h-16zm0 0" fill="#ff9811"/><path d="m368 216h-368v32h464v-32zm0 0" fill="#57565c"/><path d="m416 184v-64h-80v64c0 17.671875 14.328125 32 32 32h16c17.671875 0 32-14.328125 32-32zm0 0" fill="#ffb655"/><path d="m256 192h-192c-17.671875 0-32-14.328125-32-32s14.328125-32 32-32h192c-11.429688-.019531-21.992188 6.085938-27.679688 16-1.464843 2.5-2.570312 5.191406-3.28125 8-.675781 2.613281-1.023437 5.300781-1.039062 8-.023438 2.703125.324219 5.394531 1.039062 8 3.625 14.132812 16.371094 24.011719 30.960938 24zm0 0" fill="#939598"/><path d="m232 64h-208c-8.824219-.027344-15.972656-7.175781-16-16v-32c.027344-8.824219 7.175781-15.9726562 16-16h208c-11.429688-.0195312-21.992188 6.085938-27.679688 16-1.464843 2.5-2.570312 5.191406-3.28125 8-.675781 2.613281-1.023437 5.300781-1.039062 8-.023438 2.703125.324219 5.394531 1.039062 8 3.625 14.132812 16.371094 24.011719 30.960938 24zm0 0" fill="#e6e7e8"/><path d="m288 96c0 17.671875-14.328125 32-32 32h-192c14.589844.011719 27.335938-9.867188 30.960938-24 .714843-2.605469 1.0625-5.296875 1.039062-8-.015625-2.699219-.363281-5.386719-1.039062-8-.710938-2.808594-1.816407-5.5-3.28125-8-5.6875-9.914062-16.25-16.019531-27.679688-16h192c17.65625.042969 31.957031 14.34375 32 32zm0 0" fill="#bcbec0"/><path d="m232 0c-11.429688-.0195312-21.992188 6.085938-27.679688 16h-196.320312c.027344-8.824219 7.175781-15.9726562 16-16zm0 0" fill="#bcbec0"/><path d="m283.679688 80h-192c-5.6875-9.914062-16.25-16.019531-27.679688-16h192c11.429688-.019531 21.992188 6.085938 27.679688 16zm0 0" fill="#a7a9ac"/><path d="m256 128c-11.429688-.019531-21.992188 6.085938-27.679688 16h-192c5.6875-9.914062 16.25-16.019531 27.679688-16zm0 0" fill="#808285"/><path d="m398.078125 96h-16c-.070313-3.988281.859375-7.929688 2.714844-11.464844 1.503906-2.832031 1.503906-6.222656 0-9.054687-3.617188-7.21875-3.617188-15.71875 0-22.9375.804687-1.375 1.195312-2.953125 1.128906-4.542969h16c.074219 3.992188-.859375 7.9375-2.714844 11.472656-1.503906 2.839844-1.503906 6.238282 0 9.078125 3.613281 7.214844 3.613281 15.714844 0 22.929688-.804687 1.367187-1.195312 2.9375-1.128906 4.519531zm0 0" fill="#ffa733"/><path d="m366.078125 96h-16c-.070313-3.988281.859375-7.929688 2.714844-11.464844 1.503906-2.832031 1.503906-6.222656 0-9.054687-3.617188-7.21875-3.617188-15.71875 0-22.9375.804687-1.375 1.195312-2.953125 1.128906-4.542969h16c.074219 3.992188-.859375 7.9375-2.714844 11.472656-1.503906 2.839844-1.503906 6.238282 0 9.078125 3.613281 7.214844 3.613281 15.714844 0 22.929688-.804687 1.367187-1.195312 2.9375-1.128906 4.519531zm0 0" fill="#ffa733"/><g fill="#3e3d42"><path d="m224 160c-.023438 2.703125.324219 5.394531 1.039062 8h-161.039062v-16h161.039062c-.675781 2.613281-1.023437 5.300781-1.039062 8zm0 0"/><path d="m200 32c-.023438 2.703125.324219 5.394531 1.039062 8h-161.039062v-16h161.039062c-.675781 2.613281-1.023437 5.300781-1.039062 8zm0 0"/><path d="m256 88v16h-161.039062c.714843-2.605469 1.0625-5.296875 1.039062-8-.015625-2.699219-.363281-5.386719-1.039062-8zm0 0"/></g></svg>