<?xml version="1.0" encoding="UTF-8" standalone="no"?>
<!-- Created with Inkscape (http://www.inkscape.org/) -->

<svg
   width="40.569443mm"
   height="40.568066mm"
   viewBox="0 0 40.569443 40.568066"
   version="1.1"
   id="svg15329"
   inkscape:version="1.2.1 (9c6d41e410, 2022-07-14)"
   sodipodi:docname="1.svg"
   xmlns:inkscape="http://www.inkscape.org/namespaces/inkscape"
   xmlns:sodipodi="http://sodipodi.sourceforge.net/DTD/sodipodi-0.dtd"
   xmlns="http://www.w3.org/2000/svg"
   xmlns:svg="http://www.w3.org/2000/svg">
  <sodipodi:namedview
     id="namedview15331"
     pagecolor="#ffffff"
     bordercolor="#000000"
     borderopacity="0.25"
     inkscape:showpageshadow="2"
     inkscape:pageopacity="0.0"
     inkscape:pagecheckerboard="0"
     inkscape:deskcolor="#d1d1d1"
     inkscape:document-units="mm"
     showgrid="false"
     inkscape:zoom="1.5233586"
     inkscape:cx="2.9539991"
     inkscape:cy="98.466638"
     inkscape:window-width="1920"
     inkscape:window-height="1009"
     inkscape:window-x="2552"
     inkscape:window-y="421"
     inkscape:window-maximized="1"
     inkscape:current-layer="g16933" />
  <defs
     id="defs15326" />
  <g
     inkscape:label="Capa 1"
     inkscape:groupmode="layer"
     id="layer1"
     transform="translate(-71.073174,-74.547547)">
    <g
       id="g16933"
       transform="matrix(0.35277777,0,0,0.35277777,37.05768,-5.3166554)">
      <path
         fill-rule="nonzero"
         fill="#7f7f7f"
         fill-opacity="1"
         d="m 96.421875,283.88281 v -51.74609 c 0,-3.17578 2.578125,-5.75 5.750005,-5.75 h 103.49999 c 3.17579,0 5.75,2.57422 5.75,5.75 v 103.49609 c 0,3.17578 -2.57421,5.75 -5.75,5.75 H 102.17188 c -3.17188,0 -5.750005,-2.57422 -5.750005,-5.75"
         id="path2120"
         style="fill:#264653;fill-opacity:1" />
      <g
         fill="#ffffff"
         fill-opacity="1"
         id="g2124">
        <g
           id="use2122"
           transform="translate(136.88274,283.90445)">
          <path
             d="m 3.90625,-29.78125 v 29.734375 h 6.296875 v -13.40625 H 23.78125 v 13.40625 h 6.296875 V -29.78125 H 23.78125 v 12.265625 H 10.203125 V -29.78125 Z m 0,0"
             id="path17893" />
        </g>
      </g>
      <g
         id="g460">
        <g
           fill="#ffffff"
           fill-opacity="1"
           id="g2128">
          <g
             id="use2126"
             transform="translate(120.92227,305.74451)">
            <path
               d="m 1.375,-11.96875 v 11.953125 h 1.203125 v -5.75 h 6.53125 v 5.75 H 10.3125 V -11.96875 H 9.109375 v 5.28125 h -6.53125 v -5.28125 z m 0,0"
               id="path17841" />
          </g>
        </g>
        <g
           fill="#ffffff"
           fill-opacity="1"
           id="g2132">
          <g
             id="use2130"
             transform="translate(132.55939,305.74451)">
            <path
               d="m 0.125,-8.140625 c 0.078125,0.28125 0.203125,0.5625 0.328125,0.84375 C 1.234375,-5.09375 2.171875,-2.921875 3,-0.75 l 0.171875,0.421875 c 0.03125,0.09375 0.078125,0.1875 0.09375,0.28125 v 0.03125 c 0,0.078125 -0.03125,0.171875 -0.0625,0.234375 l -0.1875,0.5 c -0.25,0.703125 -0.640625,1.375 -1.46875,1.375 -0.46875,0 -0.9375,-0.109375 -1.40625,-0.21875 L 0.21875,2.84375 c 0.453125,0.0625 0.90625,0.125 1.34375,0.125 1.359375,0 2,-1.234375 2.421875,-2.328125 0.171875,-0.5 0.359375,-0.984375 0.53125,-1.484375 L 6.875,-7.25 c 0.109375,-0.296875 0.234375,-0.578125 0.328125,-0.890625 h -0.9375 c -0.171875,0 -0.171875,0.09375 -0.203125,0.203125 l -0.140625,0.359375 c -0.53125,1.359375 -1,2.78125 -1.484375,4.15625 C 4.171875,-2.671875 3.890625,-1.90625 3.75,-1.125 3.21875,-3.328125 2.234375,-5.515625 1.421875,-7.609375 l -0.125,-0.34375 c -0.0625,-0.140625 -0.09375,-0.1875 -0.25,-0.1875 z m 0,0"
               id="path17861" />
          </g>
        </g>
        <g
           fill="#ffffff"
           fill-opacity="1"
           id="g2136">
          <g
             id="use2134"
             transform="translate(139.87936,305.74451)">
            <path
               d="m 6.125,-11.96875 v 4.859375 C 5.5625,-7.734375 5,-8.25 3.953125,-8.25 c -2.046875,0 -3.28125,2.171875 -3.28125,4.171875 0,1.921875 1.140625,4.171875 3.171875,4.171875 0.84375,0 1.890625,-0.5625 2.25,-1.328125 l 0.015625,1.21875 H 7.21875 V -11.96875 Z M 1.78125,-3.75 v -0.203125 c 0,-1.21875 0.28125,-2.515625 1.484375,-3.125 0.375,-0.1875 0.796875,-0.3125 1.21875,-0.3125 0.609375,0 1.5,0.421875 1.625,1.09375 v 4.0625 c 0,0.859375 -1.0625,1.453125 -1.765625,1.453125 -0.703125,0 -1.453125,-0.359375 -1.875,-0.890625 -0.5,-0.59375 -0.609375,-1.34375 -0.6875,-2.078125 z m 0,0"
               id="path17885" />
          </g>
        </g>
        <g
           fill="#ffffff"
           fill-opacity="1"
           id="g2140">
          <g
             id="use2138"
             transform="translate(148.15361,305.74451)">
            <path
               d="M 2.15625,-5.96875 V -8.140625 H 1.109375 v 8.125 H 2.1875 V -3.9375 c 0,-1.203125 0.34375,-2.53125 2.09375,-3.15625 0.375,-0.125 0.75,-0.1875 1.125,-0.1875 V -8.25 c -1.09375,0 -2.125,0.53125 -2.765625,1.421875 -0.203125,0.25 -0.40625,0.546875 -0.484375,0.859375 z m 0,0"
               id="path17881" />
          </g>
        </g>
        <g
           fill="#ffffff"
           fill-opacity="1"
           id="g2144">
          <g
             id="use2142"
             transform="translate(153.67648,305.74451)">
            <path
               d="m 4.125,-8.296875 c -2.171875,0.21875 -3.5625,2.1875 -3.5625,4.234375 0,1.921875 1.359375,4.15625 3.828125,4.15625 2.1875,0 3.78125,-2.046875 3.78125,-4.140625 0,-2.0625 -1.421875,-4.25 -3.8125,-4.25 z M 1.671875,-3.90625 v -0.203125 c 0,-0.921875 0.15625,-1.9375 0.859375,-2.609375 0.5,-0.484375 1.171875,-0.71875 1.84375,-0.71875 1.8125,0 2.71875,1.53125 2.71875,3.265625 0,1.65625 -0.859375,3.359375 -2.71875,3.359375 -1,0 -1.8125,-0.53125 -2.296875,-1.390625 -0.265625,-0.53125 -0.34375,-1.125 -0.40625,-1.703125 z m 0,0"
               id="path17845" />
          </g>
        </g>
        <g
           fill="#ffffff"
           fill-opacity="1"
           id="g2148">
          <g
             id="use2146"
             transform="translate(162.43073,305.74451)">
            <path
               d="m 6.09375,-2.078125 0.015625,1.59375 c 0,1.046875 -0.234375,2.5 -1.59375,2.703125 h -0.1875 c -1.140625,0 -2.0625,-0.25 -3.203125,-0.765625 V 2.21875 c 0,0.578125 2.265625,0.859375 3.1875,0.859375 1.59375,0 2.796875,-1.28125 2.90625,-2.90625 V -8.25 H 6.125 v 1.375 C 5.6875,-7.609375 5.078125,-8.25 4.09375,-8.25 c -2.171875,0 -3.421875,2.21875 -3.421875,4.140625 0,1.796875 1.203125,3.796875 3.21875,3.796875 0.875,0 1.921875,-0.6875 2.203125,-1.765625 z m 0.015625,-2.25 C 6.09375,-4.21875 6.09375,-4.109375 6.09375,-4.03125 V -3.75 c -0.0625,1.09375 -0.453125,2.578125 -1.75,2.578125 -1.65625,0 -2.5625,-1.640625 -2.5625,-3 0,-1.453125 1.078125,-3.21875 2.75,-3.21875 0.921875,0 1.359375,0.765625 1.59375,1.59375 0.015625,0.078125 0.015625,0.15625 0.015625,0.234375 0,0.171875 -0.015625,0.34375 -0.015625,0.5 v 0.375 c 0,0.125 0,0.25 -0.015625,0.359375 z m 0,0"
               id="path17877" />
          </g>
        </g>
        <g
           fill="#ffffff"
           fill-opacity="1"
           id="g2152">
          <g
             id="use2150"
             transform="translate(170.70496,305.74451)">
            <path
               d="m 7.203125,-1.90625 c -0.84375,0.625 -1.625,1.125 -2.71875,1.125 -1.6875,0 -2.84375,-1.53125 -2.84375,-3.546875 h 5.6875 c 0,-1.8125 -0.75,-3.96875 -3.15625,-3.96875 -2.34375,0 -3.5625,2.265625 -3.5625,4.28125 V -3.9375 c 0.03125,2.03125 1.578125,4.03125 3.78125,4.03125 0.953125,0 1.890625,-0.328125 2.65625,-0.890625 0.09375,-0.078125 0.234375,-0.15625 0.234375,-0.3125 0,-0.0625 -0.015625,-0.109375 -0.03125,-0.171875 -0.015625,-0.203125 -0.03125,-0.421875 -0.046875,-0.625 z M 1.71875,-5 c 0.265625,-1.125 1.046875,-2.4375 2.390625,-2.4375 1.140625,0 1.9375,0.796875 2.203125,1.859375 C 6.359375,-5.390625 6.375,-5.1875 6.421875,-5 Z m 0,0"
               id="path17873" />
          </g>
        </g>
        <g
           fill="#ffffff"
           fill-opacity="1"
           id="g2156">
          <g
             id="use2154"
             transform="translate(178.50494,305.74451)">
            <path
               d="m 2.171875,-6.421875 v -1.71875 h -1.0625 v 8.125 h 1.09375 V -4.34375 c 0,-1.15625 0.234375,-3.046875 1.953125,-3.046875 0.59375,0 1.25,0.125 1.625,0.625 0.3125,0.390625 0.328125,0.90625 0.328125,1.390625 v 5.359375 H 7.21875 V -5.40625 c 0,-1.640625 -0.578125,-2.84375 -2.453125,-2.84375 -1.15625,0 -2.21875,0.765625 -2.59375,1.828125 z m 0,0"
               id="path17857" />
          </g>
        </g>
      </g>
      <g
         id="g477">
        <g
           fill="#ffffff"
           fill-opacity="1"
           id="g2160">
          <g
             id="use2158"
             transform="translate(134.00255,327.70456)">
            <path
               d="m 1.671875,-10.390625 v 0.875 c 0.828125,0 1.5625,-0.15625 2.359375,-0.5 V -0.875 h -2.25 v 0.859375 h 5.625 V -0.875 H 5.140625 v -10.640625 h -0.125 c -0.234375,0 -0.359375,0.21875 -0.53125,0.34375 -0.8125,0.578125 -1.828125,0.78125 -2.8125,0.78125 z m 0,0"
               id="path17865" />
          </g>
        </g>
        <g
           fill="#ffffff"
           fill-opacity="1"
           id="g2164">
          <g
             id="use2162"
             transform="translate(142.75681,327.70456)">
            <path
               d="m 1.703125,-1.359375 v 1.34375 h 1.34375 v -1.34375 z m 0,0"
               id="path17837" />
          </g>
        </g>
        <g
           fill="#ffffff"
           fill-opacity="1"
           id="g2168">
          <g
             id="use2166"
             transform="translate(147.43678,327.70456)">
            <path
               d="m 4.125,-11.515625 c -3.21875,0.3125 -3.375,3.984375 -3.375,5.90625 0,2.328125 0.46875,5.796875 3.625,5.796875 h 0.21875 c 2.359375,-0.296875 3.390625,-2.265625 3.390625,-5.90625 0,-1.59375 -0.125,-3.515625 -1.203125,-4.734375 -0.59375,-0.671875 -1.5,-1.078125 -2.390625,-1.078125 -0.078125,0 -0.171875,0.01563 -0.265625,0.01563 z M 1.859375,-4.875 C 1.84375,-5.015625 1.84375,-5.171875 1.84375,-5.296875 V -5.625 c 0,-2.15625 0.0625,-5.03125 2.546875,-5.03125 2.484375,0 2.5,3.078125 2.5,4.734375 v 0.8125 c 0,1.453125 -0.09375,3.21875 -1.28125,4.046875 C 5.25,-0.8125 4.828125,-0.671875 4.390625,-0.671875 3.6875,-0.671875 2.984375,-1.03125 2.5625,-1.65625 2.078125,-2.375 1.96875,-3.34375 1.890625,-4.203125 1.875,-4.421875 1.890625,-4.65625 1.859375,-4.875 Z m 0,0"
               id="path17849" />
          </g>
        </g>
        <g
           fill="#ffffff"
           fill-opacity="1"
           id="g2172">
          <g
             id="use2170"
             transform="translate(156.19102,327.70456)">
            <path
               d="m 4.125,-11.515625 c -3.21875,0.3125 -3.375,3.984375 -3.375,5.90625 0,2.328125 0.46875,5.796875 3.625,5.796875 h 0.21875 c 2.359375,-0.296875 3.390625,-2.265625 3.390625,-5.90625 0,-1.59375 -0.125,-3.515625 -1.203125,-4.734375 -0.59375,-0.671875 -1.5,-1.078125 -2.390625,-1.078125 -0.078125,0 -0.171875,0.01563 -0.265625,0.01563 z M 1.859375,-4.875 C 1.84375,-5.015625 1.84375,-5.171875 1.84375,-5.296875 V -5.625 c 0,-2.15625 0.0625,-5.03125 2.546875,-5.03125 2.484375,0 2.5,3.078125 2.5,4.734375 v 0.8125 c 0,1.453125 -0.09375,3.21875 -1.28125,4.046875 C 5.25,-0.8125 4.828125,-0.671875 4.390625,-0.671875 3.6875,-0.671875 2.984375,-1.03125 2.5625,-1.65625 2.078125,-2.375 1.96875,-3.34375 1.890625,-4.203125 1.875,-4.421875 1.890625,-4.65625 1.859375,-4.875 Z m 0,0"
               id="path17853" />
          </g>
        </g>
        <g
           fill="#ffffff"
           fill-opacity="1"
           id="g2176">
          <g
             id="use2174"
             transform="translate(164.94528,327.70456)">
            <path
               d="m 3.21875,-6.125 v 0.015625 C 1.90625,-5.71875 0.625,-4.78125 0.625,-3.1875 c 0,2.078125 1.953125,3.375 3.828125,3.375 H 4.53125 C 6.3125,0.15625 8.125,-1.25 8.125,-3.171875 c 0,-1.5 -1.21875,-2.5625 -2.59375,-2.9375 0.921875,-0.34375 2.359375,-0.9375 2.359375,-2.5 0,-1.75 -1.796875,-2.90625 -3.515625,-2.90625 -1.609375,0 -3.515625,1.046875 -3.515625,2.890625 v 0.140625 C 0.96875,-7.28125 2.15625,-6.28125 3.21875,-6.125 Z M 1.75,-2.96875 c 0,-0.0625 -0.015625,-0.140625 -0.015625,-0.21875 0,-1.46875 1.109375,-2.5 2.640625,-2.5 1.421875,0 2.609375,0.90625 2.609375,2.484375 0,1.578125 -1.125,2.5 -2.59375,2.5 C 2.96875,-0.703125 1.921875,-1.5 1.75,-2.96875 Z m 0.140625,-5.453125 v -0.15625 c 0,-1.5625 1.296875,-2.078125 2.453125,-2.078125 1.109375,0 2.359375,0.40625 2.515625,1.875 V -8.625 c 0,1.53125 -1.296875,2.078125 -2.46875,2.078125 -1.1875,0 -2.328125,-0.546875 -2.5,-1.875 z m 0,0"
               id="path17889" />
          </g>
        </g>
      </g>
      <g
         fill="#ffffff"
         fill-opacity="1"
         id="g2180">
        <g
           id="use2178"
           transform="translate(105.1675,247.61473)">
          <path
             d="m 1.671875,-10.390625 v 0.875 c 0.828125,0 1.5625,-0.15625 2.359375,-0.5 V -0.875 h -2.25 v 0.859375 h 5.625 V -0.875 H 5.140625 v -10.640625 h -0.125 c -0.234375,0 -0.359375,0.21875 -0.53125,0.34375 -0.8125,0.578125 -1.828125,0.78125 -2.8125,0.78125 z m 0,0"
             id="path17869" />
        </g>
      </g>
    </g>
  </g>
</svg>
