<?xml version="1.0" encoding="UTF-8" standalone="no"?>
<!-- Created with Inkscape (http://www.inkscape.org/) -->

<svg
   width="40.57357mm"
   height="40.569443mm"
   viewBox="0 0 40.573571 40.569443"
   version="1.1"
   id="svg35221"
   inkscape:version="1.2.1 (9c6d41e410, 2022-07-14)"
   sodipodi:docname="10.svg"
   xmlns:inkscape="http://www.inkscape.org/namespaces/inkscape"
   xmlns:sodipodi="http://sodipodi.sourceforge.net/DTD/sodipodi-0.dtd"
   xmlns="http://www.w3.org/2000/svg"
   xmlns:svg="http://www.w3.org/2000/svg">
  <sodipodi:namedview
     id="namedview35223"
     pagecolor="#ffffff"
     bordercolor="#000000"
     borderopacity="0.25"
     inkscape:showpageshadow="2"
     inkscape:pageopacity="0.0"
     inkscape:pagecheckerboard="0"
     inkscape:deskcolor="#d1d1d1"
     inkscape:document-units="mm"
     showgrid="false"
     inkscape:zoom="2.8284271"
     inkscape:cx="-117.20295"
     inkscape:cy="105.71246"
     inkscape:window-width="1920"
     inkscape:window-height="1009"
     inkscape:window-x="2552"
     inkscape:window-y="421"
     inkscape:window-maximized="1"
     inkscape:current-layer="g61300" />
  <defs
     id="defs35218" />
  <g
     inkscape:groupmode="layer"
     id="layer2"
     inkscape:label="Capa 2">
    <g
       id="g61300"
       transform="matrix(0.35277777,0,0,0.35277777,-765.01101,-122.86313)">
      <path
         fill-rule="nonzero"
         fill="#c81432"
         fill-opacity="1"
         d="m 2168.543,405.77344 v -51.75 c 0,-3.17578 2.5859,-5.75 5.7539,-5.75 h 103.5039 c 3.168,0 5.7383,2.57422 5.7383,5.75 v 103.5 c 0,3.17187 -2.5703,5.75 -5.7383,5.75 h -103.5039 c -3.168,0 -5.7539,-2.57813 -5.7539,-5.75"
         id="path7170"
         style="fill:#9a031e;fill-opacity:1" />
      <g
         fill="#ffffff"
         fill-opacity="1"
         id="g7174">
        <g
           id="use7172"
           transform="translate(2198.0857,405.79422)">
          <path
             d="m 3.90625,-29.78125 v 29.734375 h 5.265625 v -24.59375 L 21.890625,-0.125 22.53125,-0.046875 h 7.546875 V -29.78125 H 24.8125 V -5.1875 l -12.734375,-24.5 -0.640625,-0.09375 z m 0,0"
             id="path61881" />
        </g>
      </g>
      <g
         fill="#ffffff"
         fill-opacity="1"
         id="g7178">
        <g
           id="use7176"
           transform="translate(2232.1465,405.79422)">
          <path
             d="m 19.921875,-5.5625 c -2.265625,1.453125 -4.28125,2.90625 -7.453125,2.90625 -3.5625,0 -5.703125,-2.09375 -5.703125,-8.09375 H 20.5625 c 0,-4.765625 -1.203125,-10.25 -8.859375,-10.25 -2.796875,0 -5.828125,0.609375 -7.84375,2.65625 -2.109375,2.1875 -2.578125,5.3125 -2.578125,8.234375 v 0.390625 c 0.046875,5.34375 2.75,10.140625 10.890625,10.140625 2.53125,0 4.875,-0.59375 7.1875,-1.625 C 19.671875,-1.375 20.21875,-1.5 20.21875,-1.890625 l -0.04687,-0.84375 z M 6.9375,-13.03125 c 0.21875,-2.484375 1.890625,-4.875 4.625,-4.875 2.96875,0 3.953125,2.65625 4.15625,4.875 z m 0,0"
             id="path61877" />
        </g>
      </g>
      <g
         fill="#ffffff"
         fill-opacity="1"
         id="g7182">
        <g
           id="use7180"
           transform="translate(2207.8062,427.63428)">
          <path
             d="M 1.40625,-11.96875 V -0.015625 H 2.484375 V -11 l 6.125,10.953125 0.171875,0.03125 h 1.5 V -11.96875 H 9.21875 V -0.984375 L 3.078125,-11.9375 2.90625,-11.96875 Z m 0,0"
             id="path61829" />
        </g>
      </g>
      <g
         fill="#ffffff"
         fill-opacity="1"
         id="g7186">
        <g
           id="use7184"
           transform="translate(2219.4431,427.63428)">
          <path
             d="m 7.203125,-1.90625 c -0.84375,0.625 -1.625,1.125 -2.71875,1.125 -1.6875,0 -2.84375,-1.53125 -2.84375,-3.546875 h 5.6875 c 0,-1.8125 -0.75,-3.96875 -3.15625,-3.96875 -2.34375,0 -3.5625,2.265625 -3.5625,4.28125 V -3.9375 c 0.03125,2.03125 1.578125,4.03125 3.78125,4.03125 0.953125,0 1.890625,-0.328125 2.65625,-0.890625 0.09375,-0.078125 0.234375,-0.15625 0.234375,-0.3125 0,-0.0625 -0.015625,-0.109375 -0.03125,-0.171875 -0.015625,-0.203125 -0.03125,-0.421875 -0.046875,-0.625 z M 1.71875,-5 c 0.265625,-1.125 1.046875,-2.4375 2.390625,-2.4375 1.140625,0 1.9375,0.796875 2.203125,1.859375 C 6.359375,-5.390625 6.375,-5.1875 6.421875,-5 Z m 0,0"
             id="path61869" />
        </g>
      </g>
      <g
         fill="#ffffff"
         fill-opacity="1"
         id="g7190">
        <g
           id="use7188"
           transform="translate(2227.2432,427.63428)">
          <path
             d="m 4.125,-8.296875 c -2.171875,0.21875 -3.5625,2.1875 -3.5625,4.234375 0,1.921875 1.359375,4.15625 3.828125,4.15625 2.1875,0 3.78125,-2.046875 3.78125,-4.140625 0,-2.0625 -1.421875,-4.25 -3.8125,-4.25 z M 1.671875,-3.90625 v -0.203125 c 0,-0.921875 0.15625,-1.9375 0.859375,-2.609375 0.5,-0.484375 1.171875,-0.71875 1.84375,-0.71875 1.8125,0 2.71875,1.53125 2.71875,3.265625 0,1.65625 -0.859375,3.359375 -2.71875,3.359375 -1,0 -1.8125,-0.53125 -2.296875,-1.390625 -0.265625,-0.53125 -0.34375,-1.125 -0.40625,-1.703125 z m 0,0"
             id="path61841" />
        </g>
      </g>
      <g
         fill="#ffffff"
         fill-opacity="1"
         id="g7194">
        <g
           id="use7192"
           transform="translate(2235.9973,427.63428)">
          <path
             d="m 2.171875,-6.421875 v -1.71875 h -1.0625 v 8.125 h 1.09375 V -4.34375 c 0,-1.15625 0.234375,-3.046875 1.953125,-3.046875 0.59375,0 1.25,0.125 1.625,0.625 0.3125,0.390625 0.328125,0.90625 0.328125,1.390625 v 5.359375 H 7.21875 V -5.40625 c 0,-1.640625 -0.578125,-2.84375 -2.453125,-2.84375 -1.15625,0 -2.21875,0.765625 -2.59375,1.828125 z m 0,0"
             id="path61857" />
        </g>
      </g>
      <g
         fill="#ffffff"
         fill-opacity="1"
         id="g7198">
        <g
           id="use7196"
           transform="translate(2201.8062,449.59433)">
          <path
             d="m 1.25,-7.921875 c 0.3125,-1.25 0.921875,-2.6875 2.640625,-2.6875 1.46875,0 2.96875,0.890625 2.96875,2.578125 0,1.9375 -1.8125,3.265625 -3.125,4.359375 C 2.875,-2.9375 2.03125,-2.140625 1.21875,-1.359375 L 0.9375,-1.078125 C 0.828125,-0.984375 0.75,-0.9375 0.75,-0.75 v 0.734375 h 7.234375 v -0.96875 H 1.75 c 0.4375,-0.40625 0.90625,-0.8125 1.34375,-1.203125 0.609375,-0.53125 1.1875,-1.078125 1.8125,-1.578125 1.359375,-1.109375 3.078125,-2.328125 3.078125,-4.3125 0,-2 -1.671875,-3.375 -3.65625,-3.4375 h -0.125 c -1.46875,0 -2.796875,0.609375 -3.453125,2.40625 C 0.703125,-9.015625 0.640625,-8.875 0.640625,-8.75 v 0.03125 C 0.65625,-8.609375 0.75,-8.515625 0.8125,-8.453125 c 0.140625,0.171875 0.265625,0.375 0.4375,0.53125 z m 0,0"
             id="path61837" />
        </g>
      </g>
      <g
         fill="#ffffff"
         fill-opacity="1"
         id="g7202">
        <g
           id="use7200"
           transform="translate(2210.5603,449.59433)">
          <path
             d="m 4.125,-11.515625 c -3.21875,0.3125 -3.375,3.984375 -3.375,5.90625 0,2.328125 0.46875,5.796875 3.625,5.796875 h 0.21875 c 2.359375,-0.296875 3.390625,-2.265625 3.390625,-5.90625 0,-1.59375 -0.125,-3.515625 -1.203125,-4.734375 -0.59375,-0.671875 -1.5,-1.078125 -2.390625,-1.078125 -0.078125,0 -0.171875,0.01563 -0.265625,0.01563 z M 1.859375,-4.875 C 1.84375,-5.015625 1.84375,-5.171875 1.84375,-5.296875 V -5.625 c 0,-2.15625 0.0625,-5.03125 2.546875,-5.03125 2.484375,0 2.5,3.078125 2.5,4.734375 v 0.8125 c 0,1.453125 -0.09375,3.21875 -1.28125,4.046875 C 5.25,-0.8125 4.828125,-0.671875 4.390625,-0.671875 3.6875,-0.671875 2.984375,-1.03125 2.5625,-1.65625 2.078125,-2.375 1.96875,-3.34375 1.890625,-4.203125 1.875,-4.421875 1.890625,-4.65625 1.859375,-4.875 Z m 0,0"
             id="path61845" />
        </g>
      </g>
      <g
         fill="#ffffff"
         fill-opacity="1"
         id="g7206">
        <g
           id="use7204"
           transform="translate(2219.3145,449.59433)">
          <path
             d="m 1.703125,-1.359375 v 1.34375 h 1.34375 v -1.34375 z m 0,0"
             id="path61833" />
        </g>
      </g>
      <g
         fill="#ffffff"
         fill-opacity="1"
         id="g7210">
        <g
           id="use7208"
           transform="translate(2223.9944,449.59433)">
          <path
             d="m 1.671875,-10.390625 v 0.875 c 0.828125,0 1.5625,-0.15625 2.359375,-0.5 V -0.875 h -2.25 v 0.859375 h 5.625 V -0.875 H 5.140625 v -10.640625 h -0.125 c -0.234375,0 -0.359375,0.21875 -0.53125,0.34375 -0.8125,0.578125 -1.828125,0.78125 -2.8125,0.78125 z m 0,0"
             id="path61861" />
        </g>
      </g>
      <g
         fill="#ffffff"
         fill-opacity="1"
         id="g7214">
        <g
           id="use7212"
           transform="translate(2232.7485,449.59433)">
          <path
             d="m 3.21875,-6.125 v 0.015625 C 1.90625,-5.71875 0.625,-4.78125 0.625,-3.1875 c 0,2.078125 1.953125,3.375 3.828125,3.375 H 4.53125 C 6.3125,0.15625 8.125,-1.25 8.125,-3.171875 c 0,-1.5 -1.21875,-2.5625 -2.59375,-2.9375 0.921875,-0.34375 2.359375,-0.9375 2.359375,-2.5 0,-1.75 -1.796875,-2.90625 -3.515625,-2.90625 -1.609375,0 -3.515625,1.046875 -3.515625,2.890625 v 0.140625 C 0.96875,-7.28125 2.15625,-6.28125 3.21875,-6.125 Z M 1.75,-2.96875 c 0,-0.0625 -0.015625,-0.140625 -0.015625,-0.21875 0,-1.46875 1.109375,-2.5 2.640625,-2.5 1.421875,0 2.609375,0.90625 2.609375,2.484375 0,1.578125 -1.125,2.5 -2.59375,2.5 C 2.96875,-0.703125 1.921875,-1.5 1.75,-2.96875 Z m 0.140625,-5.453125 v -0.15625 c 0,-1.5625 1.296875,-2.078125 2.453125,-2.078125 1.109375,0 2.359375,0.40625 2.515625,1.875 V -8.625 c 0,1.53125 -1.296875,2.078125 -2.46875,2.078125 -1.1875,0 -2.328125,-0.546875 -2.5,-1.875 z m 0,0"
             id="path61873" />
        </g>
      </g>
      <g
         fill="#ffffff"
         fill-opacity="1"
         id="g7218">
        <g
           id="use7216"
           transform="translate(2241.5027,449.59433)">
          <path
             d="m 4.125,-11.515625 c -3.21875,0.3125 -3.375,3.984375 -3.375,5.90625 0,2.328125 0.46875,5.796875 3.625,5.796875 h 0.21875 c 2.359375,-0.296875 3.390625,-2.265625 3.390625,-5.90625 0,-1.59375 -0.125,-3.515625 -1.203125,-4.734375 -0.59375,-0.671875 -1.5,-1.078125 -2.390625,-1.078125 -0.078125,0 -0.171875,0.01563 -0.265625,0.01563 z M 1.859375,-4.875 C 1.84375,-5.015625 1.84375,-5.171875 1.84375,-5.296875 V -5.625 c 0,-2.15625 0.0625,-5.03125 2.546875,-5.03125 2.484375,0 2.5,3.078125 2.5,4.734375 v 0.8125 c 0,1.453125 -0.09375,3.21875 -1.28125,4.046875 C 5.25,-0.8125 4.828125,-0.671875 4.390625,-0.671875 3.6875,-0.671875 2.984375,-1.03125 2.5625,-1.65625 2.078125,-2.375 1.96875,-3.34375 1.890625,-4.203125 1.875,-4.421875 1.890625,-4.65625 1.859375,-4.875 Z m 0,0"
             id="path61849" />
        </g>
      </g>
      <g
         fill="#ffffff"
         fill-opacity="1"
         id="g7222">
        <g
           id="use7220"
           transform="translate(2177.291,369.50449)">
          <path
             d="m 1.671875,-10.390625 v 0.875 c 0.828125,0 1.5625,-0.15625 2.359375,-0.5 V -0.875 h -2.25 v 0.859375 h 5.625 V -0.875 H 5.140625 v -10.640625 h -0.125 c -0.234375,0 -0.359375,0.21875 -0.53125,0.34375 -0.8125,0.578125 -1.828125,0.78125 -2.8125,0.78125 z m 0,0"
             id="path61865" />
        </g>
      </g>
      <g
         fill="#ffffff"
         fill-opacity="1"
         id="g7226">
        <g
           id="use7224"
           transform="translate(2186.0452,369.50449)">
          <path
             d="m 4.125,-11.515625 c -3.21875,0.3125 -3.375,3.984375 -3.375,5.90625 0,2.328125 0.46875,5.796875 3.625,5.796875 h 0.21875 c 2.359375,-0.296875 3.390625,-2.265625 3.390625,-5.90625 0,-1.59375 -0.125,-3.515625 -1.203125,-4.734375 -0.59375,-0.671875 -1.5,-1.078125 -2.390625,-1.078125 -0.078125,0 -0.171875,0.01563 -0.265625,0.01563 z M 1.859375,-4.875 C 1.84375,-5.015625 1.84375,-5.171875 1.84375,-5.296875 V -5.625 c 0,-2.15625 0.0625,-5.03125 2.546875,-5.03125 2.484375,0 2.5,3.078125 2.5,4.734375 v 0.8125 c 0,1.453125 -0.09375,3.21875 -1.28125,4.046875 C 5.25,-0.8125 4.828125,-0.671875 4.390625,-0.671875 3.6875,-0.671875 2.984375,-1.03125 2.5625,-1.65625 2.078125,-2.375 1.96875,-3.34375 1.890625,-4.203125 1.875,-4.421875 1.890625,-4.65625 1.859375,-4.875 Z m 0,0"
             id="path61853" />
        </g>
      </g>
    </g>
  </g>
  <g
     inkscape:label="Capa 1"
     inkscape:groupmode="layer"
     id="layer1"
     transform="translate(-25.949774,-102.1557)">
    <g
       id="g35216"
       transform="matrix(0.35277777,0,0,0.35277777,-11.847197,-22.263639)" />
  </g>
</svg>
