<?xml version="1.0" encoding="UTF-8" standalone="no"?>
<!-- Created with Inkscape (http://www.inkscape.org/) -->

<svg
   width="40.57357mm"
   height="40.569443mm"
   viewBox="0 0 40.573571 40.569443"
   version="1.1"
   id="svg35221"
   inkscape:version="1.2.1 (9c6d41e410, 2022-07-14)"
   sodipodi:docname="16_clicked.svg"
   xmlns:inkscape="http://www.inkscape.org/namespaces/inkscape"
   xmlns:sodipodi="http://sodipodi.sourceforge.net/DTD/sodipodi-0.dtd"
   xmlns="http://www.w3.org/2000/svg"
   xmlns:svg="http://www.w3.org/2000/svg">
  <sodipodi:namedview
     id="namedview35223"
     pagecolor="#ffffff"
     bordercolor="#000000"
     borderopacity="0.25"
     inkscape:showpageshadow="2"
     inkscape:pageopacity="0.0"
     inkscape:pagecheckerboard="0"
     inkscape:deskcolor="#d1d1d1"
     inkscape:document-units="mm"
     showgrid="false"
     inkscape:zoom="2.8284271"
     inkscape:cx="-108.36412"
     inkscape:cy="105.71246"
     inkscape:window-width="1920"
     inkscape:window-height="1009"
     inkscape:window-x="2552"
     inkscape:window-y="421"
     inkscape:window-maximized="1"
     inkscape:current-layer="layer2" />
  <defs
     id="defs35218" />
  <g
     inkscape:groupmode="layer"
     id="layer2"
     inkscape:label="Capa 2">
    <g
       id="g68364"
       transform="matrix(0.35277777,0,0,0.35277777,-679.01176,-165.86274)">
      <path
         fill-rule="nonzero"
         fill="#ff3c3c"
         fill-opacity="1"
         d="m 1924.7578,527.66406 v -51.75 c 0,-3.17578 2.586,-5.75 5.7539,-5.75 h 103.5039 c 3.168,0 5.7539,2.57422 5.7539,5.75 v 103.5 c 0,3.17188 -2.5859,5.7461 -5.7539,5.7461 h -103.5039 c -3.1679,0 -5.7539,-2.57422 -5.7539,-5.7461"
         id="path6518"
         style="fill:#264653;fill-opacity:1" />
      <g
         fill="#ffffff"
         fill-opacity="1"
         id="g6522">
        <g
           id="use6520"
           transform="translate(1969.1863,527.68402)">
          <path
             d="M 3.078125,-7.671875 C 2.78125,-5.953125 2.40625,-4.28125 2.1875,-2.578125 2.140625,-2.484375 2.140625,-2.40625 2.140625,-2.3125 c 0,0.296875 0.171875,0.390625 0.390625,0.515625 l 0.765625,0.390625 c 3.09375,1.484375 6.421875,2.3125 9.859375,2.3125 4.5,0 9.203125,-1.375 10.234375,-7.5 0.09375,-0.609375 0.125,-1.203125 0.125,-1.796875 0,-5.359375 -3.765625,-8.796875 -9.03125,-9.90625 -2.28125,-0.46875 -6.515625,-0.890625 -6.515625,-4.375 0,-2.859375 2.75,-3.640625 5.234375,-3.640625 1.875,0 3.765625,0.390625 5.34375,1.328125 0.953125,0.5625 1.671875,1.328125 2.53125,1.984375 l 0.984375,-5.625 c -2.953125,-1.28125 -5.65625,-2.09375 -8.859375,-2.09375 -4.59375,0 -10.59375,1.25 -10.59375,8.734375 0,4.078125 2.703125,7.15625 6.34375,8.578125 2.828125,1.0625 6.5625,0.640625 8.484375,3.25 0.46875,0.734375 0.734375,1.421875 0.734375,2.3125 0,2.921875 -2.3125,4.078125 -5.109375,4.078125 -3.25,0 -6.546875,-1.125 -9.078125,-3.171875 C 3.6875,-7.203125 3.390625,-7.453125 3.078125,-7.671875 Z m 0,0"
             id="path68959" />
        </g>
      </g>
      <g
         fill="#ffffff"
         fill-opacity="1"
         id="g6526">
        <g
           id="use6524"
           transform="translate(1961.9868,549.52405)">
          <path
             d="m 0.875,-2.203125 c -0.046875,0.359375 -0.1875,0.78125 -0.1875,1.09375 0,0.296875 1.265625,0.78125 1.96875,0.984375 0.671875,0.1875 1.359375,0.3125 2.0625,0.3125 1.484375,0 3.25,-0.59375 3.9375,-2.265625 0.15625,-0.359375 0.25,-0.765625 0.25,-1.15625 C 8.90625,-4.578125 8,-5.75 6.8125,-6.296875 6.203125,-6.578125 5.515625,-6.703125 4.84375,-6.875 3.765625,-7.140625 1.953125,-7.4375 1.953125,-9.09375 c 0,-1.46875 1.78125,-2.140625 2.9375,-2.140625 0.6875,0 1.390625,0.109375 2.015625,0.40625 0.40625,0.1875 0.75,0.46875 1.140625,0.703125 0.03125,-0.359375 0.1875,-0.71875 0.1875,-1.078125 0,-0.328125 -1.265625,-0.71875 -1.9375,-0.84375 C 5.875,-12.140625 5.4375,-12.171875 5,-12.171875 c -1.625,0 -3.53125,0.671875 -4.046875,2.546875 -0.0625,0.203125 -0.09375,0.40625 -0.09375,0.640625 0,1.40625 1.046875,2.4375 2.25,2.90625 C 4.84375,-5.421875 7.8125,-5.640625 7.8125,-3 c -0.140625,1.453125 -1.640625,2.21875 -2.953125,2.21875 -0.984375,0 -2,-0.25 -2.875,-0.703125 C 1.578125,-1.6875 1.234375,-1.96875 0.875,-2.203125 Z m 0,0"
             id="path68911" />
        </g>
      </g>
      <g
         fill="#ffffff"
         fill-opacity="1"
         id="g6530">
        <g
           id="use6528"
           transform="translate(1971.7125,549.52405)">
          <path
             d="M 1.109375,-8.140625 V -2.3125 c 0,0.5 0.015625,1 0.21875,1.46875 0.328125,0.671875 1.015625,0.9375 1.71875,0.9375 1.15625,0 2.53125,-0.53125 3.0625,-1.609375 l 0.015625,1.5 h 1.09375 v -8.125 H 6.109375 v 4.125 C 6.109375,-3.75 6.125,-3.5 6.125,-3.234375 c 0,0.484375 -0.046875,0.96875 -0.28125,1.390625 -0.421875,0.703125 -1.15625,1.125 -2,1.125 -0.859375,0 -1.65625,0 -1.65625,-1.625 0,-0.25 0.015625,-0.515625 0.015625,-0.765625 v -5.03125 z m 0,0"
             id="path68915" />
        </g>
      </g>
      <g
         fill="#ffffff"
         fill-opacity="1"
         id="g6534">
        <g
           id="use6532"
           transform="translate(1979.9868,549.52405)">
          <path
             d="M 1.109375,-11.96875 V -0.015625 H 2.1875 V -11.96875 Z m 0,0"
             id="path68955" />
        </g>
      </g>
      <g
         fill="#ffffff"
         fill-opacity="1"
         id="g6538">
        <g
           id="use6536"
           transform="translate(1983.2327,549.52405)">
          <path
             d="M 1.828125,-8.140625 H 0.34375 v 0.859375 h 1.484375 v 7.265625 H 2.90625 V -7.28125 h 2.140625 v -0.859375 h -2.15625 v -1.5 c 0,-0.125 -0.015625,-0.25 -0.015625,-0.375 0,-0.9375 1.078125,-1.1875 1.859375,-1.1875 0.5,0 0.90625,0.109375 1.390625,0.203125 v -0.96875 c -0.421875,-0.04687 -0.859375,-0.109375 -1.28125,-0.109375 -1.09375,0 -2.5,0.40625 -2.890625,1.765625 -0.125,0.34375 -0.125,0.703125 -0.125,1.0625 z m 0,0"
             id="path68903" />
        </g>
      </g>
      <g
         fill="#ffffff"
         fill-opacity="1"
         id="g6542">
        <g
           id="use6540"
           transform="translate(1988.5098,549.52405)">
          <path
             d="M 1.109375,-8.140625 V -2.3125 c 0,0.5 0.015625,1 0.21875,1.46875 0.328125,0.671875 1.015625,0.9375 1.71875,0.9375 1.15625,0 2.53125,-0.53125 3.0625,-1.609375 l 0.015625,1.5 h 1.09375 v -8.125 H 6.109375 v 4.125 C 6.109375,-3.75 6.125,-3.5 6.125,-3.234375 c 0,0.484375 -0.046875,0.96875 -0.28125,1.390625 -0.421875,0.703125 -1.15625,1.125 -2,1.125 -0.859375,0 -1.65625,0 -1.65625,-1.625 0,-0.25 0.015625,-0.515625 0.015625,-0.765625 v -5.03125 z m 0,0"
             id="path68919" />
        </g>
      </g>
      <g
         fill="#ffffff"
         fill-opacity="1"
         id="g6546">
        <g
           id="use6544"
           transform="translate(1996.7839,549.52405)">
          <path
             d="M 2.15625,-5.96875 V -8.140625 H 1.109375 v 8.125 H 2.1875 V -3.9375 c 0,-1.203125 0.34375,-2.53125 2.09375,-3.15625 0.375,-0.125 0.75,-0.1875 1.125,-0.1875 V -8.25 c -1.09375,0 -2.125,0.53125 -2.765625,1.421875 -0.203125,0.25 -0.40625,0.546875 -0.484375,0.859375 z m 0,0"
             id="path68939" />
        </g>
      </g>
      <g
         fill="#ffffff"
         fill-opacity="1"
         id="g6550">
        <g
           id="use6548"
           transform="translate(1958.0262,571.48413)">
          <path
             d="m 1.390625,-8.703125 c 0.75,-1.09375 1.46875,-1.953125 3.109375,-1.953125 0.96875,0 1.984375,0.53125 1.984375,1.640625 0,1.984375 -2.03125,2.390625 -3.609375,2.46875 V -5.6875 h 1.1875 c 0.8125,0 1.625,0.109375 2.203125,0.75 0.453125,0.453125 0.65625,1.09375 0.65625,1.734375 0,1.40625 -1.015625,2.5 -2.53125,2.5 -1.453125,0 -2.765625,-0.78125 -3.59375,-1.9375 -0.109375,0.234375 -0.15625,0.6875 -0.15625,0.828125 V -1.75 C 0.90625,-1.078125 2.15625,-0.28125 3.046875,-0.015625 3.5,0.109375 3.9375,0.171875 4.40625,0.171875 6.09375,0.171875 8.125,-1 8.125,-3.140625 8.125,-4.25 7.46875,-5.1875 6.484375,-5.734375 c -0.28125,-0.171875 -0.625,-0.34375 -0.96875,-0.375 C 6.59375,-6.625 7.625,-7.578125 7.625,-9 c 0,-1.65625 -1.75,-2.515625 -3.171875,-2.515625 -1.4375,0 -2.65625,0.71875 -3.484375,1.875 -0.03125,0.046875 -0.078125,0.09375 -0.078125,0.171875 0,0.15625 0.328125,0.53125 0.5,0.765625 z m 0,0"
             id="path68943" />
        </g>
      </g>
      <g
         fill="#ffffff"
         fill-opacity="1"
         id="g6554">
        <g
           id="use6552"
           transform="translate(1966.7804,571.48413)">
          <path
             d="m 1.25,-7.921875 c 0.3125,-1.25 0.921875,-2.6875 2.640625,-2.6875 1.46875,0 2.96875,0.890625 2.96875,2.578125 0,1.9375 -1.8125,3.265625 -3.125,4.359375 C 2.875,-2.9375 2.03125,-2.140625 1.21875,-1.359375 L 0.9375,-1.078125 C 0.828125,-0.984375 0.75,-0.9375 0.75,-0.75 v 0.734375 h 7.234375 v -0.96875 H 1.75 c 0.4375,-0.40625 0.90625,-0.8125 1.34375,-1.203125 0.609375,-0.53125 1.1875,-1.078125 1.8125,-1.578125 1.359375,-1.109375 3.078125,-2.328125 3.078125,-4.3125 0,-2 -1.671875,-3.375 -3.65625,-3.4375 h -0.125 c -1.46875,0 -2.796875,0.609375 -3.453125,2.40625 C 0.703125,-9.015625 0.640625,-8.875 0.640625,-8.75 v 0.03125 C 0.65625,-8.609375 0.75,-8.515625 0.8125,-8.453125 c 0.140625,0.171875 0.265625,0.375 0.4375,0.53125 z m 0,0"
             id="path68923" />
        </g>
      </g>
      <g
         fill="#ffffff"
         fill-opacity="1"
         id="g6558">
        <g
           id="use6556"
           transform="translate(1975.5347,571.48413)">
          <path
             d="m 1.703125,-1.359375 v 1.34375 h 1.34375 v -1.34375 z m 0,0"
             id="path68907" />
        </g>
      </g>
      <g
         fill="#ffffff"
         fill-opacity="1"
         id="g6562">
        <g
           id="use6560"
           transform="translate(1980.2146,571.48413)">
          <path
             d="m 4.125,-11.515625 c -3.21875,0.3125 -3.375,3.984375 -3.375,5.90625 0,2.328125 0.46875,5.796875 3.625,5.796875 h 0.21875 c 2.359375,-0.296875 3.390625,-2.265625 3.390625,-5.90625 0,-1.59375 -0.125,-3.515625 -1.203125,-4.734375 -0.59375,-0.671875 -1.5,-1.078125 -2.390625,-1.078125 -0.078125,0 -0.171875,0.01563 -0.265625,0.01563 z M 1.859375,-4.875 C 1.84375,-5.015625 1.84375,-5.171875 1.84375,-5.296875 V -5.625 c 0,-2.15625 0.0625,-5.03125 2.546875,-5.03125 2.484375,0 2.5,3.078125 2.5,4.734375 v 0.8125 c 0,1.453125 -0.09375,3.21875 -1.28125,4.046875 C 5.25,-0.8125 4.828125,-0.671875 4.390625,-0.671875 3.6875,-0.671875 2.984375,-1.03125 2.5625,-1.65625 2.078125,-2.375 1.96875,-3.34375 1.890625,-4.203125 1.875,-4.421875 1.890625,-4.65625 1.859375,-4.875 Z m 0,0"
             id="path68927" />
        </g>
      </g>
      <g
         fill="#ffffff"
         fill-opacity="1"
         id="g6566">
        <g
           id="use6564"
           transform="translate(1988.9688,571.48413)">
          <path
             d="m 1.953125,-5.6875 h -0.03125 c 0,-1.984375 0.5625,-4.96875 3.546875,-4.96875 0.71875,0 1.265625,0.1875 1.90625,0.359375 V -11 c 0,-0.46875 -1.625,-0.515625 -1.9375,-0.515625 -2.578125,0 -4.234375,2.421875 -4.578125,4.75 -0.046875,0.390625 -0.0625,0.796875 -0.0625,1.1875 0,2.046875 0.328125,4.5625 2.390625,5.53125 C 3.5625,0.125 4,0.1875 4.421875,0.1875 c 2.09375,0 3.53125,-1.96875 3.53125,-3.96875 0,-1.359375 -0.5625,-3.15625 -1.890625,-3.75 -0.34375,-0.140625 -0.6875,-0.171875 -1.046875,-0.171875 -1.25,0.03125 -2.6875,0.890625 -3.0625,2.015625 z M 2,-4.03125 V -4.125 c 0,-1.34375 0.984375,-2.734375 2.515625,-2.734375 1.125,0 2.078125,0.734375 2.28125,2.234375 0.015625,0.28125 0.015625,0.59375 0.015625,0.890625 0,1.25 -0.359375,3.03125 -2.328125,3.03125 -1.578125,0 -2.3125,-1.3125 -2.484375,-2.890625 0,-0.078125 0.015625,-0.140625 0.015625,-0.21875 0,-0.0625 0,-0.140625 -0.015625,-0.21875 z m 0,0"
             id="path68947" />
        </g>
      </g>
      <g
         fill="#ffffff"
         fill-opacity="1"
         id="g6570">
        <g
           id="use6568"
           transform="translate(1997.7229,571.48413)">
          <path
             d="m 4.125,-11.515625 c -3.21875,0.3125 -3.375,3.984375 -3.375,5.90625 0,2.328125 0.46875,5.796875 3.625,5.796875 h 0.21875 c 2.359375,-0.296875 3.390625,-2.265625 3.390625,-5.90625 0,-1.59375 -0.125,-3.515625 -1.203125,-4.734375 -0.59375,-0.671875 -1.5,-1.078125 -2.390625,-1.078125 -0.078125,0 -0.171875,0.01563 -0.265625,0.01563 z M 1.859375,-4.875 C 1.84375,-5.015625 1.84375,-5.171875 1.84375,-5.296875 V -5.625 c 0,-2.15625 0.0625,-5.03125 2.546875,-5.03125 2.484375,0 2.5,3.078125 2.5,4.734375 v 0.8125 c 0,1.453125 -0.09375,3.21875 -1.28125,4.046875 C 5.25,-0.8125 4.828125,-0.671875 4.390625,-0.671875 3.6875,-0.671875 2.984375,-1.03125 2.5625,-1.65625 2.078125,-2.375 1.96875,-3.34375 1.890625,-4.203125 1.875,-4.421875 1.890625,-4.65625 1.859375,-4.875 Z m 0,0"
             id="path68931" />
        </g>
      </g>
      <g
         fill="#ffffff"
         fill-opacity="1"
         id="g6574">
        <g
           id="use6572"
           transform="translate(1933.5117,491.39426)">
          <path
             d="m 1.671875,-10.390625 v 0.875 c 0.828125,0 1.5625,-0.15625 2.359375,-0.5 V -0.875 h -2.25 v 0.859375 h 5.625 V -0.875 H 5.140625 v -10.640625 h -0.125 c -0.234375,0 -0.359375,0.21875 -0.53125,0.34375 -0.8125,0.578125 -1.828125,0.78125 -2.8125,0.78125 z m 0,0"
             id="path68935" />
        </g>
      </g>
      <g
         fill="#ffffff"
         fill-opacity="1"
         id="g6578">
        <g
           id="use6576"
           transform="translate(1942.2659,491.39426)">
          <path
             d="m 1.953125,-5.6875 h -0.03125 c 0,-1.984375 0.5625,-4.96875 3.546875,-4.96875 0.71875,0 1.265625,0.1875 1.90625,0.359375 V -11 c 0,-0.46875 -1.625,-0.515625 -1.9375,-0.515625 -2.578125,0 -4.234375,2.421875 -4.578125,4.75 -0.046875,0.390625 -0.0625,0.796875 -0.0625,1.1875 0,2.046875 0.328125,4.5625 2.390625,5.53125 C 3.5625,0.125 4,0.1875 4.421875,0.1875 c 2.09375,0 3.53125,-1.96875 3.53125,-3.96875 0,-1.359375 -0.5625,-3.15625 -1.890625,-3.75 -0.34375,-0.140625 -0.6875,-0.171875 -1.046875,-0.171875 -1.25,0.03125 -2.6875,0.890625 -3.0625,2.015625 z M 2,-4.03125 V -4.125 c 0,-1.34375 0.984375,-2.734375 2.515625,-2.734375 1.125,0 2.078125,0.734375 2.28125,2.234375 0.015625,0.28125 0.015625,0.59375 0.015625,0.890625 0,1.25 -0.359375,3.03125 -2.328125,3.03125 -1.578125,0 -2.3125,-1.3125 -2.484375,-2.890625 0,-0.078125 0.015625,-0.140625 0.015625,-0.21875 0,-0.0625 0,-0.140625 -0.015625,-0.21875 z m 0,0"
             id="path68951" />
        </g>
      </g>
    </g>
  </g>
  <g
     inkscape:label="Capa 1"
     inkscape:groupmode="layer"
     id="layer1"
     transform="translate(-25.949774,-102.1557)">
    <g
       id="g35216"
       transform="matrix(0.35277777,0,0,0.35277777,-11.847197,-22.263639)" />
    <rect
       style="fill:none;stroke:#008080;stroke-width:2.99976;stroke-dasharray:none"
       id="rect22454"
       width="37.605034"
       height="37.569675"
       x="27.449654"
       y="103.65559" />
  </g>
</svg>
