<?xml version="1.0" encoding="UTF-8" standalone="no"?>
<!-- Created with Inkscape (http://www.inkscape.org/) -->

<svg
   width="40.57357mm"
   height="40.569443mm"
   viewBox="0 0 40.573571 40.569443"
   version="1.1"
   id="svg35221"
   inkscape:version="1.2.1 (9c6d41e410, 2022-07-14)"
   sodipodi:docname="17.svg"
   xmlns:inkscape="http://www.inkscape.org/namespaces/inkscape"
   xmlns:sodipodi="http://sodipodi.sourceforge.net/DTD/sodipodi-0.dtd"
   xmlns="http://www.w3.org/2000/svg"
   xmlns:svg="http://www.w3.org/2000/svg">
  <sodipodi:namedview
     id="namedview35223"
     pagecolor="#ffffff"
     bordercolor="#000000"
     borderopacity="0.25"
     inkscape:showpageshadow="2"
     inkscape:pageopacity="0.0"
     inkscape:pagecheckerboard="0"
     inkscape:deskcolor="#d1d1d1"
     inkscape:document-units="mm"
     showgrid="false"
     inkscape:zoom="2.8284271"
     inkscape:cx="-117.20295"
     inkscape:cy="105.71246"
     inkscape:window-width="1920"
     inkscape:window-height="1009"
     inkscape:window-x="2552"
     inkscape:window-y="421"
     inkscape:window-maximized="1"
     inkscape:current-layer="g69462" />
  <defs
     id="defs35218" />
  <g
     inkscape:groupmode="layer"
     id="layer2"
     inkscape:label="Capa 2">
    <g
       id="g69462"
       transform="matrix(0.35277777,0,0,0.35277777,-722.01276,-165.86274)">
      <path
         fill-rule="nonzero"
         fill="#ff3c3c"
         fill-opacity="1"
         d="m 2046.6602,527.66406 v -51.75 c 0,-3.17578 2.5664,-5.75 5.7539,-5.75 h 103.4882 c 3.1836,0 5.75,2.57422 5.75,5.75 v 103.5 c 0,3.17188 -2.5664,5.7461 -5.75,5.7461 h -103.4882 c -3.1875,0 -5.7539,-2.57422 -5.7539,-5.7461"
         id="path6852"
         style="fill:#264653;fill-opacity:1" />
      <g
         fill="#ffffff"
         fill-opacity="1"
         id="g6856">
        <g
           id="use6854"
           transform="translate(2083.636,527.68402)">
          <path
             d="m 27.296875,-6.25 c -0.8125,0.421875 -1.5,1.015625 -2.3125,1.453125 -1.984375,1.0625 -4.078125,1.40625 -6.296875,1.40625 -2.53125,0 -5.109375,-0.515625 -6.953125,-2.34375 C 9.375,-8.09375 8.90625,-11.78125 8.90625,-14.90625 c 0,-3.171875 0.4375,-6.859375 2.828125,-9.171875 1.765625,-1.75 4.25,-2.359375 6.640625,-2.359375 2.53125,0 4.84375,0.6875 6.984375,2.1875 0.296875,0.21875 0.5625,0.46875 0.859375,0.640625 l 0.984375,-5.609375 c -2.828125,-0.9375 -5.609375,-1.5 -8.609375,-1.5 -4.453125,0 -9.125,0.765625 -12.421875,4.328125 -2.828125,3.078125 -3.5625,7.5 -3.5625,11.484375 0,4.5 0.984375,9.203125 4.421875,12.328125 3.03125,2.75 7.359375,3.484375 11.34375,3.484375 1.46875,0 2.96875,-0.046875 4.421875,-0.34375 1.328125,-0.34375 4.875,-1.59375 4.875,-2.28125 v -0.203125 c 0,-1.46875 -0.296875,-2.921875 -0.375,-4.328125 z m 0,0"
             id="path70089" />
        </g>
      </g>
      <g
         fill="#ffffff"
         fill-opacity="1"
         id="g6860">
        <g
           id="use6858"
           transform="translate(2113.7654,527.68402)">
          <path
             d="M 2.609375,-29.78125 V -0.046875 H 8.3125 V -29.78125 Z m 0,0"
             id="path70041" />
        </g>
      </g>
      <g
         fill="#ffffff"
         fill-opacity="1"
         id="g6864">
        <g
           id="use6862"
           transform="translate(2076.196,549.52405)">
          <path
             d="m 10.421875,-1.796875 c -0.34375,0.171875 -0.65625,0.421875 -1,0.59375 -0.703125,0.359375 -1.5,0.484375 -2.296875,0.484375 -0.953125,0 -1.84375,-0.21875 -2.734375,-0.9375 -1.28125,-1.015625 -1.90625,-2.734375 -1.90625,-4.328125 0,-2.59375 1.625,-5.28125 4.640625,-5.28125 0.65625,0 1.3125,0.140625 1.921875,0.359375 0.359375,0.15625 0.703125,0.375 1.046875,0.546875 l 0.203125,-1.21875 c -1.0625,-0.390625 -2.15625,-0.59375 -3.328125,-0.59375 -3.328125,0 -5.6875,3 -5.6875,6.1875 0,3.15625 2.25,6.171875 5.734375,6.171875 1.140625,0 2.328125,-0.203125 3.328125,-0.875 C 10.4375,-0.734375 10.5,-0.75 10.5,-0.890625 10.5,-0.984375 10.484375,-1.0625 10.46875,-1.125 Z m 0,0"
             id="path70081" />
        </g>
      </g>
      <g
         fill="#ffffff"
         fill-opacity="1"
         id="g6868">
        <g
           id="use6866"
           transform="translate(2087.4731,549.52405)">
          <path
             d="m 1.109375,-11.96875 v 11.953125 h 1.09375 V -4.34375 c 0,-1.15625 0.234375,-3.046875 1.953125,-3.046875 0.59375,0 1.25,0.125 1.625,0.625 0.3125,0.390625 0.328125,0.90625 0.328125,1.390625 v 5.359375 H 7.21875 V -5.4375 C 7.21875,-6.078125 7.1875,-6.71875 6.875,-7.265625 6.421875,-8.046875 5.546875,-8.25 4.71875,-8.25 c -1.0625,0 -2.296875,0.828125 -2.515625,1.765625 L 2.1875,-11.96875 Z m 0,0"
             id="path70065" />
        </g>
      </g>
      <g
         fill="#ffffff"
         fill-opacity="1"
         id="g6872">
        <g
           id="use6870"
           transform="translate(2095.7473,549.52405)">
          <path
             d="M 1.109375,-11.96875 V -0.015625 H 2.1875 V -11.96875 Z m 0,0"
             id="path70085" />
        </g>
      </g>
      <g
         fill="#ffffff"
         fill-opacity="1"
         id="g6876">
        <g
           id="use6874"
           transform="translate(2098.9929,549.52405)">
          <path
             d="m 4.125,-8.296875 c -2.171875,0.21875 -3.5625,2.1875 -3.5625,4.234375 0,1.921875 1.359375,4.15625 3.828125,4.15625 2.1875,0 3.78125,-2.046875 3.78125,-4.140625 0,-2.0625 -1.421875,-4.25 -3.8125,-4.25 z M 1.671875,-3.90625 v -0.203125 c 0,-0.921875 0.15625,-1.9375 0.859375,-2.609375 0.5,-0.484375 1.171875,-0.71875 1.84375,-0.71875 1.8125,0 2.71875,1.53125 2.71875,3.265625 0,1.65625 -0.859375,3.359375 -2.71875,3.359375 -1,0 -1.8125,-0.53125 -2.296875,-1.390625 -0.265625,-0.53125 -0.34375,-1.125 -0.40625,-1.703125 z m 0,0"
             id="path70033" />
        </g>
      </g>
      <g
         fill="#ffffff"
         fill-opacity="1"
         id="g6880">
        <g
           id="use6878"
           transform="translate(2107.2671,549.52405)">
          <path
             d="M 2.15625,-5.96875 V -8.140625 H 1.109375 v 8.125 H 2.1875 V -3.9375 c 0,-1.203125 0.34375,-2.53125 2.09375,-3.15625 0.375,-0.125 0.75,-0.1875 1.125,-0.1875 V -8.25 c -1.09375,0 -2.125,0.53125 -2.765625,1.421875 -0.203125,0.25 -0.40625,0.546875 -0.484375,0.859375 z m 0,0"
             id="path70053" />
        </g>
      </g>
      <g
         fill="#ffffff"
         fill-opacity="1"
         id="g6884">
        <g
           id="use6882"
           transform="translate(2112.79,549.52405)">
          <path
             d="m 1.109375,-8.140625 v 8.125 H 2.1875 v -8.125 z m 0,-3.828125 V -10.875 H 2.1875 v -1.09375 z m 0,0"
             id="path70029" />
        </g>
      </g>
      <g
         fill="#ffffff"
         fill-opacity="1"
         id="g6888">
        <g
           id="use6886"
           transform="translate(2116.0356,549.52405)">
          <path
             d="m 2.171875,-6.421875 v -1.71875 h -1.0625 v 8.125 h 1.09375 V -4.34375 c 0,-1.15625 0.234375,-3.046875 1.953125,-3.046875 0.59375,0 1.25,0.125 1.625,0.625 0.3125,0.390625 0.328125,0.90625 0.328125,1.390625 v 5.359375 H 7.21875 V -5.40625 c 0,-1.640625 -0.578125,-2.84375 -2.453125,-2.84375 -1.15625,0 -2.21875,0.765625 -2.59375,1.828125 z m 0,0"
             id="path70037" />
        </g>
      </g>
      <g
         fill="#ffffff"
         fill-opacity="1"
         id="g6892">
        <g
           id="use6890"
           transform="translate(2124.3101,549.52405)">
          <path
             d="m 7.203125,-1.90625 c -0.84375,0.625 -1.625,1.125 -2.71875,1.125 -1.6875,0 -2.84375,-1.53125 -2.84375,-3.546875 h 5.6875 c 0,-1.8125 -0.75,-3.96875 -3.15625,-3.96875 -2.34375,0 -3.5625,2.265625 -3.5625,4.28125 V -3.9375 c 0.03125,2.03125 1.578125,4.03125 3.78125,4.03125 0.953125,0 1.890625,-0.328125 2.65625,-0.890625 0.09375,-0.078125 0.234375,-0.15625 0.234375,-0.3125 0,-0.0625 -0.015625,-0.109375 -0.03125,-0.171875 -0.015625,-0.203125 -0.03125,-0.421875 -0.046875,-0.625 z M 1.71875,-5 c 0.265625,-1.125 1.046875,-2.4375 2.390625,-2.4375 1.140625,0 1.9375,0.796875 2.203125,1.859375 C 6.359375,-5.390625 6.375,-5.1875 6.421875,-5 Z m 0,0"
             id="path70049" />
        </g>
      </g>
      <g
         fill="#ffffff"
         fill-opacity="1"
         id="g6896">
        <g
           id="use6894"
           transform="translate(2084.2358,571.48413)">
          <path
             d="m 1.390625,-8.703125 c 0.75,-1.09375 1.46875,-1.953125 3.109375,-1.953125 0.96875,0 1.984375,0.53125 1.984375,1.640625 0,1.984375 -2.03125,2.390625 -3.609375,2.46875 V -5.6875 h 1.1875 c 0.8125,0 1.625,0.109375 2.203125,0.75 0.453125,0.453125 0.65625,1.09375 0.65625,1.734375 0,1.40625 -1.015625,2.5 -2.53125,2.5 -1.453125,0 -2.765625,-0.78125 -3.59375,-1.9375 -0.109375,0.234375 -0.15625,0.6875 -0.15625,0.828125 V -1.75 C 0.90625,-1.078125 2.15625,-0.28125 3.046875,-0.015625 3.5,0.109375 3.9375,0.171875 4.40625,0.171875 6.09375,0.171875 8.125,-1 8.125,-3.140625 8.125,-4.25 7.46875,-5.1875 6.484375,-5.734375 c -0.28125,-0.171875 -0.625,-0.34375 -0.96875,-0.375 C 6.59375,-6.625 7.625,-7.578125 7.625,-9 c 0,-1.65625 -1.75,-2.515625 -3.171875,-2.515625 -1.4375,0 -2.65625,0.71875 -3.484375,1.875 -0.03125,0.046875 -0.078125,0.09375 -0.078125,0.171875 0,0.15625 0.328125,0.53125 0.5,0.765625 z m 0,0"
             id="path70077" />
        </g>
      </g>
      <g
         fill="#ffffff"
         fill-opacity="1"
         id="g6900">
        <g
           id="use6898"
           transform="translate(2092.99,571.48413)">
          <path
             d="m 1.453125,-11.3125 v 6.171875 h 0.78125 c 0.203125,0 0.25,-0.140625 0.328125,-0.265625 0.5,-0.65625 1.296875,-0.9375 2.0625,-0.9375 1.671875,0 2.15625,1.5 2.15625,2.734375 0,0.734375 -0.125,1.5625 -0.671875,2.109375 C 5.59375,-0.953125 4.875,-0.703125 4.125,-0.703125 c -1.203125,0 -2.28125,-0.625 -2.9375,-1.609375 H 1.171875 c -0.15625,0.25 -0.453125,0.625 -0.453125,0.796875 0,0.15625 0.28125,0.375 0.40625,0.5 0.78125,0.75 1.859375,1.203125 2.953125,1.203125 2.015625,0 3.890625,-1.515625 3.890625,-3.75 0,-1.671875 -1.140625,-3.640625 -3.359375,-3.640625 -0.796875,0 -1.515625,0.328125 -2.109375,0.8125 v -4.015625 h 4.890625 v -0.90625 z m 0,0"
             id="path70057" />
        </g>
      </g>
      <g
         fill="#ffffff"
         fill-opacity="1"
         id="g6904">
        <g
           id="use6902"
           transform="translate(2101.7444,571.48413)">
          <path
             d="m 1.703125,-1.359375 v 1.34375 h 1.34375 v -1.34375 z m 0,0"
             id="path70025" />
        </g>
      </g>
      <g
         fill="#ffffff"
         fill-opacity="1"
         id="g6908">
        <g
           id="use6906"
           transform="translate(2106.4243,571.48413)">
          <path
             d="M 0.359375,-3.140625 H 5.34375 v 3.125 h 1.078125 v -3.125 h 1.96875 v -0.90625 h -1.96875 v -7.375 h -1.125 c -0.328125,0 -0.421875,0.40625 -0.59375,0.640625 -1.015625,1.625 -2.078125,3.203125 -3.125,4.828125 L 0.75,-4.671875 C 0.5625,-4.390625 0.359375,-4.15625 0.359375,-3.875 Z m 1.125,-0.90625 c 1.234375,-1.84375 2.4375,-3.71875 3.53125,-5.640625 0.125,-0.25 0.3125,-0.515625 0.359375,-0.796875 l 0.015625,6.4375 z m 0,0"
             id="path70069" />
        </g>
      </g>
      <g
         fill="#ffffff"
         fill-opacity="1"
         id="g6912">
        <g
           id="use6910"
           transform="translate(2115.1785,571.48413)">
          <path
             d="m 1.453125,-11.3125 v 6.171875 h 0.78125 c 0.203125,0 0.25,-0.140625 0.328125,-0.265625 0.5,-0.65625 1.296875,-0.9375 2.0625,-0.9375 1.671875,0 2.15625,1.5 2.15625,2.734375 0,0.734375 -0.125,1.5625 -0.671875,2.109375 C 5.59375,-0.953125 4.875,-0.703125 4.125,-0.703125 c -1.203125,0 -2.28125,-0.625 -2.9375,-1.609375 H 1.171875 c -0.15625,0.25 -0.453125,0.625 -0.453125,0.796875 0,0.15625 0.28125,0.375 0.40625,0.5 0.78125,0.75 1.859375,1.203125 2.953125,1.203125 2.015625,0 3.890625,-1.515625 3.890625,-3.75 0,-1.671875 -1.140625,-3.640625 -3.359375,-3.640625 -0.796875,0 -1.515625,0.328125 -2.109375,0.8125 v -4.015625 h 4.890625 v -0.90625 z m 0,0"
             id="path70061" />
        </g>
      </g>
      <g
         fill="#ffffff"
         fill-opacity="1"
         id="g6916">
        <g
           id="use6914"
           transform="translate(2055.4009,491.39426)">
          <path
             d="m 1.671875,-10.390625 v 0.875 c 0.828125,0 1.5625,-0.15625 2.359375,-0.5 V -0.875 h -2.25 v 0.859375 h 5.625 V -0.875 H 5.140625 v -10.640625 h -0.125 c -0.234375,0 -0.359375,0.21875 -0.53125,0.34375 -0.8125,0.578125 -1.828125,0.78125 -2.8125,0.78125 z m 0,0"
             id="path70045" />
        </g>
      </g>
      <g
         fill="#ffffff"
         fill-opacity="1"
         id="g6920">
        <g
           id="use6918"
           transform="translate(2064.155,491.39426)">
          <path
             d="m 0.625,-11.3125 v 0.96875 h 6.75 C 6.5625,-9.546875 5.8125,-8.75 5.1875,-7.796875 3.640625,-5.46875 2.796875,-2.703125 2.796875,0.09375 H 3.9375 c 0,-3.78125 1.4375,-7.25 3.859375,-10.125 C 7.953125,-10.1875 8.125,-10.3125 8.125,-10.5625 v -0.75 z m 0,0"
             id="path70073" />
        </g>
      </g>
    </g>
  </g>
  <g
     inkscape:label="Capa 1"
     inkscape:groupmode="layer"
     id="layer1"
     transform="translate(-25.949774,-102.1557)">
    <g
       id="g35216"
       transform="matrix(0.35277777,0,0,0.35277777,-11.847197,-22.263639)" />
  </g>
</svg>
