<?xml version="1.0" encoding="UTF-8" standalone="no"?>
<!-- Created with Inkscape (http://www.inkscape.org/) -->

<svg
   width="40.57357mm"
   height="40.569443mm"
   viewBox="0 0 40.573571 40.569443"
   version="1.1"
   id="svg35221"
   inkscape:version="1.2.1 (9c6d41e410, 2022-07-14)"
   sodipodi:docname="21.svg"
   xmlns:inkscape="http://www.inkscape.org/namespaces/inkscape"
   xmlns:sodipodi="http://sodipodi.sourceforge.net/DTD/sodipodi-0.dtd"
   xmlns="http://www.w3.org/2000/svg"
   xmlns:svg="http://www.w3.org/2000/svg">
  <sodipodi:namedview
     id="namedview35223"
     pagecolor="#ffffff"
     bordercolor="#000000"
     borderopacity="0.25"
     inkscape:showpageshadow="2"
     inkscape:pageopacity="0.0"
     inkscape:pagecheckerboard="0"
     inkscape:deskcolor="#d1d1d1"
     inkscape:document-units="mm"
     showgrid="false"
     inkscape:zoom="2.8284271"
     inkscape:cx="-88.918679"
     inkscape:cy="105.71246"
     inkscape:window-width="1920"
     inkscape:window-height="1009"
     inkscape:window-x="2552"
     inkscape:window-y="421"
     inkscape:window-maximized="1"
     inkscape:current-layer="g74002" />
  <defs
     id="defs35218" />
  <g
     inkscape:groupmode="layer"
     id="layer2"
     inkscape:label="Capa 2">
    <g
       id="g74002"
       transform="matrix(0.35277777,0,0,0.35277777,-120.01334,-208.86304)">
      <path
         fill-rule="nonzero"
         fill="#c8c850"
         fill-opacity="1"
         d="m 340.20312,649.55078 v -51.74609 c 0,-3.17578 2.57422,-5.75 5.75,-5.75 h 103.4961 c 3.17578,0 5.75,2.57422 5.75,5.75 v 103.49609 c 0,3.17578 -2.57422,5.75 -5.75,5.75 h -103.4961 c -3.17578,0 -5.75,-2.57422 -5.75,-5.75"
         id="path2986"
         style="fill:#e76f51;fill-opacity:1" />
      <g
         fill="#ffffff"
         fill-opacity="1"
         id="g2990">
        <g
           id="use2988"
           transform="translate(374.18228,649.57373)">
          <path
             d="M 3.078125,-7.671875 C 2.78125,-5.953125 2.40625,-4.28125 2.1875,-2.578125 2.140625,-2.484375 2.140625,-2.40625 2.140625,-2.3125 c 0,0.296875 0.171875,0.390625 0.390625,0.515625 l 0.765625,0.390625 c 3.09375,1.484375 6.421875,2.3125 9.859375,2.3125 4.5,0 9.203125,-1.375 10.234375,-7.5 0.09375,-0.609375 0.125,-1.203125 0.125,-1.796875 0,-5.359375 -3.765625,-8.796875 -9.03125,-9.90625 -2.28125,-0.46875 -6.515625,-0.890625 -6.515625,-4.375 0,-2.859375 2.75,-3.640625 5.234375,-3.640625 1.875,0 3.765625,0.390625 5.34375,1.328125 0.953125,0.5625 1.671875,1.328125 2.53125,1.984375 l 0.984375,-5.625 c -2.953125,-1.28125 -5.65625,-2.09375 -8.859375,-2.09375 -4.59375,0 -10.59375,1.25 -10.59375,8.734375 0,4.078125 2.703125,7.15625 6.34375,8.578125 2.828125,1.0625 6.5625,0.640625 8.484375,3.25 0.46875,0.734375 0.734375,1.421875 0.734375,2.3125 0,2.921875 -2.3125,4.078125 -5.109375,4.078125 -3.25,0 -6.546875,-1.125 -9.078125,-3.171875 C 3.6875,-7.203125 3.390625,-7.453125 3.078125,-7.671875 Z m 0,0"
             id="path74643" />
        </g>
      </g>
      <g
         fill="#ffffff"
         fill-opacity="1"
         id="g2994">
        <g
           id="use2992"
           transform="translate(400.3374,649.57373)">
          <path
             d="m 19.234375,-5.703125 c -0.6875,0.46875 -1.28125,0.984375 -2.015625,1.421875 -1.578125,0.890625 -3.46875,1.375 -5.265625,1.375 -3.90625,0 -4.5,-3.390625 -4.546875,-6 v -1.296875 c 0,-3.25 0.046875,-7.453125 4.640625,-7.453125 1.359375,0 2.953125,0.171875 4.1875,0.859375 0.859375,0.46875 1.546875,1.15625 2.359375,1.71875 0.296875,-1.15625 0.46875,-2.484375 0.6875,-3.6875 V -18.9375 c 0,-0.46875 -1.59375,-0.984375 -2.3125,-1.28125 C 15.296875,-20.90625 13.53125,-21 11.78125,-21 9.125,-21 6.25,-20.4375 4.328125,-18.515625 c -2.1875,2.15625 -2.78125,5.53125 -2.78125,8.40625 0,5.53125 2.390625,10.53125 10.328125,10.53125 2.34375,0 4.75,-0.46875 6.84375,-1.53125 0.265625,-0.09375 0.8125,-0.265625 0.8125,-0.640625 L 19.5,-2.703125 c -0.09375,-0.984375 -0.21875,-2.015625 -0.265625,-3 z m 0,0"
             id="path74639" />
        </g>
      </g>
      <g
         fill="#ffffff"
         fill-opacity="1"
         id="g2998">
        <g
           id="use2996"
           transform="translate(364.10211,671.41382)">
          <path
             d="m 0.875,-2.203125 c -0.046875,0.359375 -0.1875,0.78125 -0.1875,1.09375 0,0.296875 1.265625,0.78125 1.96875,0.984375 0.671875,0.1875 1.359375,0.3125 2.0625,0.3125 1.484375,0 3.25,-0.59375 3.9375,-2.265625 0.15625,-0.359375 0.25,-0.765625 0.25,-1.15625 C 8.90625,-4.578125 8,-5.75 6.8125,-6.296875 6.203125,-6.578125 5.515625,-6.703125 4.84375,-6.875 3.765625,-7.140625 1.953125,-7.4375 1.953125,-9.09375 c 0,-1.46875 1.78125,-2.140625 2.9375,-2.140625 0.6875,0 1.390625,0.109375 2.015625,0.40625 0.40625,0.1875 0.75,0.46875 1.140625,0.703125 0.03125,-0.359375 0.1875,-0.71875 0.1875,-1.078125 0,-0.328125 -1.265625,-0.71875 -1.9375,-0.84375 C 5.875,-12.140625 5.4375,-12.171875 5,-12.171875 c -1.625,0 -3.53125,0.671875 -4.046875,2.546875 -0.0625,0.203125 -0.09375,0.40625 -0.09375,0.640625 0,1.40625 1.046875,2.4375 2.25,2.90625 C 4.84375,-5.421875 7.8125,-5.640625 7.8125,-3 c -0.140625,1.453125 -1.640625,2.21875 -2.953125,2.21875 -0.984375,0 -2,-0.25 -2.875,-0.703125 C 1.578125,-1.6875 1.234375,-1.96875 0.875,-2.203125 Z m 0,0"
             id="path74579" />
        </g>
      </g>
      <g
         fill="#ffffff"
         fill-opacity="1"
         id="g3002">
        <g
           id="use3000"
           transform="translate(373.82782,671.41382)">
          <path
             d="m 7.296875,-1.953125 c -0.890625,0.65625 -1.609375,1.15625 -2.84375,1.15625 -1.921875,0 -2.671875,-1.78125 -2.671875,-3.28125 0,-1.609375 0.765625,-3.34375 2.671875,-3.34375 0.8125,0 1.484375,0.140625 2.3125,0.59375 0.125,0.0625 0.21875,0.140625 0.359375,0.1875 0.015625,-0.28125 0.140625,-0.578125 0.140625,-0.828125 0,-0.609375 -2.5,-0.828125 -2.75,-0.828125 -1.78125,0 -3.09375,1.171875 -3.609375,2.703125 C 0.71875,-5.0625 0.671875,-4.5 0.671875,-3.921875 0.6875,-1.90625 2.25,0.09375 4.40625,0.09375 c 0.96875,0 2,-0.296875 2.734375,-0.890625 0.125,-0.078125 0.25,-0.15625 0.25,-0.3125 0,-0.265625 -0.078125,-0.5625 -0.09375,-0.84375 z m 0,0"
             id="path74607" />
        </g>
      </g>
      <g
         fill="#ffffff"
         fill-opacity="1"
         id="g3006">
        <g
           id="use3004"
           transform="translate(381.62778,671.41382)">
          <path
             d="M 1.359375,-6.609375 C 1.65625,-6.75 1.890625,-6.953125 2.1875,-7.09375 2.796875,-7.359375 3.4375,-7.5 4.109375,-7.5 c 1.109375,0 1.734375,0.921875 1.734375,2.15625 v 0.765625 c -1.890625,0 -5.015625,0.40625 -5.015625,2.578125 0,1.109375 0.734375,2.09375 1.90625,2.09375 1.125,0 2.609375,-0.453125 3.109375,-1.3125 l 0.015625,1.203125 H 6.9375 V -4.5625 c 0,-0.234375 0.015625,-0.5 0.015625,-0.765625 0,-1.265625 -0.6875,-2.78125 -2.578125,-2.96875 H 4.1875 c -0.90625,0 -1.75,0.15625 -2.5625,0.546875 -0.125,0.046875 -0.34375,0.125 -0.34375,0.296875 0,0.265625 0.0625,0.5625 0.078125,0.84375 z M 5.84375,-4.0625 v 1.4375 c 0,1.09375 -0.828125,1.84375 -2.171875,1.84375 -0.75,0 -1.796875,-0.359375 -1.796875,-1.265625 0,-1.65625 2.65625,-2.015625 3.96875,-2.015625 z m 0,0"
             id="path74587" />
        </g>
      </g>
      <g
         fill="#ffffff"
         fill-opacity="1"
         id="g3010">
        <g
           id="use3008"
           transform="translate(389.67352,671.41382)">
          <path
             d="m 2.171875,-6.421875 v -1.71875 h -1.0625 v 8.125 h 1.09375 V -4.34375 c 0,-1.15625 0.234375,-3.046875 1.953125,-3.046875 0.59375,0 1.25,0.125 1.625,0.625 0.3125,0.390625 0.328125,0.90625 0.328125,1.390625 v 5.359375 H 7.21875 V -5.40625 c 0,-1.640625 -0.578125,-2.84375 -2.453125,-2.84375 -1.15625,0 -2.21875,0.765625 -2.59375,1.828125 z m 0,0"
             id="path74599" />
        </g>
      </g>
      <g
         fill="#ffffff"
         fill-opacity="1"
         id="g3014">
        <g
           id="use3012"
           transform="translate(397.94778,671.41382)">
          <path
             d="m 6.125,-11.96875 v 4.859375 C 5.5625,-7.734375 5,-8.25 3.953125,-8.25 c -2.046875,0 -3.28125,2.171875 -3.28125,4.171875 0,1.921875 1.140625,4.171875 3.171875,4.171875 0.84375,0 1.890625,-0.5625 2.25,-1.328125 l 0.015625,1.21875 H 7.21875 V -11.96875 Z M 1.78125,-3.75 v -0.203125 c 0,-1.21875 0.28125,-2.515625 1.484375,-3.125 0.375,-0.1875 0.796875,-0.3125 1.21875,-0.3125 0.609375,0 1.5,0.421875 1.625,1.09375 v 4.0625 c 0,0.859375 -1.0625,1.453125 -1.765625,1.453125 -0.703125,0 -1.453125,-0.359375 -1.875,-0.890625 -0.5,-0.59375 -0.609375,-1.34375 -0.6875,-2.078125 z m 0,0"
             id="path74623" />
        </g>
      </g>
      <g
         fill="#ffffff"
         fill-opacity="1"
         id="g3018">
        <g
           id="use3016"
           transform="translate(406.22202,671.41382)">
          <path
             d="m 1.109375,-8.140625 v 8.125 H 2.1875 v -8.125 z m 0,-3.828125 V -10.875 H 2.1875 v -1.09375 z m 0,0"
             id="path74595" />
        </g>
      </g>
      <g
         fill="#ffffff"
         fill-opacity="1"
         id="g3022">
        <g
           id="use3020"
           transform="translate(409.46777,671.41382)">
          <path
             d="M 1.109375,-8.140625 V -2.3125 c 0,0.5 0.015625,1 0.21875,1.46875 0.328125,0.671875 1.015625,0.9375 1.71875,0.9375 1.15625,0 2.53125,-0.53125 3.0625,-1.609375 l 0.015625,1.5 h 1.09375 v -8.125 H 6.109375 v 4.125 C 6.109375,-3.75 6.125,-3.5 6.125,-3.234375 c 0,0.484375 -0.046875,0.96875 -0.28125,1.390625 -0.421875,0.703125 -1.15625,1.125 -2,1.125 -0.859375,0 -1.65625,0 -1.65625,-1.625 0,-0.25 0.015625,-0.515625 0.015625,-0.765625 v -5.03125 z m 0,0"
             id="path74583" />
        </g>
      </g>
      <g
         fill="#ffffff"
         fill-opacity="1"
         id="g3026">
        <g
           id="use3024"
           transform="translate(417.74207,671.41382)">
          <path
             d="m 2.171875,-6.421875 v -1.71875 h -1.0625 v 8.125 h 1.09375 V -4.34375 c 0,-1.171875 0.234375,-3.046875 1.953125,-3.046875 0.59375,0 1.265625,0.125 1.640625,0.625 C 6.109375,-6.375 6.125,-5.859375 6.125,-5.375 v 5.359375 H 7.234375 V -4.34375 c 0,-1.171875 0.234375,-3.046875 1.9375,-3.046875 0.609375,0 1.28125,0.125 1.65625,0.625 0.3125,0.390625 0.328125,0.90625 0.328125,1.390625 v 5.359375 h 1.109375 v -4.5625 c 0,-0.296875 0.01563,-0.625 0.01563,-0.9375 0,-0.765625 -0.109375,-1.578125 -0.65625,-2.125 C 11.15625,-8.109375 10.4375,-8.25 9.796875,-8.25 8.578125,-8.25 7.640625,-7.453125 7.1875,-6.40625 6.90625,-7.640625 6.109375,-8.25 4.75,-8.25 c -1.09375,0 -2.25,0.78125 -2.578125,1.828125 z m 0,0"
             id="path74631" />
        </g>
      </g>
      <g
         fill="#ffffff"
         fill-opacity="1"
         id="g3030">
        <g
           id="use3028"
           transform="translate(373.46179,693.3739)">
          <path
             d="M 0.359375,-3.140625 H 5.34375 v 3.125 h 1.078125 v -3.125 h 1.96875 v -0.90625 h -1.96875 v -7.375 h -1.125 c -0.328125,0 -0.421875,0.40625 -0.59375,0.640625 -1.015625,1.625 -2.078125,3.203125 -3.125,4.828125 L 0.75,-4.671875 C 0.5625,-4.390625 0.359375,-4.15625 0.359375,-3.875 Z m 1.125,-0.90625 c 1.234375,-1.84375 2.4375,-3.71875 3.53125,-5.640625 0.125,-0.25 0.3125,-0.515625 0.359375,-0.796875 l 0.015625,6.4375 z m 0,0"
             id="path74615" />
        </g>
      </g>
      <g
         fill="#ffffff"
         fill-opacity="1"
         id="g3034">
        <g
           id="use3032"
           transform="translate(382.21603,693.3739)">
          <path
             d="M 0.359375,-3.140625 H 5.34375 v 3.125 h 1.078125 v -3.125 h 1.96875 v -0.90625 h -1.96875 v -7.375 h -1.125 c -0.328125,0 -0.421875,0.40625 -0.59375,0.640625 -1.015625,1.625 -2.078125,3.203125 -3.125,4.828125 L 0.75,-4.671875 C 0.5625,-4.390625 0.359375,-4.15625 0.359375,-3.875 Z m 1.125,-0.90625 c 1.234375,-1.84375 2.4375,-3.71875 3.53125,-5.640625 0.125,-0.25 0.3125,-0.515625 0.359375,-0.796875 l 0.015625,6.4375 z m 0,0"
             id="path74619" />
        </g>
      </g>
      <g
         fill="#ffffff"
         fill-opacity="1"
         id="g3038">
        <g
           id="use3036"
           transform="translate(390.97028,693.3739)">
          <path
             d="m 1.703125,-1.359375 v 1.34375 h 1.34375 v -1.34375 z m 0,0"
             id="path74575" />
        </g>
      </g>
      <g
         fill="#ffffff"
         fill-opacity="1"
         id="g3042">
        <g
           id="use3040"
           transform="translate(395.65027,693.3739)">
          <path
             d="M 6.796875,-5.671875 H 6.8125 c 0,1.859375 -0.40625,4.96875 -3.296875,4.96875 C 2.75,-0.703125 2.1875,-1 1.625,-1.390625 l -0.453125,0.78125 C 1.890625,-0.0625 2.703125,0.1875 3.59375,0.1875 c 2.9375,0 4.359375,-3.359375 4.359375,-5.796875 0,-2.015625 -0.234375,-4.8125 -2.421875,-5.703125 -0.359375,-0.140625 -0.765625,-0.203125 -1.15625,-0.203125 -2.1875,0 -3.578125,2 -3.578125,3.96875 0,1.796875 0.859375,3.90625 2.921875,3.90625 1.234375,0 2.703125,-0.875 3.078125,-2.03125 z M 6.75,-7.578125 c -0.015625,0.046875 -0.015625,0.109375 -0.015625,0.15625 0,0.125 0.015625,0.21875 0.015625,0.34375 v 0.09375 C 6.640625,-5.625 5.640625,-4.5 4.171875,-4.5 3.4375,-4.5 2.84375,-4.78125 2.40625,-5.390625 1.984375,-5.984375 1.921875,-6.71875 1.921875,-7.4375 c 0,-1.328125 0.265625,-3.21875 2.484375,-3.21875 1.640625,0 2.34375,1.703125 2.34375,2.953125 z m 0,0"
             id="path74627" />
        </g>
      </g>
      <g
         fill="#ffffff"
         fill-opacity="1"
         id="g3046">
        <g
           id="use3044"
           transform="translate(404.40454,693.3739)">
          <path
             d="m 1.453125,-11.3125 v 6.171875 h 0.78125 c 0.203125,0 0.25,-0.140625 0.328125,-0.265625 0.5,-0.65625 1.296875,-0.9375 2.0625,-0.9375 1.671875,0 2.15625,1.5 2.15625,2.734375 0,0.734375 -0.125,1.5625 -0.671875,2.109375 C 5.59375,-0.953125 4.875,-0.703125 4.125,-0.703125 c -1.203125,0 -2.28125,-0.625 -2.9375,-1.609375 H 1.171875 c -0.15625,0.25 -0.453125,0.625 -0.453125,0.796875 0,0.15625 0.28125,0.375 0.40625,0.5 0.78125,0.75 1.859375,1.203125 2.953125,1.203125 2.015625,0 3.890625,-1.515625 3.890625,-3.75 0,-1.671875 -1.140625,-3.640625 -3.359375,-3.640625 -0.796875,0 -1.515625,0.328125 -2.109375,0.8125 v -4.015625 h 4.890625 v -0.90625 z m 0,0"
             id="path74611" />
        </g>
      </g>
      <g
         fill="#ffffff"
         fill-opacity="1"
         id="g3050">
        <g
           id="use3048"
           transform="translate(413.15878,693.3739)">
          <path
             d="m 1.953125,-5.6875 h -0.03125 c 0,-1.984375 0.5625,-4.96875 3.546875,-4.96875 0.71875,0 1.265625,0.1875 1.90625,0.359375 V -11 c 0,-0.46875 -1.625,-0.515625 -1.9375,-0.515625 -2.578125,0 -4.234375,2.421875 -4.578125,4.75 -0.046875,0.390625 -0.0625,0.796875 -0.0625,1.1875 0,2.046875 0.328125,4.5625 2.390625,5.53125 C 3.5625,0.125 4,0.1875 4.421875,0.1875 c 2.09375,0 3.53125,-1.96875 3.53125,-3.96875 0,-1.359375 -0.5625,-3.15625 -1.890625,-3.75 -0.34375,-0.140625 -0.6875,-0.171875 -1.046875,-0.171875 -1.25,0.03125 -2.6875,0.890625 -3.0625,2.015625 z M 2,-4.03125 V -4.125 c 0,-1.34375 0.984375,-2.734375 2.515625,-2.734375 1.125,0 2.078125,0.734375 2.28125,2.234375 0.015625,0.28125 0.015625,0.59375 0.015625,0.890625 0,1.25 -0.359375,3.03125 -2.328125,3.03125 -1.578125,0 -2.3125,-1.3125 -2.484375,-2.890625 0,-0.078125 0.015625,-0.140625 0.015625,-0.21875 0,-0.0625 0,-0.140625 -0.015625,-0.21875 z m 0,0"
             id="path74635" />
        </g>
      </g>
      <g
         fill="#ffffff"
         fill-opacity="1"
         id="g3054">
        <g
           id="use3052"
           transform="translate(348.94662,613.28406)">
          <path
             d="m 1.25,-7.921875 c 0.3125,-1.25 0.921875,-2.6875 2.640625,-2.6875 1.46875,0 2.96875,0.890625 2.96875,2.578125 0,1.9375 -1.8125,3.265625 -3.125,4.359375 C 2.875,-2.9375 2.03125,-2.140625 1.21875,-1.359375 L 0.9375,-1.078125 C 0.828125,-0.984375 0.75,-0.9375 0.75,-0.75 v 0.734375 h 7.234375 v -0.96875 H 1.75 c 0.4375,-0.40625 0.90625,-0.8125 1.34375,-1.203125 0.609375,-0.53125 1.1875,-1.078125 1.8125,-1.578125 1.359375,-1.109375 3.078125,-2.328125 3.078125,-4.3125 0,-2 -1.671875,-3.375 -3.65625,-3.4375 h -0.125 c -1.46875,0 -2.796875,0.609375 -3.453125,2.40625 C 0.703125,-9.015625 0.640625,-8.875 0.640625,-8.75 v 0.03125 C 0.65625,-8.609375 0.75,-8.515625 0.8125,-8.453125 c 0.140625,0.171875 0.265625,0.375 0.4375,0.53125 z m 0,0"
             id="path74591" />
        </g>
      </g>
      <g
         fill="#ffffff"
         fill-opacity="1"
         id="g3058">
        <g
           id="use3056"
           transform="translate(357.70087,613.28406)">
          <path
             d="m 1.671875,-10.390625 v 0.875 c 0.828125,0 1.5625,-0.15625 2.359375,-0.5 V -0.875 h -2.25 v 0.859375 h 5.625 V -0.875 H 5.140625 v -10.640625 h -0.125 c -0.234375,0 -0.359375,0.21875 -0.53125,0.34375 -0.8125,0.578125 -1.828125,0.78125 -2.8125,0.78125 z m 0,0"
             id="path74603" />
        </g>
      </g>
    </g>
  </g>
  <g
     inkscape:label="Capa 1"
     inkscape:groupmode="layer"
     id="layer1"
     transform="translate(-25.949774,-102.1557)">
    <g
       id="g35216"
       transform="matrix(0.35277777,0,0,0.35277777,-11.847197,-22.263639)" />
  </g>
</svg>
