<?xml version="1.0" encoding="UTF-8" standalone="no"?>
<!-- Created with Inkscape (http://www.inkscape.org/) -->

<svg
   width="40.57357mm"
   height="40.569443mm"
   viewBox="0 0 40.573571 40.569443"
   version="1.1"
   id="svg35221"
   inkscape:version="1.2.1 (9c6d41e410, 2022-07-14)"
   sodipodi:docname="29.svg"
   xmlns:inkscape="http://www.inkscape.org/namespaces/inkscape"
   xmlns:sodipodi="http://sodipodi.sourceforge.net/DTD/sodipodi-0.dtd"
   xmlns="http://www.w3.org/2000/svg"
   xmlns:svg="http://www.w3.org/2000/svg">
  <sodipodi:namedview
     id="namedview35223"
     pagecolor="#ffffff"
     bordercolor="#000000"
     borderopacity="0.25"
     inkscape:showpageshadow="2"
     inkscape:pageopacity="0.0"
     inkscape:pagecheckerboard="0"
     inkscape:deskcolor="#d1d1d1"
     inkscape:document-units="mm"
     showgrid="false"
     inkscape:zoom="2.8284271"
     inkscape:cx="-100.23239"
     inkscape:cy="49.497475"
     inkscape:window-width="1920"
     inkscape:window-height="1009"
     inkscape:window-x="2552"
     inkscape:window-y="421"
     inkscape:window-maximized="1"
     inkscape:current-layer="g118453" />
  <defs
     id="defs35218" />
  <g
     inkscape:groupmode="layer"
     id="layer2"
     inkscape:label="Capa 2">
    <g
       id="g118453"
       transform="translate(47.88238,3.3532002)">
      <path
         fill-rule="nonzero"
         fill="#c8c850"
         fill-opacity="1"
         d="M -47.879618,16.930836 V -1.3240346 c 0,-1.1203446 0.908121,-2.0284721 2.028472,-2.0284721 h 36.5111238 c 1.1203517,0 2.0284722,0.9081275 2.0284722,2.0284721 V 35.187085 c 0,1.120345 -0.9081205,2.028472 -2.0284722,2.028472 H -45.851146 c -1.120351,0 -2.028472,-0.908127 -2.028472,-2.028472"
         id="path5034"
         style="stroke-width:0.352778;fill:#e76f51;fill-opacity:1" />
      <g
         fill="#ffffff"
         fill-opacity="1"
         id="g5038"
         transform="matrix(0.35277777,0,0,0.35277777,-511.89538,-212.21624)">
        <g
           id="use5036"
           transform="translate(1345.6974,649.57373)">
          <path
             d="m 27.296875,-6.25 c -0.8125,0.421875 -1.5,1.015625 -2.3125,1.453125 -1.984375,1.0625 -4.078125,1.40625 -6.296875,1.40625 -2.53125,0 -5.109375,-0.515625 -6.953125,-2.34375 C 9.375,-8.09375 8.90625,-11.78125 8.90625,-14.90625 c 0,-3.171875 0.4375,-6.859375 2.828125,-9.171875 1.765625,-1.75 4.25,-2.359375 6.640625,-2.359375 2.53125,0 4.84375,0.6875 6.984375,2.1875 0.296875,0.21875 0.5625,0.46875 0.859375,0.640625 l 0.984375,-5.609375 c -2.828125,-0.9375 -5.609375,-1.5 -8.609375,-1.5 -4.453125,0 -9.125,0.765625 -12.421875,4.328125 -2.828125,3.078125 -3.5625,7.5 -3.5625,11.484375 0,4.5 0.984375,9.203125 4.421875,12.328125 3.03125,2.75 7.359375,3.484375 11.34375,3.484375 1.46875,0 2.96875,-0.046875 4.421875,-0.34375 1.328125,-0.34375 4.875,-1.59375 4.875,-2.28125 v -0.203125 c 0,-1.46875 -0.296875,-2.921875 -0.375,-4.328125 z m 0,0"
             id="path118351" />
        </g>
      </g>
      <g
         fill="#ffffff"
         fill-opacity="1"
         id="g5042"
         transform="matrix(0.35277777,0,0,0.35277777,-511.89538,-212.21624)">
        <g
           id="use5040"
           transform="translate(1375.8268,649.57373)">
          <path
             d="M 2.578125,-20.265625 V -5.5625 c 0,1.234375 0.03125,2.5625 0.640625,3.671875 1.109375,2.140625 3.765625,2.3125 5.90625,2.3125 2.53125,0 5.65625,-1.53125 6.5625,-3.890625 l 0.03125,3.421875 h 5.703125 v -20.21875 H 15.59375 v 12.21875 c 0,2.953125 -1.03125,5.859375 -4.75,5.859375 -1.421875,0 -2.453125,-0.296875 -2.453125,-2.4375 v -15.640625 z m 0,0"
             id="path118347" />
        </g>
      </g>
      <g
         fill="#ffffff"
         fill-opacity="1"
         id="g5046"
         transform="matrix(0.35277777,0,0,0.35277777,-511.89538,-212.21624)">
        <g
           id="use5044"
           transform="translate(1347.8577,671.41382)">
          <path
             d="m 10.421875,-1.796875 c -0.34375,0.171875 -0.65625,0.421875 -1,0.59375 -0.703125,0.359375 -1.5,0.484375 -2.296875,0.484375 -0.953125,0 -1.84375,-0.21875 -2.734375,-0.9375 -1.28125,-1.015625 -1.90625,-2.734375 -1.90625,-4.328125 0,-2.59375 1.625,-5.28125 4.640625,-5.28125 0.65625,0 1.3125,0.140625 1.921875,0.359375 0.359375,0.15625 0.703125,0.375 1.046875,0.546875 l 0.203125,-1.21875 c -1.0625,-0.390625 -2.15625,-0.59375 -3.328125,-0.59375 -3.328125,0 -5.6875,3 -5.6875,6.1875 0,3.15625 2.25,6.171875 5.734375,6.171875 1.140625,0 2.328125,-0.203125 3.328125,-0.875 C 10.4375,-0.734375 10.5,-0.75 10.5,-0.890625 10.5,-0.984375 10.484375,-1.0625 10.46875,-1.125 Z m 0,0"
             id="path118335" />
        </g>
      </g>
      <g
         fill="#ffffff"
         fill-opacity="1"
         id="g5050"
         transform="matrix(0.35277777,0,0,0.35277777,-511.89538,-212.21624)">
        <g
           id="use5048"
           transform="translate(1359.1348,671.41382)">
          <path
             d="m 4.125,-8.296875 c -2.171875,0.21875 -3.5625,2.1875 -3.5625,4.234375 0,1.921875 1.359375,4.15625 3.828125,4.15625 2.1875,0 3.78125,-2.046875 3.78125,-4.140625 0,-2.0625 -1.421875,-4.25 -3.8125,-4.25 z M 1.671875,-3.90625 v -0.203125 c 0,-0.921875 0.15625,-1.9375 0.859375,-2.609375 0.5,-0.484375 1.171875,-0.71875 1.84375,-0.71875 1.8125,0 2.71875,1.53125 2.71875,3.265625 0,1.65625 -0.859375,3.359375 -2.71875,3.359375 -1,0 -1.8125,-0.53125 -2.296875,-1.390625 -0.265625,-0.53125 -0.34375,-1.125 -0.40625,-1.703125 z m 0,0"
             id="path118307" />
        </g>
      </g>
      <g
         fill="#ffffff"
         fill-opacity="1"
         id="g5054"
         transform="matrix(0.35277777,0,0,0.35277777,-511.89538,-212.21624)">
        <g
           id="use5052"
           transform="translate(1367.8889,671.41382)">
          <path
             d="m 2.1875,-7.015625 v -1.125 H 1.109375 v 11 h 1.09375 v -3.96875 c 0.484375,0.671875 1.15625,1.21875 2.078125,1.21875 2.09375,0 3.375,-2.265625 3.375,-4.234375 0,-1.71875 -0.9375,-3.96875 -2.875,-4.125 H 4.625 c -1.015625,0 -1.765625,0.484375 -2.4375,1.234375 z m 4.34375,3.1875 C 6.40625,-2.390625 5.421875,-0.75 3.765625,-0.75 c -0.734375,0 -1.5625,-0.65625 -1.5625,-1.375 V -6.203125 C 2.3125,-6.828125 3.3125,-7.375 3.953125,-7.375 c 1.6875,0 2.59375,1.921875 2.59375,3.265625 0,0.09375 0,0.1875 -0.015625,0.28125 z m 0,0"
             id="path118291" />
        </g>
      </g>
      <g
         fill="#ffffff"
         fill-opacity="1"
         id="g5058"
         transform="matrix(0.35277777,0,0,0.35277777,-511.89538,-212.21624)">
        <g
           id="use5056"
           transform="translate(1376.1632,671.41382)">
          <path
             d="m 2.1875,-7.015625 v -1.125 H 1.109375 v 11 h 1.09375 v -3.96875 c 0.484375,0.671875 1.15625,1.21875 2.078125,1.21875 2.09375,0 3.375,-2.265625 3.375,-4.234375 0,-1.71875 -0.9375,-3.96875 -2.875,-4.125 H 4.625 c -1.015625,0 -1.765625,0.484375 -2.4375,1.234375 z m 4.34375,3.1875 C 6.40625,-2.390625 5.421875,-0.75 3.765625,-0.75 c -0.734375,0 -1.5625,-0.65625 -1.5625,-1.375 V -6.203125 C 2.3125,-6.828125 3.3125,-7.375 3.953125,-7.375 c 1.6875,0 2.59375,1.921875 2.59375,3.265625 0,0.09375 0,0.1875 -0.015625,0.28125 z m 0,0"
             id="path118295" />
        </g>
      </g>
      <g
         fill="#ffffff"
         fill-opacity="1"
         id="g5062"
         transform="matrix(0.35277777,0,0,0.35277777,-511.89538,-212.21624)">
        <g
           id="use5060"
           transform="translate(1384.4374,671.41382)">
          <path
             d="m 7.203125,-1.90625 c -0.84375,0.625 -1.625,1.125 -2.71875,1.125 -1.6875,0 -2.84375,-1.53125 -2.84375,-3.546875 h 5.6875 c 0,-1.8125 -0.75,-3.96875 -3.15625,-3.96875 -2.34375,0 -3.5625,2.265625 -3.5625,4.28125 V -3.9375 c 0.03125,2.03125 1.578125,4.03125 3.78125,4.03125 0.953125,0 1.890625,-0.328125 2.65625,-0.890625 0.09375,-0.078125 0.234375,-0.15625 0.234375,-0.3125 0,-0.0625 -0.015625,-0.109375 -0.03125,-0.171875 -0.015625,-0.203125 -0.03125,-0.421875 -0.046875,-0.625 z M 1.71875,-5 c 0.265625,-1.125 1.046875,-2.4375 2.390625,-2.4375 1.140625,0 1.9375,0.796875 2.203125,1.859375 C 6.359375,-5.390625 6.375,-5.1875 6.421875,-5 Z m 0,0"
             id="path118311" />
        </g>
      </g>
      <g
         fill="#ffffff"
         fill-opacity="1"
         id="g5066"
         transform="matrix(0.35277777,0,0,0.35277777,-511.89538,-212.21624)">
        <g
           id="use5064"
           transform="translate(1392.2373,671.41382)">
          <path
             d="M 2.15625,-5.96875 V -8.140625 H 1.109375 v 8.125 H 2.1875 V -3.9375 c 0,-1.203125 0.34375,-2.53125 2.09375,-3.15625 0.375,-0.125 0.75,-0.1875 1.125,-0.1875 V -8.25 c -1.09375,0 -2.125,0.53125 -2.765625,1.421875 -0.203125,0.25 -0.40625,0.546875 -0.484375,0.859375 z m 0,0"
             id="path118315" />
        </g>
      </g>
      <g
         fill="#ffffff"
         fill-opacity="1"
         id="g5070"
         transform="matrix(0.35277777,0,0,0.35277777,-511.89538,-212.21624)">
        <g
           id="use5068"
           transform="translate(1348.5775,693.3739)">
          <path
             d="m 1.953125,-5.6875 h -0.03125 c 0,-1.984375 0.5625,-4.96875 3.546875,-4.96875 0.71875,0 1.265625,0.1875 1.90625,0.359375 V -11 c 0,-0.46875 -1.625,-0.515625 -1.9375,-0.515625 -2.578125,0 -4.234375,2.421875 -4.578125,4.75 -0.046875,0.390625 -0.0625,0.796875 -0.0625,1.1875 0,2.046875 0.328125,4.5625 2.390625,5.53125 C 3.5625,0.125 4,0.1875 4.421875,0.1875 c 2.09375,0 3.53125,-1.96875 3.53125,-3.96875 0,-1.359375 -0.5625,-3.15625 -1.890625,-3.75 -0.34375,-0.140625 -0.6875,-0.171875 -1.046875,-0.171875 -1.25,0.03125 -2.6875,0.890625 -3.0625,2.015625 z M 2,-4.03125 V -4.125 c 0,-1.34375 0.984375,-2.734375 2.515625,-2.734375 1.125,0 2.078125,0.734375 2.28125,2.234375 0.015625,0.28125 0.015625,0.59375 0.015625,0.890625 0,1.25 -0.359375,3.03125 -2.328125,3.03125 -1.578125,0 -2.3125,-1.3125 -2.484375,-2.890625 0,-0.078125 0.015625,-0.140625 0.015625,-0.21875 0,-0.0625 0,-0.140625 -0.015625,-0.21875 z m 0,0"
             id="path118339" />
        </g>
      </g>
      <g
         fill="#ffffff"
         fill-opacity="1"
         id="g5074"
         transform="matrix(0.35277777,0,0,0.35277777,-511.89538,-212.21624)">
        <g
           id="use5072"
           transform="translate(1357.3317,693.3739)">
          <path
             d="m 1.390625,-8.703125 c 0.75,-1.09375 1.46875,-1.953125 3.109375,-1.953125 0.96875,0 1.984375,0.53125 1.984375,1.640625 0,1.984375 -2.03125,2.390625 -3.609375,2.46875 V -5.6875 h 1.1875 c 0.8125,0 1.625,0.109375 2.203125,0.75 0.453125,0.453125 0.65625,1.09375 0.65625,1.734375 0,1.40625 -1.015625,2.5 -2.53125,2.5 -1.453125,0 -2.765625,-0.78125 -3.59375,-1.9375 -0.109375,0.234375 -0.15625,0.6875 -0.15625,0.828125 V -1.75 C 0.90625,-1.078125 2.15625,-0.28125 3.046875,-0.015625 3.5,0.109375 3.9375,0.171875 4.40625,0.171875 6.09375,0.171875 8.125,-1 8.125,-3.140625 8.125,-4.25 7.46875,-5.1875 6.484375,-5.734375 c -0.28125,-0.171875 -0.625,-0.34375 -0.96875,-0.375 C 6.59375,-6.625 7.625,-7.578125 7.625,-9 c 0,-1.65625 -1.75,-2.515625 -3.171875,-2.515625 -1.4375,0 -2.65625,0.71875 -3.484375,1.875 -0.03125,0.046875 -0.078125,0.09375 -0.078125,0.171875 0,0.15625 0.328125,0.53125 0.5,0.765625 z m 0,0"
             id="path118327" />
        </g>
      </g>
      <g
         fill="#ffffff"
         fill-opacity="1"
         id="g5078"
         transform="matrix(0.35277777,0,0,0.35277777,-511.89538,-212.21624)">
        <g
           id="use5076"
           transform="translate(1366.0861,693.3739)">
          <path
             d="m 1.703125,-1.359375 v 1.34375 h 1.34375 v -1.34375 z m 0,0"
             id="path118299" />
        </g>
      </g>
      <g
         fill="#ffffff"
         fill-opacity="1"
         id="g5082"
         transform="matrix(0.35277777,0,0,0.35277777,-511.89538,-212.21624)">
        <g
           id="use5080"
           transform="translate(1370.766,693.3739)">
          <path
             d="m 1.453125,-11.3125 v 6.171875 h 0.78125 c 0.203125,0 0.25,-0.140625 0.328125,-0.265625 0.5,-0.65625 1.296875,-0.9375 2.0625,-0.9375 1.671875,0 2.15625,1.5 2.15625,2.734375 0,0.734375 -0.125,1.5625 -0.671875,2.109375 C 5.59375,-0.953125 4.875,-0.703125 4.125,-0.703125 c -1.203125,0 -2.28125,-0.625 -2.9375,-1.609375 H 1.171875 c -0.15625,0.25 -0.453125,0.625 -0.453125,0.796875 0,0.15625 0.28125,0.375 0.40625,0.5 0.78125,0.75 1.859375,1.203125 2.953125,1.203125 2.015625,0 3.890625,-1.515625 3.890625,-3.75 0,-1.671875 -1.140625,-3.640625 -3.359375,-3.640625 -0.796875,0 -1.515625,0.328125 -2.109375,0.8125 v -4.015625 h 4.890625 v -0.90625 z m 0,0"
             id="path118319" />
        </g>
      </g>
      <g
         fill="#ffffff"
         fill-opacity="1"
         id="g5086"
         transform="matrix(0.35277777,0,0,0.35277777,-511.89538,-212.21624)">
        <g
           id="use5084"
           transform="translate(1379.5201,693.3739)">
          <path
             d="M 0.359375,-3.140625 H 5.34375 v 3.125 h 1.078125 v -3.125 h 1.96875 v -0.90625 h -1.96875 v -7.375 h -1.125 c -0.328125,0 -0.421875,0.40625 -0.59375,0.640625 -1.015625,1.625 -2.078125,3.203125 -3.125,4.828125 L 0.75,-4.671875 C 0.5625,-4.390625 0.359375,-4.15625 0.359375,-3.875 Z m 1.125,-0.90625 c 1.234375,-1.84375 2.4375,-3.71875 3.53125,-5.640625 0.125,-0.25 0.3125,-0.515625 0.359375,-0.796875 l 0.015625,6.4375 z m 0,0"
             id="path118323" />
        </g>
      </g>
      <g
         fill="#ffffff"
         fill-opacity="1"
         id="g5090"
         transform="matrix(0.35277777,0,0,0.35277777,-511.89538,-212.21624)">
        <g
           id="use5088"
           transform="translate(1388.2742,693.3739)">
          <path
             d="m 1.953125,-5.6875 h -0.03125 c 0,-1.984375 0.5625,-4.96875 3.546875,-4.96875 0.71875,0 1.265625,0.1875 1.90625,0.359375 V -11 c 0,-0.46875 -1.625,-0.515625 -1.9375,-0.515625 -2.578125,0 -4.234375,2.421875 -4.578125,4.75 -0.046875,0.390625 -0.0625,0.796875 -0.0625,1.1875 0,2.046875 0.328125,4.5625 2.390625,5.53125 C 3.5625,0.125 4,0.1875 4.421875,0.1875 c 2.09375,0 3.53125,-1.96875 3.53125,-3.96875 0,-1.359375 -0.5625,-3.15625 -1.890625,-3.75 -0.34375,-0.140625 -0.6875,-0.171875 -1.046875,-0.171875 -1.25,0.03125 -2.6875,0.890625 -3.0625,2.015625 z M 2,-4.03125 V -4.125 c 0,-1.34375 0.984375,-2.734375 2.515625,-2.734375 1.125,0 2.078125,0.734375 2.28125,2.234375 0.015625,0.28125 0.015625,0.59375 0.015625,0.890625 0,1.25 -0.359375,3.03125 -2.328125,3.03125 -1.578125,0 -2.3125,-1.3125 -2.484375,-2.890625 0,-0.078125 0.015625,-0.140625 0.015625,-0.21875 0,-0.0625 0,-0.140625 -0.015625,-0.21875 z m 0,0"
             id="path118343" />
        </g>
      </g>
      <g
         fill="#ffffff"
         fill-opacity="1"
         id="g5094"
         transform="matrix(0.35277777,0,0,0.35277777,-511.89538,-212.21624)">
        <g
           id="use5092"
           transform="translate(1324.0624,613.28406)">
          <path
             d="m 1.25,-7.921875 c 0.3125,-1.25 0.921875,-2.6875 2.640625,-2.6875 1.46875,0 2.96875,0.890625 2.96875,2.578125 0,1.9375 -1.8125,3.265625 -3.125,4.359375 C 2.875,-2.9375 2.03125,-2.140625 1.21875,-1.359375 L 0.9375,-1.078125 C 0.828125,-0.984375 0.75,-0.9375 0.75,-0.75 v 0.734375 h 7.234375 v -0.96875 H 1.75 c 0.4375,-0.40625 0.90625,-0.8125 1.34375,-1.203125 0.609375,-0.53125 1.1875,-1.078125 1.8125,-1.578125 1.359375,-1.109375 3.078125,-2.328125 3.078125,-4.3125 0,-2 -1.671875,-3.375 -3.65625,-3.4375 h -0.125 c -1.46875,0 -2.796875,0.609375 -3.453125,2.40625 C 0.703125,-9.015625 0.640625,-8.875 0.640625,-8.75 v 0.03125 C 0.65625,-8.609375 0.75,-8.515625 0.8125,-8.453125 c 0.140625,0.171875 0.265625,0.375 0.4375,0.53125 z m 0,0"
             id="path118303" />
        </g>
      </g>
      <g
         fill="#ffffff"
         fill-opacity="1"
         id="g5098"
         transform="matrix(0.35277777,0,0,0.35277777,-511.89538,-212.21624)">
        <g
           id="use5096"
           transform="translate(1332.8165,613.28406)">
          <path
             d="M 6.796875,-5.671875 H 6.8125 c 0,1.859375 -0.40625,4.96875 -3.296875,4.96875 C 2.75,-0.703125 2.1875,-1 1.625,-1.390625 l -0.453125,0.78125 C 1.890625,-0.0625 2.703125,0.1875 3.59375,0.1875 c 2.9375,0 4.359375,-3.359375 4.359375,-5.796875 0,-2.015625 -0.234375,-4.8125 -2.421875,-5.703125 -0.359375,-0.140625 -0.765625,-0.203125 -1.15625,-0.203125 -2.1875,0 -3.578125,2 -3.578125,3.96875 0,1.796875 0.859375,3.90625 2.921875,3.90625 1.234375,0 2.703125,-0.875 3.078125,-2.03125 z M 6.75,-7.578125 c -0.015625,0.046875 -0.015625,0.109375 -0.015625,0.15625 0,0.125 0.015625,0.21875 0.015625,0.34375 v 0.09375 C 6.640625,-5.625 5.640625,-4.5 4.171875,-4.5 3.4375,-4.5 2.84375,-4.78125 2.40625,-5.390625 1.984375,-5.984375 1.921875,-6.71875 1.921875,-7.4375 c 0,-1.328125 0.265625,-3.21875 2.484375,-3.21875 1.640625,0 2.34375,1.703125 2.34375,2.953125 z m 0,0"
             id="path118331" />
        </g>
      </g>
    </g>
  </g>
  <g
     inkscape:label="Capa 1"
     inkscape:groupmode="layer"
     id="layer1"
     transform="translate(-25.949774,-102.1557)">
    <g
       id="g35216"
       transform="matrix(0.35277777,0,0,0.35277777,-11.847197,-22.263639)" />
  </g>
</svg>
