<?xml version="1.0" encoding="UTF-8" standalone="no"?>
<!-- Created with Inkscape (http://www.inkscape.org/) -->

<svg
   width="40.57357mm"
   height="40.569443mm"
   viewBox="0 0 40.573571 40.569443"
   version="1.1"
   id="svg35221"
   inkscape:version="1.2.1 (9c6d41e410, 2022-07-14)"
   sodipodi:docname="46_clicked.svg"
   xmlns:inkscape="http://www.inkscape.org/namespaces/inkscape"
   xmlns:sodipodi="http://sodipodi.sourceforge.net/DTD/sodipodi-0.dtd"
   xmlns="http://www.w3.org/2000/svg"
   xmlns:svg="http://www.w3.org/2000/svg">
  <sodipodi:namedview
     id="namedview35223"
     pagecolor="#ffffff"
     bordercolor="#000000"
     borderopacity="0.25"
     inkscape:showpageshadow="2"
     inkscape:pageopacity="0.0"
     inkscape:pagecheckerboard="0"
     inkscape:deskcolor="#d1d1d1"
     inkscape:document-units="mm"
     showgrid="false"
     inkscape:zoom="2.8284271"
     inkscape:cx="-91.393552"
     inkscape:cy="49.497475"
     inkscape:window-width="1920"
     inkscape:window-height="1009"
     inkscape:window-x="2552"
     inkscape:window-y="421"
     inkscape:window-maximized="1"
     inkscape:current-layer="layer2" />
  <defs
     id="defs35218" />
  <g
     inkscape:groupmode="layer"
     id="layer2"
     inkscape:label="Capa 2">
    <g
       id="g139640"
       transform="matrix(0.35277777,0,0,0.35277777,-421.01338,-251.86265)">
      <path
         fill-rule="nonzero"
         fill="#c8c850"
         fill-opacity="1"
         d="m 1193.4297,771.44141 v -51.75 c 0,-3.17188 2.5742,-5.75 5.75,-5.75 h 103.5 c 3.1758,0 5.75,2.57812 5.75,5.75 v 103.5 c 0,3.17578 -2.5742,5.75 -5.75,5.75 h -103.5 c -3.1758,0 -5.75,-2.57422 -5.75,-5.75"
         id="path4882"
         style="fill:#e76f51;fill-opacity:1" />
      <g
         fill="#ffffff"
         fill-opacity="1"
         id="g4886">
        <g
           id="use4884"
           transform="translate(1223.8076,771.4635)">
          <path
             d="m 3.90625,-29.78125 v 29.734375 h 6.296875 V -11.53125 h 5.390625 c 3.421875,0 7.671875,-0.203125 9.984375,-3.125 1.375,-1.578125 1.890625,-3.765625 1.890625,-5.828125 0,-2.78125 -0.8125,-5.6875 -3.46875,-7.5 -2.65625,-1.796875 -5.921875,-1.75 -8.96875,-1.796875 z m 6.15625,14.875 v -11.1875 h 4.890625 c 1.890625,0 3.984375,0.09375 5.390625,1.5 1.078125,1.109375 1.15625,2.78125 1.15625,4.25 0,1.75 -0.25,3.421875 -1.875,4.484375 -1.421875,0.90625 -3.171875,0.953125 -4.796875,0.953125 z m 0,0"
             id="path140289" />
        </g>
      </g>
      <g
         fill="#ffffff"
         fill-opacity="1"
         id="g4890">
        <g
           id="use4888"
           transform="translate(1253.937,771.4635)">
          <path
             d="M 15.6875,-29.78125 V -18.375 c -1.71875,-1.5 -3.953125,-2.359375 -6.265625,-2.359375 -2.09375,0 -4.234375,0.71875 -5.609375,2.359375 -1.921875,2.21875 -2.234375,5.4375 -2.234375,8.21875 0,2.921875 0.265625,6.515625 2.578125,8.65625 1.375,1.328125 3.296875,1.921875 5.21875,1.921875 2.53125,0 4.5,-1.015625 6.171875,-2.6875 v 2.21875 H 21.375 V -29.78125 Z M 7.40625,-8.359375 v -2.6875 c 0,-2.875 0.484375,-6.640625 4.671875,-6.640625 1.125,0 3.296875,0.59375 3.46875,1.5 v 11.296875 c 0,1.328125 -2.390625,2.234375 -3.84375,2.234375 -1.203125,0 -2.40625,-0.421875 -3.171875,-1.375 C 7.5,-5.234375 7.578125,-6.890625 7.40625,-8.359375 Z m 0,0"
             id="path140285" />
        </g>
      </g>
      <g
         fill="#ffffff"
         fill-opacity="1"
         id="g4894">
        <g
           id="use4892"
           transform="translate(1217.8076,793.30359)">
          <path
             d="m 1.375,-11.96875 v 11.953125 h 1.203125 v -5.09375 H 6.125 C 7.984375,-5.25 10,-6.484375 10,-8.5625 c 0,-2.375 -2.578125,-3.40625 -4.5,-3.40625 z m 1.1875,5.984375 v -5.0625 h 2.328125 c 1.28125,0 2.78125,0.04687 3.578125,1.21875 0.265625,0.375 0.40625,0.828125 0.40625,1.28125 0,0.8125 -0.4375,1.59375 -1.15625,2.015625 C 6.875,-6.015625 5.890625,-5.984375 4.9375,-5.984375 Z m 0,0"
             id="path140245" />
        </g>
      </g>
      <g
         fill="#ffffff"
         fill-opacity="1"
         id="g4898">
        <g
           id="use4896"
           transform="translate(1228.2435,793.30359)">
          <path
             d="M 1.359375,-6.609375 C 1.65625,-6.75 1.890625,-6.953125 2.1875,-7.09375 2.796875,-7.359375 3.4375,-7.5 4.109375,-7.5 c 1.109375,0 1.734375,0.921875 1.734375,2.15625 v 0.765625 c -1.890625,0 -5.015625,0.40625 -5.015625,2.578125 0,1.109375 0.734375,2.09375 1.90625,2.09375 1.125,0 2.609375,-0.453125 3.109375,-1.3125 l 0.015625,1.203125 H 6.9375 V -4.5625 c 0,-0.234375 0.015625,-0.5 0.015625,-0.765625 0,-1.265625 -0.6875,-2.78125 -2.578125,-2.96875 H 4.1875 c -0.90625,0 -1.75,0.15625 -2.5625,0.546875 -0.125,0.046875 -0.34375,0.125 -0.34375,0.296875 0,0.265625 0.0625,0.5625 0.078125,0.84375 z M 5.84375,-4.0625 v 1.4375 c 0,1.09375 -0.828125,1.84375 -2.171875,1.84375 -0.75,0 -1.796875,-0.359375 -1.796875,-1.265625 0,-1.65625 2.65625,-2.015625 3.96875,-2.015625 z m 0,0"
             id="path140225" />
        </g>
      </g>
      <g
         fill="#ffffff"
         fill-opacity="1"
         id="g4902">
        <g
           id="use4900"
           transform="translate(1236.2893,793.30359)">
          <path
             d="M 1.109375,-11.96875 V -0.015625 H 2.1875 V -11.96875 Z m 0,0"
             id="path140277" />
        </g>
      </g>
      <g
         fill="#ffffff"
         fill-opacity="1"
         id="g4906">
        <g
           id="use4904"
           transform="translate(1239.535,793.30359)">
          <path
             d="M 1.109375,-11.96875 V -0.015625 H 2.1875 V -11.96875 Z m 0,0"
             id="path140281" />
        </g>
      </g>
      <g
         fill="#ffffff"
         fill-opacity="1"
         id="g4910">
        <g
           id="use4908"
           transform="translate(1242.7808,793.30359)">
          <path
             d="M 1.359375,-6.609375 C 1.65625,-6.75 1.890625,-6.953125 2.1875,-7.09375 2.796875,-7.359375 3.4375,-7.5 4.109375,-7.5 c 1.109375,0 1.734375,0.921875 1.734375,2.15625 v 0.765625 c -1.890625,0 -5.015625,0.40625 -5.015625,2.578125 0,1.109375 0.734375,2.09375 1.90625,2.09375 1.125,0 2.609375,-0.453125 3.109375,-1.3125 l 0.015625,1.203125 H 6.9375 V -4.5625 c 0,-0.234375 0.015625,-0.5 0.015625,-0.765625 0,-1.265625 -0.6875,-2.78125 -2.578125,-2.96875 H 4.1875 c -0.90625,0 -1.75,0.15625 -2.5625,0.546875 -0.125,0.046875 -0.34375,0.125 -0.34375,0.296875 0,0.265625 0.0625,0.5625 0.078125,0.84375 z M 5.84375,-4.0625 v 1.4375 c 0,1.09375 -0.828125,1.84375 -2.171875,1.84375 -0.75,0 -1.796875,-0.359375 -1.796875,-1.265625 0,-1.65625 2.65625,-2.015625 3.96875,-2.015625 z m 0,0"
             id="path140229" />
        </g>
      </g>
      <g
         fill="#ffffff"
         fill-opacity="1"
         id="g4914">
        <g
           id="use4912"
           transform="translate(1250.8265,793.30359)">
          <path
             d="m 6.125,-11.96875 v 4.859375 C 5.5625,-7.734375 5,-8.25 3.953125,-8.25 c -2.046875,0 -3.28125,2.171875 -3.28125,4.171875 0,1.921875 1.140625,4.171875 3.171875,4.171875 0.84375,0 1.890625,-0.5625 2.25,-1.328125 l 0.015625,1.21875 H 7.21875 V -11.96875 Z M 1.78125,-3.75 v -0.203125 c 0,-1.21875 0.28125,-2.515625 1.484375,-3.125 0.375,-0.1875 0.796875,-0.3125 1.21875,-0.3125 0.609375,0 1.5,0.421875 1.625,1.09375 v 4.0625 c 0,0.859375 -1.0625,1.453125 -1.765625,1.453125 -0.703125,0 -1.453125,-0.359375 -1.875,-0.890625 -0.5,-0.59375 -0.609375,-1.34375 -0.6875,-2.078125 z m 0,0"
             id="path140261" />
        </g>
      </g>
      <g
         fill="#ffffff"
         fill-opacity="1"
         id="g4918">
        <g
           id="use4916"
           transform="translate(1259.1008,793.30359)">
          <path
             d="m 1.109375,-8.140625 v 8.125 H 2.1875 v -8.125 z m 0,-3.828125 V -10.875 H 2.1875 v -1.09375 z m 0,0"
             id="path140237" />
        </g>
      </g>
      <g
         fill="#ffffff"
         fill-opacity="1"
         id="g4922">
        <g
           id="use4920"
           transform="translate(1262.3466,793.30359)">
          <path
             d="M 1.109375,-8.140625 V -2.3125 c 0,0.5 0.015625,1 0.21875,1.46875 0.328125,0.671875 1.015625,0.9375 1.71875,0.9375 1.15625,0 2.53125,-0.53125 3.0625,-1.609375 l 0.015625,1.5 h 1.09375 v -8.125 H 6.109375 v 4.125 C 6.109375,-3.75 6.125,-3.5 6.125,-3.234375 c 0,0.484375 -0.046875,0.96875 -0.28125,1.390625 -0.421875,0.703125 -1.15625,1.125 -2,1.125 -0.859375,0 -1.65625,0 -1.65625,-1.625 0,-0.25 0.015625,-0.515625 0.015625,-0.765625 v -5.03125 z m 0,0"
             id="path140221" />
        </g>
      </g>
      <g
         fill="#ffffff"
         fill-opacity="1"
         id="g4926">
        <g
           id="use4924"
           transform="translate(1270.6208,793.30359)">
          <path
             d="m 2.171875,-6.421875 v -1.71875 h -1.0625 v 8.125 h 1.09375 V -4.34375 c 0,-1.171875 0.234375,-3.046875 1.953125,-3.046875 0.59375,0 1.265625,0.125 1.640625,0.625 C 6.109375,-6.375 6.125,-5.859375 6.125,-5.375 v 5.359375 H 7.234375 V -4.34375 c 0,-1.171875 0.234375,-3.046875 1.9375,-3.046875 0.609375,0 1.28125,0.125 1.65625,0.625 0.3125,0.390625 0.328125,0.90625 0.328125,1.390625 v 5.359375 h 1.109375 v -4.5625 c 0,-0.296875 0.01563,-0.625 0.01563,-0.9375 0,-0.765625 -0.109375,-1.578125 -0.65625,-2.125 C 11.15625,-8.109375 10.4375,-8.25 9.796875,-8.25 8.578125,-8.25 7.640625,-7.453125 7.1875,-6.40625 6.90625,-7.640625 6.109375,-8.25 4.75,-8.25 c -1.09375,0 -2.25,0.78125 -2.578125,1.828125 z m 0,0"
             id="path140265" />
        </g>
      </g>
      <g
         fill="#ffffff"
         fill-opacity="1"
         id="g4930">
        <g
           id="use4928"
           transform="translate(1226.6874,815.26306)">
          <path
             d="m 1.671875,-10.390625 v 0.875 c 0.828125,0 1.5625,-0.15625 2.359375,-0.5 V -0.875 h -2.25 v 0.859375 h 5.625 V -0.875 H 5.140625 v -10.640625 h -0.125 c -0.234375,0 -0.359375,0.21875 -0.53125,0.34375 -0.8125,0.578125 -1.828125,0.78125 -2.8125,0.78125 z m 0,0"
             id="path140249" />
        </g>
      </g>
      <g
         fill="#ffffff"
         fill-opacity="1"
         id="g4934">
        <g
           id="use4932"
           transform="translate(1235.4418,815.26306)">
          <path
             d="m 4.125,-11.515625 c -3.21875,0.3125 -3.375,3.984375 -3.375,5.90625 0,2.328125 0.46875,5.796875 3.625,5.796875 h 0.21875 c 2.359375,-0.296875 3.390625,-2.265625 3.390625,-5.90625 0,-1.59375 -0.125,-3.515625 -1.203125,-4.734375 -0.59375,-0.671875 -1.5,-1.078125 -2.390625,-1.078125 -0.078125,0 -0.171875,0.01563 -0.265625,0.01563 z M 1.859375,-4.875 C 1.84375,-5.015625 1.84375,-5.171875 1.84375,-5.296875 V -5.625 c 0,-2.15625 0.0625,-5.03125 2.546875,-5.03125 2.484375,0 2.5,3.078125 2.5,4.734375 v 0.8125 c 0,1.453125 -0.09375,3.21875 -1.28125,4.046875 C 5.25,-0.8125 4.828125,-0.671875 4.390625,-0.671875 3.6875,-0.671875 2.984375,-1.03125 2.5625,-1.65625 2.078125,-2.375 1.96875,-3.34375 1.890625,-4.203125 1.875,-4.421875 1.890625,-4.65625 1.859375,-4.875 Z m 0,0"
             id="path140241" />
        </g>
      </g>
      <g
         fill="#ffffff"
         fill-opacity="1"
         id="g4938">
        <g
           id="use4936"
           transform="translate(1244.1959,815.26306)">
          <path
             d="m 1.953125,-5.6875 h -0.03125 c 0,-1.984375 0.5625,-4.96875 3.546875,-4.96875 0.71875,0 1.265625,0.1875 1.90625,0.359375 V -11 c 0,-0.46875 -1.625,-0.515625 -1.9375,-0.515625 -2.578125,0 -4.234375,2.421875 -4.578125,4.75 -0.046875,0.390625 -0.0625,0.796875 -0.0625,1.1875 0,2.046875 0.328125,4.5625 2.390625,5.53125 C 3.5625,0.125 4,0.1875 4.421875,0.1875 c 2.09375,0 3.53125,-1.96875 3.53125,-3.96875 0,-1.359375 -0.5625,-3.15625 -1.890625,-3.75 -0.34375,-0.140625 -0.6875,-0.171875 -1.046875,-0.171875 -1.25,0.03125 -2.6875,0.890625 -3.0625,2.015625 z M 2,-4.03125 V -4.125 c 0,-1.34375 0.984375,-2.734375 2.515625,-2.734375 1.125,0 2.078125,0.734375 2.28125,2.234375 0.015625,0.28125 0.015625,0.59375 0.015625,0.890625 0,1.25 -0.359375,3.03125 -2.328125,3.03125 -1.578125,0 -2.3125,-1.3125 -2.484375,-2.890625 0,-0.078125 0.015625,-0.140625 0.015625,-0.21875 0,-0.0625 0,-0.140625 -0.015625,-0.21875 z m 0,0"
             id="path140269" />
        </g>
      </g>
      <g
         fill="#ffffff"
         fill-opacity="1"
         id="g4942">
        <g
           id="use4940"
           transform="translate(1252.9502,815.26306)">
          <path
             d="m 1.703125,-1.359375 v 1.34375 h 1.34375 v -1.34375 z m 0,0"
             id="path140217" />
        </g>
      </g>
      <g
         fill="#ffffff"
         fill-opacity="1"
         id="g4946">
        <g
           id="use4944"
           transform="translate(1257.6302,815.26306)">
          <path
             d="M 0.359375,-3.140625 H 5.34375 v 3.125 h 1.078125 v -3.125 h 1.96875 v -0.90625 h -1.96875 v -7.375 h -1.125 c -0.328125,0 -0.421875,0.40625 -0.59375,0.640625 -1.015625,1.625 -2.078125,3.203125 -3.125,4.828125 L 0.75,-4.671875 C 0.5625,-4.390625 0.359375,-4.15625 0.359375,-3.875 Z m 1.125,-0.90625 c 1.234375,-1.84375 2.4375,-3.71875 3.53125,-5.640625 0.125,-0.25 0.3125,-0.515625 0.359375,-0.796875 l 0.015625,6.4375 z m 0,0"
             id="path140253" />
        </g>
      </g>
      <g
         fill="#ffffff"
         fill-opacity="1"
         id="g4950">
        <g
           id="use4948"
           transform="translate(1266.3844,815.26306)">
          <path
             d="m 1.25,-7.921875 c 0.3125,-1.25 0.921875,-2.6875 2.640625,-2.6875 1.46875,0 2.96875,0.890625 2.96875,2.578125 0,1.9375 -1.8125,3.265625 -3.125,4.359375 C 2.875,-2.9375 2.03125,-2.140625 1.21875,-1.359375 L 0.9375,-1.078125 C 0.828125,-0.984375 0.75,-0.9375 0.75,-0.75 v 0.734375 h 7.234375 v -0.96875 H 1.75 c 0.4375,-0.40625 0.90625,-0.8125 1.34375,-1.203125 0.609375,-0.53125 1.1875,-1.078125 1.8125,-1.578125 1.359375,-1.109375 3.078125,-2.328125 3.078125,-4.3125 0,-2 -1.671875,-3.375 -3.65625,-3.4375 h -0.125 c -1.46875,0 -2.796875,0.609375 -3.453125,2.40625 C 0.703125,-9.015625 0.640625,-8.875 0.640625,-8.75 v 0.03125 C 0.65625,-8.609375 0.75,-8.515625 0.8125,-8.453125 c 0.140625,0.171875 0.265625,0.375 0.4375,0.53125 z m 0,0"
             id="path140233" />
        </g>
      </g>
      <g
         fill="#ffffff"
         fill-opacity="1"
         id="g4954">
        <g
           id="use4952"
           transform="translate(1202.1722,735.17322)">
          <path
             d="M 0.359375,-3.140625 H 5.34375 v 3.125 h 1.078125 v -3.125 h 1.96875 v -0.90625 h -1.96875 v -7.375 h -1.125 c -0.328125,0 -0.421875,0.40625 -0.59375,0.640625 -1.015625,1.625 -2.078125,3.203125 -3.125,4.828125 L 0.75,-4.671875 C 0.5625,-4.390625 0.359375,-4.15625 0.359375,-3.875 Z m 1.125,-0.90625 c 1.234375,-1.84375 2.4375,-3.71875 3.53125,-5.640625 0.125,-0.25 0.3125,-0.515625 0.359375,-0.796875 l 0.015625,6.4375 z m 0,0"
             id="path140257" />
        </g>
      </g>
      <g
         fill="#ffffff"
         fill-opacity="1"
         id="g4958">
        <g
           id="use4956"
           transform="translate(1210.9266,735.17322)">
          <path
             d="m 1.953125,-5.6875 h -0.03125 c 0,-1.984375 0.5625,-4.96875 3.546875,-4.96875 0.71875,0 1.265625,0.1875 1.90625,0.359375 V -11 c 0,-0.46875 -1.625,-0.515625 -1.9375,-0.515625 -2.578125,0 -4.234375,2.421875 -4.578125,4.75 -0.046875,0.390625 -0.0625,0.796875 -0.0625,1.1875 0,2.046875 0.328125,4.5625 2.390625,5.53125 C 3.5625,0.125 4,0.1875 4.421875,0.1875 c 2.09375,0 3.53125,-1.96875 3.53125,-3.96875 0,-1.359375 -0.5625,-3.15625 -1.890625,-3.75 -0.34375,-0.140625 -0.6875,-0.171875 -1.046875,-0.171875 -1.25,0.03125 -2.6875,0.890625 -3.0625,2.015625 z M 2,-4.03125 V -4.125 c 0,-1.34375 0.984375,-2.734375 2.515625,-2.734375 1.125,0 2.078125,0.734375 2.28125,2.234375 0.015625,0.28125 0.015625,0.59375 0.015625,0.890625 0,1.25 -0.359375,3.03125 -2.328125,3.03125 -1.578125,0 -2.3125,-1.3125 -2.484375,-2.890625 0,-0.078125 0.015625,-0.140625 0.015625,-0.21875 0,-0.0625 0,-0.140625 -0.015625,-0.21875 z m 0,0"
             id="path140273" />
        </g>
      </g>
    </g>
  </g>
  <g
     inkscape:label="Capa 1"
     inkscape:groupmode="layer"
     id="layer1"
     transform="translate(-25.949774,-102.1557)">
    <g
       id="g35216"
       transform="matrix(0.35277777,0,0,0.35277777,-11.847197,-22.263639)" />
    <rect
       style="fill:none;stroke:#008080;stroke-width:2.99976;stroke-dasharray:none"
       id="rect22454"
       width="37.605034"
       height="37.569675"
       x="27.449654"
       y="103.65559" />
  </g>
</svg>
