<?xml version="1.0" encoding="UTF-8" standalone="no"?>
<!-- Created with Inkscape (http://www.inkscape.org/) -->

<svg
   width="40.57357mm"
   height="40.569443mm"
   viewBox="0 0 40.573571 40.569443"
   version="1.1"
   id="svg35221"
   inkscape:version="1.2.1 (9c6d41e410, 2022-07-14)"
   sodipodi:docname="53_clicked.svg"
   xmlns:inkscape="http://www.inkscape.org/namespaces/inkscape"
   xmlns:sodipodi="http://sodipodi.sourceforge.net/DTD/sodipodi-0.dtd"
   xmlns="http://www.w3.org/2000/svg"
   xmlns:svg="http://www.w3.org/2000/svg">
  <sodipodi:namedview
     id="namedview35223"
     pagecolor="#ffffff"
     bordercolor="#000000"
     borderopacity="0.25"
     inkscape:showpageshadow="2"
     inkscape:pageopacity="0.0"
     inkscape:pagecheckerboard="0"
     inkscape:deskcolor="#d1d1d1"
     inkscape:document-units="mm"
     showgrid="false"
     inkscape:zoom="2.8284271"
     inkscape:cx="-91.393552"
     inkscape:cy="77.428193"
     inkscape:window-width="1920"
     inkscape:window-height="1009"
     inkscape:window-x="2552"
     inkscape:window-y="421"
     inkscape:window-maximized="1"
     inkscape:current-layer="g147808" />
  <defs
     id="defs35218" />
  <g
     inkscape:groupmode="layer"
     id="layer2"
     inkscape:label="Capa 2">
    <g
       id="g147808"
       transform="matrix(0.35277777,0,0,0.35277777,-722.01274,-251.86265)">
      <path
         fill-rule="nonzero"
         fill="#ff3c3c"
         fill-opacity="1"
         d="m 2046.6602,771.44141 v -51.75 c 0,-3.17188 2.5664,-5.75 5.7539,-5.75 h 103.4882 c 3.1836,0 5.75,2.57812 5.75,5.75 v 103.5 c 0,3.17578 -2.5664,5.75 -5.75,5.75 h -103.4882 c -3.1875,0 -5.7539,-2.57422 -5.7539,-5.75"
         id="path6992"
         style="fill:#264653;fill-opacity:1" />
      <g
         fill="#ffffff"
         fill-opacity="1"
         id="g6996">
        <g
           id="use6994"
           transform="translate(2097.0759,771.4635)">
          <path
             d="m 3.9375,-29.78125 v 29.734375 h 6.296875 V -29.78125 Z m 0,0"
             id="path148409" />
        </g>
      </g>
      <g
         fill="#ffffff"
         fill-opacity="1"
         id="g7000">
        <g
           id="use6998"
           transform="translate(2083.9956,793.30359)">
          <path
             d="M 1.375,-11.96875 V -0.015625 H 2.578125 V -11.96875 Z m 0,0"
             id="path148353" />
        </g>
      </g>
      <g
         fill="#ffffff"
         fill-opacity="1"
         id="g7004">
        <g
           id="use7002"
           transform="translate(2087.9529,793.30359)">
          <path
             d="m 4.125,-8.296875 c -2.171875,0.21875 -3.5625,2.1875 -3.5625,4.234375 0,1.921875 1.359375,4.15625 3.828125,4.15625 2.1875,0 3.78125,-2.046875 3.78125,-4.140625 0,-2.0625 -1.421875,-4.25 -3.8125,-4.25 z M 1.671875,-3.90625 v -0.203125 c 0,-0.921875 0.15625,-1.9375 0.859375,-2.609375 0.5,-0.484375 1.171875,-0.71875 1.84375,-0.71875 1.8125,0 2.71875,1.53125 2.71875,3.265625 0,1.65625 -0.859375,3.359375 -2.71875,3.359375 -1,0 -1.8125,-0.53125 -2.296875,-1.390625 -0.265625,-0.53125 -0.34375,-1.125 -0.40625,-1.703125 z m 0,0"
             id="path148369" />
        </g>
      </g>
      <g
         fill="#ffffff"
         fill-opacity="1"
         id="g7008">
        <g
           id="use7006"
           transform="translate(2096.707,793.30359)">
          <path
             d="m 6.125,-11.96875 v 4.859375 C 5.5625,-7.734375 5,-8.25 3.953125,-8.25 c -2.046875,0 -3.28125,2.171875 -3.28125,4.171875 0,1.921875 1.140625,4.171875 3.171875,4.171875 0.84375,0 1.890625,-0.5625 2.25,-1.328125 l 0.015625,1.21875 H 7.21875 V -11.96875 Z M 1.78125,-3.75 v -0.203125 c 0,-1.21875 0.28125,-2.515625 1.484375,-3.125 0.375,-0.1875 0.796875,-0.3125 1.21875,-0.3125 0.609375,0 1.5,0.421875 1.625,1.09375 v 4.0625 c 0,0.859375 -1.0625,1.453125 -1.765625,1.453125 -0.703125,0 -1.453125,-0.359375 -1.875,-0.890625 -0.5,-0.59375 -0.609375,-1.34375 -0.6875,-2.078125 z m 0,0"
             id="path148393" />
        </g>
      </g>
      <g
         fill="#ffffff"
         fill-opacity="1"
         id="g7012">
        <g
           id="use7010"
           transform="translate(2104.9812,793.30359)">
          <path
             d="m 1.109375,-8.140625 v 8.125 H 2.1875 v -8.125 z m 0,-3.828125 V -10.875 H 2.1875 v -1.09375 z m 0,0"
             id="path148365" />
        </g>
      </g>
      <g
         fill="#ffffff"
         fill-opacity="1"
         id="g7016">
        <g
           id="use7014"
           transform="translate(2108.2271,793.30359)">
          <path
             d="m 2.171875,-6.421875 v -1.71875 h -1.0625 v 8.125 h 1.09375 V -4.34375 c 0,-1.15625 0.234375,-3.046875 1.953125,-3.046875 0.59375,0 1.25,0.125 1.625,0.625 0.3125,0.390625 0.328125,0.90625 0.328125,1.390625 v 5.359375 H 7.21875 V -5.40625 c 0,-1.640625 -0.578125,-2.84375 -2.453125,-2.84375 -1.15625,0 -2.21875,0.765625 -2.59375,1.828125 z m 0,0"
             id="path148377" />
        </g>
      </g>
      <g
         fill="#ffffff"
         fill-opacity="1"
         id="g7020">
        <g
           id="use7018"
           transform="translate(2116.501,793.30359)">
          <path
             d="m 7.203125,-1.90625 c -0.84375,0.625 -1.625,1.125 -2.71875,1.125 -1.6875,0 -2.84375,-1.53125 -2.84375,-3.546875 h 5.6875 c 0,-1.8125 -0.75,-3.96875 -3.15625,-3.96875 -2.34375,0 -3.5625,2.265625 -3.5625,4.28125 V -3.9375 c 0.03125,2.03125 1.578125,4.03125 3.78125,4.03125 0.953125,0 1.890625,-0.328125 2.65625,-0.890625 0.09375,-0.078125 0.234375,-0.15625 0.234375,-0.3125 0,-0.0625 -0.015625,-0.109375 -0.03125,-0.171875 -0.015625,-0.203125 -0.03125,-0.421875 -0.046875,-0.625 z M 1.71875,-5 c 0.265625,-1.125 1.046875,-2.4375 2.390625,-2.4375 1.140625,0 1.9375,0.796875 2.203125,1.859375 C 6.359375,-5.390625 6.375,-5.1875 6.421875,-5 Z m 0,0"
             id="path148385" />
        </g>
      </g>
      <g
         fill="#ffffff"
         fill-opacity="1"
         id="g7024">
        <g
           id="use7022"
           transform="translate(2079.9158,815.26306)">
          <path
             d="m 1.671875,-10.390625 v 0.875 c 0.828125,0 1.5625,-0.15625 2.359375,-0.5 V -0.875 h -2.25 v 0.859375 h 5.625 V -0.875 H 5.140625 v -10.640625 h -0.125 c -0.234375,0 -0.359375,0.21875 -0.53125,0.34375 -0.8125,0.578125 -1.828125,0.78125 -2.8125,0.78125 z m 0,0"
             id="path148381" />
        </g>
      </g>
      <g
         fill="#ffffff"
         fill-opacity="1"
         id="g7028">
        <g
           id="use7026"
           transform="translate(2088.6699,815.26306)">
          <path
             d="m 1.25,-7.921875 c 0.3125,-1.25 0.921875,-2.6875 2.640625,-2.6875 1.46875,0 2.96875,0.890625 2.96875,2.578125 0,1.9375 -1.8125,3.265625 -3.125,4.359375 C 2.875,-2.9375 2.03125,-2.140625 1.21875,-1.359375 L 0.9375,-1.078125 C 0.828125,-0.984375 0.75,-0.9375 0.75,-0.75 v 0.734375 h 7.234375 v -0.96875 H 1.75 c 0.4375,-0.40625 0.90625,-0.8125 1.34375,-1.203125 0.609375,-0.53125 1.1875,-1.078125 1.8125,-1.578125 1.359375,-1.109375 3.078125,-2.328125 3.078125,-4.3125 0,-2 -1.671875,-3.375 -3.65625,-3.4375 h -0.125 c -1.46875,0 -2.796875,0.609375 -3.453125,2.40625 C 0.703125,-9.015625 0.640625,-8.875 0.640625,-8.75 v 0.03125 C 0.65625,-8.609375 0.75,-8.515625 0.8125,-8.453125 c 0.140625,0.171875 0.265625,0.375 0.4375,0.53125 z m 0,0"
             id="path148361" />
        </g>
      </g>
      <g
         fill="#ffffff"
         fill-opacity="1"
         id="g7032">
        <g
           id="use7030"
           transform="translate(2097.4243,815.26306)">
          <path
             d="m 1.953125,-5.6875 h -0.03125 c 0,-1.984375 0.5625,-4.96875 3.546875,-4.96875 0.71875,0 1.265625,0.1875 1.90625,0.359375 V -11 c 0,-0.46875 -1.625,-0.515625 -1.9375,-0.515625 -2.578125,0 -4.234375,2.421875 -4.578125,4.75 -0.046875,0.390625 -0.0625,0.796875 -0.0625,1.1875 0,2.046875 0.328125,4.5625 2.390625,5.53125 C 3.5625,0.125 4,0.1875 4.421875,0.1875 c 2.09375,0 3.53125,-1.96875 3.53125,-3.96875 0,-1.359375 -0.5625,-3.15625 -1.890625,-3.75 -0.34375,-0.140625 -0.6875,-0.171875 -1.046875,-0.171875 -1.25,0.03125 -2.6875,0.890625 -3.0625,2.015625 z M 2,-4.03125 V -4.125 c 0,-1.34375 0.984375,-2.734375 2.515625,-2.734375 1.125,0 2.078125,0.734375 2.28125,2.234375 0.015625,0.28125 0.015625,0.59375 0.015625,0.890625 0,1.25 -0.359375,3.03125 -2.328125,3.03125 -1.578125,0 -2.3125,-1.3125 -2.484375,-2.890625 0,-0.078125 0.015625,-0.140625 0.015625,-0.21875 0,-0.0625 0,-0.140625 -0.015625,-0.21875 z m 0,0"
             id="path148405" />
        </g>
      </g>
      <g
         fill="#ffffff"
         fill-opacity="1"
         id="g7036">
        <g
           id="use7034"
           transform="translate(2106.1782,815.26306)">
          <path
             d="m 1.703125,-1.359375 v 1.34375 h 1.34375 v -1.34375 z m 0,0"
             id="path148357" />
        </g>
      </g>
      <g
         fill="#ffffff"
         fill-opacity="1"
         id="g7040">
        <g
           id="use7038"
           transform="translate(2110.8584,815.26306)">
          <path
             d="M 6.796875,-5.671875 H 6.8125 c 0,1.859375 -0.40625,4.96875 -3.296875,4.96875 C 2.75,-0.703125 2.1875,-1 1.625,-1.390625 l -0.453125,0.78125 C 1.890625,-0.0625 2.703125,0.1875 3.59375,0.1875 c 2.9375,0 4.359375,-3.359375 4.359375,-5.796875 0,-2.015625 -0.234375,-4.8125 -2.421875,-5.703125 -0.359375,-0.140625 -0.765625,-0.203125 -1.15625,-0.203125 -2.1875,0 -3.578125,2 -3.578125,3.96875 0,1.796875 0.859375,3.90625 2.921875,3.90625 1.234375,0 2.703125,-0.875 3.078125,-2.03125 z M 6.75,-7.578125 c -0.015625,0.046875 -0.015625,0.109375 -0.015625,0.15625 0,0.125 0.015625,0.21875 0.015625,0.34375 v 0.09375 C 6.640625,-5.625 5.640625,-4.5 4.171875,-4.5 3.4375,-4.5 2.84375,-4.78125 2.40625,-5.390625 1.984375,-5.984375 1.921875,-6.71875 1.921875,-7.4375 c 0,-1.328125 0.265625,-3.21875 2.484375,-3.21875 1.640625,0 2.34375,1.703125 2.34375,2.953125 z m 0,0"
             id="path148401" />
        </g>
      </g>
      <g
         fill="#ffffff"
         fill-opacity="1"
         id="g7044">
        <g
           id="use7042"
           transform="translate(2119.6125,815.26306)">
          <path
             d="m 4.125,-11.515625 c -3.21875,0.3125 -3.375,3.984375 -3.375,5.90625 0,2.328125 0.46875,5.796875 3.625,5.796875 h 0.21875 c 2.359375,-0.296875 3.390625,-2.265625 3.390625,-5.90625 0,-1.59375 -0.125,-3.515625 -1.203125,-4.734375 -0.59375,-0.671875 -1.5,-1.078125 -2.390625,-1.078125 -0.078125,0 -0.171875,0.01563 -0.265625,0.01563 z M 1.859375,-4.875 C 1.84375,-5.015625 1.84375,-5.171875 1.84375,-5.296875 V -5.625 c 0,-2.15625 0.0625,-5.03125 2.546875,-5.03125 2.484375,0 2.5,3.078125 2.5,4.734375 v 0.8125 c 0,1.453125 -0.09375,3.21875 -1.28125,4.046875 C 5.25,-0.8125 4.828125,-0.671875 4.390625,-0.671875 3.6875,-0.671875 2.984375,-1.03125 2.5625,-1.65625 2.078125,-2.375 1.96875,-3.34375 1.890625,-4.203125 1.875,-4.421875 1.890625,-4.65625 1.859375,-4.875 Z m 0,0"
             id="path148373" />
        </g>
      </g>
      <g
         fill="#ffffff"
         fill-opacity="1"
         id="g7048">
        <g
           id="use7046"
           transform="translate(2055.4006,735.17322)">
          <path
             d="m 1.453125,-11.3125 v 6.171875 h 0.78125 c 0.203125,0 0.25,-0.140625 0.328125,-0.265625 0.5,-0.65625 1.296875,-0.9375 2.0625,-0.9375 1.671875,0 2.15625,1.5 2.15625,2.734375 0,0.734375 -0.125,1.5625 -0.671875,2.109375 C 5.59375,-0.953125 4.875,-0.703125 4.125,-0.703125 c -1.203125,0 -2.28125,-0.625 -2.9375,-1.609375 H 1.171875 c -0.15625,0.25 -0.453125,0.625 -0.453125,0.796875 0,0.15625 0.28125,0.375 0.40625,0.5 0.78125,0.75 1.859375,1.203125 2.953125,1.203125 2.015625,0 3.890625,-1.515625 3.890625,-3.75 0,-1.671875 -1.140625,-3.640625 -3.359375,-3.640625 -0.796875,0 -1.515625,0.328125 -2.109375,0.8125 v -4.015625 h 4.890625 v -0.90625 z m 0,0"
             id="path148389" />
        </g>
      </g>
      <g
         fill="#ffffff"
         fill-opacity="1"
         id="g7052">
        <g
           id="use7050"
           transform="translate(2064.1548,735.17322)">
          <path
             d="m 1.390625,-8.703125 c 0.75,-1.09375 1.46875,-1.953125 3.109375,-1.953125 0.96875,0 1.984375,0.53125 1.984375,1.640625 0,1.984375 -2.03125,2.390625 -3.609375,2.46875 V -5.6875 h 1.1875 c 0.8125,0 1.625,0.109375 2.203125,0.75 0.453125,0.453125 0.65625,1.09375 0.65625,1.734375 0,1.40625 -1.015625,2.5 -2.53125,2.5 -1.453125,0 -2.765625,-0.78125 -3.59375,-1.9375 -0.109375,0.234375 -0.15625,0.6875 -0.15625,0.828125 V -1.75 C 0.90625,-1.078125 2.15625,-0.28125 3.046875,-0.015625 3.5,0.109375 3.9375,0.171875 4.40625,0.171875 6.09375,0.171875 8.125,-1 8.125,-3.140625 8.125,-4.25 7.46875,-5.1875 6.484375,-5.734375 c -0.28125,-0.171875 -0.625,-0.34375 -0.96875,-0.375 C 6.59375,-6.625 7.625,-7.578125 7.625,-9 c 0,-1.65625 -1.75,-2.515625 -3.171875,-2.515625 -1.4375,0 -2.65625,0.71875 -3.484375,1.875 -0.03125,0.046875 -0.078125,0.09375 -0.078125,0.171875 0,0.15625 0.328125,0.53125 0.5,0.765625 z m 0,0"
             id="path148397" />
        </g>
      </g>
    </g>
  </g>
  <g
     inkscape:label="Capa 1"
     inkscape:groupmode="layer"
     id="layer1"
     transform="translate(-25.949774,-102.1557)">
    <g
       id="g35216"
       transform="matrix(0.35277777,0,0,0.35277777,-11.847197,-22.263639)" />
    <rect
       style="fill:none;stroke:#008080;stroke-width:2.99976;stroke-dasharray:none"
       id="rect22454"
       width="37.605034"
       height="37.569675"
       x="27.449654"
       y="103.65559" />
  </g>
</svg>
