<?xml version="1.0" encoding="UTF-8" standalone="no"?>
<!-- Created with Inkscape (http://www.inkscape.org/) -->

<svg
   width="40.57357mm"
   height="40.569443mm"
   viewBox="0 0 40.573571 40.569443"
   version="1.1"
   id="svg35221"
   inkscape:version="1.2.1 (9c6d41e410, 2022-07-14)"
   sodipodi:docname="55_clicked.svg"
   xmlns:inkscape="http://www.inkscape.org/namespaces/inkscape"
   xmlns:sodipodi="http://sodipodi.sourceforge.net/DTD/sodipodi-0.dtd"
   xmlns="http://www.w3.org/2000/svg"
   xmlns:svg="http://www.w3.org/2000/svg">
  <sodipodi:namedview
     id="namedview35223"
     pagecolor="#ffffff"
     bordercolor="#000000"
     borderopacity="0.25"
     inkscape:showpageshadow="2"
     inkscape:pageopacity="0.0"
     inkscape:pagecheckerboard="0"
     inkscape:deskcolor="#d1d1d1"
     inkscape:document-units="mm"
     showgrid="false"
     inkscape:zoom="2.8284271"
     inkscape:cx="-91.393552"
     inkscape:cy="77.428193"
     inkscape:window-width="1920"
     inkscape:window-height="1009"
     inkscape:window-x="2552"
     inkscape:window-y="421"
     inkscape:window-maximized="1"
     inkscape:current-layer="g150008" />
  <defs
     id="defs35218" />
  <g
     inkscape:groupmode="layer"
     id="layer2"
     inkscape:label="Capa 2">
    <g
       id="g150008"
       transform="matrix(0.35277777,0,0,0.35277777,-34.013407,-294.86295)">
      <path
         fill-rule="nonzero"
         fill="#3cb4c8"
         fill-opacity="1"
         d="m 96.421875,893.33203 v -51.75 c 0,-3.17578 2.578125,-5.75 5.750005,-5.75 h 103.49999 c 3.17579,0 5.75,2.57422 5.75,5.75 v 103.5 c 0,3.17578 -2.57421,5.75 -5.75,5.75 H 102.17188 c -3.17188,0 -5.750005,-2.57422 -5.750005,-5.75"
         id="path2462"
         style="fill:#489fb5;fill-opacity:1" />
      <g
         fill="#ffffff"
         fill-opacity="1"
         id="g2466">
        <g
           id="use2464"
           transform="translate(129.80275,893.35229)">
          <path
             d="m 27.296875,-6.25 c -0.8125,0.421875 -1.5,1.015625 -2.3125,1.453125 -1.984375,1.0625 -4.078125,1.40625 -6.296875,1.40625 -2.53125,0 -5.109375,-0.515625 -6.953125,-2.34375 C 9.375,-8.09375 8.90625,-11.78125 8.90625,-14.90625 c 0,-3.171875 0.4375,-6.859375 2.828125,-9.171875 1.765625,-1.75 4.25,-2.359375 6.640625,-2.359375 2.53125,0 4.84375,0.6875 6.984375,2.1875 0.296875,0.21875 0.5625,0.46875 0.859375,0.640625 l 0.984375,-5.609375 c -2.828125,-0.9375 -5.609375,-1.5 -8.609375,-1.5 -4.453125,0 -9.125,0.765625 -12.421875,4.328125 -2.828125,3.078125 -3.5625,7.5 -3.5625,11.484375 0,4.5 0.984375,9.203125 4.421875,12.328125 3.03125,2.75 7.359375,3.484375 11.34375,3.484375 1.46875,0 2.96875,-0.046875 4.421875,-0.34375 1.328125,-0.34375 4.875,-1.59375 4.875,-2.28125 v -0.203125 c 0,-1.46875 -0.296875,-2.921875 -0.375,-4.328125 z m 0,0"
             id="path150633" />
        </g>
      </g>
      <g
         fill="#ffffff"
         fill-opacity="1"
         id="g2470">
        <g
           id="use2468"
           transform="translate(159.93207,893.35229)">
          <path
             d="M 2.09375,-6.25 C 1.890625,-4.796875 1.546875,-3.421875 1.328125,-1.96875 V -1.75 c 0,0.9375 4.921875,1.921875 5.4375,2 L 8.3125,0.390625 c 0.296875,0.03125 0.59375,0.03125 0.90625,0.03125 3.5,0 7.75,-0.765625 7.75,-6.546875 0,-3.171875 -2.109375,-5.53125 -4.890625,-6.46875 -2.046875,-0.6875 -6.25,-0.4375 -6.25,-3.21875 0,-1.703125 1.625,-2.1875 3.078125,-2.1875 1.640625,0 3.265625,0.4375 4.671875,1.15625 0.734375,0.390625 1.28125,0.953125 1.96875,1.375 l 0.734375,-4.0625 C 13.921875,-20.515625 11.65625,-21 9.078125,-21 c -3.6875,0 -7.5,1.15625 -7.5,6.265625 0,3.71875 3.09375,5.828125 6.5625,6.515625 1.625,0.328125 4.578125,0.46875 4.578125,2.90625 0,1.71875 -1.5,2.3125 -3,2.40625 H 9.515625 c -2.53125,0 -4.671875,-0.859375 -6.6875,-2.625 -0.25,-0.25 -0.46875,-0.515625 -0.734375,-0.71875 z m 0,0"
             id="path150629" />
        </g>
      </g>
      <g
         fill="#ffffff"
         fill-opacity="1"
         id="g2474">
        <g
           id="use2472"
           transform="translate(124.64236,915.19232)">
          <path
             d="m 10.421875,-1.796875 c -0.34375,0.171875 -0.65625,0.421875 -1,0.59375 -0.703125,0.359375 -1.5,0.484375 -2.296875,0.484375 -0.953125,0 -1.84375,-0.21875 -2.734375,-0.9375 -1.28125,-1.015625 -1.90625,-2.734375 -1.90625,-4.328125 0,-2.59375 1.625,-5.28125 4.640625,-5.28125 0.65625,0 1.3125,0.140625 1.921875,0.359375 0.359375,0.15625 0.703125,0.375 1.046875,0.546875 l 0.203125,-1.21875 c -1.0625,-0.390625 -2.15625,-0.59375 -3.328125,-0.59375 -3.328125,0 -5.6875,3 -5.6875,6.1875 0,3.15625 2.25,6.171875 5.734375,6.171875 1.140625,0 2.328125,-0.203125 3.328125,-0.875 C 10.4375,-0.734375 10.5,-0.75 10.5,-0.890625 10.5,-0.984375 10.484375,-1.0625 10.46875,-1.125 Z m 0,0"
             id="path150625" />
        </g>
      </g>
      <g
         fill="#ffffff"
         fill-opacity="1"
         id="g2478">
        <g
           id="use2476"
           transform="translate(135.91948,915.19232)">
          <path
             d="M 1.359375,-6.609375 C 1.65625,-6.75 1.890625,-6.953125 2.1875,-7.09375 2.796875,-7.359375 3.4375,-7.5 4.109375,-7.5 c 1.109375,0 1.734375,0.921875 1.734375,2.15625 v 0.765625 c -1.890625,0 -5.015625,0.40625 -5.015625,2.578125 0,1.109375 0.734375,2.09375 1.90625,2.09375 1.125,0 2.609375,-0.453125 3.109375,-1.3125 l 0.015625,1.203125 H 6.9375 V -4.5625 c 0,-0.234375 0.015625,-0.5 0.015625,-0.765625 0,-1.265625 -0.6875,-2.78125 -2.578125,-2.96875 H 4.1875 c -0.90625,0 -1.75,0.15625 -2.5625,0.546875 -0.125,0.046875 -0.34375,0.125 -0.34375,0.296875 0,0.265625 0.0625,0.5625 0.078125,0.84375 z M 5.84375,-4.0625 v 1.4375 c 0,1.09375 -0.828125,1.84375 -2.171875,1.84375 -0.75,0 -1.796875,-0.359375 -1.796875,-1.265625 0,-1.65625 2.65625,-2.015625 3.96875,-2.015625 z m 0,0"
             id="path150581" />
        </g>
      </g>
      <g
         fill="#ffffff"
         fill-opacity="1"
         id="g2482">
        <g
           id="use2480"
           transform="translate(143.96524,915.19232)">
          <path
             d="m 7.203125,-1.90625 c -0.84375,0.625 -1.625,1.125 -2.71875,1.125 -1.6875,0 -2.84375,-1.53125 -2.84375,-3.546875 h 5.6875 c 0,-1.8125 -0.75,-3.96875 -3.15625,-3.96875 -2.34375,0 -3.5625,2.265625 -3.5625,4.28125 V -3.9375 c 0.03125,2.03125 1.578125,4.03125 3.78125,4.03125 0.953125,0 1.890625,-0.328125 2.65625,-0.890625 0.09375,-0.078125 0.234375,-0.15625 0.234375,-0.3125 0,-0.0625 -0.015625,-0.109375 -0.03125,-0.171875 -0.015625,-0.203125 -0.03125,-0.421875 -0.046875,-0.625 z M 1.71875,-5 c 0.265625,-1.125 1.046875,-2.4375 2.390625,-2.4375 1.140625,0 1.9375,0.796875 2.203125,1.859375 C 6.359375,-5.390625 6.375,-5.1875 6.421875,-5 Z m 0,0"
             id="path150601" />
        </g>
      </g>
      <g
         fill="#ffffff"
         fill-opacity="1"
         id="g2486">
        <g
           id="use2484"
           transform="translate(151.7652,915.19232)">
          <path
             d="M 0.53125,-1.71875 C 0.5,-1.421875 0.375,-1.125 0.375,-0.828125 c 0,0.453125 1.890625,0.8125 2.125,0.84375 0.328125,0.046875 0.671875,0.078125 1,0.078125 1.328125,0 2.796875,-0.5625 2.890625,-2.28125 v -0.125 C 6.390625,-3.40625 5.5625,-4.171875 4.625,-4.515625 3.65625,-4.875 1.46875,-4.71875 1.46875,-6.203125 c 0,-0.9375 0.96875,-1.234375 1.796875,-1.234375 h 0.34375 C 4.25,-7.421875 4.90625,-7.28125 5.5,-6.984375 c 0.125,0.0625 0.25,0.15625 0.40625,0.1875 l 0.15625,-0.9375 c -0.84375,-0.375 -1.703125,-0.5625 -2.640625,-0.5625 -1.328125,0 -2.953125,0.515625 -2.953125,2.234375 0,3.140625 4.90625,1.578125 4.90625,3.890625 0,0.953125 -0.921875,1.375 -1.859375,1.375 -1.125,0 -1.875,-0.3125 -2.984375,-0.921875 z m 0,0"
             id="path150569" />
        </g>
      </g>
      <g
         fill="#ffffff"
         fill-opacity="1"
         id="g2490">
        <g
           id="use2488"
           transform="translate(158.36813,915.19232)">
          <path
             d="m 1.109375,-8.140625 v 8.125 H 2.1875 v -8.125 z m 0,-3.828125 V -10.875 H 2.1875 v -1.09375 z m 0,0"
             id="path150589" />
        </g>
      </g>
      <g
         fill="#ffffff"
         fill-opacity="1"
         id="g2494">
        <g
           id="use2492"
           transform="translate(161.61389,915.19232)">
          <path
             d="M 1.109375,-8.140625 V -2.3125 c 0,0.5 0.015625,1 0.21875,1.46875 0.328125,0.671875 1.015625,0.9375 1.71875,0.9375 1.15625,0 2.53125,-0.53125 3.0625,-1.609375 l 0.015625,1.5 h 1.09375 v -8.125 H 6.109375 v 4.125 C 6.109375,-3.75 6.125,-3.5 6.125,-3.234375 c 0,0.484375 -0.046875,0.96875 -0.28125,1.390625 -0.421875,0.703125 -1.15625,1.125 -2,1.125 -0.859375,0 -1.65625,0 -1.65625,-1.625 0,-0.25 0.015625,-0.515625 0.015625,-0.765625 v -5.03125 z m 0,0"
             id="path150577" />
        </g>
      </g>
      <g
         fill="#ffffff"
         fill-opacity="1"
         id="g2498">
        <g
           id="use2496"
           transform="translate(169.88815,915.19232)">
          <path
             d="m 2.171875,-6.421875 v -1.71875 h -1.0625 v 8.125 h 1.09375 V -4.34375 c 0,-1.171875 0.234375,-3.046875 1.953125,-3.046875 0.59375,0 1.265625,0.125 1.640625,0.625 C 6.109375,-6.375 6.125,-5.859375 6.125,-5.375 v 5.359375 H 7.234375 V -4.34375 c 0,-1.171875 0.234375,-3.046875 1.9375,-3.046875 0.609375,0 1.28125,0.125 1.65625,0.625 0.3125,0.390625 0.328125,0.90625 0.328125,1.390625 v 5.359375 h 1.109375 v -4.5625 c 0,-0.296875 0.01563,-0.625 0.01563,-0.9375 0,-0.765625 -0.109375,-1.578125 -0.65625,-2.125 C 11.15625,-8.109375 10.4375,-8.25 9.796875,-8.25 8.578125,-8.25 7.640625,-7.453125 7.1875,-6.40625 6.90625,-7.640625 6.109375,-8.25 4.75,-8.25 c -1.09375,0 -2.25,0.78125 -2.578125,1.828125 z m 0,0"
             id="path150621" />
        </g>
      </g>
      <g
         fill="#ffffff"
         fill-opacity="1"
         id="g2502">
        <g
           id="use2500"
           transform="translate(129.68277,937.1524)">
          <path
             d="m 1.671875,-10.390625 v 0.875 c 0.828125,0 1.5625,-0.15625 2.359375,-0.5 V -0.875 h -2.25 v 0.859375 h 5.625 V -0.875 H 5.140625 v -10.640625 h -0.125 c -0.234375,0 -0.359375,0.21875 -0.53125,0.34375 -0.8125,0.578125 -1.828125,0.78125 -2.8125,0.78125 z m 0,0"
             id="path150593" />
        </g>
      </g>
      <g
         fill="#ffffff"
         fill-opacity="1"
         id="g2506">
        <g
           id="use2504"
           transform="translate(138.43703,937.1524)">
          <path
             d="m 1.390625,-8.703125 c 0.75,-1.09375 1.46875,-1.953125 3.109375,-1.953125 0.96875,0 1.984375,0.53125 1.984375,1.640625 0,1.984375 -2.03125,2.390625 -3.609375,2.46875 V -5.6875 h 1.1875 c 0.8125,0 1.625,0.109375 2.203125,0.75 0.453125,0.453125 0.65625,1.09375 0.65625,1.734375 0,1.40625 -1.015625,2.5 -2.53125,2.5 -1.453125,0 -2.765625,-0.78125 -3.59375,-1.9375 -0.109375,0.234375 -0.15625,0.6875 -0.15625,0.828125 V -1.75 C 0.90625,-1.078125 2.15625,-0.28125 3.046875,-0.015625 3.5,0.109375 3.9375,0.171875 4.40625,0.171875 6.09375,0.171875 8.125,-1 8.125,-3.140625 8.125,-4.25 7.46875,-5.1875 6.484375,-5.734375 c -0.28125,-0.171875 -0.625,-0.34375 -0.96875,-0.375 C 6.59375,-6.625 7.625,-7.578125 7.625,-9 c 0,-1.65625 -1.75,-2.515625 -3.171875,-2.515625 -1.4375,0 -2.65625,0.71875 -3.484375,1.875 -0.03125,0.046875 -0.078125,0.09375 -0.078125,0.171875 0,0.15625 0.328125,0.53125 0.5,0.765625 z m 0,0"
             id="path150613" />
        </g>
      </g>
      <g
         fill="#ffffff"
         fill-opacity="1"
         id="g2510">
        <g
           id="use2508"
           transform="translate(147.19127,937.1524)">
          <path
             d="m 1.25,-7.921875 c 0.3125,-1.25 0.921875,-2.6875 2.640625,-2.6875 1.46875,0 2.96875,0.890625 2.96875,2.578125 0,1.9375 -1.8125,3.265625 -3.125,4.359375 C 2.875,-2.9375 2.03125,-2.140625 1.21875,-1.359375 L 0.9375,-1.078125 C 0.828125,-0.984375 0.75,-0.9375 0.75,-0.75 v 0.734375 h 7.234375 v -0.96875 H 1.75 c 0.4375,-0.40625 0.90625,-0.8125 1.34375,-1.203125 0.609375,-0.53125 1.1875,-1.078125 1.8125,-1.578125 1.359375,-1.109375 3.078125,-2.328125 3.078125,-4.3125 0,-2 -1.671875,-3.375 -3.65625,-3.4375 h -0.125 c -1.46875,0 -2.796875,0.609375 -3.453125,2.40625 C 0.703125,-9.015625 0.640625,-8.875 0.640625,-8.75 v 0.03125 C 0.65625,-8.609375 0.75,-8.515625 0.8125,-8.453125 c 0.140625,0.171875 0.265625,0.375 0.4375,0.53125 z m 0,0"
             id="path150585" />
        </g>
      </g>
      <g
         fill="#ffffff"
         fill-opacity="1"
         id="g2514">
        <g
           id="use2512"
           transform="translate(155.94553,937.1524)">
          <path
             d="m 1.703125,-1.359375 v 1.34375 h 1.34375 v -1.34375 z m 0,0"
             id="path150573" />
        </g>
      </g>
      <g
         fill="#ffffff"
         fill-opacity="1"
         id="g2518">
        <g
           id="use2516"
           transform="translate(160.6255,937.1524)">
          <path
             d="M 6.796875,-5.671875 H 6.8125 c 0,1.859375 -0.40625,4.96875 -3.296875,4.96875 C 2.75,-0.703125 2.1875,-1 1.625,-1.390625 l -0.453125,0.78125 C 1.890625,-0.0625 2.703125,0.1875 3.59375,0.1875 c 2.9375,0 4.359375,-3.359375 4.359375,-5.796875 0,-2.015625 -0.234375,-4.8125 -2.421875,-5.703125 -0.359375,-0.140625 -0.765625,-0.203125 -1.15625,-0.203125 -2.1875,0 -3.578125,2 -3.578125,3.96875 0,1.796875 0.859375,3.90625 2.921875,3.90625 1.234375,0 2.703125,-0.875 3.078125,-2.03125 z M 6.75,-7.578125 c -0.015625,0.046875 -0.015625,0.109375 -0.015625,0.15625 0,0.125 0.015625,0.21875 0.015625,0.34375 v 0.09375 C 6.640625,-5.625 5.640625,-4.5 4.171875,-4.5 3.4375,-4.5 2.84375,-4.78125 2.40625,-5.390625 1.984375,-5.984375 1.921875,-6.71875 1.921875,-7.4375 c 0,-1.328125 0.265625,-3.21875 2.484375,-3.21875 1.640625,0 2.34375,1.703125 2.34375,2.953125 z m 0,0"
             id="path150617" />
        </g>
      </g>
      <g
         fill="#ffffff"
         fill-opacity="1"
         id="g2522">
        <g
           id="use2520"
           transform="translate(169.37976,937.1524)">
          <path
             d="m 1.671875,-10.390625 v 0.875 c 0.828125,0 1.5625,-0.15625 2.359375,-0.5 V -0.875 h -2.25 v 0.859375 h 5.625 V -0.875 H 5.140625 v -10.640625 h -0.125 c -0.234375,0 -0.359375,0.21875 -0.53125,0.34375 -0.8125,0.578125 -1.828125,0.78125 -2.8125,0.78125 z m 0,0"
             id="path150597" />
        </g>
      </g>
      <g
         fill="#ffffff"
         fill-opacity="1"
         id="g2526">
        <g
           id="use2524"
           transform="translate(105.16762,857.06256)">
          <path
             d="m 1.453125,-11.3125 v 6.171875 h 0.78125 c 0.203125,0 0.25,-0.140625 0.328125,-0.265625 0.5,-0.65625 1.296875,-0.9375 2.0625,-0.9375 1.671875,0 2.15625,1.5 2.15625,2.734375 0,0.734375 -0.125,1.5625 -0.671875,2.109375 C 5.59375,-0.953125 4.875,-0.703125 4.125,-0.703125 c -1.203125,0 -2.28125,-0.625 -2.9375,-1.609375 H 1.171875 c -0.15625,0.25 -0.453125,0.625 -0.453125,0.796875 0,0.15625 0.28125,0.375 0.40625,0.5 0.78125,0.75 1.859375,1.203125 2.953125,1.203125 2.015625,0 3.890625,-1.515625 3.890625,-3.75 0,-1.671875 -1.140625,-3.640625 -3.359375,-3.640625 -0.796875,0 -1.515625,0.328125 -2.109375,0.8125 v -4.015625 h 4.890625 v -0.90625 z m 0,0"
             id="path150605" />
        </g>
      </g>
      <g
         fill="#ffffff"
         fill-opacity="1"
         id="g2530">
        <g
           id="use2528"
           transform="translate(113.92188,857.06256)">
          <path
             d="m 1.453125,-11.3125 v 6.171875 h 0.78125 c 0.203125,0 0.25,-0.140625 0.328125,-0.265625 0.5,-0.65625 1.296875,-0.9375 2.0625,-0.9375 1.671875,0 2.15625,1.5 2.15625,2.734375 0,0.734375 -0.125,1.5625 -0.671875,2.109375 C 5.59375,-0.953125 4.875,-0.703125 4.125,-0.703125 c -1.203125,0 -2.28125,-0.625 -2.9375,-1.609375 H 1.171875 c -0.15625,0.25 -0.453125,0.625 -0.453125,0.796875 0,0.15625 0.28125,0.375 0.40625,0.5 0.78125,0.75 1.859375,1.203125 2.953125,1.203125 2.015625,0 3.890625,-1.515625 3.890625,-3.75 0,-1.671875 -1.140625,-3.640625 -3.359375,-3.640625 -0.796875,0 -1.515625,0.328125 -2.109375,0.8125 v -4.015625 h 4.890625 v -0.90625 z m 0,0"
             id="path150609" />
        </g>
      </g>
    </g>
  </g>
  <g
     inkscape:label="Capa 1"
     inkscape:groupmode="layer"
     id="layer1"
     transform="translate(-25.949774,-102.1557)">
    <g
       id="g35216"
       transform="matrix(0.35277777,0,0,0.35277777,-11.847197,-22.263639)" />
    <rect
       style="fill:none;stroke:#008080;stroke-width:2.99976;stroke-dasharray:none"
       id="rect22454"
       width="37.605034"
       height="37.569675"
       x="27.449654"
       y="103.65559" />
  </g>
</svg>
