<?xml version="1.0" encoding="UTF-8" standalone="no"?>
<!-- Created with Inkscape (http://www.inkscape.org/) -->

<svg
   width="40.57357mm"
   height="40.569443mm"
   viewBox="0 0 40.573571 40.569443"
   version="1.1"
   id="svg35221"
   inkscape:version="1.2.1 (9c6d41e410, 2022-07-14)"
   sodipodi:docname="56_clicked.svg"
   xmlns:inkscape="http://www.inkscape.org/namespaces/inkscape"
   xmlns:sodipodi="http://sodipodi.sourceforge.net/DTD/sodipodi-0.dtd"
   xmlns="http://www.w3.org/2000/svg"
   xmlns:svg="http://www.w3.org/2000/svg">
  <sodipodi:namedview
     id="namedview35223"
     pagecolor="#ffffff"
     bordercolor="#000000"
     borderopacity="0.25"
     inkscape:showpageshadow="2"
     inkscape:pageopacity="0.0"
     inkscape:pagecheckerboard="0"
     inkscape:deskcolor="#d1d1d1"
     inkscape:document-units="mm"
     showgrid="false"
     inkscape:zoom="2.8284271"
     inkscape:cx="-91.393552"
     inkscape:cy="77.428193"
     inkscape:window-width="1920"
     inkscape:window-height="1009"
     inkscape:window-x="2552"
     inkscape:window-y="421"
     inkscape:window-maximized="1"
     inkscape:current-layer="g151146" />
  <defs
     id="defs35218" />
  <g
     inkscape:groupmode="layer"
     id="layer2"
     inkscape:label="Capa 2">
    <g
       id="g151146"
       transform="matrix(0.35277777,0,0,0.35277777,-77.013021,-294.86295)">
      <path
         fill-rule="nonzero"
         fill="#46a046"
         fill-opacity="1"
         d="m 218.3125,893.33203 v -51.75 c 0,-3.17578 2.57422,-5.75 5.75,-5.75 h 103.5 c 3.17187,0 5.74609,2.57422 5.74609,5.75 v 103.5 c 0,3.17578 -2.57422,5.75 -5.74609,5.75 h -103.5 c -3.17578,0 -5.75,-2.57422 -5.75,-5.75"
         id="path2878"
         style="fill:#a1c181;fill-opacity:1" />
      <g
         fill="#ffffff"
         fill-opacity="1"
         id="g2882">
        <g
           id="use2880"
           transform="translate(248.81253,893.35229)">
          <path
             d="m 3.90625,-29.78125 v 29.734375 h 12.078125 c 4.96875,0 12.765625,-0.34375 12.765625,-8.171875 0,-4.546875 -3.59375,-6.90625 -7.546875,-7.375 1.71875,-0.5625 3.515625,-0.984375 4.71875,-2.4375 1.03125,-1.203125 1.5,-2.65625 1.5,-4.15625 0,-2.625 -1.375,-4.96875 -3.9375,-6.265625 -2.578125,-1.28125 -5.53125,-1.328125 -8.3125,-1.328125 z M 9.9375,-3.734375 V -13.96875 h 4.765625 c 1.96875,0 4.0625,0.09375 5.78125,1.109375 1.453125,0.90625 2.34375,2.65625 2.34375,4.375 0,1.5 -0.71875,2.953125 -2.09375,3.765625 -1.578125,0.953125 -3.515625,0.984375 -5.265625,0.984375 z m 0,-13.3125 v -9.046875 c 1.15625,0 2.265625,-0.04687 3.4375,-0.04687 h 0.5 c 2.96875,0 7.71875,0.140625 7.71875,4.25 0,4.109375 -4.203125,4.84375 -7.453125,4.84375 z m 0,0"
             id="path151753" />
        </g>
      </g>
      <g
         fill="#ffffff"
         fill-opacity="1"
         id="g2886">
        <g
           id="use2884"
           transform="translate(280.2381,893.35229)">
          <path
             d="m 3.90625,-14.90625 c 0.546875,-0.46875 1.015625,-1.03125 1.625,-1.453125 1.578125,-1.203125 3.546875,-1.8125 5.515625,-1.8125 2.40625,0 3,2.1875 3,4.421875 v 2.140625 c -0.671875,0.07813 -1.40625,0.04687 -2.09375,0.07813 -4.0625,0.34375 -10.625,1.125 -10.625,6 0,3.390625 2.828125,5.953125 6.125,5.953125 2.4375,0 5.484375,-1.234375 6.6875,-3.421875 l 0.04687,2.953125 h 5.6875 v -12.71875 c 0,-2.0625 -0.07813,-4.203125 -1.5,-5.828125 C 16.671875,-20.515625 13.96875,-21 11.4375,-21 8.828125,-21 6.421875,-20.5625 3.90625,-19.328125 3.6875,-19.234375 3.5625,-19.15625 3.5625,-18.9375 v 0.21875 c 0,1.28125 0.25,2.5625 0.34375,3.8125 z m 10.140625,5.015625 v 3.421875 c 0,2.3125 -2,3.8125 -4.109375,3.8125 -1.578125,0 -3.046875,-1.28125 -3.046875,-2.90625 0,-2.625 2.75,-3.78125 5.703125,-4.203125 0.46875,-0.046875 0.984375,-0.046875 1.453125,-0.125 z m 0,0"
             id="path151757" />
        </g>
      </g>
      <g
         fill="#ffffff"
         fill-opacity="1"
         id="g2890">
        <g
           id="use2888"
           transform="translate(251.09215,915.19232)">
          <path
             d="m 1.390625,-11.96875 v 11.953125 h 4.34375 c 1.53125,0 3.078125,-0.34375 4.09375,-1.546875 C 10.234375,-2 10.46875,-2.5625 10.5,-3.15625 10.5,-5.125 8.484375,-5.984375 6.921875,-6.265625 8.15625,-6.625 10,-7.296875 10,-9 c 0,-1.125 -0.984375,-1.96875 -1.890625,-2.421875 -0.71875,-0.359375 -1.53125,-0.5 -2.34375,-0.546875 z M 2.546875,-0.9375 V -5.796875 H 5.09375 c 1.03125,0 1.96875,0.171875 2.84375,0.609375 0.6875,0.359375 1.421875,1.03125 1.421875,1.875 0,1.734375 -2.296875,2.3125 -3.609375,2.375 z m 0,-5.71875 v -4.390625 H 5.25 c 1.375,0 3.640625,0.609375 3.640625,2.109375 0,1.5625 -2.203125,2.1875 -3.609375,2.28125 z m 0,0"
             id="path151745" />
        </g>
      </g>
      <g
         fill="#ffffff"
         fill-opacity="1"
         id="g2894">
        <g
           id="use2892"
           transform="translate(262.48505,915.19232)">
          <path
             d="M 1.359375,-6.609375 C 1.65625,-6.75 1.890625,-6.953125 2.1875,-7.09375 2.796875,-7.359375 3.4375,-7.5 4.109375,-7.5 c 1.109375,0 1.734375,0.921875 1.734375,2.15625 v 0.765625 c -1.890625,0 -5.015625,0.40625 -5.015625,2.578125 0,1.109375 0.734375,2.09375 1.90625,2.09375 1.125,0 2.609375,-0.453125 3.109375,-1.3125 l 0.015625,1.203125 H 6.9375 V -4.5625 c 0,-0.234375 0.015625,-0.5 0.015625,-0.765625 0,-1.265625 -0.6875,-2.78125 -2.578125,-2.96875 H 4.1875 c -0.90625,0 -1.75,0.15625 -2.5625,0.546875 -0.125,0.046875 -0.34375,0.125 -0.34375,0.296875 0,0.265625 0.0625,0.5625 0.078125,0.84375 z M 5.84375,-4.0625 v 1.4375 c 0,1.09375 -0.828125,1.84375 -2.171875,1.84375 -0.75,0 -1.796875,-0.359375 -1.796875,-1.265625 0,-1.65625 2.65625,-2.015625 3.96875,-2.015625 z m 0,0"
             id="path151705" />
        </g>
      </g>
      <g
         fill="#ffffff"
         fill-opacity="1"
         id="g2898">
        <g
           id="use2896"
           transform="translate(270.05075,915.19232)">
          <path
             d="M 2.15625,-5.96875 V -8.140625 H 1.109375 v 8.125 H 2.1875 V -3.9375 c 0,-1.203125 0.34375,-2.53125 2.09375,-3.15625 0.375,-0.125 0.75,-0.1875 1.125,-0.1875 V -8.25 c -1.09375,0 -2.125,0.53125 -2.765625,1.421875 -0.203125,0.25 -0.40625,0.546875 -0.484375,0.859375 z m 0,0"
             id="path151717" />
        </g>
      </g>
      <g
         fill="#ffffff"
         fill-opacity="1"
         id="g2902">
        <g
           id="use2900"
           transform="translate(275.57364,915.19232)">
          <path
             d="m 1.109375,-8.140625 v 8.125 H 2.1875 v -8.125 z m 0,-3.828125 V -10.875 H 2.1875 v -1.09375 z m 0,0"
             id="path151709" />
        </g>
      </g>
      <g
         fill="#ffffff"
         fill-opacity="1"
         id="g2906">
        <g
           id="use2904"
           transform="translate(278.8194,915.19232)">
          <path
             d="M 1.109375,-8.140625 V -2.3125 c 0,0.5 0.015625,1 0.21875,1.46875 0.328125,0.671875 1.015625,0.9375 1.71875,0.9375 1.15625,0 2.53125,-0.53125 3.0625,-1.609375 l 0.015625,1.5 h 1.09375 v -8.125 H 6.109375 v 4.125 C 6.109375,-3.75 6.125,-3.5 6.125,-3.234375 c 0,0.484375 -0.046875,0.96875 -0.28125,1.390625 -0.421875,0.703125 -1.15625,1.125 -2,1.125 -0.859375,0 -1.65625,0 -1.65625,-1.625 0,-0.25 0.015625,-0.515625 0.015625,-0.765625 v -5.03125 z m 0,0"
             id="path151701" />
        </g>
      </g>
      <g
         fill="#ffffff"
         fill-opacity="1"
         id="g2910">
        <g
           id="use2908"
           transform="translate(287.09366,915.19232)">
          <path
             d="m 2.171875,-6.421875 v -1.71875 h -1.0625 v 8.125 h 1.09375 V -4.34375 c 0,-1.171875 0.234375,-3.046875 1.953125,-3.046875 0.59375,0 1.265625,0.125 1.640625,0.625 C 6.109375,-6.375 6.125,-5.859375 6.125,-5.375 v 5.359375 H 7.234375 V -4.34375 c 0,-1.171875 0.234375,-3.046875 1.9375,-3.046875 0.609375,0 1.28125,0.125 1.65625,0.625 0.3125,0.390625 0.328125,0.90625 0.328125,1.390625 v 5.359375 h 1.109375 v -4.5625 c 0,-0.296875 0.01563,-0.625 0.01563,-0.9375 0,-0.765625 -0.109375,-1.578125 -0.65625,-2.125 C 11.15625,-8.109375 10.4375,-8.25 9.796875,-8.25 8.578125,-8.25 7.640625,-7.453125 7.1875,-6.40625 6.90625,-7.640625 6.109375,-8.25 4.75,-8.25 c -1.09375,0 -2.25,0.78125 -2.578125,1.828125 z m 0,0"
             id="path151741" />
        </g>
      </g>
      <g
         fill="#ffffff"
         fill-opacity="1"
         id="g2914">
        <g
           id="use2912"
           transform="translate(251.57269,937.1524)">
          <path
             d="m 1.671875,-10.390625 v 0.875 c 0.828125,0 1.5625,-0.15625 2.359375,-0.5 V -0.875 h -2.25 v 0.859375 h 5.625 V -0.875 H 5.140625 v -10.640625 h -0.125 c -0.234375,0 -0.359375,0.21875 -0.53125,0.34375 -0.8125,0.578125 -1.828125,0.78125 -2.8125,0.78125 z m 0,0"
             id="path151713" />
        </g>
      </g>
      <g
         fill="#ffffff"
         fill-opacity="1"
         id="g2918">
        <g
           id="use2916"
           transform="translate(260.32693,937.1524)">
          <path
             d="m 1.390625,-8.703125 c 0.75,-1.09375 1.46875,-1.953125 3.109375,-1.953125 0.96875,0 1.984375,0.53125 1.984375,1.640625 0,1.984375 -2.03125,2.390625 -3.609375,2.46875 V -5.6875 h 1.1875 c 0.8125,0 1.625,0.109375 2.203125,0.75 0.453125,0.453125 0.65625,1.09375 0.65625,1.734375 0,1.40625 -1.015625,2.5 -2.53125,2.5 -1.453125,0 -2.765625,-0.78125 -3.59375,-1.9375 -0.109375,0.234375 -0.15625,0.6875 -0.15625,0.828125 V -1.75 C 0.90625,-1.078125 2.15625,-0.28125 3.046875,-0.015625 3.5,0.109375 3.9375,0.171875 4.40625,0.171875 6.09375,0.171875 8.125,-1 8.125,-3.140625 8.125,-4.25 7.46875,-5.1875 6.484375,-5.734375 c -0.28125,-0.171875 -0.625,-0.34375 -0.96875,-0.375 C 6.59375,-6.625 7.625,-7.578125 7.625,-9 c 0,-1.65625 -1.75,-2.515625 -3.171875,-2.515625 -1.4375,0 -2.65625,0.71875 -3.484375,1.875 -0.03125,0.046875 -0.078125,0.09375 -0.078125,0.171875 0,0.15625 0.328125,0.53125 0.5,0.765625 z m 0,0"
             id="path151729" />
        </g>
      </g>
      <g
         fill="#ffffff"
         fill-opacity="1"
         id="g2922">
        <g
           id="use2920"
           transform="translate(269.08118,937.1524)">
          <path
             d="m 0.625,-11.3125 v 0.96875 h 6.75 C 6.5625,-9.546875 5.8125,-8.75 5.1875,-7.796875 3.640625,-5.46875 2.796875,-2.703125 2.796875,0.09375 H 3.9375 c 0,-3.78125 1.4375,-7.25 3.859375,-10.125 C 7.953125,-10.1875 8.125,-10.3125 8.125,-10.5625 v -0.75 z m 0,0"
             id="path151725" />
        </g>
      </g>
      <g
         fill="#ffffff"
         fill-opacity="1"
         id="g2926">
        <g
           id="use2924"
           transform="translate(277.83542,937.1524)">
          <path
             d="m 1.703125,-1.359375 v 1.34375 h 1.34375 v -1.34375 z m 0,0"
             id="path151697" />
        </g>
      </g>
      <g
         fill="#ffffff"
         fill-opacity="1"
         id="g2930">
        <g
           id="use2928"
           transform="translate(282.51541,937.1524)">
          <path
             d="m 1.390625,-8.703125 c 0.75,-1.09375 1.46875,-1.953125 3.109375,-1.953125 0.96875,0 1.984375,0.53125 1.984375,1.640625 0,1.984375 -2.03125,2.390625 -3.609375,2.46875 V -5.6875 h 1.1875 c 0.8125,0 1.625,0.109375 2.203125,0.75 0.453125,0.453125 0.65625,1.09375 0.65625,1.734375 0,1.40625 -1.015625,2.5 -2.53125,2.5 -1.453125,0 -2.765625,-0.78125 -3.59375,-1.9375 -0.109375,0.234375 -0.15625,0.6875 -0.15625,0.828125 V -1.75 C 0.90625,-1.078125 2.15625,-0.28125 3.046875,-0.015625 3.5,0.109375 3.9375,0.171875 4.40625,0.171875 6.09375,0.171875 8.125,-1 8.125,-3.140625 8.125,-4.25 7.46875,-5.1875 6.484375,-5.734375 c -0.28125,-0.171875 -0.625,-0.34375 -0.96875,-0.375 C 6.59375,-6.625 7.625,-7.578125 7.625,-9 c 0,-1.65625 -1.75,-2.515625 -3.171875,-2.515625 -1.4375,0 -2.65625,0.71875 -3.484375,1.875 -0.03125,0.046875 -0.078125,0.09375 -0.078125,0.171875 0,0.15625 0.328125,0.53125 0.5,0.765625 z m 0,0"
             id="path151733" />
        </g>
      </g>
      <g
         fill="#ffffff"
         fill-opacity="1"
         id="g2934">
        <g
           id="use2932"
           transform="translate(291.26965,937.1524)">
          <path
             d="m 1.390625,-8.703125 c 0.75,-1.09375 1.46875,-1.953125 3.109375,-1.953125 0.96875,0 1.984375,0.53125 1.984375,1.640625 0,1.984375 -2.03125,2.390625 -3.609375,2.46875 V -5.6875 h 1.1875 c 0.8125,0 1.625,0.109375 2.203125,0.75 0.453125,0.453125 0.65625,1.09375 0.65625,1.734375 0,1.40625 -1.015625,2.5 -2.53125,2.5 -1.453125,0 -2.765625,-0.78125 -3.59375,-1.9375 -0.109375,0.234375 -0.15625,0.6875 -0.15625,0.828125 V -1.75 C 0.90625,-1.078125 2.15625,-0.28125 3.046875,-0.015625 3.5,0.109375 3.9375,0.171875 4.40625,0.171875 6.09375,0.171875 8.125,-1 8.125,-3.140625 8.125,-4.25 7.46875,-5.1875 6.484375,-5.734375 c -0.28125,-0.171875 -0.625,-0.34375 -0.96875,-0.375 C 6.59375,-6.625 7.625,-7.578125 7.625,-9 c 0,-1.65625 -1.75,-2.515625 -3.171875,-2.515625 -1.4375,0 -2.65625,0.71875 -3.484375,1.875 -0.03125,0.046875 -0.078125,0.09375 -0.078125,0.171875 0,0.15625 0.328125,0.53125 0.5,0.765625 z m 0,0"
             id="path151737" />
        </g>
      </g>
      <g
         fill="#ffffff"
         fill-opacity="1"
         id="g2938">
        <g
           id="use2936"
           transform="translate(227.05754,857.06256)">
          <path
             d="m 1.453125,-11.3125 v 6.171875 h 0.78125 c 0.203125,0 0.25,-0.140625 0.328125,-0.265625 0.5,-0.65625 1.296875,-0.9375 2.0625,-0.9375 1.671875,0 2.15625,1.5 2.15625,2.734375 0,0.734375 -0.125,1.5625 -0.671875,2.109375 C 5.59375,-0.953125 4.875,-0.703125 4.125,-0.703125 c -1.203125,0 -2.28125,-0.625 -2.9375,-1.609375 H 1.171875 c -0.15625,0.25 -0.453125,0.625 -0.453125,0.796875 0,0.15625 0.28125,0.375 0.40625,0.5 0.78125,0.75 1.859375,1.203125 2.953125,1.203125 2.015625,0 3.890625,-1.515625 3.890625,-3.75 0,-1.671875 -1.140625,-3.640625 -3.359375,-3.640625 -0.796875,0 -1.515625,0.328125 -2.109375,0.8125 v -4.015625 h 4.890625 v -0.90625 z m 0,0"
             id="path151721" />
        </g>
      </g>
      <g
         fill="#ffffff"
         fill-opacity="1"
         id="g2942">
        <g
           id="use2940"
           transform="translate(235.81177,857.06256)">
          <path
             d="m 1.953125,-5.6875 h -0.03125 c 0,-1.984375 0.5625,-4.96875 3.546875,-4.96875 0.71875,0 1.265625,0.1875 1.90625,0.359375 V -11 c 0,-0.46875 -1.625,-0.515625 -1.9375,-0.515625 -2.578125,0 -4.234375,2.421875 -4.578125,4.75 -0.046875,0.390625 -0.0625,0.796875 -0.0625,1.1875 0,2.046875 0.328125,4.5625 2.390625,5.53125 C 3.5625,0.125 4,0.1875 4.421875,0.1875 c 2.09375,0 3.53125,-1.96875 3.53125,-3.96875 0,-1.359375 -0.5625,-3.15625 -1.890625,-3.75 -0.34375,-0.140625 -0.6875,-0.171875 -1.046875,-0.171875 -1.25,0.03125 -2.6875,0.890625 -3.0625,2.015625 z M 2,-4.03125 V -4.125 c 0,-1.34375 0.984375,-2.734375 2.515625,-2.734375 1.125,0 2.078125,0.734375 2.28125,2.234375 0.015625,0.28125 0.015625,0.59375 0.015625,0.890625 0,1.25 -0.359375,3.03125 -2.328125,3.03125 -1.578125,0 -2.3125,-1.3125 -2.484375,-2.890625 0,-0.078125 0.015625,-0.140625 0.015625,-0.21875 0,-0.0625 0,-0.140625 -0.015625,-0.21875 z m 0,0"
             id="path151749" />
        </g>
      </g>
    </g>
  </g>
  <g
     inkscape:label="Capa 1"
     inkscape:groupmode="layer"
     id="layer1"
     transform="translate(-25.949774,-102.1557)">
    <g
       id="g35216"
       transform="matrix(0.35277777,0,0,0.35277777,-11.847197,-22.263639)" />
    <rect
       style="fill:none;stroke:#008080;stroke-width:2.99976;stroke-dasharray:none"
       id="rect22454"
       width="37.605034"
       height="37.569675"
       x="27.449654"
       y="103.65559" />
  </g>
</svg>
