<?xml version="1.0" encoding="UTF-8" standalone="no"?>
<!-- Created with Inkscape (http://www.inkscape.org/) -->

<svg
   width="40.57357mm"
   height="40.569443mm"
   viewBox="0 0 40.573571 40.569443"
   version="1.1"
   id="svg35221"
   inkscape:version="1.2.1 (9c6d41e410, 2022-07-14)"
   sodipodi:docname="76_clicked.svg"
   xmlns:inkscape="http://www.inkscape.org/namespaces/inkscape"
   xmlns:sodipodi="http://sodipodi.sourceforge.net/DTD/sodipodi-0.dtd"
   xmlns="http://www.w3.org/2000/svg"
   xmlns:svg="http://www.w3.org/2000/svg">
  <sodipodi:namedview
     id="namedview35223"
     pagecolor="#ffffff"
     bordercolor="#000000"
     borderopacity="0.25"
     inkscape:showpageshadow="2"
     inkscape:pageopacity="0.0"
     inkscape:pagecheckerboard="0"
     inkscape:deskcolor="#d1d1d1"
     inkscape:document-units="mm"
     showgrid="false"
     inkscape:zoom="2.8284271"
     inkscape:cx="-102.70726"
     inkscape:cy="77.428193"
     inkscape:window-width="1920"
     inkscape:window-height="1009"
     inkscape:window-x="2552"
     inkscape:window-y="421"
     inkscape:window-maximized="1"
     inkscape:current-layer="g62738" />
  <defs
     id="defs35218" />
  <g
     inkscape:groupmode="layer"
     id="layer2"
     inkscape:label="Capa 2">
    <g
       id="g62738"
       transform="matrix(0.35277777,0,0,0.35277777,-335.01277,-294.86295)">
      <path
         fill-rule="nonzero"
         fill="#c8c850"
         fill-opacity="1"
         d="m 949.64844,893.33203 v -51.75 c 0,-3.17578 2.57422,-5.75 5.75,-5.75 h 103.49996 c 3.1758,0 5.75,2.57422 5.75,5.75 v 103.5 c 0,3.17578 -2.5742,5.75 -5.75,5.75 H 955.39844 c -3.17578,0 -5.75,-2.57422 -5.75,-5.75"
         id="path4482"
         style="fill:#e76f51;fill-opacity:1" />
      <g
         fill="#ffffff"
         fill-opacity="1"
         id="g4486">
        <g
           id="use4484"
           transform="translate(981.11011,893.35229)">
          <path
             d="m 15.984375,-30.71875 c -1.125,0.125 -2.1875,0.21875 -3.296875,0.421875 C 5.875,-28.75 2.609375,-23.140625 2.609375,-14.65625 c 0,4.28125 0.8125,9.046875 4.03125,12.125 2.703125,2.578125 6.59375,3.4375 10.28125,3.4375 C 20.828125,0.90625 25.015625,0 27.8125,-3 c 2.734375,-3 3.546875,-7.28125 3.546875,-11.3125 0,-4.203125 -0.515625,-8.953125 -3.421875,-12.25 -2.875,-3.21875 -7.15625,-4.15625 -11.265625,-4.15625 z M 8.90625,-13.578125 v -2.578125 c 0,-4.5 0.734375,-11.21875 8.109375,-11.21875 2.09375,0 4.234375,0.71875 5.65625,2.265625 2.265625,2.53125 2.390625,6.296875 2.390625,9.390625 v 0.34375 c 0,3.125 -0.04687,7.40625 -2.3125,10.234375 -1.375,1.75 -3.5625,2.609375 -5.734375,2.609375 -2.28125,0 -4.59375,-0.9375 -5.96875,-2.828125 C 9.25,-7.84375 9.21875,-10.71875 8.90625,-13.578125 Z m 0,0"
             id="path63359" />
        </g>
      </g>
      <g
         fill="#ffffff"
         fill-opacity="1"
         id="g4490">
        <g
           id="use4488"
           transform="translate(1015.171,893.35229)">
          <path
             d="M 2.09375,-6.25 C 1.890625,-4.796875 1.546875,-3.421875 1.328125,-1.96875 V -1.75 c 0,0.9375 4.921875,1.921875 5.4375,2 L 8.3125,0.390625 c 0.296875,0.03125 0.59375,0.03125 0.90625,0.03125 3.5,0 7.75,-0.765625 7.75,-6.546875 0,-3.171875 -2.109375,-5.53125 -4.890625,-6.46875 -2.046875,-0.6875 -6.25,-0.4375 -6.25,-3.21875 0,-1.703125 1.625,-2.1875 3.078125,-2.1875 1.640625,0 3.265625,0.4375 4.671875,1.15625 0.734375,0.390625 1.28125,0.953125 1.96875,1.375 l 0.734375,-4.0625 C 13.921875,-20.515625 11.65625,-21 9.078125,-21 c -3.6875,0 -7.5,1.15625 -7.5,6.265625 0,3.71875 3.09375,5.828125 6.5625,6.515625 1.625,0.328125 4.578125,0.46875 4.578125,2.90625 0,1.71875 -1.5,2.3125 -3,2.40625 H 9.515625 c -2.53125,0 -4.671875,-0.859375 -6.6875,-2.625 -0.25,-0.25 -0.46875,-0.515625 -0.734375,-0.71875 z m 0,0"
             id="path63363" />
        </g>
      </g>
      <g
         fill="#ffffff"
         fill-opacity="1"
         id="g4494">
        <g
           id="use4492"
           transform="translate(978.11011,915.19232)">
          <path
             d="M 6.234375,-12.171875 C 4.84375,-12.015625 3.5,-11.46875 2.5,-10.328125 1.421875,-9.125 0.875,-7.53125 0.875,-5.9375 c 0,2.84375 2,6.125 5.671875,6.125 3.4375,0 5.640625,-3.15625 5.640625,-6.203125 0,-3.078125 -2.296875,-6.171875 -5.671875,-6.171875 -0.09375,0 -0.203125,0.01563 -0.28125,0.01563 z M 2.0625,-5.875 v -0.21875 c 0,-2.078125 0.90625,-4.34375 3.375,-5.0625 0.34375,-0.09375 0.734375,-0.140625 1.09375,-0.140625 2.515625,0 4.453125,2.21875 4.453125,5.015625 0,2.34375 -1.203125,5.578125 -4.46875,5.578125 H 6.359375 C 4.171875,-0.84375 2.5625,-2.71875 2.203125,-4.796875 2.140625,-5.171875 2.09375,-5.515625 2.0625,-5.875 Z m 0,0"
             id="path63299" />
        </g>
      </g>
      <g
         fill="#ffffff"
         fill-opacity="1"
         id="g4498">
        <g
           id="use4496"
           transform="translate(991.18439,915.19232)">
          <path
             d="M 0.53125,-1.71875 C 0.5,-1.421875 0.375,-1.125 0.375,-0.828125 c 0,0.453125 1.890625,0.8125 2.125,0.84375 0.328125,0.046875 0.671875,0.078125 1,0.078125 1.328125,0 2.796875,-0.5625 2.890625,-2.28125 v -0.125 C 6.390625,-3.40625 5.5625,-4.171875 4.625,-4.515625 3.65625,-4.875 1.46875,-4.71875 1.46875,-6.203125 c 0,-0.9375 0.96875,-1.234375 1.796875,-1.234375 h 0.34375 C 4.25,-7.421875 4.90625,-7.28125 5.5,-6.984375 c 0.125,0.0625 0.25,0.15625 0.40625,0.1875 l 0.15625,-0.9375 c -0.84375,-0.375 -1.703125,-0.5625 -2.640625,-0.5625 -1.328125,0 -2.953125,0.515625 -2.953125,2.234375 0,3.140625 4.90625,1.578125 4.90625,3.890625 0,0.953125 -0.921875,1.375 -1.859375,1.375 -1.125,0 -1.875,-0.3125 -2.984375,-0.921875 z m 0,0"
             id="path63311" />
        </g>
      </g>
      <g
         fill="#ffffff"
         fill-opacity="1"
         id="g4502">
        <g
           id="use4500"
           transform="translate(997.78729,915.19232)">
          <path
             d="m 2.171875,-6.421875 v -1.71875 h -1.0625 v 8.125 h 1.09375 V -4.34375 c 0,-1.171875 0.234375,-3.046875 1.953125,-3.046875 0.59375,0 1.265625,0.125 1.640625,0.625 C 6.109375,-6.375 6.125,-5.859375 6.125,-5.375 v 5.359375 H 7.234375 V -4.34375 c 0,-1.171875 0.234375,-3.046875 1.9375,-3.046875 0.609375,0 1.28125,0.125 1.65625,0.625 0.3125,0.390625 0.328125,0.90625 0.328125,1.390625 v 5.359375 h 1.109375 v -4.5625 c 0,-0.296875 0.01563,-0.625 0.01563,-0.9375 0,-0.765625 -0.109375,-1.578125 -0.65625,-2.125 C 11.15625,-8.109375 10.4375,-8.25 9.796875,-8.25 8.578125,-8.25 7.640625,-7.453125 7.1875,-6.40625 6.90625,-7.640625 6.109375,-8.25 4.75,-8.25 c -1.09375,0 -2.25,0.78125 -2.578125,1.828125 z m 0,0"
             id="path63339" />
        </g>
      </g>
      <g
         fill="#ffffff"
         fill-opacity="1"
         id="g4506">
        <g
           id="use4504"
           transform="translate(1011.1072,915.19232)">
          <path
             d="m 1.109375,-8.140625 v 8.125 H 2.1875 v -8.125 z m 0,-3.828125 V -10.875 H 2.1875 v -1.09375 z m 0,0"
             id="path63355" />
        </g>
      </g>
      <g
         fill="#ffffff"
         fill-opacity="1"
         id="g4510">
        <g
           id="use4508"
           transform="translate(1014.353,915.19232)">
          <path
             d="M 1.109375,-8.140625 V -2.3125 c 0,0.5 0.015625,1 0.21875,1.46875 0.328125,0.671875 1.015625,0.9375 1.71875,0.9375 1.15625,0 2.53125,-0.53125 3.0625,-1.609375 l 0.015625,1.5 h 1.09375 v -8.125 H 6.109375 v 4.125 C 6.109375,-3.75 6.125,-3.5 6.125,-3.234375 c 0,0.484375 -0.046875,0.96875 -0.28125,1.390625 -0.421875,0.703125 -1.15625,1.125 -2,1.125 -0.859375,0 -1.65625,0 -1.65625,-1.625 0,-0.25 0.015625,-0.515625 0.015625,-0.765625 v -5.03125 z m 0,0"
             id="path63347" />
        </g>
      </g>
      <g
         fill="#ffffff"
         fill-opacity="1"
         id="g4514">
        <g
           id="use4512"
           transform="translate(1022.6272,915.19232)">
          <path
             d="m 2.171875,-6.421875 v -1.71875 h -1.0625 v 8.125 h 1.09375 V -4.34375 c 0,-1.171875 0.234375,-3.046875 1.953125,-3.046875 0.59375,0 1.265625,0.125 1.640625,0.625 C 6.109375,-6.375 6.125,-5.859375 6.125,-5.375 v 5.359375 H 7.234375 V -4.34375 c 0,-1.171875 0.234375,-3.046875 1.9375,-3.046875 0.609375,0 1.28125,0.125 1.65625,0.625 0.3125,0.390625 0.328125,0.90625 0.328125,1.390625 v 5.359375 h 1.109375 v -4.5625 c 0,-0.296875 0.01563,-0.625 0.01563,-0.9375 0,-0.765625 -0.109375,-1.578125 -0.65625,-2.125 C 11.15625,-8.109375 10.4375,-8.25 9.796875,-8.25 8.578125,-8.25 7.640625,-7.453125 7.1875,-6.40625 6.90625,-7.640625 6.109375,-8.25 4.75,-8.25 c -1.09375,0 -2.25,0.78125 -2.578125,1.828125 z m 0,0"
             id="path63343" />
        </g>
      </g>
      <g
         fill="#ffffff"
         fill-opacity="1"
         id="g4518">
        <g
           id="use4516"
           transform="translate(978.47009,937.1524)">
          <path
             d="m 1.671875,-10.390625 v 0.875 c 0.828125,0 1.5625,-0.15625 2.359375,-0.5 V -0.875 h -2.25 v 0.859375 h 5.625 V -0.875 H 5.140625 v -10.640625 h -0.125 c -0.234375,0 -0.359375,0.21875 -0.53125,0.34375 -0.8125,0.578125 -1.828125,0.78125 -2.8125,0.78125 z m 0,0"
             id="path63323" />
        </g>
      </g>
      <g
         fill="#ffffff"
         fill-opacity="1"
         id="g4522">
        <g
           id="use4520"
           transform="translate(987.22437,937.1524)">
          <path
             d="M 6.796875,-5.671875 H 6.8125 c 0,1.859375 -0.40625,4.96875 -3.296875,4.96875 C 2.75,-0.703125 2.1875,-1 1.625,-1.390625 l -0.453125,0.78125 C 1.890625,-0.0625 2.703125,0.1875 3.59375,0.1875 c 2.9375,0 4.359375,-3.359375 4.359375,-5.796875 0,-2.015625 -0.234375,-4.8125 -2.421875,-5.703125 -0.359375,-0.140625 -0.765625,-0.203125 -1.15625,-0.203125 -2.1875,0 -3.578125,2 -3.578125,3.96875 0,1.796875 0.859375,3.90625 2.921875,3.90625 1.234375,0 2.703125,-0.875 3.078125,-2.03125 z M 6.75,-7.578125 c -0.015625,0.046875 -0.015625,0.109375 -0.015625,0.15625 0,0.125 0.015625,0.21875 0.015625,0.34375 v 0.09375 C 6.640625,-5.625 5.640625,-4.5 4.171875,-4.5 3.4375,-4.5 2.84375,-4.78125 2.40625,-5.390625 1.984375,-5.984375 1.921875,-6.71875 1.921875,-7.4375 c 0,-1.328125 0.265625,-3.21875 2.484375,-3.21875 1.640625,0 2.34375,1.703125 2.34375,2.953125 z m 0,0"
             id="path63319" />
        </g>
      </g>
      <g
         fill="#ffffff"
         fill-opacity="1"
         id="g4526">
        <g
           id="use4524"
           transform="translate(995.97858,937.1524)">
          <path
             d="m 4.125,-11.515625 c -3.21875,0.3125 -3.375,3.984375 -3.375,5.90625 0,2.328125 0.46875,5.796875 3.625,5.796875 h 0.21875 c 2.359375,-0.296875 3.390625,-2.265625 3.390625,-5.90625 0,-1.59375 -0.125,-3.515625 -1.203125,-4.734375 -0.59375,-0.671875 -1.5,-1.078125 -2.390625,-1.078125 -0.078125,0 -0.171875,0.01563 -0.265625,0.01563 z M 1.859375,-4.875 C 1.84375,-5.015625 1.84375,-5.171875 1.84375,-5.296875 V -5.625 c 0,-2.15625 0.0625,-5.03125 2.546875,-5.03125 2.484375,0 2.5,3.078125 2.5,4.734375 v 0.8125 c 0,1.453125 -0.09375,3.21875 -1.28125,4.046875 C 5.25,-0.8125 4.828125,-0.671875 4.390625,-0.671875 3.6875,-0.671875 2.984375,-1.03125 2.5625,-1.65625 2.078125,-2.375 1.96875,-3.34375 1.890625,-4.203125 1.875,-4.421875 1.890625,-4.65625 1.859375,-4.875 Z m 0,0"
             id="path63327" />
        </g>
      </g>
      <g
         fill="#ffffff"
         fill-opacity="1"
         id="g4530">
        <g
           id="use4528"
           transform="translate(1004.7328,937.1524)">
          <path
             d="m 1.703125,-1.359375 v 1.34375 h 1.34375 v -1.34375 z m 0,0"
             id="path63351" />
        </g>
      </g>
      <g
         fill="#ffffff"
         fill-opacity="1"
         id="g4534">
        <g
           id="use4532"
           transform="translate(1009.4128,937.1524)">
          <path
             d="m 1.25,-7.921875 c 0.3125,-1.25 0.921875,-2.6875 2.640625,-2.6875 1.46875,0 2.96875,0.890625 2.96875,2.578125 0,1.9375 -1.8125,3.265625 -3.125,4.359375 C 2.875,-2.9375 2.03125,-2.140625 1.21875,-1.359375 L 0.9375,-1.078125 C 0.828125,-0.984375 0.75,-0.9375 0.75,-0.75 v 0.734375 h 7.234375 v -0.96875 H 1.75 c 0.4375,-0.40625 0.90625,-0.8125 1.34375,-1.203125 0.609375,-0.53125 1.1875,-1.078125 1.8125,-1.578125 1.359375,-1.109375 3.078125,-2.328125 3.078125,-4.3125 0,-2 -1.671875,-3.375 -3.65625,-3.4375 h -0.125 c -1.46875,0 -2.796875,0.609375 -3.453125,2.40625 C 0.703125,-9.015625 0.640625,-8.875 0.640625,-8.75 v 0.03125 C 0.65625,-8.609375 0.75,-8.515625 0.8125,-8.453125 c 0.140625,0.171875 0.265625,0.375 0.4375,0.53125 z m 0,0"
             id="path63307" />
        </g>
      </g>
      <g
         fill="#ffffff"
         fill-opacity="1"
         id="g4538">
        <g
           id="use4536"
           transform="translate(1018.1671,937.1524)">
          <path
             d="m 1.390625,-8.703125 c 0.75,-1.09375 1.46875,-1.953125 3.109375,-1.953125 0.96875,0 1.984375,0.53125 1.984375,1.640625 0,1.984375 -2.03125,2.390625 -3.609375,2.46875 V -5.6875 h 1.1875 c 0.8125,0 1.625,0.109375 2.203125,0.75 0.453125,0.453125 0.65625,1.09375 0.65625,1.734375 0,1.40625 -1.015625,2.5 -2.53125,2.5 -1.453125,0 -2.765625,-0.78125 -3.59375,-1.9375 -0.109375,0.234375 -0.15625,0.6875 -0.15625,0.828125 V -1.75 C 0.90625,-1.078125 2.15625,-0.28125 3.046875,-0.015625 3.5,0.109375 3.9375,0.171875 4.40625,0.171875 6.09375,0.171875 8.125,-1 8.125,-3.140625 8.125,-4.25 7.46875,-5.1875 6.484375,-5.734375 c -0.28125,-0.171875 -0.625,-0.34375 -0.96875,-0.375 C 6.59375,-6.625 7.625,-7.578125 7.625,-9 c 0,-1.65625 -1.75,-2.515625 -3.171875,-2.515625 -1.4375,0 -2.65625,0.71875 -3.484375,1.875 -0.03125,0.046875 -0.078125,0.09375 -0.078125,0.171875 0,0.15625 0.328125,0.53125 0.5,0.765625 z m 0,0"
             id="path63315" />
        </g>
      </g>
      <g
         fill="#ffffff"
         fill-opacity="1"
         id="g4542">
        <g
           id="use4540"
           transform="translate(1026.9214,937.1524)">
          <path
             d="m 4.125,-11.515625 c -3.21875,0.3125 -3.375,3.984375 -3.375,5.90625 0,2.328125 0.46875,5.796875 3.625,5.796875 h 0.21875 c 2.359375,-0.296875 3.390625,-2.265625 3.390625,-5.90625 0,-1.59375 -0.125,-3.515625 -1.203125,-4.734375 -0.59375,-0.671875 -1.5,-1.078125 -2.390625,-1.078125 -0.078125,0 -0.171875,0.01563 -0.265625,0.01563 z M 1.859375,-4.875 C 1.84375,-5.015625 1.84375,-5.171875 1.84375,-5.296875 V -5.625 c 0,-2.15625 0.0625,-5.03125 2.546875,-5.03125 2.484375,0 2.5,3.078125 2.5,4.734375 v 0.8125 c 0,1.453125 -0.09375,3.21875 -1.28125,4.046875 C 5.25,-0.8125 4.828125,-0.671875 4.390625,-0.671875 3.6875,-0.671875 2.984375,-1.03125 2.5625,-1.65625 2.078125,-2.375 1.96875,-3.34375 1.890625,-4.203125 1.875,-4.421875 1.890625,-4.65625 1.859375,-4.875 Z m 0,0"
             id="path63331" />
        </g>
      </g>
      <g
         fill="#ffffff"
         fill-opacity="1"
         id="g4546">
        <g
           id="use4544"
           transform="translate(958.39471,857.06256)">
          <path
             d="m 0.625,-11.3125 v 0.96875 h 6.75 C 6.5625,-9.546875 5.8125,-8.75 5.1875,-7.796875 3.640625,-5.46875 2.796875,-2.703125 2.796875,0.09375 H 3.9375 c 0,-3.78125 1.4375,-7.25 3.859375,-10.125 C 7.953125,-10.1875 8.125,-10.3125 8.125,-10.5625 v -0.75 z m 0,0"
             id="path63303" />
        </g>
      </g>
      <g
         fill="#ffffff"
         fill-opacity="1"
         id="g4550">
        <g
           id="use4548"
           transform="translate(967.14899,857.06256)">
          <path
             d="m 1.953125,-5.6875 h -0.03125 c 0,-1.984375 0.5625,-4.96875 3.546875,-4.96875 0.71875,0 1.265625,0.1875 1.90625,0.359375 V -11 c 0,-0.46875 -1.625,-0.515625 -1.9375,-0.515625 -2.578125,0 -4.234375,2.421875 -4.578125,4.75 -0.046875,0.390625 -0.0625,0.796875 -0.0625,1.1875 0,2.046875 0.328125,4.5625 2.390625,5.53125 C 3.5625,0.125 4,0.1875 4.421875,0.1875 c 2.09375,0 3.53125,-1.96875 3.53125,-3.96875 0,-1.359375 -0.5625,-3.15625 -1.890625,-3.75 -0.34375,-0.140625 -0.6875,-0.171875 -1.046875,-0.171875 -1.25,0.03125 -2.6875,0.890625 -3.0625,2.015625 z M 2,-4.03125 V -4.125 c 0,-1.34375 0.984375,-2.734375 2.515625,-2.734375 1.125,0 2.078125,0.734375 2.28125,2.234375 0.015625,0.28125 0.015625,0.59375 0.015625,0.890625 0,1.25 -0.359375,3.03125 -2.328125,3.03125 -1.578125,0 -2.3125,-1.3125 -2.484375,-2.890625 0,-0.078125 0.015625,-0.140625 0.015625,-0.21875 0,-0.0625 0,-0.140625 -0.015625,-0.21875 z m 0,0"
             id="path63335" />
        </g>
      </g>
    </g>
  </g>
  <g
     inkscape:label="Capa 1"
     inkscape:groupmode="layer"
     id="layer1"
     transform="translate(-25.949774,-102.1557)">
    <g
       id="g35216"
       transform="matrix(0.35277777,0,0,0.35277777,-11.847197,-22.263639)" />
    <rect
       style="fill:none;stroke:#008080;stroke-width:2.99976;stroke-dasharray:none"
       id="rect22454"
       width="37.605034"
       height="37.569675"
       x="27.449654"
       y="103.65559" />
  </g>
</svg>
