<?xml version="1.0" encoding="UTF-8" standalone="no"?>
<!-- Created with Inkscape (http://www.inkscape.org/) -->

<svg
   width="40.57357mm"
   height="40.569443mm"
   viewBox="0 0 40.573571 40.569443"
   version="1.1"
   id="svg35221"
   inkscape:version="1.2.1 (9c6d41e410, 2022-07-14)"
   sodipodi:docname="79_clicked.svg"
   xmlns:inkscape="http://www.inkscape.org/namespaces/inkscape"
   xmlns:sodipodi="http://sodipodi.sourceforge.net/DTD/sodipodi-0.dtd"
   xmlns="http://www.w3.org/2000/svg"
   xmlns:svg="http://www.w3.org/2000/svg">
  <sodipodi:namedview
     id="namedview35223"
     pagecolor="#ffffff"
     bordercolor="#000000"
     borderopacity="0.25"
     inkscape:showpageshadow="2"
     inkscape:pageopacity="0.0"
     inkscape:pagecheckerboard="0"
     inkscape:deskcolor="#d1d1d1"
     inkscape:document-units="mm"
     showgrid="false"
     inkscape:zoom="2.8284271"
     inkscape:cx="-111.5461"
     inkscape:cy="77.428193"
     inkscape:window-width="1920"
     inkscape:window-height="1009"
     inkscape:window-x="2552"
     inkscape:window-y="421"
     inkscape:window-maximized="1"
     inkscape:current-layer="g66194" />
  <defs
     id="defs35218" />
  <g
     inkscape:groupmode="layer"
     id="layer2"
     inkscape:label="Capa 2">
    <g
       id="g66194"
       transform="matrix(0.35277777,0,0,0.35277777,-464.01299,-294.86295)">
      <path
         fill-rule="nonzero"
         fill="#c8c850"
         fill-opacity="1"
         d="m 1315.3203,893.33203 v -51.75 c 0,-3.17578 2.5742,-5.75 5.75,-5.75 h 103.4961 c 3.1758,0 5.75,2.57422 5.75,5.75 v 103.5 c 0,3.17578 -2.5742,5.75 -5.75,5.75 h -103.4961 c -3.1758,0 -5.75,-2.57422 -5.75,-5.75"
         id="path5166"
         style="fill:#e76f51;fill-opacity:1" />
      <g
         fill="#ffffff"
         fill-opacity="1"
         id="g5170">
        <g
           id="use5168"
           transform="translate(1345.0974,893.35229)">
          <path
             d="m 11.703125,-29.78125 -10.375,29.734375 H 7.03125 l 0.25,-0.46875 2.0625,-6 h 10.921875 l 0.90625,0.09375 0.671875,1.671875 1.640625,4.703125 H 30.03125 L 19.671875,-29.78125 Z m -1.03125,19.578125 4.0625,-12.125 0.609375,-2.09375 1.453125,4.96875 3.171875,9.25 z m 0,0"
             id="path66771" />
        </g>
      </g>
      <g
         fill="#ffffff"
         fill-opacity="1"
         id="g5174">
        <g
           id="use5172"
           transform="translate(1376.5229,893.35229)">
          <path
             d="M 2.578125,-20.265625 V -5.5625 c 0,1.234375 0.03125,2.5625 0.640625,3.671875 1.109375,2.140625 3.765625,2.3125 5.90625,2.3125 2.53125,0 5.65625,-1.53125 6.5625,-3.890625 l 0.03125,3.421875 h 5.703125 v -20.21875 H 15.59375 v 12.21875 c 0,2.953125 -1.03125,5.859375 -4.75,5.859375 -1.421875,0 -2.453125,-0.296875 -2.453125,-2.4375 v -15.640625 z m 0,0"
             id="path66763" />
        </g>
      </g>
      <g
         fill="#ffffff"
         fill-opacity="1"
         id="g5178">
        <g
           id="use5176"
           transform="translate(1356.7373,915.19232)">
          <path
             d="M 10.6875,-5.6875 H 6.890625 v 0.921875 H 9.59375 V -1.375 c 0,0.546875 -2.265625,0.65625 -2.65625,0.65625 -2.765625,0 -4.46875,-2.71875 -4.46875,-5.265625 0,-2.40625 1.53125,-5.28125 4.46875,-5.28125 0.828125,0 1.625,0.15625 2.359375,0.5 0.359375,0.1875 0.6875,0.4375 1.03125,0.640625 l 0.203125,-1.203125 C 10.078125,-11.53125 9.625,-11.75 9.125,-11.890625 c -0.75,-0.21875 -1.53125,-0.28125 -2.328125,-0.28125 -1.25,0 -2.515625,0.53125 -3.453125,1.375 -1.390625,1.21875 -2.09375,3.015625 -2.09375,4.8125 0,2.90625 2,6.171875 5.796875,6.171875 1.03125,0 3.640625,-0.46875 3.640625,-1.046875 z m 0,0"
             id="path66727" />
        </g>
      </g>
      <g
         fill="#ffffff"
         fill-opacity="1"
         id="g5182">
        <g
           id="use5180"
           transform="translate(1368.4915,915.19232)">
          <path
             d="m 4.125,-8.296875 c -2.171875,0.21875 -3.5625,2.1875 -3.5625,4.234375 0,1.921875 1.359375,4.15625 3.828125,4.15625 2.1875,0 3.78125,-2.046875 3.78125,-4.140625 0,-2.0625 -1.421875,-4.25 -3.8125,-4.25 z M 1.671875,-3.90625 v -0.203125 c 0,-0.921875 0.15625,-1.9375 0.859375,-2.609375 0.5,-0.484375 1.171875,-0.71875 1.84375,-0.71875 1.8125,0 2.71875,1.53125 2.71875,3.265625 0,1.65625 -0.859375,3.359375 -2.71875,3.359375 -1,0 -1.8125,-0.53125 -2.296875,-1.390625 -0.265625,-0.53125 -0.34375,-1.125 -0.40625,-1.703125 z m 0,0"
             id="path66767" />
        </g>
      </g>
      <g
         fill="#ffffff"
         fill-opacity="1"
         id="g5186">
        <g
           id="use5184"
           transform="translate(1377.2457,915.19232)">
          <path
             d="M 1.109375,-11.96875 V -0.015625 H 2.1875 V -11.96875 Z m 0,0"
             id="path66723" />
        </g>
      </g>
      <g
         fill="#ffffff"
         fill-opacity="1"
         id="g5190">
        <g
           id="use5188"
           transform="translate(1380.4915,915.19232)">
          <path
             d="m 6.125,-11.96875 v 4.859375 C 5.5625,-7.734375 5,-8.25 3.953125,-8.25 c -2.046875,0 -3.28125,2.171875 -3.28125,4.171875 0,1.921875 1.140625,4.171875 3.171875,4.171875 0.84375,0 1.890625,-0.5625 2.25,-1.328125 l 0.015625,1.21875 H 7.21875 V -11.96875 Z M 1.78125,-3.75 v -0.203125 c 0,-1.21875 0.28125,-2.515625 1.484375,-3.125 0.375,-0.1875 0.796875,-0.3125 1.21875,-0.3125 0.609375,0 1.5,0.421875 1.625,1.09375 v 4.0625 c 0,0.859375 -1.0625,1.453125 -1.765625,1.453125 -0.703125,0 -1.453125,-0.359375 -1.875,-0.890625 -0.5,-0.59375 -0.609375,-1.34375 -0.6875,-2.078125 z m 0,0"
             id="path66775" />
        </g>
      </g>
      <g
         fill="#ffffff"
         fill-opacity="1"
         id="g5194">
        <g
           id="use5192"
           transform="translate(1348.5774,937.1524)">
          <path
             d="m 1.671875,-10.390625 v 0.875 c 0.828125,0 1.5625,-0.15625 2.359375,-0.5 V -0.875 h -2.25 v 0.859375 h 5.625 V -0.875 H 5.140625 v -10.640625 h -0.125 c -0.234375,0 -0.359375,0.21875 -0.53125,0.34375 -0.8125,0.578125 -1.828125,0.78125 -2.8125,0.78125 z m 0,0"
             id="path66751" />
        </g>
      </g>
      <g
         fill="#ffffff"
         fill-opacity="1"
         id="g5198">
        <g
           id="use5196"
           transform="translate(1357.3315,937.1524)">
          <path
             d="M 6.796875,-5.671875 H 6.8125 c 0,1.859375 -0.40625,4.96875 -3.296875,4.96875 C 2.75,-0.703125 2.1875,-1 1.625,-1.390625 l -0.453125,0.78125 C 1.890625,-0.0625 2.703125,0.1875 3.59375,0.1875 c 2.9375,0 4.359375,-3.359375 4.359375,-5.796875 0,-2.015625 -0.234375,-4.8125 -2.421875,-5.703125 -0.359375,-0.140625 -0.765625,-0.203125 -1.15625,-0.203125 -2.1875,0 -3.578125,2 -3.578125,3.96875 0,1.796875 0.859375,3.90625 2.921875,3.90625 1.234375,0 2.703125,-0.875 3.078125,-2.03125 z M 6.75,-7.578125 c -0.015625,0.046875 -0.015625,0.109375 -0.015625,0.15625 0,0.125 0.015625,0.21875 0.015625,0.34375 v 0.09375 C 6.640625,-5.625 5.640625,-4.5 4.171875,-4.5 3.4375,-4.5 2.84375,-4.78125 2.40625,-5.390625 1.984375,-5.984375 1.921875,-6.71875 1.921875,-7.4375 c 0,-1.328125 0.265625,-3.21875 2.484375,-3.21875 1.640625,0 2.34375,1.703125 2.34375,2.953125 z m 0,0"
             id="path66739" />
        </g>
      </g>
      <g
         fill="#ffffff"
         fill-opacity="1"
         id="g5202">
        <g
           id="use5200"
           transform="translate(1366.0858,937.1524)">
          <path
             d="m 1.953125,-5.6875 h -0.03125 c 0,-1.984375 0.5625,-4.96875 3.546875,-4.96875 0.71875,0 1.265625,0.1875 1.90625,0.359375 V -11 c 0,-0.46875 -1.625,-0.515625 -1.9375,-0.515625 -2.578125,0 -4.234375,2.421875 -4.578125,4.75 -0.046875,0.390625 -0.0625,0.796875 -0.0625,1.1875 0,2.046875 0.328125,4.5625 2.390625,5.53125 C 3.5625,0.125 4,0.1875 4.421875,0.1875 c 2.09375,0 3.53125,-1.96875 3.53125,-3.96875 0,-1.359375 -0.5625,-3.15625 -1.890625,-3.75 -0.34375,-0.140625 -0.6875,-0.171875 -1.046875,-0.171875 -1.25,0.03125 -2.6875,0.890625 -3.0625,2.015625 z M 2,-4.03125 V -4.125 c 0,-1.34375 0.984375,-2.734375 2.515625,-2.734375 1.125,0 2.078125,0.734375 2.28125,2.234375 0.015625,0.28125 0.015625,0.59375 0.015625,0.890625 0,1.25 -0.359375,3.03125 -2.328125,3.03125 -1.578125,0 -2.3125,-1.3125 -2.484375,-2.890625 0,-0.078125 0.015625,-0.140625 0.015625,-0.21875 0,-0.0625 0,-0.140625 -0.015625,-0.21875 z m 0,0"
             id="path66755" />
        </g>
      </g>
      <g
         fill="#ffffff"
         fill-opacity="1"
         id="g5206">
        <g
           id="use5204"
           transform="translate(1374.84,937.1524)">
          <path
             d="m 1.703125,-1.359375 v 1.34375 h 1.34375 v -1.34375 z m 0,0"
             id="path66759" />
        </g>
      </g>
      <g
         fill="#ffffff"
         fill-opacity="1"
         id="g5210">
        <g
           id="use5208"
           transform="translate(1379.5199,937.1524)">
          <path
             d="M 6.796875,-5.671875 H 6.8125 c 0,1.859375 -0.40625,4.96875 -3.296875,4.96875 C 2.75,-0.703125 2.1875,-1 1.625,-1.390625 l -0.453125,0.78125 C 1.890625,-0.0625 2.703125,0.1875 3.59375,0.1875 c 2.9375,0 4.359375,-3.359375 4.359375,-5.796875 0,-2.015625 -0.234375,-4.8125 -2.421875,-5.703125 -0.359375,-0.140625 -0.765625,-0.203125 -1.15625,-0.203125 -2.1875,0 -3.578125,2 -3.578125,3.96875 0,1.796875 0.859375,3.90625 2.921875,3.90625 1.234375,0 2.703125,-0.875 3.078125,-2.03125 z M 6.75,-7.578125 c -0.015625,0.046875 -0.015625,0.109375 -0.015625,0.15625 0,0.125 0.015625,0.21875 0.015625,0.34375 v 0.09375 C 6.640625,-5.625 5.640625,-4.5 4.171875,-4.5 3.4375,-4.5 2.84375,-4.78125 2.40625,-5.390625 1.984375,-5.984375 1.921875,-6.71875 1.921875,-7.4375 c 0,-1.328125 0.265625,-3.21875 2.484375,-3.21875 1.640625,0 2.34375,1.703125 2.34375,2.953125 z m 0,0"
             id="path66743" />
        </g>
      </g>
      <g
         fill="#ffffff"
         fill-opacity="1"
         id="g5214">
        <g
           id="use5212"
           transform="translate(1388.274,937.1524)">
          <path
             d="m 0.625,-11.3125 v 0.96875 h 6.75 C 6.5625,-9.546875 5.8125,-8.75 5.1875,-7.796875 3.640625,-5.46875 2.796875,-2.703125 2.796875,0.09375 H 3.9375 c 0,-3.78125 1.4375,-7.25 3.859375,-10.125 C 7.953125,-10.1875 8.125,-10.3125 8.125,-10.5625 v -0.75 z m 0,0"
             id="path66731" />
        </g>
      </g>
      <g
         fill="#ffffff"
         fill-opacity="1"
         id="g5218">
        <g
           id="use5216"
           transform="translate(1324.0623,857.06256)">
          <path
             d="m 0.625,-11.3125 v 0.96875 h 6.75 C 6.5625,-9.546875 5.8125,-8.75 5.1875,-7.796875 3.640625,-5.46875 2.796875,-2.703125 2.796875,0.09375 H 3.9375 c 0,-3.78125 1.4375,-7.25 3.859375,-10.125 C 7.953125,-10.1875 8.125,-10.3125 8.125,-10.5625 v -0.75 z m 0,0"
             id="path66735" />
        </g>
      </g>
      <g
         fill="#ffffff"
         fill-opacity="1"
         id="g5222">
        <g
           id="use5220"
           transform="translate(1332.8164,857.06256)">
          <path
             d="M 6.796875,-5.671875 H 6.8125 c 0,1.859375 -0.40625,4.96875 -3.296875,4.96875 C 2.75,-0.703125 2.1875,-1 1.625,-1.390625 l -0.453125,0.78125 C 1.890625,-0.0625 2.703125,0.1875 3.59375,0.1875 c 2.9375,0 4.359375,-3.359375 4.359375,-5.796875 0,-2.015625 -0.234375,-4.8125 -2.421875,-5.703125 -0.359375,-0.140625 -0.765625,-0.203125 -1.15625,-0.203125 -2.1875,0 -3.578125,2 -3.578125,3.96875 0,1.796875 0.859375,3.90625 2.921875,3.90625 1.234375,0 2.703125,-0.875 3.078125,-2.03125 z M 6.75,-7.578125 c -0.015625,0.046875 -0.015625,0.109375 -0.015625,0.15625 0,0.125 0.015625,0.21875 0.015625,0.34375 v 0.09375 C 6.640625,-5.625 5.640625,-4.5 4.171875,-4.5 3.4375,-4.5 2.84375,-4.78125 2.40625,-5.390625 1.984375,-5.984375 1.921875,-6.71875 1.921875,-7.4375 c 0,-1.328125 0.265625,-3.21875 2.484375,-3.21875 1.640625,0 2.34375,1.703125 2.34375,2.953125 z m 0,0"
             id="path66747" />
        </g>
      </g>
    </g>
  </g>
  <g
     inkscape:label="Capa 1"
     inkscape:groupmode="layer"
     id="layer1"
     transform="translate(-25.949774,-102.1557)">
    <g
       id="g35216"
       transform="matrix(0.35277777,0,0,0.35277777,-11.847197,-22.263639)" />
    <rect
       style="fill:none;stroke:#008080;stroke-width:2.99976;stroke-dasharray:none"
       id="rect22454"
       width="37.605034"
       height="37.569675"
       x="27.449654"
       y="103.65559" />
  </g>
</svg>
