<?xml version="1.0" encoding="UTF-8" standalone="no"?>
<!-- Created with Inkscape (http://www.inkscape.org/) -->

<svg
   width="40.57357mm"
   height="40.569443mm"
   viewBox="0 0 40.573571 40.569443"
   version="1.1"
   id="svg35221"
   inkscape:version="1.2.1 (9c6d41e410, 2022-07-14)"
   sodipodi:docname="80.svg"
   xmlns:inkscape="http://www.inkscape.org/namespaces/inkscape"
   xmlns:sodipodi="http://sodipodi.sourceforge.net/DTD/sodipodi-0.dtd"
   xmlns="http://www.w3.org/2000/svg"
   xmlns:svg="http://www.w3.org/2000/svg">
  <sodipodi:namedview
     id="namedview35223"
     pagecolor="#ffffff"
     bordercolor="#000000"
     borderopacity="0.25"
     inkscape:showpageshadow="2"
     inkscape:pageopacity="0.0"
     inkscape:pagecheckerboard="0"
     inkscape:deskcolor="#d1d1d1"
     inkscape:document-units="mm"
     showgrid="false"
     inkscape:zoom="2.8284271"
     inkscape:cx="-111.5461"
     inkscape:cy="77.428193"
     inkscape:window-width="1920"
     inkscape:window-height="1009"
     inkscape:window-x="2552"
     inkscape:window-y="421"
     inkscape:window-maximized="1"
     inkscape:current-layer="g67274" />
  <defs
     id="defs35218" />
  <g
     inkscape:groupmode="layer"
     id="layer2"
     inkscape:label="Capa 2">
    <g
       id="g67274"
       transform="matrix(0.35277777,0,0,0.35277777,-507.01328,-294.86295)">
      <path
         fill-rule="nonzero"
         fill="#c8c850"
         fill-opacity="1"
         d="m 1437.2109,893.33203 v -51.75 c 0,-3.17578 2.5704,-5.75 5.7461,-5.75 h 103.5 c 3.1758,0 5.75,2.57422 5.75,5.75 v 103.5 c 0,3.17578 -2.5742,5.75 -5.75,5.75 h -103.5 c -3.1757,0 -5.7461,-2.57422 -5.7461,-5.75"
         id="path5356"
         style="fill:#e76f51;fill-opacity:1" />
      <g
         fill="#ffffff"
         fill-opacity="1"
         id="g5360">
        <g
           id="use5358"
           transform="translate(1465.6672,893.35229)">
          <path
             d="m 3.90625,-29.78125 v 29.734375 h 6.296875 v -13.40625 H 23.78125 v 13.40625 h 6.296875 V -29.78125 H 23.78125 v 12.265625 H 10.203125 V -29.78125 Z m 0,0"
             id="path67909" />
        </g>
      </g>
      <g
         fill="#ffffff"
         fill-opacity="1"
         id="g5364">
        <g
           id="use5362"
           transform="translate(1499.7279,893.35229)">
          <path
             d="m 15.515625,-5.234375 0.03125,4.71875 c 0,2.359375 -0.34375,5.53125 -3.9375,5.53125 C 9.515625,5.015625 7.375,4.578125 5.53125,3.5625 4.71875,3.078125 4.03125,2.484375 3.25,2.015625 v 2.875 c 0,0.171875 -0.03125,0.34375 -0.03125,0.546875 0,1.671875 5.5625,2.484375 6.59375,2.578125 0.640625,0.03125 1.234375,0.078125 1.890625,0.078125 3,0 6.46875,-0.515625 8.3125,-3.171875 1.1875,-1.75 1.40625,-3.84375 1.40625,-5.90625 0,-0.90625 -0.04687,-1.84375 -0.04687,-2.703125 v -17.046875 h -5.6875 v 3 c -1.375,-1.765625 -2.921875,-3 -5.453125,-3 -2.4375,0 -5.046875,0.859375 -6.59375,2.828125 -1.625,2.046875 -2.0625,4.75 -2.0625,7.359375 0,2.1875 0.171875,4.46875 1.421875,6.34375 1.5,2.3125 4.28125,3.125 6.9375,3.125 2.40625,0 4.890625,-1.75 5.578125,-4.15625 z M 15.546875,-10.75 c 0,2.5625 -0.640625,6.59375 -3.9375,6.59375 -1.5,0 -2.734375,-0.765625 -3.46875,-2.09375 C 7.40625,-7.671875 7.40625,-9.296875 7.40625,-10.84375 c 0,-3 1.125,-6.8125 4.796875,-6.8125 1.765625,0 3.484375,1.421875 3.484375,3.171875 V -10.75 Z m 0,0"
             id="path67905" />
        </g>
      </g>
      <g
         fill="#ffffff"
         fill-opacity="1"
         id="g5368">
        <g
           id="use5366"
           transform="translate(1466.2671,915.19232)">
          <path
             d="m 1.453125,-11.96875 v 11.953125 h 1.0625 l 0.015625,-10.84375 c 0.09375,0.359375 0.265625,0.703125 0.375,1.0625 0.265625,0.640625 0.5,1.25 0.765625,1.890625 L 6.5625,-0.875 c 0.125,0.328125 0.171875,0.65625 0.421875,0.65625 h 0.8125 C 7.921875,-0.234375 8.03125,-0.625 8.125,-0.84375 L 8.90625,-2.75 C 9.609375,-4.453125 10.296875,-6.171875 11,-7.875 c 0.28125,-0.671875 0.546875,-1.34375 0.8125,-2.03125 0.140625,-0.296875 0.28125,-0.625 0.359375,-0.953125 l 0.01563,10.84375 H 13.26563 V -11.96875 h -1.4375 L 11.671875,-11.9375 8.375,-3.90625 7.359375,-1.328125 3.015625,-11.9375 2.859375,-11.96875 Z m 0,0"
             id="path67841" />
        </g>
      </g>
      <g
         fill="#ffffff"
         fill-opacity="1"
         id="g5372">
        <g
           id="use5370"
           transform="translate(1481.0243,915.19232)">
          <path
             d="m 7.203125,-1.90625 c -0.84375,0.625 -1.625,1.125 -2.71875,1.125 -1.6875,0 -2.84375,-1.53125 -2.84375,-3.546875 h 5.6875 c 0,-1.8125 -0.75,-3.96875 -3.15625,-3.96875 -2.34375,0 -3.5625,2.265625 -3.5625,4.28125 V -3.9375 c 0.03125,2.03125 1.578125,4.03125 3.78125,4.03125 0.953125,0 1.890625,-0.328125 2.65625,-0.890625 0.09375,-0.078125 0.234375,-0.15625 0.234375,-0.3125 0,-0.0625 -0.015625,-0.109375 -0.03125,-0.171875 -0.015625,-0.203125 -0.03125,-0.421875 -0.046875,-0.625 z M 1.71875,-5 c 0.265625,-1.125 1.046875,-2.4375 2.390625,-2.4375 1.140625,0 1.9375,0.796875 2.203125,1.859375 C 6.359375,-5.390625 6.375,-5.1875 6.421875,-5 Z m 0,0"
             id="path67881" />
        </g>
      </g>
      <g
         fill="#ffffff"
         fill-opacity="1"
         id="g5376">
        <g
           id="use5374"
           transform="translate(1488.8242,915.19232)">
          <path
             d="M 2.15625,-5.96875 V -8.140625 H 1.109375 v 8.125 H 2.1875 V -3.9375 c 0,-1.203125 0.34375,-2.53125 2.09375,-3.15625 0.375,-0.125 0.75,-0.1875 1.125,-0.1875 V -8.25 c -1.09375,0 -2.125,0.53125 -2.765625,1.421875 -0.203125,0.25 -0.40625,0.546875 -0.484375,0.859375 z m 0,0"
             id="path67897" />
        </g>
      </g>
      <g
         fill="#ffffff"
         fill-opacity="1"
         id="g5380">
        <g
           id="use5378"
           transform="translate(1494.3472,915.19232)">
          <path
             d="m 7.296875,-1.953125 c -0.890625,0.65625 -1.609375,1.15625 -2.84375,1.15625 -1.921875,0 -2.671875,-1.78125 -2.671875,-3.28125 0,-1.609375 0.765625,-3.34375 2.671875,-3.34375 0.8125,0 1.484375,0.140625 2.3125,0.59375 0.125,0.0625 0.21875,0.140625 0.359375,0.1875 0.015625,-0.28125 0.140625,-0.578125 0.140625,-0.828125 0,-0.609375 -2.5,-0.828125 -2.75,-0.828125 -1.78125,0 -3.09375,1.171875 -3.609375,2.703125 C 0.71875,-5.0625 0.671875,-4.5 0.671875,-3.921875 0.6875,-1.90625 2.25,0.09375 4.40625,0.09375 c 0.96875,0 2,-0.296875 2.734375,-0.890625 0.125,-0.078125 0.25,-0.15625 0.25,-0.3125 0,-0.265625 -0.078125,-0.5625 -0.09375,-0.84375 z m 0,0"
             id="path67845" />
        </g>
      </g>
      <g
         fill="#ffffff"
         fill-opacity="1"
         id="g5384">
        <g
           id="use5382"
           transform="translate(1502.1471,915.19232)">
          <path
             d="M 1.109375,-8.140625 V -2.3125 c 0,0.5 0.015625,1 0.21875,1.46875 0.328125,0.671875 1.015625,0.9375 1.71875,0.9375 1.15625,0 2.53125,-0.53125 3.0625,-1.609375 l 0.015625,1.5 h 1.09375 v -8.125 H 6.109375 v 4.125 C 6.109375,-3.75 6.125,-3.5 6.125,-3.234375 c 0,0.484375 -0.046875,0.96875 -0.28125,1.390625 -0.421875,0.703125 -1.15625,1.125 -2,1.125 -0.859375,0 -1.65625,0 -1.65625,-1.625 0,-0.25 0.015625,-0.515625 0.015625,-0.765625 v -5.03125 z m 0,0"
             id="path67885" />
        </g>
      </g>
      <g
         fill="#ffffff"
         fill-opacity="1"
         id="g5388">
        <g
           id="use5386"
           transform="translate(1510.4213,915.19232)">
          <path
             d="M 2.15625,-5.96875 V -8.140625 H 1.109375 v 8.125 H 2.1875 V -3.9375 c 0,-1.203125 0.34375,-2.53125 2.09375,-3.15625 0.375,-0.125 0.75,-0.1875 1.125,-0.1875 V -8.25 c -1.09375,0 -2.125,0.53125 -2.765625,1.421875 -0.203125,0.25 -0.40625,0.546875 -0.484375,0.859375 z m 0,0"
             id="path67901" />
        </g>
      </g>
      <g
         fill="#ffffff"
         fill-opacity="1"
         id="g5392">
        <g
           id="use5390"
           transform="translate(1515.9442,915.19232)">
          <path
             d="m 0.125,-8.140625 c 0.078125,0.28125 0.203125,0.5625 0.328125,0.84375 C 1.234375,-5.09375 2.171875,-2.921875 3,-0.75 l 0.171875,0.421875 c 0.03125,0.09375 0.078125,0.1875 0.09375,0.28125 v 0.03125 c 0,0.078125 -0.03125,0.171875 -0.0625,0.234375 l -0.1875,0.5 c -0.25,0.703125 -0.640625,1.375 -1.46875,1.375 -0.46875,0 -0.9375,-0.109375 -1.40625,-0.21875 L 0.21875,2.84375 c 0.453125,0.0625 0.90625,0.125 1.34375,0.125 1.359375,0 2,-1.234375 2.421875,-2.328125 0.171875,-0.5 0.359375,-0.984375 0.53125,-1.484375 L 6.875,-7.25 c 0.109375,-0.296875 0.234375,-0.578125 0.328125,-0.890625 h -0.9375 c -0.171875,0 -0.171875,0.09375 -0.203125,0.203125 l -0.140625,0.359375 c -0.53125,1.359375 -1,2.78125 -1.484375,4.15625 C 4.171875,-2.671875 3.890625,-1.90625 3.75,-1.125 3.21875,-3.328125 2.234375,-5.515625 1.421875,-7.609375 l -0.125,-0.34375 c -0.0625,-0.140625 -0.09375,-0.1875 -0.25,-0.1875 z m 0,0"
             id="path67893" />
        </g>
      </g>
      <g
         fill="#ffffff"
         fill-opacity="1"
         id="g5396">
        <g
           id="use5394"
           transform="translate(1466.0271,937.1524)">
          <path
             d="m 1.25,-7.921875 c 0.3125,-1.25 0.921875,-2.6875 2.640625,-2.6875 1.46875,0 2.96875,0.890625 2.96875,2.578125 0,1.9375 -1.8125,3.265625 -3.125,4.359375 C 2.875,-2.9375 2.03125,-2.140625 1.21875,-1.359375 L 0.9375,-1.078125 C 0.828125,-0.984375 0.75,-0.9375 0.75,-0.75 v 0.734375 h 7.234375 v -0.96875 H 1.75 c 0.4375,-0.40625 0.90625,-0.8125 1.34375,-1.203125 0.609375,-0.53125 1.1875,-1.078125 1.8125,-1.578125 1.359375,-1.109375 3.078125,-2.328125 3.078125,-4.3125 0,-2 -1.671875,-3.375 -3.65625,-3.4375 h -0.125 c -1.46875,0 -2.796875,0.609375 -3.453125,2.40625 C 0.703125,-9.015625 0.640625,-8.875 0.640625,-8.75 v 0.03125 C 0.65625,-8.609375 0.75,-8.515625 0.8125,-8.453125 c 0.140625,0.171875 0.265625,0.375 0.4375,0.53125 z m 0,0"
             id="path67853" />
        </g>
      </g>
      <g
         fill="#ffffff"
         fill-opacity="1"
         id="g5400">
        <g
           id="use5398"
           transform="translate(1474.7813,937.1524)">
          <path
             d="m 4.125,-11.515625 c -3.21875,0.3125 -3.375,3.984375 -3.375,5.90625 0,2.328125 0.46875,5.796875 3.625,5.796875 h 0.21875 c 2.359375,-0.296875 3.390625,-2.265625 3.390625,-5.90625 0,-1.59375 -0.125,-3.515625 -1.203125,-4.734375 -0.59375,-0.671875 -1.5,-1.078125 -2.390625,-1.078125 -0.078125,0 -0.171875,0.01563 -0.265625,0.01563 z M 1.859375,-4.875 C 1.84375,-5.015625 1.84375,-5.171875 1.84375,-5.296875 V -5.625 c 0,-2.15625 0.0625,-5.03125 2.546875,-5.03125 2.484375,0 2.5,3.078125 2.5,4.734375 v 0.8125 c 0,1.453125 -0.09375,3.21875 -1.28125,4.046875 C 5.25,-0.8125 4.828125,-0.671875 4.390625,-0.671875 3.6875,-0.671875 2.984375,-1.03125 2.5625,-1.65625 2.078125,-2.375 1.96875,-3.34375 1.890625,-4.203125 1.875,-4.421875 1.890625,-4.65625 1.859375,-4.875 Z m 0,0"
             id="path67865" />
        </g>
      </g>
      <g
         fill="#ffffff"
         fill-opacity="1"
         id="g5404">
        <g
           id="use5402"
           transform="translate(1483.5355,937.1524)">
          <path
             d="m 4.125,-11.515625 c -3.21875,0.3125 -3.375,3.984375 -3.375,5.90625 0,2.328125 0.46875,5.796875 3.625,5.796875 h 0.21875 c 2.359375,-0.296875 3.390625,-2.265625 3.390625,-5.90625 0,-1.59375 -0.125,-3.515625 -1.203125,-4.734375 -0.59375,-0.671875 -1.5,-1.078125 -2.390625,-1.078125 -0.078125,0 -0.171875,0.01563 -0.265625,0.01563 z M 1.859375,-4.875 C 1.84375,-5.015625 1.84375,-5.171875 1.84375,-5.296875 V -5.625 c 0,-2.15625 0.0625,-5.03125 2.546875,-5.03125 2.484375,0 2.5,3.078125 2.5,4.734375 v 0.8125 c 0,1.453125 -0.09375,3.21875 -1.28125,4.046875 C 5.25,-0.8125 4.828125,-0.671875 4.390625,-0.671875 3.6875,-0.671875 2.984375,-1.03125 2.5625,-1.65625 2.078125,-2.375 1.96875,-3.34375 1.890625,-4.203125 1.875,-4.421875 1.890625,-4.65625 1.859375,-4.875 Z m 0,0"
             id="path67869" />
        </g>
      </g>
      <g
         fill="#ffffff"
         fill-opacity="1"
         id="g5408">
        <g
           id="use5406"
           transform="translate(1492.2897,937.1524)">
          <path
             d="m 1.703125,-1.359375 v 1.34375 h 1.34375 v -1.34375 z m 0,0"
             id="path67889" />
        </g>
      </g>
      <g
         fill="#ffffff"
         fill-opacity="1"
         id="g5412">
        <g
           id="use5410"
           transform="translate(1496.9696,937.1524)">
          <path
             d="m 1.453125,-11.3125 v 6.171875 h 0.78125 c 0.203125,0 0.25,-0.140625 0.328125,-0.265625 0.5,-0.65625 1.296875,-0.9375 2.0625,-0.9375 1.671875,0 2.15625,1.5 2.15625,2.734375 0,0.734375 -0.125,1.5625 -0.671875,2.109375 C 5.59375,-0.953125 4.875,-0.703125 4.125,-0.703125 c -1.203125,0 -2.28125,-0.625 -2.9375,-1.609375 H 1.171875 c -0.15625,0.25 -0.453125,0.625 -0.453125,0.796875 0,0.15625 0.28125,0.375 0.40625,0.5 0.78125,0.75 1.859375,1.203125 2.953125,1.203125 2.015625,0 3.890625,-1.515625 3.890625,-3.75 0,-1.671875 -1.140625,-3.640625 -3.359375,-3.640625 -0.796875,0 -1.515625,0.328125 -2.109375,0.8125 v -4.015625 h 4.890625 v -0.90625 z m 0,0"
             id="path67849" />
        </g>
      </g>
      <g
         fill="#ffffff"
         fill-opacity="1"
         id="g5416">
        <g
           id="use5414"
           transform="translate(1505.7238,937.1524)">
          <path
             d="M 6.796875,-5.671875 H 6.8125 c 0,1.859375 -0.40625,4.96875 -3.296875,4.96875 C 2.75,-0.703125 2.1875,-1 1.625,-1.390625 l -0.453125,0.78125 C 1.890625,-0.0625 2.703125,0.1875 3.59375,0.1875 c 2.9375,0 4.359375,-3.359375 4.359375,-5.796875 0,-2.015625 -0.234375,-4.8125 -2.421875,-5.703125 -0.359375,-0.140625 -0.765625,-0.203125 -1.15625,-0.203125 -2.1875,0 -3.578125,2 -3.578125,3.96875 0,1.796875 0.859375,3.90625 2.921875,3.90625 1.234375,0 2.703125,-0.875 3.078125,-2.03125 z M 6.75,-7.578125 c -0.015625,0.046875 -0.015625,0.109375 -0.015625,0.15625 0,0.125 0.015625,0.21875 0.015625,0.34375 v 0.09375 C 6.640625,-5.625 5.640625,-4.5 4.171875,-4.5 3.4375,-4.5 2.84375,-4.78125 2.40625,-5.390625 1.984375,-5.984375 1.921875,-6.71875 1.921875,-7.4375 c 0,-1.328125 0.265625,-3.21875 2.484375,-3.21875 1.640625,0 2.34375,1.703125 2.34375,2.953125 z m 0,0"
             id="path67857" />
        </g>
      </g>
      <g
         fill="#ffffff"
         fill-opacity="1"
         id="g5420">
        <g
           id="use5418"
           transform="translate(1514.4779,937.1524)">
          <path
             d="m 4.125,-11.515625 c -3.21875,0.3125 -3.375,3.984375 -3.375,5.90625 0,2.328125 0.46875,5.796875 3.625,5.796875 h 0.21875 c 2.359375,-0.296875 3.390625,-2.265625 3.390625,-5.90625 0,-1.59375 -0.125,-3.515625 -1.203125,-4.734375 -0.59375,-0.671875 -1.5,-1.078125 -2.390625,-1.078125 -0.078125,0 -0.171875,0.01563 -0.265625,0.01563 z M 1.859375,-4.875 C 1.84375,-5.015625 1.84375,-5.171875 1.84375,-5.296875 V -5.625 c 0,-2.15625 0.0625,-5.03125 2.546875,-5.03125 2.484375,0 2.5,3.078125 2.5,4.734375 v 0.8125 c 0,1.453125 -0.09375,3.21875 -1.28125,4.046875 C 5.25,-0.8125 4.828125,-0.671875 4.390625,-0.671875 3.6875,-0.671875 2.984375,-1.03125 2.5625,-1.65625 2.078125,-2.375 1.96875,-3.34375 1.890625,-4.203125 1.875,-4.421875 1.890625,-4.65625 1.859375,-4.875 Z m 0,0"
             id="path67873" />
        </g>
      </g>
      <g
         fill="#ffffff"
         fill-opacity="1"
         id="g5424">
        <g
           id="use5422"
           transform="translate(1445.9525,857.06256)">
          <path
             d="m 3.21875,-6.125 v 0.015625 C 1.90625,-5.71875 0.625,-4.78125 0.625,-3.1875 c 0,2.078125 1.953125,3.375 3.828125,3.375 H 4.53125 C 6.3125,0.15625 8.125,-1.25 8.125,-3.171875 c 0,-1.5 -1.21875,-2.5625 -2.59375,-2.9375 0.921875,-0.34375 2.359375,-0.9375 2.359375,-2.5 0,-1.75 -1.796875,-2.90625 -3.515625,-2.90625 -1.609375,0 -3.515625,1.046875 -3.515625,2.890625 v 0.140625 C 0.96875,-7.28125 2.15625,-6.28125 3.21875,-6.125 Z M 1.75,-2.96875 c 0,-0.0625 -0.015625,-0.140625 -0.015625,-0.21875 0,-1.46875 1.109375,-2.5 2.640625,-2.5 1.421875,0 2.609375,0.90625 2.609375,2.484375 0,1.578125 -1.125,2.5 -2.59375,2.5 C 2.96875,-0.703125 1.921875,-1.5 1.75,-2.96875 Z m 0.140625,-5.453125 v -0.15625 c 0,-1.5625 1.296875,-2.078125 2.453125,-2.078125 1.109375,0 2.359375,0.40625 2.515625,1.875 V -8.625 c 0,1.53125 -1.296875,2.078125 -2.46875,2.078125 -1.1875,0 -2.328125,-0.546875 -2.5,-1.875 z m 0,0"
             id="path67861" />
        </g>
      </g>
      <g
         fill="#ffffff"
         fill-opacity="1"
         id="g5428">
        <g
           id="use5426"
           transform="translate(1454.7067,857.06256)">
          <path
             d="m 4.125,-11.515625 c -3.21875,0.3125 -3.375,3.984375 -3.375,5.90625 0,2.328125 0.46875,5.796875 3.625,5.796875 h 0.21875 c 2.359375,-0.296875 3.390625,-2.265625 3.390625,-5.90625 0,-1.59375 -0.125,-3.515625 -1.203125,-4.734375 -0.59375,-0.671875 -1.5,-1.078125 -2.390625,-1.078125 -0.078125,0 -0.171875,0.01563 -0.265625,0.01563 z M 1.859375,-4.875 C 1.84375,-5.015625 1.84375,-5.171875 1.84375,-5.296875 V -5.625 c 0,-2.15625 0.0625,-5.03125 2.546875,-5.03125 2.484375,0 2.5,3.078125 2.5,4.734375 v 0.8125 c 0,1.453125 -0.09375,3.21875 -1.28125,4.046875 C 5.25,-0.8125 4.828125,-0.671875 4.390625,-0.671875 3.6875,-0.671875 2.984375,-1.03125 2.5625,-1.65625 2.078125,-2.375 1.96875,-3.34375 1.890625,-4.203125 1.875,-4.421875 1.890625,-4.65625 1.859375,-4.875 Z m 0,0"
             id="path67877" />
        </g>
      </g>
    </g>
  </g>
  <g
     inkscape:label="Capa 1"
     inkscape:groupmode="layer"
     id="layer1"
     transform="translate(-25.949774,-102.1557)">
    <g
       id="g35216"
       transform="matrix(0.35277777,0,0,0.35277777,-11.847197,-22.263639)" />
  </g>
</svg>
