<?xml version="1.0" encoding="iso-8859-1"?>
<!-- Generator: Adobe Illustrator 19.0.0, SVG Export Plug-In . SVG Version: 6.00 Build 0)  -->
<svg version="1.1" id="Layer_1" xmlns="http://www.w3.org/2000/svg" xmlns:xlink="http://www.w3.org/1999/xlink" x="0px" y="0px"
	 viewBox="0 0 511.998 511.998" style="enable-background:new 0 0 511.998 511.998;" xml:space="preserve">
<path style="fill:#D0F7D6;" d="M180.547,256c0,47.624-38.607,86.231-86.231,86.231S8.085,303.624,8.085,256
	s38.607-86.231,86.231-86.231S180.547,208.375,180.547,256z"/>
<path style="fill:#80A886;" d="M137.433,256c0,23.812-19.304,43.116-43.116,43.116S51.202,279.811,51.202,256
	s19.304-43.116,43.116-43.116S137.433,232.187,137.433,256z"/>
<path style="fill:#DCF3F9;" d="M503.913,94.317c0,47.624-38.607,86.231-86.231,86.231s-86.231-38.607-86.231-86.231
	s38.607-86.231,86.231-86.231S503.913,46.693,503.913,94.317z"/>
<path style="fill:#84A7B7;" d="M460.797,94.317c0,23.812-19.304,43.116-43.116,43.116c-23.812,0-43.116-19.304-43.116-43.116
	s19.304-43.116,43.116-43.116C441.494,51.202,460.797,70.505,460.797,94.317z"/>
<path style="fill:#DBCFFF;" d="M503.913,417.682c0,47.624-38.607,86.231-86.231,86.231s-86.231-38.607-86.231-86.231
	s38.607-86.231,86.231-86.231S503.913,370.058,503.913,417.682z"/>
<path style="fill:#A384E2;" d="M460.797,417.682c0,23.812-19.304,43.116-43.116,43.116c-23.812,0-43.116-19.304-43.116-43.116
	c0-23.812,19.304-43.116,43.116-43.116C441.494,374.566,460.797,393.869,460.797,417.682z"/>
<path style="fill:#4C4C4C;" d="M323.4,96.827C322.016,44.84,363.184,1.42,415.171,0.036c25.146-0.687,49.119,8.506,67.401,25.839
	c18.282,17.334,28.719,40.748,29.39,65.931c0.67,25.183-8.507,49.12-25.839,67.402c-17.334,18.281-40.749,28.719-65.932,29.389
	c-0.846,0.023-1.696,0.034-2.539,0.034c-22.844,0-44.778-8.216-62.021-23.287c-3.362-2.938-3.706-8.045-0.767-11.407
	c2.939-3.363,8.044-3.705,11.407-0.766c14.813,12.947,33.833,19.776,53.49,19.264c20.867-0.556,40.268-9.204,54.63-24.352
	s21.965-34.981,21.41-55.848c-0.556-20.866-9.204-40.268-24.352-54.63c-15.148-14.362-34.964-21.967-55.848-21.41
	c-43.075,1.147-77.184,37.125-76.039,80.199c0.119,4.464-3.403,8.178-7.866,8.297C327.242,104.807,323.519,101.289,323.4,96.827z
	 M366.482,417.681c0-5.357,0.828-10.525,2.359-15.381L135.904,285.83c-9.302,12.932-24.478,21.367-41.588,21.367
	c-28.231,0-51.2-22.968-51.2-51.2s22.969-51.2,51.2-51.2c17.108,0,32.285,8.438,41.587,21.367l232.939-116.468
	c-1.534-4.857-2.359-10.023-2.359-15.381c0-28.231,22.968-51.2,51.199-51.2c28.231,0,51.2,22.968,51.2,51.2s-22.969,51.2-51.2,51.2
	c-17.11,0-32.286-8.436-41.588-21.367L143.155,240.617c1.533,4.857,2.359,10.024,2.359,15.381c0,5.357-0.827,10.523-2.359,15.38
	l232.938,116.469c9.302-12.93,24.479-21.367,41.587-21.367c28.231,0,51.2,22.969,51.2,51.2c0,28.231-22.969,51.2-51.2,51.2
	C389.449,468.88,366.482,445.912,366.482,417.681z M382.65,417.681c0,19.316,15.715,35.031,35.03,35.031
	c19.317,0,35.031-15.715,35.031-35.031c0-19.317-15.715-35.031-35.031-35.031C398.365,382.649,382.65,398.365,382.65,417.681z
	 M382.65,94.317c0,19.316,15.715,35.031,35.03,35.031c19.317,0,35.031-15.716,35.031-35.031s-15.715-35.031-35.031-35.031
	C398.365,59.285,382.65,75,382.65,94.317z M129.347,255.999c0-19.316-15.715-35.031-35.03-35.031
	c-19.317,0-35.031,15.716-35.031,35.031s15.715,35.031,35.031,35.031C113.632,291.03,129.347,275.314,129.347,255.999z
	 M422.573,323.493c-22.967-1.195-45.531,6.02-63.526,20.312c-3.496,2.777-4.079,7.862-1.302,11.359
	c2.777,3.497,7.861,4.078,11.359,1.302c14.905-11.84,33.605-17.814,52.63-16.827c43.033,2.236,76.224,39.064,73.988,82.096
	c-1.082,20.845-10.217,40.022-25.724,53.996c-15.506,13.975-35.517,21.077-56.371,19.991c-20.845-1.083-40.022-10.218-53.997-25.725
	c-13.974-15.505-21.074-35.525-19.991-56.37c0.232-4.459-3.196-8.261-7.655-8.493c-4.413-0.23-8.261,3.194-8.493,7.654
	c-1.306,25.159,7.262,49.32,24.127,68.034c16.866,18.714,40.009,29.74,65.169,31.046c1.675,0.087,3.343,0.13,5.007,0.13
	c23.341-0.001,45.56-8.514,63.027-24.257c18.713-16.866,29.74-40.009,31.047-65.167C514.568,370.64,474.509,326.192,422.573,323.493
	z M129.257,325.894c-10.928,5.475-22.683,8.25-34.941,8.25c-43.091,0-78.147-35.056-78.147-78.147s35.056-78.147,78.147-78.147
	c12.258,0,24.013,2.776,34.941,8.25c3.994,2.001,8.851,0.384,10.848-3.607c1.999-3.991,0.385-8.848-3.607-10.849
	c-13.196-6.611-27.388-9.963-42.183-9.963C42.309,161.682,0,203.992,0,255.998s42.309,94.315,94.315,94.315
	c14.795,0,28.988-3.352,42.183-9.963c3.991-1.999,5.606-6.858,3.607-10.849C138.108,325.51,133.251,323.896,129.257,325.894z"/>
<g>
</g>
<g>
</g>
<g>
</g>
<g>
</g>
<g>
</g>
<g>
</g>
<g>
</g>
<g>
</g>
<g>
</g>
<g>
</g>
<g>
</g>
<g>
</g>
<g>
</g>
<g>
</g>
<g>
</g>
</svg>
